<svg width="24" height="24" viewBox="0 0 24 24" fill="none" xmlns="http://www.w3.org/2000/svg">
<path d="M17.2615 7.37174L12.3925 6.05174C12.1354 5.98275 11.8646 5.98275 11.6075 6.05174L6.7385 7.37174C6.52761 7.43127 6.34167 7.55751 6.20854 7.73157C6.07541 7.90562 6.00224 8.11812 6 8.33724V14.6082C6 14.8159 6.06465 15.0184 6.18499 15.1877C6.30532 15.3569 6.47536 15.4845 6.6715 15.5527L11.742 17.3167C11.9043 17.3732 12.0752 17.401 12.247 17.3987C12.4254 17.3995 12.6023 17.3666 12.7685 17.3017L17.356 15.5517C17.5419 15.4751 17.7017 15.3462 17.8159 15.1808C17.9302 15.0153 17.9941 14.8203 18 14.6192V8.33724C17.9982 8.118 17.9253 7.90526 17.7921 7.73111C17.6589 7.55696 17.4726 7.43083 17.2615 7.37174ZM11.869 7.01724C11.9548 6.99424 12.0452 6.99424 12.131 7.01724L15.2095 7.85174C15.2359 7.85902 15.2591 7.87475 15.2757 7.89651C15.2923 7.91828 15.3013 7.94488 15.3013 7.97224C15.3013 7.9996 15.2923 8.02621 15.2757 8.04798C15.2591 8.06974 15.2359 8.08547 15.2095 8.09274L12.2775 8.93574C12.2557 8.94175 12.2328 8.94175 12.211 8.93574L8.893 8.06524C8.86641 8.05813 8.84292 8.04244 8.82616 8.0206C8.8094 7.99877 8.80032 7.97202 8.80032 7.94449C8.80032 7.91697 8.8094 7.89022 8.82616 7.86838C8.84292 7.84655 8.86641 7.83086 8.893 7.82374L11.869 7.01724ZM7.084 14.6372C7.05948 14.6287 7.03822 14.6128 7.02317 14.5917C7.00811 14.5705 7.00002 14.5452 7 14.5192V8.76474C7.00004 8.74535 7.00457 8.72622 7.01325 8.70887C7.02192 8.69152 7.0345 8.67641 7.05 8.66474C7.06519 8.6532 7.08279 8.64523 7.10149 8.64142C7.12019 8.63761 7.1395 8.63806 7.158 8.64274L11.658 9.82374C11.6848 9.83072 11.7085 9.84638 11.7254 9.86828C11.7423 9.89018 11.7515 9.91707 11.7515 9.94474V16.0847C11.7513 16.1044 11.7465 16.1237 11.7374 16.1411C11.7282 16.1585 11.7151 16.1735 11.699 16.1847C11.6827 16.1963 11.664 16.2038 11.6442 16.2067C11.6245 16.2095 11.6044 16.2077 11.5855 16.2012L7.084 14.6372Z" fill="#1C5ECE"/>
</svg>
