<svg width="24" height="24" viewBox="0 0 24 24" fill="none" xmlns="http://www.w3.org/2000/svg">
<path d="M19.0153 5.82899L12.5233 4.06899C12.1805 3.977 11.8195 3.977 11.4767 4.06899L4.98467 5.82899C4.70348 5.90836 4.45556 6.07668 4.27805 6.30876C4.10054 6.54083 4.00299 6.82416 4 7.11633V15.4777C4 15.7546 4.08621 16.0246 4.24665 16.2502C4.40709 16.4759 4.63381 16.646 4.89533 16.737L11.656 19.089C11.8724 19.1643 12.1002 19.2013 12.3293 19.1983C12.5672 19.1993 12.8031 19.1554 13.0247 19.069L19.1413 16.7357C19.3892 16.6334 19.6022 16.4616 19.7546 16.241C19.9069 16.0204 19.9922 15.7603 20 15.4923V7.11633C19.9977 6.824 19.9004 6.54035 19.7227 6.30815C19.5451 6.07595 19.2969 5.90778 19.0153 5.82899ZM11.8253 5.35633C11.9398 5.32566 12.0602 5.32566 12.1747 5.35633L16.2793 6.46899C16.3145 6.47869 16.3455 6.49966 16.3676 6.52868C16.3897 6.55771 16.4017 6.59318 16.4017 6.62966C16.4017 6.66614 16.3897 6.70161 16.3676 6.73063C16.3455 6.75966 16.3145 6.78063 16.2793 6.79033L12.37 7.91433C12.341 7.92233 12.3103 7.92233 12.2813 7.91433L7.85733 6.75366C7.82188 6.74417 7.79056 6.72325 7.76821 6.69414C7.74587 6.66503 7.73376 6.62936 7.73376 6.59266C7.73376 6.55596 7.74587 6.52029 7.76821 6.49118C7.79056 6.46207 7.82188 6.44115 7.85733 6.43166L11.8253 5.35633ZM5.44533 15.5163C5.41264 15.505 5.38429 15.4837 5.36422 15.4555C5.34415 15.4273 5.33336 15.3936 5.33333 15.359V7.68633C5.33338 7.66046 5.33943 7.63496 5.351 7.61183C5.36257 7.58869 5.37934 7.56855 5.4 7.55299C5.42026 7.5376 5.44372 7.52697 5.46865 7.52189C5.49358 7.51681 5.51934 7.51742 5.544 7.52366L11.544 9.09833C11.5797 9.10762 11.6113 9.12851 11.6339 9.15771C11.6564 9.1869 11.6687 9.22276 11.6687 9.25966V17.4463C11.6684 17.4725 11.662 17.4983 11.6498 17.5215C11.6376 17.5447 11.6201 17.5646 11.5987 17.5797C11.577 17.595 11.552 17.6051 11.5256 17.6089C11.4993 17.6127 11.4725 17.6102 11.4473 17.6017L5.44533 15.5163Z" fill="#1C5ECE"/>
</svg>
