<svg width="24" height="24" viewBox="0 0 24 24" fill="none" xmlns="http://www.w3.org/2000/svg">
<path fill-rule="evenodd" clip-rule="evenodd" d="M3.00245 5.07894C2.99555 3.93358 3.92913 3 5.06693 3C5.61922 3 6.06693 2.55228 6.06693 2C6.06693 1.44772 5.61922 1 5.06693 1C2.82255 1 0.988887 2.83367 1.00249 5.09099C1.00581 5.64326 1.45622 6.08827 2.00849 6.08495C2.56077 6.08162 3.00578 5.63122 3.00245 5.07894ZM3 18.9272C3 18.375 2.55228 17.9272 2 17.9272C1.44772 17.9272 1 18.375 1 18.9272C1 21.1613 2.80272 22.9681 5.03097 23.0015C5.56184 23.0307 6.0266 22.6368 6.08001 22.1024C6.13493 21.5529 5.73396 21.0629 5.18441 21.0079L5.17417 21.0069C5.14312 21.0038 5.11194 21.0022 5.08074 21.002C3.92365 20.995 3 20.0628 3 18.9272ZM22.085 18C21.5327 18 21.085 18.4477 21.085 19C21.085 20.1355 20.1613 21.0678 19.0042 21.0747C18.973 21.0749 18.9418 21.0766 18.9108 21.0797L18.9005 21.0807C18.351 21.1356 17.95 21.6256 18.005 22.1752C18.0584 22.7095 18.5231 23.1034 19.054 23.0743C21.2822 23.0408 23.085 21.2341 23.085 19C23.085 18.4477 22.6372 18 22.085 18ZM20.9857 5.08503C20.9857 3.93761 20.0559 3.01153 18.9318 3.01026L18.9212 3.01031H18.9109C18.3598 3.01031 17.9126 2.56444 17.911 2.01334C17.9093 1.46224 18.3538 1.01367 18.9049 1.01033C21.1563 0.996684 22.9857 2.83477 22.9857 5.08503C22.9857 5.63731 22.538 6.08503 21.9857 6.08503C21.4334 6.08503 20.9857 5.63731 20.9857 5.08503ZM22 8.70728C22.5523 8.70728 23 9.15499 23 9.70728V14.3193C23 14.8716 22.5523 15.3193 22 15.3193C21.4477 15.3193 21 14.8716 21 14.3193V9.70728C21 9.15499 21.4477 8.70728 22 8.70728ZM3.01434 9.70728C3.01434 9.15499 2.56663 8.70728 2.01434 8.70728C1.46206 8.70728 1.01434 9.15499 1.01434 9.70728V14.3193C1.01434 14.8716 1.46206 15.3193 2.01434 15.3193C2.56663 15.3193 3.01434 14.8716 3.01434 14.3193V9.70728ZM8.70117 2.02051C8.70117 1.46822 9.14889 1.02051 9.70117 1.02051H14.3132C14.8655 1.02051 15.3132 1.46822 15.3132 2.02051C15.3132 2.57279 14.8655 3.02051 14.3132 3.02051H9.70117C9.14889 3.02051 8.70117 2.57279 8.70117 2.02051ZM9.70117 21.0061C9.14889 21.0061 8.70117 21.4538 8.70117 22.0061C8.70117 22.5584 9.14889 23.0061 9.70117 23.0061H14.3132C14.8655 23.0061 15.3132 22.5584 15.3132 22.0061C15.3132 21.4538 14.8655 21.0061 14.3132 21.0061H9.70117Z" fill="#161616"/>
</svg>
