<svg width="24" height="24" viewBox="0 0 24 24" fill="none" xmlns="http://www.w3.org/2000/svg">
<path fill-rule="evenodd" clip-rule="evenodd" d="M4.75246 6.46345C4.74677 5.51936 5.51614 4.75 6.45404 4.75C6.86826 4.75 7.20404 4.41421 7.20404 4C7.20404 3.58579 6.86826 3.25 6.45404 3.25C4.6862 3.25 3.24177 4.69443 3.25249 6.47249C3.25498 6.8867 3.59278 7.22045 4.00699 7.21796C4.4212 7.21546 4.75495 6.87766 4.75246 6.46345ZM4.75 17.5417C4.75 17.1275 4.41421 16.7917 4 16.7917C3.58579 16.7917 3.25 17.1275 3.25 17.5417C3.25 19.3017 4.67049 20.7254 6.42656 20.7512C6.82509 20.7735 7.17417 20.478 7.21425 20.0769C7.25545 19.6648 6.95472 19.2973 6.54256 19.2561L6.53436 19.2552C6.51107 19.2529 6.48769 19.2517 6.46429 19.2515C5.51141 19.2458 4.75 18.4779 4.75 17.5417ZM20 16.7917C19.5858 16.7917 19.25 17.1275 19.25 17.5417C19.25 18.4779 18.4886 19.2458 17.5357 19.2515C17.5123 19.2517 17.4889 19.2529 17.4656 19.2552L17.4574 19.2561C17.0453 19.2973 16.7446 19.6648 16.7857 20.0769C16.8258 20.478 17.1749 20.7735 17.5734 20.7512C19.3295 20.7254 20.75 19.3017 20.75 17.5417C20.75 17.1275 20.4142 16.7917 20 16.7917ZM19.2385 6.46787C19.2385 5.52252 18.4725 4.75894 17.5452 4.75806L17.537 4.7581H17.5288C17.1154 4.7581 16.78 4.4237 16.7788 4.01037C16.7775 3.59705 17.1109 3.26062 17.5242 3.25812C19.2974 3.24737 20.7385 4.69512 20.7385 6.46787C20.7385 6.88209 20.4027 7.21787 19.9885 7.21787C19.5743 7.21787 19.2385 6.88209 19.2385 6.46787ZM20 9.41577C20.4142 9.41577 20.75 9.75156 20.75 10.1658V13.8554C20.75 14.2696 20.4142 14.6054 20 14.6054C19.5858 14.6054 19.25 14.2696 19.25 13.8554V10.1658C19.25 9.75156 19.5858 9.41577 20 9.41577ZM4.76147 10.1658C4.76147 9.75156 4.42569 9.41577 4.01147 9.41577C3.59726 9.41577 3.26147 9.75156 3.26147 10.1658V13.8554C3.26147 14.2696 3.59726 14.6054 4.01147 14.6054C4.42569 14.6054 4.76147 14.2696 4.76147 13.8554V10.1658ZM9.41093 4.01636C9.41093 3.60214 9.74672 3.26636 10.1609 3.26636H13.8506C14.2648 3.26636 14.6006 3.60214 14.6006 4.01636C14.6006 4.43057 14.2648 4.76636 13.8506 4.76636H10.1609C9.74672 4.76636 9.41093 4.43057 9.41093 4.01636ZM10.1609 19.2549C9.74672 19.2549 9.41093 19.5907 9.41093 20.0049C9.41093 20.4191 9.74672 20.7549 10.1609 20.7549H13.8506C14.2648 20.7549 14.6006 20.4191 14.6006 20.0049C14.6006 19.5907 14.2648 19.2549 13.8506 19.2549H10.1609Z" fill="#161616"/>
</svg>
