<svg width="24" height="24" viewBox="0 0 24 24" fill="none" xmlns="http://www.w3.org/2000/svg">
<path fill-rule="evenodd" clip-rule="evenodd" d="M6.62745 7.84721C6.62339 7.17389 7.17229 6.625 7.84114 6.625C8.18632 6.625 8.46614 6.34518 8.46614 6C8.46614 5.65482 8.18632 5.375 7.84114 5.375C6.48068 5.375 5.36923 6.48645 5.37747 7.85474C5.37955 8.19992 5.66105 8.47805 6.00623 8.47597C6.3514 8.47389 6.62953 8.19239 6.62745 7.84721ZM6.625 16.1565C6.625 15.8113 6.34518 15.5315 6 15.5315C5.65482 15.5315 5.375 15.8113 5.375 16.1565C5.375 17.5106 6.46748 18.6055 7.8177 18.6261C8.1493 18.644 8.43952 18.3979 8.47288 18.0641C8.50721 17.7206 8.2566 17.4144 7.91313 17.38L7.90699 17.3794C7.88758 17.3775 7.8681 17.3765 7.84859 17.3763C7.16795 17.3722 6.625 16.8239 6.625 16.1565ZM18 15.5315C17.6548 15.5315 17.375 15.8113 17.375 16.1565C17.375 16.8239 16.8321 17.3722 16.1514 17.3763C16.1319 17.3765 16.1124 17.3775 16.093 17.3794L16.0869 17.38C15.7434 17.4144 15.4928 17.7206 15.5271 18.0641C15.5605 18.3979 15.8507 18.644 16.1823 18.6261C17.5325 18.6055 18.625 17.5106 18.625 16.1565C18.625 15.8113 18.3452 15.5315 18 15.5315ZM17.3664 7.85097C17.3664 7.17623 16.8196 6.63194 16.1592 6.6311L16.1527 6.63114H16.1466C15.8021 6.63114 15.5226 6.35247 15.5216 6.00803C15.5205 5.66359 15.7983 5.38324 16.1428 5.38115C17.5077 5.37288 18.6164 6.48709 18.6164 7.85097C18.6164 8.19615 18.3366 8.47597 17.9914 8.47597C17.6462 8.47597 17.3664 8.19615 17.3664 7.85097ZM18 9.99927C18.3452 9.99927 18.625 10.2791 18.625 10.6243V13.3915C18.625 13.7367 18.3452 14.0165 18 14.0165C17.6548 14.0165 17.375 13.7367 17.375 13.3915V10.6243C17.375 10.2791 17.6548 9.99927 18 9.99927ZM6.63362 10.6243C6.63362 10.2791 6.3538 9.99927 6.00862 9.99927C5.66344 9.99927 5.38362 10.2791 5.38362 10.6243V13.3915C5.38362 13.7367 5.66344 14.0165 6.00862 14.0165C6.3538 14.0165 6.63362 13.7367 6.63362 13.3915V10.6243ZM9.99568 6.01221C9.99568 5.66703 10.2755 5.38721 10.6207 5.38721H13.3879C13.7331 5.38721 14.0129 5.66703 14.0129 6.01221C14.0129 6.35739 13.7331 6.63721 13.3879 6.63721H10.6207C10.2755 6.63721 9.99568 6.35739 9.99568 6.01221ZM10.6207 17.3787C10.2755 17.3787 9.99568 17.6585 9.99568 18.0037C9.99568 18.3488 10.2755 18.6287 10.6207 18.6287H13.3879C13.7331 18.6287 14.0129 18.3488 14.0129 18.0037C14.0129 17.6585 13.7331 17.3787 13.3879 17.3787H10.6207Z" fill="#161616"/>
</svg>
