<?xml version="1.0" encoding="UTF-8"?>
<svg width="24px" height="24px" viewBox="0 0 24 24" version="1.1" xmlns="http://www.w3.org/2000/svg" xmlns:xlink="http://www.w3.org/1999/xlink">
    <title>Bold / Large/ Help / Question</title>
    <g id="Bold-/-Large/-Help-/-Question" stroke="none" stroke-width="1" fill="none" fill-rule="evenodd">
        <path d="M19.0833333,2 L4.91666667,2 C3.30583615,2 2,3.30583615 2,4.91666667 L2,21.1666667 C2,21.4800931 2.17578088,21.767037 2.45505484,21.9093119 C2.73432881,22.0515869 3.06981497,22.0251281 3.32333334,21.8408333 L7.63250001,18.7066667 C7.66815795,18.6808752 7.71099275,18.6668884 7.75500001,18.6666667 L19.0833333,18.6666667 C20.6941639,18.6666667 22,17.3608305 22,15.75 L22,4.91666667 C22,3.30583615 20.6941639,2 19.0833333,2 Z M20.3333333,15.75 C20.3333333,16.4403559 19.7736893,17 19.0833333,17 L7.41666667,17 C7.24062124,16.9999663 7.06908743,17.0556856 6.92666667,17.1591667 L4.00000001,19.2891667 C3.93699764,19.3357692 3.85299833,19.3425538 3.78333334,19.3066667 C3.71246752,19.2717287 3.6673361,19.1998408 3.66666667,19.1208333 L3.66666667,4.91666667 C3.66666667,4.22631073 4.22631074,3.66666667 4.91666667,3.66666667 L19.0833333,3.66666667 C19.7736893,3.66666667 20.3333333,4.22631073 20.3333333,4.91666667 L20.3333333,15.75 Z M12,16.1666667 C12.6903559,16.1666667 13.25,15.6070226 13.25,14.9166667 C13.25,14.2263107 12.6903559,13.6666667 12,13.6666667 C11.3096441,13.6666667 10.75,14.2263107 10.75,14.9166667 C10.75,15.6070226 11.3096441,16.1666667 12,16.1666667 Z M12,4.71166667 C10.1590508,4.71166667 8.66666667,6.20405083 8.66666667,8.045 C8.66666667,8.50523729 9.03976272,8.87833333 9.50000001,8.87833333 C9.9602373,8.87833333 10.3333333,8.50523729 10.3333333,8.045 C10.3333207,7.21258765 10.9474871,6.5078005 11.7720792,6.39396603 C12.5966712,6.28013155 13.3788181,6.79215843 13.604336,7.59343989 C13.8298539,8.39472135 13.4295852,9.23953506 12.6666667,9.5725 C11.7554738,9.97017716 11.166516,10.8699737 11.1666667,11.8641667 C11.1666667,12.324404 11.5397627,12.6975 12,12.6975 C12.4602373,12.6975 12.8333333,12.324404 12.8333333,11.8641667 C12.8331726,11.5326682 13.0295099,11.2325994 13.3333333,11.1 C14.7799548,10.4685775 15.5853931,8.90908694 15.2629044,7.3639627 C14.9404156,5.81883845 13.5784195,4.71166667 12,4.71166667 Z" id="Shape" fill="#050505"></path>
    </g>
</svg>