<svg width="24" height="24" viewBox="0 0 24 24" fill="none" xmlns="http://www.w3.org/2000/svg">
<path fill-rule="evenodd" clip-rule="evenodd" d="M9.75007 6H16C16.5523 6 17 6.46718 17 7.04348V16.9565C17 17.5328 16.5523 18 16 18H9.75007C9.19779 18 8.75007 17.5328 8.75007 16.9565V15.3913C8.75007 15.1032 8.97393 14.8696 9.25007 14.8696C9.52621 14.8696 9.75007 15.1032 9.75007 15.3913V16.6957C9.75007 16.8397 9.86199 16.9565 10.0001 16.9565H15.75C15.8881 16.9565 16 16.8397 16 16.6957V7.30435C16 7.16027 15.8881 7.04348 15.75 7.04348H10.0001C9.86199 7.04348 9.75007 7.16027 9.75007 7.30435V8.6087C9.75007 8.89684 9.52621 9.13043 9.25007 9.13043C8.97393 9.13043 8.75007 8.89684 8.75007 8.6087V7.04348C8.75007 6.46718 9.19779 6 9.75007 6ZM6 12.2609C6 12.6931 6.33578 13.0435 6.74999 13.0435H11.25V14.3478C11.2499 14.5403 11.3513 14.7172 11.5139 14.808C11.6769 14.8974 11.8736 14.8875 12.0274 14.7819L15.0274 12.695C15.1665 12.5982 15.25 12.4353 15.25 12.2609C15.25 12.0864 15.1665 11.9235 15.0274 11.8268L12.0274 9.73982C11.874 9.63301 11.6767 9.623 11.5141 9.7138C11.3514 9.8046 11.2499 9.98145 11.25 10.1739V11.4783H6.74999C6.33578 11.4783 6 11.8286 6 12.2609Z" fill="#161616"/>
</svg>
