<svg width="24" height="24" viewBox="0 0 24 24" fill="none" xmlns="http://www.w3.org/2000/svg">
<path fill-rule="evenodd" clip-rule="evenodd" d="M9.6667 4H17.6666C18.403 4 19 4.62291 19 5.3913V18.6087C19 19.3771 18.403 20 17.6666 20H9.6667C8.93033 20 8.33338 19.3771 8.33338 18.6087V16.5217C8.33338 16.1375 8.63186 15.8261 9.00004 15.8261C9.36823 15.8261 9.6667 16.1375 9.6667 16.5217V18.2609C9.6667 18.453 9.81594 18.6087 10 18.6087H17.3333C17.5174 18.6087 17.6666 18.453 17.6666 18.2609V5.73913C17.6666 5.54703 17.5174 5.3913 17.3333 5.3913H10C9.81594 5.3913 9.6667 5.54703 9.6667 5.73913V7.47826C9.6667 7.86246 9.36823 8.17391 9.00004 8.17391C8.63186 8.17391 8.33338 7.86246 8.33338 7.47826V5.3913C8.33338 4.62291 8.93033 4 9.6667 4ZM4 12.3478C4 12.9241 4.44771 13.3913 4.99999 13.3913H10.9999V15.1304C10.9998 15.387 11.1351 15.6229 11.3519 15.744C11.5692 15.8633 11.8314 15.8499 12.0366 15.7092L16.0366 12.9266C16.222 12.7976 16.3334 12.5804 16.3334 12.3478C16.3334 12.1153 16.222 11.8981 16.0366 11.769L12.0366 8.98643C11.832 8.84401 11.5689 8.83067 11.3521 8.95174C11.1353 9.0728 10.9999 9.3086 10.9999 9.56521V11.3043H4.99999C4.44771 11.3043 4 11.7715 4 12.3478Z" fill="#161616"/>
</svg>
