<svg width="24" height="24" viewBox="0 0 24 24" fill="none" xmlns="http://www.w3.org/2000/svg">
<path fill-rule="evenodd" clip-rule="evenodd" d="M13.3333 16.5217C13.3333 16.1375 13.6317 15.8261 13.9999 15.8261C14.3681 15.8261 14.6666 16.1375 14.6666 16.5217V18.6087C14.6666 19.3771 14.0696 20 13.3333 20H6.33332C5.59695 20 5 19.3771 5 18.6087V5.3913C5 4.62291 5.59695 4 6.33332 4H13.3333C14.0696 4 14.6666 4.62291 14.6666 5.3913V7.47826C14.6666 7.86246 14.3681 8.17391 13.9999 8.17391C13.6317 8.17391 13.3333 7.86246 13.3333 7.47826V5.73913C13.3333 5.54703 13.184 5.3913 12.9999 5.3913H6.66665C6.48256 5.3913 6.33332 5.54703 6.33332 5.73913V18.2609C6.33332 18.453 6.48256 18.6087 6.66665 18.6087H12.9999C13.184 18.6087 13.3333 18.453 13.3333 18.2609V16.5217ZM16.7032 8.98713L20.7032 11.7697V11.769C20.8886 11.8981 21 12.1153 21 12.3478C21 12.5804 20.8886 12.7976 20.7032 12.9266L16.7032 15.7092C16.5936 15.7854 16.4649 15.8261 16.3332 15.8261C15.9671 15.8208 15.6716 15.5124 15.6665 15.1304V13.3913H9.66659C9.30933 13.3913 8.97921 13.1924 8.80058 12.8696C8.62194 12.5467 8.62194 12.1489 8.80058 11.8261C8.97921 11.5032 9.30933 11.3043 9.66659 11.3043H15.6665V9.56522C15.6667 9.30872 15.8022 9.07316 16.019 8.95227C16.2358 8.83138 16.4987 8.84478 16.7032 8.98713Z" fill="#161616"/>
</svg>
