<svg width="24" height="24" viewBox="0 0 24 24" fill="none" xmlns="http://www.w3.org/2000/svg">
<path fill-rule="evenodd" clip-rule="evenodd" d="M13.2499 15.3913C13.2499 15.1032 13.4738 14.8696 13.7499 14.8696C14.0261 14.8696 14.2499 15.1032 14.2499 15.3913V16.9565C14.2499 17.5328 13.8022 18 13.2499 18H7.99999C7.44771 18 7 17.5328 7 16.9565V7.04348C7 6.46718 7.44771 6 7.99999 6H13.2499C13.8022 6 14.2499 6.46718 14.2499 7.04348V8.6087C14.2499 8.89684 14.0261 9.13043 13.7499 9.13043C13.4738 9.13043 13.2499 8.89684 13.2499 8.6087V7.30435C13.2499 7.16027 13.138 7.04348 12.9999 7.04348H8.24999C8.11192 7.04348 7.99999 7.16027 7.99999 7.30435V16.6957C7.99999 16.8397 8.11192 16.9565 8.24999 16.9565H12.9999C13.138 16.9565 13.2499 16.8397 13.2499 16.6957V15.3913ZM15.7774 9.74035L18.7774 11.8273V11.8268C18.9164 11.9236 19 12.0864 19 12.2609C19 12.4353 18.9164 12.5982 18.7774 12.695L15.7774 14.7819C15.6952 14.8391 15.5987 14.8696 15.4999 14.8696C15.2253 14.8656 15.0037 14.6343 14.9999 14.3478V13.0435H10.4999C10.232 13.0435 9.9844 12.8943 9.85043 12.6522C9.71646 12.41 9.71646 12.1117 9.85043 11.8696C9.9844 11.6274 10.232 11.4783 10.4999 11.4783H14.9999V10.1739C15.0001 9.98154 15.1016 9.80487 15.2642 9.7142C15.4268 9.62353 15.624 9.63358 15.7774 9.74035Z" fill="#161616"/>
</svg>
