<svg width="24" height="24" viewBox="0 0 24 24" fill="none" xmlns="http://www.w3.org/2000/svg">
<path d="M16.75 6H7.25C6.91848 6 6.60054 6.1317 6.36612 6.36612C6.1317 6.60054 6 6.91848 6 7.25V16.75C6 16.9142 6.03233 17.0767 6.09515 17.2284C6.15797 17.38 6.25004 17.5178 6.36612 17.6339C6.48219 17.75 6.61999 17.842 6.77165 17.9048C6.9233 17.9677 7.08585 18 7.25 18H16.75C16.9142 18 17.0767 17.9677 17.2284 17.9048C17.38 17.842 17.5178 17.75 17.6339 17.6339C17.75 17.5178 17.842 17.38 17.9048 17.2284C17.9677 17.0767 18 16.9142 18 16.75V7.25C18 7.08585 17.9677 6.9233 17.9048 6.77165C17.842 6.61999 17.75 6.48219 17.6339 6.36612C17.5178 6.25004 17.38 6.15797 17.2284 6.09515C17.0767 6.03233 16.9142 6 16.75 6V6ZM15.25 10.75H13C12.8674 10.75 12.7402 10.6973 12.6464 10.6036C12.5527 10.5098 12.5 10.3826 12.5 10.25C12.5 10.1174 12.5527 9.99021 12.6464 9.89645C12.7402 9.80268 12.8674 9.75 13 9.75H15.25C15.3826 9.75 15.5098 9.80268 15.6036 9.89645C15.6973 9.99021 15.75 10.1174 15.75 10.25C15.75 10.3826 15.6973 10.5098 15.6036 10.6036C15.5098 10.6973 15.3826 10.75 15.25 10.75ZM15.75 14.75C15.75 14.8826 15.6973 15.0098 15.6036 15.1036C15.5098 15.1973 15.3826 15.25 15.25 15.25H13C12.8674 15.25 12.7402 15.1973 12.6464 15.1036C12.5527 15.0098 12.5 14.8826 12.5 14.75C12.5 14.6174 12.5527 14.4902 12.6464 14.3964C12.7402 14.3027 12.8674 14.25 13 14.25H15.25C15.3826 14.25 15.5098 14.3027 15.6036 14.3964C15.6973 14.4902 15.75 14.6174 15.75 14.75ZM11.65 8.8L10.15 10.8C10.1071 10.8576 10.0523 10.9053 9.9893 10.9398C9.92631 10.9743 9.85663 10.9948 9.785 11C9.71339 11.0052 9.6415 10.995 9.5742 10.97C9.5069 10.945 9.44578 10.9058 9.395 10.855L8.645 10.105C8.59838 10.0584 8.5614 10.003 8.53617 9.94212C8.51094 9.88121 8.49795 9.81593 8.49795 9.75C8.49795 9.68407 8.51094 9.61879 8.53617 9.55788C8.5614 9.49696 8.59838 9.44162 8.645 9.395C8.69162 9.34838 8.74696 9.3114 8.80788 9.28617C8.86879 9.26094 8.93407 9.24795 9 9.24795C9.06593 9.24795 9.13121 9.26094 9.19212 9.28617C9.25304 9.3114 9.30838 9.34838 9.355 9.395L9.695 9.74L10.85 8.2C10.9296 8.09391 11.048 8.02378 11.1793 8.00503C11.3106 7.98627 11.4439 8.02043 11.55 8.1C11.6561 8.17956 11.7262 8.29801 11.745 8.42929C11.7637 8.56056 11.7296 8.69391 11.65 8.8ZM11.65 13.8L10.15 15.8C10.1071 15.8576 10.0524 15.9054 9.98939 15.9399C9.92642 15.9745 9.85674 15.9951 9.78509 16.0003C9.71345 16.0056 9.64152 15.9953 9.5742 15.9702C9.50689 15.9451 9.44577 15.9058 9.395 15.855L8.645 15.105C8.55085 15.0108 8.49795 14.8832 8.49795 14.75C8.49795 14.6168 8.55085 14.4892 8.645 14.395C8.73915 14.3008 8.86685 14.248 9 14.248C9.13315 14.248 9.26085 14.3008 9.355 14.395L9.695 14.74L10.85 13.2C10.9296 13.0939 11.048 13.0238 11.1793 13.005C11.3106 12.9863 11.4439 13.0204 11.55 13.1C11.6561 13.1796 11.7262 13.298 11.745 13.4293C11.7637 13.5606 11.7296 13.6939 11.65 13.8Z" fill="#161616"/>
</svg>
