<svg width="24" height="24" viewBox="0 0 24 24" fill="none" xmlns="http://www.w3.org/2000/svg">
<path d="M18.3333 4H5.66667C5.22464 4 4.80072 4.17559 4.48816 4.48816C4.17559 4.80072 4 5.22464 4 5.66667V18.3333C4 18.5522 4.04311 18.7689 4.12687 18.9711C4.21063 19.1733 4.33339 19.3571 4.48816 19.5118C4.64292 19.6666 4.82665 19.7894 5.02886 19.8731C5.23107 19.9569 5.4478 20 5.66667 20H18.3333C18.5522 20 18.7689 19.9569 18.9711 19.8731C19.1733 19.7894 19.3571 19.6666 19.5118 19.5118C19.6666 19.3571 19.7894 19.1733 19.8731 18.9711C19.9569 18.7689 20 18.5522 20 18.3333V5.66667C20 5.4478 19.9569 5.23107 19.8731 5.02886C19.7894 4.82665 19.6666 4.64292 19.5118 4.48816C19.3571 4.33339 19.1733 4.21063 18.9711 4.12687C18.7689 4.04311 18.5522 4 18.3333 4V4ZM16.3333 10.3333H13.3333C13.1565 10.3333 12.987 10.2631 12.8619 10.1381C12.7369 10.013 12.6667 9.84348 12.6667 9.66667C12.6667 9.48986 12.7369 9.32029 12.8619 9.19526C12.987 9.07024 13.1565 9 13.3333 9H16.3333C16.5101 9 16.6797 9.07024 16.8047 9.19526C16.9298 9.32029 17 9.48986 17 9.66667C17 9.84348 16.9298 10.013 16.8047 10.1381C16.6797 10.2631 16.5101 10.3333 16.3333 10.3333ZM17 15.6667C17 15.8435 16.9298 16.013 16.8047 16.1381C16.6797 16.2631 16.5101 16.3333 16.3333 16.3333H13.3333C13.1565 16.3333 12.987 16.2631 12.8619 16.1381C12.7369 16.013 12.6667 15.8435 12.6667 15.6667C12.6667 15.4899 12.7369 15.3203 12.8619 15.1953C12.987 15.0702 13.1565 15 13.3333 15H16.3333C16.5101 15 16.6797 15.0702 16.8047 15.1953C16.9298 15.3203 17 15.4899 17 15.6667ZM11.5333 7.73333L9.53333 10.4C9.47613 10.4768 9.40305 10.5404 9.31907 10.5864C9.23509 10.6324 9.14218 10.6598 9.04667 10.6667C8.95119 10.6737 8.85533 10.66 8.7656 10.6267C8.67587 10.5933 8.59438 10.541 8.52667 10.4733L7.52667 9.47333C7.46451 9.41117 7.4152 9.33738 7.38156 9.25617C7.34792 9.17495 7.33061 9.08791 7.33061 9C7.33061 8.91209 7.34792 8.82505 7.38156 8.74383C7.4152 8.66262 7.46451 8.58883 7.52667 8.52667C7.58883 8.46451 7.66262 8.4152 7.74383 8.38156C7.82505 8.34792 7.91209 8.33061 8 8.33061C8.08791 8.33061 8.17495 8.34792 8.25617 8.38156C8.33738 8.4152 8.41117 8.46451 8.47333 8.52667L8.92667 8.98667L10.4667 6.93333C10.5728 6.79188 10.7307 6.69837 10.9057 6.67337C11.0808 6.64836 11.2586 6.69391 11.4 6.8C11.5414 6.90609 11.635 7.06402 11.66 7.23905C11.685 7.41409 11.6394 7.59188 11.5333 7.73333ZM11.5333 14.4L9.53333 17.0667C9.47618 17.1435 9.40314 17.2072 9.31918 17.2533C9.23522 17.2994 9.14231 17.3268 9.04679 17.3338C8.95126 17.3407 8.85536 17.327 8.7656 17.2936C8.67585 17.2602 8.59435 17.2078 8.52667 17.14L7.52667 16.14C7.40113 16.0145 7.33061 15.8442 7.33061 15.6667C7.33061 15.4891 7.40113 15.3189 7.52667 15.1933C7.6522 15.0678 7.82247 14.9973 8 14.9973C8.17753 14.9973 8.3478 15.0678 8.47333 15.1933L8.92667 15.6533L10.4667 13.6C10.5728 13.4586 10.7307 13.365 10.9057 13.34C11.0808 13.315 11.2586 13.3606 11.4 13.4667C11.5414 13.5728 11.635 13.7307 11.66 13.9057C11.685 14.0808 11.6394 14.2586 11.5333 14.4Z" fill="#161616"/>
</svg>
