<svg width="24" height="24" viewBox="0 0 24 24" fill="none" xmlns="http://www.w3.org/2000/svg">
<path fill-rule="evenodd" clip-rule="evenodd" d="M16.5 6H7.5C7.10218 6 6.72064 6.15804 6.43934 6.43934C6.15804 6.72064 6 7.10218 6 7.5V16.5C6 16.8978 6.15804 17.2794 6.43934 17.5607C6.72064 17.842 7.10218 18 7.5 18H16.5C16.8978 18 17.2794 17.842 17.5607 17.5607C17.842 17.2794 18 16.8978 18 16.5V7.5C18 7.10218 17.842 6.72064 17.5607 6.43934C17.2794 6.15804 16.8978 6 16.5 6ZM17 16.5C17 16.6326 16.9473 16.7598 16.8536 16.8536C16.7598 16.9473 16.6326 17 16.5 17H7.5C7.36739 17 7.24021 16.9473 7.14645 16.8536C7.05268 16.7598 7 16.6326 7 16.5V7.5C7 7.36739 7.05268 7.24021 7.14645 7.14645C7.24021 7.05268 7.36739 7 7.5 7H16.5C16.6326 7 16.7598 7.05268 16.8536 7.14645C16.9473 7.24021 17 7.36739 17 7.5V16.5ZM11.625 8.24998C11.4919 8.15182 11.3256 8.1099 11.1619 8.13329C10.9982 8.15667 10.8502 8.24348 10.75 8.37498L9.67999 9.79998L9.43999 9.55998C9.32329 9.44329 9.16502 9.37773 8.99999 9.37773C8.83496 9.37773 8.67668 9.44329 8.55999 9.55998C8.44329 9.67668 8.37773 9.83495 8.37773 9.99998C8.37773 10.0817 8.39383 10.1626 8.4251 10.2381C8.45637 10.3136 8.50221 10.3822 8.55999 10.44L9.30999 11.19C9.37355 11.2523 9.4496 11.3005 9.53313 11.3313C9.61666 11.3621 9.70578 11.3749 9.79459 11.3687C9.88341 11.3626 9.96992 11.3377 10.0484 11.2957C10.1269 11.2537 10.1956 11.1955 10.25 11.125L11.75 9.12498C11.8482 8.99191 11.8901 8.82558 11.8667 8.66188C11.8433 8.49818 11.7565 8.35024 11.625 8.24998ZM11.1619 12.6333C11.3256 12.6099 11.4919 12.6518 11.625 12.75C11.7565 12.8502 11.8433 12.9982 11.8667 13.1619C11.8901 13.3256 11.8482 13.4919 11.75 13.625L10.25 15.625C10.1956 15.6955 10.1269 15.7537 10.0484 15.7957C9.96992 15.8377 9.88341 15.8626 9.79459 15.8687C9.70578 15.8749 9.61666 15.8621 9.53313 15.8313C9.4496 15.8005 9.37355 15.7523 9.30999 15.69L8.55999 14.94C8.44329 14.8233 8.37773 14.665 8.37773 14.5C8.37773 14.335 8.44329 14.1767 8.55999 14.06C8.67668 13.9433 8.83496 13.8777 8.99999 13.8777C9.16502 13.8777 9.32329 13.9433 9.43999 14.06L9.67999 14.3L10.75 12.875C10.8502 12.7435 10.9982 12.6567 11.1619 12.6333ZM15.25 9.87502H13C12.8342 9.87502 12.6753 9.94087 12.5581 10.0581C12.4408 10.1753 12.375 10.3343 12.375 10.5C12.375 10.6658 12.4408 10.8248 12.5581 10.942C12.6753 11.0592 12.8342 11.125 13 11.125H15.25C15.4158 11.125 15.5747 11.0592 15.6919 10.942C15.8092 10.8248 15.875 10.6658 15.875 10.5C15.875 10.3343 15.8092 10.1753 15.6919 10.0581C15.5747 9.94087 15.4158 9.87502 15.25 9.87502ZM13 13.875H15.25C15.4158 13.875 15.5747 13.9408 15.6919 14.0581C15.8092 14.1753 15.875 14.3342 15.875 14.5C15.875 14.6658 15.8092 14.8247 15.6919 14.9419C15.5747 15.0592 15.4158 15.125 15.25 15.125H13C12.8342 15.125 12.6753 15.0592 12.5581 14.9419C12.4408 14.8247 12.375 14.6658 12.375 14.5C12.375 14.3342 12.4408 14.1753 12.5581 14.0581C12.6753 13.9408 12.8342 13.875 13 13.875Z" fill="#161616"/>
</svg>
