<svg width="24" height="24" viewBox="0 0 24 24" fill="none" xmlns="http://www.w3.org/2000/svg">
<path fill-rule="evenodd" clip-rule="evenodd" d="M18 4H6C5.46957 4 4.96086 4.21071 4.58579 4.58579C4.21071 4.96086 4 5.46957 4 6V18C4 18.5304 4.21071 19.0391 4.58579 19.4142C4.96086 19.7893 5.46957 20 6 20H18C18.5304 20 19.0391 19.7893 19.4142 19.4142C19.7893 19.0391 20 18.5304 20 18V6C20 5.46957 19.7893 4.96086 19.4142 4.58579C19.0391 4.21071 18.5304 4 18 4ZM18.6667 18C18.6667 18.1768 18.5964 18.3464 18.4714 18.4714C18.3464 18.5964 18.1768 18.6667 18 18.6667H6C5.82319 18.6667 5.65362 18.5964 5.5286 18.4714C5.40357 18.3464 5.33333 18.1768 5.33333 18V6C5.33333 5.82319 5.40357 5.65362 5.5286 5.5286C5.65362 5.40357 5.82319 5.33333 6 5.33333H18C18.1768 5.33333 18.3464 5.40357 18.4714 5.5286C18.5964 5.65362 18.6667 5.82319 18.6667 6V18ZM11.5 6.99998C11.3226 6.86909 11.1008 6.8132 10.8825 6.84438C10.6643 6.87556 10.467 6.99131 10.3333 7.16664L8.90665 9.06664L8.58665 8.74664C8.43106 8.59105 8.22003 8.50364 7.99998 8.50364C7.77994 8.50364 7.56891 8.59105 7.41332 8.74664C7.25772 8.90224 7.17031 9.11327 7.17031 9.33331C7.17031 9.44226 7.19177 9.55015 7.23347 9.65081C7.27516 9.75147 7.33628 9.84294 7.41332 9.91998L8.41332 10.92C8.49806 11.0031 8.59947 11.0673 8.71084 11.1084C8.82222 11.1495 8.94103 11.1665 9.05946 11.1583C9.17789 11.1501 9.29323 11.1169 9.39789 11.0609C9.50255 11.0049 9.59415 10.9273 9.66665 10.8333L11.6667 8.16664C11.7975 7.98922 11.8534 7.76744 11.8222 7.54918C11.7911 7.33091 11.6753 7.13366 11.5 6.99998ZM10.8825 12.8444C11.1008 12.8132 11.3226 12.8691 11.5 13C11.6753 13.1337 11.7911 13.3309 11.8222 13.5492C11.8534 13.7674 11.7975 13.9892 11.6667 14.1666L9.66665 16.8333C9.59415 16.9273 9.50255 17.0049 9.39789 17.0609C9.29323 17.1169 9.17789 17.1501 9.05946 17.1583C8.94103 17.1665 8.82222 17.1495 8.71084 17.1084C8.59947 17.0673 8.49806 17.0031 8.41332 16.92L7.41332 15.92C7.25772 15.7644 7.17031 15.5534 7.17031 15.3333C7.17031 15.1133 7.25772 14.9022 7.41332 14.7466C7.56891 14.5911 7.77994 14.5036 7.99998 14.5036C8.22003 14.5036 8.43106 14.5911 8.58665 14.7466L8.90665 15.0666L10.3333 13.1666C10.467 12.9913 10.6643 12.8756 10.8825 12.8444ZM16.3333 9.1667H13.3333C13.1123 9.1667 12.9004 9.2545 12.7441 9.41078C12.5878 9.56706 12.5 9.77902 12.5 10C12.5 10.221 12.5878 10.433 12.7441 10.5893C12.9004 10.7456 13.1123 10.8334 13.3333 10.8334H16.3333C16.5543 10.8334 16.7663 10.7456 16.9226 10.5893C17.0789 10.433 17.1667 10.221 17.1667 10C17.1667 9.77902 17.0789 9.56706 16.9226 9.41078C16.7663 9.2545 16.5543 9.1667 16.3333 9.1667ZM13.3333 14.5H16.3333C16.5543 14.5 16.7663 14.5878 16.9226 14.7441C17.0789 14.9004 17.1667 15.1123 17.1667 15.3333C17.1667 15.5543 17.0789 15.7663 16.9226 15.9226C16.7663 16.0789 16.5543 16.1667 16.3333 16.1667H13.3333C13.1123 16.1667 12.9004 16.0789 12.7441 15.9226C12.5878 15.7663 12.5 15.5543 12.5 15.3333C12.5 15.1123 12.5878 14.9004 12.7441 14.7441C12.9004 14.5878 13.1123 14.5 13.3333 14.5Z" fill="#161616"/>
</svg>
