<svg width="24" height="24" viewBox="0 0 24 24" fill="none" xmlns="http://www.w3.org/2000/svg">
<path fill-rule="evenodd" clip-rule="evenodd" d="M15.1465 6.147L17.8535 8.854C17.9472 8.94775 17.9999 9.0749 18 9.2075V17C18 17.5523 17.5523 18 17 18H8.99997C8.44768 18 7.99997 17.5523 7.99997 17V16.625C7.99997 16.556 8.05593 16.5 8.12497 16.5H8.87497C8.94401 16.5 8.99997 16.556 8.99997 16.625V16.875C8.99997 16.944 9.05593 17 9.12497 17H16.75C16.888 17 17 16.8881 17 16.75V9.625C17 9.55596 16.944 9.5 16.875 9.5H15.5C14.9477 9.5 14.5 9.05228 14.5 8.5V7.125C14.5 7.05596 14.444 7 14.375 7H9.24997C9.1119 7 8.99997 7.11193 8.99997 7.25V9.8755C8.99969 9.94434 8.94381 10 8.87497 10H8.12497C8.05593 10 7.99997 9.94404 7.99997 9.875V7C7.99997 6.44772 8.44768 6 8.99997 6H14.793C14.9256 6.00016 15.0528 6.05304 15.1465 6.147ZM16 15.5V11C16 10.7239 15.7761 10.5 15.5 10.5H6.5C6.22386 10.5 6 10.7239 6 11V15.5C6 15.7761 6.22386 16 6.5 16H15.5C15.7761 16 16 15.7761 16 15.5ZM9.24997 14.438C9.42256 14.438 9.56247 14.578 9.56247 14.7505C9.56247 14.9231 9.42256 15.063 9.24997 15.063C8.24895 15.063 7.43747 14.2516 7.43747 13.2505C7.43747 12.2495 8.24895 11.438 9.24997 11.438C9.42256 11.438 9.56247 11.578 9.56247 11.7505C9.56247 11.9231 9.42256 12.063 9.24997 12.063C8.59413 12.063 8.06247 12.5947 8.06247 13.2505C8.06247 13.9064 8.59413 14.438 9.24997 14.438ZM11.6335 13.297L10.7135 12.684H10.712C10.5878 12.6012 10.5324 12.4468 10.5757 12.3038C10.619 12.1609 10.7507 12.0631 10.9 12.063H11.75C11.9226 12.063 12.0625 11.9231 12.0625 11.7505C12.0625 11.578 11.9226 11.438 11.75 11.438H10.9C10.4758 11.4393 10.1022 11.7178 9.97984 12.124C9.85747 12.5302 10.015 12.9687 10.368 13.204L11.288 13.817C11.4122 13.8999 11.4676 14.0543 11.4243 14.1973C11.381 14.3402 11.2493 14.438 11.1 14.438H10.25C10.0774 14.438 9.9375 14.578 9.9375 14.7505C9.9375 14.9231 10.0774 15.063 10.25 15.063H11.0985C11.5233 15.0631 11.8981 14.7851 12.0212 14.3785C12.1444 13.972 11.9869 13.5327 11.6335 13.297ZM14.5635 12.5005C14.5613 13.3793 14.2761 14.234 13.75 14.938C13.691 15.0167 13.5984 15.063 13.5 15.063C13.4017 15.063 13.309 15.0167 13.25 14.938C12.7242 14.2338 12.4393 13.3789 12.4375 12.5V11.75C12.4375 11.5774 12.5774 11.4375 12.75 11.4375C12.9226 11.4375 13.0625 11.5774 13.0625 11.75V12.5C13.0636 13.013 13.1787 13.5194 13.3995 13.9825C13.422 14.0148 13.4584 14.0347 13.4978 14.0361C13.5371 14.0374 13.5748 14.0202 13.5995 13.9895C13.8219 13.5244 13.9374 13.0155 13.9375 12.5V11.75C13.9375 11.5774 14.0774 11.4375 14.25 11.4375C14.4226 11.4375 14.5625 11.5774 14.5625 11.75L14.5635 12.5005Z" fill="#161616"/>
</svg>
