<svg width="24" height="24" viewBox="0 0 24 24" fill="none" xmlns="http://www.w3.org/2000/svg">
<path fill-rule="evenodd" clip-rule="evenodd" d="M18.3115 7.80667L14.7885 4.19333C14.6674 4.07017 14.504 4.00074 14.3335 4H6.8C6.45522 4 6.12456 4.14048 5.88076 4.39052C5.63696 4.64057 5.5 4.97971 5.5 5.33333V18.6667C5.5 19.0203 5.63696 19.3594 5.88076 19.6095C6.12456 19.8595 6.45522 20 6.8 20H17.2C17.5448 20 17.8754 19.8595 18.1192 19.6095C18.363 19.3594 18.5 19.0203 18.5 18.6667V8.27333C18.4993 8.09844 18.4316 7.93084 18.3115 7.80667ZM17.2 18.3333C17.2 18.4217 17.1658 18.5065 17.1048 18.569C17.0439 18.6315 16.9612 18.6667 16.875 18.6667H7.125C7.0388 18.6667 6.95614 18.6315 6.89519 18.569C6.83424 18.5065 6.8 18.4217 6.8 18.3333V5.66667C6.8 5.57826 6.83424 5.49348 6.89519 5.43096C6.95614 5.36845 7.0388 5.33333 7.125 5.33333H13.95C13.9936 5.33268 14.0369 5.34123 14.0771 5.35843C14.1174 5.37563 14.1537 5.40112 14.184 5.43333L17.1285 8.45333C17.1763 8.51348 17.2016 8.5891 17.2 8.66667V18.3333ZM9.91999 10.6667C10.638 10.6667 11.22 10.0697 11.22 9.33333C11.22 8.59695 10.638 8 9.91999 8C9.20202 8 8.61999 8.59695 8.61999 9.33333C8.61999 10.0697 9.20202 10.6667 9.91999 10.6667ZM13.3268 11.004C13.3747 11.0318 13.4147 11.0718 13.443 11.1201L16.251 15.7467C16.2653 15.7721 16.2728 15.8008 16.2728 15.8301C16.2728 15.8593 16.2653 15.8881 16.251 15.9134C16.2365 15.9393 16.2156 15.9608 16.1906 15.976C16.1655 15.9912 16.1371 15.9995 16.108 16.0001H8.243C8.2139 15.9995 8.18545 15.9912 8.1604 15.976C8.13535 15.9608 8.11454 15.9393 8.1 15.9134C8.08573 15.8881 8.07823 15.8593 8.07823 15.8301C8.07823 15.8008 8.08573 15.7721 8.1 15.7467L9.959 12.7867C9.98814 12.7385 10.0288 12.6987 10.0772 12.6711C10.1255 12.6435 10.1799 12.629 10.2352 12.629C10.2906 12.629 10.345 12.6435 10.3933 12.6711C10.4417 12.6987 10.4823 12.7385 10.5115 12.7867L11.0705 13.7067C11.0863 13.7309 11.1075 13.7509 11.1324 13.7648C11.1573 13.7787 11.1851 13.7863 11.2135 13.7867C11.2407 13.7852 11.2673 13.7772 11.291 13.7633C11.3147 13.7494 11.3349 13.73 11.35 13.7067L12.897 11.1201C12.9253 11.0718 12.9653 11.0318 13.0132 11.004C13.061 10.9763 13.115 10.9617 13.17 10.9617C13.225 10.9617 13.279 10.9763 13.3268 11.004Z" fill="#161616"/>
</svg>
