<svg width="24" height="24" viewBox="0 0 24 24" fill="none" xmlns="http://www.w3.org/2000/svg">
<path fill-rule="evenodd" clip-rule="evenodd" d="M15.925 9.34L13.66 7.075C13.6179 7.03097 13.5608 7.00423 13.5 7H8.25C8.1837 7 8.12011 7.02634 8.07322 7.07322C8.02634 7.12011 8 7.1837 8 7.25V16.75C8 16.8163 8.02634 16.8799 8.07322 16.9268C8.12011 16.9737 8.1837 17 8.25 17H15.75C15.8163 17 15.8799 16.9737 15.9268 16.9268C15.9737 16.8799 16 16.8163 16 16.75V9.5C15.9958 9.43919 15.969 9.38215 15.925 9.34ZM8 6H13.795C13.9262 6.00055 14.0519 6.05263 14.145 6.145L16.855 8.855C16.9474 8.94813 16.9994 9.07383 17 9.205V17C17 17.2652 16.8946 17.5196 16.7071 17.7071C16.5196 17.8946 16.2652 18 16 18H8C7.73478 18 7.48043 17.8946 7.29289 17.7071C7.10536 17.5196 7 17.2652 7 17V7C7 6.73478 7.10536 6.48043 7.29289 6.29289C7.48043 6.10536 7.73478 6 8 6ZM9.49998 11.5H14C14.1326 11.5 14.2598 11.4473 14.3535 11.3536C14.4473 11.2598 14.5 11.1326 14.5 11C14.5 10.8674 14.4473 10.7402 14.3535 10.6464C14.2598 10.5527 14.1326 10.5 14 10.5H9.49998C9.36737 10.5 9.2402 10.5527 9.14643 10.6464C9.05266 10.7402 8.99998 10.8674 8.99998 11C8.99998 11.1326 9.05266 11.2598 9.14643 11.3536C9.2402 11.4473 9.36737 11.5 9.49998 11.5ZM14 13.5H9.49998C9.36737 13.5 9.2402 13.4473 9.14643 13.3536C9.05266 13.2598 8.99998 13.1326 8.99998 13C8.99998 12.8674 9.05266 12.7402 9.14643 12.6464C9.2402 12.5527 9.36737 12.5 9.49998 12.5H14C14.1326 12.5 14.2598 12.5527 14.3535 12.6464C14.4473 12.7402 14.5 12.8674 14.5 13C14.5 13.1326 14.4473 13.2598 14.3535 13.3536C14.2598 13.4473 14.1326 13.5 14 13.5ZM9.49998 15.5H11.75C11.8826 15.5 12.0098 15.4473 12.1035 15.3536C12.1973 15.2598 12.25 15.1326 12.25 15C12.25 14.8674 12.1973 14.7402 12.1035 14.6464C12.0098 14.5527 11.8826 14.5 11.75 14.5H9.49998C9.36737 14.5 9.2402 14.5527 9.14643 14.6464C9.05266 14.7402 8.99998 14.8674 8.99998 15C8.99998 15.1326 9.05266 15.2598 9.14643 15.3536C9.2402 15.4473 9.36737 15.5 9.49998 15.5Z" fill="#161616"/>
</svg>
