<svg width="24" height="24" viewBox="0 0 24 24" fill="none" xmlns="http://www.w3.org/2000/svg">
<path fill-rule="evenodd" clip-rule="evenodd" d="M16.855 8.855L14.145 6.145C14.0519 6.05263 13.9262 6.00055 13.795 6H8C7.73478 6 7.48043 6.10536 7.29289 6.29289C7.10536 6.48043 7 6.73478 7 7V17C7 17.2652 7.10536 17.5196 7.29289 17.7071C7.48043 17.8946 7.73478 18 8 18H16C16.2652 18 16.5196 17.8946 16.7071 17.7071C16.8946 17.5196 17 17.2652 17 17V9.205C16.9994 9.07383 16.9474 8.94813 16.855 8.855ZM16 16.75C16 16.8163 15.9737 16.8799 15.9268 16.9268C15.8799 16.9737 15.8163 17 15.75 17H8.25C8.1837 17 8.12011 16.9737 8.07322 16.9268C8.02634 16.8799 8 16.8163 8 16.75V7.25C8 7.1837 8.02634 7.12011 8.07322 7.07322C8.12011 7.02634 8.1837 7 8.25 7H13.5C13.5335 6.99951 13.5668 7.00592 13.5978 7.01882C13.6287 7.03172 13.6567 7.05084 13.68 7.075L15.945 9.34C15.9818 9.38511 16.0012 9.44183 16 9.5V16.75ZM10.4 11C10.9523 11 11.4 10.5523 11.4 10C11.4 9.44772 10.9523 9 10.4 9C9.84775 9 9.40004 9.44772 9.40004 10C9.40004 10.5523 9.84775 11 10.4 11ZM13.0206 11.253C13.0574 11.2738 13.0882 11.3038 13.11 11.34L15.27 14.81C15.281 14.829 15.2867 14.8506 15.2867 14.8725C15.2867 14.8944 15.281 14.916 15.27 14.935C15.2588 14.9544 15.2428 14.9706 15.2235 14.9819C15.2042 14.9933 15.1824 14.9995 15.16 15H9.10998C9.0876 14.9995 9.06572 14.9933 9.04645 14.9819C9.02717 14.9706 9.01117 14.9544 8.99998 14.935C8.98901 14.916 8.98324 14.8944 8.98324 14.8725C8.98324 14.8506 8.98901 14.829 8.99998 14.81L10.43 12.59C10.4524 12.5538 10.4837 12.524 10.5209 12.5033C10.5581 12.4826 10.5999 12.4717 10.6425 12.4717C10.685 12.4717 10.7269 12.4826 10.7641 12.5033C10.8013 12.524 10.8326 12.5538 10.855 12.59L11.285 13.28C11.2971 13.2981 11.3134 13.3131 11.3326 13.3235C11.3518 13.334 11.3732 13.3396 11.395 13.34C11.4159 13.3388 11.4363 13.3328 11.4546 13.3224C11.4728 13.312 11.4884 13.2975 11.5 13.28L12.69 11.34C12.7118 11.3038 12.7425 11.2738 12.7793 11.253C12.8161 11.2321 12.8577 11.2212 12.9 11.2212C12.9423 11.2212 12.9838 11.2321 13.0206 11.253Z" fill="#161616"/>
</svg>
