<svg width="24" height="24" viewBox="0 0 24 24" fill="none" xmlns="http://www.w3.org/2000/svg">
<path fill-rule="evenodd" clip-rule="evenodd" d="M16.707 8L15 6.2945C14.8125 6.10682 14.5583 6.00095 14.293 6H9.5C8.94772 6 8.5 6.44772 8.5 7V7.5H8C7.44772 7.5 7 7.94772 7 8.5V17C7 17.5523 7.44772 18 8 18H14.5C15.0523 18 15.5 17.5523 15.5 17V16.5H16C16.5523 16.5 17 16.0523 17 15.5V8.707C17.0005 8.4417 16.895 8.18718 16.707 8ZM14.5 16.75C14.5 16.888 14.3881 17 14.25 17H8.25001C8.11194 17 8.00001 16.888 8.00001 16.75V8.74998C8.00001 8.6119 8.11194 8.49998 8.25001 8.49998C8.38808 8.49998 8.50001 8.6119 8.50001 8.74998V15.5C8.50001 16.0523 8.94773 16.5 9.50001 16.5H14.25C14.3881 16.5 14.5 16.6119 14.5 16.75ZM16 15.25C16 15.388 15.8881 15.5 15.75 15.5H9.75001C9.61194 15.5 9.50001 15.388 9.50001 15.25V7.24998C9.50001 7.1119 9.61194 6.99998 9.75001 6.99998H14.1895C14.2557 6.99999 14.3192 7.02624 14.366 7.07298L15.927 8.63398C15.9737 8.68083 16 8.7443 16 8.81048V15.25Z" fill="#161616"/>
</svg>
