<svg width="24" height="24" viewBox="0 0 24 24" fill="none" xmlns="http://www.w3.org/2000/svg">
<path fill-rule="evenodd" clip-rule="evenodd" d="M18.28 7.56667L14.656 3.79167C14.5886 3.71828 14.4973 3.67371 14.4 3.66667H6C5.89391 3.66667 5.79217 3.71057 5.71716 3.78871C5.64214 3.86685 5.6 3.97283 5.6 4.08333V19.9167C5.6 20.0272 5.64214 20.1332 5.71716 20.2113C5.79217 20.2894 5.89391 20.3333 6 20.3333H18C18.1061 20.3333 18.2078 20.2894 18.2828 20.2113C18.3579 20.1332 18.4 20.0272 18.4 19.9167V7.83333C18.3932 7.73199 18.3505 7.63691 18.28 7.56667ZM5.6 2H14.872C15.0819 2.00092 15.283 2.08771 15.432 2.24167L19.768 6.75833C19.9158 6.91355 19.9991 7.12305 20 7.34167V20.3333C20 20.7754 19.8314 21.1993 19.5314 21.5118C19.2313 21.8244 18.8243 22 18.4 22H5.6C5.17565 22 4.76869 21.8244 4.46863 21.5118C4.16857 21.1993 4 20.7754 4 20.3333V3.66667C4 3.22464 4.16857 2.80072 4.46863 2.48816C4.76869 2.17559 5.17565 2 5.6 2ZM7.99997 11.1667H15.2C15.4121 11.1667 15.6156 11.0789 15.7656 10.9226C15.9157 10.7663 16 10.5543 16 10.3333C16 10.1123 15.9157 9.90036 15.7656 9.74408C15.6156 9.5878 15.4121 9.5 15.2 9.5H7.99997C7.78779 9.5 7.58431 9.5878 7.43428 9.74408C7.28425 9.90036 7.19997 10.1123 7.19997 10.3333C7.19997 10.5543 7.28425 10.7663 7.43428 10.9226C7.58431 11.0789 7.78779 11.1667 7.99997 11.1667ZM15.2 14.5H7.99997C7.78779 14.5 7.58431 14.4122 7.43428 14.256C7.28425 14.0997 7.19997 13.8877 7.19997 13.6667C7.19997 13.4457 7.28425 13.2337 7.43428 13.0775C7.58431 12.9212 7.78779 12.8334 7.99997 12.8334H15.2C15.4121 12.8334 15.6156 12.9212 15.7656 13.0775C15.9157 13.2337 16 13.4457 16 13.6667C16 13.8877 15.9157 14.0997 15.7656 14.256C15.6156 14.4122 15.4121 14.5 15.2 14.5ZM7.99997 17.8333H11.6C11.8121 17.8333 12.0156 17.7455 12.1657 17.5892C12.3157 17.4329 12.4 17.221 12.4 17C12.4 16.7789 12.3157 16.567 12.1657 16.4107C12.0156 16.2544 11.8121 16.1666 11.6 16.1666H7.99997C7.78779 16.1666 7.58431 16.2544 7.43428 16.4107C7.28425 16.567 7.19997 16.7789 7.19997 17C7.19997 17.221 7.28425 17.4329 7.43428 17.5892C7.58431 17.7455 7.78779 17.8333 7.99997 17.8333Z" fill="#161616"/>
</svg>
