<svg width="24" height="24" viewBox="0 0 24 24" fill="none" xmlns="http://www.w3.org/2000/svg">
<path fill-rule="evenodd" clip-rule="evenodd" d="M18 10.205C17.9994 10.0738 17.9474 9.94813 17.855 9.855L15.145 7.145C15.0519 7.05263 14.9262 7.00055 14.795 7H7C6.73478 7 6.48043 7.10536 6.29289 7.29289C6.10536 7.48043 6 7.73478 6 8V16C6 16.2652 6.10536 16.5196 6.29289 16.7071C6.48043 16.8946 6.73478 17 7 17H17C17.2652 17 17.5196 16.8946 17.7071 16.7071C17.8946 16.5196 18 16.2652 18 16V10.205ZM17 15.75C17 15.8163 16.9737 15.8799 16.9268 15.9268C16.8799 15.9737 16.8163 16 16.75 16H7.25C7.1837 16 7.12011 15.9737 7.07322 15.9268C7.02634 15.8799 7 15.8163 7 15.75V8.25C7 8.1837 7.02634 8.12011 7.07322 8.07322C7.12011 8.02634 7.1837 8 7.25 8H14.5C14.5335 7.99951 14.5668 8.00592 14.5978 8.01882C14.6287 8.03172 14.6567 8.05084 14.68 8.075L16.945 10.34C16.9818 10.3851 17.0012 10.4418 17 10.5V15.75ZM10.15 11.0001C10.7023 11.0001 11.15 10.5524 11.15 10.0001C11.15 9.44779 10.7023 9.00008 10.15 9.00008C9.59774 9.00008 9.15002 9.44779 9.15002 10.0001C9.15002 10.5524 9.59774 11.0001 10.15 11.0001ZM12.7707 11.2529C12.8075 11.2737 12.8383 11.3037 12.86 11.3399L15.04 14.8099C15.051 14.8289 15.0568 14.8505 15.0568 14.8724C15.0568 14.8944 15.051 14.9159 15.04 14.9349C15.0289 14.9543 15.0129 14.9705 14.9936 14.9819C14.9743 14.9933 14.9524 14.9995 14.93 14.9999H8.88004C8.85766 14.9995 8.83578 14.9933 8.81651 14.9819C8.79723 14.9705 8.78123 14.9543 8.77004 14.9349C8.75907 14.9159 8.7533 14.8944 8.7533 14.8724C8.7533 14.8505 8.75907 14.8289 8.77004 14.8099L10.155 12.5899C10.1778 12.5534 10.2095 12.5232 10.2471 12.5023C10.2847 12.4813 10.327 12.4702 10.37 12.4699C10.4124 12.4701 10.4541 12.4812 10.4909 12.5022C10.5277 12.5232 10.5584 12.5535 10.58 12.5899L11.015 13.2799C11.0257 13.2983 11.041 13.3136 11.0594 13.3241C11.0779 13.3347 11.0988 13.3401 11.12 13.3399C11.141 13.3388 11.1614 13.3328 11.1796 13.3224C11.1979 13.3119 11.2134 13.2974 11.225 13.2799L12.44 11.3399C12.4618 11.3037 12.4926 11.2737 12.5294 11.2529C12.5662 11.2321 12.6078 11.2211 12.65 11.2211C12.6923 11.2211 12.7339 11.2321 12.7707 11.2529Z" fill="#161616"/>
</svg>
