<svg width="24" height="24" viewBox="0 0 24 24" fill="none" xmlns="http://www.w3.org/2000/svg">
<path fill-rule="evenodd" clip-rule="evenodd" d="M16.1953 4.196L19.8047 7.80533C19.9297 7.93033 19.9999 8.09987 20 8.27667V18.6667C20 19.403 19.403 20 18.6666 20H7.99998C7.2636 20 6.66665 19.403 6.66665 18.6667V18.1667C6.66665 18.0746 6.74127 18 6.83332 18H7.83332C7.92536 18 7.99998 18.0746 7.99998 18.1667V18.5C7.99998 18.592 8.0746 18.6667 8.16665 18.6667H18.3333C18.5174 18.6667 18.6666 18.5174 18.6666 18.3333V8.83333C18.6666 8.74129 18.592 8.66667 18.5 8.66667H16.6666C15.9303 8.66667 15.3333 8.06971 15.3333 7.33333V5.5C15.3333 5.40795 15.2587 5.33333 15.1666 5.33333H8.33332C8.14922 5.33333 7.99998 5.48257 7.99998 5.66667V9.16733C7.99962 9.25912 7.9251 9.33333 7.83332 9.33333H6.83332C6.74127 9.33333 6.66665 9.25871 6.66665 9.16667V5.33333C6.66665 4.59695 7.2636 4 7.99998 4H15.724C15.9009 4.00021 16.0704 4.07072 16.1953 4.196ZM17.3333 16.6667V10.6667C17.3333 10.2985 17.0349 10 16.6667 10H4.66667C4.29848 10 4 10.2985 4 10.6667V16.6667C4 17.0349 4.29848 17.3333 4.66667 17.3333H16.6667C17.0349 17.3333 17.3333 17.0349 17.3333 16.6667ZM8.33332 15.2507C8.56344 15.2507 8.74998 15.4372 8.74998 15.6673C8.74998 15.8975 8.56344 16.084 8.33332 16.084C6.99863 16.084 5.91665 15.002 5.91665 13.6673C5.91665 12.3327 6.99863 11.2507 8.33332 11.2507C8.56344 11.2507 8.74998 11.4372 8.74998 11.6674C8.74998 11.8975 8.56344 12.084 8.33332 12.084C7.45887 12.084 6.74998 12.7929 6.74998 13.6673C6.74998 14.5418 7.45887 15.2507 8.33332 15.2507ZM11.5113 13.7294L10.2847 12.912H10.2827C10.117 12.8015 10.0432 12.5956 10.1009 12.405C10.1586 12.2145 10.3342 12.0841 10.5333 12.084H11.6667C11.8968 12.084 12.0833 11.8975 12.0833 11.6674C12.0833 11.4372 11.8968 11.2507 11.6667 11.2507H10.5333C9.96768 11.2524 9.46961 11.6237 9.30646 12.1653C9.1433 12.7069 9.3534 13.2915 9.824 13.6054L11.0507 14.4227C11.2163 14.5332 11.2901 14.7391 11.2324 14.9297C11.1747 15.1202 10.9991 15.2506 10.8 15.2507H9.66667C9.43655 15.2507 9.25 15.4372 9.25 15.6673C9.25 15.8975 9.43655 16.084 9.66667 16.084H10.798C11.3644 16.0841 11.8641 15.7134 12.0283 15.1713C12.1925 14.6293 11.9825 14.0436 11.5113 13.7294ZM15.418 12.6673C15.4151 13.8391 15.0348 14.9787 14.3333 15.9173C14.2547 16.0223 14.1312 16.084 14 16.084C13.8689 16.084 13.7454 16.0223 13.6667 15.9173C12.9656 14.9784 12.5857 13.8385 12.5833 12.6667V11.6667C12.5833 11.4365 12.7699 11.25 13 11.25C13.2301 11.25 13.4167 11.4365 13.4167 11.6667V12.6667C13.4181 13.3507 13.5716 14.0259 13.866 14.6433C13.896 14.6864 13.9445 14.7129 13.997 14.7147C14.0495 14.7166 14.0998 14.6936 14.1327 14.6527C14.4291 14.0326 14.5831 13.354 14.5833 12.6667V11.6667C14.5833 11.4365 14.7699 11.25 15 11.25C15.2301 11.25 15.4167 11.4365 15.4167 11.6667L15.418 12.6673Z" fill="#161616"/>
</svg>
