<svg width="24" height="24" viewBox="0 0 24 24" fill="none" xmlns="http://www.w3.org/2000/svg">
<path fill-rule="evenodd" clip-rule="evenodd" d="M17.1025 8.45333L14.158 5.43333C14.1032 5.37462 14.029 5.33897 13.95 5.33333H7.125C7.0388 5.33333 6.95614 5.36845 6.89519 5.43096C6.83424 5.49348 6.8 5.57826 6.8 5.66667V18.3333C6.8 18.4217 6.83424 18.5065 6.89519 18.569C6.95614 18.6315 7.0388 18.6667 7.125 18.6667H16.875C16.9612 18.6667 17.0439 18.6315 17.1048 18.569C17.1658 18.5065 17.2 18.4217 17.2 18.3333V8.66667C17.1945 8.58559 17.1597 8.50953 17.1025 8.45333ZM6.8 4H14.3335C14.504 4.00074 14.6674 4.07017 14.7885 4.19333L18.3115 7.80667C18.4316 7.93084 18.4993 8.09844 18.5 8.27333V18.6667C18.5 19.0203 18.363 19.3594 18.1192 19.6095C17.8754 19.8595 17.5448 20 17.2 20H6.8C6.45522 20 6.12456 19.8595 5.88076 19.6095C5.63696 19.3594 5.5 19.0203 5.5 18.6667V5.33333C5.5 4.97971 5.63696 4.64057 5.88076 4.39052C6.12456 4.14048 6.45522 4 6.8 4ZM8.74996 11.3333H14.6C14.7723 11.3333 14.9377 11.2631 15.0596 11.1381C15.1815 11.013 15.25 10.8435 15.25 10.6667C15.25 10.4899 15.1815 10.3203 15.0596 10.1953C14.9377 10.0702 14.7723 10 14.6 10H8.74996C8.57757 10 8.41224 10.0702 8.29034 10.1953C8.16844 10.3203 8.09996 10.4899 8.09996 10.6667C8.09996 10.8435 8.16844 11.013 8.29034 11.1381C8.41224 11.2631 8.57757 11.3333 8.74996 11.3333ZM14.6 14.0001H8.74996C8.57757 14.0001 8.41224 13.9298 8.29034 13.8048C8.16844 13.6798 8.09996 13.5102 8.09996 13.3334C8.09996 13.1566 8.16844 12.987 8.29034 12.862C8.41224 12.737 8.57757 12.6667 8.74996 12.6667H14.6C14.7723 12.6667 14.9377 12.737 15.0596 12.862C15.1815 12.987 15.25 13.1566 15.25 13.3334C15.25 13.5102 15.1815 13.6798 15.0596 13.8048C14.9377 13.9298 14.7723 14.0001 14.6 14.0001ZM8.74996 16.6666H11.675C11.8474 16.6666 12.0127 16.5963 12.1346 16.4713C12.2565 16.3463 12.325 16.1767 12.325 15.9999C12.325 15.8231 12.2565 15.6535 12.1346 15.5285C12.0127 15.4035 11.8474 15.3333 11.675 15.3333H8.74996C8.57757 15.3333 8.41224 15.4035 8.29034 15.5285C8.16844 15.6535 8.09996 15.8231 8.09996 15.9999C8.09996 16.1767 8.16844 16.3463 8.29034 16.4713C8.41224 16.5963 8.57757 16.6666 8.74996 16.6666Z" fill="#161616"/>
</svg>
