<svg width="24" height="24" viewBox="0 0 24 24" fill="none" xmlns="http://www.w3.org/2000/svg">
<path fill-rule="evenodd" clip-rule="evenodd" d="M15.145 6.145L17.855 8.855C17.9474 8.94813 17.9994 9.07383 18 9.205V17C18 17.2652 17.8946 17.5196 17.7071 17.7071C17.5196 17.8946 17.2652 18 17 18H8.99999C8.73477 18 8.48042 17.8946 8.29288 17.7071C8.10534 17.5196 7.99999 17.2652 7.99999 17V16.625C7.99999 16.5918 8.01316 16.5601 8.0366 16.5366C8.06004 16.5132 8.09184 16.5 8.12499 16.5H8.87499C8.90814 16.5 8.93993 16.5132 8.96338 16.5366C8.98682 16.5601 8.99999 16.5918 8.99999 16.625V16.875C8.99999 16.9082 9.01316 16.9399 9.0366 16.9634C9.06004 16.9868 9.09184 17 9.12499 17H16.75C16.8163 17 16.8799 16.9737 16.9268 16.9268C16.9736 16.8799 17 16.8163 17 16.75V9.625C17 9.59185 16.9868 9.56005 16.9634 9.53661C16.9399 9.51317 16.9081 9.5 16.875 9.5H15.5C15.2348 9.5 14.9804 9.39464 14.7929 9.20711C14.6053 9.01957 14.5 8.76522 14.5 8.5V7.125C14.5 7.09185 14.4868 7.06005 14.4634 7.03661C14.4399 7.01317 14.4081 7 14.375 7H9.24999C9.18368 7 9.1201 7.02634 9.07321 7.07322C9.02633 7.12011 8.99999 7.1837 8.99999 7.25V9.875C8.99999 9.90815 8.98682 9.93995 8.96338 9.96339C8.93993 9.98683 8.90814 10 8.87499 10H8.12499C8.09184 10 8.06004 9.98683 8.0366 9.96339C8.01316 9.93995 7.99999 9.90815 7.99999 9.875V7C7.99999 6.73478 8.10534 6.48043 8.29288 6.29289C8.48042 6.10536 8.73477 6 8.99999 6H14.795C14.9262 6.00055 15.0519 6.05263 15.145 6.145ZM15 15.5V11C15 10.8674 14.9473 10.7402 14.8536 10.6464C14.7598 10.5527 14.6326 10.5 14.5 10.5H6.5C6.36739 10.5 6.24021 10.5527 6.14645 10.6464C6.05268 10.7402 6 10.8674 6 11V15.5C6 15.6326 6.05268 15.7598 6.14645 15.8536C6.24021 15.9473 6.36739 16 6.5 16H14.5C14.6326 16 14.7598 15.9473 14.8536 15.8536C14.9473 15.7598 15 15.6326 15 15.5ZM8 13.56H7.69C7.65552 13.56 7.62246 13.5737 7.59808 13.5981C7.5737 13.6225 7.56 13.6555 7.56 13.69V14.75C7.56 14.8322 7.52734 14.9111 7.4692 14.9692C7.41107 15.0273 7.33222 15.06 7.25 15.06C7.16778 15.06 7.08893 15.0273 7.0308 14.9692C6.97266 14.9111 6.94 14.8322 6.94 14.75V11.75C6.93999 11.6673 6.97249 11.5879 7.03049 11.529C7.08848 11.4701 7.16733 11.4363 7.25 11.435H8C8.2692 11.4535 8.52135 11.5734 8.7055 11.7707C8.88965 11.9679 8.99207 12.2277 8.99207 12.4975C8.99207 12.7673 8.88965 13.0271 8.7055 13.2243C8.52135 13.4216 8.2692 13.5415 8 13.56ZM9.75 15.06C9.66778 15.06 9.58893 15.0273 9.5308 14.9692C9.47266 14.9111 9.44 14.8322 9.44 14.75V11.75C9.43999 11.6673 9.47249 11.5879 9.53049 11.529C9.58848 11.4701 9.66733 11.4363 9.75 11.435C10.2142 11.4594 10.6514 11.661 10.9714 11.9982C11.2914 12.3355 11.4698 12.7826 11.4698 13.2475C11.4698 13.7124 11.2914 14.1595 10.9714 14.4968C10.6514 14.834 10.2142 15.0356 9.75 15.06ZM13.75 12.06H12.75C12.6996 12.06 12.6513 12.08 12.6156 12.1156C12.58 12.1513 12.56 12.1996 12.56 12.25V12.81C12.5613 12.8436 12.5756 12.8754 12.5998 12.8987C12.624 12.922 12.6564 12.935 12.69 12.935H13.25C13.3261 12.9446 13.396 12.9817 13.4467 13.0392C13.4974 13.0968 13.5254 13.1708 13.5254 13.2475C13.5254 13.3242 13.4974 13.3982 13.4467 13.4558C13.396 13.5133 13.3261 13.5504 13.25 13.56H12.69C12.6555 13.56 12.6225 13.5737 12.5981 13.5981C12.5737 13.6225 12.56 13.6555 12.56 13.69V14.75C12.56 14.8322 12.5273 14.9111 12.4692 14.9692C12.4111 15.0273 12.3322 15.06 12.25 15.06C12.1678 15.06 12.0889 15.0273 12.0308 14.9692C11.9727 14.9111 11.94 14.8322 11.94 14.75V12.25C11.9393 12.1432 11.9598 12.0373 12.0002 11.9385C12.0406 11.8396 12.1002 11.7498 12.1755 11.674C12.2507 11.5983 12.3403 11.5382 12.4389 11.4971C12.5375 11.4561 12.6432 11.435 12.75 11.435H13.75C13.8261 11.4446 13.896 11.4817 13.9467 11.5392C13.9974 11.5968 14.0254 11.6708 14.0254 11.7475C14.0254 11.8242 13.9974 11.8982 13.9467 11.9558C13.896 12.0133 13.8261 12.0504 13.75 12.06ZM7.68999 12.06H7.99999C8.06137 12.0534 8.12345 12.0598 8.18218 12.0788C8.24092 12.0978 8.29501 12.129 8.34092 12.1702C8.38684 12.2115 8.42356 12.262 8.4487 12.3183C8.47383 12.3747 8.48682 12.4358 8.48682 12.4975C8.48682 12.5592 8.47383 12.6203 8.4487 12.6767C8.42356 12.733 8.38684 12.7835 8.34092 12.8248C8.29501 12.866 8.24092 12.8972 8.18218 12.9162C8.12345 12.9351 8.06137 12.9416 7.99999 12.935H7.68999C7.65636 12.935 7.62403 12.922 7.59979 12.8987C7.57554 12.8754 7.56128 12.8436 7.55999 12.81V12.19C7.55999 12.1555 7.57368 12.1225 7.59806 12.0981C7.62244 12.0737 7.65551 12.06 7.68999 12.06ZM10.2004 12.1589H10.2004C10.2096 12.1595 10.2179 12.16 10.225 12.16C10.4369 12.2529 10.6173 12.4054 10.7442 12.5989C10.8711 12.7924 10.9392 13.0186 10.94 13.25C10.9431 13.4835 10.8767 13.7127 10.7495 13.9085C10.6222 14.1043 10.4397 14.258 10.225 14.35C10.2073 14.3572 10.1881 14.36 10.169 14.3583C10.1499 14.3566 10.1316 14.3503 10.1154 14.34C10.0993 14.3298 10.0858 14.3158 10.0762 14.2992C10.0665 14.2827 10.061 14.2641 10.06 14.245V12.245C10.06 12.1505 10.1448 12.1556 10.2004 12.1589Z" fill="#161616"/>
</svg>
