<svg width="24" height="24" viewBox="0 0 24 24" fill="none" xmlns="http://www.w3.org/2000/svg">
<path fill-rule="evenodd" clip-rule="evenodd" d="M10.2496 9.88311C10.2496 9.74001 10.3019 9.60273 10.395 9.50124L12.78 6.91208C12.7968 6.89407 12.8085 6.87128 12.8138 6.84636C12.8191 6.82144 12.8178 6.79539 12.81 6.77125C12.7694 6.63662 12.7492 6.49578 12.75 6.35416C12.75 6.08634 12.8233 5.82452 12.9607 5.60183C13.098 5.37914 13.2932 5.20557 13.5216 5.10308C13.7501 5.00059 14.0014 4.97377 14.2439 5.02602C14.4863 5.07827 14.7091 5.20724 14.8839 5.39663C15.0587 5.58601 15.1777 5.8273 15.226 6.08998C15.2742 6.35266 15.2494 6.62494 15.1548 6.87238C15.0602 7.11982 14.9 7.33131 14.6944 7.48011C14.4889 7.62891 14.2472 7.70833 14 7.70833C13.8759 7.71809 13.7511 7.70713 13.63 7.67583C13.6076 7.66858 13.5838 7.66777 13.561 7.67346C13.5382 7.67916 13.5172 7.69117 13.5 7.70833L11.105 10.265C11.0586 10.3158 11.0033 10.3561 10.9423 10.3836C10.8814 10.4111 10.816 10.4252 10.75 10.4252C10.684 10.4252 10.6187 10.4111 10.5578 10.3836C10.4968 10.3561 10.4415 10.3158 10.395 10.265C10.3019 10.1635 10.2496 10.0262 10.2496 9.88311ZM16.707 7.76022C16.8945 7.96338 16.9999 8.23893 16.9999 8.52625V14.2083C17.0039 14.7119 16.9143 15.2112 16.7365 15.6764C16.5587 16.1417 16.2963 16.5635 15.9649 16.9166C15.3069 17.6151 14.4212 18.0044 13.4999 18H7.99999C7.73477 18 7.48042 17.8858 7.29289 17.6827C7.10536 17.4795 7 17.204 7 16.9166V8.52083C7 8.23351 7.10536 7.95796 7.29289 7.7548C7.48042 7.55164 7.73477 7.4375 7.99999 7.4375H9.99996C10.1326 7.4375 10.2597 7.49457 10.3535 7.59615C10.4473 7.69773 10.5 7.83551 10.5 7.97917C10.5 8.12282 10.4473 8.2606 10.3535 8.36218C10.2597 8.46376 10.1326 8.52083 9.99996 8.52083H8.24998C8.18368 8.52083 8.12009 8.54936 8.07321 8.60016C8.02633 8.65095 7.99999 8.71983 7.99999 8.79166V16.635C7.99999 16.7068 8.02633 16.7757 8.07321 16.8265C8.12009 16.8773 8.18368 16.9058 8.24998 16.9058H13.2499C13.2831 16.9058 13.3149 16.8915 13.3383 16.8661C13.3617 16.8407 13.3749 16.8063 13.3749 16.7704V15.01C13.3749 14.7586 13.4671 14.5175 13.6312 14.3397C13.7953 14.1619 14.0178 14.0621 14.2499 14.0621H15.8749C15.908 14.0621 15.9398 14.0478 15.9633 14.0224C15.9867 13.997 15.9999 13.9626 15.9999 13.9266V8.79166C15.9986 8.72078 15.9717 8.65327 15.9249 8.60365C15.8782 8.55402 15.8153 8.52623 15.7499 8.52625H15.4999C15.3673 8.52625 15.2401 8.46918 15.1463 8.3676C15.0526 8.26601 14.9999 8.12824 14.9999 7.98458C14.9999 7.84092 15.0526 7.70315 15.1463 7.60157C15.2401 7.49998 15.3673 7.44292 15.4999 7.44292H15.9999C16.2651 7.44292 16.5194 7.55705 16.707 7.76022ZM14.2324 16.7897C14.2523 16.7897 14.2719 16.785 14.2899 16.7758C14.6453 16.6515 14.9712 16.4444 15.2449 16.1691C15.5227 15.8649 15.7301 15.4936 15.8499 15.0858C15.8595 15.0667 15.8646 15.0453 15.8646 15.0235C15.8646 15.0018 15.8595 14.9803 15.8499 14.9612C15.838 14.9447 15.8228 14.9313 15.8055 14.9219C15.7882 14.9125 15.7692 14.9075 15.7499 14.9071H14.2499C14.2168 14.9071 14.185 14.9213 14.1615 14.9467C14.1381 14.9721 14.1249 15.0066 14.1249 15.0425V16.6675C14.1253 16.6884 14.13 16.709 14.1386 16.7278C14.1473 16.7465 14.1597 16.7629 14.1749 16.7758C14.1929 16.785 14.2125 16.7897 14.2324 16.7897ZM14.8749 12.0417C14.8736 11.9343 14.8337 11.8318 14.7637 11.7559C14.6936 11.6801 14.599 11.6368 14.4999 11.6354H9.5C9.40054 11.6354 9.30516 11.6782 9.23483 11.7544C9.16451 11.8306 9.125 11.9339 9.125 12.0417C9.125 12.1494 9.16451 12.2527 9.23483 12.3289C9.30516 12.4051 9.40054 12.4479 9.5 12.4479H14.4999C14.5994 12.4479 14.6948 12.4051 14.7651 12.3289C14.8354 12.2527 14.8749 12.1494 14.8749 12.0417ZM9.23483 14.468C9.30516 14.3918 9.40054 14.349 9.5 14.349H11.625C11.7244 14.349 11.8198 14.3918 11.8901 14.468C11.9605 14.5442 12 14.6475 12 14.7553C12 14.863 11.9605 14.9664 11.8901 15.0425C11.8198 15.1187 11.7244 15.1615 11.625 15.1615H9.5C9.40054 15.1615 9.30516 15.1187 9.23483 15.0425C9.16451 14.9664 9.125 14.863 9.125 14.7553C9.125 14.6475 9.16451 14.5442 9.23483 14.468Z" fill="#161616"/>
</svg>
