<svg width="24" height="24" viewBox="0 0 24 24" fill="none" xmlns="http://www.w3.org/2000/svg">
<path fill-rule="evenodd" clip-rule="evenodd" d="M22 9.128C21.9991 8.91813 21.9123 8.71701 21.7583 8.568L17.2417 4.232C17.0864 4.0842 16.8769 4.00088 16.6583 4H3.66667C3.22464 4 2.80072 4.16857 2.48816 4.46863C2.17559 4.76869 2 5.17565 2 5.6V18.4C2 18.8243 2.17559 19.2313 2.48816 19.5314C2.80072 19.8314 3.22464 20 3.66667 20H20.3333C20.7754 20 21.1993 19.8314 21.5118 19.5314C21.8244 19.2313 22 18.8243 22 18.4V9.128ZM20.3333 18C20.3333 18.1061 20.2894 18.2078 20.2113 18.2828C20.1332 18.3579 20.0272 18.4 19.9167 18.4H4.08333C3.97283 18.4 3.86685 18.3579 3.78871 18.2828C3.71057 18.2078 3.66667 18.1061 3.66667 18V6C3.66667 5.89391 3.71057 5.79217 3.78871 5.71716C3.86685 5.64214 3.97283 5.6 4.08333 5.6H16.1667C16.2226 5.59922 16.278 5.60947 16.3296 5.63011C16.3812 5.65075 16.4279 5.68135 16.4667 5.72L20.2417 9.344C20.3029 9.41618 20.3354 9.50692 20.3333 9.6V18ZM8.91667 10.4003C9.83714 10.4003 10.5833 9.68392 10.5833 8.80026C10.5833 7.9166 9.83714 7.20026 8.91667 7.20026C7.99619 7.20026 7.25 7.9166 7.25 8.80026C7.25 9.68392 7.99619 10.4003 8.91667 10.4003ZM13.2844 10.8047C13.3457 10.838 13.397 10.886 13.4333 10.944L17.0667 16.496C17.0849 16.5264 17.0946 16.5609 17.0946 16.596C17.0946 16.6311 17.0849 16.6656 17.0667 16.696C17.048 16.727 17.0213 16.7529 16.9892 16.7711C16.9571 16.7893 16.9206 16.7993 16.8833 16.8H6.79999C6.76269 16.7993 6.72621 16.7893 6.6941 16.7711C6.66198 16.7529 6.6353 16.727 6.61666 16.696C6.59837 16.6656 6.58875 16.6311 6.58875 16.596C6.58875 16.5609 6.59837 16.5264 6.61666 16.496L8.92499 12.944C8.96298 12.8856 9.01576 12.8373 9.07842 12.8037C9.14108 12.7702 9.21157 12.7524 9.28332 12.752C9.35398 12.7522 9.42338 12.77 9.48472 12.8036C9.54607 12.8373 9.59727 12.8857 9.63332 12.944L10.3583 14.048C10.376 14.0774 10.4016 14.1018 10.4323 14.1187C10.4631 14.1356 10.4979 14.1443 10.5333 14.144C10.5683 14.1422 10.6023 14.1325 10.6326 14.1159C10.663 14.0992 10.6889 14.076 10.7083 14.048L12.7333 10.944C12.7696 10.886 12.8209 10.838 12.8823 10.8047C12.9436 10.7714 13.0129 10.7539 13.0833 10.7539C13.1538 10.7539 13.2231 10.7714 13.2844 10.8047Z" fill="#161616"/>
</svg>
