<svg width="24" height="24" viewBox="0 0 24 24" fill="none" xmlns="http://www.w3.org/2000/svg">
<path fill-rule="evenodd" clip-rule="evenodd" d="M17.9427 6.66667L15.6667 4.39267C15.4166 4.14242 15.0777 4.00126 14.724 4H8.33333C7.59695 4 7 4.59695 7 5.33333V6H6.33333C5.59695 6 5 6.59695 5 7.33333V18.6667C5 19.403 5.59695 20 6.33333 20H15C15.7364 20 16.3333 19.403 16.3333 18.6667V18H17C17.7364 18 18.3333 17.403 18.3333 16.6667V7.60933C18.334 7.25559 18.1934 6.91624 17.9427 6.66667ZM15 18.3333C15 18.5174 14.8508 18.6666 14.6667 18.6666H6.66668C6.48259 18.6666 6.33335 18.5174 6.33335 18.3333V7.66663C6.33335 7.48254 6.48259 7.3333 6.66668 7.3333C6.85078 7.3333 7.00002 7.48254 7.00002 7.66663V16.6666C7.00002 17.403 7.59697 18 8.33335 18H14.6667C14.8508 18 15 18.1492 15 18.3333ZM17 16.3333C17 16.5174 16.8508 16.6666 16.6667 16.6666H8.66668C8.48259 16.6666 8.33335 16.5174 8.33335 16.3333V5.66663C8.33335 5.48254 8.48259 5.3333 8.66668 5.3333H14.586C14.6743 5.33332 14.7589 5.36832 14.8213 5.43063L16.9027 7.51197C16.965 7.57444 17 7.65907 17 7.7473V16.3333Z" fill="#161616"/>
</svg>
