<svg width="24" height="24" viewBox="0 0 24 24" fill="none" xmlns="http://www.w3.org/2000/svg">
<path fill-rule="evenodd" clip-rule="evenodd" d="M13.8522 7.39464C13.7239 7.5275 13.5499 7.60214 13.3684 7.60214H10.6316C10.4501 7.60214 10.2761 7.5275 10.1478 7.39464C10.0195 7.26178 9.94737 7.08158 9.94737 6.89369V5.18633C9.93624 4.785 10.0351 4.38863 10.2326 4.04309C10.43 3.69755 10.718 3.41699 11.063 3.23389C11.4081 3.05079 11.7962 2.97264 12.1824 3.00849C12.5686 3.04434 12.9371 3.19272 13.2453 3.43646C13.4958 3.63445 13.699 3.88954 13.839 4.18194C13.979 4.47434 14.0521 4.7962 14.0526 5.12257V6.89369C14.0526 7.08158 13.9805 7.26178 13.8522 7.39464ZM11.5733 4.65026C11.5169 4.73764 11.4868 4.84036 11.4868 4.94545C11.4886 5.0858 11.5432 5.21989 11.6391 5.31914C11.735 5.41839 11.8645 5.47496 12 5.47679C12.1015 5.47679 12.2007 5.44563 12.2851 5.38724C12.3695 5.32886 12.4353 5.24588 12.4741 5.14879C12.5129 5.0517 12.5231 4.94486 12.5033 4.84179C12.4835 4.73873 12.4346 4.64405 12.3629 4.56974C12.2911 4.49543 12.1997 4.44483 12.1001 4.42433C12.0006 4.40382 11.8974 4.41435 11.8036 4.45456C11.7099 4.49478 11.6297 4.56288 11.5733 4.65026ZM15.0789 9.37317H8.92103C8.78493 9.37317 8.6544 9.42915 8.55817 9.52879C8.46193 9.62844 8.40787 9.76359 8.40787 9.90451C8.40787 10.0454 8.46193 10.1806 8.55817 10.2802C8.6544 10.3799 8.78493 10.4358 8.92103 10.4358H15.0789C15.215 10.4358 15.3455 10.3799 15.4418 10.2802C15.538 10.1806 15.5921 10.0454 15.5921 9.90451C15.5921 9.76359 15.538 9.62844 15.4418 9.52879C15.3455 9.42915 15.215 9.37317 15.0789 9.37317ZM15.5921 12.3842C15.5903 12.2439 15.5357 12.1098 15.4398 12.0106C15.344 11.9113 15.2145 11.8547 15.0789 11.8529H8.92103C8.78493 11.8529 8.6544 11.9089 8.55817 12.0085C8.46193 12.1082 8.40787 12.2433 8.40787 12.3842C8.40787 12.5252 8.46193 12.6603 8.55817 12.76C8.6544 12.8596 8.78493 12.9156 8.92103 12.9156H15.0789C15.2145 12.9137 15.344 12.8572 15.4398 12.7579C15.5357 12.6587 15.5903 12.5246 15.5921 12.3842ZM17.1316 5.12263H15.25C15.2046 5.12263 15.1611 5.14129 15.129 5.1745C15.097 5.20772 15.0789 5.25277 15.0789 5.29974V6.36241C15.0789 6.40939 15.097 6.45444 15.129 6.48765C15.1611 6.52087 15.2046 6.53953 15.25 6.53953H16.7895C16.8802 6.53953 16.9672 6.57685 17.0314 6.64328C17.0955 6.70971 17.1316 6.7998 17.1316 6.89375V15.9548C17.1314 16.0505 17.0944 16.1423 17.0289 16.2099L14.8395 18.4769C14.8076 18.5111 14.7693 18.5382 14.727 18.5565C14.6846 18.5748 14.6391 18.5838 14.5932 18.5832H7.21053C7.11979 18.5832 7.03278 18.5458 6.96862 18.4794C6.90446 18.413 6.86842 18.3229 6.86842 18.2289V6.89375C6.86842 6.7998 6.90446 6.70971 6.96862 6.64328C7.03278 6.57685 7.11979 6.53953 7.21053 6.53953H8.75C8.79537 6.53953 8.83887 6.52087 8.87095 6.48765C8.90303 6.45444 8.92105 6.40939 8.92105 6.36241V5.29974C8.92105 5.25277 8.90303 5.20772 8.87095 5.1745C8.83887 5.14129 8.79537 5.12263 8.75 5.12263H6.86842C6.50549 5.12263 6.15743 5.27191 5.9008 5.53763C5.64417 5.80335 5.5 6.16374 5.5 6.53953V18.5832C5.5 18.9589 5.64417 19.3193 5.9008 19.5851C6.15743 19.8508 6.50549 20.0001 6.86842 20.0001H17.1316C17.4945 20.0001 17.8426 19.8508 18.0992 19.5851C18.3558 19.3193 18.5 18.9589 18.5 18.5832V6.53953C18.5 6.16374 18.3558 5.80335 18.0992 5.53763C17.8426 5.27191 17.4945 5.12263 17.1316 5.12263ZM8.55817 14.488C8.6544 14.3884 8.78493 14.3324 8.92103 14.3324H11.4868C11.6229 14.3324 11.7534 14.3884 11.8497 14.488C11.9459 14.5877 12 14.7228 12 14.8637C12 15.0047 11.9459 15.1398 11.8497 15.2394C11.7534 15.3391 11.6229 15.3951 11.4868 15.3951H8.92103C8.78493 15.3951 8.6544 15.3391 8.55817 15.2394C8.46193 15.1398 8.40787 15.0047 8.40787 14.8637C8.40787 14.7228 8.46193 14.5877 8.55817 14.488Z" fill="#161616"/>
</svg>
