<svg width="24" height="24" viewBox="0 0 24 24" fill="none" xmlns="http://www.w3.org/2000/svg">
<path fill-rule="evenodd" clip-rule="evenodd" d="M19.6087 6.00007L18 4.39068C17.7498 4.14044 17.4105 3.9999 17.0566 4H9.33302C8.59661 4 7.99964 4.59698 7.99964 5.33338V11.7216C7.99912 11.7885 8.03876 11.8491 8.1002 11.8755C8.16165 11.9018 8.2329 11.8887 8.28098 11.8423C8.57166 11.5609 9.01434 11.1356 9.22235 10.9436C9.29277 10.8804 9.33301 10.7902 9.33302 10.6956V5.66673C9.33302 5.48263 9.48227 5.33338 9.66637 5.33338H16.9186C17.007 5.33358 17.0916 5.36883 17.154 5.43139L18.568 6.84544C18.631 6.90786 18.6665 6.99279 18.6667 7.08145V16.0004C18.6667 16.1845 18.5175 16.3338 18.3334 16.3338H11.6891C11.6008 16.334 11.5161 16.3692 11.4538 16.4318L10.5031 17.3832C10.4551 17.4307 10.4406 17.5025 10.4665 17.5649C10.4924 17.6272 10.5535 17.6677 10.6211 17.6672H18.6667C19.4031 17.6672 20.0001 17.0702 20.0001 16.3338V6.94344C20 6.58951 19.8592 6.25013 19.6087 6.00007ZM17.3332 9.00019C17.3332 8.63198 17.0347 8.3335 16.6665 8.3335H11.9997C11.6315 8.3335 11.333 8.63198 11.333 9.00019C11.333 9.36839 11.6315 9.66688 11.9997 9.66688H16.6665C17.0347 9.66688 17.3332 9.36839 17.3332 9.00019ZM13.2039 11.4173C13.2335 11.3651 13.2891 11.3331 13.3491 11.3336H14.9998C15.368 11.3336 15.6665 11.6321 15.6665 12.0003C15.6665 12.3685 15.368 12.667 14.9998 12.667H13.7591C13.6808 12.667 13.6137 12.6108 13.5998 12.5337C13.53 12.1954 13.3965 11.8734 13.2064 11.585C13.1752 11.5337 13.1742 11.4695 13.2039 11.4173ZM4.70676 17.4219C4.66337 17.3784 4.59958 17.3623 4.54075 17.38C4.48192 17.3977 4.43761 17.4463 4.42542 17.5065L4.00674 19.6006C3.98674 19.6986 4.01178 19.8004 4.07495 19.8779C4.13812 19.9554 4.23276 20.0005 4.33275 20.0006C4.35515 20.0008 4.3775 19.9986 4.39942 19.994L6.49483 19.5753C6.55504 19.5631 6.60367 19.5188 6.62137 19.46C6.63908 19.4011 6.62299 19.3373 6.5795 19.2939L4.70676 17.4219ZM9.61893 11.9102C10.2565 11.2453 11.2923 11.1667 12.023 11.7275C12.405 12.04 12.6371 12.4992 12.6623 12.992C12.6874 13.4848 12.5032 13.9653 12.155 14.315L7.70153 18.7678C7.67037 18.7991 7.62803 18.8167 7.58386 18.8167C7.53969 18.8167 7.49734 18.7991 7.46619 18.7678L5.23211 16.5324C5.16726 16.4673 5.16726 16.3621 5.23211 16.2971L9.61893 11.9102Z" fill="#161616"/>
</svg>
