<svg width="24" height="24" viewBox="0 0 24 24" fill="none" xmlns="http://www.w3.org/2000/svg">
<path fill-rule="evenodd" clip-rule="evenodd" d="M20.1783 5.33333L17.3333 2.49083C17.0208 2.17803 16.5972 2.00158 16.155 2H8.16667C7.24619 2 6.5 2.74619 6.5 3.66667V4.5H5.66667C4.74619 4.5 4 5.24619 4 6.16667V20.3333C4 21.2538 4.74619 22 5.66667 22H16.5C17.4205 22 18.1667 21.2538 18.1667 20.3333V19.5H19C19.9205 19.5 20.6667 18.7538 20.6667 17.8333V6.51167C20.6675 6.06949 20.4917 5.6453 20.1783 5.33333ZM16.5 19.9167C16.5 20.1468 16.3135 20.3333 16.0833 20.3333H6.08333C5.85321 20.3333 5.66667 20.1468 5.66667 19.9167V6.58333C5.66667 6.35321 5.85321 6.16667 6.08333 6.16667C6.31345 6.16667 6.5 6.35321 6.5 6.58333V17.8333C6.5 18.7538 7.24619 19.5 8.16667 19.5H16.0833C16.3135 19.5 16.5 19.6865 16.5 19.9167ZM19 17.4167C19 17.6468 18.8135 17.8333 18.5833 17.8333H8.58333C8.35321 17.8333 8.16667 17.6468 8.16667 17.4167V4.08333C8.16667 3.85321 8.35321 3.66667 8.58333 3.66667H15.9825C16.0928 3.66669 16.1986 3.71044 16.2767 3.78833L18.8783 6.39C18.9562 6.46809 19 6.57387 19 6.68417V17.4167Z" fill="#161616"/>
</svg>
