<svg width="24" height="24" viewBox="0 0 24 24" fill="none" xmlns="http://www.w3.org/2000/svg">
<path fill-rule="evenodd" clip-rule="evenodd" d="M16.1933 4.19333L19.8066 7.80667C19.9298 7.93084 19.9992 8.09844 20 8.27333V18.6667C20 19.0203 19.8595 19.3594 19.6095 19.6095C19.3594 19.8595 19.0203 20 18.6666 20H7.99998C7.64636 20 7.30722 19.8595 7.05717 19.6095C6.80713 19.3594 6.66665 19.0203 6.66665 18.6667V18.1667C6.66665 18.1225 6.68421 18.0801 6.71547 18.0488C6.74672 18.0176 6.78911 18 6.83332 18H7.83332C7.87752 18 7.91991 18.0176 7.95117 18.0488C7.98242 18.0801 7.99998 18.1225 7.99998 18.1667V18.5C7.99998 18.5442 8.01754 18.5866 8.0488 18.6179C8.08006 18.6491 8.12245 18.6667 8.16665 18.6667H18.3333C18.4217 18.6667 18.5065 18.6315 18.569 18.569C18.6315 18.5065 18.6666 18.4217 18.6666 18.3333V8.83333C18.6666 8.78913 18.6491 8.74674 18.6178 8.71548C18.5866 8.68423 18.5442 8.66667 18.5 8.66667H16.6666C16.313 8.66667 15.9739 8.52619 15.7238 8.27614C15.4738 8.02609 15.3333 7.68696 15.3333 7.33333V5.5C15.3333 5.4558 15.3158 5.41341 15.2845 5.38215C15.2532 5.35089 15.2109 5.33333 15.1666 5.33333H8.33332C8.24491 5.33333 8.16013 5.36845 8.09761 5.43096C8.0351 5.49348 7.99998 5.57826 7.99998 5.66667V9.16667C7.99998 9.21087 7.98242 9.25326 7.95117 9.28452C7.91991 9.31577 7.87752 9.33333 7.83332 9.33333H6.83332C6.78911 9.33333 6.74672 9.31577 6.71547 9.28452C6.68421 9.25326 6.66665 9.21087 6.66665 9.16667V5.33333C6.66665 4.97971 6.80713 4.64057 7.05717 4.39052C7.30722 4.14048 7.64636 4 7.99998 4H15.7267C15.9015 4.00074 16.0691 4.07017 16.1933 4.19333ZM16 16.6667V10.6667C16 10.4899 15.9298 10.3203 15.8047 10.1953C15.6797 10.0702 15.5101 10 15.3333 10H4.66667C4.48986 10 4.32029 10.0702 4.19526 10.1953C4.07024 10.3203 4 10.4899 4 10.6667V16.6667C4 16.8435 4.07024 17.013 4.19526 17.1381C4.32029 17.2631 4.48986 17.3333 4.66667 17.3333H15.3333C15.5101 17.3333 15.6797 17.2631 15.8047 17.1381C15.9298 17.013 16 16.8435 16 16.6667ZM6.66667 14.08H6.25333C6.20736 14.08 6.16327 14.0983 6.13077 14.1308C6.09826 14.1633 6.08 14.2074 6.08 14.2533V15.6667C6.08 15.7763 6.03645 15.8814 5.95894 15.9589C5.88142 16.0365 5.77629 16.08 5.66667 16.08C5.55704 16.08 5.45191 16.0365 5.3744 15.9589C5.29688 15.8814 5.25333 15.7763 5.25333 15.6667V11.6667C5.25332 11.5564 5.29665 11.4506 5.37398 11.372C5.45131 11.2934 5.55644 11.2484 5.66667 11.2467H6.66667C7.0256 11.2713 7.36179 11.4313 7.60733 11.6942C7.85286 11.9572 7.98943 12.3036 7.98943 12.6633C7.98943 13.0231 7.85286 13.3695 7.60733 13.6324C7.36179 13.8954 7.0256 14.0554 6.66667 14.08ZM9 16.08C8.89038 16.08 8.78524 16.0365 8.70773 15.9589C8.63021 15.8814 8.58667 15.7763 8.58667 15.6667V11.6667C8.58665 11.5564 8.62999 11.4506 8.70732 11.372C8.78464 11.2934 8.88977 11.2484 9 11.2467C9.61899 11.2792 10.2019 11.548 10.6285 11.9976C11.0552 12.4473 11.293 13.0435 11.293 13.6633C11.293 14.2832 11.0552 14.8794 10.6285 15.329C10.2019 15.7787 9.61899 16.0475 9 16.08ZM14.3333 12.08H13C12.9328 12.08 12.8684 12.1067 12.8209 12.1542C12.7734 12.2017 12.7467 12.2661 12.7467 12.3333V13.08C12.7484 13.1248 12.7674 13.1672 12.7997 13.1983C12.8321 13.2294 12.8752 13.2467 12.92 13.2467H13.6667C13.7681 13.2595 13.8614 13.3089 13.929 13.3856C13.9966 13.4624 14.0339 13.5611 14.0339 13.6633C14.0339 13.7656 13.9966 13.8643 13.929 13.941C13.8614 14.0177 13.7681 14.0671 13.6667 14.08H12.92C12.874 14.08 12.8299 14.0983 12.7974 14.1308C12.7649 14.1633 12.7467 14.2074 12.7467 14.2533V15.6667C12.7467 15.7763 12.7031 15.8814 12.6256 15.9589C12.5481 16.0365 12.443 16.08 12.3333 16.08C12.2237 16.08 12.1186 16.0365 12.0411 15.9589C11.9635 15.8814 11.92 15.7763 11.92 15.6667V12.3333C11.9191 12.1909 11.9464 12.0498 12.0003 11.918C12.0542 11.7862 12.1336 11.6663 12.234 11.5653C12.3343 11.4643 12.4537 11.3842 12.5852 11.3295C12.7166 11.2748 12.8576 11.2467 13 11.2467H14.3333C14.4348 11.2595 14.528 11.3089 14.5956 11.3856C14.6632 11.4624 14.7005 11.5611 14.7005 11.6633C14.7005 11.7656 14.6632 11.8643 14.5956 11.941C14.528 12.0177 14.4348 12.0671 14.3333 12.08ZM6.25331 12.08H6.66665C6.74849 12.0712 6.83126 12.0798 6.90958 12.1051C6.9879 12.1304 7.06001 12.172 7.12123 12.227C7.18245 12.282 7.23141 12.3493 7.26493 12.4244C7.29844 12.4996 7.31576 12.581 7.31576 12.6633C7.31576 12.7456 7.29844 12.827 7.26493 12.9022C7.23141 12.9774 7.18245 13.0447 7.12123 13.0997C7.06001 13.1547 6.9879 13.1962 6.90958 13.2215C6.83126 13.2469 6.74849 13.2554 6.66665 13.2467H6.25331C6.20848 13.2467 6.16537 13.2293 6.13305 13.1983C6.10073 13.1672 6.0817 13.1248 6.07998 13.08V12.2533C6.07998 12.2074 6.09824 12.1633 6.13075 12.1308C6.16325 12.0983 6.20734 12.08 6.25331 12.08ZM9.60051 12.2119C9.61273 12.2126 9.6239 12.2133 9.63333 12.2133C9.91589 12.3372 10.1564 12.5406 10.3256 12.7985C10.4949 13.0565 10.5855 13.3581 10.5867 13.6666C10.5907 13.978 10.5023 14.2836 10.3326 14.5447C10.1629 14.8058 9.91954 15.0106 9.63333 15.1333C9.60968 15.1429 9.58408 15.1467 9.55867 15.1444C9.53325 15.1421 9.50875 15.1338 9.48722 15.1201C9.46569 15.1064 9.44774 15.0877 9.43489 15.0657C9.42204 15.0436 9.41464 15.0188 9.41333 14.9933V12.3266C9.41333 12.2007 9.52634 12.2075 9.60051 12.2119Z" fill="#161616"/>
</svg>
