<svg width="24" height="24" viewBox="0 0 24 24" fill="none" xmlns="http://www.w3.org/2000/svg">
<path fill-rule="evenodd" clip-rule="evenodd" d="M13.0526 8.51928H10.9474C10.8078 8.51928 10.6739 8.4622 10.5752 8.3606C10.4765 8.259 10.421 8.12121 10.421 7.97753V6.6719C10.4125 6.365 10.4885 6.06189 10.6404 5.79766C10.7923 5.53342 11.0138 5.31888 11.2793 5.17886C11.5447 5.03884 11.8432 4.97908 12.1403 5.00649C12.4374 5.03391 12.7209 5.14738 12.9579 5.33376C13.1506 5.48517 13.3069 5.68024 13.4146 5.90384C13.5223 6.12744 13.5785 6.37356 13.5789 6.62314V7.97753C13.5789 8.12121 13.5235 8.259 13.4248 8.3606C13.3261 8.4622 13.1922 8.51928 13.0526 8.51928ZM11.6718 6.26196C11.6284 6.32878 11.6052 6.40734 11.6052 6.4877C11.6066 6.59503 11.6486 6.69756 11.7224 6.77346C11.7961 6.84935 11.8957 6.89261 12 6.89402C12.0781 6.89402 12.1544 6.87019 12.2193 6.82554C12.2842 6.78089 12.3348 6.71743 12.3647 6.64319C12.3946 6.56895 12.4024 6.48725 12.3871 6.40843C12.3719 6.32961 12.3343 6.25722 12.2791 6.20039C12.2239 6.14357 12.1536 6.10487 12.077 6.08919C12.0004 6.07351 11.9211 6.08156 11.8489 6.11231C11.7768 6.14307 11.7151 6.19514 11.6718 6.26196ZM14.3684 9.87354H9.63153C9.52684 9.87354 9.42643 9.91634 9.35241 9.99254C9.27838 10.0687 9.23679 10.1721 9.23679 10.2799C9.23679 10.3876 9.27838 10.491 9.35241 10.5672C9.42643 10.6434 9.52684 10.6862 9.63153 10.6862H14.3684C14.4731 10.6862 14.5735 10.6434 14.6475 10.5672C14.7215 10.491 14.7631 10.3876 14.7631 10.2799C14.7631 10.1721 14.7215 10.0687 14.6475 9.99254C14.5735 9.91634 14.4731 9.87354 14.3684 9.87354ZM14.7631 12.1762C14.7617 12.0689 14.7197 11.9664 14.646 11.8905C14.5722 11.8146 14.4726 11.7713 14.3684 11.7699H9.63153C9.52684 11.7699 9.42643 11.8127 9.35241 11.8889C9.27838 11.9651 9.23679 12.0685 9.23679 12.1762C9.23679 12.284 9.27838 12.3873 9.35241 12.4635C9.42643 12.5397 9.52684 12.5825 9.63153 12.5825H14.3684C14.4726 12.5811 14.5722 12.5379 14.646 12.462C14.7197 12.3861 14.7617 12.2835 14.7631 12.1762ZM15.9474 6.62328H14.5C14.4651 6.62328 14.4316 6.63755 14.407 6.66295C14.3823 6.68835 14.3684 6.7228 14.3684 6.75872V7.57135C14.3684 7.60727 14.3823 7.64172 14.407 7.66712C14.4316 7.69252 14.4651 7.70679 14.5 7.70679H15.6842C15.754 7.70679 15.8209 7.73533 15.8703 7.78613C15.9196 7.83693 15.9474 7.90583 15.9474 7.97767V14.9067C15.9472 14.9799 15.9188 15.0501 15.8684 15.1017L14.1842 16.8354C14.1597 16.8615 14.1303 16.8823 14.0977 16.8962C14.0651 16.9102 14.03 16.9171 13.9947 16.9166H8.31579C8.246 16.9166 8.17906 16.8881 8.12971 16.8373C8.08036 16.7865 8.05263 16.7176 8.05263 16.6457V7.97767C8.05263 7.90583 8.08036 7.83693 8.12971 7.78613C8.17906 7.73533 8.246 7.70679 8.31579 7.70679H9.5C9.5349 7.70679 9.56836 7.69252 9.59304 7.66712C9.61772 7.64172 9.63158 7.60727 9.63158 7.57135V6.75872C9.63158 6.7228 9.61772 6.68835 9.59304 6.66295C9.56836 6.63755 9.5349 6.62328 9.5 6.62328H8.05263C7.77346 6.62328 7.50572 6.73744 7.30831 6.94063C7.1109 7.14383 7 7.41943 7 7.70679V16.9166C7 17.204 7.1109 17.4796 7.30831 17.6828C7.50572 17.886 7.77346 18.0001 8.05263 18.0001H15.9474C16.2265 18.0001 16.4943 17.886 16.6917 17.6828C16.8891 17.4796 17 17.204 17 16.9166V7.70679C17 7.41943 16.8891 7.14383 16.6917 6.94063C16.4943 6.73744 16.2265 6.62328 15.9474 6.62328ZM9.35241 13.785C9.42643 13.7088 9.52684 13.666 9.63153 13.666H11.6052C11.7099 13.666 11.8103 13.7088 11.8843 13.785C11.9584 13.8612 11.9999 13.9646 11.9999 14.0723C11.9999 14.1801 11.9584 14.2834 11.8843 14.3596C11.8103 14.4358 11.7099 14.4786 11.6052 14.4786H9.63153C9.52684 14.4786 9.42643 14.4358 9.35241 14.3596C9.27838 14.2834 9.23679 14.1801 9.23679 14.0723C9.23679 13.9646 9.27838 13.8612 9.35241 13.785Z" fill="#161616"/>
</svg>
