<?xml version="1.0" encoding="UTF-8"?>
<svg width="24px" height="24px" viewBox="0 0 24 24" version="1.1" xmlns="http://www.w3.org/2000/svg" xmlns:xlink="http://www.w3.org/1999/xlink">
    <title>Large / Text Formatting / Double</title>
    <g id="Large-/-Text-Formatting-/-Double" stroke="none" stroke-width="1" fill="none" fill-rule="evenodd">
        <path d="M20.1783333,5.33333333 L17.3333333,2.49083333 C17.020789,2.17802923 16.5971853,2.00157761 16.155,2 L8.16666667,2 C7.24619208,2 6.5,2.74619208 6.5,3.66666667 L6.5,4.5 L5.66666667,4.5 C4.74619208,4.5 4,5.24619208 4,6.16666667 L4,20.3333333 C4,21.2538079 4.74619208,22 5.66666667,22 L16.5,22 C17.4204746,22 18.1666667,21.2538079 18.1666667,20.3333333 L18.1666667,19.5 L19,19.5 C19.9204746,19.5 20.6666696,18.7538079 20.6666696,17.8333333 L20.6666696,6.51166667 C20.6674929,6.06949249 20.4916957,5.64529921 20.1783333,5.33333333 Z M16.5,19.9166667 C16.5,20.1467853 16.313452,20.3333333 16.0833333,20.3333333 L6.08333333,20.3333333 C5.85321469,20.3333333 5.66666667,20.1467853 5.66666667,19.9166667 L5.66666667,6.58333333 C5.66666667,6.35321469 5.85321469,6.16666667 6.08333333,6.16666667 C6.31345198,6.16666667 6.5,6.35321469 6.5,6.58333333 L6.5,17.8333333 C6.5,18.7538079 7.24619208,19.5 8.16666667,19.5 L16.0833333,19.5 C16.313452,19.5 16.5,19.686548 16.5,19.9166667 Z M19,17.4166667 C19,17.6467853 18.813452,17.8333333 18.5833333,17.8333333 L8.58333333,17.8333333 C8.35321469,17.8333333 8.16666667,17.6467853 8.16666667,17.4166667 L8.16666667,4.08333333 C8.16666667,3.85321469 8.35321469,3.66666667 8.58333333,3.66666667 L15.9825,3.66666667 C16.0927937,3.66666667 16.1985787,3.71044254 16.2766667,3.78833333 L18.8783333,6.39 C18.9562241,6.46808795 19,6.57387296 19,6.68416667 L19,17.4166667 Z" id="DoubleFile" fill="#050505"></path>
    </g>
</svg>