<svg width="24" height="24" viewBox="0 0 24 24" fill="none" xmlns="http://www.w3.org/2000/svg">
<path fill-rule="evenodd" clip-rule="evenodd" d="M9.19932 8.51248C9.19932 8.29233 9.28296 8.08112 9.43195 7.92498L13.2479 3.94166C13.2747 3.91395 13.2935 3.8789 13.302 3.84055C13.3105 3.80221 13.3084 3.76214 13.2959 3.72499C13.231 3.51788 13.1986 3.3012 13.1999 3.08333C13.1999 2.67129 13.3172 2.26849 13.537 1.92589C13.7567 1.58329 14.0691 1.31627 14.4345 1.15858C14.8 1.0009 15.2021 0.959646 15.5901 1.04003C15.978 1.12042 16.3344 1.31883 16.6141 1.61019C16.8938 1.90155 17.0843 2.27277 17.1614 2.67689C17.2386 3.08102 17.199 3.4999 17.0476 3.88058C16.8962 4.26126 16.6399 4.58663 16.311 4.81555C15.9821 5.04447 15.5954 5.16666 15.1999 5.16666C15.0013 5.18167 14.8016 5.16481 14.6079 5.11666C14.572 5.10551 14.534 5.10425 14.4975 5.11302C14.4611 5.12178 14.4274 5.14027 14.3999 5.16666L10.5679 9.09998C10.4936 9.17808 10.4051 9.24008 10.3076 9.28239C10.2101 9.32469 10.1056 9.34648 9.99995 9.34648C9.89434 9.34648 9.78978 9.32469 9.69229 9.28239C9.5948 9.24008 9.50632 9.17808 9.43195 9.09998C9.28296 8.94384 9.19932 8.73263 9.19932 8.51248ZM19.5312 5.24652C19.8312 5.55908 19.9998 5.98301 19.9998 6.42503V15.1667C20.0062 15.9414 19.8629 16.7095 19.5784 17.4253C19.2939 18.1412 18.874 18.79 18.3438 19.3333C17.291 20.4079 15.8739 21.0068 14.3999 21H5.59998C5.17564 21 4.76868 20.8244 4.46862 20.5118C4.16857 20.1993 4 19.7754 4 19.3333V6.4167C4 5.97467 4.16857 5.55075 4.46862 5.23819C4.76868 4.92563 5.17564 4.75004 5.59998 4.75004H8.79994C9.01211 4.75004 9.21559 4.83783 9.36562 4.99411C9.51564 5.15039 9.59993 5.36235 9.59993 5.58337C9.59993 5.80438 9.51564 6.01634 9.36562 6.17262C9.21559 6.3289 9.01211 6.4167 8.79994 6.4167H5.99997C5.89389 6.4167 5.79215 6.4606 5.71714 6.53874C5.64212 6.61688 5.59998 6.72286 5.59998 6.83336V18.9C5.59998 19.0105 5.64212 19.1165 5.71714 19.1946C5.79215 19.2728 5.89389 19.3167 5.99997 19.3167H13.9999C14.0529 19.3167 14.1038 19.2947 14.1413 19.2556C14.1788 19.2166 14.1999 19.1636 14.1999 19.1083V16.4C14.1999 16.0132 14.3474 15.6423 14.6099 15.3688C14.8725 15.0953 15.2286 14.9417 15.5999 14.9417H18.1998C18.2529 14.9417 18.3037 14.9197 18.3412 14.8807C18.3787 14.8416 18.3998 14.7886 18.3998 14.7333V6.83336C18.3977 6.72431 18.3547 6.62046 18.2799 6.54411C18.2051 6.46776 18.1045 6.42501 17.9998 6.42503H17.5998C17.3877 6.42503 17.1842 6.33723 17.0341 6.18096C16.8841 6.02468 16.7998 5.81271 16.7998 5.5917C16.7998 5.37069 16.8841 5.15873 17.0341 5.00245C17.1842 4.84617 17.3877 4.75837 17.5998 4.75837H18.3998C18.8242 4.75837 19.2311 4.93396 19.5312 5.24652ZM15.5719 19.1381C15.6037 19.1381 15.6351 19.1308 15.6639 19.1167C16.2324 18.9254 16.754 18.6068 17.1918 18.1833C17.6364 17.7153 17.9681 17.1441 18.1598 16.5167C18.1752 16.4873 18.1833 16.4543 18.1833 16.4208C18.1833 16.3873 18.1752 16.3544 18.1598 16.325C18.1408 16.2996 18.1165 16.2789 18.0889 16.2645C18.0612 16.2501 18.0308 16.2423 17.9998 16.2417H15.5999C15.5468 16.2417 15.4959 16.2636 15.4584 16.3027C15.4209 16.3418 15.3999 16.3947 15.3999 16.45V18.95C15.4004 18.9822 15.4079 19.0139 15.4218 19.0427C15.4356 19.0716 15.4555 19.0968 15.4799 19.1167C15.5086 19.1308 15.54 19.1381 15.5719 19.1381ZM16.5998 11.8334C16.5977 11.6683 16.5339 11.5106 16.4218 11.3938C16.3097 11.2771 16.1583 11.2105 15.9998 11.2084H7.99992C7.84079 11.2084 7.68818 11.2742 7.57566 11.3914C7.46314 11.5086 7.39993 11.6676 7.39993 11.8334C7.39993 11.9991 7.46314 12.1581 7.57566 12.2753C7.68818 12.3925 7.84079 12.4584 7.99992 12.4584H15.9998C16.1589 12.4584 16.3116 12.3925 16.4241 12.2753C16.5366 12.1581 16.5998 11.9991 16.5998 11.8334ZM7.57566 15.5664C7.68818 15.4491 7.84079 15.3833 7.99992 15.3833H11.3999C11.559 15.3833 11.7116 15.4491 11.8241 15.5664C11.9367 15.6836 11.9999 15.8425 11.9999 16.0083C11.9999 16.1741 11.9367 16.333 11.8241 16.4502C11.7116 16.5674 11.559 16.6333 11.3999 16.6333H7.99992C7.84079 16.6333 7.68818 16.5674 7.57566 16.4502C7.46314 16.333 7.39993 16.1741 7.39993 16.0083C7.39993 15.8425 7.46314 15.6836 7.57566 15.5664Z" fill="#161616"/>
</svg>
