<svg width="24" height="24" viewBox="0 0 24 24" fill="none" xmlns="http://www.w3.org/2000/svg">
<path fill-rule="evenodd" clip-rule="evenodd" d="M20 9.6665C19.9993 9.49598 19.9298 9.33257 19.8067 9.2115L16.1933 5.6885C16.0692 5.56842 15.9016 5.50072 15.7267 5.5H5.33333C4.97971 5.5 4.64057 5.63696 4.39052 5.88076C4.14048 6.12456 4 6.45522 4 6.8V17.2C4 17.5448 4.14048 17.8754 4.39052 18.1192C4.64057 18.363 4.97971 18.5 5.33333 18.5H18.6667C19.0203 18.5 19.3594 18.363 19.6095 18.1192C19.8595 17.8754 20 17.5448 20 17.2V9.6665ZM18.6667 16.875C18.6667 16.9612 18.6315 17.0439 18.569 17.1048C18.5065 17.1658 18.4217 17.2 18.3333 17.2H5.66667C5.57826 17.2 5.49348 17.1658 5.43096 17.1048C5.36845 17.0439 5.33333 16.9612 5.33333 16.875V7.125C5.33333 7.0388 5.36845 6.95614 5.43096 6.89519C5.49348 6.83424 5.57826 6.8 5.66667 6.8H15.3333C15.3781 6.79937 15.4224 6.8077 15.4637 6.82447C15.505 6.84124 15.5423 6.8661 15.5733 6.8975L18.5933 9.842C18.6423 9.90064 18.6683 9.97438 18.6667 10.05V16.875ZM9.53335 10.7C10.2697 10.7 10.8667 10.118 10.8667 9.40005C10.8667 8.68208 10.2697 8.10005 9.53335 8.10005C8.79697 8.10005 8.20001 8.68208 8.20001 9.40005C8.20001 10.118 8.79697 10.7 9.53335 10.7ZM13.0275 11.0287C13.0766 11.0558 13.1176 11.0948 13.1467 11.1419L16.0533 15.6529C16.068 15.6776 16.0757 15.7056 16.0757 15.7341C16.0757 15.7627 16.068 15.7907 16.0533 15.8154C16.0384 15.8406 16.0171 15.8616 15.9914 15.8764C15.9657 15.8912 15.9365 15.8993 15.9067 15.8999H7.84002C7.81018 15.8993 7.781 15.8912 7.7553 15.8764C7.72961 15.8616 7.70827 15.8406 7.69335 15.8154C7.67872 15.7907 7.67102 15.7627 7.67102 15.7341C7.67102 15.7056 7.67872 15.6776 7.69335 15.6529L9.54002 12.7669C9.57041 12.7194 9.61263 12.6802 9.66276 12.6529C9.71288 12.6256 9.76928 12.6112 9.82668 12.6109C9.88321 12.611 9.93872 12.6255 9.9878 12.6528C10.0369 12.6802 10.0778 12.7195 10.1067 12.7669L10.6867 13.6639C10.7008 13.6878 10.7213 13.7076 10.7459 13.7213C10.7705 13.735 10.7984 13.7421 10.8267 13.7419C10.8546 13.7404 10.8818 13.7326 10.9061 13.719C10.9304 13.7055 10.9512 13.6866 10.9667 13.6639L12.5867 11.1419C12.6157 11.0948 12.6568 11.0558 12.7058 11.0287C12.7549 11.0017 12.8103 10.9874 12.8667 10.9874C12.9231 10.9874 12.9785 11.0017 13.0275 11.0287Z" fill="#161616"/>
</svg>
