<svg width="24" height="24" viewBox="0 0 24 24" fill="none" xmlns="http://www.w3.org/2000/svg">
<path fill-rule="evenodd" clip-rule="evenodd" d="M14.145 6.145L16.855 8.855C16.9474 8.94813 16.9994 9.07383 17 9.205V17C17 17.2652 16.8946 17.5196 16.7071 17.7071C16.5196 17.8946 16.2652 18 16 18H8C7.73478 18 7.48043 17.8946 7.29289 17.7071C7.10536 17.5196 7 17.2652 7 17V7C7 6.73478 7.10536 6.48043 7.29289 6.29289C7.48043 6.10536 7.73478 6 8 6H13.795C13.9262 6.00055 14.0519 6.05263 14.145 6.145ZM15.9268 16.9268C15.9737 16.8799 16 16.8163 16 16.75V9.625C16 9.59185 15.9868 9.56005 15.9634 9.53661C15.9399 9.51317 15.9082 9.5 15.875 9.5H14.5C14.2348 9.5 13.9804 9.39464 13.7929 9.20711C13.6054 9.01957 13.5 8.76522 13.5 8.5V7.125C13.5 7.09185 13.4868 7.06005 13.4634 7.03661C13.4399 7.01317 13.4082 7 13.375 7H8.25C8.1837 7 8.12011 7.02634 8.07322 7.07322C8.02634 7.12011 8 7.1837 8 7.25V16.75C8 16.8163 8.02634 16.8799 8.07322 16.9268C8.12011 16.9737 8.1837 17 8.25 17H15.75C15.8163 17 15.8799 16.9737 15.9268 16.9268ZM11.2051 10.0001L10.5001 10.8751C10.4936 10.8843 10.485 10.8919 10.475 10.8972C10.465 10.9024 10.4539 10.9051 10.4426 10.9051C10.4313 10.9051 10.4201 10.9024 10.4101 10.8972C10.4001 10.8919 10.3915 10.8843 10.3851 10.8751L10.0001 10.5001C9.93008 10.4666 9.85146 10.4557 9.77503 10.4688C9.6986 10.482 9.62811 10.5184 9.57328 10.5733C9.51844 10.6281 9.48196 10.6986 9.46884 10.775C9.45573 10.8515 9.46663 10.9301 9.50005 11.0001L10.2501 11.7501C10.3174 11.8175 10.4078 11.8567 10.5028 11.8598L10.5001 11.8601H10.5151L10.5028 11.8598C10.5546 11.8556 10.6052 11.8413 10.6516 11.8176C10.6988 11.7936 10.7408 11.7604 10.7751 11.7201L11.7751 10.4701C11.8186 10.3933 11.8337 10.3037 11.8177 10.2169C11.8017 10.1301 11.7556 10.0517 11.6875 9.99558C11.6194 9.93944 11.5337 9.90911 11.4455 9.90993C11.3572 9.91075 11.2721 9.94266 11.2051 10.0001ZM11.205 12.7649L10.5 13.6249C10.4936 13.6341 10.485 13.6417 10.4749 13.647C10.4649 13.6522 10.4538 13.6549 10.4425 13.6549C10.4312 13.6549 10.4201 13.6522 10.4101 13.647C10.4 13.6417 10.3914 13.6341 10.385 13.6249L10 13.2349C9.92698 13.1933 9.84214 13.1775 9.75907 13.19C9.676 13.2024 9.59952 13.2424 9.54188 13.3035C9.48424 13.3646 9.44878 13.4433 9.44119 13.5269C9.4336 13.6106 9.45431 13.6944 9.5 13.7649L10.235 14.4999C10.3053 14.5702 10.4006 14.6098 10.5 14.6099C10.5541 14.6124 10.6081 14.604 10.6588 14.5851C10.7095 14.5662 10.7558 14.5372 10.795 14.4999L11.795 13.2499C11.8573 13.1716 11.886 13.0718 11.8748 12.9724C11.8635 12.873 11.8132 12.7822 11.735 12.7199C11.6963 12.689 11.6518 12.6661 11.6042 12.6524C11.5566 12.6387 11.5068 12.6345 11.4576 12.6401C11.3582 12.6513 11.2673 12.7016 11.205 12.7799V12.7649ZM12.75 10.875H14C14.0994 10.875 14.1948 10.9145 14.2651 10.9848C14.3355 11.0552 14.375 11.1505 14.375 11.25C14.375 11.3495 14.3355 11.4448 14.2651 11.5152C14.1948 11.5855 14.0994 11.625 14 11.625H12.75C12.6505 11.625 12.5551 11.5855 12.4848 11.5152C12.4145 11.4448 12.375 11.3495 12.375 11.25C12.375 11.1505 12.4145 11.0552 12.4848 10.9848C12.5551 10.9145 12.6505 10.875 12.75 10.875ZM14 13.625H12.75C12.6505 13.625 12.5551 13.6645 12.4848 13.7348C12.4145 13.8052 12.375 13.9005 12.375 14C12.375 14.0995 12.4145 14.1948 12.4848 14.2652C12.5551 14.3355 12.6505 14.375 12.75 14.375H14C14.0994 14.375 14.1948 14.3355 14.2651 14.2652C14.3355 14.1948 14.375 14.0995 14.375 14C14.375 13.9005 14.3355 13.8052 14.2651 13.7348C14.1948 13.6645 14.0994 13.625 14 13.625Z" fill="#161616"/>
</svg>
