<svg width="24" height="24" viewBox="0 0 24 24" fill="none" xmlns="http://www.w3.org/2000/svg">
<path fill-rule="evenodd" clip-rule="evenodd" d="M9.89951 9.00998C9.89951 8.83386 9.96223 8.66489 10.074 8.53998L12.9359 5.35333C12.9561 5.33116 12.9701 5.30312 12.9765 5.27244C12.9829 5.24177 12.9813 5.20971 12.9719 5.17999C12.9232 5.0143 12.8989 4.84096 12.8999 4.66666C12.8999 4.33703 12.9879 4.0148 13.1527 3.74071C13.3176 3.46663 13.5518 3.25301 13.8259 3.12687C14.1 3.00072 14.4016 2.96772 14.6926 3.03203C14.9835 3.09633 15.2508 3.25507 15.4606 3.48815C15.6703 3.72124 15.8132 4.01821 15.8711 4.34151C15.929 4.66481 15.8993 4.99992 15.7857 5.30447C15.6722 5.60901 15.4799 5.86931 15.2333 6.05244C14.9866 6.23558 14.6966 6.33332 14.3999 6.33332C14.251 6.34534 14.1012 6.33185 13.9559 6.29332C13.929 6.28441 13.9005 6.2834 13.8732 6.29042C13.8458 6.29743 13.8206 6.31221 13.7999 6.33332L10.926 9.47998C10.8702 9.54247 10.8038 9.59206 10.7307 9.62591C10.6576 9.65975 10.5792 9.67718 10.5 9.67718C10.4208 9.67718 10.3423 9.65975 10.2692 9.62591C10.1961 9.59206 10.1298 9.54247 10.074 9.47998C9.96223 9.35507 9.89951 9.18611 9.89951 9.00998ZM17.6484 6.39719C17.8734 6.64724 17.9998 6.98638 17.9998 7.34V14.3333C18.0046 14.9531 17.8972 15.5676 17.6838 16.1402C17.4704 16.7129 17.1555 17.232 16.7579 17.6666C15.9682 18.5263 14.9054 19.0054 13.7999 19H7.19998C6.88173 19 6.57651 18.8595 6.35147 18.6094C6.12643 18.3594 6 18.0203 6 17.6666V7.33333C6 6.97971 6.12643 6.64057 6.35147 6.39052C6.57651 6.14048 6.88173 6 7.19998 6H9.59995C9.75908 6 9.91169 6.07024 10.0242 6.19526C10.1367 6.32029 10.1999 6.48985 10.1999 6.66666C10.1999 6.84348 10.1367 7.01304 10.0242 7.13807C9.91169 7.26309 9.75908 7.33333 9.59995 7.33333H7.49998C7.42042 7.33333 7.34411 7.36845 7.28785 7.43096C7.23159 7.49347 7.19998 7.57826 7.19998 7.66666V17.32C7.19998 17.4084 7.23159 17.4932 7.28785 17.5557C7.34411 17.6182 7.42042 17.6533 7.49998 17.6533H13.4999C13.5397 17.6533 13.5778 17.6357 13.606 17.6045C13.6341 17.5732 13.6499 17.5308 13.6499 17.4866V15.32C13.6499 15.0106 13.7605 14.7138 13.9574 14.495C14.1543 14.2762 14.4214 14.1533 14.6999 14.1533H16.6499C16.6896 14.1533 16.7278 14.1357 16.7559 14.1045C16.7841 14.0732 16.7999 14.0308 16.7999 13.9866V7.66666C16.7983 7.57942 16.766 7.49634 16.7099 7.43526C16.6538 7.37418 16.5784 7.33998 16.4999 7.34H16.1999C16.0407 7.34 15.8881 7.26976 15.7756 7.14473C15.6631 7.01971 15.5999 6.85014 15.5999 6.67333C15.5999 6.49652 15.6631 6.32695 15.7756 6.20193C15.8881 6.0769 16.0407 6.00667 16.1999 6.00667H16.7999C17.1181 6.00667 17.4233 6.14714 17.6484 6.39719ZM14.6789 17.5104C14.7027 17.5104 14.7263 17.5046 14.7479 17.4933C15.1743 17.3403 15.5655 17.0854 15.8939 16.7466C16.2273 16.3722 16.4761 15.9152 16.6199 15.4133C16.6314 15.3898 16.6375 15.3634 16.6375 15.3366C16.6375 15.3098 16.6314 15.2835 16.6199 15.26C16.6056 15.2396 16.5874 15.2231 16.5666 15.2116C16.5459 15.2 16.5231 15.1938 16.4999 15.1933H14.6999C14.6601 15.1933 14.622 15.2109 14.5938 15.2421C14.5657 15.2734 14.5499 15.3158 14.5499 15.36V17.36C14.5503 17.3858 14.556 17.4111 14.5663 17.4342C14.5767 17.4572 14.5916 17.4774 14.6099 17.4933C14.6315 17.5046 14.655 17.5104 14.6789 17.5104ZM15.4498 11.6667C15.4483 11.5347 15.4004 11.4085 15.3163 11.3151C15.2323 11.2217 15.1187 11.1685 14.9998 11.1667H8.99992C8.88058 11.1667 8.76612 11.2194 8.68173 11.3132C8.59734 11.407 8.54993 11.5341 8.54993 11.6667C8.54993 11.7994 8.59734 11.9265 8.68173 12.0203C8.76612 12.1141 8.88058 12.1667 8.99992 12.1667H14.9998C15.1192 12.1667 15.2336 12.1141 15.318 12.0203C15.4024 11.9265 15.4498 11.7994 15.4498 11.6667ZM8.68173 14.653C8.76612 14.5593 8.88058 14.5066 8.99992 14.5066H11.5499C11.6692 14.5066 11.7837 14.5593 11.8681 14.653C11.9525 14.7468 11.9999 14.874 11.9999 15.0066C11.9999 15.1392 11.9525 15.2664 11.8681 15.3601C11.7837 15.4539 11.6692 15.5066 11.5499 15.5066H8.99992C8.88058 15.5066 8.76612 15.4539 8.68173 15.3601C8.59734 15.2664 8.54993 15.1392 8.54993 15.0066C8.54993 14.874 8.59734 14.7468 8.68173 14.653Z" fill="#161616"/>
</svg>
