<svg width="24" height="24" viewBox="0 0 24 24" fill="none" xmlns="http://www.w3.org/2000/svg">
<path fill-rule="evenodd" clip-rule="evenodd" d="M14.7885 4.19333L18.3115 7.80667C18.4316 7.93084 18.4993 8.09844 18.5 8.27333V18.6667C18.5 19.0203 18.363 19.3594 18.1192 19.6095C17.8754 19.8595 17.5448 20 17.2 20H6.8C6.45522 20 6.12456 19.8595 5.88076 19.6095C5.63696 19.3594 5.5 19.0203 5.5 18.6667V5.33333C5.5 4.97971 5.63696 4.64057 5.88076 4.39052C6.12456 4.14048 6.45522 4 6.8 4H14.3335C14.504 4.00074 14.6674 4.07017 14.7885 4.19333ZM17.1048 18.569C17.1658 18.5065 17.2 18.4217 17.2 18.3333V8.83333C17.2 8.78913 17.1829 8.74674 17.1524 8.71548C17.1219 8.68423 17.0806 8.66667 17.0375 8.66667H15.25C14.9052 8.66667 14.5746 8.52619 14.3308 8.27614C14.087 8.02609 13.95 7.68696 13.95 7.33333V5.5C13.95 5.4558 13.9329 5.41341 13.9024 5.38215C13.8719 5.35089 13.8306 5.33333 13.7875 5.33333H7.125C7.0388 5.33333 6.95614 5.36845 6.89519 5.43096C6.83424 5.49348 6.8 5.57826 6.8 5.66667V18.3333C6.8 18.4217 6.83424 18.5065 6.89519 18.569C6.95614 18.6315 7.0388 18.6667 7.125 18.6667H16.875C16.9612 18.6667 17.0439 18.6315 17.1048 18.569ZM10.9665 9.33333L10.05 10.5C10.0416 10.5124 10.0304 10.5225 10.0174 10.5295C10.0044 10.5365 9.98993 10.5401 9.97524 10.5401C9.96055 10.5401 9.94608 10.5365 9.93306 10.5295C9.92004 10.5225 9.90887 10.5124 9.90049 10.5L9.39999 10C9.30902 9.95544 9.20682 9.9409 9.10746 9.95838C9.0081 9.97587 8.91646 10.0245 8.84518 10.0976C8.77389 10.1707 8.72646 10.2647 8.70941 10.3666C8.69237 10.4685 8.70654 10.5734 8.74999 10.6667L9.72499 11.6667C9.81255 11.7566 9.93006 11.8088 10.0535 11.813L10.05 11.8133H10.0695L10.0535 11.813C10.1209 11.8074 10.1867 11.7883 10.247 11.7568C10.3084 11.7247 10.3629 11.6805 10.4075 11.6267L11.7075 9.96C11.7641 9.85767 11.7838 9.73813 11.763 9.62242C11.7421 9.5067 11.6822 9.40222 11.5937 9.32736C11.5052 9.25251 11.3938 9.21206 11.279 9.21316C11.1643 9.21425 11.0536 9.2568 10.9665 9.33333ZM10.9665 13.0199L10.05 14.1666C10.0416 14.1789 10.0305 14.189 10.0174 14.196C10.0044 14.203 9.98995 14.2067 9.97526 14.2067C9.96057 14.2067 9.9461 14.203 9.93308 14.196C9.92007 14.189 9.90889 14.1789 9.90051 14.1666L9.40001 13.6466C9.30509 13.5912 9.19479 13.5701 9.08681 13.5867C8.97882 13.6033 8.87939 13.6566 8.80446 13.7381C8.72953 13.8196 8.68343 13.9245 8.67356 14.036C8.66369 14.1475 8.69061 14.2593 8.75001 14.3532L9.70551 15.3332C9.79685 15.427 9.92076 15.4798 10.05 15.4799C10.1203 15.4833 10.1905 15.4721 10.2564 15.4469C10.3223 15.4217 10.3826 15.383 10.4335 15.3332L11.7335 13.6666C11.8145 13.5622 11.8518 13.4292 11.8372 13.2967C11.8226 13.1641 11.7572 13.043 11.6555 12.9599C11.6052 12.9187 11.5474 12.8882 11.4855 12.8699C11.4236 12.8517 11.3588 12.8461 11.2949 12.8535C11.1656 12.8685 11.0475 12.9356 10.9665 13.0399V13.0199ZM12.975 10.5H14.6C14.7293 10.5 14.8533 10.5527 14.9447 10.6464C15.0361 10.7402 15.0875 10.8674 15.0875 11C15.0875 11.1326 15.0361 11.2598 14.9447 11.3536C14.8533 11.4473 14.7293 11.5 14.6 11.5H12.975C12.8457 11.5 12.7217 11.4473 12.6303 11.3536C12.5388 11.2598 12.4875 11.1326 12.4875 11C12.4875 10.8674 12.5388 10.7402 12.6303 10.6464C12.7217 10.5527 12.8457 10.5 12.975 10.5ZM14.6 14.1667H12.975C12.8457 14.1667 12.7217 14.2194 12.6303 14.3132C12.5388 14.407 12.4875 14.5341 12.4875 14.6667C12.4875 14.7994 12.5388 14.9265 12.6303 15.0203C12.7217 15.1141 12.8457 15.1667 12.975 15.1667H14.6C14.7293 15.1667 14.8533 15.1141 14.9447 15.0203C15.0361 14.9265 15.0875 14.7994 15.0875 14.6667C15.0875 14.5341 15.0361 14.407 14.9447 14.3132C14.8533 14.2194 14.7293 14.1667 14.6 14.1667Z" fill="#161616"/>
</svg>
