<svg width="24" height="24" viewBox="0 0 24 24" fill="none" xmlns="http://www.w3.org/2000/svg">
<path fill-rule="evenodd" clip-rule="evenodd" d="M17.7066 7.50006L16.5 6.29301C16.3124 6.10533 16.0579 5.99992 15.7925 6H9.9998C9.44749 6 8.99976 6.44773 8.99976 7.00004V11.7912C8.99937 11.8414 9.0291 11.8868 9.07518 11.9066C9.12126 11.9264 9.17471 11.9166 9.21077 11.8817C9.42878 11.6707 9.76079 11.3517 9.91679 11.2077C9.96961 11.1603 9.99979 11.0927 9.9998 11.0217V7.25005C9.9998 7.11197 10.1117 7.00004 10.2498 7.00004H15.689C15.7553 7.00018 15.8187 7.02662 15.8655 7.07354L16.9261 8.13408C16.9733 8.18089 16.9999 8.24459 17.0001 8.31109V15.0003C17.0001 15.1384 16.8881 15.2503 16.75 15.2503H11.7669C11.7006 15.2505 11.6371 15.2769 11.5904 15.3238L10.8773 16.0374C10.8413 16.073 10.8305 16.1269 10.8499 16.1737C10.8694 16.2204 10.9152 16.2508 10.9658 16.2504H17.0001C17.5524 16.2504 18.0001 15.8026 18.0001 15.2503V8.20758C18 7.94213 17.8944 7.6876 17.7066 7.50006ZM15.9999 9.75014C15.9999 9.47399 15.7761 9.25012 15.4999 9.25012H11.9998C11.7236 9.25012 11.4998 9.47399 11.4998 9.75014C11.4998 10.0263 11.7236 10.2502 11.9998 10.2502H15.4999C15.7761 10.2502 15.9999 10.0263 15.9999 9.75014ZM12.9029 11.563C12.9251 11.5239 12.9668 11.4999 13.0118 11.5002H14.2499C14.526 11.5002 14.7499 11.7241 14.7499 12.0003C14.7499 12.2764 14.526 12.5003 14.2499 12.5003H13.3193C13.2606 12.5002 13.2102 12.4581 13.1998 12.4003C13.1475 12.1466 13.0474 11.9051 12.9048 11.6888C12.8814 11.6503 12.8807 11.6022 12.9029 11.563ZM6.53007 16.0664C6.49753 16.0338 6.44968 16.0217 6.40556 16.035C6.36144 16.0482 6.3282 16.0847 6.31907 16.1299L6.00505 17.7004C5.99005 17.7739 6.00883 17.8502 6.05621 17.9084C6.10359 17.9665 6.17457 18.0003 6.24956 18.0004C6.26636 18.0006 6.28313 17.9989 6.29956 17.9954L7.87112 17.6814C7.91628 17.6723 7.95275 17.6391 7.96603 17.5949C7.97931 17.5508 7.96724 17.503 7.93463 17.4704L6.53007 16.0664ZM10.2142 11.9327C10.6924 11.434 11.4692 11.375 12.0172 11.7957C12.3037 12.03 12.4778 12.3744 12.4967 12.744C12.5155 13.1136 12.3774 13.474 12.1162 13.7362L8.77612 17.0759C8.75275 17.0993 8.72099 17.1125 8.68786 17.1125C8.65474 17.1125 8.62298 17.0993 8.59961 17.0759L6.92405 15.3993C6.87541 15.3505 6.87541 15.2716 6.92405 15.2228L10.2142 11.9327Z" fill="#161616"/>
</svg>
