<svg width="24" height="24" viewBox="0 0 24 24" fill="none" xmlns="http://www.w3.org/2000/svg">
<path fill-rule="evenodd" clip-rule="evenodd" d="M9.31384 19H11.9009C12.4491 19 12.8936 18.537 12.8936 17.9659C12.8936 17.3948 12.4491 16.9318 11.9009 16.9318H9.31384C8.14511 16.9668 7.0505 16.3373 6.45623 15.2884C5.86196 14.2395 5.86196 12.9371 6.45623 11.8882C7.0505 10.8393 8.14511 10.2098 9.31384 10.2448H15.2768C15.3682 10.2448 15.4422 10.3219 15.4422 10.4171V12.5763C15.4423 12.8551 15.6035 13.1064 15.8508 13.213C16.0981 13.3197 16.3827 13.2608 16.5719 13.0637L19.8062 9.69532C20.0646 9.42611 20.0646 8.98973 19.8062 8.72052L16.5719 5.35148C16.3827 5.15438 16.0981 5.09542 15.8508 5.2021C15.6035 5.30878 15.4423 5.56009 15.4422 5.83887V8.00149C15.4422 8.09667 15.3682 8.17384 15.2768 8.17384H9.31384C7.4298 8.12953 5.67039 9.1512 4.71588 10.8438C3.76137 12.5364 3.76137 14.6347 4.71588 16.3273C5.67039 18.0199 7.4298 19.0415 9.31384 18.9972V19Z" fill="#161616"/>
</svg>
