<svg width="24" height="24" viewBox="0 0 24 24" fill="none" xmlns="http://www.w3.org/2000/svg">
<path d="M6.9993 12C6.99875 11.5578 7.18867 11.1369 7.52051 10.8447L14.9725 4.28877C15.4861 3.85782 16.2497 3.91569 16.6925 4.41911C17.1353 4.92253 17.0952 5.68736 16.6023 6.14174L10.0858 11.8744C10.0496 11.9061 10.0289 11.9519 10.0289 12C10.0289 12.0481 10.0496 12.0939 10.0858 12.1256L16.6023 17.8583C17.0952 18.3126 17.1353 19.0775 16.6925 19.5809C16.2497 20.0843 15.4861 20.1422 14.9725 19.7112L7.52318 13.1574C7.19053 12.8646 6.99972 12.4431 6.9993 12Z" fill="#161616"/>
</svg>
