<svg width="24" height="24" viewBox="0 0 24 24" fill="none" xmlns="http://www.w3.org/2000/svg">
<path fill-rule="evenodd" clip-rule="evenodd" d="M4.32517 10.8264C4.72266 10.4827 5.32844 10.5206 5.67833 10.911L10.7327 16.554C10.7796 16.6056 10.8541 16.6234 10.9199 16.5989C10.9858 16.5743 11.0295 16.5125 11.0299 16.4433V4.94138C11.0299 4.42147 11.4589 4 11.9881 4C12.5173 4 12.9463 4.42147 12.9463 4.94138V16.4433C12.9467 16.5125 12.9904 16.5743 13.0563 16.5989C13.1221 16.6234 13.1965 16.6056 13.2435 16.554L18.2992 10.911C18.5215 10.6444 18.8743 10.5182 19.219 10.5822C19.5638 10.6461 19.8454 10.8899 19.9534 11.2179C20.0614 11.5458 19.9785 11.9056 19.7372 12.1558L13.1872 19.4668C12.8842 19.8057 12.4472 20 11.9881 20C11.5289 20 11.092 19.8057 10.789 19.4668L4.23899 12.1551C4.07105 11.9677 3.98578 11.7224 4.00194 11.4732C4.0181 11.224 4.13438 10.9913 4.32517 10.8264Z" fill="#161616"/>
</svg>
