<svg width="24" height="24" viewBox="0 0 24 24" fill="none" xmlns="http://www.w3.org/2000/svg">
<path d="M12.2497 8.24974C12.5813 8.24933 12.8971 8.39177 13.1162 8.64065L18.0331 14.2296C18.3564 14.6148 18.313 15.1876 17.9354 15.5197C17.5578 15.8518 16.9842 15.8217 16.6434 15.452L12.3439 10.5646C12.3202 10.5375 12.2858 10.5219 12.2497 10.5219C12.2136 10.5219 12.1793 10.5375 12.1555 10.5646L7.85603 15.452C7.51525 15.8217 6.94162 15.8518 6.56405 15.5197C6.18649 15.1876 6.14309 14.6148 6.4663 14.2296L11.3817 8.64265C11.6012 8.39317 11.9174 8.25006 12.2497 8.24974Z" fill="#161616"/>
</svg>
