<svg width="24" height="24" viewBox="0 0 24 24" fill="none" xmlns="http://www.w3.org/2000/svg">
<path d="M15.5005 12C15.5009 12.3316 15.3585 12.6474 15.1096 12.8665L9.52065 17.7834C9.13546 18.1066 8.56269 18.0632 8.2306 17.6857C7.89852 17.3081 7.92858 16.7345 8.29832 16.3937L13.1857 12.0942C13.2128 12.0704 13.2284 12.0361 13.2284 12C13.2284 11.9639 13.2128 11.9296 13.1857 11.9058L8.29832 7.6063C7.92858 7.26552 7.89852 6.6919 8.2306 6.31433C8.56269 5.93676 9.13546 5.89336 9.52065 6.21658L15.1076 11.132C15.3571 11.3515 15.5002 11.6677 15.5005 12Z" fill="#161616"/>
</svg>
