<svg width="24" height="24" viewBox="0 0 24 24" fill="none" xmlns="http://www.w3.org/2000/svg">
<path fill-rule="evenodd" clip-rule="evenodd" d="M14.6862 19H12.0991C11.5509 19 11.1064 18.537 11.1064 17.9659C11.1064 17.3948 11.5509 16.9318 12.0991 16.9318H14.6862C15.8549 16.9668 16.9495 16.3373 17.5438 15.2884C18.138 14.2395 18.138 12.9371 17.5438 11.8882C16.9495 10.8393 15.8549 10.2098 14.6862 10.2448H8.72322C8.63184 10.2448 8.55777 10.3219 8.55777 10.4171V12.5763C8.55771 12.8551 8.39647 13.1064 8.1492 13.213C7.90193 13.3197 7.61733 13.2608 7.42805 13.0637L4.19377 9.69532C3.93541 9.42611 3.93541 8.98973 4.19377 8.72052L7.42805 5.35148C7.61733 5.15438 7.90193 5.09542 8.1492 5.2021C8.39647 5.30878 8.55771 5.56009 8.55777 5.83887V8.00149C8.55777 8.09667 8.63184 8.17384 8.72322 8.17384H14.6862C16.5702 8.12953 18.3296 9.1512 19.2841 10.8438C20.2386 12.5364 20.2386 14.6347 19.2841 16.3273C18.3296 18.0199 16.5702 19.0415 14.6862 18.9972V19Z" fill="#161616"/>
</svg>
