<svg width="24" height="24" viewBox="0 0 24 24" fill="none" xmlns="http://www.w3.org/2000/svg">
<path d="M12.0004 17.0004C11.5582 17.0009 11.1372 16.811 10.845 16.4791L4.28914 9.02719C3.85818 8.5136 3.91605 7.74991 4.41947 7.30712C4.92289 6.86434 5.68773 6.90442 6.1421 7.3974L11.8747 13.9139C11.9065 13.95 11.9522 13.9708 12.0004 13.9708C12.0485 13.9708 12.0943 13.95 12.126 13.9139L17.8586 7.3974C18.313 6.90442 19.0778 6.86434 19.5813 7.30712C20.0847 7.74991 20.1425 8.5136 19.7116 9.02719L13.1577 16.4765C12.865 16.8091 12.4435 16.9999 12.0004 17.0004Z" fill="#161616"/>
</svg>
