<svg width="24" height="24" viewBox="0 0 24 24" fill="none" xmlns="http://www.w3.org/2000/svg">
<path fill-rule="evenodd" clip-rule="evenodd" d="M12 22C17.5228 22 22 17.5228 22 12C22 6.47715 17.5228 2 12 2C6.47715 2 2 6.47715 2 12C2.00597 17.5204 6.47963 21.994 12 22ZM7.66083 10.5758L11.4108 6.82583C11.7362 6.50052 12.2638 6.50052 12.5892 6.82583L16.3392 10.5758C16.5558 10.7851 16.6427 11.0949 16.5664 11.3863C16.4902 11.6776 16.2626 11.9052 15.9713 11.9814C15.6799 12.0577 15.3701 11.9708 15.1608 11.7542L13.1892 9.78167C13.1296 9.72193 13.0398 9.70403 12.9619 9.73634C12.8839 9.76865 12.8332 9.84479 12.8333 9.92917V17C12.8333 17.4602 12.4602 17.8333 12 17.8333C11.5398 17.8333 11.1667 17.4602 11.1667 17V9.92917C11.1668 9.84479 11.1161 9.76865 11.0381 9.73634C10.9602 9.70403 10.8704 9.72193 10.8108 9.78167L8.83917 11.7542C8.62994 11.9708 8.3201 12.0577 8.02874 11.9814C7.73739 11.9052 7.50985 11.6776 7.43359 11.3863C7.35732 11.0949 7.4442 10.7851 7.66083 10.5758Z" fill="#161616"/>
</svg>
