<svg width="24" height="24" viewBox="0 0 24 24" fill="none" xmlns="http://www.w3.org/2000/svg">
<path fill-rule="evenodd" clip-rule="evenodd" d="M17.7561 12.8802C17.458 13.138 17.0037 13.1095 16.7413 12.8167L12.9505 8.58449C12.9153 8.54583 12.8595 8.53246 12.8101 8.55085C12.7607 8.56924 12.7279 8.6156 12.7276 8.6675V17.294C12.7276 17.6839 12.4058 18 12.0089 18C11.612 18 11.2903 17.6839 11.2903 17.294V8.6675C11.29 8.6156 11.2572 8.56924 11.2078 8.55085C11.1584 8.53246 11.1026 8.54583 11.0674 8.58449L7.2756 12.8167C7.10889 13.0167 6.84431 13.1113 6.58575 13.0634C6.32718 13.0154 6.11593 12.8325 6.03493 12.5866C5.95394 12.3406 6.01614 12.0708 6.19711 11.8832L11.1096 6.39987C11.3369 6.1457 11.6646 6 12.0089 6C12.3533 6 12.681 6.1457 12.9083 6.39987L17.8208 11.8837C17.9467 12.0242 18.0107 12.2082 17.9985 12.3951C17.9864 12.582 17.8992 12.7565 17.7561 12.8802Z" fill="#161616"/>
</svg>
