<svg width="24" height="24" viewBox="0 0 24 24" fill="none" xmlns="http://www.w3.org/2000/svg">
<path fill-rule="evenodd" clip-rule="evenodd" d="M14.0146 17H12.0743C11.6632 17 11.3298 16.6528 11.3298 16.2244C11.3298 15.7961 11.6632 15.4489 12.0743 15.4489H14.0146C14.8912 15.4751 15.7121 15.003 16.1578 14.2163C16.6035 13.4296 16.6035 12.4528 16.1578 11.6661C15.7121 10.8795 14.8912 10.4073 14.0146 10.4336H9.54242C9.47388 10.4336 9.41833 10.4914 9.41833 10.5628V12.1822C9.41828 12.3913 9.29735 12.5798 9.1119 12.6598C8.92645 12.7398 8.713 12.6956 8.57104 12.5478L6.14533 10.0215C5.95156 9.81958 5.95156 9.49229 6.14533 9.29039L8.57104 6.76361C8.713 6.61578 8.92645 6.57157 9.1119 6.65158C9.29735 6.73158 9.41828 6.92007 9.41833 7.12916V8.75112C9.41833 8.8225 9.47388 8.88038 9.54242 8.88038H14.0146C15.4276 8.84715 16.7472 9.6134 17.4631 10.8829C18.179 12.1523 18.179 13.726 17.4631 14.9955C16.7472 16.2649 15.4276 17.0312 14.0146 16.9979V17Z" fill="#161616"/>
</svg>
