<svg width="24" height="24" viewBox="0 0 24 24" fill="none" xmlns="http://www.w3.org/2000/svg">
<path fill-rule="evenodd" clip-rule="evenodd" d="M11.1198 17.7561C10.862 17.458 10.8905 17.0037 11.1833 16.7413L15.4155 12.9505C15.4542 12.9153 15.4675 12.8595 15.4492 12.8101C15.4308 12.7607 15.3844 12.7279 15.3325 12.7276H6.70604C6.3161 12.7276 6 12.4058 6 12.0089C6 11.612 6.3161 11.2903 6.70604 11.2903H15.3325C15.3844 11.29 15.4308 11.2572 15.4492 11.2078C15.4675 11.1584 15.4542 11.1026 15.4155 11.0674L11.1833 7.2756C10.9833 7.10889 10.8887 6.84431 10.9366 6.58575C10.9846 6.32718 11.1675 6.11593 11.4134 6.03493C11.6594 5.95394 11.9292 6.01614 12.1168 6.19711L17.6001 11.1096C17.8543 11.3369 18 11.6646 18 12.0089C18 12.3533 17.8543 12.681 17.6001 12.9083L12.1163 17.8208C11.9758 17.9467 11.7918 18.0107 11.6049 17.9985C11.418 17.9864 11.2435 17.8992 11.1198 17.7561Z" fill="#161616"/>
</svg>
