<svg width="24" height="24" viewBox="0 0 24 24" fill="none" xmlns="http://www.w3.org/2000/svg">
<path d="M17.0007 12C17.0013 12.4422 16.8113 12.8631 16.4795 13.1553L9.02754 19.7112C8.51395 20.1422 7.75026 20.0843 7.30747 19.5809C6.86469 19.0775 6.90477 18.3126 7.39776 17.8583L13.9142 12.1256C13.9504 12.0939 13.9711 12.0481 13.9711 12C13.9711 11.9519 13.9504 11.9061 13.9142 11.8744L7.39776 6.14174C6.90477 5.68736 6.86469 4.92253 7.30747 4.41911C7.75026 3.91569 8.51395 3.85782 9.02754 4.28877L16.4768 10.8426C16.8095 11.1354 17.0003 11.5569 17.0007 12Z" fill="#161616"/>
</svg>
