<svg width="24" height="24" viewBox="0 0 24 24" fill="none" xmlns="http://www.w3.org/2000/svg">
<path d="M11.9996 6.99965C12.4418 6.9991 12.8628 7.18902 13.155 7.52086L19.7109 14.9728C20.1418 15.4864 20.0839 16.2501 19.5805 16.6929C19.0771 17.1357 18.3123 17.0956 17.8579 16.6026L12.1253 10.0861C12.0935 10.05 12.0478 10.0292 11.9996 10.0292C11.9515 10.0292 11.9057 10.05 11.874 10.0861L6.14137 16.6026C5.68699 17.0956 4.92216 17.1357 4.41874 16.6929C3.91532 16.2501 3.85745 15.4864 4.2884 14.9728L10.8423 7.52353C11.135 7.19089 11.5565 7.00007 11.9996 6.99965Z" fill="#161616"/>
</svg>
