<svg width="24" height="24" viewBox="0 0 24 24" fill="none" xmlns="http://www.w3.org/2000/svg">
<path fill-rule="evenodd" clip-rule="evenodd" d="M6.24388 11.1198C6.54199 10.862 6.99633 10.8905 7.25875 11.1833L11.0495 15.4155C11.0847 15.4542 11.1405 15.4675 11.1899 15.4492C11.2393 15.4308 11.2721 15.3844 11.2724 15.3325V6.70604C11.2724 6.3161 11.5942 6 11.9911 6C12.388 6 12.7097 6.3161 12.7097 6.70604V15.3325C12.71 15.3844 12.7428 15.4308 12.7922 15.4492C12.8416 15.4675 12.8974 15.4542 12.9326 15.4155L16.7244 11.1833C16.8911 10.9833 17.1557 10.8887 17.4143 10.9366C17.6728 10.9846 17.8841 11.1675 17.9651 11.4134C18.0461 11.6594 17.9839 11.9292 17.8029 12.1168L12.8904 17.6001C12.6631 17.8543 12.3354 18 11.9911 18C11.6467 18 11.319 17.8543 11.0917 17.6001L6.17924 12.1163C6.05329 11.9758 5.98933 11.7918 6.00146 11.6049C6.01358 11.418 6.10078 11.2435 6.24388 11.1198Z" fill="#161616"/>
</svg>
