<svg width="24" height="24" viewBox="0 0 24 24" fill="none" xmlns="http://www.w3.org/2000/svg">
<path fill-rule="evenodd" clip-rule="evenodd" d="M19.6748 13.1736C19.2773 13.5173 18.6716 13.4794 18.3217 13.089L13.2673 7.44599C13.2204 7.39444 13.1459 7.37661 13.0801 7.40113C13.0142 7.42565 12.9705 7.48747 12.9701 7.55666V19.0586C12.9701 19.5785 12.5411 20 12.0119 20C11.4827 20 11.0537 19.5785 11.0537 19.0586V7.55666C11.0533 7.48747 11.0096 7.42565 10.9437 7.40113C10.8779 7.37661 10.8035 7.39444 10.7565 7.44599L5.7008 13.089C5.47853 13.3556 5.12575 13.4818 4.781 13.4178C4.43625 13.3539 4.15457 13.1101 4.04658 12.7821C3.93858 12.4542 4.02152 12.0944 4.26282 11.8442L10.8128 4.53317C11.1158 4.19427 11.5528 4 12.0119 4C12.4711 4 12.908 4.19427 13.211 4.53317L19.761 11.8449C19.929 12.0323 20.0142 12.2776 19.9981 12.5268C19.9819 12.776 19.8656 13.0087 19.6748 13.1736Z" fill="#161616"/>
</svg>
