<svg width="24" height="24" viewBox="0 0 24 24" fill="none" xmlns="http://www.w3.org/2000/svg">
<path fill-rule="evenodd" clip-rule="evenodd" d="M13.467 2.40647C13.8966 2.90332 13.8492 3.66054 13.3612 4.09791L6.30749 10.4158C6.24305 10.4745 6.22076 10.5676 6.25141 10.6499C6.28207 10.7322 6.35934 10.7869 6.44583 10.7874H20.8233C21.4732 10.7874 22 11.3236 22 11.9851C22 12.6466 21.4732 13.1829 20.8233 13.1829H6.44583C6.35934 13.1834 6.28207 13.238 6.25141 13.3203C6.22076 13.4026 6.24305 13.4957 6.30749 13.5544L13.3612 19.874C13.6946 20.1518 13.8522 20.5928 13.7723 21.0238C13.6923 21.4547 13.3876 21.8068 12.9776 21.9418C12.5677 22.0768 12.1181 21.9731 11.8053 21.6715L2.66646 13.484C2.24284 13.1052 2 12.5591 2 11.9851C2 11.4112 2.24284 10.865 2.66646 10.4862L11.8061 2.29874C12.0404 2.08881 12.347 1.98222 12.6585 2.00243C12.97 2.02263 13.2608 2.16797 13.467 2.40647Z" fill="#161616"/>
</svg>
