<svg width="24" height="24" viewBox="0 0 24 24" fill="none" xmlns="http://www.w3.org/2000/svg">
<path fill-rule="evenodd" clip-rule="evenodd" d="M8.6423 20.313H11.8761C12.5614 20.313 13.117 19.7343 13.117 19.0204C13.117 18.3065 12.5614 17.7278 11.8761 17.7278H8.6423C7.18139 17.7715 5.81313 16.9846 5.07029 15.6735C4.32746 14.3624 4.32746 12.7343 5.07029 11.4232C5.81313 10.1121 7.18139 9.32523 8.6423 9.36894H16.096C16.2102 9.36894 16.3028 9.46539 16.3028 9.58437V12.2833C16.3029 12.6318 16.5044 12.9459 16.8135 13.0793C17.1226 13.2126 17.4783 13.139 17.7149 12.8926L21.7578 8.68213C22.0807 8.34563 22.0807 7.80015 21.7578 7.46364L17.7149 3.25233C17.4783 3.00596 17.1226 2.93227 16.8135 3.06561C16.5044 3.19896 16.3029 3.5131 16.3028 3.86158V6.56485C16.3028 6.68383 16.2102 6.78028 16.096 6.78028H8.6423C6.28725 6.7249 4.08799 8.00198 2.89485 10.1177C1.70172 12.2335 1.70172 14.8563 2.89485 16.9721C4.08799 19.0878 6.28725 20.3649 8.6423 20.3095V20.313Z" fill="#161616"/>
</svg>
