<svg width="24" height="24" viewBox="0 0 24 24" fill="none" xmlns="http://www.w3.org/2000/svg">
<path d="M12.2504 5.74956C12.8031 5.74888 13.3294 5.98627 13.6946 6.40107L21.8895 15.716C22.4282 16.358 22.3558 17.3126 21.7266 17.8661C21.0973 18.4196 20.1412 18.3695 19.5733 17.7532L12.4075 9.60768C12.3678 9.56245 12.3106 9.53651 12.2504 9.53651C12.1903 9.53651 12.1331 9.56245 12.0934 9.60768L4.92761 17.7532C4.35964 18.3695 3.4036 18.4196 2.77433 17.8661C2.14505 17.3126 2.07271 16.358 2.61141 15.716L10.8038 6.40441C11.1696 5.9886 11.6966 5.75009 12.2504 5.74956Z" fill="#161616"/>
</svg>
