<svg width="24" height="24" viewBox="0 0 24 24" fill="none" xmlns="http://www.w3.org/2000/svg">
<path fill-rule="evenodd" clip-rule="evenodd" d="M12.8802 6.24388C13.138 6.54199 13.1095 6.99633 12.8167 7.25875L8.58449 11.0495C8.54583 11.0847 8.53246 11.1405 8.55085 11.1899C8.56924 11.2393 8.6156 11.2721 8.6675 11.2724H17.294C17.6839 11.2724 18 11.5942 18 11.9911C18 12.388 17.6839 12.7097 17.294 12.7097H8.6675C8.6156 12.71 8.56924 12.7428 8.55085 12.7922C8.53246 12.8416 8.54583 12.8974 8.58449 12.9326L12.8167 16.7244C13.0167 16.8911 13.1113 17.1557 13.0634 17.4143C13.0154 17.6728 12.8325 17.8841 12.5866 17.9651C12.3406 18.0461 12.0708 17.9839 11.8832 17.8029L6.39987 12.8904C6.1457 12.6631 6 12.3354 6 11.9911C6 11.6467 6.1457 11.319 6.39987 11.0917L11.8837 6.17924C12.0242 6.05329 12.2082 5.98933 12.3951 6.00146C12.582 6.01358 12.7565 6.10078 12.8802 6.24388Z" fill="#161616"/>
</svg>
