<svg width="24" height="24" viewBox="0 0 24 24" fill="none" xmlns="http://www.w3.org/2000/svg">
<path fill-rule="evenodd" clip-rule="evenodd" d="M2.40647 10.533C2.90332 10.1034 3.66054 10.1508 4.09791 10.6388L10.4158 17.6925C10.4745 17.757 10.5676 17.7792 10.6499 17.7486C10.7322 17.7179 10.7869 17.6407 10.7874 17.5542V3.17673C10.7874 2.52684 11.3236 2 11.9851 2C12.6466 2 13.1829 2.52684 13.1829 3.17673V17.5542C13.1834 17.6407 13.238 17.7179 13.3203 17.7486C13.4026 17.7792 13.4957 17.757 13.5544 17.6925L19.874 10.6388C20.1518 10.3054 20.5928 10.1478 21.0238 10.2277C21.4547 10.3077 21.8068 10.6124 21.9418 11.0224C22.0768 11.4323 21.9731 11.8819 21.6715 12.1947L13.484 21.3335C13.1052 21.7572 12.5591 22 11.9851 22C11.4112 22 10.865 21.7572 10.4862 21.3335L2.29874 12.1939C2.08881 11.9596 1.98222 11.653 2.00243 11.3415C2.02263 11.03 2.16797 10.7392 2.40647 10.533Z" fill="#161616"/>
</svg>
