<svg width="24" height="24" viewBox="0 0 24 24" fill="none" xmlns="http://www.w3.org/2000/svg">
<path fill-rule="evenodd" clip-rule="evenodd" d="M10.533 21.5935C10.1034 21.0967 10.1508 20.3395 10.6388 19.9021L17.6925 13.5842C17.757 13.5255 17.7792 13.4324 17.7486 13.3501C17.7179 13.2678 17.6407 13.2131 17.5542 13.2126H3.17673C2.52684 13.2126 2 12.6764 2 12.0149C2 11.3534 2.52684 10.8171 3.17673 10.8171H17.5542C17.6407 10.8166 17.7179 10.762 17.7486 10.6797C17.7792 10.5974 17.757 10.5043 17.6925 10.4456L10.6388 4.126C10.3054 3.84816 10.1478 3.40719 10.2277 2.97625C10.3077 2.54531 10.6124 2.19321 11.0224 2.05822C11.4323 1.92323 11.8819 2.0269 12.1947 2.32852L21.3335 10.516C21.7572 10.8948 22 11.4409 22 12.0149C22 12.5888 21.7572 13.135 21.3335 13.5138L12.1939 21.7013C11.9596 21.9112 11.653 22.0178 11.3415 21.9976C11.03 21.9774 10.7392 21.832 10.533 21.5935Z" fill="#161616"/>
</svg>
