<svg width="24" height="24" viewBox="0 0 24 24" fill="none" xmlns="http://www.w3.org/2000/svg">
<path fill-rule="evenodd" clip-rule="evenodd" d="M15.3577 20.313H12.1239C11.4386 20.313 10.883 19.7343 10.883 19.0204C10.883 18.3065 11.4386 17.7278 12.1239 17.7278H15.3577C16.8186 17.7715 18.1869 16.9846 18.9297 15.6735C19.6725 14.3624 19.6725 12.7343 18.9297 11.4232C18.1869 10.1121 16.8186 9.32523 15.3577 9.36894H7.90403C7.7898 9.36894 7.69721 9.46539 7.69721 9.58437V12.2833C7.69714 12.6318 7.49558 12.9459 7.1865 13.0793C6.87742 13.2126 6.52166 13.139 6.28507 12.8926L2.24221 8.68213C1.91926 8.34563 1.91926 7.80015 2.24221 7.46364L6.28507 3.25233C6.52166 3.00596 6.87742 2.93227 7.1865 3.06561C7.49558 3.19896 7.69714 3.5131 7.69721 3.86158V6.56485C7.69721 6.68383 7.7898 6.78028 7.90403 6.78028H15.3577C17.7127 6.7249 19.912 8.00198 21.1051 10.1177C22.2983 12.2335 22.2983 14.8563 21.1051 16.9721C19.912 19.0878 17.7127 20.3649 15.3577 20.3095V20.313Z" fill="#161616"/>
</svg>
