<svg width="24" height="24" viewBox="0 0 24 24" fill="none" xmlns="http://www.w3.org/2000/svg">
<path d="M18.5009 12C18.5016 12.5527 18.2642 13.0789 17.8494 13.4442L8.53442 21.639C7.89244 22.1777 6.93782 22.1054 6.38434 21.4761C5.83086 20.8468 5.88097 19.8908 6.49719 19.3228L14.6428 12.157C14.688 12.1174 14.7139 12.0602 14.7139 12C14.7139 11.9398 14.688 11.8826 14.6428 11.843L6.49719 4.67717C5.88097 4.1092 5.83086 3.15316 6.38434 2.52388C6.93782 1.89461 7.89244 1.82227 8.53442 2.36096L17.846 10.5533C18.2618 10.9192 18.5004 11.4461 18.5009 12Z" fill="#161616"/>
</svg>
