<svg width="24" height="24" viewBox="0 0 24 24" fill="none" xmlns="http://www.w3.org/2000/svg">
<path fill-rule="evenodd" clip-rule="evenodd" d="M12 4C16.4183 4 20 7.58172 20 12C19.9952 16.4163 16.4163 19.9952 12 20C7.58172 20 4 16.4183 4 12C4 7.58172 7.58172 4 12 4ZM9.23943 11.4642C9.08699 11.5985 8.99975 11.7919 9 11.995C9.00019 12.1985 9.08785 12.3922 9.24066 12.5266L12.6627 15.5373C12.8986 15.7353 13.2494 15.7087 13.4528 15.4775C13.6562 15.2462 13.6378 14.8949 13.4114 14.6861L10.4179 12.0527C10.4012 12.0381 10.3917 12.0171 10.3917 11.995C10.3917 11.9729 10.4012 11.9518 10.4179 11.9373L13.4114 9.30384C13.6378 9.09511 13.6562 8.74377 13.4528 8.51251C13.2494 8.28125 12.8986 8.25467 12.6627 8.45264L9.23943 11.4642Z" fill="#161616"/>
</svg>
