<svg width="24" height="24" viewBox="0 0 24 24" fill="none" xmlns="http://www.w3.org/2000/svg">
<path fill-rule="evenodd" clip-rule="evenodd" d="M21.5935 13.467C21.0967 13.8966 20.3395 13.8492 19.9021 13.3612L13.5842 6.30749C13.5255 6.24305 13.4324 6.22076 13.3501 6.25141C13.2678 6.28207 13.2131 6.35934 13.2126 6.44583V20.8233C13.2126 21.4732 12.6764 22 12.0149 22C11.3534 22 10.8171 21.4732 10.8171 20.8233V6.44583C10.8166 6.35934 10.762 6.28207 10.6797 6.25141C10.5974 6.22076 10.5043 6.24305 10.4456 6.30749L4.126 13.3612C3.84816 13.6946 3.40719 13.8522 2.97625 13.7723C2.54531 13.6923 2.19321 13.3876 2.05822 12.9776C1.92323 12.5677 2.0269 12.1181 2.32852 11.8053L10.516 2.66646C10.8948 2.24284 11.4409 2 12.0149 2C12.5888 2 13.135 2.24284 13.5138 2.66646L21.7013 11.8061C21.9112 12.0404 22.0178 12.347 21.9976 12.6585C21.9774 12.97 21.832 13.2608 21.5935 13.467Z" fill="#161616"/>
</svg>
