<svg width="24" height="24" viewBox="0 0 24 24" fill="none" xmlns="http://www.w3.org/2000/svg">
<path fill-rule="evenodd" clip-rule="evenodd" d="M12 18C15.3137 18 18 15.3137 18 12C18 8.68629 15.3137 6 12 6C8.68629 6 6 8.68629 6 12C6.00358 15.3122 8.68778 17.9964 12 18ZM9.3965 11.1455L11.6465 8.89549C11.8417 8.7003 12.1582 8.7003 12.3535 8.89549L14.6035 11.1455C14.7335 11.271 14.7856 11.4569 14.7398 11.6317C14.6941 11.8066 14.5576 11.9431 14.3827 11.9888C14.2079 12.0346 14.022 11.9825 13.8965 11.8525L12.7135 10.669C12.6777 10.6331 12.6239 10.6224 12.5771 10.6418C12.5304 10.6612 12.4999 10.7069 12.5 10.7575V15C12.5 15.2761 12.2761 15.5 12 15.5C11.7239 15.5 11.5 15.2761 11.5 15V10.7575C11.5001 10.7069 11.4696 10.6612 11.4229 10.6418C11.3761 10.6224 11.3222 10.6331 11.2865 10.669L10.1035 11.8525C9.97796 11.9825 9.79206 12.0346 9.61724 11.9888C9.44243 11.9431 9.3059 11.8066 9.26015 11.6317C9.21439 11.4569 9.26652 11.271 9.3965 11.1455Z" fill="#161616"/>
</svg>
