<svg width="24" height="24" viewBox="0 0 24 24" fill="none" xmlns="http://www.w3.org/2000/svg">
<path fill-rule="evenodd" clip-rule="evenodd" d="M12 20C16.4183 20 20 16.4183 20 12C20 7.58172 16.4183 4 12 4C7.58172 4 4 7.58172 4 12C4.00478 16.4163 7.5837 19.9952 12 20ZM8.52866 10.8607L11.5287 7.86067C11.789 7.60041 12.211 7.60041 12.4713 7.86067L15.4713 10.8607C15.6446 11.0281 15.7141 11.2759 15.6531 11.509C15.5921 11.7421 15.4101 11.9241 15.177 11.9851C14.9439 12.0461 14.696 11.9766 14.5287 11.8033L12.9513 10.2253C12.9037 10.1775 12.8319 10.1632 12.7695 10.1891C12.7072 10.2149 12.6665 10.2758 12.6667 10.3433V16C12.6667 16.3682 12.3682 16.6667 12 16.6667C11.6318 16.6667 11.3333 16.3682 11.3333 16V10.3433C11.3335 10.2758 11.2928 10.2149 11.2305 10.1891C11.1681 10.1632 11.0963 10.1775 11.0487 10.2253L9.47133 11.8033C9.30395 11.9766 9.05608 12.0461 8.82299 11.9851C8.58991 11.9241 8.40788 11.7421 8.34687 11.509C8.28586 11.2759 8.35536 11.0281 8.52866 10.8607Z" fill="#161616"/>
</svg>
