<svg width="24" height="24" viewBox="0 0 24 24" fill="none" xmlns="http://www.w3.org/2000/svg">
<path d="M12.2504 18.2504C11.6977 18.2511 11.1715 18.0137 10.8063 17.5989L2.61141 8.28398C2.07271 7.642 2.14505 6.68738 2.77433 6.1339C3.4036 5.58042 4.35964 5.63052 4.92761 6.24675L12.0934 14.3923C12.1331 14.4376 12.1903 14.4635 12.2504 14.4635C12.3106 14.4635 12.3678 14.4376 12.4075 14.3923L19.5733 6.24675C20.1412 5.63052 21.0973 5.58042 21.7266 6.1339C22.3558 6.68738 22.4282 7.642 21.8895 8.28398L13.6971 17.5956C13.3312 18.0114 12.8043 18.2499 12.2504 18.2504Z" fill="#161616"/>
</svg>
