<svg width="24" height="24" viewBox="0 0 24 24" fill="none" xmlns="http://www.w3.org/2000/svg">
<path fill-rule="evenodd" clip-rule="evenodd" d="M13.1736 4.32517C13.5173 4.72266 13.4794 5.32844 13.089 5.67833L7.44599 10.7327C7.39444 10.7796 7.37661 10.8541 7.40113 10.9199C7.42565 10.9858 7.48747 11.0295 7.55666 11.0299H19.0586C19.5785 11.0299 20 11.4589 20 11.9881C20 12.5173 19.5785 12.9463 19.0586 12.9463H7.55666C7.48747 12.9467 7.42565 12.9904 7.40113 13.0563C7.37661 13.1221 7.39444 13.1965 7.44599 13.2435L13.089 18.2992C13.3556 18.5215 13.4818 18.8743 13.4178 19.219C13.3539 19.5638 13.1101 19.8454 12.7821 19.9534C12.4542 20.0614 12.0944 19.9785 11.8442 19.7372L4.53317 13.1872C4.19427 12.8842 4 12.4472 4 11.9881C4 11.5289 4.19427 11.092 4.53317 10.789L11.8449 4.23899C12.0323 4.07105 12.2776 3.98578 12.5268 4.00194C12.776 4.0181 13.0087 4.13438 13.1736 4.32517Z" fill="#161616"/>
</svg>
