<svg width="24" height="24" viewBox="0 0 24 24" fill="none" xmlns="http://www.w3.org/2000/svg">
<path fill-rule="evenodd" clip-rule="evenodd" d="M12 6C8.68629 6 6 8.68629 6 12C6.00358 15.3122 8.68778 17.9964 12 18C15.3137 18 18 15.3137 18 12C18 8.68629 15.3137 6 12 6ZM14.0705 11.6071C14.1848 11.7078 14.2502 11.8527 14.25 12.005C14.2499 12.1576 14.1841 12.3028 14.0696 12.4036L11.5042 14.6606C11.3274 14.809 11.0644 14.789 10.9119 14.6157C10.7594 14.4423 10.7732 14.1789 10.943 14.0224L13.1871 12.0483C13.1995 12.0373 13.2067 12.0216 13.2067 12.005C13.2067 11.9884 13.1995 11.9727 13.1871 11.9617L10.943 9.98757C10.7732 9.83109 10.7594 9.56771 10.9119 9.39434C11.0644 9.22097 11.3274 9.20105 11.5042 9.34946L14.0705 11.6071Z" fill="#161616"/>
</svg>
