<svg width="24" height="24" viewBox="0 0 24 24" fill="none" xmlns="http://www.w3.org/2000/svg">
<path fill-rule="evenodd" clip-rule="evenodd" d="M9.98538 17H11.9257C12.3368 17 12.6702 16.6528 12.6702 16.2244C12.6702 15.7961 12.3368 15.4489 11.9257 15.4489H9.98538C9.10883 15.4751 8.28788 15.003 7.84218 14.2163C7.39647 13.4296 7.39647 12.4528 7.84218 11.6661C8.28788 10.8795 9.10883 10.4073 9.98538 10.4336H14.4576C14.5261 10.4336 14.5817 10.4914 14.5817 10.5628V12.1822C14.5817 12.3913 14.7027 12.5798 14.8881 12.6598C15.0735 12.7398 15.287 12.6956 15.429 12.5478L17.8547 10.0215C18.0484 9.81958 18.0484 9.49229 17.8547 9.29039L15.429 6.76361C15.287 6.61578 15.0735 6.57157 14.8881 6.65158C14.7027 6.73158 14.5817 6.92007 14.5817 7.12916V8.75112C14.5817 8.8225 14.5261 8.88038 14.4576 8.88038H9.98538C8.57235 8.84715 7.25279 9.6134 6.53691 10.8829C5.82103 12.1523 5.82103 13.726 6.53691 14.9955C7.25279 16.2649 8.57235 17.0312 9.98538 16.9979V17Z" fill="#161616"/>
</svg>
