<svg width="24" height="24" viewBox="0 0 24 24" fill="none" xmlns="http://www.w3.org/2000/svg">
<path d="M8.49948 12C8.49907 11.6684 8.64151 11.3526 8.89039 11.1335L14.4794 6.21658C14.8645 5.89336 15.4373 5.93676 15.7694 6.31433C16.1015 6.6919 16.0714 7.26552 15.7017 7.6063L10.8144 11.9058C10.7872 11.9296 10.7717 11.9639 10.7717 12C10.7717 12.0361 10.7872 12.0704 10.8144 12.0942L15.7017 16.3937C16.0714 16.7345 16.1015 17.3081 15.7694 17.6857C15.4373 18.0632 14.8645 18.1066 14.4794 17.7834L8.89239 12.868C8.64291 12.6485 8.4998 12.3323 8.49948 12Z" fill="#161616"/>
</svg>
