<svg width="24" height="24" viewBox="0 0 24 24" fill="none" xmlns="http://www.w3.org/2000/svg">
<path d="M11.7503 15.7503C11.4187 15.7507 11.1029 15.6082 10.8838 15.3594L5.96685 9.77039C5.64364 9.3852 5.68704 8.81243 6.0646 8.48034C6.44217 8.14825 7.01579 8.17831 7.35658 8.54805L11.6561 13.4354C11.6798 13.4625 11.7142 13.4781 11.7503 13.4781C11.7864 13.4781 11.8207 13.4625 11.8445 13.4354L16.144 8.54805C16.4848 8.17831 17.0584 8.14825 17.4359 8.48034C17.8135 8.81243 17.8569 9.3852 17.5337 9.77039L12.6183 15.3574C12.3988 15.6068 12.0826 15.7499 11.7503 15.7503Z" fill="#161616"/>
</svg>
