<svg width="24" height="24" viewBox="0 0 24 24" fill="none" xmlns="http://www.w3.org/2000/svg">
<path fill-rule="evenodd" clip-rule="evenodd" d="M12 6C15.3137 6 18 8.68629 18 12C17.9964 15.3122 15.3122 17.9964 12 18C8.68629 18 6 15.3137 6 12C6 8.68629 8.68629 6 12 6ZM9.92949 11.6071C9.81521 11.7078 9.74981 11.8527 9.75 12.005C9.75015 12.1576 9.81586 12.3028 9.93041 12.4036L12.4958 14.6606C12.6726 14.809 12.9356 14.789 13.0881 14.6157C13.2406 14.4423 13.2268 14.1789 13.057 14.0224L10.8129 12.0483C10.8005 12.0373 10.7933 12.0216 10.7933 12.005C10.7933 11.9884 10.8005 11.9727 10.8129 11.9617L13.057 9.98757C13.2268 9.83109 13.2406 9.56771 13.0881 9.39434C12.9356 9.22097 12.6726 9.20105 12.4958 9.34946L9.92949 11.6071Z" fill="#161616"/>
</svg>
