<svg width="24" height="24" viewBox="0 0 24 24" fill="none" xmlns="http://www.w3.org/2000/svg">
<path fill-rule="evenodd" clip-rule="evenodd" d="M10.8264 19.6748C10.4827 19.2773 10.5206 18.6716 10.911 18.3217L16.554 13.2673C16.6056 13.2204 16.6234 13.1459 16.5989 13.0801C16.5743 13.0142 16.5125 12.9705 16.4433 12.9701H4.94138C4.42147 12.9701 4 12.5411 4 12.0119C4 11.4827 4.42147 11.0537 4.94138 11.0537H16.4433C16.5125 11.0533 16.5743 11.0096 16.5989 10.9437C16.6234 10.8779 16.6056 10.8035 16.554 10.7565L10.911 5.7008C10.6444 5.47853 10.5182 5.12575 10.5822 4.781C10.6461 4.43625 10.8899 4.15457 11.2179 4.04658C11.5458 3.93858 11.9056 4.02152 12.1558 4.26282L19.4668 10.8128C19.8057 11.1158 20 11.5528 20 12.0119C20 12.4711 19.8057 12.908 19.4668 13.211L12.1551 19.761C11.9677 19.929 11.7224 20.0142 11.4732 19.9981C11.224 19.9819 10.9913 19.8656 10.8264 19.6748Z" fill="#161616"/>
</svg>
