<svg width="24" height="24" viewBox="0 0 24 24" fill="none" xmlns="http://www.w3.org/2000/svg">
<path d="M6 12C5.99932 11.4473 6.23671 10.9211 6.65151 10.5558L15.9665 2.36096C16.6084 1.82227 17.5631 1.89461 18.1165 2.52388C18.67 3.15316 18.6199 4.1092 18.0037 4.67717L9.85812 11.843C9.81289 11.8826 9.78695 11.9398 9.78695 12C9.78695 12.0602 9.81289 12.1174 9.85812 12.157L18.0037 19.3228C18.6199 19.8908 18.67 20.8468 18.1165 21.4761C17.5631 22.1054 16.6084 22.1777 15.9665 21.639L6.65485 13.4467C6.23905 13.0808 6.00053 12.5539 6 12Z" fill="#161616"/>
</svg>
