<svg width="24" height="24" viewBox="0 0 24 24" fill="none" xmlns="http://www.w3.org/2000/svg">
<path fill-rule="evenodd" clip-rule="evenodd" d="M12 4C7.58172 4 4 7.58172 4 12C4.00478 16.4163 7.5837 19.9952 12 20C16.4183 20 20 16.4183 20 12C20 7.58172 16.4183 4 12 4ZM14.7606 11.4642C14.913 11.5985 15.0003 11.7919 15 11.995C14.9998 12.1985 14.9122 12.3922 14.7593 12.5266L11.3373 15.5373C11.1014 15.7353 10.7506 15.7087 10.5472 15.4775C10.3438 15.2462 10.3622 14.8949 10.5886 14.6861L13.5821 12.0527C13.5988 12.0381 13.6083 12.0171 13.6083 11.995C13.6083 11.9729 13.5988 11.9518 13.5821 11.9373L10.5886 9.30384C10.3622 9.09511 10.3438 8.74377 10.5472 8.51251C10.7506 8.28125 11.1014 8.25467 11.3373 8.45264L14.7606 11.4642Z" fill="#161616"/>
</svg>
