<svg width="24" height="24" viewBox="0 0 24 24" fill="none" xmlns="http://www.w3.org/2000/svg">
<path fill-rule="evenodd" clip-rule="evenodd" d="M22 8.22197C22.0003 7.80799 21.7956 7.42074 21.4533 7.18781L15.62 3.22031C15.1994 2.93221 14.6455 2.9299 14.2225 3.21447L14.2067 3.22531L9.34667 6.80031C9.19989 6.90812 9.00011 6.90812 8.85333 6.80031L3.98917 3.24197C3.60915 2.96331 3.10471 2.92205 2.68445 3.13526C2.2642 3.34847 1.99957 3.7799 2 4.25114V16.5303C1.99973 16.9443 2.20444 17.3315 2.54667 17.5645L8.38 21.532C8.80095 21.8181 9.35334 21.8204 9.77667 21.5378L9.7925 21.5261L14.6525 17.952C14.7993 17.8442 14.9991 17.8442 15.1458 17.952L20.01 21.5103C20.39 21.7895 20.8948 21.831 21.3154 21.6177C21.7359 21.4045 22.0007 20.9727 22 20.5011V8.22197ZM9.91667 8.65114C9.91667 8.51999 9.97841 8.39649 10.0833 8.31781L13.75 5.57531C13.8131 5.52796 13.8976 5.52034 13.9682 5.55563C14.0387 5.59092 14.0833 5.66306 14.0833 5.74197V16.1011C14.0833 16.2323 14.0216 16.3558 13.9167 16.4345L10.25 19.1778C10.1869 19.2252 10.1024 19.2328 10.0318 19.1975C9.96125 19.1622 9.91667 19.09 9.91667 19.0111V8.65114ZM3.66667 5.48197C3.66667 5.40306 3.71125 5.33092 3.78183 5.29563C3.85241 5.26034 3.93687 5.26796 4 5.31531L8.08333 8.29864C8.18982 8.37645 8.25319 8.50009 8.25417 8.63197V19.0336C8.25437 19.1109 8.21167 19.1818 8.14333 19.2178C8.07497 19.2537 7.9924 19.2493 7.92833 19.2061L3.85333 16.4336C3.73773 16.3571 3.66776 16.2281 3.66667 16.0895V5.48197ZM20.3333 19.2695C20.3333 19.3484 20.2887 19.4205 20.2182 19.4558C20.1476 19.4911 20.0631 19.4835 20 19.4361L15.9167 16.4511C15.8117 16.3724 15.75 16.249 15.75 16.1178V5.71864C15.7498 5.64141 15.7925 5.57045 15.8608 5.53447C15.9292 5.49853 16.0118 5.50301 16.0758 5.54614L20.1508 8.31781C20.2651 8.39544 20.3335 8.52466 20.3333 8.66281V19.2695Z" fill="#161616"/>
</svg>
