<svg width="24" height="24" viewBox="0 0 24 24" fill="none" xmlns="http://www.w3.org/2000/svg">
<path fill-rule="evenodd" clip-rule="evenodd" d="M20 8.17758C20.0002 7.8464 19.8364 7.53659 19.5627 7.35024L14.896 4.17624C14.5595 3.94577 14.1164 3.94392 13.778 4.17158L13.7653 4.18024L9.87733 7.04024C9.75991 7.12649 9.60009 7.12649 9.48267 7.04024L5.59133 4.19358C5.28732 3.97065 4.88376 3.93764 4.54756 4.10821C4.21136 4.27877 3.99966 4.62392 4 5.00091V14.8242C3.99979 15.1554 4.16355 15.4652 4.43733 15.6516L9.104 18.8256C9.44076 19.0545 9.88267 19.0563 10.2213 18.8302L10.234 18.8209L14.122 15.9616C14.2394 15.8753 14.3992 15.8753 14.5167 15.9616L18.408 18.8082C18.712 19.0316 19.1158 19.0648 19.4523 18.8942C19.7887 18.7236 20.0005 18.3781 20 18.0009V8.17758ZM10.3333 8.52091C10.3333 8.41599 10.3827 8.31719 10.4667 8.25424L13.4 6.06024C13.4505 6.02236 13.5181 6.01627 13.5746 6.0445C13.631 6.07273 13.6667 6.13044 13.6667 6.19357V14.4809C13.6667 14.5858 13.6173 14.6846 13.5333 14.7476L10.6 16.9422C10.5495 16.9801 10.4819 16.9862 10.4255 16.958C10.369 16.9297 10.3333 16.872 10.3333 16.8089V8.52091ZM5.33335 5.98556C5.33335 5.92244 5.36902 5.86472 5.42548 5.83649C5.48194 5.80826 5.54951 5.81435 5.60002 5.85223L8.86668 8.2389C8.95188 8.30115 9.00257 8.40005 9.00335 8.50556V16.8269C9.00352 16.8887 8.96935 16.9454 8.91468 16.9742C8.86 17.003 8.79394 16.9994 8.74268 16.9649L5.48268 14.7469C5.3902 14.6857 5.33422 14.5825 5.33335 14.4716V5.98556ZM18.6667 17.0156C18.6667 17.0787 18.631 17.1364 18.5745 17.1646C18.5181 17.1929 18.4505 17.1868 18.4 17.1489L15.1333 14.7609C15.0494 14.6979 15 14.5991 15 14.4942V6.17489C14.9998 6.1131 15.034 6.05634 15.0887 6.02755C15.1434 5.9988 15.2094 6.00238 15.2607 6.03689L18.5207 8.25422C18.6121 8.31633 18.6668 8.41971 18.6667 8.53022V17.0156Z" fill="#161616"/>
</svg>
