<svg width="24" height="24" viewBox="0 0 24 24" fill="none" xmlns="http://www.w3.org/2000/svg">
<path fill-rule="evenodd" clip-rule="evenodd" d="M18 9.13318C18.0002 8.8848 17.8773 8.65244 17.672 8.51268L14.172 6.13218C13.9196 5.95933 13.5873 5.95794 13.3335 6.12868L13.324 6.13518L10.408 8.28018C10.3199 8.34487 10.2001 8.34487 10.112 8.28018L7.1935 6.14518C6.96549 5.97799 6.66282 5.95323 6.41067 6.08116C6.15852 6.20908 5.99974 6.46794 6 6.75068V14.1182C5.99984 14.3666 6.12266 14.5989 6.328 14.7387L9.828 17.1192C10.0806 17.2909 10.412 17.2922 10.666 17.1227L10.6755 17.1157L13.5915 14.9712C13.6796 14.9065 13.7994 14.9065 13.8875 14.9712L16.806 17.1062C17.034 17.2737 17.3369 17.2986 17.5892 17.1706C17.8415 17.0427 18.0004 16.7836 18 16.5007V9.13318ZM10.75 9.39068C10.75 9.31199 10.787 9.23789 10.85 9.19068L13.05 7.54518C13.0879 7.51677 13.1385 7.5122 13.1809 7.53338C13.2232 7.55455 13.25 7.59783 13.25 7.64518V13.8607C13.25 13.9394 13.2129 14.0135 13.15 14.0607L10.95 15.7067C10.9121 15.7351 10.8614 15.7397 10.8191 15.7185C10.7767 15.6973 10.75 15.654 10.75 15.6067V9.39068ZM6.99998 7.48917C6.99998 7.44183 7.02673 7.39854 7.06907 7.37737C7.11142 7.3562 7.1621 7.36077 7.19998 7.38917L9.64998 9.17917C9.71387 9.22586 9.75189 9.30004 9.75248 9.37917V15.6202C9.7526 15.6665 9.72698 15.7091 9.68598 15.7307C9.64496 15.7522 9.59542 15.7495 9.55698 15.7237L7.11198 14.0602C7.04261 14.0143 7.00063 13.9369 6.99998 13.8537V7.48917ZM17 15.7617C17 15.809 16.9733 15.8523 16.9309 15.8735C16.8886 15.8946 16.8379 15.8901 16.8 15.8617L14.35 14.0707C14.287 14.0235 14.25 13.9494 14.25 13.8707V7.63117C14.2499 7.58483 14.2755 7.54225 14.3165 7.52067C14.3575 7.4991 14.4071 7.50179 14.4455 7.52767L16.8905 9.19067C16.9591 9.23725 17.0001 9.31478 17 9.39767V15.7617Z" fill="#161616"/>
</svg>
