<svg width="24" height="24" viewBox="0 0 24 24" fill="none" xmlns="http://www.w3.org/2000/svg">
<path fill-rule="evenodd" clip-rule="evenodd" d="M11.7502 6C9.12798 6.00303 7.00303 8.12798 7 10.7502C7 14.0238 10.2691 16.9944 11.2706 17.8269C11.5485 18.0577 11.9513 18.0577 12.2292 17.8269C13.2292 16.9944 16.5003 14.0228 16.5003 10.7497C16.497 8.12767 14.3721 6.00303 11.7502 6ZM11.7502 13.2503C10.3694 13.2503 9.25009 12.1309 9.25009 10.7502C9.25009 9.36942 10.3694 8.25009 11.7502 8.25009C13.1309 8.25009 14.2503 9.36942 14.2503 10.7502C14.2503 11.4132 13.9869 12.0491 13.518 12.518C13.0491 12.9869 12.4132 13.2503 11.7502 13.2503Z" fill="#161616"/>
</svg>
