<svg width="24" height="24" viewBox="0 0 24 24" fill="none" xmlns="http://www.w3.org/2000/svg">
<path fill-rule="evenodd" clip-rule="evenodd" d="M12 4C8.41187 4.00404 5.50415 6.8373 5.5 10.3335C5.5 14.6984 9.97337 18.6592 11.3438 19.7692C11.724 20.0769 12.2753 20.0769 12.6555 19.7692C14.0239 18.6592 18.5 14.697 18.5 10.3329C18.4955 6.83689 15.5879 4.00404 12 4ZM12 13.667C10.1106 13.667 8.57898 12.1746 8.57898 10.3336C8.57898 8.49257 10.1106 7.00013 12 7.00013C13.8894 7.00013 15.4211 8.49257 15.4211 10.3336C15.4211 11.2177 15.0607 12.0655 14.4191 12.6907C13.7775 13.3158 12.9074 13.667 12 13.667Z" fill="#161616"/>
</svg>
