<svg width="24" height="24" viewBox="0 0 24 24" fill="none" xmlns="http://www.w3.org/2000/svg">
<path fill-rule="evenodd" clip-rule="evenodd" d="M12 2C7.58384 2.00505 4.0051 5.54648 4 9.91661C4 15.3724 9.50568 20.3232 11.1924 21.7107C11.6603 22.0954 12.3388 22.0954 12.8067 21.7107C14.4909 20.3232 20 15.3707 20 9.91578C19.9944 5.54597 16.4158 2.00505 12 2ZM12 14.0833C9.67462 14.0833 7.7895 12.2178 7.7895 9.91664C7.7895 7.61547 9.67462 5.75 12 5.75C14.3254 5.75 16.2106 7.61547 16.2106 9.91664C16.2106 11.0217 15.7669 12.0815 14.9773 12.8629C14.1877 13.6443 13.1167 14.0833 12 14.0833Z" fill="#161616"/>
</svg>
