<svg width="24" height="24" viewBox="0 0 24 24" fill="none" xmlns="http://www.w3.org/2000/svg">
<path fill-rule="evenodd" clip-rule="evenodd" d="M3.66667 2H20.3333C20.7754 2 21.1993 2.17559 21.5118 2.48816C21.8244 2.80072 22 3.22464 22 3.66667V20.3333C22 20.7754 21.8244 21.1993 21.5118 21.5118C21.1993 21.8244 20.7754 22 20.3333 22H3.66667C3.22464 22 2.80072 21.8244 2.48816 21.5118C2.17559 21.1993 2 20.7754 2 20.3333V3.66667C2 3.22464 2.17559 2.80072 2.48816 2.48816C2.80072 2.17559 3.22464 2 3.66667 2ZM20.228 3.72769C20.1889 3.68862 20.1359 3.66667 20.0807 3.66667H4.08333C3.97283 3.66667 3.86685 3.71057 3.78871 3.78871C3.71057 3.86685 3.66667 3.97283 3.66667 4.08333V10.9417C3.66667 10.9969 3.68862 11.0499 3.72769 11.089C3.76676 11.128 3.81975 11.15 3.875 11.15H20.0807C20.1359 11.15 20.1889 11.128 20.228 11.089C20.267 11.0499 20.289 10.9969 20.289 10.9417V3.875C20.289 3.81975 20.267 3.76676 20.228 3.72769ZM3.73328 12.8883C3.69465 12.9239 3.67087 12.9727 3.66667 13.025V19.9333C3.66667 20.0438 3.71057 20.1498 3.78871 20.228C3.86685 20.3061 3.97283 20.35 4.08333 20.35H20.0807C20.1359 20.35 20.1889 20.3281 20.228 20.289C20.267 20.2499 20.289 20.1969 20.289 20.1417V13.0417C20.289 12.9864 20.267 12.9334 20.228 12.8944C20.1889 12.8553 20.1359 12.8333 20.0807 12.8333H3.875C3.82252 12.8332 3.7719 12.8528 3.73328 12.8883ZM14.1465 7.88775H15.3V9.04739C15.3 9.21884 15.3732 9.38327 15.5033 9.5045C15.6334 9.62574 15.8099 9.69385 15.9939 9.69385C16.178 9.69385 16.3544 9.62574 16.4846 9.5045C16.6147 9.38327 16.6878 9.21884 16.6878 9.04739V7.88775H17.8535C18.0249 7.88775 18.1894 7.81465 18.3106 7.68452C18.4318 7.55439 18.4999 7.3779 18.4999 7.19387C18.4999 7.00985 18.4318 6.83336 18.3106 6.70323C18.1894 6.5731 18.0249 6.5 17.8535 6.5H16.6878V5.34037C16.6878 5.16892 16.6147 5.00449 16.4846 4.88325C16.3544 4.76201 16.178 4.69391 15.9939 4.69391C15.8099 4.69391 15.6334 4.76201 15.5033 4.88325C15.3732 5.00449 15.3 5.16892 15.3 5.34037V6.5H14.1465C13.975 6.5 13.8106 6.5731 13.6893 6.70323C13.5681 6.83336 13.5 7.00985 13.5 7.19387C13.5 7.3779 13.5681 7.55439 13.6893 7.68452C13.8106 7.81465 13.975 7.88775 14.1465 7.88775ZM14.1465 17.1878H17.8535C18.0249 17.1878 18.1894 17.1147 18.3106 16.9846C18.4318 16.8544 18.4999 16.678 18.4999 16.4939C18.4999 16.3099 18.4318 16.1334 18.3106 16.0033C18.1894 15.8732 18.0249 15.8 17.8535 15.8H14.1465C13.975 15.8 13.8106 15.8732 13.6893 16.0033C13.5681 16.1334 13.5 16.3099 13.5 16.4939C13.5 16.678 13.5681 16.8544 13.6893 16.9846C13.8106 17.1147 13.975 17.1878 14.1465 17.1878Z" fill="black"/>
</svg>
