<svg width="24" height="24" viewBox="0 0 24 24" fill="none" xmlns="http://www.w3.org/2000/svg">
<path fill-rule="evenodd" clip-rule="evenodd" d="M5.33333 4H18.6667C19.0203 4 19.3594 4.14048 19.6095 4.39052C19.8595 4.64057 20 4.97971 20 5.33333V18.6667C20 19.0203 19.8595 19.3594 19.6095 19.6095C19.3594 19.8595 19.0203 20 18.6667 20H5.33333C4.97971 20 4.64057 19.8595 4.39052 19.6095C4.14048 19.3594 4 19.0203 4 18.6667V5.33333C4 4.97971 4.14048 4.64057 4.39052 4.39052C4.64057 4.14048 4.97971 4 5.33333 4ZM18.5824 5.38215C18.5511 5.35089 18.5087 5.33333 18.4645 5.33333H5.66667C5.57826 5.33333 5.49348 5.36845 5.43096 5.43096C5.36845 5.49348 5.33333 5.57826 5.33333 5.66667V11.1533C5.33333 11.1975 5.35089 11.2399 5.38215 11.2712C5.4134 11.3024 5.4558 11.32 5.5 11.32H18.4645C18.5087 11.32 18.5511 11.3024 18.5824 11.2712C18.6136 11.2399 18.6312 11.1975 18.6312 11.1533V5.5C18.6312 5.4558 18.6136 5.4134 18.5824 5.38215ZM5.38662 12.7107C5.35572 12.7391 5.33669 12.7781 5.33333 12.82V18.3467C5.33333 18.4351 5.36845 18.5199 5.43096 18.5824C5.49348 18.6449 5.57826 18.68 5.66667 18.68H18.4645C18.5087 18.68 18.5511 18.6624 18.5824 18.6312C18.6136 18.5999 18.6312 18.5575 18.6312 18.5133V12.8333C18.6312 12.7891 18.6136 12.7467 18.5824 12.7155C18.5511 12.6842 18.5087 12.6667 18.4645 12.6667H5.5C5.45801 12.6665 5.41752 12.6823 5.38662 12.7107ZM13.7172 8.7102H14.64V9.63791C14.64 9.77507 14.6985 9.90661 14.8026 10.0036C14.9067 10.1006 15.0479 10.1551 15.1951 10.1551C15.3424 10.1551 15.4836 10.1006 15.5877 10.0036C15.6918 9.90661 15.7502 9.77507 15.7502 9.63791V8.7102H16.6828C16.8199 8.7102 16.9515 8.65172 17.0485 8.54761C17.1455 8.44351 17.2 8.30232 17.2 8.1551C17.2 8.00788 17.1455 7.86669 17.0485 7.76258C16.9515 7.65848 16.8199 7.6 16.6828 7.6H15.7502V6.6723C15.7502 6.53513 15.6918 6.40359 15.5877 6.3066C15.4836 6.20961 15.3424 6.15513 15.1951 6.15513C15.0479 6.15513 14.9067 6.20961 14.8026 6.3066C14.6985 6.40359 14.64 6.53513 14.64 6.6723V7.6H13.7172C13.58 7.6 13.4485 7.65848 13.3515 7.76258C13.2545 7.86669 13.2 8.00788 13.2 8.1551C13.2 8.30232 13.2545 8.44351 13.3515 8.54761C13.4485 8.65172 13.58 8.7102 13.7172 8.7102ZM13.7172 16.1502H16.6828C16.8199 16.1502 16.9515 16.0918 17.0485 15.9877C17.1455 15.8836 17.2 15.7424 17.2 15.5951C17.2 15.4479 17.1455 15.3067 17.0485 15.2026C16.9515 15.0985 16.8199 15.04 16.6828 15.04H13.7172C13.58 15.04 13.4485 15.0985 13.3515 15.2026C13.2545 15.3067 13.2 15.4479 13.2 15.5951C13.2 15.7424 13.2545 15.8836 13.3515 15.9877C13.4485 16.0918 13.58 16.1502 13.7172 16.1502Z" fill="black"/>
</svg>
