<svg width="24" height="24" viewBox="0 0 24 24" fill="none" xmlns="http://www.w3.org/2000/svg">
<path fill-rule="evenodd" clip-rule="evenodd" d="M7 6H17C17.2652 6 17.5196 6.10536 17.7071 6.29289C17.8946 6.48043 18 6.73478 18 7V17C18 17.2652 17.8946 17.5196 17.7071 17.7071C17.5196 17.8946 17.2652 18 17 18H7C6.73478 18 6.48043 17.8946 6.29289 17.7071C6.10536 17.5196 6 17.2652 6 17V7C6 6.73478 6.10536 6.48043 6.29289 6.29289C6.48043 6.10536 6.73478 6 7 6ZM16.9368 7.03661C16.9133 7.01317 16.8815 7 16.8484 7H7.25C7.1837 7 7.12011 7.02634 7.07322 7.07322C7.02634 7.12011 7 7.1837 7 7.25V11.365C7 11.3982 7.01317 11.4299 7.03661 11.4534C7.06005 11.4768 7.09185 11.49 7.125 11.49H16.8484C16.8815 11.49 16.9133 11.4768 16.9368 11.4534C16.9602 11.4299 16.9734 11.3982 16.9734 11.365V7.125C16.9734 7.09185 16.9602 7.06005 16.9368 7.03661ZM7.03997 12.533C7.01679 12.5543 7.00252 12.5836 7 12.615V16.76C7 16.8263 7.02634 16.8899 7.07322 16.9368C7.12011 16.9837 7.1837 17.01 7.25 17.01H16.8484C16.8815 17.01 16.9133 16.9968 16.9368 16.9734C16.9602 16.9499 16.9734 16.9182 16.9734 16.885V12.625C16.9734 12.5918 16.9602 12.5601 16.9368 12.5366C16.9133 12.5132 16.8815 12.5 16.8484 12.5H7.125C7.09351 12.4999 7.06314 12.5117 7.03997 12.533ZM13.2878 9.53263H13.9801V10.2284C13.9801 10.3313 14.024 10.4299 14.102 10.5027C14.1801 10.5754 14.286 10.6163 14.3964 10.6163C14.5068 10.6163 14.6127 10.5754 14.6908 10.5027C14.7689 10.4299 14.8128 10.3313 14.8128 10.2284V9.53263H15.5121C15.6149 9.53263 15.7136 9.48877 15.7863 9.41069C15.8591 9.33262 15.8999 9.22672 15.8999 9.11631C15.8999 9.00589 15.8591 8.9 15.7863 8.82192C15.7136 8.74384 15.6149 8.69998 15.5121 8.69998H14.8128V8.00418C14.8128 7.90131 14.7689 7.80265 14.6908 7.72991C14.6127 7.65717 14.5068 7.61631 14.3964 7.61631C14.286 7.61631 14.1801 7.65717 14.102 7.72991C14.024 7.80265 13.9801 7.90131 13.9801 8.00418V8.69998H13.2878C13.185 8.69998 13.0863 8.74384 13.0136 8.82192C12.9408 8.9 12.9 9.00589 12.9 9.11631C12.9 9.22672 12.9408 9.33262 13.0136 9.41069C13.0863 9.48877 13.185 9.53263 13.2878 9.53263ZM13.2878 15.1127H15.5121C15.6149 15.1127 15.7136 15.0688 15.7863 14.9907C15.8591 14.9127 15.8999 14.8068 15.8999 14.6964C15.8999 14.5859 15.8591 14.48 15.7863 14.402C15.7136 14.3239 15.6149 14.28 15.5121 14.28H13.2878C13.185 14.28 13.0863 14.3239 13.0136 14.402C12.9408 14.48 12.9 14.5859 12.9 14.6964C12.9 14.8068 12.9408 14.9127 13.0136 14.9907C13.0863 15.0688 13.185 15.1127 13.2878 15.1127Z" fill="black"/>
</svg>
