<svg width="24" height="24" viewBox="0 0 24 24" fill="none" xmlns="http://www.w3.org/2000/svg">
<path fill-rule="evenodd" clip-rule="evenodd" d="M6 12C6 12.4142 6.33579 12.75 6.75 12.75H11.125C11.194 12.75 11.25 12.806 11.25 12.875V17.25C11.25 17.6642 11.5858 18 12 18C12.4142 18 12.75 17.6642 12.75 17.25V12.875C12.75 12.806 12.806 12.75 12.875 12.75H17.25C17.6642 12.75 18 12.4142 18 12C18 11.5858 17.6642 11.25 17.25 11.25H12.875C12.806 11.25 12.75 11.194 12.75 11.125V6.75C12.75 6.33579 12.4142 6 12 6C11.5858 6 11.25 6.33579 11.25 6.75V11.125C11.25 11.194 11.194 11.25 11.125 11.25H6.75C6.33579 11.25 6 11.5858 6 12Z" fill="#161616"/>
</svg>
