<svg width="24" height="24" viewBox="0 0 24 24" fill="none" xmlns="http://www.w3.org/2000/svg">
<path d="M16.9971 13.6206C17.0099 13.4924 16.9806 13.3635 16.9132 13.2517C16.8458 13.1398 16.7437 13.0504 16.6207 12.9957C16.4977 12.941 16.3598 12.9236 16.226 12.9459C16.0922 12.9682 15.9689 13.0292 15.873 13.1204L15.055 13.8957C15.0055 13.9422 14.9663 13.9975 14.9395 14.0585C14.9127 14.1194 14.8989 14.1848 14.8989 14.2508C14.8989 14.3169 14.9127 14.3822 14.9395 14.4432C14.9663 14.5041 15.0055 14.5595 15.055 14.606C15.152 14.6972 15.2825 14.7492 15.4191 14.751C15.4416 14.7508 15.4636 14.7563 15.4831 14.7668C15.5026 14.7774 15.5187 14.7926 15.53 14.811C15.5416 14.8291 15.5478 14.8499 15.5478 14.871C15.5478 14.8922 15.5416 14.913 15.53 14.9311C15.2658 15.4318 14.888 15.871 14.4235 16.2169C13.9591 16.5628 13.4196 16.807 12.8438 16.9318C12.8052 16.9387 12.7655 16.9378 12.7273 16.9292C12.6891 16.9205 12.6533 16.9044 12.6221 16.8818C12.5913 16.8583 12.5663 16.8286 12.549 16.7949C12.5317 16.7611 12.5224 16.7242 12.5218 16.6867V11.95C12.5218 11.8836 12.5496 11.82 12.5991 11.7731C12.6486 11.7262 12.7157 11.6999 12.7857 11.6999H14.3689C14.5089 11.6999 14.6431 11.6472 14.7421 11.5534C14.8411 11.4596 14.8967 11.3324 14.8967 11.1997C14.8967 11.067 14.8411 10.9398 14.7421 10.846C14.6431 10.7522 14.5089 10.6995 14.3689 10.6995H12.7857C12.7157 10.6995 12.6486 10.6732 12.5991 10.6263C12.5496 10.5794 12.5218 10.5158 12.5218 10.4494V9.60412C12.5214 9.55459 12.5368 9.5061 12.566 9.46502C12.5952 9.42395 12.6368 9.39223 12.6854 9.37403C13.083 9.22193 13.4124 8.94346 13.6171 8.58637C13.8218 8.22929 13.8891 7.81583 13.8073 7.4169C13.7256 7.01797 13.4999 6.65842 13.1691 6.3999C12.8383 6.14138 12.4229 6 11.9941 6C11.5653 6 11.1499 6.14138 10.8191 6.3999C10.4883 6.65842 10.2626 7.01797 10.1809 7.4169C10.0992 7.81583 10.1664 8.22929 10.3711 8.58637C10.5758 8.94346 10.9052 9.22193 11.3028 9.37403C11.3514 9.39223 11.393 9.42395 11.4222 9.46502C11.4514 9.5061 11.4668 9.55459 11.4664 9.60412V10.4494C11.4664 10.5158 11.4386 10.5794 11.3891 10.6263C11.3396 10.6732 11.2725 10.6995 11.2025 10.6995H9.61928C9.47932 10.6995 9.34509 10.7522 9.24612 10.846C9.14715 10.9398 9.09154 11.067 9.09154 11.1997C9.09154 11.3324 9.14715 11.4596 9.24612 11.5534C9.34509 11.6472 9.47932 11.6999 9.61928 11.6999H11.2025C11.2725 11.6999 11.3396 11.7262 11.3891 11.7731C11.4386 11.82 11.4664 11.8836 11.4664 11.95V16.6767C11.4658 16.7142 11.4565 16.7511 11.4392 16.7849C11.4219 16.8186 11.3969 16.8483 11.3661 16.8718C11.3349 16.8944 11.2991 16.9105 11.2609 16.9192C11.2227 16.9278 11.183 16.9287 11.1444 16.9218C10.5686 16.797 10.0291 16.5528 9.56466 16.2069C9.10022 15.861 8.72237 15.4218 8.45826 14.9211C8.4466 14.903 8.44043 14.8822 8.44043 14.861C8.44043 14.8399 8.4466 14.8191 8.45826 14.801C8.46947 14.7826 8.48564 14.7674 8.50511 14.7568C8.52458 14.7463 8.54666 14.7408 8.56908 14.741C8.7057 14.7391 8.83623 14.6872 8.93322 14.5959C8.98269 14.5494 9.02195 14.4941 9.04874 14.4332C9.07553 14.3722 9.08933 14.3068 9.08933 14.2408C9.08933 14.1748 9.07553 14.1094 9.04874 14.0485C9.02195 13.9875 8.98269 13.9322 8.93322 13.8857L8.12578 13.1304C8.02882 13.0419 7.90598 12.9831 7.77325 12.9617C7.64053 12.9403 7.50408 12.9572 7.38167 13.0104C7.26021 13.0646 7.15891 13.1524 7.09109 13.2622C7.02327 13.372 6.99211 13.4987 7.0017 13.6256C7.10182 14.8167 7.67176 15.9284 8.59796 16.7391C9.52416 17.5498 10.7386 18 11.9994 18C13.2601 18 14.4746 17.5498 15.4008 16.7391C16.327 15.9284 16.8969 14.8167 16.9971 13.6256V13.6206ZM11.2078 7.75844C11.2078 7.61005 11.2542 7.46499 11.3412 7.34161C11.4282 7.21823 11.5518 7.12207 11.6964 7.06528C11.8411 7.00849 12.0003 6.99363 12.1538 7.02258C12.3074 7.05153 12.4484 7.12299 12.5591 7.22792C12.6698 7.33285 12.7452 7.46653 12.7758 7.61207C12.8063 7.75761 12.7906 7.90847 12.7307 8.04556C12.6708 8.18266 12.5694 8.29983 12.4392 8.38227C12.309 8.46471 12.1559 8.50872 11.9994 8.50872C11.7894 8.50872 11.5881 8.42967 11.4396 8.28897C11.2912 8.14826 11.2078 7.95743 11.2078 7.75844Z" fill="#161616"/>
</svg>
