<svg width="24" height="24" viewBox="0 0 24 24" fill="none" xmlns="http://www.w3.org/2000/svg">
<path d="M19.9953 14.701C20.0158 14.4873 19.9689 14.2726 19.8611 14.0861C19.7534 13.8997 19.5899 13.7507 19.3931 13.6595C19.1963 13.5683 18.9757 13.5393 18.7616 13.5765C18.5475 13.6137 18.3502 13.7153 18.1968 13.8673L16.888 15.1595C16.8088 15.237 16.746 15.3292 16.7032 15.4308C16.6603 15.5324 16.6382 15.6413 16.6382 15.7514C16.6382 15.8614 16.6603 15.9704 16.7032 16.072C16.746 16.1736 16.8088 16.2658 16.888 16.3433C17.0432 16.4953 17.252 16.5819 17.4706 16.585C17.5065 16.5847 17.5418 16.5938 17.573 16.6114C17.6041 16.6289 17.63 16.6544 17.6479 16.685C17.6666 16.7152 17.6765 16.7498 17.6765 16.7851C17.6765 16.8204 17.6666 16.855 17.6479 16.8851C17.2253 17.7197 16.6208 18.4516 15.8777 19.0282C15.1346 19.6047 14.2713 20.0116 13.35 20.2197C13.2883 20.2311 13.2248 20.2296 13.1637 20.2153C13.1026 20.2009 13.0453 20.174 12.9954 20.1363C12.9461 20.0971 12.9061 20.0476 12.8784 19.9914C12.8507 19.9352 12.8358 19.8737 12.8349 19.8112V11.9166C12.8349 11.8061 12.8794 11.7001 12.9586 11.6219C13.0378 11.5437 13.1452 11.4998 13.2571 11.4998H15.7903C16.0142 11.4998 16.229 11.412 16.3874 11.2556C16.5457 11.0993 16.6347 10.8873 16.6347 10.6662C16.6347 10.4451 16.5457 10.233 16.3874 10.0767C16.229 9.92036 16.0142 9.83253 15.7903 9.83253H13.2571C13.1452 9.83253 13.0378 9.78862 12.9586 9.71045C12.8794 9.63228 12.8349 9.52626 12.8349 9.41571V8.00686C12.8342 7.92432 12.8588 7.84349 12.9056 7.77504C12.9523 7.70658 13.0189 7.65371 13.0967 7.62339C13.7329 7.36988 14.2599 6.90577 14.5874 6.31062C14.9149 5.71548 15.0225 5.02639 14.8917 4.3615C14.7609 3.69662 14.3999 3.09736 13.8706 2.6665C13.3413 2.23563 12.6766 2 11.9906 2C11.3045 2 10.6399 2.23563 10.1105 2.6665C9.58122 3.09736 9.22022 3.69662 9.08943 4.3615C8.95865 5.02639 9.06623 5.71548 9.39374 6.31062C9.72124 6.90577 10.2483 7.36988 10.8844 7.62339C10.9622 7.65371 11.0288 7.70658 11.0756 7.77504C11.1223 7.84349 11.1469 7.92432 11.1462 8.00686V9.41571C11.1462 9.52626 11.1017 9.63228 11.0225 9.71045C10.9434 9.78862 10.836 9.83253 10.724 9.83253H8.19085C7.96691 9.83253 7.75214 9.92036 7.59378 10.0767C7.43543 10.233 7.34647 10.4451 7.34647 10.6662C7.34647 10.8873 7.43543 11.0993 7.59378 11.2556C7.75214 11.412 7.96691 11.4998 8.19085 11.4998H10.724C10.836 11.4998 10.9434 11.5437 11.0225 11.6219C11.1017 11.7001 11.1462 11.8061 11.1462 11.9166V19.7945C11.1453 19.857 11.1305 19.9186 11.1027 19.9748C11.075 20.031 11.0351 20.0804 10.9858 20.1196C10.9359 20.1573 10.8785 20.1842 10.8174 20.1986C10.7563 20.2129 10.6928 20.2144 10.6311 20.203C9.70979 19.9949 8.84657 19.588 8.10346 19.0115C7.36035 18.4349 6.75579 17.7031 6.33321 16.8684C6.31456 16.8383 6.30469 16.8037 6.30469 16.7684C6.30469 16.7331 6.31456 16.6985 6.33321 16.6684C6.35115 16.6377 6.37702 16.6123 6.40818 16.5947C6.43933 16.5771 6.47465 16.568 6.51053 16.5683C6.72912 16.5652 6.93797 16.4786 7.09316 16.3266C7.1723 16.2491 7.23512 16.1569 7.27798 16.0553C7.32085 15.9537 7.34292 15.8447 7.34292 15.7347C7.34292 15.6246 7.32085 15.5157 7.27798 15.4141C7.23512 15.3125 7.1723 15.2203 7.09316 15.1428L5.80125 13.884C5.64612 13.7365 5.44956 13.6385 5.23721 13.6028C5.02485 13.5671 4.80652 13.5954 4.61068 13.6839C4.41634 13.7743 4.25426 13.9206 4.14574 14.1036C4.03723 14.2866 3.98737 14.4978 4.00272 14.7093C4.16291 16.6946 5.07481 18.5474 6.55674 19.8985C8.03866 21.2497 9.98181 22 11.999 22C14.0162 22 15.9594 21.2497 17.4413 19.8985C18.9232 18.5474 19.8351 16.6946 19.9953 14.7093V14.701ZM10.7324 4.93074C10.7324 4.68342 10.8067 4.44166 10.9459 4.23602C11.0851 4.03038 11.2829 3.87011 11.5143 3.77547C11.7458 3.68082 12.0004 3.65606 12.2461 3.70431C12.4918 3.75256 12.7175 3.87165 12.8946 4.04653C13.0717 4.22141 13.1924 4.44422 13.2412 4.68679C13.2901 4.92935 13.265 5.18078 13.1692 5.40927C13.0733 5.63776 12.911 5.83305 12.7027 5.97046C12.4944 6.10786 12.2495 6.1812 11.999 6.1812C11.6631 6.1812 11.3409 6.04945 11.1034 5.81494C10.8659 5.58044 10.7324 5.26238 10.7324 4.93074Z" fill="#161616"/>
</svg>
