<svg width="24" height="24" viewBox="0 0 24 24" fill="none" xmlns="http://www.w3.org/2000/svg">
<path d="M18.4962 14.1608C18.5128 13.9898 18.4748 13.818 18.3872 13.6689C18.2996 13.5198 18.1668 13.4006 18.0069 13.3276C17.847 13.2546 17.6678 13.2314 17.4938 13.2612C17.3198 13.291 17.1595 13.3722 17.0349 13.4939L15.9715 14.5276C15.9072 14.5896 15.8561 14.6633 15.8213 14.7446C15.7865 14.8259 15.7685 14.9131 15.7685 15.0011C15.7685 15.0891 15.7865 15.1763 15.8213 15.2576C15.8561 15.3388 15.9072 15.4126 15.9715 15.4746C16.0976 15.5962 16.2673 15.6655 16.4449 15.668C16.474 15.6678 16.5027 15.675 16.528 15.6891C16.5533 15.7031 16.5744 15.7235 16.5889 15.748C16.6041 15.7721 16.6121 15.7998 16.6121 15.8281C16.6121 15.8563 16.6041 15.884 16.5889 15.9081C16.2456 16.5758 15.7544 17.1613 15.1506 17.6225C14.5468 18.0838 13.8455 18.4093 13.0969 18.5757C13.0467 18.5849 12.9952 18.5837 12.9455 18.5722C12.8959 18.5607 12.8493 18.5392 12.8087 18.509C12.7687 18.4777 12.7362 18.4381 12.7137 18.3931C12.6912 18.3482 12.6791 18.299 12.6784 18.249V11.9333C12.6784 11.8449 12.7145 11.7601 12.7789 11.6975C12.8432 11.635 12.9304 11.5998 13.0214 11.5998H15.0796C15.2616 11.5998 15.4361 11.5296 15.5647 11.4045C15.6934 11.2794 15.7657 11.1098 15.7657 10.9329C15.7657 10.7561 15.6934 10.5864 15.5647 10.4614C15.4361 10.3363 15.2616 10.266 15.0796 10.266H13.0214C12.9304 10.266 12.8432 10.2309 12.7789 10.1684C12.7145 10.1058 12.6784 10.021 12.6784 9.93257V8.80549C12.6778 8.73945 12.6978 8.67479 12.7358 8.62003C12.7737 8.56527 12.8279 8.52297 12.8911 8.49871C13.408 8.29591 13.8362 7.92461 14.1023 7.4485C14.3684 6.97238 14.4558 6.42111 14.3495 5.8892C14.2432 5.35729 13.9499 4.87789 13.5199 4.5332C13.0898 4.18851 12.5497 4 11.9923 4C11.4349 4 10.8949 4.18851 10.4648 4.5332C10.0347 4.87789 9.74143 5.35729 9.63517 5.8892C9.5289 6.42111 9.61631 6.97238 9.88241 7.4485C10.1485 7.92461 10.5767 8.29591 11.0936 8.49871C11.1568 8.52297 11.2109 8.56527 11.2489 8.62003C11.2869 8.67479 11.3069 8.73945 11.3063 8.80549V9.93257C11.3063 10.021 11.2701 10.1058 11.2058 10.1684C11.1415 10.2309 11.0542 10.266 10.9632 10.266H8.90507C8.72311 10.266 8.54861 10.3363 8.41995 10.4614C8.29129 10.5864 8.21901 10.7561 8.21901 10.9329C8.21901 11.1098 8.29129 11.2794 8.41995 11.4045C8.54861 11.5296 8.72311 11.5998 8.90507 11.5998H10.9632C11.0542 11.5998 11.1415 11.635 11.2058 11.6975C11.2701 11.7601 11.3063 11.8449 11.3063 11.9333V18.2356C11.3056 18.2856 11.2935 18.3348 11.271 18.3798C11.2484 18.4248 11.216 18.4643 11.1759 18.4957C11.1354 18.5259 11.0888 18.5474 11.0392 18.5589C10.9895 18.5704 10.9379 18.5716 10.8878 18.5624C10.1392 18.396 9.43784 18.0704 8.83406 17.6092C8.23029 17.148 7.73908 16.5625 7.39574 15.8948C7.38058 15.8707 7.37256 15.843 7.37256 15.8147C7.37256 15.7865 7.38058 15.7588 7.39574 15.7347C7.41031 15.7102 7.43133 15.6898 7.45664 15.6757C7.48196 15.6617 7.51066 15.6544 7.53981 15.6547C7.71741 15.6522 7.8871 15.5829 8.01319 15.4613C8.07749 15.3993 8.12853 15.3255 8.16336 15.2442C8.19819 15.163 8.21613 15.0758 8.21613 14.9878C8.21613 14.8997 8.19819 14.8125 8.16336 14.7313C8.12853 14.65 8.07749 14.5762 8.01319 14.5142L6.96352 13.5072C6.83747 13.3892 6.67777 13.3108 6.50523 13.2822C6.33269 13.2537 6.1553 13.2763 5.99617 13.3472C5.83828 13.4194 5.70658 13.5365 5.61842 13.6829C5.53025 13.8293 5.48974 13.9982 5.50221 14.1675C5.63236 15.7557 6.37328 17.2379 7.57735 18.3188C8.78141 19.3997 10.3602 20 11.9992 20C13.6382 20 15.217 19.3997 16.421 18.3188C17.6251 17.2379 18.366 15.7557 18.4962 14.1675V14.1608ZM10.9701 6.34459C10.9701 6.14674 11.0305 5.95333 11.1435 5.78882C11.2566 5.62431 11.4173 5.49609 11.6054 5.42037C11.7934 5.34466 12.0003 5.32485 12.2 5.36345C12.3996 5.40204 12.583 5.49732 12.7269 5.63722C12.8708 5.77713 12.9688 5.95538 13.0085 6.14943C13.0482 6.34348 13.0278 6.54462 12.95 6.72741C12.8721 6.91021 12.7402 7.06644 12.5709 7.17636C12.4017 7.28629 12.2027 7.34496 11.9992 7.34496C11.7263 7.34496 11.4645 7.23956 11.2715 7.05196C11.0785 6.86435 10.9701 6.6099 10.9701 6.34459Z" fill="#161616"/>
</svg>
