<svg width="24" height="24" viewBox="0 0 24 24" fill="none" xmlns="http://www.w3.org/2000/svg">
<path fill-rule="evenodd" clip-rule="evenodd" d="M15.1274 8.35867C15.0028 8.30698 14.8594 8.3354 14.764 8.43067L14.44 8.75534C13.393 7.89982 11.933 7.7615 10.744 8.40518C9.55495 9.04886 8.87254 10.347 9.01648 11.6914C9.16043 13.0358 10.1022 14.1601 11.4006 14.5374C12.6989 14.9148 14.0966 14.4705 14.9387 13.4127C15.0947 13.2274 15.138 12.972 15.0516 12.7456C14.9653 12.5193 14.7629 12.3576 14.5231 12.3233C14.2832 12.289 14.0437 12.3876 13.8974 12.5807C13.2196 13.4425 11.9757 13.6008 11.1037 12.9362C10.2317 12.2716 10.0545 11.0302 10.7058 10.1482C11.357 9.26624 12.5956 9.07023 13.4874 9.70801L12.764 10.4307C12.6684 10.526 12.6398 10.6696 12.6915 10.7943C12.7432 10.919 12.865 11.0002 13 11H15C15.1841 11 15.3334 10.8508 15.3334 10.6667V8.66667C15.3333 8.53178 15.252 8.4102 15.1274 8.35867ZM9 4H15.6667C16.7712 4 17.6667 4.89543 17.6667 6V18C17.6667 19.1046 16.7712 20 15.6667 20H9C7.89543 20 7 19.1046 7 18V6C7 4.89543 7.89543 4 9 4ZM16 17C16.1841 17 16.3333 16.8508 16.3333 16.6667V6.33333C16.3333 6.14924 16.1841 6 16 6H8.66663C8.48254 6 8.3333 6.14924 8.3333 6.33333V16.6667C8.3333 16.8508 8.48254 17 8.66663 17H16Z" fill="#161616"/>
</svg>
