<svg width="24" height="24" viewBox="0 0 24 24" fill="none" xmlns="http://www.w3.org/2000/svg">
<path fill-rule="evenodd" clip-rule="evenodd" d="M14.0955 9.26901C14.0021 9.23024 13.8946 9.25155 13.823 9.32301L13.58 9.56651C12.7948 8.92487 11.6997 8.82112 10.808 9.30389C9.91621 9.78665 9.4044 10.7603 9.51236 11.7686C9.62032 12.7768 10.3267 13.62 11.3004 13.9031C12.2742 14.1861 13.3224 13.8528 13.954 13.0595C14.0711 12.9205 14.1035 12.729 14.0387 12.5592C13.9739 12.3894 13.8222 12.2682 13.6423 12.2425C13.4624 12.2168 13.2828 12.2907 13.173 12.4355C12.6647 13.0818 11.7317 13.2006 11.0778 12.7021C10.4238 12.2037 10.2909 11.2727 10.7793 10.6112C11.2678 9.94968 12.1967 9.80267 12.8655 10.281L12.323 10.823C12.2513 10.8945 12.2299 11.0022 12.2686 11.0957C12.3074 11.1893 12.3988 11.2502 12.5 11.25H14C14.1381 11.25 14.25 11.1381 14.25 11V9.50001C14.25 9.39884 14.189 9.30765 14.0955 9.26901ZM9.5 6H14.5C15.3284 6 16 6.67157 16 7.5V16.5C16 17.3284 15.3284 18 14.5 18H9.5C8.67157 18 8 17.3284 8 16.5V7.5C8 6.67157 8.67157 6 9.5 6ZM14.75 15.75C14.888 15.75 15 15.6381 15 15.5V7.75C15 7.61193 14.888 7.5 14.75 7.5H9.24998C9.1119 7.5 8.99998 7.61193 8.99998 7.75V15.5C8.99998 15.6381 9.1119 15.75 9.24998 15.75H14.75Z" fill="#161616"/>
</svg>
