<svg width="24" height="24" viewBox="0 0 24 24" fill="none" xmlns="http://www.w3.org/2000/svg">
<path fill-rule="evenodd" clip-rule="evenodd" d="M17.6035 6.84736L16.6035 7.84736C16.4073 8.03684 16.0955 8.03413 15.9026 7.84127C15.7097 7.6484 15.707 7.33655 15.8965 7.14036L16.8965 6.14036C17.0927 5.95087 17.4046 5.95358 17.5974 6.14645C17.7903 6.33931 17.793 6.65117 17.6035 6.84736ZM14.5 8.24386C15.0523 8.24386 15.5 8.69157 15.5 9.24386V16.7439C15.5 17.02 15.2761 17.2439 15 17.2439C14.7238 17.2439 14.5 17.02 14.5 16.7439V15.3689C14.5 15.2998 14.444 15.2439 14.375 15.2439H9.49998C8.94769 15.2439 8.49998 14.7961 8.49998 14.2439V6.74386C8.49998 6.46772 8.72383 6.24386 8.99998 6.24386C9.27612 6.24386 9.49998 6.46772 9.49998 6.74386V8.11886C9.49998 8.1879 9.55594 8.24386 9.62498 8.24386H14.5ZM9.49993 13.9939C9.49993 14.132 9.61186 14.2439 9.74993 14.2439H14.2499C14.388 14.2439 14.4999 14.132 14.4999 13.9939V9.49388C14.4999 9.35581 14.388 9.24388 14.2499 9.24388H9.74993C9.61186 9.24388 9.49993 9.35581 9.49993 9.49388V13.9939ZM6.5 8.24385H7.25C7.52614 8.24385 7.75 8.46771 7.75 8.74385C7.75 9.01999 7.52614 9.24385 7.25 9.24385H6.5C6.22386 9.24385 6 9.01999 6 8.74385C6 8.46771 6.22386 8.24385 6.5 8.24385ZM16.75 14.2438H17.5C17.7762 14.2438 18 14.4677 18 14.7438C18 15.02 17.7762 15.2438 17.5 15.2438H16.75C16.4739 15.2438 16.25 15.02 16.25 14.7438C16.25 14.4677 16.4739 14.2438 16.75 14.2438ZM13.8535 9.89035C13.6582 9.69516 13.3417 9.69516 13.1465 9.89035L12.3965 10.6404C12.2665 10.7659 12.2144 10.9518 12.2601 11.1266C12.3059 11.3014 12.4424 11.4379 12.6172 11.4837C12.792 11.5295 12.9779 11.4773 13.1035 11.3474L13.8535 10.5974C14.0487 10.4021 14.0487 10.0856 13.8535 9.89035ZM10.3965 12.6403L11.1465 11.8903C11.3427 11.7009 11.6546 11.7036 11.8474 11.8964C12.0403 12.0893 12.043 12.4012 11.8535 12.5973L11.1035 13.3473C10.978 13.4773 10.7921 13.5294 10.6173 13.4837C10.4425 13.4379 10.3059 13.3014 10.2602 13.1266C10.2144 12.9518 10.2666 12.7659 10.3965 12.6403Z" fill="#161616"/>
</svg>
