<svg width="24" height="24" viewBox="0 0 24 24" fill="none" xmlns="http://www.w3.org/2000/svg">
<path fill-rule="evenodd" clip-rule="evenodd" d="M19.4713 6.12981L18.138 7.46314C17.8764 7.71579 17.4606 7.71218 17.2035 7.45502C16.9463 7.19786 16.9427 6.78206 17.1953 6.52047L18.5287 5.18714C18.7903 4.93449 19.2061 4.93811 19.4632 5.19526C19.7204 5.45242 19.724 5.86822 19.4713 6.12981ZM15.3333 7.99181C16.0697 7.99181 16.6666 8.58877 16.6666 9.32515V19.3251C16.6666 19.6933 16.3682 19.9918 16 19.9918C15.6318 19.9918 15.3333 19.6933 15.3333 19.3251V17.4918C15.3333 17.3998 15.2587 17.3251 15.1666 17.3251H8.66663C7.93025 17.3251 7.3333 16.7282 7.3333 15.9918V5.99181C7.3333 5.62362 7.63178 5.32515 7.99997 5.32515C8.36816 5.32515 8.66663 5.62362 8.66663 5.99181V7.82515C8.66663 7.91719 8.74125 7.99181 8.8333 7.99181H15.3333ZM8.66665 15.6585C8.66665 15.8426 8.81589 15.9918 8.99998 15.9918H15C15.1841 15.9918 15.3333 15.8426 15.3333 15.6585V9.65849C15.3333 9.4744 15.1841 9.32516 15 9.32516H8.99998C8.81589 9.32516 8.66665 9.4744 8.66665 9.65849V15.6585ZM4.66667 7.9918H5.66667C6.03486 7.9918 6.33333 8.29027 6.33333 8.65846C6.33333 9.02665 6.03486 9.32513 5.66667 9.32513H4.66667C4.29848 9.32513 4 9.02665 4 8.65846C4 8.29027 4.29848 7.9918 4.66667 7.9918ZM18.3334 15.9918H19.3334C19.7016 15.9918 20 16.2903 20 16.6585C20 17.0267 19.7016 17.3251 19.3334 17.3251H18.3334C17.9652 17.3251 17.6667 17.0267 17.6667 16.6585C17.6667 16.2903 17.9652 15.9918 18.3334 15.9918ZM14.4713 10.1871C14.211 9.92688 13.789 9.92688 13.5286 10.1871L12.5286 11.1871C12.3553 11.3545 12.2858 11.6024 12.3468 11.8355C12.4079 12.0686 12.5899 12.2506 12.823 12.3116C13.0561 12.3726 13.3039 12.3031 13.4713 12.1298L14.4713 11.1298C14.7316 10.8695 14.7316 10.4475 14.4713 10.1871ZM9.86204 13.8538L10.862 12.8538C11.1236 12.6011 11.5394 12.6048 11.7966 12.8619C12.0537 13.1191 12.0574 13.5349 11.8047 13.7965L10.8047 14.7965C10.6373 14.9698 10.3895 15.0393 10.1564 14.9783C9.92328 14.9172 9.74125 14.7352 9.68024 14.5021C9.61923 14.269 9.68873 14.0212 9.86204 13.8538Z" fill="#161616"/>
</svg>
