<svg width="24" height="24" viewBox="0 0 24 24" fill="none" xmlns="http://www.w3.org/2000/svg">
<path fill-rule="evenodd" clip-rule="evenodd" d="M21.3392 4.41226L19.6725 6.07893C19.3455 6.39474 18.8258 6.39022 18.5043 6.06878C18.1829 5.74733 18.1784 5.22758 18.4942 4.90059L20.1608 3.23393C20.4878 2.91812 21.0076 2.92263 21.329 3.24408C21.6505 3.56552 21.655 4.08528 21.3392 4.41226ZM16.1667 6.73976C17.0871 6.73976 17.8333 7.48595 17.8333 8.40643V20.9064C17.8333 21.3667 17.4602 21.7398 17 21.7398C16.5398 21.7398 16.1667 21.3667 16.1667 20.9064V18.6148C16.1667 18.4997 16.0734 18.4064 15.9583 18.4064H7.83333C6.91286 18.4064 6.16667 17.6602 6.16667 16.7398V4.23976C6.16667 3.77952 6.53976 3.40643 7 3.40643C7.46024 3.40643 7.83333 3.77952 7.83333 4.23976V6.53143C7.83333 6.64649 7.92661 6.73976 8.04167 6.73976H16.1667ZM7.83333 16.3231C7.83333 16.5532 8.01988 16.7398 8.25 16.7398H15.75C15.9801 16.7398 16.1667 16.5532 16.1667 16.3231V8.82309C16.1667 8.59298 15.9801 8.40643 15.75 8.40643H8.25C8.01988 8.40643 7.83333 8.59298 7.83333 8.82309V16.3231ZM2.83333 6.73976H4.08333C4.54357 6.73976 4.91667 7.11286 4.91667 7.57309C4.91667 8.03333 4.54357 8.40643 4.08333 8.40643H2.83333C2.3731 8.40643 2 8.03333 2 7.57309C2 7.11286 2.3731 6.73976 2.83333 6.73976ZM19.9167 16.7398H21.1667C21.6269 16.7398 22 17.1129 22 17.5731C22 18.0333 21.6269 18.4064 21.1667 18.4064H19.9167C19.4564 18.4064 19.0833 18.0333 19.0833 17.5731C19.0833 17.1129 19.4564 16.7398 19.9167 16.7398ZM15.0892 9.48393C14.7638 9.15861 14.2362 9.15861 13.9108 9.48393L12.6608 10.7339C12.4442 10.9432 12.3573 11.253 12.4336 11.5443C12.5098 11.8357 12.7374 12.0632 13.0287 12.1395C13.3201 12.2158 13.6299 12.1289 13.8392 11.9123L15.0892 10.6623C15.4145 10.3368 15.4145 9.80934 15.0892 9.48393ZM9.3275 14.0673L10.5775 12.8173C10.9045 12.5014 11.4242 12.506 11.7457 12.8274C12.0671 13.1489 12.0716 13.6686 11.7558 13.9956L10.5058 15.2456C10.2966 15.4622 9.98677 15.5491 9.69541 15.4728C9.40405 15.3966 9.17652 15.169 9.10025 14.8777C9.02399 14.5863 9.11087 14.2765 9.3275 14.0673Z" fill="#161616"/>
</svg>
