<svg width="24" height="24" viewBox="0 0 24 24" fill="none" xmlns="http://www.w3.org/2000/svg">
<path fill-rule="evenodd" clip-rule="evenodd" d="M16.9692 8.03064C16.3095 7.37074 15.4146 7 14.4816 7C13.5485 7 12.6536 7.37074 11.994 8.03064L6.74998 13.2741C5.74652 14.2875 5.75053 15.9212 6.75894 16.9296C7.76735 17.938 9.40107 17.942 10.4144 16.9386L14.6736 12.6784C15.1212 12.2641 15.3063 11.6382 15.156 11.0471C15.0057 10.4561 14.5442 9.99458 13.953 9.84442C13.3619 9.69427 12.7361 9.87953 12.3219 10.3272L9.69992 12.9467C9.5721 13.0743 9.52209 13.2605 9.56872 13.435C9.61534 13.6095 9.75152 13.7458 9.92596 13.7927C10.1004 13.8396 10.2866 13.7898 10.4144 13.6622L13.0364 11.0392C13.2934 10.794 13.6991 10.7988 13.9503 11.05C14.2014 11.3013 14.2059 11.707 13.9606 11.9639L9.69992 16.2241C9.08261 16.8414 8.08177 16.8414 7.46447 16.2241C6.84717 15.6068 6.84717 14.6059 7.46447 13.9886L12.7085 8.74513C13.6877 7.76588 15.2754 7.76588 16.2547 8.74513C17.2339 9.72439 17.2339 11.3121 16.2547 12.2913L12.3219 16.2241C12.1906 16.3509 12.1379 16.5388 12.1841 16.7155C12.2304 16.8921 12.3683 17.0301 12.545 17.0764C12.7217 17.1226 12.9095 17.0699 13.0364 16.9386L16.9692 13.0053C17.6292 12.3457 18 11.4508 18 10.5177C18 9.58461 17.6292 8.68974 16.9692 8.03013V8.03064Z" fill="#161616"/>
</svg>
