<svg width="24" height="24" viewBox="0 0 24 24" fill="none" xmlns="http://www.w3.org/2000/svg">
<path fill-rule="evenodd" clip-rule="evenodd" d="M20.2819 4.71773C19.1825 3.61791 17.6911 3 16.1359 3C14.5808 3 13.0894 3.61791 11.99 4.71773L3.24996 13.4569C1.57754 15.1458 1.58421 17.8687 3.2649 19.5493C4.94558 21.23 7.66844 21.2367 9.35735 19.5643L16.456 12.464C17.202 11.7736 17.5105 10.7304 17.26 9.74524C17.0096 8.76012 16.2403 7.99096 15.2551 7.74071C14.2699 7.49045 13.2268 7.79921 12.5365 8.54537L8.16652 12.9112C7.9535 13.1239 7.87015 13.4341 7.94786 13.7249C8.02557 14.0158 8.25254 14.2431 8.54327 14.3212C8.834 14.3993 9.14433 14.3164 9.35735 14.1037L13.7273 9.73199C14.1557 9.32331 14.8319 9.33134 15.2504 9.75007C15.6689 10.1688 15.6766 10.845 15.2677 11.2731L8.16652 18.3734C7.13769 19.4023 5.46962 19.4023 4.44078 18.3734C3.41195 17.3446 3.41195 15.6765 4.44078 14.6477L13.1808 5.90855C14.8129 4.27646 17.459 4.27646 19.0911 5.90855C20.7232 7.54064 20.7232 10.1868 19.0911 11.8189L12.5365 18.3734C12.3176 18.5849 12.2298 18.898 12.3069 19.1925C12.3839 19.4869 12.6139 19.7169 12.9083 19.7939C13.2028 19.871 13.5159 19.7832 13.7273 19.5643L20.2819 13.0089C21.382 11.9095 22 10.4181 22 8.86287C22 7.30768 21.382 5.81623 20.2819 4.71689V4.71773Z" fill="#161616"/>
</svg>
