<svg width="24" height="24" viewBox="0 0 24 24" fill="none" xmlns="http://www.w3.org/2000/svg">
<path fill-rule="evenodd" clip-rule="evenodd" d="M18.6255 6.37418C17.746 5.49433 16.5529 5 15.3088 5C14.0647 5 12.8715 5.49433 11.992 6.37418L4.99997 13.3655C3.66203 14.7166 3.66737 16.8949 5.01192 18.2395C6.35646 19.584 8.53476 19.5894 9.88588 18.2514L15.5648 12.5712C16.1616 12.0189 16.4084 11.1843 16.208 10.3962C16.0077 9.6081 15.3922 8.99277 14.6041 8.79257C13.8159 8.59236 12.9814 8.83937 12.4292 9.4363L8.93322 12.9289C8.7628 13.0991 8.69612 13.3473 8.75829 13.5799C8.82046 13.8126 9.00203 13.9944 9.23462 14.0569C9.4672 14.1194 9.71546 14.0531 9.88588 13.8829L13.3819 10.3856C13.7245 10.0586 14.2655 10.0651 14.6003 10.4001C14.9351 10.735 14.9413 11.276 14.6141 11.6185L8.93322 17.2988C8.11015 18.1218 6.7757 18.1218 5.95263 17.2988C5.12956 16.4757 5.12956 15.1412 5.95263 14.3182L12.9446 7.32684C14.2503 6.02117 16.3672 6.02117 17.6729 7.32684C18.9785 8.63251 18.9785 10.7494 17.6729 12.0551L12.4292 17.2988C12.2541 17.4679 12.1838 17.7184 12.2455 17.954C12.3072 18.1895 12.4911 18.3735 12.7267 18.4351C12.9622 18.4968 13.2127 18.4266 13.3819 18.2514L18.6255 13.0071C19.5056 12.1276 20 10.9345 20 9.6903C20 8.44614 19.5056 7.25299 18.6255 6.37351V6.37418Z" fill="#161616"/>
</svg>
