<svg width="24" height="24" viewBox="0 0 24 24" fill="none" xmlns="http://www.w3.org/2000/svg">
<path fill-rule="evenodd" clip-rule="evenodd" d="M10.6957 10.7396C10.4075 10.7396 10.1739 10.9732 10.1739 11.2613V11.4352C10.1739 11.6273 10.0182 11.783 9.82609 11.783H4.34783C4.15573 11.783 4 11.6273 4 11.4352V8.82652C4 8.44232 4.31145 8.13087 4.69565 8.13087H8.53913C8.71755 6.35334 10.2135 5 12 5C13.7865 5 15.2824 6.35334 15.4609 8.13087H19.3043C19.6885 8.13087 20 8.44232 20 8.82652V11.4352C20 11.6273 19.8443 11.783 19.6522 11.783H14.1739C13.9818 11.783 13.8261 11.6273 13.8261 11.4352V11.2613C13.8261 10.9732 13.5925 10.7396 13.3043 10.7396H10.6957ZM14.0577 8.13088C13.8879 7.12676 13.0183 6.39176 11.9999 6.39175C10.9816 6.39176 10.1119 7.12676 9.94219 8.13088H14.0577ZM13.8261 13.4359C13.8254 13.984 13.579 14.5029 13.1547 14.8498C12.7303 15.1967 12.1727 15.3349 11.6355 15.2265C10.7692 15.0292 10.1597 14.2519 10.1746 13.3636V13.175C10.1746 12.9829 10.0189 12.8272 9.82678 12.8272H4.34783C4.15573 12.8272 4 12.9829 4 13.175V17.87C4 18.2542 4.31145 18.5656 4.69565 18.5656H19.3043C19.6885 18.5656 20 18.2542 20 17.87V13.1743C20 12.9822 19.8443 12.8265 19.6522 12.8265H14.2052C14.1077 12.8177 14.0109 12.8504 13.9388 12.9166C13.8666 12.9828 13.8257 13.0764 13.8261 13.1743V13.4359ZM11.5652 11.7837H12.4348C12.6269 11.7837 12.7826 11.9395 12.7826 12.1316V13.4359C12.7826 13.8681 12.4322 14.2185 12 14.2185C11.5678 14.2185 11.2174 13.8681 11.2174 13.4359V12.1316C11.2174 11.9395 11.3731 11.7837 11.5652 11.7837Z" fill="#161616"/>
</svg>
