<svg width="24" height="24" viewBox="0 0 24 24" fill="none" xmlns="http://www.w3.org/2000/svg">
<path fill-rule="evenodd" clip-rule="evenodd" d="M11.0217 11.3047C10.8056 11.3047 10.6304 11.4799 10.6304 11.696V11.8264C10.6304 11.9705 10.5136 12.0873 10.3696 12.0873H6.26087C6.1168 12.0873 6 11.9705 6 11.8264V9.86989C6 9.58174 6.23359 9.34815 6.52174 9.34815H9.40435C9.53817 8.015 10.6602 7 12 7C13.3398 7 14.4618 8.015 14.5957 9.34815H17.4783C17.7664 9.34815 18 9.58174 18 9.86989V11.8264C18 11.9705 17.8832 12.0873 17.7391 12.0873H13.6304C13.4864 12.0873 13.3696 11.9705 13.3696 11.8264V11.696C13.3696 11.4799 13.1944 11.3047 12.9783 11.3047H11.0217ZM13.5432 9.34814C13.4159 8.59505 12.7637 8.0438 11.9999 8.04379C11.2361 8.0438 10.5839 8.59505 10.4566 9.34814H13.5432ZM13.3696 13.3269C13.3691 13.738 13.1843 14.1272 12.866 14.3873C12.5477 14.6475 12.1296 14.7512 11.7266 14.6699C11.0769 14.5219 10.6197 13.9389 10.631 13.2726V13.1313C10.631 12.9872 10.5142 12.8704 10.3701 12.8704H6.26087C6.1168 12.8704 6 12.9872 6 13.1313V16.6525C6 16.9406 6.23359 17.1742 6.52174 17.1742H17.4783C17.7664 17.1742 18 16.9406 18 16.6525V13.1307C18 12.9867 17.8832 12.8699 17.7391 12.8699H13.6539C13.5808 12.8633 13.5082 12.8878 13.4541 12.9374C13.4 12.9871 13.3693 13.0573 13.3696 13.1307V13.3269ZM11.6738 12.0878H12.326C12.4701 12.0878 12.5869 12.2046 12.5869 12.3487V13.3269C12.5869 13.6511 12.3241 13.9139 11.9999 13.9139C11.6758 13.9139 11.413 13.6511 11.413 13.3269V12.3487C11.413 12.2046 11.5298 12.0878 11.6738 12.0878Z" fill="#161616"/>
</svg>
