<svg width="24" height="24" viewBox="0 0 24 24" fill="none" xmlns="http://www.w3.org/2000/svg">
<path fill-rule="evenodd" clip-rule="evenodd" d="M17.5607 8.46624C17.842 8.76477 18 9.16966 18 9.59184V14.4082C18 14.8303 17.842 15.2352 17.5607 15.5338C17.2794 15.8323 16.8978 16 16.5 16H7.5C7.10218 16 6.72064 15.8323 6.43934 15.5338C6.15804 15.2352 6 14.8303 6 14.4082V9.59184C6 9.16966 6.15804 8.76477 6.43934 8.46624C6.72064 8.16771 7.10218 8 7.5 8H16.5C16.8978 8 17.2794 8.16771 17.5607 8.46624ZM16.8536 14.7834C16.9473 14.6839 17 14.5489 17 14.4082V9.59184C17 9.45111 16.9473 9.31615 16.8536 9.21664C16.7598 9.11713 16.6326 9.06122 16.5 9.06122H7.5C7.36739 9.06122 7.24021 9.11713 7.14645 9.21664C7.05268 9.31615 7 9.45111 7 9.59184V14.4082C7 14.5489 7.05268 14.6839 7.14645 14.7834C7.24021 14.8829 7.36739 14.9388 7.5 14.9388H16.5C16.6326 14.9388 16.7598 14.8829 16.8536 14.7834ZM15.6018 12.4952C15.7395 12.37 15.8183 12.1895 15.818 12C15.8179 11.8101 15.7387 11.6295 15.6006 11.504L14.4776 10.4095C14.2645 10.2248 13.9476 10.2496 13.7638 10.4654C13.5801 10.6811 13.5967 11.0089 13.8013 11.2036L14.5372 11.9462C14.5522 11.9598 14.5609 11.9794 14.5609 12C14.5609 12.0207 14.5522 12.0403 14.5372 12.0539L13.8013 12.7964C13.5967 12.9912 13.5801 13.319 13.7638 13.5347C13.9476 13.7505 14.2645 13.7753 14.4776 13.5906L15.6018 12.4952Z" fill="#161616"/>
</svg>
