<svg width="24" height="24" viewBox="0 0 24 24" fill="none" xmlns="http://www.w3.org/2000/svg">
<path fill-rule="evenodd" clip-rule="evenodd" d="M20.341 7.14108C20.7629 7.55155 21 8.10828 21 8.68878V15.3112C21 15.8917 20.7629 16.4484 20.341 16.8589C19.919 17.2694 19.3467 17.5 18.75 17.5H5.25C4.65326 17.5 4.08097 17.2694 3.65901 16.8589C3.23705 16.4484 3 15.8917 3 15.3112V8.68878C3 8.10828 3.23705 7.55155 3.65901 7.14108C4.08097 6.7306 4.65326 6.5 5.25 6.5H18.75C19.3467 6.5 19.919 6.7306 20.341 7.14108ZM19.2803 15.8271C19.421 15.6903 19.5 15.5047 19.5 15.3112V8.68878C19.5 8.49528 19.421 8.3097 19.2803 8.17288C19.1397 8.03605 18.9489 7.95918 18.75 7.95918H5.25C5.05109 7.95918 4.86032 8.03605 4.71967 8.17288C4.57902 8.3097 4.5 8.49528 4.5 8.68878V15.3112C4.5 15.5047 4.57902 15.6903 4.71967 15.8271C4.86032 15.9639 5.05109 16.0408 5.25 16.0408H18.75C18.9489 16.0408 19.1397 15.9639 19.2803 15.8271ZM17.4026 12.6808C17.6092 12.5087 17.7274 12.2606 17.7271 12C17.7268 11.7389 17.608 11.4905 17.401 11.318L15.7164 9.81304C15.3967 9.55909 14.9214 9.59319 14.6457 9.88985C14.3701 10.1865 14.3951 10.6372 14.7019 10.905L15.8058 11.926C15.8284 11.9447 15.8413 11.9717 15.8413 12C15.8413 12.0284 15.8284 12.0554 15.8058 12.074L14.7019 13.0951C14.3951 13.3628 14.3701 13.8135 14.6457 14.1102C14.9214 14.4068 15.3967 14.4409 15.7164 14.187L17.4026 12.6808Z" fill="#161616"/>
</svg>
