<svg width="24" height="24" viewBox="0 0 24 24" fill="none" xmlns="http://www.w3.org/2000/svg">
<path fill-rule="evenodd" clip-rule="evenodd" d="M7.66859 7.46533H5.66944C5.58108 7.46533 5.49633 7.43071 5.43384 7.3691C5.37136 7.30748 5.33625 7.22392 5.33625 7.13678V6.98565C5.33625 6.72424 5.44156 6.47353 5.62902 6.28869C5.81648 6.10384 6.07072 6 6.33582 6H7.00221C7.26731 6 7.52155 6.10384 7.70901 6.28869C7.89646 6.47353 8.00178 6.72424 8.00178 6.98565V7.13678C8.00268 7.18017 7.99469 7.22329 7.97826 7.26356C7.96184 7.30383 7.93733 7.3404 7.90621 7.37109C7.87509 7.40178 7.83799 7.42595 7.79716 7.44214C7.75632 7.45834 7.71259 7.46622 7.66859 7.46533ZM18.2906 8.12899H17.4177C17.3479 8.12706 17.2804 8.10481 17.2234 8.06505C17.1665 8.02529 17.1228 7.9698 17.0978 7.90557L17.0464 7.80309C16.6316 6.97581 16.2214 6.1577 15.3319 6.1577H12C11.287 6.1577 10.9071 6.67023 10.2274 7.60331C10.1846 7.66114 10.1465 7.71446 10.1117 7.76313L10.1117 7.76314C9.94106 8.00201 9.85035 8.12899 9.66767 8.12899H5.66939C4.28998 8.12899 4.00343 8.92407 4.00343 9.59431V16.4216C3.98834 16.6411 4.02315 16.8613 4.10533 17.0659C4.18751 17.2705 4.31499 17.4545 4.47846 17.6044C4.64193 17.7542 4.83727 17.8662 5.05022 17.9321C5.26317 17.9981 5.48837 18.0163 5.70937 17.9854H18.2906C18.5116 18.0163 18.7368 17.9981 18.9498 17.9321C19.1627 17.8662 19.3581 17.7542 19.5215 17.6044C19.685 17.4545 19.8125 17.2705 19.8947 17.0659C19.9769 16.8613 20.0117 16.6411 19.9966 16.4216V9.59431C19.9966 8.92407 19.7034 8.12899 18.2906 8.12899ZM17.6642 12.7287C17.6656 13.4762 17.442 14.2074 17.0217 14.8296C16.6015 15.4518 16.0035 15.9371 15.3035 16.224C14.6035 16.511 13.8328 16.5868 13.0891 16.4417C12.3454 16.2967 11.662 15.9374 11.1255 15.4092C10.589 14.8811 10.2234 14.2079 10.075 13.4748C9.92659 12.7417 10.0021 11.9816 10.2919 11.2909C10.5817 10.6001 11.0728 10.0096 11.7031 9.59415C12.3333 9.17869 13.0744 8.95693 13.8325 8.95693C14.8471 8.95866 15.8197 9.35639 16.5377 10.0632C17.2557 10.7699 17.6607 11.7283 17.6642 12.7287ZM7.33534 10.5997C7.33402 10.7618 7.28405 10.92 7.19173 11.0542C7.0994 11.1884 6.96885 11.2927 6.81654 11.3538C6.66422 11.415 6.49695 11.4303 6.33581 11.3979C6.17467 11.3655 6.02687 11.2867 5.91104 11.1716C5.79521 11.0565 5.71654 10.9101 5.68494 10.7509C5.65333 10.5918 5.67021 10.427 5.73345 10.2773C5.79669 10.1276 5.90345 9.99968 6.04028 9.90971C6.17712 9.81975 6.3379 9.77173 6.50236 9.77173C6.61256 9.77084 6.72183 9.7917 6.82374 9.83307C6.92565 9.87445 7.01813 9.9355 7.09575 10.0127C7.17336 10.0898 7.23455 10.1815 7.27569 10.2823C7.31684 10.3831 7.33712 10.491 7.33534 10.5997ZM13.8324 15.1994C15.2125 15.1994 16.3314 14.0962 16.3314 12.7353C16.3314 11.3744 15.2125 10.2711 13.8324 10.2711C12.4523 10.2711 11.3335 11.3744 11.3335 12.7353C11.3335 14.0962 12.4523 15.1994 13.8324 15.1994Z" fill="#161616"/>
</svg>
