<svg width="24" height="24" viewBox="0 0 24 24" fill="none" xmlns="http://www.w3.org/2000/svg">
<path fill-rule="evenodd" clip-rule="evenodd" d="M8.75145 8.599H7.25209C7.18581 8.599 7.12225 8.57303 7.07539 8.52682C7.02853 8.48061 7.0022 8.41794 7.0022 8.35258V8.23923C7.0022 8.04318 7.08118 7.85515 7.22177 7.71652C7.36237 7.57788 7.55305 7.5 7.75188 7.5H8.25166C8.45049 7.5 8.64117 7.57788 8.78176 7.71652C8.92236 7.85515 9.00134 8.04318 9.00134 8.23923V8.35258C9.00202 8.38513 8.99602 8.41747 8.9837 8.44767C8.97139 8.47787 8.95301 8.5053 8.92966 8.52832C8.90632 8.55133 8.8785 8.56946 8.84788 8.58161C8.81725 8.59375 8.78445 8.59967 8.75145 8.599ZM16.718 9.09668H16.0633C16.011 9.09523 15.9603 9.07855 15.9176 9.04873C15.8749 9.01891 15.8421 8.97729 15.8234 8.92912L15.7848 8.85226C15.4737 8.2318 15.1661 7.61821 14.4989 7.61821H12C11.4652 7.61821 11.1804 8.00261 10.6706 8.70242C10.6384 8.7458 10.6099 8.78578 10.5838 8.82229L10.5838 8.82229C10.4558 9.00145 10.3878 9.09668 10.2508 9.09668H7.25204C6.21748 9.09668 6.00258 9.693 6.00258 10.1957V15.3161C5.99125 15.4808 6.01736 15.6459 6.079 15.7994C6.14063 15.9528 6.23624 16.0908 6.35884 16.2032C6.48145 16.3156 6.62795 16.3996 6.78767 16.449C6.94738 16.4985 7.11627 16.5121 7.28203 16.489H16.718C16.8837 16.5121 17.0526 16.4985 17.2123 16.449C17.372 16.3996 17.5186 16.3156 17.6412 16.2032C17.7638 16.0908 17.8594 15.9528 17.921 15.7994C17.9826 15.6459 18.0087 15.4808 17.9974 15.3161V10.1957C17.9974 9.693 17.7775 9.09668 16.718 9.09668ZM16.2482 12.5464C16.2492 13.1071 16.0815 13.6555 15.7663 14.1221C15.4511 14.5888 15.0026 14.9527 14.4776 15.168C13.9526 15.3832 13.3746 15.44 12.8168 15.3312C12.2591 15.2225 11.7465 14.953 11.3441 14.5569C10.9417 14.1608 10.6675 13.6558 10.5562 13.106C10.4449 12.5562 10.5016 11.9862 10.7189 11.4681C10.9363 10.95 11.3046 10.5071 11.7773 10.1956C12.25 9.88396 12.8058 9.71764 13.3744 9.71764C14.1353 9.71894 14.8647 10.0172 15.4032 10.5473C15.9418 11.0774 16.2455 11.7961 16.2482 12.5464ZM8.5015 10.9497C8.50052 11.0713 8.46304 11.1899 8.3938 11.2906C8.32455 11.3912 8.22664 11.4694 8.1124 11.5153C7.99816 11.5612 7.87271 11.5727 7.75186 11.5483C7.631 11.524 7.52015 11.465 7.43328 11.3786C7.34641 11.2923 7.28741 11.1825 7.2637 11.0631C7.24 10.9438 7.25266 10.8202 7.30009 10.7079C7.34751 10.5956 7.42759 10.4997 7.53021 10.4322C7.63284 10.3647 7.75342 10.3287 7.87677 10.3287C7.95942 10.3281 8.04138 10.3437 8.11781 10.3747C8.19423 10.4058 8.2636 10.4516 8.32181 10.5094C8.38002 10.5673 8.42591 10.636 8.45677 10.7117C8.48763 10.7873 8.50284 10.8682 8.5015 10.9497ZM13.3747 14.3995C14.4098 14.3995 15.2489 13.5721 15.2489 12.5514C15.2489 11.5308 14.4098 10.7033 13.3747 10.7033C12.3396 10.7033 11.5005 11.5308 11.5005 12.5514C11.5005 13.5721 12.3396 14.3995 13.3747 14.3995Z" fill="#161616"/>
</svg>
