<svg width="24" height="24" viewBox="0 0 24 24" fill="none" xmlns="http://www.w3.org/2000/svg">
<path fill-rule="evenodd" clip-rule="evenodd" d="M5.33327 20H16.3333C17.0696 20 17.6666 19.403 17.6666 18.6667V7.66667C17.6666 6.93029 17.0696 6.33333 16.3333 6.33333H5.33327C4.59689 6.33333 3.99994 6.93029 3.99994 7.66667V18.6667C3.99994 19.403 4.59689 20 5.33327 20ZM16 7.66667C16.1841 7.66667 16.3333 7.81591 16.3333 8.00001V18.3333C16.3333 18.5174 16.1841 18.6667 16 18.6667H5.66663C5.48254 18.6667 5.3333 18.5174 5.3333 18.3333V8.00001C5.3333 7.81591 5.48254 7.66667 5.66663 7.66667H16ZM18.3333 5.33334H7C6.63181 5.33334 6.33333 5.03486 6.33333 4.66667C6.33333 4.29848 6.63181 4.00001 7 4.00001H18.6667C19.403 4.00001 20 4.59696 20 5.33334V17C20 17.3682 19.7015 17.6667 19.3333 17.6667C18.9651 17.6667 18.6667 17.3682 18.6667 17V5.66667C18.6667 5.48258 18.5174 5.33334 18.3333 5.33334Z" fill="#161616"/>
</svg>
