<svg width="24" height="24" viewBox="0 0 24 24" fill="none" xmlns="http://www.w3.org/2000/svg">
<path fill-rule="evenodd" clip-rule="evenodd" d="M6.99995 18H15.25C15.8022 18 16.25 17.5523 16.25 17V8.75C16.25 8.19772 15.8022 7.75 15.25 7.75H6.99995C6.44767 7.75 5.99995 8.19772 5.99995 8.75V17C5.99995 17.5523 6.44767 18 6.99995 18ZM14.9999 8.75001C15.1379 8.75001 15.2499 8.86193 15.2499 9.00001V16.75C15.2499 16.8881 15.1379 17 14.9999 17H7.24985C7.11178 17 6.99985 16.8881 6.99985 16.75V9.00001C6.99985 8.86193 7.11178 8.75001 7.24985 8.75001H14.9999ZM16.75 7.00001H8.25C7.97386 7.00001 7.75 6.77615 7.75 6.50001C7.75 6.22386 7.97386 6.00001 8.25 6.00001H17C17.5523 6.00001 18 6.44772 18 7.00001V15.75C18 16.0261 17.7761 16.25 17.5 16.25C17.2239 16.25 17 16.0261 17 15.75V7.25001C17 7.11193 16.8881 7.00001 16.75 7.00001Z" fill="#161616"/>
</svg>
