<svg width="24" height="24" viewBox="0 0 24 24" fill="none" xmlns="http://www.w3.org/2000/svg">
<path fill-rule="evenodd" clip-rule="evenodd" d="M3.66667 22H17.4167C18.3371 22 19.0833 21.2538 19.0833 20.3333V6.58333C19.0833 5.66286 18.3371 4.91667 17.4167 4.91667H3.66667C2.74619 4.91667 2 5.66286 2 6.58333V20.3333C2 21.2538 2.74619 22 3.66667 22ZM17 6.58333C17.2301 6.58333 17.4167 6.76988 17.4167 7V19.9167C17.4167 20.1468 17.2301 20.3333 17 20.3333H4.08333C3.85321 20.3333 3.66667 20.1468 3.66667 19.9167V7C3.66667 6.76988 3.85321 6.58333 4.08333 6.58333H17ZM19.9167 3.66667H5.75C5.28976 3.66667 4.91667 3.29357 4.91667 2.83333C4.91667 2.3731 5.28976 2 5.75 2H20.3333C21.2538 2 22 2.74619 22 3.66667V18.25C22 18.7102 21.6269 19.0833 21.1667 19.0833C20.7064 19.0833 20.3333 18.7102 20.3333 18.25V4.08333C20.3333 3.85321 20.1468 3.66667 19.9167 3.66667Z" fill="#161616"/>
</svg>
