<?xml version="1.0" encoding="UTF-8"?>
<svg width="24px" height="24px" viewBox="0 0 24 24" version="1.1" xmlns="http://www.w3.org/2000/svg" xmlns:xlink="http://www.w3.org/1999/xlink">
    <title>Large / Essentials / Copy</title>
    <g id="Large-/-Essentials-/-Copy" stroke="none" stroke-width="1" fill="none" fill-rule="evenodd">
        <path d="M2.83333333,4.91666667 C3.29357062,4.91666667 3.66666667,5.28976271 3.66666667,5.75 L3.66666667,5.75 L3.66666667,19.9166667 C3.66666667,20.1467853 3.85321469,20.3333333 4.08333333,20.3333333 L4.08333333,20.3333333 L18.25,20.3333333 C18.7102373,20.3333333 19.0833333,20.7064294 19.0833333,21.1666667 C19.0833333,21.626904 18.7102373,22 18.25,22 L18.25,22 L3.66666667,22 C2.74619208,22 2,21.2538079 2,20.3333333 L2,20.3333333 L2,5.75 C2,5.28976271 2.37309604,4.91666667 2.83333333,4.91666667 Z M20.3333333,2 C21.2538079,2 22,2.74619208 22,3.66666667 L22,3.66666667 L22,17.4166667 C22,18.3371412 21.2538079,19.0833333 20.3333333,19.0833333 L20.3333333,19.0833333 L6.58333333,19.0833333 C5.66285875,19.0833333 4.91666667,18.3371412 4.91666667,17.4166667 L4.91666667,17.4166667 L4.91666667,3.66666667 C4.91666667,2.74619208 5.66285875,2 6.58333333,2 L6.58333333,2 Z M19.9166667,3.66666667 L7,3.66666667 C6.76988135,3.66666667 6.58333333,3.85321469 6.58333333,4.08333333 L6.58333333,4.08333333 L6.58333333,17 C6.58333333,17.2301186 6.76988135,17.4166667 7,17.4166667 L7,17.4166667 L19.9166667,17.4166667 C20.1467853,17.4166667 20.3333333,17.2301186 20.3333333,17 L20.3333333,17 L20.3333333,4.08333333 C20.3333333,3.85321469 20.1467853,3.66666667 19.9166667,3.66666667 L19.9166667,3.66666667 Z" id="Copy" fill="#161616" transform="translate(12.000000, 12.000000) scale(-1, -1) translate(-12.000000, -12.000000) "></path>
    </g>
</svg>