<svg width="24" height="24" viewBox="0 0 24 24" fill="none" xmlns="http://www.w3.org/2000/svg">
<path fill-rule="evenodd" clip-rule="evenodd" d="M19.0712 4.93266C15.1643 1.02082 8.83182 1.02269 4.92723 4.93683C1.02263 8.85098 1.0245 15.1952 4.93139 19.107C8.76899 22.8696 14.8727 22.9711 18.8329 19.3383C19.6687 18.5551 20.365 17.6348 20.8918 16.6169C21.3952 15.6377 21.7331 14.5815 21.8916 13.4915C21.9631 13.0042 21.9993 12.5124 22 12.0198C22.0072 9.36047 20.9527 6.80862 19.0712 4.93266ZM6.41203 6.40018C9.16338 3.70084 13.4416 3.34231 16.6023 5.54621C16.6543 5.58418 16.687 5.643 16.692 5.70721C16.697 5.77142 16.6736 5.83459 16.6282 5.88012L5.89127 16.642C5.84569 16.6872 5.78271 16.7104 5.71871 16.7055C5.65471 16.7005 5.59604 16.6679 5.55798 16.6161C3.31213 13.4594 3.67334 9.13865 6.41203 6.40018ZM17.6247 17.6395C14.889 20.3735 10.5846 20.7342 7.43356 18.4935C7.38151 18.4556 7.3486 18.3969 7.34347 18.3327C7.33834 18.2685 7.36152 18.2052 7.4069 18.1596L18.1446 7.39689C18.1902 7.35161 18.2532 7.32843 18.3172 7.3334C18.3812 7.33837 18.4399 7.37099 18.4779 7.42277C20.7247 10.5793 20.3642 14.9005 17.6255 17.6395H17.6247Z" fill="#161616"/>
</svg>
