<svg width="24" height="24" viewBox="0 0 24 24" fill="none" xmlns="http://www.w3.org/2000/svg">
<path fill-rule="evenodd" clip-rule="evenodd" d="M21.0909 4.55556H16.7727C16.6472 4.55556 16.5455 4.45606 16.5455 4.33333V3.22222C16.5455 1.99492 15.5279 1 14.2727 1H9.72727C8.47208 1 7.45455 1.99492 7.45455 3.22222V4.33333C7.45455 4.39227 7.4306 4.44879 7.38798 4.49047C7.34536 4.53214 7.28755 4.55556 7.22727 4.55556H2.90909C2.40701 4.55556 2 4.95352 2 5.44444C2 5.93536 2.40701 6.33333 2.90909 6.33333H21.0909C21.593 6.33333 22 5.93536 22 5.44444C22 4.95352 21.593 4.55556 21.0909 4.55556ZM9.33 3.5V2.66667C9.33 2.48257 9.52898 2.33333 9.77444 2.33333H14.2189C14.4643 2.33333 14.6633 2.48257 14.6633 2.66667V3.5C14.6633 3.59205 14.5638 3.66667 14.4411 3.66667H9.55222C9.42949 3.66667 9.33 3.59205 9.33 3.5ZM5.12955 7.66667H18.8723C19.0018 7.66676 19.1253 7.71934 19.2126 7.81156C19.2999 7.90363 19.343 8.02685 19.3315 8.15111L18.1467 20.7164C18.0604 21.6322 17.2639 22.3334 16.31 22.3333H7.69186C6.73801 22.3334 5.94151 21.6322 5.85519 20.7164L4.66854 8.15111C4.65686 8.02648 4.70022 7.90287 4.78797 7.81065C4.87573 7.71844 4.99974 7.66616 5.12955 7.66667ZM9.33333 19.6667C9.70152 19.6667 10 19.3682 10 19V11C10 10.6318 9.70152 10.3333 9.33333 10.3333C8.96514 10.3333 8.66667 10.6318 8.66667 11V19C8.66667 19.3682 8.96514 19.6667 9.33333 19.6667ZM15.3333 19C15.3333 19.3682 15.0349 19.6667 14.6667 19.6667C14.2985 19.6667 14 19.3682 14 19V11C14 10.6318 14.2985 10.3333 14.6667 10.3333C15.0349 10.3333 15.3333 10.6318 15.3333 11V19Z" fill="#161616"/>
</svg>
