<svg width="24" height="24" viewBox="0 0 24 24" fill="none" xmlns="http://www.w3.org/2000/svg">
<path fill-rule="evenodd" clip-rule="evenodd" d="M19.2727 5.84444H15.8182C15.7178 5.84444 15.6364 5.76485 15.6364 5.66667V4.77778C15.6364 3.79594 14.8223 3 13.8182 3H10.1818C9.17766 3 8.36364 3.79594 8.36364 4.77778V5.66667C8.36364 5.71382 8.34448 5.75903 8.31038 5.79237C8.27629 5.82571 8.23004 5.84444 8.18182 5.84444H4.72727C4.32561 5.84444 4 6.16282 4 6.55556C4 6.94829 4.32561 7.26667 4.72727 7.26667H19.2727C19.6744 7.26667 20 6.94829 20 6.55556C20 6.16282 19.6744 5.84444 19.2727 5.84444ZM9.9 5V4.33333C9.9 4.18606 10.0592 4.06667 10.2556 4.06667H13.8111C14.0075 4.06667 14.1667 4.18606 14.1667 4.33333V5C14.1667 5.07364 14.0871 5.13333 13.9889 5.13333H10.0778C9.97959 5.13333 9.9 5.07364 9.9 5ZM6.50361 8.33334H17.4978C17.6014 8.33341 17.7002 8.37548 17.77 8.44925C17.8399 8.52291 17.8744 8.62148 17.8652 8.72089L16.9173 18.7732C16.8483 19.5058 16.2111 20.0667 15.448 20.0667H8.55345C7.79038 20.0667 7.15317 19.5058 7.08412 18.7732L6.1348 8.72089C6.12545 8.62118 6.16014 8.5223 6.23035 8.44852C6.30055 8.37475 6.39976 8.33293 6.50361 8.33334ZM9.86663 17.9333C10.1612 17.9333 10.4 17.6946 10.4 17.4V11C10.4 10.7054 10.1612 10.4667 9.86663 10.4667C9.57208 10.4667 9.3333 10.7054 9.3333 11V17.4C9.3333 17.6946 9.57208 17.9333 9.86663 17.9333ZM14.6667 17.4C14.6667 17.6946 14.4279 17.9333 14.1333 17.9333C13.8388 17.9333 13.6 17.6946 13.6 17.4V11C13.6 10.7054 13.8388 10.4667 14.1333 10.4667C14.4279 10.4667 14.6667 10.7054 14.6667 11V17.4Z" fill="#161616"/>
</svg>
