<svg width="24" height="24" viewBox="0 0 24 24" fill="none" xmlns="http://www.w3.org/2000/svg">
<path fill-rule="evenodd" clip-rule="evenodd" d="M17.6569 6.34613C14.5314 3.21665 9.46546 3.21815 6.34178 6.34947C3.21811 9.48078 3.2196 14.5562 6.34511 17.6856C9.41519 20.6957 14.2982 20.7769 17.4663 17.8706C18.135 17.2441 18.692 16.5078 19.1134 15.6935C19.5162 14.9101 19.7865 14.0652 19.9133 13.1932C19.9705 12.8034 19.9995 12.4099 20 12.0159C20.0058 9.88837 19.1621 7.84689 17.6569 6.34613ZM7.52967 7.52014C9.73075 5.36066 13.1533 5.07384 15.6819 6.83696C15.7235 6.86733 15.7497 6.91439 15.7536 6.96576C15.7576 7.01713 15.739 7.06767 15.7026 7.10409L7.11306 15.7136C7.0766 15.7498 7.02621 15.7683 6.97501 15.7644C6.92382 15.7604 6.87688 15.7343 6.84643 15.6929C5.04975 13.1675 5.33872 9.71091 7.52967 7.52014ZM16.4998 16.5116C14.3112 18.6988 10.8677 18.9874 8.34685 17.1948C8.30522 17.1645 8.27888 17.1175 8.27478 17.0661C8.27068 17.0148 8.28922 16.9642 8.32552 16.9277L16.9157 8.31751C16.9522 8.28128 17.0026 8.26274 17.0538 8.26672C17.105 8.27069 17.1519 8.29679 17.1823 8.33822C18.9798 10.8634 18.6913 14.3204 16.5004 16.5116H16.4998Z" fill="#161616"/>
</svg>
