<svg width="24" height="24" viewBox="0 0 24 24" fill="none" xmlns="http://www.w3.org/2000/svg">
<path fill-rule="evenodd" clip-rule="evenodd" d="M16.2427 7.75959C13.8986 5.41249 10.0991 5.41361 7.75634 7.7621C5.41358 10.1106 5.4147 13.9171 7.75884 16.2642C10.0614 18.5218 13.7236 18.5827 16.0997 16.403C16.6012 15.9331 17.019 15.3809 17.3351 14.7701C17.6371 14.1826 17.8399 13.5489 17.935 12.8949C17.9779 12.6025 17.9996 12.3074 18 12.0119C18.0043 10.4163 17.3716 8.88517 16.2427 7.75959ZM8.64725 8.6401C10.2981 7.0205 12.865 6.80538 14.7614 8.12772C14.7926 8.1505 14.8123 8.18579 14.8152 8.22432C14.8182 8.26285 14.8042 8.30075 14.7769 8.32807L8.33479 14.7852C8.30745 14.8123 8.26966 14.8262 8.23126 14.8233C8.19286 14.8203 8.15766 14.8007 8.13482 14.7696C6.78731 12.8756 7.00404 10.2832 8.64725 8.6401ZM15.3748 15.3837C13.7334 17.0241 11.1508 17.2405 9.26014 15.8961C9.22891 15.8734 9.20916 15.8381 9.20608 15.7996C9.20301 15.7611 9.21691 15.7231 9.24414 15.6957L15.6868 9.23813C15.7141 9.21096 15.7519 9.19706 15.7903 9.20004C15.8287 9.20302 15.8639 9.22259 15.8868 9.25366C17.2348 11.1476 17.0185 13.7403 15.3753 15.3837H15.3748Z" fill="#161616"/>
</svg>
