<svg width="24" height="24" viewBox="0 0 24 24" fill="none" xmlns="http://www.w3.org/2000/svg">
<path fill-rule="evenodd" clip-rule="evenodd" d="M17.4545 8.13333H14.8636C14.7883 8.13333 14.7273 8.07364 14.7273 8V7.33333C14.7273 6.59695 14.1168 6 13.3636 6H10.6364C9.88325 6 9.27273 6.59695 9.27273 7.33333V8C9.27273 8.03536 9.25836 8.06928 9.23279 8.09428C9.20721 8.11929 9.17253 8.13333 9.13636 8.13333H6.54545C6.24421 8.13333 6 8.37211 6 8.66667C6 8.96122 6.24421 9.2 6.54545 9.2H17.4545C17.7558 9.2 18 8.96122 18 8.66667C18 8.37211 17.7558 8.13333 17.4545 8.13333ZM10.4 7.5V7C10.4 6.88954 10.5194 6.8 10.6667 6.8H13.3333C13.4806 6.8 13.6 6.88954 13.6 7V7.5C13.6 7.55523 13.5403 7.6 13.4667 7.6H10.5333C10.4597 7.6 10.4 7.55523 10.4 7.5ZM7.87771 10H16.1234C16.2011 10.0001 16.2751 10.0316 16.3275 10.0869C16.3799 10.1422 16.4058 10.2161 16.3989 10.2907L15.688 17.8299C15.6362 18.3793 15.1583 18.8001 14.586 18.8H9.41509C8.84278 18.8001 8.36488 18.3793 8.31309 17.8299L7.6011 10.2907C7.59409 10.2159 7.62011 10.1417 7.67276 10.0864C7.72541 10.0311 7.79982 9.9997 7.87771 10ZM10.4 17.2C10.6209 17.2 10.8 17.0209 10.8 16.8V12C10.8 11.7791 10.6209 11.6 10.4 11.6C10.1791 11.6 9.99998 11.7791 9.99998 12V16.8C9.99998 17.0209 10.1791 17.2 10.4 17.2ZM14 16.8C14 17.0209 13.8209 17.2 13.6 17.2C13.3791 17.2 13.2 17.0209 13.2 16.8V12C13.2 11.7791 13.3791 11.6 13.6 11.6C13.8209 11.6 14 11.7791 14 12V16.8Z" fill="#161616"/>
</svg>
