<svg width="24" height="24" viewBox="0 0 24 24" fill="none" xmlns="http://www.w3.org/2000/svg">
<path d="M19.8163 6.20209L17.8829 4.28238C17.7485 4.14845 17.5773 4.05691 17.3907 4.01924C17.2041 3.98158 17.0105 3.99946 16.8341 4.07066C16.6577 4.14186 16.5064 4.26319 16.3992 4.41944C16.292 4.57569 16.2336 4.75989 16.2315 4.94894V5.75549C16.2315 5.79968 16.2138 5.84207 16.1823 5.87332C16.1508 5.90457 16.1081 5.92213 16.0636 5.92213C15.3219 5.92247 14.5898 6.08862 13.9215 6.40825C13.2533 6.72789 12.6661 7.1928 12.2035 7.76852C12.1878 7.78681 12.1682 7.8015 12.1462 7.81157C12.1242 7.82164 12.1002 7.82685 12.076 7.82685C12.0517 7.82685 12.0278 7.82164 12.0058 7.81157C11.9838 7.8015 11.9642 7.78681 11.9484 7.76852C11.4823 7.18839 10.8898 6.72081 10.2153 6.40099C9.54089 6.08117 8.80217 5.91744 8.05478 5.92213H8.0145C7.96999 5.92213 7.9273 5.90457 7.89583 5.87332C7.86435 5.84207 7.84667 5.79968 7.84667 5.75549V4.96227C7.84583 4.77345 7.78891 4.58908 7.68305 4.43221C7.57719 4.27535 7.42709 4.15298 7.25153 4.08041C7.07597 4.00783 6.88275 3.98828 6.69605 4.02421C6.50936 4.06014 6.33748 4.14994 6.20193 4.28238L4.26853 6.20209C4.09615 6.3818 4 6.62047 4 6.86865C4 7.11683 4.09615 7.3555 4.26853 7.53522L6.20193 9.48159C6.38196 9.6559 6.62186 9.75594 6.87325 9.76155C6.99988 9.76038 7.12514 9.7355 7.24248 9.68823C7.42173 9.61778 7.57567 9.49573 7.68453 9.33776C7.79338 9.17978 7.85219 8.9931 7.85338 8.80169V8.00181C7.85504 7.95991 7.87255 7.92017 7.90241 7.89052C7.93227 7.86087 7.9723 7.84348 8.0145 7.84184C8.81516 7.8436 9.58252 8.16019 10.1487 8.72233C10.7148 9.28447 11.0337 10.0464 11.0354 10.8414V19.0401C11.0354 19.2947 11.1373 19.5389 11.3186 19.7189C11.4999 19.8989 11.7458 20 12.0021 20C12.2585 20 12.5044 19.8989 12.6857 19.7189C12.867 19.5389 12.9688 19.2947 12.9688 19.0401V10.8414C12.9706 10.0464 13.2895 9.28447 13.8556 8.72233C14.4218 8.16019 15.1891 7.8436 15.9898 7.84184V7.84184C16.0343 7.84184 16.077 7.8594 16.1085 7.89065C16.1399 7.9219 16.1576 7.96428 16.1576 8.00848V8.80169C16.1577 8.99157 16.2146 9.17715 16.3209 9.33496C16.4273 9.49276 16.5784 9.6157 16.7551 9.68823C16.8724 9.7355 16.9977 9.76038 17.1243 9.76155C17.3757 9.75594 17.6156 9.6559 17.7956 9.48159L19.7291 7.56188C19.9014 7.38216 19.9976 7.1435 19.9976 6.89532C19.9976 6.64714 19.9014 6.40847 19.7291 6.22875L19.8163 6.20209Z" fill="#161616"/>
</svg>
