<svg width="24" height="24" viewBox="0 0 24 24" fill="none" xmlns="http://www.w3.org/2000/svg">
<path d="M17.8622 7.65156L16.4122 6.21178C16.3114 6.11133 16.183 6.04268 16.043 6.01443C15.9031 5.98618 15.7578 5.9996 15.6256 6.053C15.4933 6.10639 15.3798 6.19739 15.2994 6.31458C15.219 6.43177 15.1752 6.56992 15.1736 6.71171V7.31662C15.1736 7.34976 15.1603 7.38155 15.1367 7.40499C15.1131 7.42843 15.0811 7.4416 15.0477 7.4416C14.4914 7.44185 13.9423 7.56646 13.4412 7.80619C12.94 8.04591 12.4996 8.3946 12.1527 8.82639C12.1408 8.84011 12.1262 8.85112 12.1097 8.85868C12.0931 8.86623 12.0752 8.87014 12.057 8.87014C12.0388 8.87014 12.0208 8.86623 12.0043 8.85868C11.9878 8.85112 11.9731 8.84011 11.9613 8.82639C11.6118 8.39129 11.1673 8.04061 10.6615 7.80074C10.1557 7.56088 9.60163 7.43808 9.04108 7.4416H9.01088C8.97749 7.4416 8.94548 7.42843 8.92187 7.40499C8.89826 7.38155 8.885 7.34976 8.885 7.31662V6.72171C8.88437 6.58009 8.84168 6.44181 8.76229 6.32416C8.68289 6.20652 8.57032 6.11473 8.43865 6.0603C8.30697 6.00587 8.16206 5.99121 8.02204 6.01816C7.88202 6.0451 7.75311 6.11245 7.65145 6.21178L6.2014 7.65156C6.07211 7.78635 6 7.96535 6 8.15149C6 8.33762 6.07211 8.51663 6.2014 8.65141L7.65145 10.1112C7.78647 10.2419 7.9664 10.317 8.15494 10.3212C8.24991 10.3203 8.34386 10.3016 8.43186 10.2662C8.5663 10.2133 8.68175 10.1218 8.76339 10.0033C8.84504 9.88484 8.88914 9.74483 8.89004 9.60127V9.00136C8.89128 8.96993 8.90441 8.94013 8.92681 8.91789C8.94921 8.89565 8.97922 8.88261 9.01088 8.88138C9.61137 8.8827 10.1869 9.12014 10.6115 9.54175C11.0361 9.96336 11.2753 10.5348 11.2766 11.131V17.2801C11.2766 17.471 11.353 17.6541 11.4889 17.7891C11.6249 17.9242 11.8093 18 12.0016 18C12.1939 18 12.3783 17.9242 12.5143 17.7891C12.6503 17.6541 12.7266 17.471 12.7266 17.2801V11.131C12.728 10.5348 12.9671 9.96336 13.3917 9.54175C13.8163 9.12014 14.3919 8.8827 14.9923 8.88138V8.88138C15.0257 8.88138 15.0577 8.89455 15.0814 8.91799C15.105 8.94142 15.1182 8.97321 15.1182 9.00636V9.60127C15.1183 9.74368 15.1609 9.88286 15.2407 10.0012C15.3204 10.1196 15.4338 10.2118 15.5663 10.2662C15.6543 10.3016 15.7483 10.3203 15.8432 10.3212C16.0318 10.317 16.2117 10.2419 16.3467 10.1112L17.7968 8.67141C17.9261 8.53662 17.9982 8.35762 17.9982 8.17149C17.9982 7.98535 17.9261 7.80635 17.7968 7.67156L17.8622 7.65156Z" fill="#161616"/>
</svg>
