<svg width="24" height="24" viewBox="0 0 24 24" fill="none" xmlns="http://www.w3.org/2000/svg">
<path d="M21.7734 4.74997L19.3563 2.34997C19.1883 2.18253 18.9742 2.06809 18.7409 2.021C18.5076 1.97391 18.2655 1.99628 18.045 2.08529C17.8245 2.1743 17.6353 2.32599 17.5013 2.52133C17.3673 2.71667 17.2944 2.94696 17.2916 3.18331V4.19164C17.2916 4.24689 17.2695 4.29988 17.2302 4.33895C17.1908 4.37802 17.1375 4.39997 17.0818 4.39997C16.1545 4.4004 15.2392 4.60812 14.4038 5.00772C13.5684 5.40732 12.8343 5.98856 12.256 6.70831C12.2363 6.73118 12.2118 6.74954 12.1843 6.76213C12.1568 6.77472 12.1268 6.78124 12.0965 6.78124C12.0662 6.78124 12.0363 6.77472 12.0087 6.76213C11.9812 6.74954 11.9568 6.73118 11.9371 6.70831C11.3543 5.98304 10.6135 5.39848 9.77034 4.99864C8.92716 4.59881 8.00362 4.39411 7.06924 4.39997H7.01888C6.96324 4.39997 6.90987 4.37802 6.87052 4.33895C6.83117 4.29988 6.80906 4.24689 6.80906 4.19164V3.19997C6.80801 2.96391 6.73686 2.7334 6.60451 2.5373C6.47217 2.34119 6.28451 2.1882 6.06502 2.09747C5.84554 2.00674 5.60398 1.9823 5.37057 2.02722C5.13717 2.07213 4.92229 2.1844 4.75283 2.34997L2.33571 4.74997C2.1202 4.97465 2 5.27303 2 5.58331C2 5.89358 2.1202 6.19196 2.33571 6.41664L4.75283 8.84997C4.97791 9.06789 5.27783 9.19296 5.59211 9.19997C5.75041 9.19851 5.90702 9.16741 6.05371 9.10831C6.27781 9.02024 6.47026 8.86765 6.60635 8.67015C6.74245 8.47266 6.81596 8.23927 6.81746 7.99997V6.99997C6.81953 6.94759 6.84141 6.8979 6.87875 6.86083C6.91609 6.82376 6.96612 6.80203 7.01888 6.79997C8.01986 6.80217 8.9792 7.19797 9.687 7.90075C10.3948 8.60354 10.7934 9.55609 10.7956 10.55V20.8C10.7956 21.1182 10.923 21.4235 11.1496 21.6485C11.3763 21.8735 11.6837 22 12.0042 22C12.3247 22 12.6321 21.8735 12.8588 21.6485C13.0854 21.4235 13.2128 21.1182 13.2128 20.8V10.55C13.215 9.55609 13.6136 8.60354 14.3214 7.90075C15.0292 7.19797 15.9885 6.80217 16.9895 6.79997V6.79997C17.0452 6.79997 17.0985 6.82192 17.1379 6.86099C17.1772 6.90006 17.1993 6.95305 17.1993 7.00831V7.99997C17.1995 8.23736 17.2705 8.46937 17.4035 8.66665C17.5364 8.86394 17.7253 9.01764 17.9463 9.10831C18.093 9.16741 18.2496 9.19851 18.4079 9.19997C18.7222 9.19296 19.0221 9.06789 19.2472 8.84997L21.6643 6.44997C21.8798 6.22529 22 5.92691 22 5.61664C22 5.30637 21.8798 5.00799 21.6643 4.78331L21.7734 4.74997Z" fill="#161616"/>
</svg>
