<svg width="24" height="24" viewBox="0 0 24 24" fill="none" xmlns="http://www.w3.org/2000/svg">
<path fill-rule="evenodd" clip-rule="evenodd" d="M16.9837 2.83344C18.1475 1.72219 19.9782 1.72219 21.1419 2.83344C22.286 3.98282 22.286 5.84186 21.1419 6.99124L20.5467 7.5895C20.3839 7.75237 20.1201 7.75237 19.9573 7.5895L16.3902 4.01829C16.2275 3.85537 16.2275 3.59128 16.3902 3.42837L16.9837 2.83344ZM15.489 4.91443C15.3237 4.75772 15.0649 4.75772 14.8996 4.91443L5.38534 14.4374C5.22263 14.6003 5.22263 14.8644 5.38534 15.0273L8.95331 18.5985C9.11607 18.7614 9.37992 18.7614 9.54269 18.5985L19.057 9.07723C19.2197 8.91431 19.2197 8.65023 19.057 8.48731L15.489 4.91443ZM4.49587 15.9276C4.39318 15.8255 4.24488 15.7839 4.10414 15.818C3.9634 15.852 3.85039 15.9567 3.80562 16.0945L2.02164 21.4513C1.97143 21.6012 2.01016 21.7666 2.12167 21.8785C2.2341 21.989 2.39853 22.0279 2.54849 21.9795L7.90044 20.1947C8.03846 20.15 8.14335 20.0368 8.17738 19.8956C8.2114 19.7545 8.16965 19.6058 8.06716 19.503L4.49587 15.9276Z" fill="#161616"/>
</svg>
