<svg width="24" height="24" viewBox="0 0 24 24" fill="none" xmlns="http://www.w3.org/2000/svg">
<path fill-rule="evenodd" clip-rule="evenodd" d="M14.9903 6.50007C15.6885 5.83331 16.7869 5.83331 17.4852 6.50007C18.1716 7.18969 18.1716 8.30512 17.4852 8.99474L17.128 9.3537C17.0304 9.45142 16.8721 9.45142 16.7744 9.3537L14.6341 7.21097C14.5365 7.11322 14.5365 6.95477 14.6341 6.85702L14.9903 6.50007ZM14.0934 7.74866C13.9942 7.65463 13.8389 7.65463 13.7397 7.74866L8.03117 13.4624C7.93354 13.5602 7.93354 13.7186 8.03117 13.8164L10.1719 15.9591C10.2696 16.0568 10.4279 16.0568 10.5256 15.9591L16.2341 10.2463C16.3318 10.1486 16.3318 9.99014 16.2341 9.89239L14.0934 7.74866ZM7.49752 14.3566C7.43591 14.2953 7.34693 14.2704 7.26249 14.2908C7.17804 14.3112 7.11023 14.374 7.08337 14.4567L6.01298 17.6708C5.98286 17.7607 6.0061 17.86 6.073 17.9271C6.14046 17.9934 6.23912 18.0168 6.3291 17.9877L9.54026 16.9168C9.62308 16.89 9.68601 16.8221 9.70643 16.7374C9.72684 16.6527 9.70179 16.5635 9.6403 16.5018L7.49752 14.3566Z" fill="#161616"/>
</svg>
