<svg width="24" height="24" viewBox="0 0 24 24" fill="none" xmlns="http://www.w3.org/2000/svg">
<path fill-rule="evenodd" clip-rule="evenodd" d="M15.987 4.66676C16.918 3.77775 18.3826 3.77775 19.3136 4.66676C20.2289 5.58626 20.2289 7.07349 19.3136 7.99299L18.8374 8.4716C18.7072 8.60189 18.4961 8.60189 18.3659 8.4716L15.5122 5.61463C15.382 5.4843 15.382 5.27303 15.5122 5.14269L15.987 4.66676ZM14.7912 6.33154C14.659 6.20617 14.4519 6.20617 14.3197 6.33154L6.70828 13.9499C6.5781 14.0802 6.5781 14.2915 6.70828 14.4218L9.56264 17.2788C9.69286 17.4091 9.90394 17.4091 10.0341 17.2788L17.6456 9.66178C17.7758 9.53145 17.7758 9.32018 17.6456 9.18985L14.7912 6.33154ZM5.99669 15.1421C5.91455 15.0604 5.79591 15.0272 5.68331 15.0544C5.57072 15.0816 5.48031 15.1653 5.44449 15.2756L4.01731 19.5611C3.97714 19.681 4.00813 19.8133 4.09734 19.9028C4.18728 19.9912 4.31883 20.0224 4.43879 19.9836L8.72035 18.5558C8.83077 18.52 8.91468 18.4294 8.9419 18.3165C8.96912 18.2036 8.93572 18.0846 8.85373 18.0024L5.99669 15.1421Z" fill="#161616"/>
</svg>
