<svg width="24" height="24" viewBox="0 0 24 24" fill="none" xmlns="http://www.w3.org/2000/svg">
<path fill-rule="evenodd" clip-rule="evenodd" d="M6.58354 3.25H20.3335C20.7756 3.25 21.1995 3.42559 21.5121 3.73816C21.8246 4.05072 22.0002 4.47464 22.0002 4.91667V16.1667C22.0002 16.6087 21.8246 17.0326 21.5121 17.3452C21.1995 17.6577 20.7756 17.8333 20.3335 17.8333H6.58354C6.14151 17.8333 5.71759 17.6577 5.40503 17.3452C5.09246 17.0326 4.91687 16.6087 4.91687 16.1667V4.91667C4.91687 4.47464 5.09246 4.05072 5.40503 3.73816C5.71759 3.42559 6.14151 3.25 6.58354 3.25ZM20.2115 5.03871C20.1334 4.96057 20.0274 4.91667 19.9169 4.91667H7.0002C6.8897 4.91667 6.78372 4.96057 6.70558 5.03871C6.62744 5.11685 6.58354 5.22283 6.58354 5.33333V5.47583C6.5835 5.54621 6.60129 5.61544 6.63524 5.67708C6.66919 5.73872 6.7182 5.79075 6.7777 5.82833L13.426 10.0267C13.4941 10.0696 13.5731 10.0918 13.6536 10.0908C13.734 10.0898 13.8124 10.0655 13.8794 10.0208L20.1477 5.84667C20.2048 5.80865 20.2517 5.75712 20.2841 5.69664C20.3165 5.63616 20.3335 5.56862 20.3335 5.5V5.33333C20.3335 5.22283 20.2896 5.11685 20.2115 5.03871ZM6.70558 16.0446C6.78372 16.1228 6.8897 16.1667 7.0002 16.1667H19.9169C20.0274 16.1667 20.1334 16.1228 20.2115 16.0446C20.2896 15.9665 20.3335 15.8605 20.3335 15.75V8.5C20.3332 8.42477 20.3125 8.35104 20.2736 8.28663C20.2348 8.22222 20.1792 8.16953 20.1128 8.13415C20.0464 8.09878 19.9717 8.08204 19.8965 8.08571C19.8214 8.08938 19.7487 8.11332 19.686 8.155L14.1294 11.86C13.9922 11.9509 13.8314 11.9996 13.6669 12C13.5097 12 13.3557 11.9555 13.2227 11.8717L7.2227 8.08333C7.1599 8.04367 7.08764 8.02151 7.01339 8.01915C6.93915 8.0168 6.86563 8.03434 6.80044 8.06995C6.73525 8.10556 6.68076 8.15795 6.64263 8.2217C6.60449 8.28544 6.58409 8.35822 6.58354 8.4325V15.75C6.58354 15.8605 6.62744 15.9665 6.70558 16.0446ZM4.08333 19.0833H18.25C18.471 19.0833 18.683 19.1711 18.8393 19.3274C18.9955 19.4837 19.0833 19.6957 19.0833 19.9167C19.0833 20.1377 18.9955 20.3497 18.8393 20.5059C18.683 20.6622 18.471 20.75 18.25 20.75H3.66667C3.22464 20.75 2.80072 20.5744 2.48816 20.2619C2.17559 19.9493 2 19.5254 2 19.0833V7.00001C2 6.779 2.0878 6.56704 2.24408 6.41076C2.40036 6.25448 2.61232 6.16668 2.83333 6.16668C3.05435 6.16668 3.26631 6.25448 3.42259 6.41076C3.57887 6.56704 3.66667 6.779 3.66667 7.00001V18.6667C3.66667 18.7772 3.71057 18.8832 3.78871 18.9613C3.86685 19.0394 3.97283 19.0833 4.08333 19.0833Z" fill="#161616"/>
</svg>
