<svg width="24" height="24" viewBox="0 0 24 24" fill="none" xmlns="http://www.w3.org/2000/svg">
<path fill-rule="evenodd" clip-rule="evenodd" d="M7.66674 5H18.6667C19.0204 5 19.3595 5.14048 19.6096 5.39052C19.8596 5.64057 20.0001 5.97971 20.0001 6.33333V15.3333C20.0001 15.687 19.8596 16.0261 19.6096 16.2761C19.3595 16.5262 19.0204 16.6667 18.6667 16.6667H7.66674C7.31312 16.6667 6.97398 16.5262 6.72393 16.2761C6.47388 16.0261 6.33341 15.687 6.33341 15.3333V6.33333C6.33341 5.97971 6.47388 5.64057 6.72393 5.39052C6.97398 5.14048 7.31312 5 7.66674 5ZM18.5691 6.43096C18.5066 6.36845 18.4218 6.33333 18.3334 6.33333H8.00007C7.91167 6.33333 7.82688 6.36845 7.76437 6.43096C7.70186 6.49348 7.66674 6.57826 7.66674 6.66667V6.78067C7.66671 6.83696 7.68094 6.89235 7.7081 6.94166C7.73527 6.99098 7.77447 7.0326 7.82207 7.06267L13.1407 10.4213C13.1952 10.4557 13.2584 10.4735 13.3228 10.4726C13.3871 10.4718 13.4499 10.4524 13.5034 10.4167L18.5181 7.07733C18.5638 7.04692 18.6013 7.00569 18.6272 6.95731C18.6531 6.90893 18.6667 6.85489 18.6667 6.8V6.66667C18.6667 6.57826 18.6316 6.49348 18.5691 6.43096ZM7.76437 15.2357C7.82688 15.2982 7.91167 15.3333 8.00007 15.3333H18.3334C18.4218 15.3333 18.5066 15.2982 18.5691 15.2357C18.6316 15.1732 18.6667 15.0884 18.6667 15V9.2C18.6665 9.13982 18.6499 9.08083 18.6188 9.0293C18.5877 8.97777 18.5433 8.93562 18.4902 8.90732C18.437 8.87902 18.3773 8.86563 18.3171 8.86857C18.257 8.8715 18.1988 8.89066 18.1487 8.924L13.7034 11.888C13.5937 11.9607 13.465 11.9997 13.3334 12C13.2077 12 13.0845 11.9644 12.9781 11.8973L8.17807 8.86667C8.12783 8.83493 8.07002 8.81721 8.01062 8.81532C7.95123 8.81344 7.89241 8.82747 7.84026 8.85596C7.78811 8.88445 7.74452 8.92636 7.71401 8.97736C7.68351 9.02835 7.66718 9.08658 7.66674 9.146V15C7.66674 15.0884 7.70186 15.1732 7.76437 15.2357ZM5.66667 17.6667H17C17.1768 17.6667 17.3464 17.7369 17.4714 17.8619C17.5964 17.987 17.6667 18.1565 17.6667 18.3333C17.6667 18.5101 17.5964 18.6797 17.4714 18.8047C17.3464 18.9298 17.1768 19 17 19H5.33334C4.97972 19 4.64058 18.8595 4.39053 18.6095C4.14048 18.3594 4.00001 18.0203 4.00001 17.6667V8C4.00001 7.82319 4.07025 7.65362 4.19527 7.5286C4.32029 7.40358 4.48986 7.33334 4.66667 7.33334C4.84349 7.33334 5.01305 7.40358 5.13808 7.5286C5.2631 7.65362 5.33334 7.82319 5.33334 8V17.3333C5.33334 17.4217 5.36846 17.5065 5.43097 17.569C5.49348 17.6316 5.57827 17.6667 5.66667 17.6667Z" fill="#161616"/>
</svg>
