<svg width="24" height="24" viewBox="0 0 24 24" fill="none" xmlns="http://www.w3.org/2000/svg">
<path fill-rule="evenodd" clip-rule="evenodd" d="M8.75009 6.74998H17.0001C17.2653 6.74998 17.5197 6.85534 17.7072 7.04288C17.8948 7.23042 18.0001 7.48477 18.0001 7.74999V14.5C18.0001 14.7652 17.8948 15.0196 17.7072 15.2071C17.5197 15.3947 17.2653 15.5 17.0001 15.5H8.75009C8.48488 15.5 8.23052 15.3947 8.04299 15.2071C7.85545 15.0196 7.75009 14.7652 7.75009 14.5V7.74999C7.75009 7.48477 7.85545 7.23042 8.04299 7.04288C8.23052 6.85534 8.48488 6.74998 8.75009 6.74998ZM16.9269 7.82321C16.88 7.77633 16.8164 7.74999 16.7501 7.74999H9.0001C8.93379 7.74999 8.8702 7.77633 8.82332 7.82321C8.77643 7.8701 8.75009 7.93368 8.75009 7.99999V8.08549C8.75007 8.12771 8.76075 8.16925 8.78112 8.20624C8.80149 8.24322 8.8309 8.27444 8.86659 8.29699L12.8556 10.816C12.8964 10.8417 12.9439 10.8551 12.9921 10.8545C13.0404 10.8539 13.0874 10.8393 13.1276 10.8125L16.8886 8.30799C16.9229 8.28518 16.951 8.25426 16.9705 8.21797C16.9899 8.18169 17.0001 8.14116 17.0001 8.09999V7.99999C17.0001 7.93368 16.9738 7.8701 16.9269 7.82321ZM8.82332 14.4268C8.8702 14.4737 8.93379 14.5 9.0001 14.5H16.7501C16.8164 14.5 16.88 14.4737 16.9269 14.4268C16.9738 14.3799 17.0001 14.3163 17.0001 14.25V9.89999C16.9999 9.85486 16.9875 9.81062 16.9642 9.77197C16.9409 9.73332 16.9075 9.70171 16.8677 9.68048C16.8278 9.65926 16.783 9.64922 16.7379 9.65142C16.6928 9.65362 16.6492 9.66799 16.6116 9.69299L13.2776 11.916C13.1953 11.9705 13.0988 11.9998 13.0001 12C12.9058 12 12.8134 11.9733 12.7336 11.923L9.1336 9.64999C9.09591 9.62619 9.05256 9.6129 9.00801 9.61148C8.96346 9.61007 8.91935 9.62059 8.88023 9.64196C8.84112 9.66333 8.80843 9.69476 8.78555 9.73301C8.76267 9.77126 8.75043 9.81493 8.75009 9.85949V14.25C8.75009 14.3163 8.77643 14.3799 8.82332 14.4268ZM7.25 16.25H15.75C15.8826 16.25 16.0098 16.3027 16.1036 16.3965C16.1973 16.4902 16.25 16.6174 16.25 16.75C16.25 16.8826 16.1973 17.0098 16.1036 17.1036C16.0098 17.1973 15.8826 17.25 15.75 17.25H7C6.73479 17.25 6.48043 17.1447 6.29289 16.9571C6.10536 16.7696 6 16.5152 6 16.25V9C6 8.86739 6.05268 8.74021 6.14645 8.64645C6.24022 8.55268 6.36739 8.5 6.5 8.5C6.63261 8.5 6.75979 8.55268 6.85356 8.64645C6.94732 8.74021 7 8.86739 7 9V16C7 16.0663 7.02634 16.1299 7.07323 16.1768C7.12011 16.2237 7.1837 16.25 7.25 16.25Z" fill="#161616"/>
</svg>
