<svg width="20" height="18" viewBox="0 0 20 18" fill="none" xmlns="http://www.w3.org/2000/svg">
<path fill-rule="evenodd" clip-rule="evenodd" d="M11.9175 15.7336C12.0736 15.5766 12.2854 15.4884 12.5062 15.4884H17.5021C17.7229 15.4884 17.9347 15.4002 18.0908 15.2432C18.247 15.0862 18.3347 14.8732 18.3347 14.6512V4.39535C18.3347 4.33984 18.3128 4.2866 18.2737 4.24735C18.2347 4.2081 18.1817 4.18605 18.1265 4.18605H1.89008C1.83488 4.18605 1.78193 4.2081 1.74289 4.24735C1.70385 4.2866 1.68192 4.33984 1.68192 4.39535V10.4651C1.68192 10.6872 1.5942 10.9001 1.43805 11.0571C1.2819 11.2141 1.07011 11.3023 0.849285 11.3023C0.628455 11.3023 0.41667 11.2141 0.26052 11.0571C0.10437 10.9001 0.016646 10.6872 0.016646 10.4651V2.51163C0.016646 1.8455 0.279819 1.20666 0.748269 0.735639C1.21672 0.264617 1.85207 0 2.51456 0H17.5021C18.1645 0 18.7999 0.264617 19.2684 0.735639C19.7368 1.20666 20 1.8455 20 2.51163V14.6512C20 15.3173 19.7368 15.9561 19.2684 16.4272C18.7999 16.8982 18.1645 17.1628 17.5021 17.1628H12.5062C12.2854 17.1628 12.0736 17.0746 11.9175 16.9176C11.7613 16.7606 11.6736 16.5476 11.6736 16.3256C11.6736 16.1035 11.7613 15.8906 11.9175 15.7336ZM8.33695 1.38873C8.21394 1.45683 8.11005 1.55511 8.03496 1.67442C7.95366 1.79873 7.91033 1.94425 7.91033 2.09302C7.91033 2.2418 7.95366 2.38732 8.03496 2.51163C8.11005 2.63094 8.21394 2.72922 8.33695 2.79732C8.45997 2.86541 8.59811 2.90113 8.73854 2.90113C8.87896 2.90113 9.01711 2.86541 9.14012 2.79732C9.26314 2.72922 9.36702 2.63094 9.44212 2.51163C9.52281 2.38651 9.5688 2.242 9.57534 2.09302C9.5688 1.94405 9.52281 1.79953 9.44212 1.67442C9.36702 1.55511 9.26314 1.45683 9.14012 1.38873C9.01711 1.32063 8.87896 1.28492 8.73854 1.28492C8.59811 1.28492 8.45997 1.32063 8.33695 1.38873ZM5.42272 1.38873C5.2997 1.45683 5.19582 1.55511 5.12072 1.67442C5.03942 1.79873 4.9961 1.94425 4.9961 2.09302C4.9961 2.2418 5.03942 2.38732 5.12072 2.51163C5.19582 2.63094 5.2997 2.72922 5.42272 2.79732C5.54573 2.86541 5.68388 2.90113 5.8243 2.90113C5.96473 2.90113 6.10287 2.86541 6.22589 2.79732C6.3489 2.72922 6.45279 2.63094 6.52788 2.51163C6.60857 2.38651 6.65456 2.242 6.6611 2.09302C6.65456 1.94405 6.60857 1.79953 6.52788 1.67442C6.45279 1.55511 6.3489 1.45683 6.22589 1.38873C6.10287 1.32063 5.96473 1.28492 5.8243 1.28492C5.68388 1.28492 5.54573 1.32063 5.42272 1.38873ZM2.463 1.39054C2.3286 1.47815 2.2222 1.60288 2.15653 1.74977C2.09987 1.87058 2.07472 2.00391 2.08346 2.1372C2.0922 2.27048 2.13454 2.39934 2.20649 2.51163C2.28158 2.63094 2.38547 2.72922 2.50848 2.79732C2.63149 2.86541 2.76964 2.90113 2.91007 2.90113C3.05049 2.90113 3.18864 2.86541 3.31165 2.79732C3.43466 2.72922 3.53855 2.63094 3.61365 2.51163C3.69434 2.38651 3.74033 2.242 3.74687 2.09302C3.74033 1.94405 3.69434 1.79953 3.61365 1.67442C3.54244 1.55029 3.44074 1.44662 3.31827 1.37333C3.19581 1.30003 3.05669 1.25957 2.91423 1.25581C2.75406 1.25615 2.59739 1.30293 2.463 1.39054ZM8.8094 7.37582C8.8395 7.30193 8.88997 7.23824 8.95489 7.19226C9.0198 7.14627 9.09644 7.11991 9.17576 7.11628H12.9226C13.0331 7.11628 13.1389 7.16039 13.217 7.23889C13.2951 7.31739 13.339 7.42387 13.339 7.53489V11.3023C13.3403 11.3843 13.3173 11.4647 13.2728 11.5334C13.2282 11.602 13.1643 11.6557 13.0892 11.6874C13.0126 11.7211 12.9277 11.7303 12.8458 11.7138C12.7639 11.6973 12.689 11.656 12.6312 11.5954L11.4988 10.4567C11.4794 10.4365 11.4561 10.4204 11.4304 10.4094C11.4046 10.3984 11.3769 10.3927 11.349 10.3927C11.321 10.3927 11.2933 10.3984 11.2675 10.4094C11.2418 10.4204 11.2185 10.4365 11.1991 10.4567L8.11831 13.5712C7.96231 13.7271 7.75127 13.8146 7.5313 13.8146C7.31133 13.8146 7.1003 13.7271 6.94429 13.5712C6.86625 13.4933 6.80431 13.4007 6.76203 13.2987C6.71976 13.1967 6.698 13.0873 6.698 12.9767C6.698 12.8662 6.71976 12.7568 6.76203 12.6548C6.80431 12.5528 6.86625 12.4602 6.94429 12.3823L10.0084 9.26791C10.0412 9.23107 10.0593 9.18338 10.0593 9.13396C10.0593 9.08453 10.0412 9.03684 10.0084 9.00001L8.90099 7.82791C8.84426 7.76929 8.80548 7.69552 8.78924 7.61538C8.773 7.53523 8.78 7.45208 8.8094 7.37582ZM7.49375 14.6511H0.832639C0.372785 14.6511 0 15.026 0 15.4884V17.1628C0 17.6252 0.372785 18 0.832639 18H7.49375C7.9536 18 8.32639 17.6252 8.32639 17.1628V15.4884C8.32639 15.026 7.9536 14.6511 7.49375 14.6511Z" fill="#161616"/>
</svg>
