<svg width="24" height="24" viewBox="0 0 24 24" fill="none" xmlns="http://www.w3.org/2000/svg">
<path fill-rule="evenodd" clip-rule="evenodd" d="M13.1504 16.0401C13.2441 15.9459 13.3711 15.893 13.5036 15.893H16.5011C16.6336 15.893 16.7607 15.8401 16.8544 15.7459C16.9481 15.6517 17.0007 15.5239 17.0007 15.3907V9.23719C17.0007 9.20388 16.9876 9.17194 16.9641 9.14839C16.9407 9.12483 16.9089 9.1116 16.8758 9.1116H7.13395C7.10083 9.1116 7.06906 9.12483 7.04564 9.14839C7.02221 9.17194 7.00905 9.20388 7.00905 9.23719V12.879C7.00905 13.0123 6.95642 13.14 6.86273 13.2342C6.76904 13.3284 6.64197 13.3814 6.50947 13.3814C6.37697 13.3814 6.2499 13.3284 6.15621 13.2342C6.06252 13.14 6.00989 13.0123 6.00989 12.879V8.10695C6.00989 7.70728 6.16779 7.32397 6.44886 7.04136C6.72993 6.75875 7.11114 6.59998 7.50864 6.59998H16.5011C16.8986 6.59998 17.2798 6.75875 17.5609 7.04136C17.842 7.32397 17.9999 7.70728 17.9999 8.10695V15.3907C17.9999 15.7903 17.842 16.1737 17.5609 16.4563C17.2798 16.7389 16.8986 16.8977 16.5011 16.8977H13.5036C13.3711 16.8977 13.2441 16.8447 13.1504 16.7505C13.0567 16.6563 13.0041 16.5286 13.0041 16.3953C13.0041 16.2621 13.0567 16.1343 13.1504 16.0401ZM11.0021 7.43321C10.9283 7.47407 10.8659 7.53304 10.8209 7.60463C10.7721 7.67921 10.7461 7.76652 10.7461 7.85579C10.7461 7.94506 10.7721 8.03237 10.8209 8.10695C10.8659 8.17854 10.9283 8.2375 11.0021 8.27836C11.0759 8.31922 11.1588 8.34065 11.243 8.34065C11.3273 8.34065 11.4102 8.31922 11.484 8.27836C11.5578 8.2375 11.6201 8.17854 11.6652 8.10695C11.7136 8.03188 11.7412 7.94517 11.7451 7.85579C11.7412 7.7664 11.7136 7.6797 11.6652 7.60463C11.6201 7.53304 11.5578 7.47407 11.484 7.43321C11.4102 7.39235 11.3273 7.37093 11.243 7.37093C11.1588 7.37093 11.0759 7.39235 11.0021 7.43321ZM9.25353 7.43321C9.17972 7.47407 9.11739 7.53304 9.07233 7.60463C9.02355 7.67921 8.99756 7.76652 8.99756 7.85579C8.99756 7.94506 9.02355 8.03237 9.07233 8.10695C9.11739 8.17854 9.17972 8.2375 9.25353 8.27836C9.32734 8.31922 9.41023 8.34065 9.49448 8.34065C9.57874 8.34065 9.66162 8.31922 9.73543 8.27836C9.80924 8.2375 9.87157 8.17854 9.91663 8.10695C9.96504 8.03188 9.99264 7.94517 9.99656 7.85579C9.99264 7.7664 9.96504 7.6797 9.91663 7.60463C9.87157 7.53304 9.80924 7.47407 9.73543 7.43321C9.66162 7.39235 9.57874 7.37093 9.49448 7.37093C9.41023 7.37093 9.32734 7.39235 9.25353 7.43321ZM7.4777 7.4343C7.39706 7.48687 7.33322 7.5617 7.29382 7.64984C7.25982 7.72233 7.24473 7.80232 7.24998 7.88229C7.25522 7.96227 7.28062 8.03958 7.32379 8.10695C7.36885 8.17854 7.43118 8.2375 7.50499 8.27836C7.5788 8.31922 7.66168 8.34065 7.74594 8.34065C7.8302 8.34065 7.91308 8.31922 7.98689 8.27836C8.0607 8.2375 8.12303 8.17854 8.16809 8.10695C8.2165 8.03188 8.2441 7.94517 8.24802 7.85579C8.2441 7.7664 8.2165 7.6797 8.16809 7.60463C8.12536 7.53015 8.06434 7.46795 7.99087 7.42397C7.91739 7.38 7.83392 7.35572 7.74844 7.35346C7.65234 7.35367 7.55833 7.38173 7.4777 7.4343ZM11.2856 11.0254C11.3037 10.9811 11.334 10.9429 11.3729 10.9153C11.4119 10.8877 11.4579 10.8719 11.5055 10.8697H13.7536C13.8198 10.8697 13.8834 10.8962 13.9302 10.9433C13.9771 10.9904 14.0034 11.0543 14.0034 11.1209V13.3813C14.0042 13.4305 13.9904 13.4788 13.9637 13.52C13.9369 13.5612 13.8986 13.5934 13.8535 13.6124C13.8076 13.6326 13.7566 13.6381 13.7075 13.6282C13.6583 13.6183 13.6134 13.5935 13.5787 13.5572L12.8993 12.874C12.8876 12.8618 12.8737 12.8522 12.8582 12.8456C12.8428 12.839 12.8262 12.8356 12.8094 12.8356C12.7926 12.8356 12.776 12.839 12.7605 12.8456C12.7451 12.8522 12.7311 12.8618 12.7194 12.874L10.871 14.7427C10.7774 14.8362 10.6508 14.8887 10.5188 14.8887C10.3868 14.8887 10.2602 14.8362 10.1666 14.7427C10.1197 14.696 10.0826 14.6404 10.0572 14.5792C10.0319 14.518 10.0188 14.4523 10.0188 14.386C10.0188 14.3197 10.0319 14.254 10.0572 14.1928C10.0826 14.1316 10.1197 14.076 10.1666 14.0293L12.005 12.1607C12.0247 12.1386 12.0356 12.11 12.0356 12.0803C12.0356 12.0507 12.0247 12.0221 12.005 12L11.3406 11.2967C11.3066 11.2615 11.2833 11.2173 11.2735 11.1692C11.2638 11.1211 11.268 11.0712 11.2856 11.0254ZM10.4962 15.3906H6.49958C6.22367 15.3906 6 15.6155 6 15.893V16.8976C6 17.175 6.22367 17.3999 6.49958 17.3999H10.4962C10.7722 17.3999 10.9958 17.175 10.9958 16.8976V15.893C10.9958 15.6155 10.7722 15.3906 10.4962 15.3906Z" fill="#161616"/>
</svg>
