<svg width="24" height="24" viewBox="0 0 24 24" fill="none" xmlns="http://www.w3.org/2000/svg">
<path fill-rule="evenodd" clip-rule="evenodd" d="M13.5339 17.3869C13.6589 17.2612 13.8283 17.1907 14.0049 17.1907H18.0016C18.1783 17.1907 18.3477 17.1201 18.4726 16.9945C18.5975 16.8689 18.6677 16.6986 18.6677 16.5209V8.31627C18.6677 8.27186 18.6502 8.22927 18.6189 8.19787C18.5877 8.16647 18.5454 8.14882 18.5012 8.14882H5.51203C5.46787 8.14882 5.42551 8.16647 5.39428 8.19787C5.36305 8.22927 5.3455 8.27186 5.3455 8.31627V13.1721C5.3455 13.3497 5.27532 13.5201 5.1504 13.6457C5.02548 13.7713 4.85606 13.8418 4.67939 13.8418C4.50273 13.8418 4.3333 13.7713 4.20838 13.6457C4.08346 13.5201 4.01328 13.3497 4.01328 13.1721V6.80929C4.01328 6.27639 4.22382 5.76532 4.59858 5.3885C4.97334 5.01168 5.48162 4.79999 6.01161 4.79999H18.0016C18.5316 4.79999 19.0399 5.01168 19.4146 5.3885C19.7894 5.76532 19.9999 6.27639 19.9999 6.80929V16.5209C19.9999 17.0538 19.7894 17.5649 19.4146 17.9417C19.0399 18.3185 18.5316 18.5302 18.0016 18.5302H14.0049C13.8283 18.5302 13.6589 18.4597 13.5339 18.3341C13.409 18.2084 13.3388 18.0381 13.3388 17.8605C13.3388 17.6828 13.409 17.5125 13.5339 17.3869ZM10.6695 5.91097C10.5711 5.96545 10.488 6.04407 10.4279 6.13952C10.3629 6.23897 10.3282 6.35539 10.3282 6.47441C10.3282 6.59343 10.3629 6.70984 10.4279 6.80929C10.488 6.90474 10.5711 6.98336 10.6695 7.03784C10.7679 7.09232 10.8785 7.12089 10.9908 7.12089C11.1031 7.12089 11.2137 7.09232 11.3121 7.03784C11.4105 6.98336 11.4936 6.90474 11.5537 6.80929C11.6182 6.7092 11.655 6.59359 11.6602 6.47441C11.655 6.35523 11.6182 6.23961 11.5537 6.13952C11.4936 6.04407 11.4105 5.96545 11.3121 5.91097C11.2137 5.85649 11.1031 5.82792 10.9908 5.82792C10.8785 5.82792 10.7679 5.85649 10.6695 5.91097ZM8.33814 5.91097C8.23973 5.96545 8.15662 6.04407 8.09654 6.13952C8.0315 6.23897 7.99684 6.35539 7.99684 6.47441C7.99684 6.59343 8.0315 6.70984 8.09654 6.80929C8.15662 6.90474 8.23973 6.98336 8.33814 7.03784C8.43655 7.09232 8.54706 7.12089 8.65941 7.12089C8.77175 7.12089 8.88226 7.09232 8.98067 7.03784C9.07908 6.98336 9.16219 6.90474 9.22227 6.80929C9.28682 6.7092 9.32362 6.59359 9.32885 6.47441C9.32362 6.35523 9.28682 6.23961 9.22227 6.13952C9.16219 6.04407 9.07908 5.96545 8.98067 5.91097C8.88226 5.85649 8.77175 5.82792 8.65941 5.82792C8.54706 5.82792 8.43655 5.85649 8.33814 5.91097ZM5.97036 5.91242C5.86285 5.98251 5.77772 6.08229 5.72519 6.1998C5.67986 6.29645 5.65974 6.40312 5.66674 6.50975C5.67373 6.61637 5.7076 6.71946 5.76515 6.80929C5.82523 6.90474 5.90834 6.98336 6.00675 7.03784C6.10516 7.09232 6.21568 7.12089 6.32802 7.12089C6.44036 7.12089 6.55087 7.09232 6.64928 7.03784C6.7477 6.98336 6.8308 6.90474 6.89088 6.80929C6.95543 6.7092 6.99223 6.59359 6.99746 6.47441C6.99223 6.35523 6.95543 6.23961 6.89088 6.13952C6.83391 6.04022 6.75255 5.95728 6.65458 5.89865C6.55662 5.84001 6.44532 5.80765 6.33135 5.80464C6.20321 5.80491 6.07788 5.84233 5.97036 5.91242ZM11.0475 10.7006C11.0716 10.6415 11.112 10.5906 11.1639 10.5538C11.2158 10.517 11.2772 10.4959 11.3406 10.493H14.3381C14.4264 10.493 14.5112 10.5283 14.5736 10.5911C14.6361 10.6539 14.6712 10.7391 14.6712 10.8279V13.8418C14.6723 13.9074 14.6538 13.9718 14.6182 14.0267C14.5826 14.0816 14.5314 14.1245 14.4713 14.1499C14.4101 14.1768 14.3421 14.1842 14.2766 14.171C14.2111 14.1578 14.1512 14.1248 14.105 14.0763L13.1991 13.1654C13.1835 13.1492 13.1649 13.1363 13.1443 13.1275C13.1237 13.1187 13.1015 13.1141 13.0792 13.1141C13.0568 13.1141 13.0346 13.1187 13.014 13.1275C12.9934 13.1363 12.9748 13.1492 12.9593 13.1654L10.4946 15.6569C10.3698 15.7817 10.201 15.8517 10.025 15.8517C9.84906 15.8517 9.68024 15.7817 9.55543 15.6569C9.493 15.5946 9.44344 15.5206 9.40963 15.439C9.37581 15.3573 9.3584 15.2698 9.3584 15.1814C9.3584 15.093 9.37581 15.0054 9.40963 14.9238C9.44344 14.8422 9.493 14.7681 9.55543 14.7058L12.0067 12.2143C12.0329 12.1848 12.0474 12.1467 12.0474 12.1071C12.0474 12.0676 12.0329 12.0295 12.0067 12L11.1208 11.0623C11.0754 11.0154 11.0444 10.9564 11.0314 10.8923C11.0184 10.8282 11.024 10.7616 11.0475 10.7006ZM9.995 16.5209H4.66611C4.29823 16.5209 4 16.8208 4 17.1907V18.5302C4 18.9001 4.29823 19.2 4.66611 19.2H9.995C10.3629 19.2 10.6611 18.9001 10.6611 18.5302V17.1907C10.6611 16.8208 10.3629 16.5209 9.995 16.5209Z" fill="#161616"/>
</svg>
