<svg width="24" height="24" viewBox="0 0 24 24" fill="none" xmlns="http://www.w3.org/2000/svg">
<path fill-rule="evenodd" clip-rule="evenodd" d="M19.3314 6.38584C19.6788 5.92991 19.73 5.32529 19.4638 4.8215C19.1976 4.31772 18.6592 4.0002 18.0707 4H5.56255C4.97655 3.99979 4.43973 4.31448 4.17224 4.815C3.90474 5.31553 3.95158 5.91768 4.29354 6.37452L9.2224 13.1528V18.4943C9.22235 18.916 9.40651 19.3184 9.73008 19.6035C10.0536 19.8887 10.487 20.0305 10.9246 19.9945C11.3081 20.0056 11.687 19.9113 12.0166 19.7226C13.9138 18.5896 13.7139 18.7069 13.732 18.6943C14.1243 18.4103 14.3555 17.9664 14.3567 17.4947V13.1548L19.3314 6.38584ZM12.7803 12.4104C12.6769 12.551 12.6213 12.7188 12.6213 12.8909V17.2101C12.6214 17.3276 12.5571 17.4365 12.4519 17.4967C12.2242 17.626 11.8112 17.8612 11.4766 18.0478C11.3692 18.1076 11.2368 18.1079 11.1293 18.0485C11.0217 17.9891 10.9553 17.879 10.9552 17.7599V12.8909C10.9555 12.7204 10.901 12.554 10.799 12.4144L6.27489 6.19057C6.20093 6.08875 6.19205 5.95591 6.25185 5.84586C6.31165 5.7358 6.43022 5.66678 6.55952 5.66675H17.0663C17.196 5.66668 17.3149 5.73599 17.3746 5.84646C17.4343 5.95693 17.4249 6.09015 17.3502 6.1919L12.7803 12.4104Z" fill="#161616"/>
</svg>
