<svg width="24" height="24" viewBox="0 0 24 24" fill="none" xmlns="http://www.w3.org/2000/svg">
<path fill-rule="evenodd" clip-rule="evenodd" d="M21.1643 4.98231C21.5985 4.41239 21.6625 3.65661 21.3297 3.02688C20.997 2.39715 20.324 2.00025 19.5884 2H3.95318C3.22069 1.99974 2.54966 2.39309 2.2153 3.01875C1.88093 3.64441 1.93947 4.3971 2.36693 4.96814L8.528 13.4411V20.1179C8.52794 20.645 8.75814 21.148 9.1626 21.5044C9.56706 21.8609 10.1087 22.0381 10.6557 21.9931C11.1352 22.007 11.6088 21.8891 12.0207 21.6532C14.3923 20.2371 14.1424 20.3837 14.1649 20.3678C14.6554 20.0129 14.9444 19.458 14.9459 18.8684V13.4436L21.1643 4.98231ZM12.9753 12.513C12.846 12.6887 12.7766 12.8986 12.7765 13.1137V18.5126C12.7767 18.6595 12.6962 18.7956 12.5648 18.8709C12.2802 19.0325 11.7639 19.3265 11.3456 19.5598C11.2114 19.6345 11.0459 19.6349 10.9115 19.5606C10.777 19.4863 10.6941 19.3488 10.6939 19.1999V13.1137C10.6943 12.9006 10.6261 12.6925 10.4987 12.518L4.8435 4.73822C4.75105 4.61095 4.73996 4.4449 4.81471 4.30734C4.88946 4.16977 5.03766 4.08349 5.19928 4.08345H18.3328C18.4948 4.08336 18.6435 4.17 18.7181 4.30809C18.7928 4.44618 18.781 4.61271 18.6877 4.73989L12.9753 12.513Z" fill="#161616"/>
</svg>
