<svg width="24" height="24" viewBox="0 0 24 24" fill="none" xmlns="http://www.w3.org/2000/svg">
<path fill-rule="evenodd" clip-rule="evenodd" d="M17.4986 7.78938C17.7591 7.44744 17.7975 6.99396 17.5978 6.61613C17.3982 6.23829 16.9944 6.00015 16.5531 6H7.17191C6.73241 5.99984 6.3298 6.23586 6.12918 6.61125C5.92856 6.98665 5.96368 7.43826 6.22016 7.78089L9.9168 12.8646V16.8708C9.91676 17.187 10.0549 17.4888 10.2976 17.7027C10.5402 17.9165 10.8652 18.0229 11.1934 17.9959C11.4811 18.0042 11.7653 17.9335 12.0124 17.7919C13.4354 16.9422 13.2854 17.0302 13.299 17.0207C13.5932 16.8078 13.7667 16.4748 13.7676 16.121V12.8661L17.4986 7.78938ZM12.5852 12.3078C12.5077 12.4132 12.466 12.5391 12.466 12.6682V15.9076C12.4661 15.9957 12.4178 16.0774 12.3389 16.1225C12.1682 16.2195 11.8584 16.3959 11.6074 16.5359C11.5269 16.5807 11.4276 16.5809 11.3469 16.5363C11.2663 16.4918 11.2165 16.4093 11.2164 16.3199V12.6682C11.2166 12.5403 11.1757 12.4155 11.0993 12.3108L7.70617 7.64293C7.6507 7.56656 7.64404 7.46693 7.68889 7.38439C7.73374 7.30185 7.82266 7.25008 7.91964 7.25006H15.7997C15.897 7.25001 15.9861 7.30199 16.0309 7.38484C16.0757 7.4677 16.0687 7.56762 16.0127 7.64393L12.5852 12.3078Z" fill="#161616"/>
</svg>
