<svg width="24" height="24" viewBox="0 0 24 24" fill="none" xmlns="http://www.w3.org/2000/svg">
<path fill-rule="evenodd" clip-rule="evenodd" d="M18.3059 11.1706C18.4172 11.2023 18.5045 11.2855 18.5384 11.3921C18.7327 12.0088 18.8311 12.6497 18.8302 13.294C18.8685 16.917 15.8739 19.9003 12.1012 19.9976C8.32843 20.0949 5.17125 17.2702 5.00692 13.6505C5.00001 13.5323 5.00001 13.4135 5.00001 13.294C4.99738 11.3296 5.90447 9.4656 7.47561 8.20695C7.56498 8.13529 7.68591 8.11163 7.79736 8.144C7.90881 8.17636 7.99581 8.26041 8.02882 8.3676C8.1931 8.9047 8.43718 9.41625 8.75352 9.88649C8.78906 9.93842 8.85174 9.96706 8.91613 9.96078C8.98052 9.9545 9.03593 9.91435 9.05986 9.85662C9.34755 9.15418 9.4951 8.40608 9.49482 7.65131C9.49542 6.54691 9.19734 5.46129 8.62974 4.50068C8.56166 4.38997 8.56629 4.25148 8.64163 4.1452C8.71697 4.03892 8.84946 3.98395 8.98172 4.00412C13.0374 4.72438 16.0801 7.97511 16.394 11.9232C16.3974 11.9779 16.4287 12.0274 16.4777 12.0555C16.5268 12.0835 16.5871 12.0865 16.6388 12.0633C17.1243 11.8464 17.5772 11.5677 17.9852 11.2348C18.0741 11.163 18.1945 11.1389 18.3059 11.1706ZM9.93526 17.2991C10.4555 17.8126 11.169 18.1037 11.9152 18.1069C12.6533 18.1212 13.3655 17.846 13.8875 17.3449C14.4095 16.8438 14.6961 16.1601 14.6813 15.4515C14.7569 14.4549 14.1961 13.5137 13.263 13.071C13.2167 13.0504 13.1634 13.0504 13.1171 13.071C13.0705 13.0904 13.0355 13.1289 13.0217 13.1759C12.925 13.4509 12.7487 13.6939 12.5134 13.8762C12.4729 13.9113 12.4176 13.926 12.364 13.916C12.3106 13.9054 12.2654 13.8716 12.2416 13.8244C11.8413 12.9122 11.9645 11.8657 12.5666 11.0622C12.6135 11.0026 12.6135 10.9204 12.5665 10.861C12.5195 10.8015 12.4371 10.7793 12.3647 10.8066C10.439 11.5774 9.17507 13.3737 9.1492 15.3765C9.13174 16.0927 9.41501 16.7855 9.93526 17.2991Z" fill="#161616"/>
</svg>
