<svg width="24" height="24" viewBox="0 0 24 24" fill="none" xmlns="http://www.w3.org/2000/svg">
<path fill-rule="evenodd" clip-rule="evenodd" d="M19.6323 10.9633C19.7715 11.0028 19.8807 11.1068 19.923 11.2401C20.1659 12.011 20.2888 12.8121 20.2878 13.6175C20.3357 18.1462 16.5924 21.8753 11.8764 21.997C7.16054 22.1186 3.21407 18.5877 3.00865 14.0631C3.00001 13.9154 3.00001 13.7669 3.00001 13.6175C2.99673 11.1619 4.13058 8.832 6.09451 7.25869C6.20622 7.16912 6.35739 7.13954 6.4967 7.18C6.63601 7.22046 6.74476 7.32551 6.78602 7.4595C6.99138 8.13087 7.29648 8.77032 7.6919 9.35811C7.73632 9.42303 7.81467 9.45882 7.89516 9.45097C7.97566 9.44313 8.04491 9.39293 8.07482 9.32077C8.43443 8.44273 8.61887 7.50761 8.61852 6.56414C8.61928 5.18364 8.24667 3.82661 7.53718 2.62585C7.45208 2.48747 7.45787 2.31435 7.55204 2.1815C7.64621 2.04864 7.81183 1.97994 7.97715 2.00515C13.0468 2.90548 16.8502 6.96889 17.2425 11.904C17.2467 11.9723 17.2859 12.0343 17.3472 12.0694C17.4085 12.1044 17.4839 12.1081 17.5485 12.0791C18.1554 11.808 18.7215 11.4597 19.2315 11.0435C19.3426 10.9538 19.4932 10.9237 19.6323 10.9633ZM9.16901 18.6238C9.81932 19.2658 10.7112 19.6297 11.644 19.6337C12.5665 19.6515 13.4568 19.3075 14.1093 18.6811C14.7617 18.0547 15.1201 17.2001 15.1015 16.3144C15.1961 15.0687 14.4951 13.8921 13.3287 13.3387C13.2708 13.313 13.2041 13.313 13.1463 13.3387C13.0881 13.363 13.0443 13.4112 13.027 13.4698C12.9062 13.8137 12.6858 14.1174 12.3917 14.3453C12.341 14.3891 12.2719 14.4075 12.205 14.3951C12.1382 14.3818 12.0817 14.3394 12.052 14.2805C11.5516 13.1402 11.7055 11.8321 12.4582 10.8277C12.5168 10.7533 12.5168 10.6505 12.458 10.5762C12.3993 10.5019 12.2963 10.4741 12.2058 10.5082C9.79865 11.4718 8.21877 13.7171 8.18643 16.2206C8.16461 17.1159 8.5187 17.9819 9.16901 18.6238Z" fill="#161616"/>
</svg>
