<svg width="24" height="24" viewBox="0 0 24 24" fill="none" xmlns="http://www.w3.org/2000/svg">
<path fill-rule="evenodd" clip-rule="evenodd" d="M16.9794 11.378C17.0629 11.4017 17.1284 11.4641 17.1538 11.5441C17.2995 12.0066 17.3733 12.4873 17.3727 12.9705C17.4014 15.6877 15.1554 17.9252 12.3259 17.9982C9.49632 18.0711 7.12844 15.9526 7.00519 13.2379C7 13.1493 7 13.0601 7 12.9705C6.99804 11.4972 7.67835 10.0992 8.85671 9.15521C8.92373 9.10147 9.01443 9.08373 9.09802 9.108C9.18161 9.13227 9.24686 9.19531 9.27161 9.2757C9.39483 9.67852 9.57789 10.0622 9.81514 10.4149C9.84179 10.4538 9.8888 10.4753 9.9371 10.4706C9.98539 10.4659 10.0269 10.4358 10.0449 10.3925C10.2607 9.86564 10.3713 9.30456 10.3711 8.73848C10.3716 7.91019 10.148 7.09597 9.72231 6.37551C9.67125 6.29248 9.67472 6.18861 9.73122 6.1089C9.78773 6.02919 9.8871 5.98796 9.98629 6.00309C13.0281 6.54329 15.3101 8.98133 15.5455 11.9424C15.548 11.9834 15.5715 12.0206 15.6083 12.0416C15.6451 12.0627 15.6903 12.0648 15.7291 12.0474C16.0932 11.8848 16.4329 11.6758 16.7389 11.4261C16.8055 11.3723 16.8959 11.3542 16.9794 11.378ZM10.7014 15.9743C11.0916 16.3594 11.6268 16.5778 12.1864 16.5802C12.74 16.5909 13.2741 16.3845 13.6656 16.0086C14.0571 15.6328 14.2721 15.12 14.261 14.5886C14.3177 13.8412 13.8971 13.1352 13.1972 12.8032C13.1625 12.7878 13.1225 12.7878 13.0878 12.8032C13.0529 12.8178 13.0266 12.8467 13.0162 12.8819C12.9438 13.0882 12.8115 13.2704 12.635 13.4072C12.6047 13.4335 12.5632 13.4445 12.523 13.437C12.483 13.4291 12.4491 13.4037 12.4312 13.3683C12.131 12.6841 12.2234 11.8993 12.675 11.2966C12.7101 11.252 12.7101 11.1903 12.6749 11.1457C12.6396 11.1011 12.5778 11.0845 12.5235 11.1049C11.0792 11.6831 10.1313 13.0303 10.1119 14.5324C10.0988 15.0695 10.3113 15.5891 10.7014 15.9743Z" fill="#161616"/>
</svg>
