<svg width="24" height="24" viewBox="0 0 24 24" fill="none" xmlns="http://www.w3.org/2000/svg">
<path fill-rule="evenodd" clip-rule="evenodd" d="M5.59356 4.07422C5.71008 4.02436 5.83487 3.99914 5.96073 4.00002C6.21274 4.00178 6.45386 4.10792 6.63147 4.29526C6.80907 4.48261 6.90875 4.73596 6.90874 5.00002V19C6.90874 19.2652 6.80819 19.5196 6.62921 19.7071C6.45023 19.8946 6.20749 20 5.95437 20C5.70126 20 5.45851 19.8946 5.27953 19.7071C5.10055 19.5196 5 19.2652 5 19V5.00002C5 4.86814 5.02489 4.73755 5.07325 4.61579C5.12161 4.49403 5.19248 4.38349 5.28177 4.29055C5.37107 4.1976 5.47703 4.12408 5.59356 4.07422ZM14.8519 8.73962C14.8617 8.76258 14.8758 8.78316 14.8936 8.80003L18.6984 11.9867C19.0292 12.2667 19.0101 12.52 18.9656 12.6534C18.921 12.7867 18.7811 13 18.3611 13H8.18119C8.09681 13 8.0159 12.9649 7.95624 12.9024C7.89658 12.8399 7.86306 12.7551 7.86306 12.6667V4.66671C7.86306 4.5783 7.89658 4.49352 7.95624 4.431C8.0159 4.36849 8.09681 4.33337 8.18119 4.33337H18.3611C18.7874 4.33337 18.9401 4.55337 18.9783 4.68004C19.0165 4.80671 19.0419 5.06671 18.7111 5.34671L14.8936 8.53337C14.8758 8.55024 14.8617 8.57082 14.8519 8.59378C14.8422 8.61675 14.8372 8.64159 14.8372 8.6667C14.8372 8.69182 14.8422 8.71666 14.8519 8.73962Z" fill="#161616"/>
</svg>
