<svg width="24" height="24" viewBox="0 0 24 24" fill="none" xmlns="http://www.w3.org/2000/svg">
<path fill-rule="evenodd" clip-rule="evenodd" d="M3.76315 2.09278C3.91296 2.03045 4.0734 1.99893 4.23523 2.00003C4.55924 2.00223 4.86925 2.1349 5.0976 2.36908C5.32595 2.60326 5.4541 2.91994 5.4541 3.25003V20.75C5.4541 21.0815 5.32482 21.3995 5.0947 21.6339C4.86459 21.8683 4.55248 22 4.22705 22C3.90162 22 3.58951 21.8683 3.35939 21.6339C3.12928 21.3995 3 21.0815 3 20.75V3.25003C3 3.08517 3.032 2.92194 3.09418 2.76974C3.15636 2.61754 3.24747 2.47937 3.36228 2.36318C3.47709 2.247 3.61333 2.1551 3.76315 2.09278ZM15.6666 7.92453C15.6791 7.95323 15.6973 7.97896 15.7202 8.00005L20.612 11.9834C21.0374 12.3334 21.0128 12.65 20.9556 12.8167C20.8983 12.9834 20.7183 13.25 20.1784 13.25H7.08992C6.98145 13.25 6.87741 13.2061 6.80071 13.128C6.724 13.0499 6.68091 12.9439 6.68091 12.8334V2.83339C6.68091 2.72288 6.724 2.6169 6.80071 2.53876C6.87741 2.46062 6.98145 2.41672 7.08992 2.41672H20.1784C20.7265 2.41672 20.9228 2.69172 20.9719 2.85006C21.021 3.00839 21.0537 3.33339 20.6284 3.68339L15.7202 7.66672C15.6973 7.68781 15.6791 7.71353 15.6666 7.74224C15.6541 7.77094 15.6477 7.80199 15.6477 7.83338C15.6477 7.86478 15.6541 7.89583 15.6666 7.92453Z" fill="#161616"/>
</svg>
