<svg width="24" height="24" viewBox="0 0 24 24" fill="none" xmlns="http://www.w3.org/2000/svg">
<path fill-rule="evenodd" clip-rule="evenodd" d="M7.42397 6.05567C7.5072 6.01827 7.59634 5.99936 7.68624 6.00002C7.86625 6.00134 8.03847 6.08094 8.16533 6.22145C8.29219 6.36196 8.36339 6.55197 8.36339 6.75002V17.25C8.36339 17.4489 8.29157 17.6397 8.16372 17.7803C8.03588 17.921 7.86249 18 7.68169 18C7.5009 18 7.32751 17.921 7.19966 17.7803C7.07182 17.6397 7 17.4489 7 17.25V6.75002C7 6.6511 7.01778 6.55317 7.05232 6.46184C7.08686 6.37052 7.13748 6.28762 7.20127 6.21791C7.26505 6.1482 7.34074 6.09306 7.42397 6.05567ZM14.037 9.55468C14.044 9.57191 14.0541 9.58734 14.0668 9.6L16.7845 11.99C17.0208 12.2 17.0072 12.39 16.9753 12.49C16.9435 12.59 16.8435 12.75 16.5436 12.75H9.2722C9.21193 12.75 9.15414 12.7237 9.11152 12.6768C9.06891 12.6299 9.04497 12.5663 9.04497 12.5V6.5C9.04497 6.4337 9.06891 6.37011 9.11152 6.32322C9.15414 6.27634 9.21193 6.25 9.2722 6.25H16.5436C16.8481 6.25 16.9572 6.415 16.9844 6.51C17.0117 6.605 17.0299 6.8 16.7936 7.01L14.0668 9.4C14.0541 9.41265 14.044 9.42809 14.037 9.44531C14.0301 9.46253 14.0265 9.48116 14.0265 9.5C14.0265 9.51883 14.0301 9.53746 14.037 9.55468Z" fill="#161616"/>
</svg>
