<svg width="24" height="24" viewBox="0 0 24 24" fill="none" xmlns="http://www.w3.org/2000/svg">
<path d="M16.8249 10.6362C16.7802 10.5533 16.691 10.5012 16.5937 10.5012H12.7527L13.7233 6.30491C13.7506 6.1888 13.6888 6.07034 13.5756 6.02178C13.4624 5.97321 13.3292 6.00801 13.2573 6.10495L8.04977 13.1038C7.99205 13.18 7.98389 13.281 8.02867 13.3648C8.07345 13.4487 8.16355 13.5012 8.26172 13.5008H12.1028L11.1321 17.6951C11.1048 17.8112 11.1667 17.9297 11.2799 17.9782C11.3931 18.0268 11.5262 17.992 11.5982 17.8951L16.8057 10.8962C16.8624 10.8198 16.8698 10.7195 16.8249 10.6362Z" fill="#161616"/>
</svg>
