<svg width="24" height="24" viewBox="0 0 24 24" fill="none" xmlns="http://www.w3.org/2000/svg">
<path d="M19.7082 9.72703C19.6336 9.58882 19.485 9.50205 19.3229 9.50207H12.9211L14.5389 2.50819C14.5843 2.31466 14.4813 2.11724 14.2926 2.0363C14.104 1.95535 13.882 2.01334 13.7621 2.17491L5.08295 13.8397C4.98675 13.9667 4.97315 14.1349 5.04778 14.2747C5.12241 14.4145 5.27259 14.5021 5.43619 14.5013H11.8379L10.2201 21.4918C10.1747 21.6853 10.2778 21.8828 10.4664 21.9637C10.6551 22.0446 10.877 21.9867 10.9969 21.8251L19.6761 10.1603C19.7706 10.0331 19.783 9.86581 19.7082 9.72703Z" fill="#161616"/>
</svg>
