<svg width="24" height="24" viewBox="0 0 24 24" fill="none" xmlns="http://www.w3.org/2000/svg">
<path d="M17.7666 10.1816C17.7069 10.0711 17.588 10.0016 17.4583 10.0017H12.3369L13.6311 4.40655C13.6674 4.25173 13.585 4.09379 13.4341 4.02904C13.2832 3.96428 13.1056 4.01067 13.0097 4.13993L6.06636 13.4718C5.9894 13.5734 5.97852 13.7079 6.03822 13.8198C6.09793 13.9316 6.21807 14.0017 6.34896 14.001H11.4704L10.1761 19.5934C10.1398 19.7483 10.2222 19.9062 10.3731 19.971C10.5241 20.0357 10.7016 19.9893 10.7975 19.8601L17.7409 10.5282C17.8165 10.4265 17.8264 10.2926 17.7666 10.1816Z" fill="#161616"/>
</svg>
