<svg width="24" height="24" viewBox="0 0 24 24" fill="none" xmlns="http://www.w3.org/2000/svg">
<path fill-rule="evenodd" clip-rule="evenodd" d="M5.52595 13.0229C5.39107 13.0229 5.26171 12.9703 5.16634 12.8765C5.07096 12.7828 5.01738 12.6557 5.01738 12.5231V5.52603C5.01914 5.39402 5.07328 5.26789 5.16828 5.17453C5.26328 5.08118 5.39162 5.02797 5.52595 5.02624H8.56381C8.77954 4.88843 9.00632 4.76808 9.2419 4.66639C9.26723 4.43294 9.33863 4.20659 9.45211 4H5.52595C5.32329 3.99997 5.12265 4.03962 4.93575 4.11663C4.74886 4.19364 4.57944 4.30647 4.43741 4.44854C4.29537 4.5906 4.18356 4.75906 4.1085 4.94406C4.03344 5.12906 3.99664 5.3269 4.00024 5.52603V12.5231C4.00559 12.9173 4.16869 13.2936 4.45424 13.5704C4.73979 13.8473 5.12481 14.0025 5.52595 14.0025H12.3069V13.0029L5.52595 13.0229ZM13.6835 5.02625H16.7485C16.8834 5.02625 17.0127 5.07891 17.1081 5.17263C17.2035 5.26636 17.257 5.39349 17.257 5.52604V12.5231C17.2565 12.6455 17.2109 12.7636 17.1286 12.8554C17.0463 12.9473 16.933 13.0068 16.8095 13.0229V14.0025C17.2029 13.9854 17.5745 13.8201 17.8472 13.5409C18.1199 13.2618 18.2728 12.8901 18.2742 12.5031V5.52604C18.2769 5.32746 18.2394 5.13034 18.1639 4.94611C18.0885 4.76189 17.9765 4.59423 17.8346 4.45287C17.6926 4.31152 17.5235 4.19929 17.3371 4.12269C17.1506 4.04609 16.9506 4.00666 16.7485 4.00667H12.7884C12.8998 4.21414 12.971 4.44008 12.9986 4.67306C13.2357 4.77358 13.4646 4.89165 13.6835 5.02625ZM15.6634 10.524L15.3922 10.7172C14.9358 10.53 14.429 10.4972 13.9515 10.6238C13.4741 10.7505 13.053 11.0295 12.7544 11.4169H9.61483C8.52977 11.4562 7.46189 11.1423 6.57697 10.524C6.54197 10.4938 6.51548 10.4552 6.50004 10.412C6.4846 10.3689 6.48073 10.3225 6.48882 10.2774C6.48848 10.2146 6.50375 10.1526 6.53329 10.0969C6.56283 10.0411 6.60575 9.99331 6.65834 9.95755C6.66699 9.95176 6.67311 9.94641 6.67875 9.94148L6.68531 9.93585C6.74944 9.88295 6.85732 9.88308 10.1146 9.88719L10.1152 9.8872C11.3582 9.88876 13.0597 9.89091 15.3922 9.89091C15.4654 9.89399 15.5361 9.91744 15.5963 9.95853C15.6564 9.99962 15.7034 10.0567 15.7319 10.123C15.7603 10.1893 15.7689 10.2623 15.7568 10.3333C15.7447 10.4042 15.7123 10.4704 15.6634 10.524ZM7.44499 8.898C7.44496 8.94812 7.46474 8.99629 7.50017 9.03234C7.53559 9.0684 7.58388 9.08952 7.63485 9.09125H14.7141C14.7415 9.0742 14.764 9.05055 14.7794 9.02255C14.7948 8.99456 14.8027 8.96315 14.8023 8.93132C14.8003 8.26133 14.6091 7.60504 14.2499 7.03557C13.8907 6.46611 13.3777 6.00582 12.768 5.70599C12.3727 5.47121 12.1694 5.42237 12.0548 5.39482C11.9904 5.37937 11.954 5.37061 11.9272 5.33948C11.9206 5.32713 11.9172 5.31341 11.9172 5.29949C11.9172 5.28557 11.9206 5.27186 11.9272 5.25951C11.9876 5.12787 12.0132 4.98341 12.0018 4.83945C11.9904 4.6955 11.9422 4.55669 11.8618 4.43583C11.7814 4.31498 11.6713 4.21598 11.5417 4.14797C11.4121 4.07995 11.2672 4.04512 11.1203 4.04668C11.0066 4.04721 10.8941 4.06986 10.7893 4.11332C10.6846 4.15678 10.5896 4.2202 10.51 4.29991C10.4031 4.40272 10.3255 4.53131 10.2851 4.67281C10.2446 4.81431 10.2427 4.96377 10.2794 5.10624C10.2923 5.16329 10.3104 5.21906 10.3337 5.27284C10.3379 5.29746 10.3326 5.32275 10.3188 5.34372C10.3049 5.36468 10.2837 5.37981 10.2591 5.38612C9.45755 5.57719 8.74451 6.02718 8.23425 6.66397C7.72398 7.30076 7.44605 8.08747 7.44499 8.898ZM8.89611 7.01211C8.89611 6.88317 8.99398 6.80514 9.12606 6.69984L9.16056 6.67226C9.55386 6.3324 10.5913 5.79262 10.9168 6.00587C10.9396 6.03557 10.9557 6.06962 10.9643 6.10582C10.9742 6.14492 10.9756 6.18563 10.9684 6.2253C10.9612 6.26496 10.9456 6.30269 10.9225 6.33602C10.8995 6.36935 10.8696 6.39753 10.8347 6.41872C10.7998 6.43992 10.7608 6.45364 10.7202 6.45901C10.208 6.53537 9.73344 6.76856 9.36399 7.1254C9.32863 7.15656 9.28606 7.17876 9.23997 7.19007C9.19389 7.20138 9.1457 7.20145 9.09958 7.19029C9.05346 7.17912 9.01082 7.15705 8.97536 7.126C8.9399 7.09495 8.91269 7.05585 8.89611 7.01211ZM19.5361 17.453C19.8828 17.9236 20.0439 18.5019 19.9895 19.0804L19.9082 20H10.5776C10.3786 19.7588 10.2101 19.4948 10.0758 19.2137C9.97102 18.9656 9.95202 18.6906 10.0217 18.4309C10.0914 18.1711 10.246 17.9411 10.4617 17.7761C10.6773 17.6111 10.9422 17.5202 11.2155 17.5175C11.4888 17.5147 11.7554 17.6003 11.9745 17.761L13.3307 18.7805V12.7497C13.3307 12.5922 13.3622 12.4362 13.4236 12.2907C13.4849 12.1452 13.5748 12.0129 13.6882 11.9015C13.8015 11.7902 13.9361 11.7018 14.0841 11.6415C14.2322 11.5812 14.3909 11.5502 14.5512 11.5502C14.7115 11.5502 14.8702 11.5812 15.0183 11.6415C15.1664 11.7018 15.301 11.7902 15.4143 11.9015C15.5276 12.0129 15.6175 12.1452 15.6789 12.2907C15.7402 12.4362 15.7718 12.5922 15.7718 12.7497V15.7818L18.1044 16.5215C18.6807 16.6514 19.1894 16.9823 19.5361 17.453Z" fill="#161616"/>
</svg>
