<svg width="24" height="24" viewBox="0 0 24 24" fill="none" xmlns="http://www.w3.org/2000/svg">
<path fill-rule="evenodd" clip-rule="evenodd" d="M3.90744 13.2786C3.73883 13.2786 3.57714 13.2128 3.45792 13.0956C3.3387 12.9785 3.27172 12.8196 3.27172 12.6539V3.90754C3.27392 3.74252 3.3416 3.58486 3.46035 3.46816C3.57909 3.35147 3.73952 3.28495 3.90744 3.2828H7.70475C7.97441 3.11053 8.25789 2.9601 8.55236 2.83299C8.58402 2.54118 8.67328 2.25824 8.81512 2H3.90744C3.65411 1.99996 3.40331 2.04952 3.16969 2.14579C2.93607 2.24205 2.7243 2.38309 2.54676 2.56067C2.36921 2.73825 2.22945 2.94882 2.13563 3.18007C2.0418 3.41132 1.9958 3.65862 2.0003 3.90754V12.6539C2.00699 13.1466 2.21086 13.6169 2.5678 13.963C2.92473 14.3091 3.40601 14.5032 3.90744 14.5031H12.3836V13.2536L3.90744 13.2786ZM14.1043 3.28279H17.9355C18.1041 3.28279 18.2658 3.34861 18.385 3.46577C18.5042 3.58293 18.5712 3.74184 18.5712 3.90753V12.6539C18.5705 12.8069 18.5135 12.9544 18.4106 13.0693C18.3078 13.1841 18.1661 13.2585 18.0118 13.2786V14.5031C18.5035 14.4817 18.968 14.2751 19.3089 13.9261C19.6498 13.5772 19.8409 13.1126 19.8426 12.6289V3.90753C19.846 3.65931 19.7992 3.4129 19.7048 3.18262C19.6105 2.95234 19.4705 2.74277 19.2931 2.56607C19.1157 2.38938 18.9043 2.24909 18.6712 2.15334C18.4382 2.05759 18.1881 2.0083 17.9355 2.00832H12.9854C13.1246 2.26766 13.2137 2.55008 13.2482 2.84131C13.5445 2.96696 13.8307 3.11454 14.1043 3.28279ZM16.5793 10.1549L16.2402 10.3965C15.6697 10.1625 15.0363 10.1214 14.4394 10.2798C13.8426 10.4381 13.3162 10.7868 12.943 11.2711H9.01856C7.66224 11.3202 6.32739 10.9278 5.22124 10.1549C5.1775 10.1172 5.14438 10.069 5.12508 10.015C5.10578 9.96104 5.10095 9.90308 5.11105 9.84674C5.11064 9.76818 5.12972 9.69071 5.16664 9.62104C5.20357 9.55137 5.25722 9.4916 5.32296 9.4469C5.33377 9.43966 5.34141 9.43298 5.34847 9.42682L5.35667 9.41978C5.43682 9.35365 5.57168 9.35382 9.64325 9.35896H9.64349C11.1972 9.36092 13.3243 9.36361 16.2402 9.36361C16.3317 9.36746 16.4202 9.39677 16.4954 9.44813C16.5705 9.4995 16.6293 9.5708 16.6648 9.65372C16.7004 9.73665 16.7112 9.82779 16.696 9.91653C16.6809 10.0053 16.6404 10.0879 16.5793 10.1549ZM6.30619 8.12246C6.30615 8.18511 6.33088 8.24532 6.37516 8.29039C6.41944 8.33546 6.47981 8.36186 6.54352 8.36402H15.3926C15.4268 8.34271 15.4549 8.31315 15.4742 8.27815C15.4935 8.24316 15.5033 8.2039 15.5028 8.16411C15.5003 7.32662 15.2613 6.50627 14.8123 5.79443C14.3633 5.0826 13.7221 4.50724 12.96 4.13246C12.4659 3.83898 12.2118 3.77793 12.0684 3.7435C11.988 3.72418 11.9424 3.71323 11.9089 3.67431C11.9008 3.65888 11.8965 3.64174 11.8965 3.62434C11.8965 3.60694 11.9008 3.58979 11.9089 3.57436C11.9844 3.40981 12.0165 3.22923 12.0022 3.04928C11.9879 2.86934 11.9277 2.69583 11.8272 2.54476C11.7267 2.3937 11.5891 2.26995 11.4271 2.18493C11.2651 2.09992 11.0839 2.05637 10.9003 2.05832C10.7581 2.05898 10.6176 2.08729 10.4866 2.14162C10.3557 2.19595 10.237 2.27522 10.1374 2.37486C10.0038 2.50337 9.90688 2.6641 9.8563 2.84098C9.80573 3.01785 9.80329 3.20468 9.84922 3.38277C9.86528 3.45408 9.88798 3.52379 9.91703 3.59102C9.9223 3.6218 9.91565 3.65341 9.89839 3.67961C9.88113 3.70582 9.85452 3.72473 9.82379 3.73262C8.82189 3.97145 7.93059 4.53394 7.29276 5.32993C6.65493 6.12591 6.30751 7.1093 6.30619 8.12246ZM8.12008 5.76511C8.12008 5.60393 8.24242 5.5064 8.40753 5.37477L8.45065 5.34029C8.94227 4.91546 10.2391 4.24074 10.646 4.5073C10.6744 4.54443 10.6946 4.58699 10.7053 4.63225C10.7177 4.68112 10.7194 4.73201 10.7104 4.78159C10.7014 4.83117 10.6819 4.87833 10.6531 4.92C10.6243 4.96166 10.5869 4.99688 10.5433 5.02337C10.4997 5.04986 10.451 5.06702 10.4002 5.07373C9.75998 5.16918 9.16675 5.46067 8.70494 5.90672C8.66074 5.94567 8.60752 5.97342 8.54992 5.98755C8.49232 6.00169 8.43207 6.00178 8.37443 5.98782C8.31678 5.97386 8.26348 5.94628 8.21915 5.90746C8.17482 5.86865 8.14082 5.81978 8.12008 5.76511ZM21.4201 18.8162C21.8535 19.4044 22.0549 20.1273 21.9869 20.8505L21.8852 22H10.222C9.97323 21.6985 9.76261 21.3684 9.59476 21.0171C9.46377 20.707 9.44001 20.3632 9.52715 20.0385C9.61428 19.7139 9.80749 19.4263 10.0771 19.2201C10.3466 19.0138 10.6777 18.9002 11.0193 18.8968C11.361 18.8934 11.6943 19.0003 11.9681 19.2012L13.6633 20.4756V12.9371C13.6633 12.7402 13.7028 12.5452 13.7794 12.3633C13.8561 12.1814 13.9685 12.0161 14.1102 11.8769C14.2519 11.7377 14.42 11.6272 14.6052 11.5519C14.7903 11.4765 14.9887 11.4377 15.189 11.4377C15.3894 11.4377 15.5878 11.4765 15.7729 11.5519C15.958 11.6272 16.1262 11.7377 16.2679 11.8769C16.4095 12.0161 16.5219 12.1814 16.5986 12.3633C16.6753 12.5452 16.7147 12.7402 16.7147 12.9371V16.7272L19.6305 17.6518C20.3508 17.8142 20.9867 18.2279 21.4201 18.8162Z" fill="#161616"/>
</svg>
