<svg width="24" height="24" viewBox="0 0 24 24" fill="none" xmlns="http://www.w3.org/2000/svg">
<path fill-rule="evenodd" clip-rule="evenodd" d="M7.14446 12.7672C7.0433 12.7672 6.94628 12.7277 6.87475 12.6574C6.80322 12.5871 6.76304 12.4918 6.76304 12.3923V7.14452C6.76435 7.04551 6.80496 6.95092 6.87621 6.8809C6.94746 6.81088 7.04371 6.77097 7.14446 6.76968H9.42286C9.58466 6.66632 9.75474 6.57606 9.93143 6.49979C9.95042 6.32471 10.004 6.15494 10.0891 6H7.14446C6.99247 5.99998 6.84199 6.02971 6.70181 6.08747C6.56164 6.14523 6.43458 6.22986 6.32806 6.3364C6.22153 6.44295 6.13767 6.56929 6.08138 6.70804C6.02508 6.84679 5.99748 6.99517 6.00018 7.14452V12.3923C6.00419 12.688 6.12652 12.9702 6.34068 13.1778C6.55484 13.3855 6.84361 13.5019 7.14446 13.5019H12.2302V12.7522L7.14446 12.7672ZM13.2626 6.76966H15.5614C15.6625 6.76966 15.7595 6.80915 15.8311 6.87945C15.9026 6.94975 15.9428 7.04509 15.9428 7.1445V12.3923C15.9424 12.4841 15.9081 12.5726 15.8464 12.6416C15.7847 12.7105 15.6997 12.7551 15.6071 12.7672V13.5019C15.9022 13.489 16.1809 13.3651 16.3854 13.1557C16.59 12.9463 16.7046 12.6676 16.7056 12.3773V7.1445C16.7077 6.99557 16.6796 6.84773 16.623 6.70956C16.5664 6.57139 16.4824 6.44565 16.3759 6.33963C16.2695 6.23361 16.1426 6.14944 16.0028 6.09199C15.863 6.03454 15.7129 6.00497 15.5614 6.00498H12.5913C12.6748 6.16058 12.7283 6.33004 12.749 6.50477C12.9268 6.58016 13.0985 6.66871 13.2626 6.76966ZM14.7476 10.893L14.5441 11.0379C14.2018 10.8975 13.8218 10.8729 13.4637 10.9679C13.1056 11.0629 12.7897 11.2721 12.5658 11.5627H10.2111C9.39733 11.5921 8.59642 11.3567 7.93273 10.893C7.90648 10.8703 7.88661 10.8414 7.87503 10.809C7.86345 10.7766 7.86055 10.7419 7.86661 10.7081C7.86636 10.6609 7.87781 10.6144 7.89997 10.5726C7.92212 10.5308 7.95431 10.495 7.99376 10.4682C8.00024 10.4638 8.00483 10.4598 8.00906 10.4561L8.01398 10.4519C8.06208 10.4122 8.14299 10.4123 10.5859 10.4154H10.5861C11.5184 10.4166 12.7946 10.4182 14.5441 10.4182C14.599 10.4205 14.6521 10.4381 14.6972 10.4689C14.7423 10.4997 14.7776 10.5425 14.7989 10.5922C14.8202 10.642 14.8267 10.6967 14.8176 10.7499C14.8085 10.8032 14.7842 10.8528 14.7476 10.893ZM8.58374 9.67349C8.58372 9.71108 8.59856 9.74721 8.62512 9.77425C8.65169 9.8013 8.68791 9.81714 8.72614 9.81843H14.0356C14.0561 9.80564 14.073 9.78791 14.0845 9.76691C14.0961 9.74592 14.102 9.72236 14.1017 9.69848C14.1002 9.19599 13.9568 8.70378 13.6874 8.27668C13.418 7.84958 13.0333 7.50436 12.576 7.27949C12.2795 7.1034 12.1271 7.06677 12.0411 7.04611C11.9928 7.03452 11.9655 7.02796 11.9454 7.0046C11.9405 6.99534 11.9379 6.98506 11.9379 6.97462C11.9379 6.96418 11.9405 6.95389 11.9454 6.94463C11.9907 6.8459 12.0099 6.73755 12.0013 6.62958C11.9928 6.52162 11.9567 6.41751 11.8964 6.32687C11.8361 6.23623 11.7535 6.16198 11.6563 6.11097C11.5591 6.05996 11.4504 6.03384 11.3402 6.03501C11.2549 6.0354 11.1706 6.05239 11.092 6.08499C11.0134 6.11758 10.9422 6.16514 10.8825 6.22493C10.8023 6.30204 10.7442 6.39848 10.7138 6.5046C10.6835 6.61073 10.682 6.72282 10.7096 6.82968C10.7192 6.87246 10.7328 6.91429 10.7502 6.95462C10.7534 6.97309 10.7494 6.99206 10.7391 7.00778C10.7287 7.02351 10.7127 7.03485 10.6943 7.03959C10.0932 7.18289 9.55838 7.52038 9.17569 7.99797C8.79299 8.47556 8.58454 9.0656 8.58374 9.67349ZM9.67208 8.25908C9.67208 8.16237 9.74548 8.10385 9.84455 8.02488L9.87042 8.00419C10.1654 7.74929 10.9435 7.34446 11.1876 7.5044C11.2047 7.52667 11.2168 7.55221 11.2232 7.57936C11.2306 7.60869 11.2317 7.63922 11.2263 7.66897C11.2209 7.69872 11.2092 7.72702 11.1919 7.75201C11.1746 7.77701 11.1522 7.79815 11.126 7.81404C11.0999 7.82993 11.0706 7.84023 11.0401 7.84425C10.656 7.90152 10.3001 8.07642 10.023 8.34405C9.99647 8.36742 9.96454 8.38407 9.92998 8.39255C9.89542 8.40103 9.85927 8.40109 9.82469 8.39271C9.7901 8.38434 9.75811 8.36778 9.73152 8.3445C9.70492 8.32121 9.68452 8.29189 9.67208 8.25908ZM17.6521 16.0897C17.9121 16.4427 18.0329 16.8764 17.9922 17.3103L17.9311 18H10.9332C10.7839 17.8191 10.6576 17.6211 10.5569 17.4102C10.4783 17.2242 10.464 17.0179 10.5163 16.8231C10.5686 16.6283 10.6845 16.4558 10.8462 16.332C11.008 16.2083 11.2066 16.1401 11.4116 16.1381C11.6166 16.136 11.8166 16.2002 11.9809 16.3207L12.998 17.0854V12.5623C12.998 12.4441 13.0217 12.3271 13.0677 12.218C13.1137 12.1088 13.1811 12.0097 13.2661 11.9261C13.3511 11.8426 13.452 11.7763 13.5631 11.7311C13.6742 11.6859 13.7932 11.6626 13.9134 11.6626C14.0336 11.6626 14.1527 11.6859 14.2637 11.7311C14.3748 11.7763 14.4757 11.8426 14.5607 11.9261C14.6457 12.0097 14.7132 12.1088 14.7592 12.218C14.8052 12.3271 14.8288 12.4441 14.8288 12.5623V14.8363L16.5783 15.3911C17.0105 15.4885 17.3921 15.7367 17.6521 16.0897Z" fill="#161616"/>
</svg>
