<svg width="24" height="24" viewBox="0 0 24 24" fill="none" xmlns="http://www.w3.org/2000/svg">
<path fill-rule="evenodd" clip-rule="evenodd" d="M11 6.5C11 6.22386 11.2239 6 11.5 6C11.7761 6 12 6.22386 12 6.5V9C11.9988 9.84732 11.4649 10.6024 10.6665 10.886C10.5667 10.9213 10.5001 11.0157 10.5 11.1215V17.5C10.5 17.7761 10.2761 18 10 18C9.72386 18 9.5 17.7761 9.5 17.5V11.1215C9.49994 11.0157 9.43325 10.9213 9.3335 10.886C8.53506 10.6024 8.00121 9.84732 8 9V6.5C8 6.22386 8.22386 6 8.5 6C8.77614 6 9 6.22386 9 6.5V9C8.99979 9.26143 9.10233 9.51247 9.2855 9.699C9.32121 9.73492 9.37501 9.74586 9.42191 9.72672C9.4688 9.70759 9.4996 9.66215 9.5 9.6115V6.5C9.5 6.22386 9.72386 6 10 6C10.2761 6 10.5 6.22386 10.5 6.5V9.6125C10.5004 9.66315 10.5312 9.70859 10.5781 9.72772C10.625 9.74686 10.6788 9.73592 10.7145 9.7C10.8979 9.51322 11.0005 9.26178 11 9V6.5ZM13.5 6.375C13.5 6.16789 13.6679 6 13.875 6C15.041 6 16.218 9.0275 16.25 12.6215V12.625C16.251 12.791 16.1854 12.9506 16.068 13.068C15.9506 13.1854 15.7911 13.2509 15.625 13.25H14.75C14.612 13.25 14.5 13.3619 14.5 13.5V17.5C14.5 17.7761 14.2762 18 14 18C13.7239 18 13.5 17.7761 13.5 17.5V6.375Z" fill="#161616"/>
</svg>
