<svg width="24" height="24" viewBox="0 0 24 24" fill="none" xmlns="http://www.w3.org/2000/svg">
<path fill-rule="evenodd" clip-rule="evenodd" d="M10 4.66667C10 4.29848 10.2985 4 10.6667 4C11.0349 4 11.3333 4.29848 11.3333 4.66667V8C11.3317 9.12976 10.6199 10.1365 9.55533 10.5147C9.42233 10.5618 9.33341 10.6876 9.33333 10.8287V19.3333C9.33333 19.7015 9.03486 20 8.66667 20C8.29848 20 8 19.7015 8 19.3333V10.8287C7.99992 10.6876 7.911 10.5618 7.778 10.5147C6.71341 10.1365 6.00161 9.12976 6 8V4.66667C6 4.29848 6.29848 4 6.66667 4C7.03486 4 7.33333 4.29848 7.33333 4.66667V8C7.33306 8.34857 7.46977 8.68329 7.714 8.932C7.76161 8.97989 7.83334 8.99447 7.89587 8.96897C7.9584 8.94346 7.99947 8.88286 8 8.81533V4.66667C8 4.29848 8.29848 4 8.66667 4C9.03486 4 9.33333 4.29848 9.33333 4.66667V8.81667C9.33386 8.8842 9.37493 8.94479 9.43746 8.9703C9.49999 8.99581 9.57172 8.98123 9.61933 8.93333C9.86389 8.6843 10.0006 8.34903 10 8V4.66667ZM13.3334 4.5C13.3334 4.22386 13.5573 4 13.8334 4C15.3881 4 16.9574 8.03667 17.0001 12.8287V12.8333C17.0013 13.0547 16.9139 13.2674 16.7574 13.424C16.6008 13.5805 16.3881 13.6679 16.1667 13.6667H15.0001C14.816 13.6667 14.6667 13.8159 14.6667 14V19.3333C14.6667 19.7015 14.3683 20 14.0001 20C13.6319 20 13.3334 19.7015 13.3334 19.3333V4.5Z" fill="#161616"/>
</svg>
