<svg width="24" height="24" viewBox="0 0 24 24" fill="none" xmlns="http://www.w3.org/2000/svg">
<path fill-rule="evenodd" clip-rule="evenodd" d="M10 2.83333C10 2.3731 10.3731 2 10.8333 2C11.2936 2 11.6667 2.3731 11.6667 2.83333V7C11.6647 8.4122 10.7749 9.6706 9.44417 10.1433C9.27792 10.2022 9.16677 10.3595 9.16667 10.5358V21.1667C9.16667 21.6269 8.79357 22 8.33333 22C7.8731 22 7.5 21.6269 7.5 21.1667V10.5358C7.4999 10.3595 7.38875 10.2022 7.2225 10.1433C5.89177 9.6706 5.00201 8.4122 5 7V2.83333C5 2.3731 5.3731 2 5.83333 2C6.29357 2 6.66667 2.3731 6.66667 2.83333V7C6.66632 7.43572 6.83721 7.85412 7.1425 8.165C7.20201 8.22487 7.29168 8.24309 7.36984 8.21121C7.44801 8.17932 7.49934 8.10358 7.5 8.01917V2.83333C7.5 2.3731 7.8731 2 8.33333 2C8.79357 2 9.16667 2.3731 9.16667 2.83333V8.02083C9.16733 8.10525 9.21866 8.18099 9.29682 8.21287C9.37499 8.24476 9.46465 8.22653 9.52417 8.16667C9.82986 7.85537 10.0008 7.43629 10 7V2.83333ZM14.1667 2.625C14.1667 2.27982 14.4465 2 14.7917 2C16.735 2 18.6967 7.04583 18.75 13.0358V13.0417C18.7516 13.3184 18.6423 13.5843 18.4466 13.78C18.2509 13.9757 17.9851 14.0849 17.7083 14.0833H16.25C16.0199 14.0833 15.8333 14.2699 15.8333 14.5V21.1667C15.8333 21.6269 15.4602 22 15 22C14.5398 22 14.1667 21.6269 14.1667 21.1667V2.625Z" fill="#161616"/>
</svg>
