<svg width="24" height="24" viewBox="0 0 24 24" fill="none" xmlns="http://www.w3.org/2000/svg">
<path fill-rule="evenodd" clip-rule="evenodd" d="M12.6666 7.66666C12.9318 7.66666 13.1862 7.56131 13.3737 7.37377C13.5612 7.18623 13.6666 6.93188 13.6666 6.66666V6.33333C13.6666 6.06811 13.5612 5.81376 13.3737 5.62623C13.1862 5.43869 12.9318 5.33333 12.6666 5.33333H11.9999C11.9999 4.97971 11.8595 4.64057 11.6094 4.39052C11.3594 4.14048 11.0202 4 10.6666 4C10.313 4 9.97384 4.14048 9.72379 4.39052C9.47374 4.64057 9.33327 4.97971 9.33327 5.33333H8.6666C8.40138 5.33333 8.14703 5.43869 7.95949 5.62623C7.77196 5.81376 7.6666 6.06811 7.6666 6.33333V6.66666C7.6666 6.93188 7.77196 7.18623 7.95949 7.37377C8.14703 7.56131 8.40138 7.66666 8.6666 7.66666H12.6666ZM15.8334 7.00003H15.0001C14.8233 7.00003 14.6537 6.92979 14.5287 6.80477C14.4036 6.67975 14.3334 6.51018 14.3334 6.33337C14.3334 6.15655 14.4036 5.98699 14.5287 5.86196C14.6537 5.73694 14.8233 5.6667 15.0001 5.6667H16.0001C16.3537 5.6667 16.6928 5.80717 16.9429 6.05722C17.1929 6.30727 17.3334 6.64641 17.3334 7.00003V7.6667C17.3334 7.84351 17.2632 8.01308 17.1381 8.1381C17.0131 8.26313 16.8435 8.33336 16.6667 8.33336C16.4899 8.33336 16.3203 8.26313 16.1953 8.1381C16.0703 8.01308 16.0001 7.84351 16.0001 7.6667V7.1667C16.0001 7.1225 15.9825 7.0801 15.9512 7.04885C15.92 7.01759 15.8776 7.00003 15.8334 7.00003ZM16.1953 16.5886C16.3203 16.4635 16.4898 16.3933 16.6667 16.3933C16.8435 16.3933 17.013 16.4635 17.1381 16.5886C17.2631 16.7136 17.3333 16.8832 17.3333 17.06V18.6666C17.3333 19.0203 17.1928 19.3594 16.9428 19.6094C16.6927 19.8595 16.3536 20 16 20H5.33333C4.97971 20 4.64057 19.8595 4.39052 19.6094C4.14048 19.3594 4 19.0203 4 18.6666V7.01331C4 6.65969 4.14048 6.32055 4.39052 6.0705C4.64057 5.82046 4.97971 5.67998 5.33333 5.67998H6.33333C6.51014 5.67998 6.67971 5.75022 6.80474 5.87524C6.92976 6.00027 7 6.16984 7 6.34665C7 6.52346 6.92976 6.69303 6.80474 6.81805C6.67971 6.94307 6.51014 7.01331 6.33333 7.01331H5.5C5.4558 7.01331 5.4134 7.03087 5.38215 7.06213C5.35089 7.09338 5.33333 7.13578 5.33333 7.17998V18.5133C5.33669 18.5552 5.35572 18.5942 5.38662 18.6226C5.41752 18.6511 5.45801 18.6668 5.5 18.6666H15.8333C15.8775 18.6666 15.9199 18.6491 15.9512 18.6178C15.9824 18.5866 16 18.5442 16 18.5V17.06C16 16.8832 16.0702 16.7136 16.1953 16.5886ZM6.86186 11.1381C6.73684 11.013 6.6666 10.8435 6.6666 10.6667C6.6666 10.4899 6.73684 10.3203 6.86186 10.1953C6.98689 10.0702 7.15646 10 7.33327 10H12.6666C12.8434 10 13.013 10.0702 13.138 10.1953C13.263 10.3203 13.3333 10.4899 13.3333 10.6667C13.3333 10.8435 13.263 11.013 13.138 11.1381C13.013 11.2631 12.8434 11.3333 12.6666 11.3333H7.33327C7.15646 11.3333 6.98689 11.2631 6.86186 11.1381ZM7.33327 13.3333C7.15646 13.3333 6.98689 13.4035 6.86186 13.5286C6.73684 13.6536 6.6666 13.8232 6.6666 14C6.6666 14.1768 6.73684 14.3463 6.86186 14.4714C6.98689 14.5964 7.15646 14.6666 7.33327 14.6666H10.3333C10.5101 14.6666 10.6796 14.5964 10.8047 14.4714C10.9297 14.3463 10.9999 14.1768 10.9999 14C10.9999 13.8232 10.9297 13.6536 10.8047 13.5286C10.6796 13.4035 10.5101 13.3333 10.3333 13.3333H7.33327ZM18.6666 9.10557C19.0188 9.10557 19.3567 9.24496 19.6066 9.49329C19.7305 9.61712 19.8289 9.76417 19.896 9.92604C19.9631 10.0879 19.9976 10.2614 19.9976 10.4366C19.9976 10.6118 19.9631 10.7853 19.896 10.9472C19.8289 11.1091 19.7305 11.2561 19.6066 11.38L14.3666 16.6266C14.3331 16.6571 14.2948 16.6819 14.2532 16.6999L11.8932 17.6399C11.8328 17.6652 11.7661 17.6718 11.7019 17.6587C11.6377 17.6456 11.579 17.6135 11.5332 17.5666C11.4878 17.5199 11.4568 17.4612 11.4438 17.3974C11.4308 17.3336 11.4364 17.2673 11.4599 17.2066L12.4066 14.8533C12.4221 14.8104 12.4472 14.7717 12.4799 14.74L17.7266 9.49329C17.9764 9.24496 18.3143 9.10557 18.6666 9.10557Z" fill="#161616"/>
</svg>
