<svg width="24" height="24" viewBox="0 0 24 24" fill="none" xmlns="http://www.w3.org/2000/svg">
<path fill-rule="evenodd" clip-rule="evenodd" d="M12.4999 8.75C12.6988 8.75 12.8896 8.67098 13.0302 8.53033C13.1709 8.38968 13.2499 8.19891 13.2499 8V7.75C13.2499 7.55109 13.1709 7.36032 13.0302 7.21967C12.8896 7.07902 12.6988 7 12.4999 7H11.9999C11.9999 6.73478 11.8945 6.48043 11.707 6.29289C11.5194 6.10536 11.2651 6 10.9999 6C10.7347 6 10.4803 6.10536 10.2928 6.29289C10.1052 6.48043 9.99988 6.73478 9.99988 7H9.49988C9.30097 7 9.1102 7.07902 8.96955 7.21967C8.8289 7.36032 8.74988 7.55109 8.74988 7.75V8C8.74988 8.19891 8.8289 8.38968 8.96955 8.53033C9.1102 8.67098 9.30097 8.75 9.49988 8.75H12.4999ZM14.8751 8.25006H14.2501C14.1175 8.25006 13.9903 8.19738 13.8966 8.10361C13.8028 8.00985 13.7501 7.88267 13.7501 7.75006C13.7501 7.61745 13.8028 7.49028 13.8966 7.39651C13.9903 7.30274 14.1175 7.25006 14.2501 7.25006H15.0001C15.2653 7.25006 15.5197 7.35542 15.7072 7.54295C15.8948 7.73049 16.0001 7.98484 16.0001 8.25006V8.75006C16.0001 8.88267 15.9474 9.00984 15.8537 9.10361C15.7599 9.19738 15.6327 9.25006 15.5001 9.25006C15.3675 9.25006 15.2403 9.19738 15.1466 9.10361C15.0528 9.00984 15.0001 8.88267 15.0001 8.75006V8.37506C15.0001 8.34191 14.987 8.31011 14.9635 8.28667C14.9401 8.26323 14.9083 8.25006 14.8751 8.25006ZM15.1464 15.4414C15.2402 15.3476 15.3674 15.2949 15.5 15.2949C15.6326 15.2949 15.7598 15.3476 15.8535 15.4414C15.9473 15.5352 16 15.6623 16 15.7949V16.9999C16 17.2652 15.8946 17.5195 15.7071 17.707C15.5196 17.8946 15.2652 17.9999 15 17.9999H7C6.73478 17.9999 6.48043 17.8946 6.29289 17.707C6.10536 17.5195 6 17.2652 6 16.9999V8.25995C6 7.99473 6.10536 7.74038 6.29289 7.55284C6.48043 7.36531 6.73478 7.25995 7 7.25995H7.75C7.88261 7.25995 8.00978 7.31263 8.10355 7.4064C8.19732 7.50016 8.25 7.62734 8.25 7.75995C8.25 7.89256 8.19732 8.01973 8.10355 8.1135C8.00978 8.20727 7.88261 8.25995 7.75 8.25995H7.125C7.09185 8.25995 7.06005 8.27312 7.03661 8.29656C7.01317 8.32 7 8.3518 7 8.38495V16.8849C7.00252 16.9163 7.01679 16.9456 7.03997 16.9669C7.06314 16.9883 7.09351 17 7.125 16.9999H14.875C14.9081 16.9999 14.9399 16.9868 14.9634 16.9633C14.9868 16.9399 15 16.9081 15 16.8749V15.7949C15 15.6623 15.0527 15.5352 15.1464 15.4414ZM8.14632 11.3536C8.05256 11.2598 7.99988 11.1326 7.99988 11C7.99988 10.8674 8.05256 10.7402 8.14632 10.6464C8.24009 10.5527 8.36727 10.5 8.49988 10.5H12.4999C12.6325 10.5 12.7597 10.5527 12.8534 10.6464C12.9472 10.7402 12.9999 10.8674 12.9999 11C12.9999 11.1326 12.9472 11.2598 12.8534 11.3536C12.7597 11.4473 12.6325 11.5 12.4999 11.5H8.49988C8.36727 11.5 8.24009 11.4473 8.14632 11.3536ZM8.49988 12.9999C8.36727 12.9999 8.24009 13.0526 8.14632 13.1464C8.05256 13.2402 7.99988 13.3673 7.99988 13.4999C7.99988 13.6325 8.05256 13.7597 8.14632 13.8535C8.24009 13.9473 8.36727 13.9999 8.49988 13.9999H10.7499C10.8825 13.9999 11.0097 13.9473 11.1034 13.8535C11.1972 13.7597 11.2499 13.6325 11.2499 13.4999C11.2499 13.3673 11.1972 13.2402 11.1034 13.1464C11.0097 13.0526 10.8825 12.9999 10.7499 12.9999H8.49988ZM17 9.82919C17.2642 9.82919 17.5176 9.93373 17.705 10.12C17.798 10.2129 17.8717 10.3231 17.9221 10.4445C17.9724 10.5659 17.9983 10.6961 17.9983 10.8275C17.9983 10.9589 17.9724 11.089 17.9221 11.2104C17.8717 11.3318 17.798 11.4421 17.705 11.535L13.775 15.47C13.7499 15.4928 13.7212 15.5114 13.69 15.525L11.92 16.23C11.8747 16.2489 11.8247 16.2538 11.7765 16.244C11.7284 16.2342 11.6843 16.2102 11.65 16.175C11.6159 16.14 11.5926 16.0959 11.5829 16.048C11.5731 16.0002 11.5773 15.9505 11.595 15.905L12.305 14.14C12.3166 14.1078 12.3354 14.0788 12.36 14.055L16.295 10.12C16.4824 9.93373 16.7358 9.82919 17 9.82919Z" fill="#161616"/>
</svg>
