<svg width="24" height="24" viewBox="0 0 24 24" fill="none" xmlns="http://www.w3.org/2000/svg">
<path fill-rule="evenodd" clip-rule="evenodd" d="M7 6H17C17.2652 6 17.5195 6.10933 17.7071 6.30394C17.8946 6.49854 18 6.76248 18 7.0377V11.0847C18 11.3599 17.8946 11.6239 17.7071 11.8185C17.5195 12.0131 17.2652 12.1224 17 12.1224H7C6.73478 12.1224 6.48043 12.0131 6.29289 11.8185C6.10536 11.6239 6 11.3599 6 11.0847V7.0377C6 6.76248 6.10536 6.49854 6.29289 6.30394C6.48043 6.10933 6.73478 6 7 6ZM16.9367 7.07569C16.9133 7.05137 16.8815 7.0377 16.8484 7.0377H7.25C7.18369 7.0377 7.1201 7.06503 7.07322 7.11368C7.02634 7.16233 7 7.22832 7 7.29712V10.955C7 10.9894 7.01317 11.0224 7.03661 11.0467C7.06005 11.0711 7.09184 11.0847 7.125 11.0847H16.8484C16.8815 11.0847 16.9133 11.0711 16.9367 11.0467C16.9602 11.0224 16.9734 10.9894 16.9734 10.955V7.16741C16.9734 7.13301 16.9602 7.10002 16.9367 7.07569ZM6.48485 14.0817H17.5151C17.6437 14.0817 17.767 14.0268 17.8579 13.9293C17.9489 13.8317 18 13.6993 18 13.5613C18 13.4232 17.9489 13.2909 17.8579 13.1933C17.767 13.0957 17.6437 13.0409 17.5151 13.0409H6.48485C6.35626 13.0409 6.23293 13.0957 6.14201 13.1933C6.05108 13.2909 6 13.4232 6 13.5613C6 13.6993 6.05108 13.8317 6.14201 13.9293C6.23293 14.0268 6.35626 14.0817 6.48485 14.0817ZM15.1139 18H6.48607C6.35716 18 6.23352 17.9452 6.14237 17.8476C6.05121 17.75 6 17.6177 6 17.4796C6 17.3416 6.05121 17.2092 6.14237 17.1117C6.23352 17.0141 6.35716 16.9592 6.48607 16.9592H15.1139C15.2428 16.9592 15.3664 17.0141 15.4576 17.1117C15.5488 17.2092 15.6 17.3416 15.6 17.4796C15.6 17.6177 15.5488 17.75 15.4576 17.8476C15.3664 17.9452 15.2428 18 15.1139 18ZM6.47525 16.0408H17.5247C17.6508 16.0408 17.7716 15.986 17.8608 15.8884C17.9499 15.7908 18 15.6584 18 15.5204C18 15.3824 17.9499 15.25 17.8608 15.1524C17.7716 15.0548 17.6508 15 17.5247 15H6.47525C6.3492 15 6.22832 15.0548 6.1392 15.1524C6.05007 15.25 6 15.3824 6 15.5204C6 15.6584 6.05007 15.7908 6.1392 15.8884C6.22832 15.986 6.3492 16.0408 6.47525 16.0408Z" fill="#161616"/>
</svg>
