<svg width="24" height="24" viewBox="0 0 24 24" fill="none" xmlns="http://www.w3.org/2000/svg">
<path fill-rule="evenodd" clip-rule="evenodd" d="M5.33333 4H18.6666C19.0202 4 19.3594 4.14577 19.6094 4.40525C19.8595 4.66472 19.9999 5.01665 19.9999 5.3836V10.7796C19.9999 11.1466 19.8595 11.4985 19.6094 11.758C19.3594 12.0175 19.0202 12.1632 18.6666 12.1632H5.33333C4.97971 12.1632 4.64057 12.0175 4.39052 11.758C4.14048 11.4985 4 11.1466 4 10.7796V5.3836C4 5.01665 4.14048 4.66472 4.39052 4.40525C4.64057 4.14577 4.97971 4 5.33333 4ZM18.5823 5.43425C18.5511 5.40182 18.5087 5.3836 18.4645 5.3836H5.66666C5.57826 5.3836 5.49347 5.42004 5.43096 5.48491C5.36845 5.54978 5.33333 5.63776 5.33333 5.7295V10.6067C5.33333 10.6526 5.35089 10.6965 5.38214 10.729C5.4134 10.7614 5.45579 10.7796 5.49999 10.7796H18.4645C18.5087 10.7796 18.5511 10.7614 18.5823 10.729C18.6136 10.6965 18.6311 10.6526 18.6311 10.6067V5.55655C18.6311 5.51068 18.6136 5.46669 18.5823 5.43425ZM4.64646 14.7755H19.3535C19.5249 14.7755 19.6894 14.7024 19.8106 14.5723C19.9318 14.4422 19.9999 14.2657 19.9999 14.0816C19.9999 13.8976 19.9318 13.7211 19.8106 13.591C19.6894 13.4609 19.5249 13.3878 19.3535 13.3878H4.64646C4.47501 13.3878 4.31058 13.4609 4.18934 13.591C4.06811 13.7211 4 13.8976 4 14.0816C4 14.2657 4.06811 14.4422 4.18934 14.5723C4.31058 14.7024 4.47501 14.7755 4.64646 14.7755ZM16.1519 20H4.6481C4.47621 20 4.31137 19.9269 4.18982 19.7968C4.06828 19.6666 4 19.4902 4 19.3061C4 19.1221 4.06828 18.9456 4.18982 18.8155C4.31137 18.6854 4.47621 18.6123 4.6481 18.6123H16.1519C16.3237 18.6123 16.4886 18.6854 16.6101 18.8155C16.7317 18.9456 16.8 19.1221 16.8 19.3061C16.8 19.4902 16.7317 19.6666 16.6101 19.7968C16.4886 19.9269 16.3237 20 16.1519 20ZM4.63366 17.3877H19.3663C19.5343 17.3877 19.6955 17.3146 19.8143 17.1845C19.9332 17.0543 19.9999 16.8779 19.9999 16.6938C19.9999 16.5098 19.9332 16.3333 19.8143 16.2032C19.6955 16.0731 19.5343 16 19.3663 16H4.63366C4.4656 16 4.30443 16.0731 4.1856 16.2032C4.06676 16.3333 4 16.5098 4 16.6938C4 16.8779 4.06676 17.0543 4.1856 17.1845C4.30443 17.3146 4.4656 17.3877 4.63366 17.3877Z" fill="#161616"/>
</svg>
