<svg width="24" height="24" viewBox="0 0 24 24" fill="none" xmlns="http://www.w3.org/2000/svg">
<path fill-rule="evenodd" clip-rule="evenodd" d="M11.7876 6.07411L5.63473 11.0605C5.53294 11.1423 5.41544 11.2035 5.2891 11.2404C5.16275 11.2774 5.03012 11.2894 4.89896 11.2758C4.7678 11.2621 4.64075 11.223 4.52527 11.1609C4.40978 11.0988 4.30817 11.0148 4.2264 10.9138C4.05769 10.7074 3.9783 10.4448 4.00511 10.1821C4.03193 9.9194 4.16283 9.67727 4.36997 9.50725L10.5229 4.5142C10.9394 4.18168 11.4612 4 11.9996 4C12.5379 4 13.0597 4.18168 13.4762 4.5142L19.6291 9.50725C19.8363 9.67727 19.9672 9.9194 19.994 10.1821C20.0208 10.4448 19.9414 10.7074 19.7727 10.9138C19.6909 11.0148 19.5893 11.0988 19.4738 11.1609C19.3584 11.223 19.2313 11.2621 19.1001 11.2758C18.969 11.2894 18.8364 11.2774 18.71 11.2404C18.5837 11.2035 18.4662 11.1423 18.3644 11.0605L12.2115 6.07411C12.1522 6.02525 12.0772 5.99843 11.9996 5.99843C11.922 5.99843 11.8469 6.02525 11.7876 6.07411ZM19.0617 14.0003V18.6667C19.0628 19.0026 18.9339 19.3265 18.7007 19.5737C18.4675 19.8209 18.1472 19.9731 17.8038 20H14.1258C13.9444 20 13.7705 19.9298 13.6423 19.8048C13.5141 19.6797 13.4421 19.5102 13.4421 19.3334V15.6669C13.4421 15.4901 13.3701 15.3205 13.2419 15.1955C13.1137 15.0705 12.9398 15.0003 12.7584 15.0003H11.3911C11.2098 15.0003 11.0359 15.0705 10.9077 15.1955C10.7795 15.3205 10.7075 15.4901 10.7075 15.6669V19.3334C10.7075 19.5102 10.6355 19.6797 10.5072 19.8048C10.379 19.9298 10.2051 20 10.0238 20H6.37311C6.01048 20 5.6627 19.8595 5.40628 19.6095C5.14986 19.3595 5.0058 19.0203 5.0058 18.6667V14.0003C5.01102 13.7999 5.05795 13.6026 5.14374 13.4204C5.22953 13.2382 5.35239 13.0749 5.50487 12.9404L11.1792 8.27399C11.4184 8.07751 11.721 7.96975 12.0338 7.96975C12.3465 7.96975 12.6492 8.07751 12.8883 8.27399L18.5627 12.9404C18.7152 13.0749 18.838 13.2382 18.9238 13.4204C19.0096 13.6026 19.0565 13.7999 19.0617 14.0003Z" fill="#161616"/>
</svg>
