<svg width="24" height="24" viewBox="0 0 24 24" fill="none" xmlns="http://www.w3.org/2000/svg">
<path fill-rule="evenodd" clip-rule="evenodd" d="M11.8407 7.55559L7.22605 11.2954C7.14971 11.3567 7.06158 11.4026 6.96682 11.4303C6.87207 11.4581 6.77259 11.4671 6.67422 11.4568C6.57585 11.4466 6.48057 11.4173 6.39395 11.3707C6.30733 11.3241 6.23113 11.2611 6.1698 11.1854C6.04327 11.0305 5.98372 10.8336 6.00383 10.6366C6.02394 10.4395 6.12212 10.258 6.27748 10.1304L10.8921 6.38565C11.2046 6.13626 11.5959 6 11.9997 6C12.4034 6 12.7948 6.13626 13.1072 6.38565L17.7219 10.1304C17.8772 10.258 17.9754 10.4395 17.9955 10.6366C18.0156 10.8336 17.9561 11.0305 17.8295 11.1854C17.7682 11.2611 17.692 11.3241 17.6054 11.3707C17.5188 11.4173 17.4235 11.4466 17.3251 11.4568C17.2267 11.4671 17.1273 11.4581 17.0325 11.4303C16.9377 11.4026 16.8496 11.3567 16.7733 11.2954L12.1586 7.55559C12.1142 7.51893 12.0579 7.49882 11.9997 7.49882C11.9415 7.49882 11.8851 7.51893 11.8407 7.55559ZM17.2963 13.5002V17C17.2972 17.2519 17.2005 17.4949 17.0256 17.6803C16.8506 17.8657 16.6104 17.9798 16.3529 18H13.5944C13.4584 18 13.328 17.9473 13.2318 17.8535C13.1356 17.7598 13.0816 17.6326 13.0816 17.5V14.7502C13.0816 14.6176 13.0276 14.4904 12.9314 14.3966C12.8353 14.3029 12.7049 14.2502 12.5689 14.2502H11.5434C11.4074 14.2502 11.277 14.3029 11.1808 14.3966C11.0847 14.4904 11.0307 14.6176 11.0307 14.7502V17.5C11.0307 17.6326 10.9766 17.7598 10.8805 17.8535C10.7843 17.9473 10.6539 18 10.5179 18H7.77988C7.5079 18 7.24707 17.8946 7.05475 17.7071C6.86244 17.5196 6.75439 17.2652 6.75439 17V13.5002C6.75831 13.3499 6.7935 13.2019 6.85785 13.0653C6.92219 12.9286 7.01434 12.8062 7.1287 12.7053L11.3844 9.20548C11.5638 9.05811 11.7908 8.97729 12.0254 8.97729C12.2599 8.97729 12.4869 9.05811 12.6663 9.20548L16.922 12.7053C17.0364 12.8062 17.1286 12.9286 17.1929 13.0653C17.2572 13.2019 17.2924 13.3499 17.2963 13.5002Z" fill="#161616"/>
</svg>
