<svg width="24" height="24" viewBox="0 0 24 24" fill="none" xmlns="http://www.w3.org/2000/svg">
<path fill-rule="evenodd" clip-rule="evenodd" d="M19.4142 5.29664C19.7893 5.67869 20 6.19686 20 6.73716V12.5093C20 12.6894 19.9298 12.8621 19.8047 12.9894C19.6797 13.1168 19.5101 13.1883 19.3333 13.1883C19.1565 13.1883 18.987 13.1168 18.8619 12.9894C18.7369 12.8621 18.6667 12.6894 18.6667 12.5093V8.26507C18.6667 8.22004 18.6491 8.17686 18.6179 8.14502C18.5866 8.11319 18.5442 8.0953 18.5 8.0953H5.5C5.4558 8.0953 5.41341 8.11319 5.38215 8.14502C5.35089 8.17686 5.33333 8.22004 5.33333 8.26507V16.5837C5.33333 16.7638 5.40357 16.9365 5.5286 17.0638C5.65362 17.1912 5.82319 17.2627 6 17.2627C6.17681 17.2627 6.34638 17.3343 6.4714 17.4616C6.59643 17.589 6.66667 17.7617 6.66667 17.9418C6.66667 18.1219 6.59643 18.2946 6.4714 18.422C6.34638 18.5493 6.17681 18.6209 6 18.6209C5.46957 18.6209 4.96086 18.4062 4.58579 18.0242C4.21071 17.6421 4 17.124 4 16.5837V6.73716C4 6.19686 4.21071 5.67869 4.58579 5.29664C4.96086 4.91459 5.46957 4.69995 6 4.69995H18C18.5304 4.69995 19.0391 4.91459 19.4142 5.29664ZM6.65762 6.97276C6.75678 6.91652 6.84021 6.83543 6.9 6.73716C6.96509 6.63633 6.99978 6.5183 6.99978 6.39763C6.99978 6.27695 6.96509 6.15892 6.9 6.05809C6.83765 5.95301 6.7485 5.86711 6.64204 5.80953C6.53557 5.75196 6.41577 5.72487 6.29539 5.73114C6.175 5.73741 6.05854 5.77681 5.95839 5.84514C5.85825 5.91348 5.77816 6.00819 5.72667 6.11921C5.68962 6.20733 5.66926 6.3018 5.66667 6.39763C5.6699 6.51783 5.70441 6.635 5.76667 6.73716C5.82646 6.83543 5.90988 6.91652 6.00905 6.97276C6.10822 7.02899 6.21984 7.05851 6.33333 7.05851C6.44683 7.05851 6.55845 7.02899 6.65762 6.97276ZM8.99095 6.97276C9.09012 6.91652 9.17354 6.83543 9.23333 6.73716C9.29843 6.63633 9.33311 6.5183 9.33311 6.39763C9.33311 6.27695 9.29843 6.15892 9.23333 6.05809C9.17354 5.95982 9.09012 5.87873 8.99095 5.82249C8.89178 5.76626 8.78016 5.73674 8.66667 5.73674C8.55317 5.73674 8.44155 5.76626 8.34238 5.82249C8.24322 5.87873 8.15979 5.95982 8.1 6.05809C8.03491 6.15892 8.00022 6.27695 8.00022 6.39763C8.00022 6.5183 8.03491 6.63633 8.1 6.73716C8.15979 6.83543 8.24322 6.91652 8.34238 6.97276C8.44155 7.02899 8.55317 7.05851 8.66667 7.05851C8.78016 7.05851 8.89178 7.02899 8.99095 6.97276ZM11.3243 6.97276C11.4234 6.91652 11.5069 6.83543 11.5667 6.73716C11.6318 6.63633 11.6664 6.5183 11.6664 6.39763C11.6664 6.27695 11.6318 6.15892 11.5667 6.05809C11.5069 5.95982 11.4234 5.87873 11.3243 5.82249C11.2251 5.76626 11.1135 5.73674 11 5.73674C10.8865 5.73674 10.7749 5.76626 10.6757 5.82249C10.5766 5.87873 10.4931 5.95982 10.4333 6.05809C10.3682 6.15892 10.3336 6.27695 10.3336 6.39763C10.3336 6.5183 10.3682 6.63633 10.4333 6.73716C10.4931 6.83543 10.5766 6.91652 10.6757 6.97276C10.7749 7.02899 10.8865 7.05851 11 7.05851C11.1135 7.05851 11.2251 7.02899 11.3243 6.97276ZM9.72744 14.7056C9.78851 14.6803 9.85393 14.6678 9.91984 14.6687C10.0524 14.6687 10.1796 14.7223 10.2734 14.8178C10.3672 14.9134 10.4198 15.0429 10.4198 15.178V18.7906C10.4198 18.9257 10.3672 19.0552 10.2734 19.1508C10.1796 19.2463 10.0524 19.2999 9.91984 19.2999C9.78723 19.2999 9.66005 19.2463 9.56628 19.1508C9.47252 19.0552 9.41984 18.9257 9.41984 18.7906V18.0233C9.41984 17.9782 9.40228 17.9351 9.37102 17.9032C9.33977 17.8714 9.29737 17.8535 9.25317 17.8535H8.83317C8.78897 17.8535 8.74658 17.8714 8.71532 17.9032C8.68406 17.9351 8.6665 17.9782 8.6665 18.0233V18.7906C8.6665 18.9257 8.61383 19.0552 8.52006 19.1508C8.42629 19.2463 8.29911 19.2999 8.1665 19.2999C8.0339 19.2999 7.90672 19.2463 7.81295 19.1508C7.71918 19.0552 7.6665 18.9257 7.6665 18.7906V15.178C7.6665 15.0429 7.71918 14.9134 7.81295 14.8178C7.90672 14.7223 8.0339 14.6687 8.1665 14.6687C8.29911 14.6687 8.42629 14.7223 8.52006 14.8178C8.61383 14.9134 8.6665 15.0429 8.6665 15.178V16.6651C8.6665 16.7102 8.68406 16.7533 8.71532 16.7852C8.74658 16.817 8.78897 16.8349 8.83317 16.8349H9.25317C9.29737 16.8349 9.33977 16.817 9.37102 16.7852C9.40228 16.7533 9.41984 16.7102 9.41984 16.6651V15.178C9.41894 15.1108 9.43126 15.0442 9.45607 14.982C9.48088 14.9198 9.51768 14.8633 9.56429 14.8158C9.61089 14.7683 9.66637 14.7308 9.72744 14.7056ZM13.1134 14.6686H11.6934C11.5608 14.6686 11.4336 14.7223 11.3398 14.8178C11.246 14.9133 11.1934 15.0428 11.1934 15.1779C11.1934 15.313 11.246 15.4425 11.3398 15.5381C11.4336 15.6336 11.5608 15.6872 11.6934 15.6872H11.7334C11.7776 15.6872 11.82 15.7051 11.8512 15.7369C11.8825 15.7688 11.9 15.812 11.9 15.857V18.7906C11.9 18.9256 11.9527 19.0552 12.0465 19.1507C12.1402 19.2462 12.2674 19.2999 12.4 19.2999C12.5326 19.2999 12.6598 19.2462 12.7536 19.1507C12.8473 19.0552 12.9 18.9256 12.9 18.7906V15.857C12.9 15.812 12.9176 15.7688 12.9488 15.7369C12.9801 15.7051 13.0225 15.6872 13.0667 15.6872H13.1134C13.246 15.6872 13.3731 15.6336 13.4669 15.5381C13.5607 15.4425 13.6134 15.313 13.6134 15.1779C13.6134 15.0428 13.5607 14.9133 13.4669 14.8178C13.3731 14.7223 13.246 14.6686 13.1134 14.6686ZM16.3065 14.6686H14.8865C14.7539 14.6686 14.6267 14.7223 14.5329 14.8178C14.4392 14.9133 14.3865 15.0428 14.3865 15.1779C14.3865 15.313 14.4392 15.4425 14.5329 15.5381C14.6267 15.6336 14.7539 15.6872 14.8865 15.6872H14.9331C14.9773 15.6872 15.0197 15.7051 15.051 15.7369C15.0822 15.7688 15.0998 15.812 15.0998 15.857V18.7906C15.0998 18.9256 15.1525 19.0552 15.2463 19.1507C15.34 19.2462 15.4672 19.2999 15.5998 19.2999C15.7324 19.2999 15.8596 19.2462 15.9534 19.1507C16.0471 19.0552 16.0998 18.9256 16.0998 18.7906V15.857C16.0998 15.812 16.1174 15.7688 16.1486 15.7369C16.1799 15.7051 16.2223 15.6872 16.2665 15.6872H16.3065C16.4391 15.6872 16.5663 15.6336 16.66 15.5381C16.7538 15.4425 16.8065 15.313 16.8065 15.1779C16.8065 15.0428 16.7538 14.9133 16.66 14.8178C16.5663 14.7223 16.4391 14.6686 16.3065 14.6686ZM18.4332 14.6686H18.0798C17.9472 14.6686 17.82 14.7223 17.7263 14.8178C17.6325 14.9133 17.5798 15.0428 17.5798 15.1779V18.7906C17.5798 18.9256 17.6325 19.0552 17.7263 19.1507C17.82 19.2462 17.9472 19.2999 18.0798 19.2999C18.2124 19.2999 18.3396 19.2462 18.4334 19.1507C18.5272 19.0552 18.5798 18.9256 18.5798 18.7906V17.9893C18.5806 17.9489 18.5949 17.9101 18.6204 17.8792C18.6459 17.8483 18.681 17.8273 18.7198 17.8195C19.1019 17.7466 19.4435 17.531 19.6777 17.215C19.9119 16.899 20.0218 16.5053 19.986 16.111C19.9501 15.7167 19.771 15.3503 19.4838 15.0835C19.1966 14.8167 18.8219 14.6688 18.4332 14.6686ZM18.8732 16.6108C18.852 16.6372 18.8235 16.6565 18.7914 16.6662C18.7593 16.6759 18.7251 16.6755 18.6932 16.6651C18.6603 16.6528 18.6319 16.6306 18.6117 16.6015C18.5915 16.5724 18.5804 16.5378 18.5798 16.5021V16.02C18.5804 15.9843 18.5915 15.9497 18.6117 15.9206C18.6319 15.8915 18.6603 15.8693 18.6932 15.857C18.7248 15.8445 18.7597 15.843 18.7923 15.8528C18.8249 15.8626 18.8533 15.8832 18.8732 15.9113C18.9501 16.0071 18.9921 16.1271 18.9921 16.2509C18.9921 16.3746 18.9501 16.4946 18.8732 16.5904V16.6108Z" fill="#161616"/>
</svg>
