<svg width="24" height="24" viewBox="0 0 24 24" fill="none" xmlns="http://www.w3.org/2000/svg">
<path fill-rule="evenodd" clip-rule="evenodd" d="M21.2678 3.73564C21.7366 4.20666 22 4.8455 22 5.51163V12.6279C22 12.8499 21.9122 13.0629 21.7559 13.2199C21.5996 13.3769 21.3877 13.4651 21.1667 13.4651C20.9457 13.4651 20.7337 13.3769 20.5774 13.2199C20.4211 13.0629 20.3333 12.8499 20.3333 12.6279V7.39535C20.3333 7.33984 20.3114 7.2866 20.2723 7.24735C20.2332 7.2081 20.1803 7.18605 20.125 7.18605H3.875C3.81975 7.18605 3.76676 7.2081 3.72769 7.24735C3.68862 7.2866 3.66667 7.33984 3.66667 7.39535V17.6512C3.66667 17.8732 3.75446 18.0862 3.91074 18.2432C4.06702 18.4002 4.27899 18.4884 4.5 18.4884C4.72101 18.4884 4.93298 18.5766 5.08926 18.7336C5.24554 18.8906 5.33333 19.1035 5.33333 19.3256C5.33333 19.5476 5.24554 19.7606 5.08926 19.9176C4.93298 20.0746 4.72101 20.1628 4.5 20.1628C3.83696 20.1628 3.20107 19.8982 2.73223 19.4272C2.26339 18.9561 2 18.3173 2 17.6512V5.51163C2 4.8455 2.26339 4.20666 2.73223 3.73564C3.20107 3.26462 3.83696 3 4.5 3H19.5C20.163 3 20.7989 3.26462 21.2678 3.73564ZM5.32202 5.80209C5.44598 5.73276 5.55026 5.63278 5.625 5.51163C5.70637 5.38732 5.74973 5.2418 5.74973 5.09302C5.74973 4.94425 5.70637 4.79873 5.625 4.67442C5.54707 4.54486 5.43563 4.43896 5.30255 4.36798C5.16946 4.297 5.01971 4.26359 4.86923 4.27132C4.71875 4.27905 4.57317 4.32763 4.44799 4.41188C4.32281 4.49613 4.2227 4.6129 4.15833 4.74977C4.11202 4.85841 4.08658 4.97488 4.08333 5.09302C4.08737 5.24122 4.13051 5.38567 4.20833 5.51163C4.28307 5.63278 4.38736 5.73276 4.51131 5.80209C4.63527 5.87142 4.77479 5.90781 4.91667 5.90781C5.05854 5.90781 5.19806 5.87142 5.32202 5.80209ZM8.23869 5.80209C8.36264 5.73276 8.46693 5.63278 8.54167 5.51163C8.62303 5.38732 8.66639 5.2418 8.66639 5.09302C8.66639 4.94425 8.62303 4.79873 8.54167 4.67442C8.46693 4.55327 8.36264 4.45329 8.23869 4.38396C8.11473 4.31463 7.97521 4.27824 7.83333 4.27824C7.69146 4.27824 7.55194 4.31463 7.42798 4.38396C7.30402 4.45329 7.19974 4.55327 7.125 4.67442C7.04363 4.79873 7.00027 4.94425 7.00027 5.09302C7.00027 5.2418 7.04363 5.38732 7.125 5.51163C7.19974 5.63278 7.30402 5.73276 7.42798 5.80209C7.55194 5.87142 7.69146 5.90781 7.83333 5.90781C7.97521 5.90781 8.11473 5.87142 8.23869 5.80209ZM11.1554 5.80209C11.2793 5.73276 11.3836 5.63278 11.4583 5.51163C11.5397 5.38732 11.5831 5.2418 11.5831 5.09302C11.5831 4.94425 11.5397 4.79873 11.4583 4.67442C11.3836 4.55327 11.2793 4.45329 11.1554 4.38396C11.0314 4.31463 10.8919 4.27824 10.75 4.27824C10.6081 4.27824 10.4686 4.31463 10.3446 4.38396C10.2207 4.45329 10.1164 4.55327 10.0417 4.67442C9.9603 4.79873 9.91694 4.94425 9.91694 5.09302C9.91694 5.2418 9.9603 5.38732 10.0417 5.51163C10.1164 5.63278 10.2207 5.73276 10.3446 5.80209C10.4686 5.87142 10.6081 5.90781 10.75 5.90781C10.8919 5.90781 11.0314 5.87142 11.1554 5.80209ZM9.15942 15.3357C9.23576 15.3046 9.31753 15.2891 9.39992 15.2902C9.56568 15.2902 9.72465 15.3564 9.84186 15.4741C9.95907 15.5919 10.0249 15.7516 10.0249 15.9181V20.3721C10.0249 20.5386 9.95907 20.6983 9.84186 20.8161C9.72465 20.9338 9.56568 21 9.39992 21C9.23416 21 9.07519 20.9338 8.95798 20.8161C8.84077 20.6983 8.77492 20.5386 8.77492 20.3721V19.426C8.77492 19.3705 8.75297 19.3173 8.7139 19.278C8.67483 19.2388 8.62184 19.2167 8.56659 19.2167H8.04159C7.98633 19.2167 7.93334 19.2388 7.89427 19.278C7.8552 19.3173 7.83325 19.3705 7.83325 19.426V20.3721C7.83325 20.5386 7.7674 20.6983 7.65019 20.8161C7.53298 20.9338 7.37401 21 7.20825 21C7.04249 21 6.88352 20.9338 6.76631 20.8161C6.6491 20.6983 6.58325 20.5386 6.58325 20.3721V15.9181C6.58325 15.7516 6.6491 15.5919 6.76631 15.4741C6.88352 15.3564 7.04249 15.2902 7.20825 15.2902C7.37401 15.2902 7.53298 15.3564 7.65019 15.4741C7.7674 15.5919 7.83325 15.7516 7.83325 15.9181V17.7516C7.83325 17.8071 7.8552 17.8604 7.89427 17.8996C7.93334 17.9389 7.98633 17.9609 8.04159 17.9609H8.56659C8.62184 17.9609 8.67483 17.9389 8.7139 17.8996C8.75297 17.8604 8.77492 17.8071 8.77492 17.7516V15.9181C8.7738 15.8354 8.7892 15.7532 8.82021 15.6765C8.85122 15.5998 8.89722 15.5302 8.95548 15.4716C9.01374 15.4131 9.08309 15.3669 9.15942 15.3357ZM13.3917 15.2902H11.6167C11.4509 15.2902 11.292 15.3563 11.1748 15.4741C11.0575 15.5918 10.9917 15.7515 10.9917 15.9181C10.9917 16.0846 11.0575 16.2443 11.1748 16.3621C11.292 16.4798 11.4509 16.546 11.6167 16.546H11.6667C11.722 16.546 11.7749 16.568 11.814 16.6073C11.8531 16.6465 11.875 16.6998 11.875 16.7553V20.372C11.875 20.5386 11.9409 20.6983 12.0581 20.816C12.1753 20.9338 12.3343 20.9999 12.5 20.9999C12.6658 20.9999 12.8248 20.9338 12.942 20.816C13.0592 20.6983 13.125 20.5386 13.125 20.372V16.7553C13.125 16.6998 13.147 16.6465 13.1861 16.6073C13.2251 16.568 13.2781 16.546 13.3334 16.546H13.3917C13.5575 16.546 13.7164 16.4798 13.8336 16.3621C13.9509 16.2443 14.0167 16.0846 14.0167 15.9181C14.0167 15.7515 13.9509 15.5918 13.8336 15.4741C13.7164 15.3563 13.5575 15.2902 13.3917 15.2902ZM17.3832 15.2902H15.6082C15.4424 15.2902 15.2834 15.3563 15.1662 15.4741C15.049 15.5918 14.9832 15.7515 14.9832 15.9181C14.9832 16.0846 15.049 16.2443 15.1662 16.3621C15.2834 16.4798 15.4424 16.546 15.6082 16.546H15.6665C15.7217 16.546 15.7747 16.568 15.8138 16.6073C15.8529 16.6465 15.8748 16.6998 15.8748 16.7553V20.372C15.8748 20.5386 15.9407 20.6983 16.0579 20.816C16.1751 20.9338 16.3341 20.9999 16.4998 20.9999C16.6656 20.9999 16.8246 20.9338 16.9418 20.816C17.059 20.6983 17.1248 20.5386 17.1248 20.372V16.7553C17.1248 16.6998 17.1468 16.6465 17.1858 16.6073C17.2249 16.568 17.2779 16.546 17.3332 16.546H17.3832C17.5489 16.546 17.7079 16.4798 17.8251 16.3621C17.9423 16.2443 18.0082 16.0846 18.0082 15.9181C18.0082 15.7515 17.9423 15.5918 17.8251 15.4741C17.7079 15.3563 17.5489 15.2902 17.3832 15.2902ZM20.0415 15.2902H19.5999C19.4341 15.2902 19.2751 15.3563 19.1579 15.4741C19.0407 15.5918 18.9749 15.7515 18.9749 15.9181V20.372C18.9749 20.5386 19.0407 20.6983 19.1579 20.816C19.2751 20.9338 19.4341 20.9999 19.5999 20.9999C19.7656 20.9999 19.9246 20.9338 20.0418 20.816C20.159 20.6983 20.2249 20.5386 20.2249 20.372V19.3841C20.2258 19.3344 20.2437 19.2865 20.2756 19.2484C20.3074 19.2104 20.3513 19.1844 20.3999 19.1748C20.8775 19.0849 21.3044 18.8192 21.5972 18.4296C21.8899 18.0399 22.0274 17.5545 21.9825 17.0685C21.9377 16.5824 21.7138 16.1306 21.3548 15.8017C20.9958 15.4728 20.5274 15.2903 20.0415 15.2902ZM20.5915 17.6846C20.5651 17.7172 20.5294 17.741 20.4893 17.7529C20.4492 17.7649 20.4064 17.7644 20.3665 17.7516C20.3255 17.7364 20.29 17.709 20.2647 17.6732C20.2394 17.6373 20.2255 17.5946 20.2249 17.5506V16.9562C20.2255 16.9123 20.2394 16.8696 20.2647 16.8337C20.29 16.7978 20.3255 16.7705 20.3665 16.7553C20.4061 16.7398 20.4497 16.738 20.4904 16.7501C20.5311 16.7623 20.5667 16.7876 20.5915 16.8223C20.6876 16.9404 20.7402 17.0883 20.7402 17.2409C20.7402 17.3935 20.6876 17.5413 20.5915 17.6595V17.6846Z" fill="#161616"/>
</svg>
