<svg width="24" height="24" viewBox="0 0 24 24" fill="none" xmlns="http://www.w3.org/2000/svg">
<path fill-rule="evenodd" clip-rule="evenodd" d="M17.5607 6.94956C17.842 7.2374 18 7.62781 18 8.03488V12.3837C18 12.5194 17.9473 12.6495 17.8536 12.7455C17.7598 12.8414 17.6326 12.8953 17.5 12.8953C17.3674 12.8953 17.2402 12.8414 17.1464 12.7455C17.0527 12.6495 17 12.5194 17 12.3837V9.18605C17 9.15212 16.9868 9.11959 16.9634 9.0956C16.9399 9.07162 16.9082 9.05814 16.875 9.05814H7.125C7.09185 9.05814 7.06005 9.07162 7.03661 9.0956C7.01317 9.11959 7 9.15212 7 9.18605V15.4535C7 15.5892 7.05268 15.7193 7.14645 15.8153C7.24021 15.9112 7.36739 15.9651 7.5 15.9651C7.63261 15.9651 7.75979 16.019 7.85355 16.115C7.94732 16.2109 8 16.3411 8 16.4767C8 16.6124 7.94732 16.7426 7.85355 16.8385C7.75979 16.9345 7.63261 16.9884 7.5 16.9884C7.10218 16.9884 6.72064 16.8267 6.43934 16.5388C6.15804 16.251 6 15.8606 6 15.4535V8.03488C6 7.62781 6.15804 7.2374 6.43934 6.94956C6.72064 6.66171 7.10218 6.5 7.5 6.5H16.5C16.8978 6.5 17.2794 6.66171 17.5607 6.94956ZM7.99321 8.21239C8.06759 8.17002 8.13016 8.10892 8.175 8.03488C8.22382 7.95892 8.24984 7.86999 8.24984 7.77907C8.24984 7.68815 8.22382 7.59922 8.175 7.52326C8.12824 7.44408 8.06138 7.37936 7.98153 7.33599C7.90168 7.29261 7.81183 7.2722 7.72154 7.27692C7.63125 7.28164 7.5439 7.31133 7.4688 7.36281C7.39369 7.4143 7.33362 7.48566 7.295 7.5693C7.26721 7.6357 7.25195 7.70687 7.25 7.77907C7.25242 7.86963 7.27831 7.95791 7.325 8.03488C7.36984 8.10892 7.43241 8.17002 7.50679 8.21239C7.58116 8.25476 7.66488 8.277 7.75 8.277C7.83512 8.277 7.91884 8.25476 7.99321 8.21239ZM9.74321 8.21239C9.81759 8.17002 9.88016 8.10892 9.925 8.03488C9.97382 7.95892 9.99984 7.86999 9.99984 7.77907C9.99984 7.68815 9.97382 7.59922 9.925 7.52326C9.88016 7.44922 9.81759 7.38812 9.74321 7.34575C9.66884 7.30338 9.58512 7.28114 9.5 7.28114C9.41488 7.28114 9.33116 7.30338 9.25679 7.34575C9.18241 7.38812 9.11984 7.44922 9.075 7.52326C9.02618 7.59922 9.00016 7.68815 9.00016 7.77907C9.00016 7.86999 9.02618 7.95892 9.075 8.03488C9.11984 8.10892 9.18241 8.17002 9.25679 8.21239C9.33116 8.25476 9.41488 8.277 9.5 8.277C9.58512 8.277 9.66884 8.25476 9.74321 8.21239ZM11.4932 8.21239C11.5676 8.17002 11.6302 8.10892 11.675 8.03488C11.7238 7.95892 11.7498 7.86999 11.7498 7.77907C11.7498 7.68815 11.7238 7.59922 11.675 7.52326C11.6302 7.44922 11.5676 7.38812 11.4932 7.34575C11.4188 7.30338 11.3351 7.28114 11.25 7.28114C11.1649 7.28114 11.0812 7.30338 11.0068 7.34575C10.9324 7.38812 10.8698 7.44922 10.825 7.52326C10.7762 7.59922 10.7502 7.68815 10.7502 7.77907C10.7502 7.86999 10.7762 7.95892 10.825 8.03488C10.8698 8.10892 10.9324 8.17002 11.0068 8.21239C11.0812 8.25476 11.1649 8.277 11.25 8.277C11.3351 8.277 11.4188 8.25476 11.4932 8.21239ZM10.2957 14.0384C10.3415 14.0194 10.3906 14.0099 10.44 14.0106C10.5395 14.0106 10.6348 14.051 10.7052 14.123C10.7755 14.195 10.815 14.2926 10.815 14.3943V17.1162C10.815 17.218 10.7755 17.3156 10.7052 17.3875C10.6348 17.4595 10.5395 17.4999 10.44 17.4999C10.3405 17.4999 10.2452 17.4595 10.1748 17.3875C10.1045 17.3156 10.065 17.218 10.065 17.1162V16.5381C10.065 16.5041 10.0518 16.4716 10.0284 16.4476C10.0049 16.4236 9.97315 16.4101 9.94 16.4101H9.625C9.59185 16.4101 9.56005 16.4236 9.53661 16.4476C9.51317 16.4716 9.5 16.5041 9.5 16.5381V17.1162C9.5 17.218 9.46049 17.3156 9.39017 17.3875C9.31984 17.4595 9.22446 17.4999 9.125 17.4999C9.02554 17.4999 8.93016 17.4595 8.85983 17.3875C8.78951 17.3156 8.75 17.218 8.75 17.1162V14.3943C8.75 14.2926 8.78951 14.195 8.85983 14.123C8.93016 14.051 9.02554 14.0106 9.125 14.0106C9.22446 14.0106 9.31984 14.051 9.39017 14.123C9.46049 14.195 9.5 14.2926 9.5 14.3943V15.5148C9.5 15.5487 9.51317 15.5813 9.53661 15.6052C9.56005 15.6292 9.59185 15.6427 9.625 15.6427H9.94C9.97315 15.6427 10.0049 15.6292 10.0284 15.6052C10.0518 15.5813 10.065 15.5487 10.065 15.5148V14.3943C10.0643 14.3438 10.0736 14.2935 10.0922 14.2467C10.1108 14.1998 10.1384 14.1572 10.1733 14.1215C10.2083 14.0857 10.2499 14.0575 10.2957 14.0384ZM12.835 14.0106H11.77C11.6706 14.0106 11.5752 14.051 11.5049 14.123C11.4345 14.1949 11.395 14.2925 11.395 14.3943C11.395 14.4961 11.4345 14.5937 11.5049 14.6656C11.5752 14.7376 11.6706 14.778 11.77 14.778H11.8C11.8332 14.778 11.865 14.7915 11.8884 14.8155C11.9118 14.8395 11.925 14.872 11.925 14.9059V17.1162C11.925 17.2179 11.9645 17.3155 12.0349 17.3875C12.1052 17.4595 12.2006 17.4999 12.3 17.4999C12.3995 17.4999 12.4949 17.4595 12.5652 17.3875C12.6355 17.3155 12.675 17.2179 12.675 17.1162V14.9059C12.675 14.872 12.6882 14.8395 12.7116 14.8155C12.7351 14.7915 12.7669 14.778 12.8 14.778H12.835C12.9345 14.778 13.0299 14.7376 13.1002 14.6656C13.1705 14.5937 13.21 14.4961 13.21 14.3943C13.21 14.2925 13.1705 14.1949 13.1002 14.123C13.0299 14.051 12.9345 14.0106 12.835 14.0106ZM15.2298 14.0106H14.1648C14.0653 14.0106 13.97 14.051 13.8996 14.123C13.8293 14.1949 13.7898 14.2925 13.7898 14.3943C13.7898 14.4961 13.8293 14.5937 13.8996 14.6656C13.97 14.7376 14.0653 14.778 14.1648 14.778H14.1998C14.2329 14.778 14.2647 14.7915 14.2882 14.8155C14.3116 14.8395 14.3248 14.872 14.3248 14.9059V17.1162C14.3248 17.2179 14.3643 17.3155 14.4346 17.3875C14.505 17.4595 14.6003 17.4999 14.6998 17.4999C14.7993 17.4999 14.8946 17.4595 14.965 17.3875C15.0353 17.3155 15.0748 17.2179 15.0748 17.1162V14.9059C15.0748 14.872 15.088 14.8395 15.1114 14.8155C15.1348 14.7915 15.1666 14.778 15.1998 14.778H15.2298C15.3293 14.778 15.4246 14.7376 15.495 14.6656C15.5653 14.5937 15.6048 14.4961 15.6048 14.3943C15.6048 14.2925 15.5653 14.1949 15.495 14.123C15.4246 14.051 15.3293 14.0106 15.2298 14.0106ZM16.8248 14.0106H16.5598C16.4604 14.0106 16.365 14.051 16.2946 14.123C16.2243 14.1949 16.1848 14.2925 16.1848 14.3943V17.1162C16.1848 17.2179 16.2243 17.3155 16.2946 17.3875C16.365 17.4595 16.4604 17.4999 16.5598 17.4999C16.6593 17.4999 16.7547 17.4595 16.825 17.3875C16.8953 17.3155 16.9348 17.2179 16.9348 17.1162V16.5124C16.9354 16.4821 16.9461 16.4528 16.9652 16.4295C16.9844 16.4062 17.0107 16.3904 17.0398 16.3845C17.3264 16.3296 17.5826 16.1672 17.7582 15.9291C17.9339 15.691 18.0163 15.3944 17.9894 15.0973C17.9625 14.8003 17.8282 14.5242 17.6128 14.3232C17.3974 14.1222 17.1164 14.0107 16.8248 14.0106ZM17.1548 15.4738C17.1389 15.4937 17.1176 15.5083 17.0935 15.5156C17.0694 15.5229 17.0437 15.5226 17.0198 15.5148C16.9952 15.5055 16.9739 15.4888 16.9587 15.4669C16.9435 15.4449 16.9352 15.4188 16.9348 15.392V15.0287C16.9352 15.0019 16.9435 14.9758 16.9587 14.9538C16.9739 14.9319 16.9952 14.9152 17.0198 14.9059C17.0436 14.8965 17.0697 14.8954 17.0942 14.9028C17.1186 14.9102 17.1399 14.9257 17.1548 14.9469C17.2125 15.0191 17.244 15.1094 17.244 15.2027C17.244 15.2959 17.2125 15.3863 17.1548 15.4585V15.4738Z" fill="#161616"/>
</svg>
