<svg width="24" height="24" viewBox="0 0 24 24" fill="none" xmlns="http://www.w3.org/2000/svg">
<path fill-rule="evenodd" clip-rule="evenodd" d="M10.7077 9.76971C10.7233 9.78187 10.7357 9.79722 10.744 9.81457C10.7523 9.83192 10.7563 9.85082 10.7556 9.86983V10.1452C10.7597 10.2421 10.8036 10.3338 10.878 10.401C10.9524 10.4682 11.0515 10.5057 11.1546 10.5056H13.0164C13.069 10.5063 13.1212 10.497 13.1699 10.4784C13.2187 10.4598 13.2629 10.4322 13.3001 10.3972C13.3373 10.3622 13.3667 10.3205 13.3865 10.2746C13.4063 10.2288 13.4161 10.1797 13.4154 10.1302V9.86983C13.4158 9.85047 13.4208 9.83143 13.43 9.81411C13.4392 9.79679 13.4524 9.78162 13.4686 9.76971C13.7374 9.57977 13.9563 9.33432 14.1085 9.05225C14.2606 8.77017 14.342 8.459 14.3463 8.14268C14.3355 7.58016 14.0944 7.04328 13.6731 6.64406C13.2519 6.24483 12.6831 6.0141 12.0855 6C11.4883 6.01532 10.9203 6.24645 10.4993 6.64541C10.0784 7.04437 9.83679 7.58055 9.82471 8.14268C9.83002 8.45934 9.91238 8.77065 10.0655 9.0527C10.2185 9.33475 10.4383 9.58003 10.7077 9.76971ZM8.20571 14.8647C8.10595 14.9586 7.97064 15.0113 7.82956 15.0113C7.68848 15.0113 7.55317 14.9586 7.45341 14.8647C7.35365 14.7708 7.29761 14.6434 7.29761 14.5107V13.5094C7.29761 13.3103 7.38167 13.1193 7.53132 12.9784C7.68096 12.8376 7.88391 12.7585 8.09554 12.7585H16.0748C16.2864 12.7585 16.4894 12.8376 16.639 12.9784C16.7887 13.1193 16.8728 13.3103 16.8728 13.5094V14.5107C16.8728 14.6434 16.8167 14.7708 16.7169 14.8647C16.6172 14.9586 16.4819 15.0113 16.3408 15.0113C16.1997 15.0113 16.0644 14.9586 15.9647 14.8647C15.8649 14.7708 15.8088 14.6434 15.8088 14.5107V13.8699C15.8088 13.8367 15.7948 13.8048 15.7699 13.7814C15.745 13.7579 15.7111 13.7447 15.6759 13.7447H12.7501C12.7149 13.7447 12.681 13.7579 12.6561 13.7814C12.6311 13.8048 12.6171 13.8367 12.6171 13.8699V14.5107C12.6171 14.6434 12.5611 14.7708 12.4613 14.8647C12.3616 14.9586 12.2263 15.0113 12.0852 15.0113C11.9441 15.0113 11.8088 14.9586 11.709 14.8647C11.6093 14.7708 11.5532 14.6434 11.5532 14.5107V13.8699C11.5532 13.8367 11.5392 13.8048 11.5143 13.7814C11.4893 13.7579 11.4555 13.7447 11.4202 13.7447H8.4945C8.45923 13.7447 8.4254 13.7579 8.40046 13.7814C8.37552 13.8048 8.36151 13.8367 8.36151 13.8699V14.5107C8.36151 14.6434 8.30547 14.7708 8.20571 14.8647ZM11.0218 15.4968H13.1496C13.2965 15.4968 13.4155 15.6089 13.4155 15.7471V17.7496C13.4155 17.8879 13.2965 18 13.1496 18H11.0218C10.8749 18 10.7558 17.8879 10.7558 17.7496V15.7471C10.7558 15.6089 10.8749 15.4968 11.0218 15.4968ZM9.15976 16.7484C9.15976 17.4396 8.56435 18 7.82988 18C7.09541 18 6.5 17.4396 6.5 16.7484C6.5 16.0572 7.09541 15.4969 7.82988 15.4969C8.56435 15.4969 9.15976 16.0572 9.15976 16.7484ZM17.4795 17.6345L16.5805 15.9424C16.5596 15.8998 16.5263 15.8638 16.4843 15.8385C16.4424 15.8132 16.3936 15.7998 16.3438 15.7998C16.294 15.7998 16.2452 15.8132 16.2032 15.8385C16.1613 15.8638 16.1279 15.8998 16.1071 15.9424L15.1974 17.6345C15.1751 17.672 15.1633 17.7142 15.1633 17.7572C15.1633 17.8001 15.1751 17.8424 15.1974 17.8798C15.2204 17.9163 15.2531 17.9466 15.2923 17.9677C15.3314 17.9887 15.3757 17.9999 15.4208 18H17.2242C17.2693 17.9999 17.3136 17.9887 17.3527 17.9677C17.3919 17.9466 17.4246 17.9163 17.4476 17.8798C17.475 17.845 17.4924 17.8042 17.498 17.7612C17.5035 17.7182 17.4972 17.6745 17.4795 17.6345ZM12.3248 12.248C12.25 12.3184 12.1485 12.358 12.0427 12.358C11.9417 12.357 11.8448 12.3205 11.7709 12.2557C11.6971 12.1908 11.6517 12.1023 11.6438 12.0075V11.8974C11.6438 11.8642 11.6298 11.8324 11.6048 11.8089C11.5799 11.7854 11.5461 11.7722 11.5108 11.7722H11.4204C11.3145 11.7722 11.2131 11.7327 11.1382 11.6623C11.0634 11.5919 11.0214 11.4964 11.0214 11.3968C11.0214 11.2972 11.0634 11.2017 11.1382 11.1313C11.2131 11.0609 11.3145 11.0213 11.4204 11.0213H12.7502C12.856 11.0213 12.9575 11.0609 13.0323 11.1313C13.1072 11.2017 13.1492 11.2972 13.1492 11.3968C13.1492 11.4964 13.1072 11.5919 13.0323 11.6623C12.9575 11.7327 12.856 11.7722 12.7502 11.7722H12.5747C12.5394 11.7722 12.5056 11.7854 12.4807 11.8089C12.4557 11.8324 12.4417 11.8642 12.4417 11.8974V11.9825C12.4417 12.0821 12.3997 12.1776 12.3248 12.248Z" fill="#161616"/>
</svg>
