<svg width="24" height="24" viewBox="0 0 24 24" fill="none" xmlns="http://www.w3.org/2000/svg">
<path fill-rule="evenodd" clip-rule="evenodd" d="M10.3553 9.02628C10.3751 9.0425 10.3909 9.06295 10.4014 9.08609C10.412 9.10922 10.4171 9.13442 10.4163 9.15978V9.5269C10.4215 9.65617 10.4773 9.77842 10.572 9.86802C10.6666 9.95762 10.7928 10.0076 10.924 10.0075H13.2936C13.3606 10.0084 13.427 9.99606 13.489 9.97122C13.551 9.94638 13.6074 9.90954 13.6547 9.86287C13.702 9.81621 13.7394 9.76066 13.7646 9.69951C13.7898 9.63837 13.8023 9.57287 13.8014 9.50688V9.15978C13.8019 9.13396 13.8082 9.10858 13.82 9.08548C13.8317 9.06239 13.8485 9.04216 13.8691 9.02628C14.2112 8.77303 14.4899 8.44576 14.6835 8.06966C14.8772 7.69356 14.9807 7.27866 14.9862 6.8569C14.9725 6.10688 14.6656 5.39104 14.1294 4.85874C13.5933 4.32645 12.8694 4.0188 12.1088 4C11.3487 4.02043 10.6258 4.3286 10.0901 4.86055C9.5543 5.3925 9.24683 6.10739 9.23145 6.8569C9.23821 7.27913 9.34303 7.69421 9.53785 8.07027C9.73268 8.44633 10.0123 8.77337 10.3553 9.02628ZM7.17114 15.8195C7.04417 15.9447 6.87197 16.015 6.69241 16.015C6.51285 16.015 6.34064 15.9447 6.21368 15.8195C6.08671 15.6944 6.01538 15.5246 6.01538 15.3475V14.0125C6.01538 13.747 6.12237 13.4923 6.31283 13.3046C6.50328 13.1168 6.76159 13.0113 7.03093 13.0113H17.1864C17.4557 13.0113 17.714 13.1168 17.9045 13.3046C18.0949 13.4923 18.2019 13.747 18.2019 14.0125V15.3475C18.2019 15.5246 18.1306 15.6944 18.0036 15.8195C17.8767 15.9447 17.7045 16.015 17.5249 16.015C17.3453 16.015 17.1731 15.9447 17.0462 15.8195C16.9192 15.6944 16.8479 15.5246 16.8479 15.3475V14.4931C16.8479 14.4489 16.83 14.4064 16.7983 14.3751C16.7666 14.3438 16.7235 14.3263 16.6786 14.3263H12.9549C12.9101 14.3263 12.867 14.3438 12.8353 14.3751C12.8035 14.4064 12.7857 14.4489 12.7857 14.4931V15.3475C12.7857 15.5246 12.7144 15.6944 12.5874 15.8195C12.4604 15.9447 12.2882 16.015 12.1087 16.015C11.9291 16.015 11.7569 15.9447 11.6299 15.8195C11.503 15.6944 11.4316 15.5246 11.4316 15.3475V14.4931C11.4316 14.4489 11.4138 14.4064 11.382 14.3751C11.3503 14.3438 11.3073 14.3263 11.2624 14.3263H7.5387C7.49381 14.3263 7.45076 14.3438 7.41901 14.3751C7.38727 14.4064 7.36944 14.4489 7.36944 14.4931V15.3475C7.36944 15.5246 7.29811 15.6944 7.17114 15.8195ZM10.7548 16.6625H13.4629C13.6499 16.6625 13.8014 16.8119 13.8014 16.9962V19.6662C13.8014 19.8506 13.6499 20 13.4629 20H10.7548C10.5678 20 10.4163 19.8506 10.4163 19.6662V16.9962C10.4163 16.8119 10.5678 16.6625 10.7548 16.6625ZM8.38515 18.3313C8.38515 19.2529 7.62736 20 6.69258 20C5.75779 20 5 19.2529 5 18.3313C5 17.4096 5.75779 16.6625 6.69258 16.6625C7.62736 16.6625 8.38515 17.4096 8.38515 18.3313ZM18.9741 19.5127L17.8299 17.2566C17.8034 17.1998 17.7609 17.1517 17.7075 17.118C17.6541 17.0843 17.592 17.0664 17.5286 17.0664C17.4652 17.0664 17.4032 17.0843 17.3498 17.118C17.2964 17.1517 17.2539 17.1998 17.2273 17.2566L16.0696 19.5127C16.0412 19.5626 16.0262 19.619 16.0262 19.6763C16.0262 19.7335 16.0412 19.7899 16.0696 19.8398C16.0989 19.8885 16.1405 19.9288 16.1904 19.9569C16.2402 19.985 16.2966 19.9998 16.354 20H18.6491C18.7065 19.9998 18.7629 19.985 18.8127 19.9569C18.8626 19.9288 18.9042 19.8885 18.9335 19.8398C18.9684 19.7934 18.9905 19.7389 18.9976 19.6815C19.0047 19.6242 18.9966 19.566 18.9741 19.5127ZM12.4136 12.3307C12.3184 12.4246 12.1892 12.4773 12.0545 12.4773C11.926 12.476 11.8026 12.4274 11.7086 12.3409C11.6146 12.2544 11.5569 12.1364 11.5468 12.01V11.8632C11.5468 11.8189 11.5289 11.7765 11.4972 11.7452C11.4655 11.7139 11.4224 11.6963 11.3775 11.6963H11.2624C11.1277 11.6963 10.9986 11.6436 10.9034 11.5497C10.8081 11.4558 10.7546 11.3285 10.7546 11.1957C10.7546 11.0629 10.8081 10.9356 10.9034 10.8417C10.9986 10.7478 11.1277 10.6951 11.2624 10.6951H12.955C13.0897 10.6951 13.2188 10.7478 13.314 10.8417C13.4093 10.9356 13.4628 11.0629 13.4628 11.1957C13.4628 11.3285 13.4093 11.4558 13.314 11.5497C13.2188 11.6436 13.0897 11.6963 12.955 11.6963H12.7316C12.6867 11.6963 12.6436 11.7139 12.6119 11.7452C12.5801 11.7765 12.5623 11.8189 12.5623 11.8632V11.9767C12.5623 12.1094 12.5088 12.2368 12.4136 12.3307Z" fill="#161616"/>
</svg>
