<svg width="24" height="24" viewBox="0 0 24 24" fill="none" xmlns="http://www.w3.org/2000/svg">
<path fill-rule="evenodd" clip-rule="evenodd" d="M12 6C8.68629 6 6 8.68629 6 12C6 15.3137 8.68629 18 12 18C15.3137 18 18 15.3137 18 12C17.9964 8.68778 15.3122 6.00358 12 6ZM12.1251 8.50003C12.5393 8.50003 12.8751 8.83582 12.8751 9.25003C12.8751 9.66424 12.5393 10 12.1251 10C11.7108 10 11.3751 9.66424 11.3751 9.25003C11.3751 8.83582 11.7108 8.50003 12.1251 8.50003ZM13.2499 15.25H11.2499C10.9738 15.25 10.7499 15.0262 10.7499 14.75C10.7499 14.4739 10.9738 14.25 11.2499 14.25H11.6249C11.694 14.25 11.7499 14.1941 11.7499 14.125V11.875C11.7499 11.806 11.694 11.75 11.6249 11.75H11.2499C10.9738 11.75 10.7499 11.5262 10.7499 11.25C10.7499 10.9739 10.9738 10.75 11.2499 10.75H11.7499C12.3022 10.75 12.7499 11.1977 12.7499 11.75V14.125C12.7499 14.1941 12.8059 14.25 12.8749 14.25H13.2499C13.5261 14.25 13.7499 14.4739 13.7499 14.75C13.7499 15.0262 13.5261 15.25 13.2499 15.25Z" fill="#161616"/>
</svg>
