<svg width="24" height="24" viewBox="0 0 24 24" fill="none" xmlns="http://www.w3.org/2000/svg">
<path fill-rule="evenodd" clip-rule="evenodd" d="M12 4C7.58172 4 4 7.58172 4 12C4 16.4183 7.58172 20 12 20C16.4183 20 20 16.4183 20 12C19.9952 7.5837 16.4163 4.00478 12 4ZM12.1667 7.33335C12.719 7.33335 13.1667 7.78106 13.1667 8.33335C13.1667 8.88563 12.719 9.33335 12.1667 9.33335C11.6144 9.33335 11.1667 8.88563 11.1667 8.33335C11.1667 7.78106 11.6144 7.33335 12.1667 7.33335ZM13.6666 16.3333H11C10.6318 16.3333 10.3333 16.0349 10.3333 15.6667C10.3333 15.2985 10.6318 15 11 15H11.5C11.592 15 11.6666 14.9254 11.6666 14.8333V11.8333C11.6666 11.7413 11.592 11.6667 11.5 11.6667H11C10.6318 11.6667 10.3333 11.3682 10.3333 11C10.3333 10.6318 10.6318 10.3333 11 10.3333H11.6666C12.403 10.3333 13 10.9303 13 11.6667V14.8333C13 14.9254 13.0746 15 13.1666 15H13.6666C14.0348 15 14.3333 15.2985 14.3333 15.6667C14.3333 16.0349 14.0348 16.3333 13.6666 16.3333Z" fill="#161616"/>
</svg>
