<svg width="24" height="24" viewBox="0 0 24 24" fill="none" xmlns="http://www.w3.org/2000/svg">
<path fill-rule="evenodd" clip-rule="evenodd" d="M12 2C6.47715 2 2 6.47715 2 12C2 17.5228 6.47715 22 12 22C17.5228 22 22 17.5228 22 12C21.994 6.47963 17.5204 2.00597 12 2ZM12.2083 6.16667C12.8987 6.16667 13.4583 6.72631 13.4583 7.41667C13.4583 8.10702 12.8987 8.66667 12.2083 8.66667C11.518 8.66667 10.9583 8.10702 10.9583 7.41667C10.9583 6.72631 11.518 6.16667 12.2083 6.16667ZM14.0833 17.4167H10.75C10.2898 17.4167 9.91667 17.0436 9.91667 16.5833C9.91667 16.1231 10.2898 15.75 10.75 15.75H11.375C11.4901 15.75 11.5833 15.6567 11.5833 15.5417V11.7917C11.5833 11.6766 11.4901 11.5833 11.375 11.5833H10.75C10.2898 11.5833 9.91667 11.2102 9.91667 10.75C9.91667 10.2898 10.2898 9.91667 10.75 9.91667H11.5833C12.5038 9.91667 13.25 10.6629 13.25 11.5833V15.5417C13.25 15.6567 13.3433 15.75 13.4583 15.75H14.0833C14.5436 15.75 14.9167 16.1231 14.9167 16.5833C14.9167 17.0436 14.5436 17.4167 14.0833 17.4167Z" fill="#161616"/>
</svg>
