<svg width="24" height="24" viewBox="0 0 24 24" fill="none" xmlns="http://www.w3.org/2000/svg">
<path fill-rule="evenodd" clip-rule="evenodd" d="M18.8 12C18.8 15.7555 15.7555 18.8 12 18.8C8.24446 18.8 5.2 15.7555 5.2 12C5.2 8.24446 8.24446 5.2 12 5.2C15.7555 5.2 18.8 8.24446 18.8 12ZM20 12C20 16.4183 16.4183 20 12 20C7.58172 20 4 16.4183 4 12C4 7.58172 7.58172 4 12 4C16.4183 4 20 7.58172 20 12ZM12.1666 7.33335C12.7189 7.33335 13.1666 7.78106 13.1666 8.33335C13.1666 8.88563 12.7189 9.33335 12.1666 9.33335C11.6143 9.33335 11.1666 8.88563 11.1666 8.33335C11.1666 7.78106 11.6143 7.33335 12.1666 7.33335ZM13.6667 16.3333H11.0001C10.6319 16.3333 10.3334 16.0349 10.3334 15.6667C10.3334 15.2985 10.6319 15 11.0001 15H11.5001C11.5921 15 11.6667 14.9254 11.6667 14.8333V11.8333C11.6667 11.7413 11.5921 11.6667 11.5001 11.6667H11.0001C10.6319 11.6667 10.3334 11.3682 10.3334 11C10.3334 10.6318 10.6319 10.3333 11.0001 10.3333H11.6667C12.4031 10.3333 13.0001 10.9303 13.0001 11.6667V14.8333C13.0001 14.9254 13.0747 15 13.1667 15H13.6667C14.0349 15 14.3334 15.2985 14.3334 15.6667C14.3334 16.0349 14.0349 16.3333 13.6667 16.3333Z" fill="#161616"/>
</svg>
