<svg width="24" height="24" viewBox="0 0 24 24" fill="none" xmlns="http://www.w3.org/2000/svg">
<path fill-rule="evenodd" clip-rule="evenodd" d="M17.1 12C17.1 14.8167 14.8167 17.1 12 17.1C9.18335 17.1 6.9 14.8167 6.9 12C6.9 9.18335 9.18335 6.9 12 6.9C14.8167 6.9 17.1 9.18335 17.1 12ZM18 12C18 15.3137 15.3137 18 12 18C8.68629 18 6 15.3137 6 12C6 8.68629 8.68629 6 12 6C15.3137 6 18 8.68629 18 12ZM12.125 8.50001C12.5392 8.50001 12.875 8.8358 12.875 9.25001C12.875 9.66423 12.5392 10 12.125 10C11.7107 10 11.375 9.66423 11.375 9.25001C11.375 8.8358 11.7107 8.50001 12.125 8.50001ZM13.25 15.25H11.25C10.9739 15.25 10.75 15.0262 10.75 14.75C10.75 14.4739 10.9739 14.25 11.25 14.25H11.625C11.6941 14.25 11.75 14.194 11.75 14.125V11.875C11.75 11.806 11.6941 11.75 11.625 11.75H11.25C10.9739 11.75 10.75 11.5262 10.75 11.25C10.75 10.9739 10.9739 10.75 11.25 10.75H11.75C12.3023 10.75 12.75 11.1977 12.75 11.75V14.125C12.75 14.194 12.806 14.25 12.875 14.25H13.25C13.5262 14.25 13.75 14.4739 13.75 14.75C13.75 15.0262 13.5262 15.25 13.25 15.25Z" fill="#161616"/>
</svg>
