<svg width="24" height="24" viewBox="0 0 24 24" fill="none" xmlns="http://www.w3.org/2000/svg">
<path fill-rule="evenodd" clip-rule="evenodd" d="M12.1478 12.72C12.1674 12.7031 12.1813 12.6806 12.1876 12.6556C12.1938 12.6305 12.1922 12.6041 12.1828 12.58C12.1478 12.5 12.0529 12.5 12.0029 12.5C11.6075 12.5 11.221 12.3827 10.8923 12.1629C10.5636 11.9432 10.3073 11.6308 10.156 11.2654C10.0047 10.8999 9.96514 10.4978 10.0423 10.1098C10.1194 9.72186 10.3098 9.36549 10.5894 9.08579C10.8689 8.80608 11.2251 8.6156 11.6129 8.53843C12.0007 8.46126 12.4026 8.50087 12.7679 8.65224C13.1332 8.80362 13.4454 9.05996 13.665 9.38886C13.8847 9.71776 14.0019 10.1044 14.0019 10.5C14.002 10.9281 13.8615 11.3445 13.6021 11.685C13.5877 11.7064 13.58 11.7317 13.58 11.7575C13.58 11.7833 13.5877 11.8086 13.6021 11.83C13.6165 11.8516 13.6371 11.8684 13.6612 11.8782C13.6852 11.888 13.7116 11.8904 13.7371 11.885C14.0628 11.7961 14.3989 11.7507 14.7366 11.75C15.3524 11.7514 15.9596 11.8952 16.5107 12.17C16.5311 12.1824 16.5544 12.1889 16.5782 12.1889C16.602 12.1889 16.6253 12.1824 16.6457 12.17C17.0166 11.8793 17.3672 11.5635 17.6951 11.225C17.7888 11.132 17.8632 11.0214 17.9139 10.8996C17.9647 10.7777 17.9908 10.647 17.9908 10.515C17.9908 10.383 17.9647 10.2523 17.9139 10.1304C17.8632 10.0086 17.7888 9.89796 17.6951 9.805C16.4058 8.435 14.2468 7 12.0779 7H11.9279C9.75898 7 7.60002 8.435 6.29566 9.79C6.20197 9.88296 6.12761 9.99356 6.07687 10.1154C6.02613 10.2373 6 10.368 6 10.5C6 10.632 6.02613 10.7627 6.07687 10.8846C6.12761 11.0064 6.20197 11.117 6.29566 11.21C7.4401 12.39 9.22924 13.635 11.1033 13.93C11.1291 13.9349 11.1558 13.9312 11.1793 13.9194C11.2027 13.9077 11.2217 13.8886 11.2333 13.865C11.4667 13.4313 11.7765 13.0435 12.1478 12.72ZM12.0029 11.25C12.4169 11.25 12.7525 10.9142 12.7525 10.5C12.7525 10.0858 12.4169 9.75001 12.0029 9.75001C11.5888 9.75001 11.2532 10.0858 11.2532 10.5C11.2532 10.9142 11.5888 11.25 12.0029 11.25ZM12.9468 13.0477C13.481 12.6906 14.1091 12.5 14.7516 12.5C15.6127 12.5013 16.4382 12.8442 17.0471 13.4534C17.656 14.0626 17.9987 14.8884 18 15.75C18 16.3928 17.8095 17.0211 17.4525 17.5556C17.0956 18.0901 16.5882 18.5066 15.9947 18.7526C15.4011 18.9986 14.748 19.0629 14.1178 18.9375C13.4877 18.8121 12.9089 18.5026 12.4546 18.0481C12.0003 17.5936 11.6909 17.0145 11.5655 16.384C11.4402 15.7536 11.5045 15.1001 11.7504 14.5063C11.9963 13.9124 12.4126 13.4048 12.9468 13.0477ZM15.0514 17.115L16.5007 15.175C16.5678 15.0685 16.5922 14.9405 16.5691 14.8167C16.546 14.693 16.4771 14.5825 16.3761 14.5073C16.2751 14.4322 16.1495 14.3979 16.0244 14.4114C15.8992 14.4249 15.7838 14.4851 15.7011 14.58L14.4217 16.285C14.4111 16.2992 14.3976 16.3111 14.3821 16.3197C14.3666 16.3283 14.3494 16.3335 14.3318 16.335C14.314 16.3358 14.2962 16.3326 14.2798 16.3257C14.2633 16.3188 14.2487 16.3083 14.2368 16.295L13.6871 15.75C13.6423 15.6977 13.5871 15.6551 13.5251 15.6251C13.4631 15.5951 13.3956 15.5783 13.3268 15.5756C13.2579 15.5729 13.1893 15.5845 13.1252 15.6097C13.061 15.6348 13.0028 15.6729 12.9541 15.7217C12.9054 15.7704 12.8673 15.8287 12.8422 15.8928C12.817 15.957 12.8054 16.0257 12.8081 16.0945C12.8108 16.1634 12.8276 16.2309 12.8576 16.293C12.8876 16.355 12.9301 16.4102 12.9824 16.455L13.732 17.205C13.8204 17.2941 13.9269 17.3631 14.0443 17.4073C14.1616 17.4516 14.2871 17.4701 14.4123 17.4616C14.5374 17.453 14.6593 17.4177 14.7695 17.3579C14.8798 17.2981 14.976 17.2152 15.0514 17.115Z" fill="#161616"/>
</svg>
