<svg width="24" height="24" viewBox="0 0 24 24" fill="none" xmlns="http://www.w3.org/2000/svg">
<path fill-rule="evenodd" clip-rule="evenodd" d="M19.6204 11.3387C18.7591 10.3947 17.7749 9.57064 16.6941 8.8888L19.4162 6.17006C19.5931 5.99919 19.6641 5.74617 19.6018 5.50823C19.5395 5.27029 19.3537 5.08448 19.1158 5.0222C18.8778 4.95992 18.6248 5.03087 18.4539 5.20778L18.4417 5.22003C18.4183 5.29428 18.378 5.36208 18.324 5.41806L5.05347 18.6885C5.05096 18.6907 5.04815 18.6922 5.04533 18.6937C5.04203 18.6954 5.03871 18.6972 5.03578 18.7001C4.91276 18.9999 5.01815 19.3448 5.2877 19.5246C5.55726 19.7044 5.91621 19.6693 6.14573 19.4405L8.96724 16.619C9.89325 17.0233 10.8901 17.2405 11.9004 17.2581H12.1045C15.0009 17.2581 17.8816 15.2273 19.6251 13.3109C20.1268 12.7485 20.1247 11.8987 19.6204 11.3387ZM14.9334 13.1905C14.6334 14.1714 13.87 14.942 12.8918 15.2511C12.1971 15.4724 11.4447 15.4263 10.7822 15.1218C10.732 15.0975 10.6967 15.0503 10.6875 14.9953C10.6783 14.9403 10.6963 14.8842 10.7359 14.8449L14.5197 11.0618C14.5588 11.0219 14.6149 11.0035 14.67 11.0126C14.7252 11.0217 14.7724 11.057 14.7967 11.1074C15.0968 11.7613 15.1455 12.5029 14.9334 13.1905ZM9.05575 13.1156C9.07262 13.1735 9.05673 13.2361 9.01424 13.2789L6.942 15.3546C6.88246 15.4137 6.7892 15.422 6.72015 15.3743C5.86806 14.7735 5.08359 14.0821 4.38046 13.3123C3.87136 12.7522 3.87342 11.8963 4.38522 11.3387C6.14577 9.39987 9.07208 7.35282 11.9984 7.39229C12.7469 7.38806 13.4913 7.50245 14.204 7.73119C14.261 7.74998 14.3042 7.79701 14.3181 7.85543C14.332 7.91385 14.3146 7.97528 14.2721 8.0177L12.9511 9.3393C12.9084 9.38204 12.8459 9.39819 12.7878 9.3815C12.5313 9.30618 12.2657 9.26656 11.9984 9.26376C10.3071 9.26376 8.93598 10.6349 8.93598 12.3262C8.93977 12.5936 8.98007 12.8591 9.05575 13.1156Z" fill="#161616"/>
</svg>
