<svg width="24" height="24" viewBox="0 0 24 24" fill="none" xmlns="http://www.w3.org/2000/svg">
<path fill-rule="evenodd" clip-rule="evenodd" d="M19.6236 10.9514C17.8596 9.01069 14.9339 6.95929 11.9995 7.00063C9.06515 6.95862 6.13944 9.01135 4.37548 10.9514C3.87484 11.5111 3.87484 12.3577 4.37548 12.9174C6.11877 14.8374 9.00313 16.8708 11.8922 16.8708H12.0976C14.9966 16.8708 17.8803 14.8374 19.6256 12.9167C20.1256 12.3567 20.1247 11.5104 19.6236 10.9514ZM8.93184 11.9357C8.93184 10.2415 10.3053 8.86797 11.9996 8.86797C13.6939 8.86797 15.0674 10.2415 15.0674 11.9357C15.0674 13.63 13.6939 15.0035 11.9996 15.0035C10.3053 15.0035 8.93184 13.63 8.93184 11.9357ZM13.3334 11.9357C13.3334 12.6724 12.7363 13.2695 11.9996 13.2695C11.263 13.2695 10.6658 12.6724 10.6658 11.9357C10.6658 11.1991 11.263 10.6019 11.9996 10.6019C12.7363 10.6019 13.3334 11.1991 13.3334 11.9357Z" fill="#161616"/>
</svg>
