<svg width="24" height="24" viewBox="0 0 24 24" fill="none" xmlns="http://www.w3.org/2000/svg">
<path fill-rule="evenodd" clip-rule="evenodd" d="M12.1971 12.6267C12.2232 12.6042 12.2417 12.5742 12.2501 12.5407C12.2584 12.5073 12.2562 12.4721 12.2437 12.44C12.1971 12.3333 12.0705 12.3333 12.0039 12.3333C11.4767 12.3333 10.9614 12.1769 10.5231 11.8839C10.0847 11.5909 9.74311 11.1744 9.54137 10.6872C9.33964 10.1999 9.28685 9.66371 9.3897 9.14643C9.49254 8.62914 9.7464 8.15399 10.1192 7.78105C10.4919 7.40811 10.9668 7.15413 11.4839 7.05124C12.0009 6.94835 12.5368 7.00115 13.0239 7.20299C13.5109 7.40482 13.9272 7.74661 14.22 8.18515C14.5129 8.62368 14.6692 9.13925 14.6692 9.66667C14.6693 10.2375 14.482 10.7926 14.1362 11.2467C14.117 11.2752 14.1067 11.3089 14.1067 11.3433C14.1067 11.3778 14.117 11.4114 14.1362 11.44C14.1554 11.4688 14.1828 11.4912 14.2149 11.5043C14.247 11.5173 14.2822 11.5205 14.3161 11.5133C14.7504 11.3948 15.1985 11.3343 15.6488 11.3333C16.4699 11.3352 17.2794 11.5269 18.0143 11.8933C18.0414 11.9098 18.0725 11.9185 18.1042 11.9185C18.136 11.9185 18.1671 11.9098 18.1942 11.8933C18.6888 11.5057 19.1563 11.0847 19.5935 10.6333C19.7184 10.5094 19.8176 10.3619 19.8852 10.1994C19.9529 10.037 19.9877 9.86268 19.9877 9.68667C19.9877 9.51065 19.9529 9.33638 19.8852 9.1739C19.8176 9.01142 19.7184 8.86395 19.5935 8.74C17.8744 6.91333 14.9957 5 12.1038 5H11.9039C9.01198 5 6.13337 6.91333 4.39421 8.72C4.2693 8.84395 4.17015 8.99142 4.10249 9.1539C4.03483 9.31638 4 9.49065 4 9.66667C4 9.84268 4.03483 10.017 4.10249 10.1794C4.17015 10.3419 4.2693 10.4894 4.39421 10.6133C5.92014 12.1867 8.30565 13.8467 10.8044 14.24C10.8388 14.2465 10.8744 14.2415 10.9057 14.2259C10.937 14.2102 10.9623 14.1847 10.9777 14.1533C11.289 13.5751 11.7021 13.0579 12.1971 12.6267ZM12.0038 10.6667C12.5558 10.6667 13.0033 10.219 13.0033 9.66667C13.0033 9.11439 12.5558 8.66667 12.0038 8.66667C11.4518 8.66667 11.0043 9.11439 11.0043 9.66667C11.0043 10.219 11.4518 10.6667 12.0038 10.6667ZM13.2624 13.0636C13.9747 12.5875 14.8121 12.3333 15.6687 12.3333C16.8169 12.3351 17.9176 12.7922 18.7294 13.6045C19.5413 14.4168 19.9982 15.5179 20 16.6667C20 17.5237 19.746 18.3615 19.27 19.0741C18.7941 19.7867 18.1177 20.3422 17.3262 20.6701C16.5348 20.9981 15.6639 21.0839 14.8238 20.9167C13.9836 20.7495 13.2118 20.3368 12.6061 19.7308C12.0004 19.1248 11.5878 18.3526 11.4207 17.512C11.2536 16.6715 11.3394 15.8002 11.6672 15.0084C11.995 14.2166 12.5502 13.5398 13.2624 13.0636ZM16.0685 18.4867L18.0009 15.9C18.0904 15.7579 18.123 15.5873 18.0922 15.4223C18.0614 15.2573 17.9694 15.1099 17.8348 15.0097C17.7001 14.9095 17.5327 14.8639 17.3658 14.8818C17.199 14.8998 17.0451 14.9801 16.9348 15.1067L15.229 17.38C15.2148 17.399 15.1968 17.4148 15.1762 17.4263C15.1555 17.4377 15.1326 17.4447 15.109 17.4467C15.0853 17.4477 15.0616 17.4435 15.0397 17.4343C15.0178 17.4251 14.9982 17.4111 14.9824 17.3933L14.2494 16.6667C14.1897 16.5969 14.1162 16.5402 14.0335 16.5002C13.9508 16.4602 13.8608 16.4377 13.769 16.4341C13.6773 16.4306 13.5857 16.446 13.5002 16.4796C13.4147 16.5131 13.3371 16.5639 13.2721 16.6289C13.2072 16.6939 13.1564 16.7716 13.1229 16.8571C13.0894 16.9427 13.0739 17.0342 13.0775 17.126C13.081 17.2178 13.1035 17.3079 13.1435 17.3906C13.1835 17.4733 13.2401 17.5469 13.3099 17.6067L14.3094 18.6067C14.4272 18.7254 14.5692 18.8174 14.7257 18.8765C14.8822 18.9355 15.0495 18.9602 15.2164 18.9488C15.3832 18.9374 15.5457 18.8902 15.6927 18.8105C15.8398 18.7308 15.9679 18.6203 16.0685 18.4867Z" fill="#161616"/>
</svg>
