<svg width="24" height="24" viewBox="0 0 24 24" fill="none" xmlns="http://www.w3.org/2000/svg">
<path fill-rule="evenodd" clip-rule="evenodd" d="M17.7177 10.9635C16.3947 9.50801 14.2004 7.96946 11.9997 8.00048C9.79887 7.96896 7.60458 9.50851 6.28161 10.9635C5.90613 11.3833 5.90613 12.0183 6.28161 12.4381C7.58908 13.8781 9.75235 15.4031 11.9191 15.4031H12.0732C14.2475 15.4031 16.4102 13.8781 17.7192 12.4376C18.0942 12.0175 18.0935 11.3828 17.7177 10.9635ZM9.69891 11.7018C9.69891 10.4311 10.729 9.40099 11.9997 9.40099C13.2704 9.40099 14.3006 10.4311 14.3006 11.7018C14.3006 12.9725 13.2704 14.0026 11.9997 14.0026C10.729 14.0026 9.69891 12.9725 9.69891 11.7018ZM13 11.7018C13 12.2543 12.5522 12.7021 11.9997 12.7021C11.4472 12.7021 10.9993 12.2543 10.9993 11.7018C10.9993 11.1493 11.4472 10.7014 11.9997 10.7014C12.5522 10.7014 13 11.1493 13 11.7018Z" fill="#161616"/>
</svg>
