<svg width="24" height="24" viewBox="0 0 24 24" fill="none" xmlns="http://www.w3.org/2000/svg">
<path fill-rule="evenodd" clip-rule="evenodd" d="M17.7154 11.7541C17.0694 11.046 16.3312 10.428 15.5206 9.9166L17.5622 7.87754C17.6949 7.74939 17.7481 7.55962 17.7014 7.38117C17.6547 7.20272 17.5154 7.06336 17.3369 7.01665C17.1585 6.96994 16.9687 7.02315 16.8405 7.15583L16.8313 7.16502C16.8138 7.22071 16.7836 7.27156 16.743 7.31355L6.79019 17.2664C6.7883 17.2681 6.7862 17.2692 6.78409 17.2703L6.78408 17.2703C6.78161 17.2716 6.77911 17.2729 6.77692 17.2751C6.68465 17.4999 6.7637 17.7586 6.96586 17.8935C7.16803 18.0283 7.43724 18.0019 7.60938 17.8304L9.72551 15.7143C10.42 16.0175 11.1676 16.1804 11.9254 16.1935H12.0785C14.2507 16.1935 16.4113 14.6705 17.7189 13.2332C18.0952 12.8114 18.0936 12.174 17.7154 11.7541ZM14.2001 13.1428C13.975 13.8786 13.4025 14.4565 12.6689 14.6884C12.1478 14.8543 11.5835 14.8197 11.0866 14.5914C11.049 14.5731 11.0225 14.5377 11.0156 14.4965C11.0087 14.4552 11.0223 14.4131 11.0519 14.3836L13.8898 11.5463C13.9191 11.5164 13.9612 11.5026 14.0025 11.5094C14.0439 11.5162 14.0793 11.5428 14.0975 11.5805C14.3226 12.071 14.3591 12.6272 14.2001 13.1428ZM9.79181 13.0867C9.80447 13.1302 9.79255 13.1771 9.76068 13.2092L8.2065 14.7659C8.16185 14.8103 8.0919 14.8165 8.04011 14.7807C7.40105 14.3301 6.81269 13.8116 6.28534 13.2342C5.90352 12.8142 5.90507 12.1722 6.28892 11.754C7.60933 10.2999 9.80406 8.76461 11.9988 8.79421C12.5602 8.79105 13.1185 8.87684 13.653 9.04839C13.6958 9.06248 13.7282 9.09776 13.7386 9.14157C13.749 9.18538 13.7359 9.23146 13.7041 9.26327L12.7134 10.2545C12.6813 10.2865 12.6344 10.2986 12.5909 10.2861C12.3985 10.2296 12.1993 10.1999 11.9988 10.1978C10.7303 10.1978 9.70198 11.2261 9.70198 12.4946C9.70483 12.6952 9.73505 12.8944 9.79181 13.0867Z" fill="#161616"/>
</svg>
