<svg width="24" height="24" viewBox="0 0 24 24" fill="none" xmlns="http://www.w3.org/2000/svg">
<path fill-rule="evenodd" clip-rule="evenodd" d="M18.2929 7.49189C18.4804 7.305 18.7348 7.20001 19 7.20001C19.2652 7.20001 19.5196 7.305 19.7071 7.49189C19.8946 7.67878 20 7.93225 20 8.19655V15.8035C20 16.0678 19.8946 16.3212 19.7071 16.5081C19.5196 16.695 19.2652 16.8 19 16.8C18.7348 16.8 18.4804 16.695 18.2929 16.5081C18.1054 16.3212 18 16.0678 18 15.8035V8.19655C18 7.93225 18.1054 7.67878 18.2929 7.49189ZM12.7716 7.56746C12.896 7.58732 13.0121 7.64188 13.1067 7.72482L16.9267 11.5648C16.9885 11.6269 17.0373 11.7005 17.0705 11.7815C17.1037 11.8624 17.1205 11.9491 17.12 12.0365C17.1193 12.2108 17.0498 12.3778 16.9267 12.5016L13.1067 16.3084C13.0444 16.3699 12.9705 16.4186 12.8893 16.4517C12.808 16.4848 12.7211 16.5015 12.6333 16.501C12.5467 16.5011 12.4609 16.4854 12.38 16.4545C12.2572 16.4042 12.1523 16.3186 12.0786 16.2085C12.005 16.0984 11.966 15.969 11.9667 15.8367V13.1792C11.9667 13.1352 11.9491 13.0929 11.9179 13.0618C11.8866 13.0306 11.8442 13.0131 11.8 13.0131H5C4.73478 13.0131 4.48043 12.9081 4.29289 12.7212C4.10536 12.5344 4 12.2809 4 12.0166C4 11.7523 4.10536 11.4988 4.29289 11.3119C4.48043 11.125 4.73478 11.02 5 11.02H11.8333C11.8775 11.02 11.9199 11.0026 11.9512 10.9714C11.9824 10.9403 12 10.898 12 10.854V8.19652C12.0051 8.07111 12.0458 7.9497 12.1173 7.84636C12.1887 7.74302 12.2881 7.66198 12.404 7.61262C12.5198 7.56326 12.6472 7.5476 12.7716 7.56746Z" fill="#161616"/>
</svg>
