<svg width="20" height="12" viewBox="0 0 20 12" fill="none" xmlns="http://www.w3.org/2000/svg">
<path fill-rule="evenodd" clip-rule="evenodd" d="M17.8661 0.36485C18.1005 0.13124 18.4185 0 18.75 0C19.0815 0 19.3995 0.13124 19.6339 0.36485C19.8683 0.598459 20 0.915301 20 1.24567V10.7543C20 11.0847 19.8683 11.4015 19.6339 11.6352C19.3995 11.8688 19.0815 12 18.75 12C18.4185 12 18.1005 11.8688 17.8661 11.6352C17.6317 11.4015 17.5 11.0847 17.5 10.7543V1.24567C17.5 0.915301 17.6317 0.598459 17.8661 0.36485ZM10.9645 0.45934C11.1199 0.484162 11.2652 0.552363 11.3833 0.656043L16.1583 5.45604C16.2356 5.53364 16.2967 5.62567 16.3381 5.72685C16.3796 5.82803 16.4006 5.93637 16.4 6.04566C16.3991 6.26352 16.3123 6.4723 16.1583 6.62698L11.3833 11.3855C11.3055 11.4624 11.2131 11.5233 11.1116 11.5646C11.0101 11.606 10.9013 11.6269 10.7917 11.6263C10.6834 11.6264 10.5761 11.6067 10.475 11.5682C10.3215 11.5053 10.1903 11.3982 10.0983 11.2606C10.0062 11.1231 9.9575 10.9612 9.95833 10.7958V7.47404C9.95833 7.41897 9.93638 7.36617 9.89731 7.32723C9.85824 7.2883 9.80525 7.26642 9.75 7.26642H1.25C0.918479 7.26642 0.600537 7.13518 0.366117 6.90157C0.131696 6.66796 0 6.35112 0 6.02075C0 5.69038 0.131696 5.37353 0.366117 5.13992C0.600537 4.90632 0.918479 4.77507 1.25 4.77507H9.79167C9.84692 4.77507 9.89991 4.7532 9.93898 4.71427C9.97805 4.67533 10 4.62252 10 4.56746V1.24566C10.0064 1.0889 10.0572 0.937137 10.1466 0.807965C10.2359 0.678792 10.3602 0.577489 10.5049 0.51579C10.6497 0.45409 10.809 0.434518 10.9645 0.45934Z" fill="#161616"/>
</svg>
