<svg width="24" height="24" viewBox="0 0 24 24" fill="none" xmlns="http://www.w3.org/2000/svg">
<path fill-rule="evenodd" clip-rule="evenodd" d="M16.7197 8.61893C16.8603 8.47877 17.0511 8.40002 17.25 8.40002C17.4489 8.40002 17.6397 8.47877 17.7803 8.61893C17.921 8.7591 18 8.94921 18 9.14743V14.8526C18 15.0508 17.921 15.2409 17.7803 15.3811C17.6397 15.5213 17.4489 15.6 17.25 15.6C17.0511 15.6 16.8603 15.5213 16.7197 15.3811C16.579 15.2409 16.5 15.0508 16.5 14.8526V9.14743C16.5 8.94921 16.579 8.7591 16.7197 8.61893ZM12.5787 8.6756C12.672 8.6905 12.7591 8.73142 12.83 8.79362L15.695 11.6736C15.7413 11.7202 15.778 11.7754 15.8029 11.8361C15.8278 11.8968 15.8404 11.9618 15.84 12.0274C15.8394 12.1581 15.7874 12.2834 15.695 12.3762L12.83 15.2313C12.7833 15.2775 12.7279 15.314 12.667 15.3388C12.606 15.3636 12.5408 15.3761 12.475 15.3758C12.4101 15.3758 12.3457 15.364 12.285 15.3409C12.1929 15.3032 12.1142 15.2389 12.059 15.1564C12.0037 15.0738 11.9745 14.9767 11.975 14.8775V12.8844C11.975 12.8514 11.9618 12.8197 11.9384 12.7963C11.9149 12.773 11.8832 12.7599 11.85 12.7599H6.75C6.55109 12.7599 6.36032 12.6811 6.21967 12.5409C6.07902 12.4008 6 12.2107 6 12.0124C6 11.8142 6.07902 11.6241 6.21967 11.484C6.36032 11.3438 6.55109 11.265 6.75 11.265H11.875C11.9082 11.265 11.9399 11.2519 11.9634 11.2286C11.9868 11.2052 12 11.1735 12 11.1405V9.1474C12.0038 9.05334 12.0343 8.96228 12.0879 8.88478C12.1416 8.80727 12.2161 8.74649 12.303 8.70947C12.3898 8.67245 12.4854 8.66071 12.5787 8.6756Z" fill="#161616"/>
</svg>
