<svg width="24" height="24" viewBox="0 0 24 24" fill="none" xmlns="http://www.w3.org/2000/svg">
  <path d="M20.3333 2H3.66667C3.22464 2 2.80072 2.17559 2.48816 2.48816C2.17559 2.80072 2 3.22464 2 3.66667L2 20.3333C2 20.7754 2.17559 21.1993 2.48816 21.5118C2.80072 21.8244 3.22464 22 3.66667 22H20.3333C20.7754 22 21.1993 21.8244 21.5118 21.5118C21.8244 21.1993 22 20.7754 22 20.3333V3.66667C22 3.22464 21.8244 2.80072 21.5118 2.48816C21.1993 2.17559 20.7754 2 20.3333 2V2ZM20.3333 7.60833C20.3333 7.66359 20.3114 7.71658 20.2723 7.75565C20.2332 7.79472 20.1803 7.81667 20.125 7.81667H13.0417C12.9864 7.81667 12.9334 7.79472 12.8944 7.75565C12.8553 7.71658 12.8333 7.66359 12.8333 7.60833V3.875C12.8333 3.81975 12.8553 3.76676 12.8944 3.72769C12.9334 3.68862 12.9864 3.66667 13.0417 3.66667H19.9167C20.0272 3.66667 20.1332 3.71057 20.2113 3.78871C20.2894 3.86685 20.3333 3.97283 20.3333 4.08333V7.60833ZM12.8333 9.69167C12.8375 9.63935 12.8613 9.59055 12.8999 9.55501C12.9386 9.51948 12.9892 9.49983 13.0417 9.5H20.125C20.1803 9.5 20.2332 9.52195 20.2723 9.56102C20.3114 9.60009 20.3333 9.65308 20.3333 9.70833V14.2917C20.3333 14.3469 20.3114 14.3999 20.2723 14.439C20.2332 14.4781 20.1803 14.5 20.125 14.5H13.0417C12.9864 14.5 12.9334 14.4781 12.8944 14.439C12.8553 14.3999 12.8333 14.3469 12.8333 14.2917V9.69167ZM10.9583 3.66667C11.0136 3.66667 11.0666 3.68862 11.1056 3.72769C11.1447 3.76676 11.1667 3.81975 11.1667 3.875V10.9417C11.1667 10.9969 11.1447 11.0499 11.1056 11.089C11.0666 11.128 11.0136 11.15 10.9583 11.15H3.875C3.81975 11.15 3.76676 11.128 3.72769 11.089C3.68862 11.0499 3.66667 10.9969 3.66667 10.9417V4.08333C3.66667 3.97283 3.71057 3.86685 3.78871 3.78871C3.86685 3.71057 3.97283 3.66667 4.08333 3.66667H10.9583ZM3.66667 13.025C3.67087 12.9727 3.69465 12.9239 3.73328 12.8883C3.7719 12.8528 3.82252 12.8332 3.875 12.8333H10.9583C11.0136 12.8333 11.0666 12.8553 11.1056 12.8944C11.1447 12.9334 11.1667 12.9864 11.1667 13.0417V20.1417C11.1667 20.1969 11.1447 20.2499 11.1056 20.289C11.0666 20.3281 11.0136 20.35 10.9583 20.35H4.08333C3.97283 20.35 3.86685 20.3061 3.78871 20.228C3.71057 20.1498 3.66667 20.0438 3.66667 19.9333V13.025ZM13.0417 20.3333C12.9864 20.3333 12.9334 20.3114 12.8944 20.2723C12.8553 20.2332 12.8333 20.1803 12.8333 20.125V16.3583C12.8333 16.3031 12.8553 16.2501 12.8944 16.211C12.9334 16.1719 12.9864 16.15 13.0417 16.15H20.125C20.1803 16.15 20.2332 16.1719 20.2723 16.211C20.3114 16.2501 20.3333 16.3031 20.3333 16.3583V19.9167C20.3333 20.0272 20.2894 20.1332 20.2113 20.2113C20.1332 20.2894 20.0272 20.3333 19.9167 20.3333H13.0417Z" fill="#161616"/>
</svg>
