<svg width="24" height="24" viewBox="0 0 24 24" fill="none" xmlns="http://www.w3.org/2000/svg">
<path d="M17 6H7C6.73478 6 6.48043 6.10536 6.29289 6.29289C6.10536 6.48043 6 6.73478 6 7V17C6 17.2652 6.10536 17.5196 6.29289 17.7071C6.48043 17.8946 6.73478 18 7 18H17C17.2652 18 17.5196 17.8946 17.7071 17.7071C17.8946 17.5196 18 17.2652 18 17V7C18 6.73478 17.8946 6.48043 17.7071 6.29289C17.5196 6.10536 17.2652 6 17 6ZM17 16.8555C17 16.8886 16.9868 16.9204 16.9634 16.9439C16.9399 16.9673 16.9082 16.9805 16.875 16.9805H10.225C10.1918 16.9805 10.1601 16.9673 10.1366 16.9439C10.1132 16.9204 10.1 16.8886 10.1 16.8555V7.125C10.1 7.09185 10.1132 7.06005 10.1366 7.03661C10.1601 7.01317 10.1918 7 10.225 7H16.75C16.8163 7 16.8799 7.02634 16.9268 7.07322C16.9737 7.12011 17 7.1837 17 7.25V16.8555ZM8.975 7C9.00815 7 9.03995 7.01317 9.06339 7.03661C9.08683 7.06005 9.1 7.09185 9.1 7.125V16.8555C9.1 16.8886 9.08683 16.9204 9.06339 16.9439C9.03995 16.9673 9.00815 16.9805 8.975 16.9805H7.125C7.09185 16.9805 7.06005 16.9673 7.03661 16.9439C7.01317 16.9204 7 16.8886 7 16.8555V7.25C7 7.1837 7.02634 7.12011 7.07322 7.07322C7.12011 7.02634 7.1837 7 7.25 7H8.975Z" fill="#161616"/>
</svg>
