<svg width="24" height="24" viewBox="0 0 24 24" fill="none" xmlns="http://www.w3.org/2000/svg">
<path d="M17 6H7C6.73478 6 6.48043 6.10536 6.29289 6.29289C6.10536 6.48043 6 6.73478 6 7V17C6 17.2652 6.10536 17.5196 6.29289 17.7071C6.48043 17.8946 6.73478 18 7 18H17C17.2652 18 17.5196 17.8946 17.7071 17.7071C17.8946 17.5196 18 17.2652 18 17V7C18 6.73478 17.8946 6.48043 17.7071 6.29289C17.5196 6.10536 17.2652 6 17 6V6ZM17 9.365C17 9.39815 16.9868 9.42995 16.9634 9.45339C16.9399 9.47683 16.9082 9.49 16.875 9.49H12.625C12.5918 9.49 12.5601 9.47683 12.5366 9.45339C12.5132 9.42995 12.5 9.39815 12.5 9.365V7.125C12.5 7.09185 12.5132 7.06005 12.5366 7.03661C12.5601 7.01317 12.5918 7 12.625 7H16.75C16.8163 7 16.8799 7.02634 16.9268 7.07322C16.9737 7.12011 17 7.1837 17 7.25V9.365ZM12.5 10.615C12.5025 10.5836 12.5168 10.5543 12.54 10.533C12.5631 10.5117 12.5935 10.4999 12.625 10.5H16.875C16.9082 10.5 16.9399 10.5132 16.9634 10.5366C16.9868 10.5601 17 10.5918 17 10.625V13.375C17 13.4082 16.9868 13.4399 16.9634 13.4634C16.9399 13.4868 16.9082 13.5 16.875 13.5H12.625C12.5918 13.5 12.5601 13.4868 12.5366 13.4634C12.5132 13.4399 12.5 13.4082 12.5 13.375V10.615ZM11.375 7C11.4082 7 11.4399 7.01317 11.4634 7.03661C11.4868 7.06005 11.5 7.09185 11.5 7.125V11.365C11.5 11.3982 11.4868 11.4299 11.4634 11.4534C11.4399 11.4768 11.4082 11.49 11.375 11.49H7.125C7.09185 11.49 7.06005 11.4768 7.03661 11.4534C7.01317 11.4299 7 11.3982 7 11.365V7.25C7 7.1837 7.02634 7.12011 7.07322 7.07322C7.12011 7.02634 7.1837 7 7.25 7H11.375ZM7 12.615C7.00252 12.5836 7.01679 12.5543 7.03997 12.533C7.06314 12.5117 7.09351 12.4999 7.125 12.5H11.375C11.4082 12.5 11.4399 12.5132 11.4634 12.5366C11.4868 12.5601 11.5 12.5918 11.5 12.625V16.885C11.5 16.9182 11.4868 16.9499 11.4634 16.9734C11.4399 16.9968 11.4082 17.01 11.375 17.01H7.25C7.1837 17.01 7.12011 16.9837 7.07322 16.9368C7.02634 16.8899 7 16.8263 7 16.76V12.615ZM12.625 17C12.5918 17 12.5601 16.9868 12.5366 16.9634C12.5132 16.9399 12.5 16.9082 12.5 16.875V14.615C12.5 14.5818 12.5132 14.5501 12.5366 14.5266C12.5601 14.5032 12.5918 14.49 12.625 14.49H16.875C16.9082 14.49 16.9399 14.5032 16.9634 14.5266C16.9868 14.5501 17 14.5818 17 14.615V16.75C17 16.8163 16.9737 16.8799 16.9268 16.9268C16.8799 16.9737 16.8163 17 16.75 17H12.625Z" fill="#161616"/>
</svg>
