<svg width="24" height="24" viewBox="0 0 24 24" fill="none" xmlns="http://www.w3.org/2000/svg">
<path d="M18.6667 4H5.33333C4.97971 4 4.64057 4.14048 4.39052 4.39052C4.14048 4.64057 4 4.97971 4 5.33333V18.6667C4 19.0203 4.14048 19.3594 4.39052 19.6095C4.64057 19.8595 4.97971 20 5.33333 20H18.6667C19.0203 20 19.3594 19.8595 19.6095 19.6095C19.8595 19.3594 20 19.0203 20 18.6667V5.33333C20 4.97971 19.8595 4.64057 19.6095 4.39052C19.3594 4.14048 19.0203 4 18.6667 4V4ZM18.6667 8.48667C18.6667 8.53087 18.6491 8.57326 18.6179 8.60452C18.5866 8.63577 18.5442 8.65333 18.5 8.65333H12.8333C12.7891 8.65333 12.7467 8.63577 12.7155 8.60452C12.6842 8.57326 12.6667 8.53087 12.6667 8.48667V5.5C12.6667 5.4558 12.6842 5.41341 12.7155 5.38215C12.7467 5.35089 12.7891 5.33333 12.8333 5.33333H18.3333C18.4217 5.33333 18.5065 5.36845 18.569 5.43096C18.6315 5.49348 18.6667 5.57826 18.6667 5.66667V8.48667ZM12.6667 10.1533C12.67 10.1115 12.6891 10.0724 12.72 10.044C12.7509 10.0156 12.7913 9.99987 12.8333 10H18.5C18.5442 10 18.5866 10.0176 18.6179 10.0488C18.6491 10.0801 18.6667 10.1225 18.6667 10.1667V13.8333C18.6667 13.8775 18.6491 13.9199 18.6179 13.9512C18.5866 13.9824 18.5442 14 18.5 14H12.8333C12.7891 14 12.7467 13.9824 12.7155 13.9512C12.6842 13.9199 12.6667 13.8775 12.6667 13.8333V10.1533ZM11.1667 5.33333C11.2109 5.33333 11.2533 5.35089 11.2845 5.38215C11.3158 5.41341 11.3333 5.4558 11.3333 5.5V11.1533C11.3333 11.1975 11.3158 11.2399 11.2845 11.2712C11.2533 11.3024 11.2109 11.32 11.1667 11.32H5.5C5.4558 11.32 5.41341 11.3024 5.38215 11.2712C5.35089 11.2399 5.33333 11.1975 5.33333 11.1533V5.66667C5.33333 5.57826 5.36845 5.49348 5.43096 5.43096C5.49348 5.36845 5.57826 5.33333 5.66667 5.33333H11.1667ZM5.33333 12.82C5.33669 12.7781 5.35572 12.7391 5.38662 12.7107C5.41752 12.6823 5.45801 12.6665 5.5 12.6667H11.1667C11.2109 12.6667 11.2533 12.6842 11.2845 12.7155C11.3158 12.7467 11.3333 12.7891 11.3333 12.8333V18.5133C11.3333 18.5575 11.3158 18.5999 11.2845 18.6312C11.2533 18.6624 11.2109 18.68 11.1667 18.68H5.66667C5.57826 18.68 5.49348 18.6449 5.43096 18.5824C5.36845 18.5199 5.33333 18.4351 5.33333 18.3467V12.82ZM12.8333 18.6667C12.7891 18.6667 12.7467 18.6491 12.7155 18.6179C12.6842 18.5866 12.6667 18.5442 12.6667 18.5V15.4867C12.6667 15.4425 12.6842 15.4001 12.7155 15.3688C12.7467 15.3376 12.7891 15.32 12.8333 15.32H18.5C18.5442 15.32 18.5866 15.3376 18.6179 15.3688C18.6491 15.4001 18.6667 15.4425 18.6667 15.4867V18.3333C18.6667 18.4217 18.6315 18.5065 18.569 18.569C18.5065 18.6315 18.4217 18.6667 18.3333 18.6667H12.8333Z" fill="#161616"/>
</svg>
