<svg width="24" height="24" viewBox="0 0 24 24" fill="none" xmlns="http://www.w3.org/2000/svg">
<path d="M18.6667 4H5.33333C4.97971 4 4.64057 4.14048 4.39052 4.39052C4.14048 4.64057 4 4.97971 4 5.33333V18.6667C4 19.0203 4.14048 19.3594 4.39052 19.6095C4.64057 19.8595 4.97971 20 5.33333 20H18.6667C19.0203 20 19.3594 19.8595 19.6095 19.6095C19.8595 19.3594 20 19.0203 20 18.6667V5.33333C20 4.97971 19.8595 4.64057 19.6095 4.39052C19.3594 4.14048 19.0203 4 18.6667 4ZM18.6667 18.474C18.6667 18.5182 18.6491 18.5606 18.6179 18.5918C18.5866 18.6231 18.5442 18.6406 18.5 18.6406H9.63333C9.58913 18.6406 9.54674 18.6231 9.51548 18.5918C9.48423 18.5606 9.46667 18.5182 9.46667 18.474V5.5C9.46667 5.4558 9.48423 5.4134 9.51548 5.38215C9.54674 5.35089 9.58913 5.33333 9.63333 5.33333H18.3333C18.4217 5.33333 18.5065 5.36845 18.569 5.43096C18.6315 5.49348 18.6667 5.57826 18.6667 5.66667V18.474ZM7.96667 5.33333C8.01087 5.33333 8.05326 5.35089 8.08452 5.38215C8.11577 5.4134 8.13333 5.4558 8.13333 5.5V18.474C8.13333 18.5182 8.11577 18.5606 8.08452 18.5918C8.05326 18.6231 8.01087 18.6406 7.96667 18.6406H5.5C5.4558 18.6406 5.4134 18.6231 5.38215 18.5918C5.35089 18.5606 5.33333 18.5182 5.33333 18.474V5.66667C5.33333 5.57826 5.36845 5.49348 5.43096 5.43096C5.49348 5.36845 5.57826 5.33333 5.66667 5.33333H7.96667Z" fill="#161616"/>
</svg>
