<svg width="24" height="24" viewBox="0 0 24 24" fill="none" xmlns="http://www.w3.org/2000/svg">
<path fill-rule="evenodd" clip-rule="evenodd" d="M17.2144 5.60808L12.6518 10.2754C12.2914 10.6441 11.7086 10.6441 11.352 10.2754L6.78565 5.60808C6.2067 5.01584 6.61695 4 7.43744 4H16.5626C17.3831 4 17.7933 5.01584 17.2144 5.60808ZM17.3306 18.352L12.6514 13.5686C12.2818 13.1908 11.6841 13.1908 11.3184 13.5686L6.63529 18.352C6.04155 18.9589 6.46228 20 7.30374 20H16.6621C17.5036 20 17.9243 18.9589 17.3306 18.352ZM4.66845 11.2353C4.29928 11.2353 4 11.5412 4 11.9186C4 12.296 4.29928 12.6019 4.66845 12.6019H19.3315C19.7007 12.6019 20 12.296 20 11.9186C20 11.5412 19.7007 11.2353 19.3315 11.2353H4.66845Z" fill="#161616"/>
</svg>
