<svg width="24" height="24" viewBox="0 0 24 24" fill="none" xmlns="http://www.w3.org/2000/svg">
<path fill-rule="evenodd" clip-rule="evenodd" d="M15.9108 7.20606L12.4888 10.7066C12.2185 10.9831 11.7815 10.9831 11.514 10.7066L8.08924 7.20606C7.65503 6.76188 7.96271 6 8.57808 6H15.4219C16.0373 6 16.345 6.76188 15.9108 7.20606ZM15.9979 16.764L12.4885 13.1765C12.2113 12.8931 11.7631 12.8931 11.4888 13.1765L7.97647 16.764C7.53116 17.2192 7.84671 18 8.47781 18H15.4966C16.1277 18 16.4432 17.2192 15.9979 16.764ZM6.50134 11.4265C6.22446 11.4265 6 11.6559 6 11.939C6 12.222 6.22446 12.4515 6.50134 12.4515H17.4987C17.7755 12.4515 18 12.222 18 11.939C18 11.6559 17.7755 11.4265 17.4987 11.4265H6.50134Z" fill="#161616"/>
</svg>
