<svg width="24" height="24" viewBox="0 0 24 24" fill="none" xmlns="http://www.w3.org/2000/svg">
<path fill-rule="evenodd" clip-rule="evenodd" d="M15.4601 10.9749C15.617 10.9217 15.7534 10.8208 15.8502 10.6862C15.9471 10.5516 15.9994 10.3901 16.0001 10.2243V7.50228C15.9966 7.33717 15.9431 7.17701 15.8467 7.04299C15.7502 6.90897 15.6154 6.8074 15.4601 6.75171L13.3751 6.04118C13.2129 5.98627 13.0372 5.98627 12.8751 6.04118L10.7901 6.7367C10.6307 6.7907 10.4925 6.89391 10.3955 7.03148C10.2985 7.16906 10.2475 7.3339 10.2501 7.50228V10.2243C10.2499 10.3903 10.302 10.5521 10.399 10.6869C10.4959 10.8216 10.6327 10.9223 10.7901 10.9749L12.8751 11.6704C13.0375 11.7239 13.2127 11.7239 13.3751 11.6704L15.4601 10.9749ZM13.5401 10.8198C13.5221 10.8282 13.5024 10.8326 13.4826 10.8326C13.4627 10.8326 13.4431 10.8282 13.4251 10.8198C13.4098 10.8079 13.3974 10.7927 13.3888 10.7754C13.3801 10.7581 13.3754 10.739 13.3751 10.7197V8.42297C13.375 8.39719 13.3833 8.37209 13.3986 8.35137C13.4139 8.33064 13.4354 8.3154 13.4601 8.30788L15.0801 7.76247C15.0981 7.754 15.1177 7.7496 15.1376 7.7496C15.1574 7.7496 15.1771 7.754 15.1951 7.76247C15.2103 7.77438 15.2227 7.78954 15.2314 7.80685C15.24 7.82417 15.2447 7.84319 15.2451 7.86255V10.1543C15.2451 10.18 15.2369 10.2051 15.2216 10.2259C15.2063 10.2466 15.1847 10.2618 15.1601 10.2693L13.5401 10.8198ZM13.1401 6.75171L14.0851 7.07195C14.1106 7.07856 14.1333 7.09341 14.1496 7.11422C14.1658 7.13502 14.1748 7.16062 14.1751 7.18704C14.1754 7.21348 14.1674 7.23934 14.1521 7.26092C14.1368 7.28249 14.1151 7.29867 14.0901 7.30713L13.0001 7.68241C12.9722 7.68984 12.9429 7.68984 12.9151 7.68241L12.0001 7.37218C11.9758 7.364 11.9547 7.34858 11.9395 7.328C11.9243 7.30742 11.9158 7.28267 11.9151 7.25709C11.9147 7.23065 11.9228 7.20479 11.9381 7.18321C11.9533 7.16164 11.975 7.14546 12.0001 7.137L13.1401 6.75171ZM12.15 12.1858L9.65 11.3551C9.47155 11.2953 9.27845 11.2953 9.1 11.3551L6.6 12.1858C6.42709 12.243 6.27634 12.3529 6.16879 12.5C6.06123 12.6471 6.00223 12.8241 6.00001 13.0064V16.2888C5.99938 16.473 6.05712 16.6526 6.16493 16.8019C6.27274 16.9511 6.42507 17.0623 6.6 17.1195L9.1 17.9551C9.27845 18.015 9.47155 18.015 9.65 17.9551L12.15 17.1195C12.3249 17.0623 12.4773 16.9511 12.5851 16.8019C12.6929 16.6526 12.7506 16.473 12.75 16.2888V13.0064C12.7449 12.8249 12.6848 12.6492 12.5776 12.5026C12.4705 12.356 12.3213 12.2455 12.15 12.1858ZM9.335 12.0657H9.415L10.835 12.566C10.8592 12.5742 10.8804 12.5896 10.8956 12.6102C10.9108 12.6308 10.9193 12.6556 10.92 12.6811C10.9212 12.7078 10.9134 12.734 10.898 12.7557C10.8826 12.7775 10.8605 12.7935 10.835 12.8012L9.24 13.3216C9.21254 13.3316 9.18247 13.3316 9.155 13.3216L7.72 12.8212C7.69497 12.8128 7.67326 12.7966 7.65799 12.775C7.64272 12.7535 7.63467 12.7276 7.635 12.7012C7.63571 12.6756 7.64423 12.6508 7.65943 12.6302C7.67463 12.6097 7.69577 12.5942 7.72 12.5861L9.335 12.0657ZM11.915 16.4189L9.79 17.1295C9.77202 17.1379 9.75238 17.1423 9.7325 17.1423C9.71262 17.1423 9.69299 17.1379 9.675 17.1295C9.65948 17.1178 9.64688 17.1027 9.6382 17.0853C9.62952 17.068 9.625 17.0488 9.625 17.0294V14.0622C9.62467 14.0357 9.63272 14.0099 9.64799 13.9883C9.66326 13.9667 9.68497 13.9505 9.71 13.9421L11.835 13.2315C11.853 13.2231 11.8726 13.2187 11.8925 13.2187C11.9124 13.2187 11.932 13.2231 11.95 13.2315C11.9655 13.2432 11.9781 13.2583 11.9868 13.2757C11.9955 13.293 12 13.3122 12 13.3316V16.2788C12.0051 16.3085 11.9992 16.339 11.9836 16.3648C11.968 16.3905 11.9436 16.4097 11.915 16.4189ZM15.85 11.7905L17.5 12.3459C17.6404 12.3923 17.7634 12.4804 17.8527 12.5983C17.942 12.7163 17.9933 12.8586 18 13.0064V15.208C17.9986 15.359 17.9494 15.5057 17.8596 15.627C17.7698 15.7483 17.6439 15.8381 17.5 15.8835L15.85 16.4389C15.7037 16.4857 15.5464 16.4857 15.4 16.4389L13.735 15.8785C13.5911 15.8348 13.465 15.7461 13.375 15.6254C13.2851 15.5048 13.236 15.3585 13.235 15.208V13.0214C13.2365 12.8704 13.2857 12.7237 13.3755 12.6024C13.4653 12.4811 13.5911 12.3913 13.735 12.3459L15.4 11.7905C15.5466 11.7453 15.7034 11.7453 15.85 11.7905ZM16.11 12.6611L15.61 12.506L14.98 12.7262C14.9558 12.7343 14.9347 12.7498 14.9195 12.7703C14.9043 12.7909 14.8957 12.8157 14.895 12.8412C14.8947 12.8677 14.9028 12.8935 14.918 12.9151C14.9333 12.9367 14.955 12.9529 14.98 12.9613L15.425 13.1114C15.4529 13.1189 15.4822 13.1189 15.51 13.1114C15.61 13.0714 15.88 12.9763 16.11 12.9013C16.136 12.8937 16.1588 12.8779 16.175 12.8563C16.1913 12.8346 16.2 12.8083 16.2 12.7812C16.2 12.7541 16.1913 12.7278 16.175 12.7061C16.1588 12.6845 16.136 12.6687 16.11 12.6611ZM15.9825 15.6012C16.0024 15.6012 16.0221 15.5968 16.04 15.5883L17.17 15.178C17.196 15.1711 17.2187 15.1553 17.2342 15.1333C17.2498 15.1114 17.2571 15.0847 17.255 15.0579V13.4517C17.255 13.4323 17.2505 13.4131 17.2418 13.3958C17.2332 13.3784 17.2206 13.3633 17.205 13.3516C17.1871 13.3432 17.1674 13.3388 17.1475 13.3388C17.1277 13.3388 17.108 13.3432 17.09 13.3516L15.875 13.7569V15.4832C15.8754 15.5033 15.88 15.5231 15.8886 15.5412C15.8973 15.5593 15.9097 15.5754 15.925 15.5883C15.943 15.5968 15.9627 15.6012 15.9825 15.6012Z" fill="#161616"/>
</svg>
