<svg width="24" height="24" viewBox="0 0 24 24" fill="none" xmlns="http://www.w3.org/2000/svg">
<path fill-rule="evenodd" clip-rule="evenodd" d="M17.7667 10.2915C18.0283 10.2028 18.2557 10.0346 18.417 9.81031C18.5784 9.58603 18.6657 9.31689 18.6667 9.04053V4.50379C18.6609 4.22861 18.5717 3.96169 18.411 3.73832C18.2503 3.51495 18.0257 3.34567 17.7667 3.25285L14.2917 2.06863C14.0215 1.97712 13.7287 1.97712 13.4584 2.06863L9.9834 3.22784C9.71776 3.31783 9.4875 3.48985 9.32577 3.71914C9.16404 3.94843 9.07918 4.22316 9.0834 4.50379V9.04053C9.08319 9.3172 9.17001 9.58691 9.33155 9.81144C9.49309 10.036 9.72115 10.2039 9.9834 10.2915L13.4584 11.4507C13.729 11.5398 14.0211 11.5398 14.2917 11.4507L17.7667 10.2915ZM14.5667 10.0329C14.5368 10.0471 14.504 10.0544 14.4709 10.0544C14.4378 10.0544 14.405 10.0471 14.3751 10.0329C14.3497 10.0131 14.329 9.98782 14.3146 9.95896C14.3002 9.93011 14.2924 9.8984 14.2917 9.86615V6.03828C14.2917 5.99532 14.3054 5.95349 14.3309 5.91895C14.3564 5.8844 14.3923 5.85899 14.4334 5.84647L17.1334 4.93745C17.1634 4.92333 17.1961 4.91601 17.2292 4.91601C17.2624 4.91601 17.2951 4.92333 17.3251 4.93745C17.3505 4.9573 17.3712 4.98257 17.3856 5.01142C17.4 5.04028 17.4078 5.07199 17.4084 5.10424V8.92377C17.4085 8.96672 17.3947 9.00856 17.3692 9.0431C17.3437 9.07764 17.3078 9.10306 17.2667 9.11558L14.5667 10.0329ZM13.9001 3.25285L15.4751 3.78659C15.5177 3.79759 15.5555 3.82235 15.5826 3.85703C15.6097 3.89171 15.6246 3.93437 15.6251 3.9784C15.6256 4.02246 15.6122 4.06557 15.5868 4.10153C15.5613 4.13749 15.5251 4.16445 15.4834 4.17855L13.6667 4.80402C13.6203 4.8164 13.5715 4.8164 13.5251 4.80402L12.0001 4.28696C11.9597 4.27333 11.9245 4.24763 11.8991 4.21333C11.8738 4.17904 11.8596 4.13779 11.8584 4.09515C11.8578 4.05109 11.8713 4.00798 11.8967 3.97202C11.9222 3.93606 11.9583 3.9091 12.0001 3.895L13.9001 3.25285ZM12.25 12.3096L8.08334 10.9252C7.78592 10.8254 7.46409 10.8254 7.16668 10.9252L3.00001 12.3096C2.71182 12.4051 2.46057 12.5881 2.28131 12.8333C2.10205 13.0785 2.00372 13.3735 2.00001 13.6773V19.1481C1.99897 19.455 2.09521 19.7544 2.27489 20.0031C2.45457 20.2519 2.70844 20.4372 3.00001 20.5324L7.16668 21.9251C7.46409 22.025 7.78592 22.025 8.08334 21.9251L12.25 20.5324C12.5416 20.4372 12.7954 20.2519 12.9751 20.0031C13.1548 19.7544 13.2511 19.455 13.25 19.1481V13.6773C13.2415 13.3748 13.1413 13.0819 12.9627 12.8377C12.7842 12.5934 12.5356 12.4092 12.25 12.3096ZM7.55834 12.1095H7.69168L10.0583 12.9434C10.0987 12.957 10.134 12.9827 10.1593 13.017C10.1846 13.0513 10.1988 13.0926 10.2 13.1352C10.2019 13.1796 10.189 13.2233 10.1634 13.2596C10.1378 13.2958 10.1008 13.3225 10.0583 13.3354L7.40001 14.2027C7.35424 14.2193 7.30411 14.2193 7.25834 14.2027L4.86668 13.3687C4.82496 13.3546 4.78877 13.3277 4.76332 13.2917C4.73787 13.2558 4.72446 13.2126 4.72501 13.1686C4.72618 13.126 4.74039 13.0847 4.76573 13.0504C4.79106 13.0161 4.82629 12.9904 4.86668 12.9768L7.55834 12.1095ZM11.8583 19.3649L8.31668 20.5491C8.2867 20.5632 8.25397 20.5706 8.22084 20.5706C8.18771 20.5706 8.15499 20.5632 8.12501 20.5491C8.09913 20.5297 8.07813 20.5045 8.06367 20.4756C8.04921 20.4466 8.04168 20.4147 8.04168 20.3823V15.437C8.04112 15.3929 8.05453 15.3498 8.07999 15.3138C8.10544 15.2779 8.14162 15.2509 8.18334 15.2368L11.725 14.0526C11.755 14.0385 11.7877 14.0311 11.8208 14.0311C11.854 14.0311 11.8867 14.0385 11.9167 14.0526C11.9425 14.072 11.9636 14.0972 11.978 14.1261C11.9925 14.1551 12 14.187 12 14.2194V19.1314C12.0084 19.1809 11.9987 19.2317 11.9727 19.2746C11.9467 19.3175 11.9061 19.3495 11.8583 19.3649ZM18.4167 11.6508L21.1667 12.5765C21.4006 12.6539 21.6056 12.8006 21.7544 12.9972C21.9032 13.1938 21.9889 13.4309 22 13.6773V17.3467C21.9976 17.5984 21.9157 17.8428 21.766 18.045C21.6163 18.2472 21.4065 18.3969 21.1667 18.4726L18.4167 19.3983C18.1727 19.4762 17.9106 19.4762 17.6667 19.3983L14.8917 18.4642C14.6518 18.3913 14.4416 18.2435 14.2916 18.0424C14.1417 17.8414 14.06 17.5976 14.0583 17.3467V13.7023C14.0608 13.4507 14.1427 13.2062 14.2924 13.004C14.4421 12.8018 14.6518 12.6521 14.8917 12.5765L17.6667 11.6508C17.911 11.5755 18.1723 11.5755 18.4167 11.6508ZM18.85 13.1019L18.0167 12.8433L16.9667 13.2103C16.9263 13.2239 16.8911 13.2496 16.8657 13.2839C16.8404 13.3182 16.8262 13.3595 16.825 13.4021C16.8245 13.4462 16.8379 13.4893 16.8633 13.5252C16.8888 13.5612 16.925 13.5882 16.9667 13.6022L17.7084 13.8524C17.7548 13.8648 17.8036 13.8648 17.85 13.8524C18.0167 13.7857 18.4667 13.6273 18.85 13.5022C18.8933 13.4895 18.9313 13.4632 18.9583 13.4271C18.9854 13.391 19 13.3471 19 13.302C19 13.2569 18.9854 13.213 18.9583 13.1769C18.9313 13.1408 18.8933 13.1145 18.85 13.1019ZM18.6375 18.002C18.6706 18.002 18.7034 17.9947 18.7333 17.9805L20.6167 17.2967C20.6599 17.2851 20.6978 17.2588 20.7237 17.2222C20.7495 17.1857 20.7618 17.1412 20.7584 17.0965V14.4195C20.7584 14.3872 20.7508 14.3552 20.7364 14.3263C20.7219 14.2973 20.7009 14.2722 20.675 14.2527C20.645 14.2386 20.6123 14.2313 20.5792 14.2313C20.5461 14.2313 20.5133 14.2386 20.4833 14.2527L18.4583 14.9282V17.8054C18.4589 17.8389 18.4666 17.8718 18.481 17.902C18.4954 17.9322 18.5161 17.959 18.5417 17.9805C18.5717 17.9947 18.6044 18.002 18.6375 18.002Z" fill="#161616"/>
</svg>
