<svg width="24" height="24" viewBox="0 0 24 24" fill="none" xmlns="http://www.w3.org/2000/svg">
<path fill-rule="evenodd" clip-rule="evenodd" d="M16.6134 10.6332C16.8227 10.5623 17.0046 10.4277 17.1337 10.2483C17.2627 10.0688 17.3326 9.85352 17.3334 9.63242V6.00303C17.3288 5.78289 17.2574 5.56935 17.1289 5.39065C17.0003 5.21196 16.8206 5.07653 16.6134 5.00228L13.8334 4.05491C13.6172 3.9817 13.383 3.9817 13.1668 4.05491L10.3868 4.98227C10.1742 5.05426 9.99004 5.19188 9.86066 5.37531C9.73127 5.55874 9.66338 5.77853 9.66676 6.00303V9.63242C9.6666 9.85376 9.73605 10.0695 9.86528 10.2492C9.99451 10.4288 10.177 10.5631 10.3868 10.6332L13.1668 11.5605C13.3833 11.6318 13.6169 11.6318 13.8334 11.5605L16.6134 10.6332ZM14.0534 10.4263C14.0294 10.4376 14.0033 10.4435 13.9768 10.4435C13.9503 10.4435 13.9241 10.4376 13.9001 10.4263C13.8798 10.4105 13.8632 10.3903 13.8517 10.3672C13.8402 10.3441 13.8339 10.3187 13.8334 10.2929V7.23062C13.8334 7.19626 13.8443 7.16279 13.8648 7.13516C13.8852 7.10752 13.9139 7.08719 13.9468 7.07717L16.1068 6.34996C16.1307 6.33866 16.1569 6.3328 16.1834 6.3328C16.2099 6.3328 16.2361 6.33866 16.2601 6.34996C16.2804 6.36584 16.297 6.38606 16.3085 6.40914C16.32 6.43222 16.3263 6.45759 16.3268 6.48339V9.53902C16.3268 9.57338 16.3158 9.60685 16.2954 9.63448C16.275 9.66211 16.2463 9.68244 16.2134 9.69247L14.0534 10.4263ZM13.5201 5.00228L14.7801 5.42927C14.8142 5.43808 14.8444 5.45788 14.8661 5.48562C14.8878 5.51337 14.8997 5.54749 14.9001 5.58272C14.9005 5.61797 14.8898 5.65245 14.8694 5.68122C14.8491 5.70999 14.8201 5.73156 14.7868 5.74284L13.3334 6.24321C13.2963 6.25312 13.2572 6.25312 13.2201 6.24321L12.0001 5.82957C11.9678 5.81867 11.9396 5.79811 11.9193 5.77067C11.8991 5.74323 11.8877 5.71023 11.8868 5.67612C11.8863 5.64087 11.897 5.60639 11.9174 5.57762C11.9378 5.54885 11.9667 5.52728 12.0001 5.516L13.5201 5.00228ZM12.2 12.2477L8.86667 11.1402C8.62874 11.0603 8.37127 11.0603 8.13334 11.1402L4.80001 12.2477C4.56945 12.324 4.36846 12.4705 4.22505 12.6666C4.08164 12.8628 4.00297 13.0988 4.00001 13.3418V17.7185C3.99917 17.964 4.07616 18.2035 4.21991 18.4025C4.36366 18.6015 4.56676 18.7497 4.80001 18.8259L8.13334 19.9401C8.37127 20.02 8.62874 20.02 8.86667 19.9401L12.2 18.8259C12.4333 18.7497 12.6363 18.6015 12.7801 18.4025C12.9238 18.2035 13.0008 17.964 13 17.7185V13.3418C12.9932 13.0998 12.9131 12.8655 12.7702 12.6701C12.6273 12.4747 12.4285 12.3274 12.2 12.2477ZM8.44667 12.0876H8.55334L10.4467 12.7547C10.479 12.7656 10.5072 12.7862 10.5274 12.8136C10.5477 12.8411 10.5591 12.8741 10.56 12.9082C10.5615 12.9437 10.5512 12.9787 10.5307 13.0076C10.5102 13.0366 10.4806 13.058 10.4467 13.0683L8.32 13.7622C8.28339 13.7754 8.24329 13.7754 8.20667 13.7622L6.29334 13.095C6.25996 13.0837 6.23102 13.0621 6.21065 13.0334C6.19029 13.0046 6.17956 12.9701 6.18001 12.9349C6.18094 12.9008 6.19231 12.8678 6.21258 12.8403C6.23284 12.8129 6.26103 12.7923 6.29334 12.7814L8.44667 12.0876ZM11.8867 17.8919L9.05334 18.8393C9.02935 18.8506 9.00318 18.8564 8.97667 18.8564C8.95016 18.8564 8.92398 18.8506 8.9 18.8393C8.8793 18.8238 8.8625 18.8036 8.85093 18.7805C8.83936 18.7573 8.83334 18.7318 8.83334 18.7059V14.7496C8.83289 14.7143 8.84362 14.6798 8.86399 14.6511C8.88435 14.6223 8.91329 14.6007 8.94667 14.5894L11.78 13.6421C11.804 13.6308 11.8302 13.6249 11.8567 13.6249C11.8832 13.6249 11.9094 13.6308 11.9333 13.6421C11.954 13.6576 11.9708 13.6777 11.9824 13.7009C11.994 13.7241 12 13.7496 12 13.7755V17.7051C12.0067 17.7447 11.999 17.7854 11.9782 17.8197C11.9573 17.854 11.9249 17.8796 11.8867 17.8919ZM17.1332 11.7206L19.3332 12.4612C19.5204 12.5231 19.6844 12.6405 19.8034 12.7978C19.9224 12.955 19.991 13.1448 19.9999 13.3418V16.2774C19.9979 16.4787 19.9324 16.6742 19.8127 16.836C19.6929 16.9978 19.5251 17.1175 19.3332 17.178L17.1332 17.9186C16.9381 17.9809 16.7284 17.9809 16.5332 17.9186L14.3132 17.1714C14.1213 17.113 13.9531 16.9948 13.8332 16.8339C13.7133 16.6731 13.6479 16.4781 13.6466 16.2774V13.3619C13.6485 13.1605 13.714 12.965 13.8338 12.8032C13.9535 12.6414 14.1214 12.5217 14.3132 12.4612L16.5332 11.7206C16.7287 11.6604 16.9378 11.6604 17.1332 11.7206ZM17.4799 12.8815L16.8132 12.6747L15.9732 12.9682C15.9409 12.9791 15.9127 12.9997 15.8925 13.0271C15.8722 13.0546 15.8608 13.0876 15.8599 13.1217C15.8595 13.1569 15.8702 13.1914 15.8905 13.2202C15.9109 13.2489 15.9399 13.2705 15.9732 13.2818L16.5666 13.4819C16.6037 13.4919 16.6428 13.4919 16.6799 13.4819C16.8132 13.4286 17.1732 13.3018 17.4799 13.2017C17.5145 13.1916 17.5449 13.1706 17.5666 13.1417C17.5882 13.1128 17.5999 13.0777 17.5999 13.0416C17.5999 13.0055 17.5882 12.9704 17.5666 12.9415C17.5449 12.9127 17.5145 12.8916 17.4799 12.8815ZM17.3099 16.8016C17.3364 16.8016 17.3626 16.7957 17.3866 16.7844L18.8932 16.2373C18.9278 16.2281 18.9581 16.207 18.9788 16.1778C18.9995 16.1485 19.0093 16.113 19.0066 16.0772V13.9356C19.0066 13.9097 19.0005 13.8842 18.989 13.861C18.9774 13.8379 18.9606 13.8177 18.9399 13.8022C18.9159 13.7909 18.8897 13.785 18.8632 13.785C18.8367 13.785 18.8105 13.7909 18.7866 13.8022L17.1666 14.3426V16.6443C17.167 16.6711 17.1732 16.6975 17.1847 16.7216C17.1962 16.7458 17.2127 16.7672 17.2332 16.7844C17.2572 16.7957 17.2834 16.8016 17.3099 16.8016Z" fill="#161616"/>
</svg>
