<svg width="24" height="24" viewBox="0 0 24 24" fill="none" xmlns="http://www.w3.org/2000/svg">
<path d="M17.4941 17.0005H12.6273C12.5938 17.0005 12.5616 16.9873 12.5379 16.9639C12.5142 16.9405 12.5008 16.9087 12.5008 16.8756V16.001C13.8426 15.9354 15.103 15.346 16.0048 14.3624C16.9066 13.3788 17.3759 12.0816 17.3094 10.7562C17.243 9.43079 16.6463 8.18574 15.6506 7.29492C14.6549 6.40411 13.3417 5.94052 12 6.00612C11.3397 5.99008 10.6829 6.10504 10.0684 6.34422C9.45394 6.5834 8.89428 6.94192 8.42256 7.39858C7.95085 7.85523 7.57667 8.40073 7.32219 9.00278C7.0677 9.60483 6.93807 10.2512 6.94098 10.9036C6.92426 12.1599 7.38106 13.3775 8.22256 14.3196C9.06407 15.2617 10.2301 15.861 11.4941 16.001V16.9106C11.4941 16.9437 11.4808 16.9755 11.4571 16.9989C11.4333 17.0223 11.4012 17.0355 11.3676 17.0355L6.5059 17.0005C6.37173 17.0005 6.24305 17.0532 6.14818 17.1469C6.0533 17.2406 6 17.3677 6 17.5003C6 17.6328 6.0533 17.7599 6.14818 17.8536C6.24305 17.9473 6.37173 18 6.5059 18H17.4941C17.6283 18 17.7569 17.9473 17.8518 17.8536C17.9467 17.7599 18 17.6328 18 17.5003C18 17.3677 17.9467 17.2406 17.8518 17.1469C17.7569 17.0532 17.6283 17.0005 17.4941 17.0005ZM13.1686 14.8266C13.5069 14.208 13.775 13.5544 13.968 12.8776H15.5666C15.3165 13.3424 14.9759 13.7539 14.5644 14.0883C14.1529 14.4228 13.6785 14.6737 13.1686 14.8266ZM15.8853 9.87915C16.0802 10.5292 16.0994 11.2184 15.941 11.8781H14.1855C14.2765 11.2148 14.2765 10.5424 14.1855 9.87915H15.8853ZM15.43 8.87966H14.0236C13.8593 8.29692 13.6196 7.73758 13.3103 7.21551C14.1893 7.51337 14.9378 8.10099 15.43 8.87966ZM12 7.10556C12.4125 7.64198 12.7337 8.24119 12.9511 8.87966H11.054C11.2716 8.24227 11.591 7.64335 12 7.10556ZM10.8061 9.87915H13.199C13.305 10.5414 13.305 11.2159 13.199 11.8781H10.8314C10.7169 11.2172 10.7084 10.5427 10.8061 9.87915ZM10.7251 7.19552C10.4113 7.72364 10.1681 8.28974 10.0017 8.87966H8.52445C9.02406 8.07063 9.80728 7.47125 10.7251 7.19552ZM8.0742 11.8781C7.99528 11.5591 7.95453 11.232 7.95278 10.9036C7.95388 10.5578 7.99978 10.2135 8.08938 9.87915H9.79933C9.70584 10.5423 9.70584 11.215 9.79933 11.8781H8.0742ZM8.45363 12.8776H10.0371C10.2309 13.5557 10.499 14.2109 10.8364 14.8316C9.81641 14.5112 8.96329 13.8101 8.45868 12.8776H8.45363ZM12.9258 12.8776C12.6963 13.5643 12.3855 14.2219 12 14.8366C11.618 14.2207 11.3091 13.5633 11.0793 12.8776H12.9258Z" fill="black"/>
</svg>
