<svg width="24" height="24" viewBox="0 0 24 24" fill="none" xmlns="http://www.w3.org/2000/svg">
<path d="M19.3255 18.6673H12.8364C12.7917 18.6673 12.7488 18.6498 12.7172 18.6186C12.6856 18.5873 12.6678 18.5449 12.6678 18.5008V17.3347C14.4568 17.2472 16.1373 16.4613 17.3397 15.1498C18.5421 13.8384 19.1678 12.1088 19.0793 10.3416C18.9907 8.57439 18.1951 6.91431 16.8675 5.72657C15.5399 4.53882 13.789 3.92069 12 4.00817C11.1196 3.98677 10.2439 4.14006 9.42457 4.45896C8.60526 4.77786 7.85904 5.2559 7.23009 5.86477C6.60113 6.47364 6.10223 7.20097 5.76292 8.00371C5.4236 8.80644 5.25076 9.66827 5.25464 10.5382C5.23235 12.2132 5.84141 13.8366 6.96342 15.0927C8.08542 16.3489 9.64019 17.148 11.3255 17.3347V18.5474C11.3255 18.5916 11.3077 18.634 11.2761 18.6652C11.2444 18.6964 11.2016 18.714 11.1568 18.714L4.67454 18.6673C4.49564 18.6673 4.32407 18.7375 4.19757 18.8625C4.07107 18.9875 4 19.157 4 19.3337C4 19.5104 4.07107 19.6799 4.19757 19.8048C4.32407 19.9298 4.49564 20 4.67454 20H19.3255C19.5044 20 19.6759 19.9298 19.8024 19.8048C19.9289 19.6799 20 19.5104 20 19.3337C20 19.157 19.9289 18.9875 19.8024 18.8625C19.6759 18.7375 19.5044 18.6673 19.3255 18.6673ZM13.5582 15.7688C14.0092 14.944 14.3666 14.0725 14.6239 13.1702H16.7555C16.422 13.7899 15.9679 14.3385 15.4192 14.7845C14.8705 15.2304 14.2381 15.5649 13.5582 15.7688ZM17.1804 9.1722C17.4403 10.039 17.4659 10.9579 17.2546 11.8375H14.914C15.0353 10.9531 15.0353 10.0566 14.914 9.1722H17.1804ZM16.5734 7.83954H14.6981C14.4791 7.06256 14.1594 6.31677 13.747 5.62068C14.9191 6.01783 15.9171 6.80132 16.5734 7.83954ZM12 5.47408C12.5499 6.18931 12.9783 6.98826 13.2681 7.83954H10.7386C11.0288 6.9897 11.4546 6.19114 12 5.47408ZM10.4081 9.1722H13.5987C13.74 10.0551 13.74 10.9546 13.5987 11.8375H10.4418C10.2892 10.9563 10.2779 10.0569 10.4081 9.1722ZM10.3002 5.59402C9.8817 6.29818 9.55747 7.05298 9.33558 7.83954H7.36594C8.03208 6.76084 9.07637 5.96166 10.3002 5.59402ZM6.7656 11.8375C6.66037 11.4121 6.60604 10.976 6.60371 10.5382C6.60517 10.077 6.66638 9.61798 6.78583 9.1722H9.06577C8.94112 10.0564 8.94112 10.9533 9.06577 11.8375H6.7656ZM7.2715 13.1702H9.3828C9.64126 14.0742 9.99862 14.9478 10.4486 15.7755C9.08854 15.3482 7.95106 14.4134 7.27825 13.1702H7.2715ZM13.2344 13.1702C12.9284 14.0858 12.5141 14.9625 12 15.7822C11.4907 14.9609 11.0788 14.0845 10.7723 13.1702H13.2344Z" fill="black"/>
</svg>
