<svg width="24" height="24" viewBox="0 0 24 24" fill="none" xmlns="http://www.w3.org/2000/svg">
<path fill-rule="evenodd" clip-rule="evenodd" d="M16.5 14.75C16.0858 14.75 15.75 14.4142 15.75 14V11.569C15.8097 9.60718 14.4297 7.89499 12.5 7.5365V6.5C12.5 6.22386 12.2761 6 12 6C11.7239 6 11.5 6.22386 11.5 6.5V7.5365C9.57029 7.89499 8.19034 9.60718 8.25 11.569V14C8.25 14.4142 7.91421 14.75 7.5 14.75C7.22386 14.75 7 14.9739 7 15.25C7 15.5261 7.22386 15.75 7.5 15.75H16.5C16.7761 15.75 17 15.5261 17 15.25C17 14.9739 16.7761 14.75 16.5 14.75ZM13.118 16.5H10.882C10.8185 16.5001 10.7651 16.5479 10.758 16.611C10.7526 16.6571 10.7499 16.7036 10.75 16.75C10.75 17.4404 11.3096 18 12 18C12.6904 18 13.25 17.4404 13.25 16.75C13.2501 16.7036 13.2475 16.6571 13.242 16.611C13.2353 16.5476 13.1817 16.4997 13.118 16.5Z" fill="#161616"/>
</svg>
