<svg width="24" height="24" viewBox="0 0 24 24" fill="none" xmlns="http://www.w3.org/2000/svg">
<path fill-rule="evenodd" clip-rule="evenodd" d="M17.6667 15.6667C17.1144 15.6667 16.6667 15.219 16.6667 14.6667V11.4253C16.7462 8.80958 14.9063 6.52665 12.3333 6.04867V4.66667C12.3333 4.29848 12.0349 4 11.6667 4C11.2985 4 11 4.29848 11 4.66667V6.04867C8.42706 6.52665 6.58713 8.80958 6.66667 11.4253V14.6667C6.66667 15.219 6.21895 15.6667 5.66667 15.6667C5.29848 15.6667 5 15.9651 5 16.3333C5 16.7015 5.29848 17 5.66667 17H17.6667C18.0349 17 18.3333 16.7015 18.3333 16.3333C18.3333 15.9651 18.0349 15.6667 17.6667 15.6667ZM13.1573 18H10.176C10.0913 18.0002 10.0202 18.0638 10.0107 18.148C10.0034 18.2095 9.99985 18.2714 10 18.3333C10 19.2538 10.7462 20 11.6667 20C12.5871 20 13.3333 19.2538 13.3333 18.3333C13.3335 18.2714 13.3299 18.2095 13.3227 18.148C13.3138 18.0635 13.2423 17.9995 13.1573 18Z" fill="#161616"/>
</svg>
