<svg width="24" height="24" viewBox="0 0 24 24" fill="none" xmlns="http://www.w3.org/2000/svg">
<path d="M9.99767 12.4666H7.63866C7.52955 12.4666 7.42491 12.4175 7.34776 12.3299C7.27061 12.2424 7.22727 12.1237 7.22727 12C7.22727 11.8762 7.27061 11.7575 7.34776 11.67C7.42491 11.5825 7.52955 11.5333 7.63866 11.5333H9.99767C10.1068 11.5333 10.2114 11.5825 10.2886 11.67C10.3657 11.7575 10.4091 11.8762 10.4091 12C10.4091 12.1237 10.3657 12.2424 10.2886 12.3299C10.2114 12.4175 10.1068 12.4666 9.99767 12.4666Z" fill="#161616"/>
<path d="M15.6273 11.5333V10.7643C15.6273 10.65 15.5804 10.5404 15.4968 10.4596C15.4133 10.3787 15.3 10.3333 15.1818 10.3333C15.0637 10.3333 14.9504 10.3787 14.8669 10.4596C14.7833 10.5404 14.7364 10.65 14.7364 10.7643V11.5333H14.0023C13.8932 11.5333 13.7886 11.5825 13.7114 11.67C13.6343 11.7575 13.5909 11.8762 13.5909 12C13.5909 12.1237 13.6343 12.2424 13.7114 12.3299C13.7886 12.4175 13.8932 12.4666 14.0023 12.4666H14.7364V13.2357C14.7364 13.35 14.7833 13.4596 14.8669 13.5404C14.9504 13.6212 15.0637 13.6666 15.1818 13.6666C15.3 13.6666 15.4133 13.6212 15.4968 13.5404C15.5804 13.4596 15.6273 13.35 15.6273 13.2357V12.4666H16.3613C16.4704 12.4666 16.575 12.4175 16.6522 12.3299C16.7293 12.2424 16.7727 12.1237 16.7727 12C16.7727 11.8762 16.7293 11.7575 16.6522 11.67C16.575 11.5825 16.4704 11.5333 16.3613 11.5333H15.6273Z" fill="#161616"/>
<path fill-rule="evenodd" clip-rule="evenodd" d="M17.9394 8H6.06061C5.77932 8 5.50955 8.11706 5.31064 8.32544C5.11174 8.53381 5 8.81643 5 9.11111V14.8889C5 15.1836 5.11174 15.4662 5.31064 15.6746C5.50955 15.8829 5.77932 16 6.06061 16H17.9394C18.2207 16 18.4905 15.8829 18.6894 15.6746C18.8883 15.4662 19 15.1836 19 14.8889V9.11111C19 8.81643 18.8883 8.53381 18.6894 8.32544C18.4905 8.11706 18.2207 8 17.9394 8ZM6.4 9C6.15398 9 5.95455 9.20893 5.95455 9.46667V14.5333C5.95455 14.7911 6.15398 15 6.4 15H11.1048C11.3508 15 11.5502 14.7911 11.5502 14.5333V9.46667C11.5502 9.20893 11.3508 9 11.1048 9H6.4ZM12.8697 9C12.6237 9 12.4243 9.20893 12.4243 9.46667V14.5333C12.4243 14.7911 12.6237 15 12.8697 15H17.6C17.846 15 18.0455 14.7911 18.0455 14.5333V9.46667C18.0455 9.20893 17.846 9 17.6 9H12.8697Z" fill="#161616"/>
</svg>
