<svg width="24" height="24" viewBox="0 0 24 24" fill="none" xmlns="http://www.w3.org/2000/svg">
<path d="M9.42557 12.5833H6.39256C6.25228 12.5833 6.11775 12.5218 6.01855 12.4124C5.91936 12.303 5.86364 12.1547 5.86364 12C5.86364 11.8452 5.91936 11.6969 6.01855 11.5875C6.11775 11.4781 6.25228 11.4166 6.39256 11.4166H9.42557C9.56585 11.4166 9.70039 11.4781 9.79958 11.5875C9.89877 11.6969 9.9545 11.8452 9.9545 12C9.9545 12.1547 9.89877 12.303 9.79958 12.4124C9.70039 12.5218 9.56585 12.5833 9.42557 12.5833Z" fill="#161616"/>
<path d="M16.6637 11.4166V10.4554C16.6637 10.3125 16.6033 10.1755 16.4959 10.0745C16.3885 9.97342 16.2428 9.91667 16.0909 9.91667C15.9391 9.91667 15.7934 9.97342 15.686 10.0745C15.5786 10.1755 15.5182 10.3125 15.5182 10.4554V11.4166H14.5744C14.4341 11.4166 14.2996 11.4781 14.2004 11.5875C14.1012 11.6969 14.0455 11.8452 14.0455 12C14.0455 12.1547 14.1012 12.303 14.2004 12.4124C14.2996 12.5218 14.4341 12.5833 14.5744 12.5833H15.5182V13.5446C15.5182 13.6874 15.5786 13.8245 15.686 13.9255C15.7934 14.0265 15.9391 14.0833 16.091 14.0833C16.2428 14.0833 16.3885 14.0265 16.4959 13.9255C16.6033 13.8245 16.6637 13.6874 16.6637 13.5446V12.5833H17.6074C17.7477 12.5833 17.8822 12.5218 17.9814 12.4124C18.0806 12.303 18.1363 12.1547 18.1363 12C18.1363 11.8452 18.0806 11.6969 17.9814 11.5875C17.8822 11.4781 17.7477 11.4166 17.6074 11.4166H16.6637Z" fill="#161616"/>
<path fill-rule="evenodd" clip-rule="evenodd" d="M19.6364 7H4.36364C4.00198 7 3.65513 7.14633 3.3994 7.4068C3.14367 7.66726 3 8.02053 3 8.38889V15.6111C3 15.9795 3.14367 16.3327 3.3994 16.5932C3.65513 16.8537 4.00198 17 4.36364 17H19.6364C19.998 17 20.3449 16.8537 20.6006 16.5932C20.8563 16.3327 21 15.9795 21 15.6111V8.38889C21 8.02053 20.8563 7.66726 20.6006 7.4068C20.3449 7.14633 19.998 7 19.6364 7ZM4.8 8.25C4.48369 8.25 4.22727 8.51117 4.22727 8.83333V15.1667C4.22727 15.4888 4.48369 15.75 4.8 15.75H10.849C11.1653 15.75 11.4217 15.4888 11.4217 15.1667V8.83333C11.4217 8.51117 11.1653 8.25 10.849 8.25H4.8ZM13.1182 8.25C12.8019 8.25 12.5455 8.51117 12.5455 8.83333V15.1667C12.5455 15.4888 12.8019 15.75 13.1182 15.75H19.2C19.5163 15.75 19.7727 15.4888 19.7727 15.1667V8.83333C19.7727 8.51117 19.5163 8.25 19.2 8.25H13.1182Z" fill="#161616"/>
</svg>
