<svg width="24" height="24" viewBox="0 0 24 24" fill="none" xmlns="http://www.w3.org/2000/svg">
<path d="M8.85348 12.6999H5.14646C4.97501 12.6999 4.81058 12.6262 4.68934 12.4949C4.56811 12.3636 4.5 12.1856 4.5 11.9999C4.5 11.8143 4.56811 11.6362 4.68934 11.505C4.81058 11.3737 4.97501 11.2999 5.14646 11.2999H8.85348C9.02493 11.2999 9.18936 11.3737 9.3106 11.505C9.43183 11.6362 9.49994 11.8143 9.49994 11.9999C9.49994 12.1856 9.43183 12.3636 9.3106 12.4949C9.18936 12.6262 9.02493 12.6999 8.85348 12.6999Z" fill="#161616"/>
<path d="M17.7 11.2999V10.1465C17.7 9.97501 17.6263 9.81058 17.495 9.68934C17.3637 9.56811 17.1857 9.5 17 9.5C16.8144 9.5 16.6363 9.56811 16.5051 9.68934C16.3738 9.81058 16.3 9.97501 16.3 10.1465V11.2999H15.1465C14.975 11.2999 14.8106 11.3737 14.6893 11.505C14.5681 11.6362 14.5 11.8143 14.5 11.9999C14.5 12.1856 14.5681 12.3636 14.6893 12.4949C14.8106 12.6262 14.975 12.6999 15.1465 12.6999H16.3V13.8535C16.3 14.0249 16.3738 14.1894 16.5051 14.3106C16.6363 14.4318 16.8144 14.4999 17 14.4999C17.1857 14.4999 17.3637 14.4318 17.495 14.3106C17.6263 14.1894 17.7 14.0249 17.7 13.8535V12.6999H18.8535C19.0249 12.6999 19.1894 12.6262 19.3106 12.4949C19.4318 12.3636 19.4999 12.1856 19.4999 11.9999C19.4999 11.8143 19.4318 11.6362 19.3106 11.505C19.1894 11.3737 19.0249 11.2999 18.8535 11.2999H17.7Z" fill="#161616"/>
<path fill-rule="evenodd" clip-rule="evenodd" d="M21.3333 6H2.66667C2.22464 6 1.80072 6.17559 1.48816 6.48816C1.17559 6.80072 1 7.22464 1 7.66667V16.3333C1 16.7754 1.17559 17.1993 1.48816 17.5118C1.80072 17.8244 2.22464 18 2.66667 18H21.3333C21.7754 18 22.1993 17.8244 22.5118 17.5118C22.8244 17.1993 23 16.7754 23 16.3333V7.66667C23 7.22464 22.8244 6.80072 22.5118 6.48816C22.1993 6.17559 21.7754 6 21.3333 6ZM3.2 7.5C2.8134 7.5 2.5 7.8134 2.5 8.2V15.8C2.5 16.1866 2.8134 16.5 3.2 16.5H10.5932C10.9798 16.5 11.2932 16.1866 11.2932 15.8V8.2C11.2932 7.8134 10.9798 7.5 10.5932 7.5H3.2ZM13.3667 7.5C12.9801 7.5 12.6667 7.8134 12.6667 8.2V15.8C12.6667 16.1866 12.9801 16.5 13.3667 16.5H20.8C21.1866 16.5 21.5 16.1866 21.5 15.8V8.2C21.5 7.8134 21.1866 7.5 20.8 7.5H13.3667Z" fill="#161616"/>
</svg>
