<svg width="24" height="24" viewBox="0 0 24 24" fill="none" xmlns="http://www.w3.org/2000/svg">
<path fill-rule="evenodd" clip-rule="evenodd" d="M14.9723 11.2112C14.9574 10.3509 14.6516 9.51972 14.1026 8.84768C13.5537 8.17564 12.7925 7.70068 11.9384 7.49711C11.9238 7.49492 11.91 7.48916 11.8983 7.48036C11.8866 7.47156 11.8774 7.46001 11.8715 7.44678C11.8506 7.40352 11.8644 7.3685 11.8858 7.31421C11.9117 7.24852 11.9487 7.15463 11.9487 6.98378C11.9575 6.85742 11.9396 6.73063 11.8961 6.61134C11.8526 6.49205 11.7844 6.38283 11.6958 6.2905C11.6072 6.19818 11.5001 6.12472 11.3812 6.07474C11.2622 6.02476 11.1341 5.99932 11.0047 6.00001C10.8752 6.00071 10.7474 6.02752 10.629 6.07878C10.5107 6.13003 10.4044 6.20463 10.3168 6.2979C10.2293 6.39117 10.1623 6.50112 10.1201 6.62087C10.078 6.74061 10.0615 6.86759 10.0717 6.99385C10.0717 7.16216 10.1104 7.25634 10.1377 7.32285C10.1601 7.37765 10.1749 7.41365 10.154 7.45685C10.1463 7.46974 10.1359 7.48088 10.1235 7.48956C10.1111 7.49823 10.097 7.50424 10.082 7.50718C9.21767 7.7133 8.44896 8.19724 7.89891 8.88155C7.34886 9.56585 7.04928 10.411 7.0481 11.2816C7.04808 11.3355 7.06958 11.3872 7.10802 11.4258C7.14645 11.4643 7.19877 11.4867 7.25379 11.488H13.553C14.0039 11.3085 14.4856 11.2146 14.9723 11.2112ZM10.6374 8.7301C10.0717 8.81264 9.54855 9.07218 9.14613 9.4699C9.08758 9.52755 9.00807 9.56013 8.92501 9.56048C8.86669 9.55782 8.81029 9.53927 8.76216 9.50694C8.71402 9.47461 8.67606 9.42977 8.65255 9.37747C8.62904 9.32517 8.6209 9.26748 8.62907 9.21091C8.63723 9.15433 8.66136 9.10111 8.69875 9.05722C9.19743 8.56186 9.84716 8.23862 10.55 8.13625C10.6323 8.12613 10.7154 8.14779 10.7816 8.19665C10.8479 8.24552 10.892 8.31773 10.9048 8.39795C10.9109 8.47606 10.8869 8.55358 10.8373 8.61512C10.7878 8.67665 10.7164 8.7177 10.6374 8.7301ZM6.42069 12.3235C6.31022 12.3235 6.20427 12.3664 6.12616 12.4429C6.04805 12.5193 6.00416 12.623 6.00416 12.7311C5.9951 12.7822 6.0009 12.8348 6.0209 12.8829C6.04091 12.9309 6.07431 12.9725 6.11729 13.0029C7.0722 13.6651 8.22335 14.0011 9.3929 13.9591H11.2184C11.4 13.3417 11.7378 12.7791 12.2006 12.3235H6.42069ZM13.5926 12.2521C14.0611 12.0347 14.578 11.9363 15.0955 11.9661C15.6825 11.9999 16.2473 12.1971 16.7236 12.5345C17.1999 12.8718 17.5677 13.3354 17.7838 13.8705C18 14.4057 18.0554 14.9901 17.9435 15.555C17.8316 16.1199 17.5572 16.6418 17.1524 17.0591C16.7955 17.4272 16.3496 17.7013 15.8559 17.8561C15.3621 18.0109 14.8365 18.0414 14.3275 17.9449C13.8185 17.8484 13.3426 17.6278 12.9437 17.3037C12.5448 16.9796 12.2357 16.5623 12.0452 16.0904C11.8546 15.6185 11.7886 15.1073 11.8533 14.6038C11.9179 14.1004 12.1112 13.621 12.4152 13.21C12.7192 12.7989 13.1241 12.4695 13.5926 12.2521ZM15.2807 16.1834L16.7719 14.2358L16.7668 14.261C16.8073 14.2081 16.8368 14.1479 16.8535 14.0839C16.8703 14.0199 16.874 13.9533 16.8644 13.8879C16.8549 13.8224 16.8323 13.7595 16.7979 13.7026C16.7635 13.6458 16.7179 13.5961 16.6639 13.5564C16.6099 13.5168 16.5484 13.4879 16.483 13.4715C16.4176 13.4551 16.3495 13.4515 16.2827 13.4608C16.1477 13.4797 16.0258 13.5503 15.944 13.6571L14.5402 15.4889L13.8717 14.8397C13.8256 14.7871 13.7689 14.7443 13.7051 14.7141C13.6413 14.6839 13.5718 14.6669 13.501 14.6642C13.4301 14.6615 13.3595 14.6732 13.2935 14.6985C13.2275 14.7238 13.1676 14.7622 13.1175 14.8112C13.0674 14.8603 13.0282 14.9189 13.0023 14.9835C12.9765 15.0481 12.9645 15.1172 12.9673 15.1865C12.97 15.2558 12.9873 15.3238 13.0182 15.3863C13.0491 15.4487 13.0928 15.5042 13.1466 15.5493L13.918 16.274C14.0089 16.3646 14.1188 16.4348 14.2401 16.4798C14.3614 16.5249 14.4912 16.5438 14.6206 16.5352C14.75 16.5266 14.876 16.4907 14.9899 16.43C15.1039 16.3693 15.203 16.2852 15.2807 16.1834Z" fill="#161616"/>
</svg>
