<svg width="24" height="24" viewBox="0 0 24 24" fill="none" xmlns="http://www.w3.org/2000/svg">
<path fill-rule="evenodd" clip-rule="evenodd" d="M7.5 6H10C10.3978 6 10.7794 6.15804 11.0607 6.43934C11.342 6.72064 11.5 7.10218 11.5 7.5V10C11.5 10.3978 11.342 10.7794 11.0607 11.0607C10.7794 11.342 10.3978 11.5 10 11.5H7.5C7.10218 11.5 6.72064 11.342 6.43934 11.0607C6.15804 10.7794 6 10.3978 6 10V7.5C6 7.10218 6.15804 6.72064 6.43934 6.43934C6.72064 6.15804 7.10218 6 7.5 6ZM10.3536 10.3536C10.4473 10.2598 10.5 10.1326 10.5 10V7.5C10.5 7.36739 10.4473 7.24021 10.3536 7.14645C10.2598 7.05268 10.1326 7 10 7H7.5C7.36739 7 7.24021 7.05268 7.14645 7.14645C7.05268 7.24021 7 7.36739 7 7.5V10C7 10.1326 7.05268 10.2598 7.14645 10.3536C7.24021 10.4473 7.36739 10.5 7.5 10.5H10C10.1326 10.5 10.2598 10.4473 10.3536 10.3536ZM7.5 12.5H10C10.3978 12.5 10.7794 12.658 11.0607 12.9393C11.342 13.2206 11.5 13.6021 11.5 14V16.5C11.5 16.8978 11.342 17.2793 11.0607 17.5606C10.7794 17.8419 10.3978 18 10 18H7.5C7.10218 18 6.72064 17.8419 6.43934 17.5606C6.15804 17.2793 6 16.8978 6 16.5V14C6 13.6021 6.15804 13.2206 6.43934 12.9393C6.72064 12.658 7.10218 12.5 7.5 12.5ZM10.3536 16.8535C10.4473 16.7598 10.5 16.6326 10.5 16.5V14C10.5 13.8674 10.4473 13.7402 10.3536 13.6464C10.2598 13.5526 10.1326 13.5 10 13.5H7.5C7.36739 13.5 7.24021 13.5526 7.14645 13.6464C7.05268 13.7402 7 13.8674 7 14V16.5C7 16.6326 7.05268 16.7598 7.14645 16.8535C7.24021 16.9473 7.36739 17 7.5 17H10C10.1326 17 10.2598 16.9473 10.3536 16.8535ZM13.125 7.5H17.625C17.7245 7.5 17.8198 7.46049 17.8902 7.39017C17.9605 7.31984 18 7.22446 18 7.125C18 7.02554 17.9605 6.93016 17.8902 6.85983C17.8198 6.78951 17.7245 6.75 17.625 6.75H13.125C13.0255 6.75 12.9302 6.78951 12.8598 6.85983C12.7895 6.93016 12.75 7.02554 12.75 7.125C12.75 7.22446 12.7895 7.31984 12.8598 7.39017C12.9302 7.46049 13.0255 7.5 13.125 7.5ZM13.125 8.25H17.625C17.7245 8.25 17.8198 8.28951 17.8902 8.35983C17.9605 8.43016 18 8.52554 18 8.625C18 8.72446 17.9605 8.81984 17.8902 8.89017C17.8198 8.96049 17.7245 9 17.625 9H13.125C13.0255 9 12.9302 8.96049 12.8598 8.89017C12.7895 8.81984 12.75 8.72446 12.75 8.625C12.75 8.52554 12.7895 8.43016 12.8598 8.35983C12.9302 8.28951 13.0255 8.25 13.125 8.25ZM17.625 9.75H13.125C13.0255 9.75 12.9302 9.78951 12.8598 9.85983C12.7895 9.93016 12.75 10.0255 12.75 10.125C12.75 10.2245 12.7895 10.3198 12.8598 10.3902C12.9302 10.4605 13.0255 10.5 13.125 10.5H17.625C17.7245 10.5 17.8198 10.4605 17.8902 10.3902C17.9605 10.3198 18 10.2245 18 10.125C18 10.0255 17.9605 9.93016 17.8902 9.85983C17.8198 9.78951 17.7245 9.75 17.625 9.75ZM13.125 13.25H17.625C17.7245 13.25 17.8198 13.2895 17.8902 13.3598C17.9605 13.4301 18 13.5255 18 13.625C18 13.7244 17.9605 13.8198 17.8902 13.8901C17.8198 13.9605 17.7245 14 17.625 14H13.125C13.0255 14 12.9302 13.9605 12.8598 13.8901C12.7895 13.8198 12.75 13.7244 12.75 13.625C12.75 13.5255 12.7895 13.4301 12.8598 13.3598C12.9302 13.2895 13.0255 13.25 13.125 13.25ZM17.625 14.75H13.125C13.0255 14.75 12.9302 14.7895 12.8598 14.8598C12.7895 14.9301 12.75 15.0255 12.75 15.125C12.75 15.2244 12.7895 15.3198 12.8598 15.3901C12.9302 15.4605 13.0255 15.5 13.125 15.5H17.625C17.7245 15.5 17.8198 15.4605 17.8902 15.3901C17.9605 15.3198 18 15.2244 18 15.125C18 15.0255 17.9605 14.9301 17.8902 14.8598C17.8198 14.7895 17.7245 14.75 17.625 14.75ZM13.125 16.25H17.625C17.7245 16.25 17.8198 16.2895 17.8902 16.3598C17.9605 16.4301 18 16.5255 18 16.625C18 16.7244 17.9605 16.8198 17.8902 16.8901C17.8198 16.9605 17.7245 17 17.625 17H13.125C13.0255 17 12.9302 16.9605 12.8598 16.8901C12.7895 16.8198 12.75 16.7244 12.75 16.625C12.75 16.5255 12.7895 16.4301 12.8598 16.3598C12.9302 16.2895 13.0255 16.25 13.125 16.25Z" fill="#161616"/>
</svg>
