<svg width="24" height="24" viewBox="0 0 24 24" fill="none" xmlns="http://www.w3.org/2000/svg">
<path fill-rule="evenodd" clip-rule="evenodd" d="M4.5 2H8.66667C9.32971 2 9.96559 2.26339 10.4344 2.73223C10.9033 3.20107 11.1667 3.83696 11.1667 4.5V8.66667C11.1667 9.32971 10.9033 9.96559 10.4344 10.4344C9.96559 10.9033 9.32971 11.1667 8.66667 11.1667H4.5C3.83696 11.1667 3.20107 10.9033 2.73223 10.4344C2.26339 9.96559 2 9.32971 2 8.66667V4.5C2 3.83696 2.26339 3.20107 2.73223 2.73223C3.20107 2.26339 3.83696 2 4.5 2ZM9.25592 9.25592C9.4122 9.09964 9.5 8.88768 9.5 8.66667V4.5C9.5 4.27899 9.4122 4.06702 9.25592 3.91074C9.09964 3.75446 8.88768 3.66667 8.66667 3.66667H4.5C4.27899 3.66667 4.06702 3.75446 3.91074 3.91074C3.75446 4.06702 3.66667 4.27899 3.66667 4.5V8.66667C3.66667 8.88768 3.75446 9.09964 3.91074 9.25592C4.06702 9.4122 4.27899 9.5 4.5 9.5H8.66667C8.88768 9.5 9.09964 9.4122 9.25592 9.25592ZM4.5 12.8333H8.66667C9.32971 12.8333 9.96559 13.0967 10.4344 13.5656C10.9033 14.0344 11.1667 14.6703 11.1667 15.3333V19.5C11.1667 20.163 10.9033 20.7989 10.4344 21.2678C9.96559 21.7366 9.32971 22 8.66667 22H4.5C3.83696 22 3.20107 21.7366 2.73223 21.2678C2.26339 20.7989 2 20.163 2 19.5V15.3333C2 14.6703 2.26339 14.0344 2.73223 13.5656C3.20107 13.0967 3.83696 12.8333 4.5 12.8333ZM9.25592 20.0893C9.4122 19.933 9.5 19.721 9.5 19.5V15.3333C9.5 15.1123 9.4122 14.9004 9.25592 14.7441C9.09964 14.5878 8.88768 14.5 8.66667 14.5H4.5C4.27899 14.5 4.06702 14.5878 3.91074 14.7441C3.75446 14.9004 3.66667 15.1123 3.66667 15.3333V19.5C3.66667 19.721 3.75446 19.933 3.91074 20.0893C4.06702 20.2455 4.27899 20.3333 4.5 20.3333H8.66667C8.88768 20.3333 9.09964 20.2455 9.25592 20.0893ZM13.875 4.5H21.375C21.5408 4.5 21.6997 4.43415 21.8169 4.31694C21.9342 4.19973 22 4.04076 22 3.875C22 3.70924 21.9342 3.55027 21.8169 3.43306C21.6997 3.31585 21.5408 3.25 21.375 3.25H13.875C13.7092 3.25 13.5503 3.31585 13.4331 3.43306C13.3158 3.55027 13.25 3.70924 13.25 3.875C13.25 4.04076 13.3158 4.19973 13.4331 4.31694C13.5503 4.43415 13.7092 4.5 13.875 4.5ZM13.875 5.75H21.375C21.5408 5.75 21.6997 5.81585 21.8169 5.93306C21.9342 6.05027 22 6.20924 22 6.375C22 6.54076 21.9342 6.69973 21.8169 6.81694C21.6997 6.93415 21.5408 7 21.375 7H13.875C13.7092 7 13.5503 6.93415 13.4331 6.81694C13.3158 6.69973 13.25 6.54076 13.25 6.375C13.25 6.20924 13.3158 6.05027 13.4331 5.93306C13.5503 5.81585 13.7092 5.75 13.875 5.75ZM21.375 8.25H13.875C13.7092 8.25 13.5503 8.31585 13.4331 8.43306C13.3158 8.55027 13.25 8.70924 13.25 8.875C13.25 9.04076 13.3158 9.19973 13.4331 9.31694C13.5503 9.43415 13.7092 9.5 13.875 9.5H21.375C21.5408 9.5 21.6997 9.43415 21.8169 9.31694C21.9342 9.19973 22 9.04076 22 8.875C22 8.70924 21.9342 8.55027 21.8169 8.43306C21.6997 8.31585 21.5408 8.25 21.375 8.25ZM13.875 14.0833H21.375C21.5408 14.0833 21.6997 14.1492 21.8169 14.2664C21.9342 14.3836 22 14.5426 22 14.7083C22 14.8741 21.9342 15.0331 21.8169 15.1503C21.6997 15.2675 21.5408 15.3333 21.375 15.3333H13.875C13.7092 15.3333 13.5503 15.2675 13.4331 15.1503C13.3158 15.0331 13.25 14.8741 13.25 14.7083C13.25 14.5426 13.3158 14.3836 13.4331 14.2664C13.5503 14.1492 13.7092 14.0833 13.875 14.0833ZM21.375 16.5833H13.875C13.7092 16.5833 13.5503 16.6492 13.4331 16.7664C13.3158 16.8836 13.25 17.0426 13.25 17.2083C13.25 17.3741 13.3158 17.5331 13.4331 17.6503C13.5503 17.7675 13.7092 17.8333 13.875 17.8333H21.375C21.5408 17.8333 21.6997 17.7675 21.8169 17.6503C21.9342 17.5331 22 17.3741 22 17.2083C22 17.0426 21.9342 16.8836 21.8169 16.7664C21.6997 16.6492 21.5408 16.5833 21.375 16.5833ZM13.875 19.0833H21.375C21.5408 19.0833 21.6997 19.1492 21.8169 19.2664C21.9342 19.3836 22 19.5426 22 19.7083C22 19.8741 21.9342 20.0331 21.8169 20.1503C21.6997 20.2675 21.5408 20.3333 21.375 20.3333H13.875C13.7092 20.3333 13.5503 20.2675 13.4331 20.1503C13.3158 20.0331 13.25 19.8741 13.25 19.7083C13.25 19.5426 13.3158 19.3836 13.4331 19.2664C13.5503 19.1492 13.7092 19.0833 13.875 19.0833Z" fill="#161616"/>
</svg>
