<svg width="24" height="24" viewBox="0 0 24 24" fill="none" xmlns="http://www.w3.org/2000/svg">
<path fill-rule="evenodd" clip-rule="evenodd" d="M6 4H9.33333C9.86377 4 10.3725 4.21071 10.7475 4.58579C11.1226 4.96086 11.3333 5.46957 11.3333 6V9.33333C11.3333 9.86377 11.1226 10.3725 10.7475 10.7475C10.3725 11.1226 9.86377 11.3333 9.33333 11.3333H6C5.46957 11.3333 4.96086 11.1226 4.58579 10.7475C4.21071 10.3725 4 9.86377 4 9.33333V6C4 5.46957 4.21071 4.96086 4.58579 4.58579C4.96086 4.21071 5.46957 4 6 4ZM9.80474 9.80474C9.92976 9.67971 10 9.51014 10 9.33333V6C10 5.82319 9.92976 5.65362 9.80474 5.5286C9.67971 5.40357 9.51014 5.33333 9.33333 5.33333H6C5.82319 5.33333 5.65362 5.40357 5.5286 5.5286C5.40357 5.65362 5.33333 5.82319 5.33333 6V9.33333C5.33333 9.51014 5.40357 9.67971 5.5286 9.80474C5.65362 9.92976 5.82319 10 6 10H9.33333C9.51014 10 9.67971 9.92976 9.80474 9.80474ZM6 12.6667H9.33333C9.86377 12.6667 10.3725 12.8774 10.7475 13.2524C11.1226 13.6275 11.3333 14.1362 11.3333 14.6667V18C11.3333 18.5304 11.1226 19.0391 10.7475 19.4142C10.3725 19.7893 9.86377 20 9.33333 20H6C5.46957 20 4.96086 19.7893 4.58579 19.4142C4.21071 19.0391 4 18.5304 4 18V14.6667C4 14.1362 4.21071 13.6275 4.58579 13.2524C4.96086 12.8774 5.46957 12.6667 6 12.6667ZM9.80474 18.4714C9.92976 18.3464 10 18.1768 10 18V14.6667C10 14.4898 9.92976 14.3203 9.80474 14.1952C9.67971 14.0702 9.51014 14 9.33333 14H6C5.82319 14 5.65362 14.0702 5.5286 14.1952C5.40357 14.3203 5.33333 14.4898 5.33333 14.6667V18C5.33333 18.1768 5.40357 18.3464 5.5286 18.4714C5.65362 18.5964 5.82319 18.6667 6 18.6667H9.33333C9.51014 18.6667 9.67971 18.5964 9.80474 18.4714ZM13.5 6H19.5C19.6326 6 19.7598 5.94732 19.8536 5.85355C19.9473 5.75979 20 5.63261 20 5.5C20 5.36739 19.9473 5.24021 19.8536 5.14645C19.7598 5.05268 19.6326 5 19.5 5H13.5C13.3674 5 13.2402 5.05268 13.1464 5.14645C13.0527 5.24021 13 5.36739 13 5.5C13 5.63261 13.0527 5.75979 13.1464 5.85355C13.2402 5.94732 13.3674 6 13.5 6ZM13.5 7H19.5C19.6326 7 19.7598 7.05268 19.8536 7.14645C19.9473 7.24021 20 7.36739 20 7.5C20 7.63261 19.9473 7.75979 19.8536 7.85355C19.7598 7.94732 19.6326 8 19.5 8H13.5C13.3674 8 13.2402 7.94732 13.1464 7.85355C13.0527 7.75979 13 7.63261 13 7.5C13 7.36739 13.0527 7.24021 13.1464 7.14645C13.2402 7.05268 13.3674 7 13.5 7ZM19.5 9H13.5C13.3674 9 13.2402 9.05268 13.1464 9.14645C13.0527 9.24021 13 9.36739 13 9.5C13 9.63261 13.0527 9.75979 13.1464 9.85355C13.2402 9.94732 13.3674 10 13.5 10H19.5C19.6326 10 19.7598 9.94732 19.8536 9.85355C19.9473 9.75979 20 9.63261 20 9.5C20 9.36739 19.9473 9.24021 19.8536 9.14645C19.7598 9.05268 19.6326 9 19.5 9ZM13.5 13.6667H19.5C19.6326 13.6667 19.7598 13.7193 19.8536 13.8131C19.9473 13.9069 20 14.034 20 14.1667C20 14.2993 19.9473 14.4264 19.8536 14.5202C19.7598 14.614 19.6326 14.6667 19.5 14.6667H13.5C13.3674 14.6667 13.2402 14.614 13.1464 14.5202C13.0527 14.4264 13 14.2993 13 14.1667C13 14.034 13.0527 13.9069 13.1464 13.8131C13.2402 13.7193 13.3674 13.6667 13.5 13.6667ZM19.5 15.6667H13.5C13.3674 15.6667 13.2402 15.7193 13.1464 15.8131C13.0527 15.9069 13 16.034 13 16.1667C13 16.2993 13.0527 16.4264 13.1464 16.5202C13.2402 16.614 13.3674 16.6667 13.5 16.6667H19.5C19.6326 16.6667 19.7598 16.614 19.8536 16.5202C19.9473 16.4264 20 16.2993 20 16.1667C20 16.034 19.9473 15.9069 19.8536 15.8131C19.7598 15.7193 19.6326 15.6667 19.5 15.6667ZM13.5 17.6667H19.5C19.6326 17.6667 19.7598 17.7193 19.8536 17.8131C19.9473 17.9069 20 18.034 20 18.1667C20 18.2993 19.9473 18.4264 19.8536 18.5202C19.7598 18.614 19.6326 18.6667 19.5 18.6667H13.5C13.3674 18.6667 13.2402 18.614 13.1464 18.5202C13.0527 18.4264 13 18.2993 13 18.1667C13 18.034 13.0527 17.9069 13.1464 17.8131C13.2402 17.7193 13.3674 17.6667 13.5 17.6667Z" fill="#161616"/>
</svg>
