<svg width="24" height="24" viewBox="0 0 24 24" fill="none" xmlns="http://www.w3.org/2000/svg">
<path fill-rule="evenodd" clip-rule="evenodd" d="M15.963 10.9482C15.9433 9.80121 15.5355 8.69296 14.8035 7.79691C14.0716 6.90086 13.0567 6.26757 11.9178 5.99615C11.8984 5.99323 11.88 5.98554 11.8644 5.97381C11.8489 5.96208 11.8366 5.94668 11.8287 5.92905C11.8008 5.87136 11.8192 5.82466 11.8477 5.75229C11.8822 5.6647 11.9315 5.5395 11.9315 5.31171C11.9433 5.14322 11.9194 4.97417 11.8614 4.81512C11.8034 4.65607 11.7125 4.51044 11.5944 4.38734C11.4762 4.26423 11.3334 4.1663 11.1749 4.09966C11.0163 4.03301 10.8454 3.99909 10.6729 4.00002C10.5003 4.00094 10.3298 4.03669 10.172 4.10503C10.0142 4.17337 9.87251 4.27283 9.75577 4.3972C9.63903 4.52156 9.54975 4.66816 9.49352 4.82782C9.4373 4.98748 9.41532 5.15678 9.42898 5.32513C9.42898 5.54954 9.4805 5.67512 9.51688 5.7638C9.54686 5.83686 9.56655 5.88487 9.53868 5.94247C9.52843 5.95965 9.51457 5.97451 9.49803 5.98608C9.48148 5.99764 9.46262 6.00565 9.44269 6.00957C8.29023 6.2844 7.26528 6.92965 6.53188 7.84206C5.79849 8.75447 5.39904 9.88129 5.39746 11.0422C5.39744 11.114 5.42611 11.183 5.47736 11.2344C5.5286 11.2858 5.59835 11.3156 5.67171 11.3173H14.0707C14.6719 11.0781 15.3141 10.9528 15.963 10.9482ZM10.1832 7.64014C9.42895 7.75018 8.7314 8.09623 8.19484 8.62653C8.11678 8.7034 8.01075 8.74684 7.90002 8.74731C7.82226 8.74376 7.74706 8.71903 7.68288 8.67592C7.6187 8.63281 7.56808 8.57302 7.53673 8.50329C7.50538 8.43356 7.49454 8.35664 7.50542 8.28121C7.51631 8.20577 7.54849 8.13481 7.59834 8.0763C8.26324 7.41581 9.12955 6.98482 10.0666 6.84834C10.1764 6.83483 10.2872 6.86372 10.3755 6.92887C10.4638 6.99402 10.5227 7.0903 10.5397 7.19727C10.5479 7.30141 10.5158 7.40477 10.4498 7.48682C10.3837 7.56887 10.2886 7.6236 10.1832 7.64014ZM4.56092 12.4312C4.41362 12.4312 4.27237 12.4885 4.16822 12.5904C4.06406 12.6924 4.00555 12.8306 4.00555 12.9748C3.99347 13.0429 4.0012 13.1131 4.02787 13.1771C4.05454 13.2412 4.09908 13.2966 4.15639 13.3371C5.42961 14.2201 6.96447 14.6681 8.52387 14.6121H10.9579C11.2 13.7889 11.6505 13.0388 12.2674 12.4312H4.56092ZM14.1235 12.3361C14.7481 12.0462 15.4373 11.9151 16.1274 11.9548C16.91 11.9998 17.6632 12.2627 18.2982 12.7126C18.9332 13.1624 19.4237 13.7805 19.7118 14.494C20 15.2075 20.0739 15.9868 19.9247 16.74C19.7756 17.4932 19.4096 18.189 18.87 18.7455C18.3941 19.2362 17.7995 19.6017 17.1412 19.8081C16.4829 20.0145 15.782 20.0552 15.1034 19.9265C14.4247 19.7978 13.7901 19.5038 13.2583 19.0716C12.7264 18.6394 12.3144 18.0831 12.0603 17.4539C11.8062 16.8247 11.7182 16.143 11.8044 15.4717C11.8906 14.8005 12.1483 14.1613 12.5537 13.6132C12.959 13.0652 13.4989 12.626 14.1235 12.3361ZM16.3743 17.5779L18.3626 14.9811L18.3557 15.0146C18.4098 14.9441 18.4491 14.8639 18.4714 14.7785C18.4938 14.6932 18.4987 14.6044 18.486 14.5171C18.4732 14.4299 18.4431 14.346 18.3972 14.2701C18.3513 14.1943 18.2906 14.1281 18.2186 14.0752C18.1466 14.0223 18.0646 13.9839 17.9774 13.962C17.8902 13.9401 17.7994 13.9353 17.7103 13.9477C17.5303 13.9729 17.3678 14.067 17.2587 14.2094L15.387 16.6519L14.4956 15.7863C14.4342 15.716 14.3585 15.659 14.2735 15.6187C14.1884 15.5784 14.0957 15.5558 14.0013 15.5522C13.9069 15.5487 13.8127 15.5642 13.7248 15.598C13.6368 15.6317 13.5569 15.6829 13.49 15.7483C13.4232 15.8137 13.3709 15.8919 13.3365 15.978C13.302 16.0641 13.2861 16.1562 13.2897 16.2487C13.2934 16.3411 13.3165 16.4317 13.3577 16.515C13.3988 16.5982 13.4571 16.6723 13.5289 16.7324L14.5573 17.6987C14.6786 17.8194 14.8251 17.913 14.9868 17.9731C15.1485 18.0332 15.3216 18.0584 15.4942 18.0469C15.6667 18.0354 15.8347 17.9876 15.9866 17.9066C16.1385 17.8257 16.2708 17.7135 16.3743 17.5779Z" fill="#161616"/>
</svg>
