<svg width="24" height="24" viewBox="0 0 24 24" fill="none" xmlns="http://www.w3.org/2000/svg">
<path fill-rule="evenodd" clip-rule="evenodd" d="M16.9537 10.6853C16.929 9.25151 16.4192 7.8662 15.5043 6.74613C14.5893 5.62607 13.3208 4.83446 11.8972 4.49518C11.8729 4.49153 11.8499 4.48193 11.8304 4.46727C11.811 4.4526 11.7956 4.43335 11.7857 4.41131C11.7508 4.3392 11.7738 4.28083 11.8095 4.19036C11.8526 4.08087 11.9143 3.92438 11.9143 3.63964C11.929 3.42903 11.8992 3.21772 11.8267 3.0189C11.7541 2.82009 11.6405 2.63806 11.4928 2.48417C11.3452 2.33029 11.1667 2.20787 10.9685 2.12457C10.7703 2.04127 10.5567 1.99887 10.341 2.00002C10.1253 2.00118 9.91215 2.04587 9.7149 2.13129C9.51765 2.21672 9.34053 2.34104 9.1946 2.4965C9.04867 2.65195 8.93707 2.8352 8.86679 3.03478C8.7965 3.23435 8.76903 3.44598 8.7861 3.65641C8.7861 3.93693 8.85051 4.0939 8.89598 4.20475C8.93345 4.29608 8.95807 4.35609 8.92323 4.42808C8.91041 4.44956 8.8931 4.46814 8.87242 4.4826C8.85173 4.49706 8.82816 4.50706 8.80324 4.51196C7.36267 4.8555 6.08148 5.66206 5.16474 6.80258C4.24799 7.94309 3.74868 9.35162 3.74671 10.8027C3.74668 10.8925 3.78252 10.9787 3.84658 11.043C3.91063 11.1072 3.99782 11.1444 4.08952 11.1466H14.5883C15.3398 10.8476 16.1425 10.691 16.9537 10.6853ZM9.72885 6.55017C8.78607 6.68773 7.91413 7.12029 7.24343 7.78316C7.14586 7.87925 7.01332 7.93355 6.8749 7.93414C6.77771 7.92969 6.6837 7.89879 6.60348 7.8449C6.52325 7.79101 6.45999 7.71628 6.4208 7.62911C6.38161 7.54195 6.36805 7.44581 6.38166 7.35151C6.39526 7.25722 6.43549 7.16851 6.49781 7.09537C7.32893 6.26976 8.41182 5.73103 9.58315 5.56042C9.72033 5.54354 9.85883 5.57965 9.96924 5.66109C10.0797 5.74253 10.1533 5.86288 10.1745 5.99658C10.1848 6.12676 10.1447 6.25597 10.0621 6.35853C9.97954 6.46109 9.86058 6.5295 9.72885 6.55017ZM2.70114 12.539C2.51703 12.539 2.34046 12.6106 2.21027 12.738C2.08008 12.8654 2.00694 13.0382 2.00694 13.2184C1.99183 13.3036 2.0015 13.3913 2.03484 13.4714C2.06818 13.5514 2.12384 13.6207 2.19549 13.6714C3.78701 14.775 5.70559 15.3351 7.65483 15.265H10.6973C11.0001 14.2361 11.5631 13.2985 12.3343 12.539H2.70114ZM14.6545 12.4201C15.4353 12.0578 16.2967 11.8939 17.1594 11.9435C18.1376 11.9998 19.079 12.3284 19.8728 12.8907C20.6666 13.453 21.2797 14.2256 21.6399 15.1175C22.0001 16.0094 22.0924 16.9834 21.906 17.9249C21.7195 18.8665 21.2621 19.7362 20.5875 20.4318C19.9927 21.0452 19.2495 21.5021 18.4266 21.7601C17.6037 22.0181 16.7276 22.069 15.8793 21.9081C15.031 21.7472 14.2377 21.3797 13.5729 20.8395C12.9081 20.2993 12.3931 19.6038 12.0754 18.8174C11.7578 18.0309 11.6478 17.1787 11.7556 16.3397C11.8634 15.5006 12.1855 14.7016 12.6921 14.0166C13.1988 13.3315 13.8737 12.7825 14.6545 12.4201ZM17.4679 18.9724L19.9533 15.7263L19.9447 15.7683C20.0123 15.6802 20.0614 15.5799 20.0893 15.4732C20.1173 15.3665 20.1235 15.2554 20.1075 15.1464C20.0916 15.0374 20.0539 14.9324 19.9966 14.8377C19.9392 14.7429 19.8634 14.6601 19.7733 14.594C19.6833 14.5279 19.5808 14.4798 19.4718 14.4525C19.3628 14.4251 19.2493 14.4191 19.1379 14.4347C18.9129 14.4661 18.7099 14.5838 18.5735 14.7618L16.2338 17.8149L15.1196 16.7329C15.0428 16.6451 14.9482 16.5737 14.8419 16.5234C14.7356 16.4731 14.6198 16.4448 14.5017 16.4403C14.3837 16.4358 14.266 16.4553 14.156 16.4975C14.046 16.5396 13.9462 16.6036 13.8626 16.6853C13.7791 16.7671 13.7138 16.8648 13.6707 16.9725C13.6276 17.0801 13.6077 17.1953 13.6123 17.3108C13.6168 17.4263 13.6457 17.5397 13.6972 17.6437C13.7486 17.7478 13.8215 17.8403 13.9112 17.9155L15.1967 19.1234C15.3483 19.2742 15.5315 19.3912 15.7336 19.4664C15.9357 19.5415 16.1521 19.573 16.3678 19.5586C16.5835 19.5443 16.7935 19.4845 16.9834 19.3833C17.1733 19.2821 17.3385 19.1419 17.4679 18.9724Z" fill="#161616"/>
</svg>
