<svg width="24" height="24" viewBox="0 0 24 24" fill="none" xmlns="http://www.w3.org/2000/svg">
  <path fill-rule="evenodd" clip-rule="evenodd" d="M20.3334 2H6.58342C6.14139 2 5.71746 2.17559 5.4049 2.48816C5.09234 2.80072 4.91675 3.22464 4.91675 3.66667V17.4167C4.91675 17.8587 5.09234 18.2826 5.4049 18.5952C5.71746 18.9077 6.14139 19.0833 6.58342 19.0833H20.3334C20.7754 19.0833 21.1994 18.9077 21.5119 18.5952C21.8245 18.2826 22.0001 17.8587 22.0001 17.4167V3.66667C22.0001 3.22464 21.8245 2.80072 21.5119 2.48816C21.1994 2.17559 20.7754 2 20.3334 2ZM20.2167 17.2917C20.1354 17.3686 20.0287 17.413 19.9167 17.4167H7.00008C6.88957 17.4167 6.78359 17.3728 6.70545 17.2946C6.62731 17.2165 6.58342 17.1105 6.58342 17V4.08333C6.58342 3.97283 6.62731 3.86685 6.70545 3.78871C6.78359 3.71057 6.88957 3.66667 7.00008 3.66667H19.9167C20.0273 3.66667 20.1332 3.71057 20.2114 3.78871C20.2895 3.86685 20.3334 3.97283 20.3334 4.08333V17C20.3341 17.1087 20.2922 17.2134 20.2167 17.2917ZM17.6251 5.75H9.29175C8.94657 5.75 8.66675 6.02982 8.66675 6.375V7.20833C8.66675 7.55351 8.94657 7.83333 9.29175 7.83333H17.6251C17.9703 7.83333 18.2501 7.55351 18.2501 7.20833V6.375C18.2501 6.02982 17.9703 5.75 17.6251 5.75ZM17.6251 9.5H9.29175C8.94657 9.5 8.66675 9.77982 8.66675 10.125V10.9583C8.66675 11.3035 8.94657 11.5833 9.29175 11.5833H17.6251C17.9703 11.5833 18.2501 11.3035 18.2501 10.9583V10.125C18.2501 9.77982 17.9703 9.5 17.6251 9.5ZM9.29175 13.25H13.4584C13.8036 13.25 14.0834 13.5298 14.0834 13.875V14.7083C14.0834 15.0535 13.8036 15.3333 13.4584 15.3333H9.29175C8.94657 15.3333 8.66675 15.0535 8.66675 14.7083V13.875C8.66675 13.5298 8.94657 13.25 9.29175 13.25ZM4.08333 20.3333H18.25C18.471 20.3333 18.683 20.4211 18.8393 20.5774C18.9955 20.7337 19.0833 20.9456 19.0833 21.1666C19.0833 21.3876 18.9955 21.5996 18.8393 21.7559C18.683 21.9122 18.471 22 18.25 22H3.66667C3.22464 22 2.80072 21.8244 2.48816 21.5118C2.17559 21.1992 2 20.7753 2 20.3333V5.74996C2 5.52895 2.0878 5.31698 2.24408 5.1607C2.40036 5.00442 2.61232 4.91663 2.83333 4.91663C3.05435 4.91663 3.26631 5.00442 3.42259 5.1607C3.57887 5.31698 3.66667 5.52895 3.66667 5.74996V19.9166C3.66667 20.0271 3.71057 20.1331 3.78871 20.2113C3.86685 20.2894 3.97283 20.3333 4.08333 20.3333Z" fill="#161616"/>
</svg>
