<svg width="24" height="24" viewBox="0 0 24 24" fill="none" xmlns="http://www.w3.org/2000/svg">
<path fill-rule="evenodd" clip-rule="evenodd" d="M17.0001 6H8.75012C8.48491 6 8.23055 6.10536 8.04302 6.29289C7.85548 6.48043 7.75012 6.73478 7.75012 7V15.25C7.75012 15.5152 7.85548 15.7696 8.04302 15.9571C8.23055 16.1447 8.48491 16.25 8.75012 16.25H17.0001C17.2654 16.25 17.5197 16.1447 17.7072 15.9571C17.8948 15.7696 18.0001 15.5152 18.0001 15.25V7C18.0001 6.73478 17.8948 6.48043 17.7072 6.29289C17.5197 6.10536 17.2654 6 17.0001 6ZM16.9301 15.175C16.8813 15.2212 16.8173 15.2478 16.7501 15.25H9.00012C8.93382 15.25 8.87023 15.2237 8.82335 15.1768C8.77646 15.1299 8.75012 15.0663 8.75012 15V7.25C8.75012 7.1837 8.77646 7.12011 8.82335 7.07323C8.87023 7.02634 8.93382 7 9.00012 7H16.7501C16.8164 7 16.88 7.02634 16.9269 7.07323C16.9738 7.12011 17.0001 7.1837 17.0001 7.25V15C17.0005 15.0653 16.9754 15.1281 16.9301 15.175ZM15.3751 8.25H10.3751C10.168 8.25 10.0001 8.41789 10.0001 8.625V9.125C10.0001 9.33211 10.168 9.5 10.3751 9.5H15.3751C15.5822 9.5 15.7501 9.33211 15.7501 9.125V8.625C15.7501 8.41789 15.5822 8.25 15.3751 8.25ZM15.3751 10.5H10.3751C10.168 10.5 10.0001 10.6679 10.0001 10.875V11.375C10.0001 11.5821 10.168 11.75 10.3751 11.75H15.3751C15.5822 11.75 15.7501 11.5821 15.7501 11.375V10.875C15.7501 10.6679 15.5822 10.5 15.3751 10.5ZM10.3751 12.75H12.8751C13.0822 12.75 13.2501 12.9179 13.2501 13.125V13.625C13.2501 13.8321 13.0822 14 12.8751 14H10.3751C10.168 14 10.0001 13.8321 10.0001 13.625V13.125C10.0001 12.9179 10.168 12.75 10.3751 12.75ZM7.25 17H15.75C15.8826 17 16.0098 17.0527 16.1036 17.1465C16.1973 17.2402 16.25 17.3674 16.25 17.5C16.25 17.6326 16.1973 17.7598 16.1036 17.8536C16.0098 17.9473 15.8826 18 15.75 18H7C6.73478 18 6.48043 17.8946 6.29289 17.7071C6.10536 17.5196 6 17.2652 6 17V8.24999C6 8.11738 6.05268 7.9902 6.14645 7.89643C6.24022 7.80266 6.36739 7.74998 6.5 7.74998C6.63261 7.74998 6.75979 7.80266 6.85356 7.89643C6.94732 7.9902 7 8.11738 7 8.24999V16.75C7 16.8163 7.02634 16.8799 7.07323 16.9268C7.12011 16.9737 7.1837 17 7.25 17Z" fill="#161616"/>
</svg>
