<svg width="24" height="24" viewBox="0 0 24 24" fill="none" xmlns="http://www.w3.org/2000/svg">
<path fill-rule="evenodd" clip-rule="evenodd" d="M18.6668 4H7.66674C7.31312 4 6.97398 4.14048 6.72393 4.39053C6.47388 4.64057 6.3334 4.97971 6.3334 5.33334V16.3334C6.3334 16.687 6.47388 17.0261 6.72393 17.2762C6.97398 17.5262 7.31312 17.6667 7.66674 17.6667H18.6668C19.0204 17.6667 19.3595 17.5262 19.6096 17.2762C19.8596 17.0261 20.0001 16.687 20.0001 16.3334V5.33334C20.0001 4.97971 19.8596 4.64057 19.6096 4.39053C19.3595 4.14048 19.0204 4 18.6668 4ZM18.5734 16.2334C18.5083 16.2949 18.423 16.3305 18.3334 16.3334H8.00007C7.91167 16.3334 7.82688 16.2982 7.76437 16.2357C7.70186 16.1732 7.66674 16.0884 7.66674 16V5.66667C7.66674 5.57826 7.70186 5.49348 7.76437 5.43097C7.82688 5.36846 7.91167 5.33334 8.00007 5.33334H18.3334C18.4218 5.33334 18.5066 5.36846 18.5691 5.43097C18.6316 5.49348 18.6668 5.57826 18.6668 5.66667V16C18.6673 16.087 18.6338 16.1707 18.5734 16.2334ZM16.5001 7.00001H9.83341C9.55727 7.00001 9.33341 7.22386 9.33341 7.50001V8.16668C9.33341 8.44282 9.55727 8.66668 9.83341 8.66668H16.5001C16.7762 8.66668 17.0001 8.44282 17.0001 8.16668V7.50001C17.0001 7.22386 16.7762 7.00001 16.5001 7.00001ZM16.5001 10H9.83341C9.55727 10 9.33341 10.2239 9.33341 10.5V11.1667C9.33341 11.4428 9.55727 11.6667 9.83341 11.6667H16.5001C16.7762 11.6667 17.0001 11.4428 17.0001 11.1667V10.5C17.0001 10.2239 16.7762 10 16.5001 10ZM9.83341 13H13.1667C13.4429 13 13.6668 13.2239 13.6668 13.5V14.1667C13.6668 14.4428 13.4429 14.6667 13.1667 14.6667H9.83341C9.55727 14.6667 9.33341 14.4428 9.33341 14.1667V13.5C9.33341 13.2239 9.55727 13 9.83341 13ZM5.66667 18.6667H17C17.1768 18.6667 17.3464 18.7369 17.4714 18.8619C17.5965 18.987 17.6667 19.1565 17.6667 19.3333C17.6667 19.5101 17.5965 19.6797 17.4714 19.8047C17.3464 19.9298 17.1768 20 17 20H5.33334C4.97971 20 4.64057 19.8595 4.39053 19.6095C4.14048 19.3594 4 19.0203 4 18.6667V6.99997C4 6.82316 4.07024 6.65359 4.19526 6.52857C4.32029 6.40354 4.48986 6.33331 4.66667 6.33331C4.84348 6.33331 5.01305 6.40354 5.13807 6.52857C5.2631 6.65359 5.33334 6.82316 5.33334 6.99997V18.3333C5.33334 18.4217 5.36846 18.5065 5.43097 18.569C5.49348 18.6315 5.57826 18.6667 5.66667 18.6667Z" fill="#161616"/>
</svg>
