<svg width="24" height="24" viewBox="0 0 24 24" fill="none" xmlns="http://www.w3.org/2000/svg">
<path fill-rule="evenodd" clip-rule="evenodd" d="M6.62495 16.4681H8.37495C8.40814 16.4682 8.44002 16.4548 8.46349 16.4308C8.48696 16.4069 8.50009 16.3743 8.49995 16.3404V15.1915C8.49995 15.0505 8.38802 14.9362 8.24995 14.9362H6.74995C6.61188 14.9362 6.49995 15.0505 6.49995 15.1915V16.3404C6.49982 16.3743 6.51295 16.4069 6.53642 16.4308C6.55989 16.4548 6.59176 16.4682 6.62495 16.4681ZM9.74995 12.383C9.61188 12.383 9.49995 12.4973 9.49995 12.6383V16.3404C9.49982 16.3743 9.51295 16.4069 9.53642 16.4308C9.55989 16.4548 9.59176 16.4682 9.62495 16.4681H11.375C11.4081 16.4682 11.44 16.4548 11.4635 16.4308C11.487 16.4069 11.5001 16.3743 11.5 16.3404V12.6383C11.5 12.4973 11.388 12.383 11.25 12.383H9.74995ZM12.75 13.4043C12.6119 13.4043 12.5 13.5186 12.5 13.6596V16.3404C12.4998 16.3743 12.5129 16.4069 12.5364 16.4308C12.5599 16.4548 12.5918 16.4682 12.625 16.4681H14.375C14.4081 16.4682 14.44 16.4548 14.4635 16.4308C14.487 16.4069 14.5001 16.3743 14.5 16.3404V13.6596C14.5 13.5186 14.388 13.4043 14.25 13.4043H12.75ZM15.75 9.82979C15.6119 9.82979 15.5 9.9441 15.5 10.0851V16.3404C15.4998 16.3743 15.5129 16.4069 15.5364 16.4308C15.5599 16.4548 15.5918 16.4682 15.625 16.4681H17.375C17.4081 16.4682 17.44 16.4548 17.4635 16.4308C17.487 16.4069 17.5001 16.3743 17.5 16.3404V10.0851C17.5 9.9441 17.388 9.82979 17.25 9.82979H15.75ZM6.5 18H17.5C17.7761 18 18 17.7714 18 17.4894C18 17.2073 17.7761 16.9787 17.5 16.9787H6.5C6.22386 16.9787 6 17.2073 6 17.4894C6 17.7714 6.22386 18 6.5 18ZM16.054 8.00375C16.088 8.00311 16.1208 8.01656 16.145 8.04102L16.573 8.47864C16.62 8.52649 16.6836 8.55331 16.75 8.55319C16.7828 8.55333 16.8152 8.54673 16.8455 8.53379C16.939 8.49432 17 8.40119 17 8.29787V6.25532C17 6.11431 16.8881 6 16.75 6H14.75C14.6487 5.99982 14.5574 6.06202 14.5186 6.15755C14.4798 6.25308 14.5013 6.36306 14.573 6.43609L15.0835 6.95745C15.1311 7.00575 15.1326 7.0839 15.087 7.13413L13.48 8.9137C13.3798 9.02327 13.2263 9.06317 13.087 9.01583L11.226 8.38264C10.6927 8.19855 10.104 8.31156 9.67248 8.68085L7.09998 10.8715C6.83474 11.0971 6.79882 11.4996 7.01973 11.7705C7.24064 12.0413 7.63474 12.078 7.89998 11.8524L10.4725 9.66281C10.5724 9.57883 10.7076 9.553 10.8305 9.59438L12.6915 10.2276C13.2976 10.4341 13.9659 10.2591 14.4 9.78026L15.967 8.04409C15.9898 8.01963 16.021 8.00517 16.054 8.00375Z" fill="#161616"/>
</svg>
