<svg width="24" height="24" viewBox="0 0 24 24" fill="none" xmlns="http://www.w3.org/2000/svg">
<path fill-rule="evenodd" clip-rule="evenodd" d="M4.83327 17.9574H7.1666C7.21086 17.9576 7.25336 17.9398 7.28465 17.9078C7.31595 17.8758 7.33345 17.8324 7.33327 17.7872V16.2553C7.33327 16.0673 7.18403 15.9149 6.99994 15.9149H4.99994C4.81584 15.9149 4.6666 16.0673 4.6666 16.2553V17.7872C4.66642 17.8324 4.68393 17.8758 4.71522 17.9078C4.74652 17.9398 4.78901 17.9576 4.83327 17.9574ZM8.99994 12.5106C8.81584 12.5106 8.6666 12.6631 8.6666 12.8511V17.7872C8.66642 17.8324 8.68393 17.8758 8.71522 17.9078C8.74652 17.9398 8.78901 17.9576 8.83327 17.9574H11.1666C11.2109 17.9576 11.2534 17.9398 11.2847 17.9078C11.3159 17.8758 11.3334 17.8324 11.3333 17.7872V12.8511C11.3333 12.6631 11.184 12.5106 10.9999 12.5106H8.99994ZM12.9999 13.8723C12.8158 13.8723 12.6666 14.0248 12.6666 14.2128V17.7872C12.6664 17.8324 12.6839 17.8758 12.7152 17.9078C12.7465 17.9398 12.789 17.9576 12.8333 17.9574H15.1666C15.2109 17.9576 15.2534 17.9398 15.2847 17.9078C15.3159 17.8758 15.3334 17.8324 15.3333 17.7872V14.2128C15.3333 14.0248 15.184 13.8723 14.9999 13.8723H12.9999ZM16.9999 9.10638C16.8158 9.10638 16.6666 9.2588 16.6666 9.44681V17.7872C16.6664 17.8324 16.6839 17.8758 16.7152 17.9078C16.7465 17.9398 16.789 17.9576 16.8333 17.9574H19.1666C19.2109 17.9576 19.2534 17.9398 19.2847 17.9078C19.3159 17.8758 19.3334 17.8324 19.3333 17.7872V9.44681C19.3333 9.2588 19.184 9.10638 18.9999 9.10638H16.9999ZM4.66667 20H19.3333C19.7015 20 20 19.6952 20 19.3191C20 18.9431 19.7015 18.6383 19.3333 18.6383H4.66667C4.29848 18.6383 4 18.9431 4 19.3191C4 19.6952 4.29848 20 4.66667 20ZM17.4053 6.67166C17.4507 6.67082 17.4944 6.68875 17.5266 6.72136L18.0973 7.30485C18.1599 7.36866 18.2448 7.40442 18.3333 7.40426C18.377 7.40444 18.4203 7.39564 18.4606 7.37838C18.5853 7.32576 18.6666 7.20159 18.6666 7.06383V4.34043C18.6666 4.15242 18.5174 4 18.3333 4H15.6666C15.5316 3.99975 15.4098 4.0827 15.3581 4.21007C15.3064 4.33744 15.3351 4.48408 15.4306 4.58145L16.1113 5.2766C16.1748 5.34101 16.1768 5.44519 16.116 5.51217L13.9733 7.88494C13.8397 8.03103 13.635 8.08422 13.4493 8.02111L10.968 7.17685C10.2569 6.9314 9.47193 7.08208 8.89664 7.57447L5.46664 10.4953C5.11299 10.7961 5.06509 11.3328 5.35964 11.694C5.65419 12.0551 6.17966 12.1041 6.53331 11.8032L9.9633 8.88375C10.0966 8.77177 10.2767 8.73734 10.4406 8.79251L12.922 9.63677C13.7301 9.91218 14.6213 9.67886 15.2 9.04034L17.2893 6.72545C17.3197 6.69284 17.3613 6.67356 17.4053 6.67166Z" fill="#161616"/>
</svg>
