<svg width="24" height="24" viewBox="0 0 24 24" fill="none" xmlns="http://www.w3.org/2000/svg">
<path fill-rule="evenodd" clip-rule="evenodd" d="M15.6957 9.95775C15.8157 9.95775 15.9131 9.86115 15.9131 9.74199V6.33118C15.9128 6.27389 15.9357 6.21887 15.9765 6.17836C16.0173 6.13785 16.0727 6.11519 16.1305 6.11542H17.4348C17.4925 6.11519 17.548 6.13785 17.5888 6.17836C17.6296 6.21887 17.6524 6.27389 17.6522 6.33118V9.74199C17.6522 9.86115 17.7495 9.95775 17.8696 9.95775H21.7826C21.9027 9.95775 22 9.86115 22 9.74199V7.41173C22 6.88131 21.674 6.40453 21.1774 6.20863C21.1131 6.18325 21.0648 6.12886 21.0476 6.0623C21.0304 5.99573 21.0463 5.92501 21.0904 5.87204C21.8843 4.88321 21.7629 3.45141 20.8138 2.60813C19.8646 1.76484 18.4175 1.803 17.5148 2.69512C17.2922 2.94213 17.1116 3.22342 16.98 3.52797C16.9441 3.60339 16.8676 3.65149 16.7835 3.65149C16.6994 3.65149 16.6229 3.60339 16.587 3.52797C16.4554 3.22342 16.2748 2.94213 16.0522 2.69512C15.1494 1.80548 13.7046 1.76812 12.7564 2.60992C11.8082 3.45172 11.6851 4.88105 12.4757 5.87031C12.5194 5.92365 12.5349 5.9945 12.5174 6.06105C12.5006 6.12766 12.4523 6.18205 12.3878 6.2069C11.8912 6.40281 11.5652 6.87958 11.5652 7.41001V9.74026C11.5652 9.85943 11.6626 9.95603 11.7826 9.95603L15.6957 9.95775ZM18.7392 3.91636C18.9985 3.66811 19.4103 3.67143 19.6656 3.92384C19.9208 4.17624 19.9257 4.58495 19.6765 4.84329C19.3081 5.06764 18.9109 5.24181 18.4957 5.36112C18.4168 5.38835 18.3292 5.36835 18.2703 5.30966C18.2114 5.25098 18.1915 5.16398 18.2192 5.08581C18.3398 4.67342 18.5162 4.27916 18.7435 3.91377L18.7392 3.91636ZM13.8818 3.91636C14.1398 3.66228 14.5559 3.66228 14.8139 3.91636C15.0411 4.28211 15.2166 4.67704 15.3357 5.09011C15.3629 5.16818 15.3428 5.25482 15.284 5.31323C15.2251 5.37164 15.1378 5.39158 15.0592 5.36457C14.6442 5.24513 14.2474 5.07097 13.8792 4.84673C13.7547 4.72248 13.6854 4.55402 13.6867 4.37881C13.688 4.2036 13.7598 4.03618 13.8861 3.91377L13.8818 3.91636ZM15.9131 11.8996C15.9131 11.7805 15.8157 11.6839 15.6957 11.6839H11.7826C11.6626 11.6839 11.5652 11.7805 11.5652 11.8996V14.2739C11.5652 14.9889 12.1492 15.5685 12.8696 15.5685H15.6957C15.8157 15.5685 15.9131 15.4719 15.9131 15.3527V11.8996ZM17.8696 11.6839C17.7495 11.6839 17.6522 11.7805 17.6522 11.8996V15.3519C17.6522 15.471 17.7495 15.5676 17.8696 15.5676H20.6956C21.416 15.5676 22 14.988 22 14.273V11.8996C22 11.7805 21.9027 11.6839 21.7826 11.6839H17.8696ZM2.86957 14.0167C2.38932 14.0167 2 14.4031 2 14.8798V21.1369C2 21.6136 2.38932 22 2.86957 22C3.34981 22 3.73913 21.6136 3.73913 21.1369V14.8798C3.73913 14.4031 3.34981 14.0167 2.86957 14.0167ZM16.3479 18.9793C16.3479 18.5026 15.9586 18.1162 15.4783 18.1162H7.54354C7.24338 18.1162 7.00006 17.8747 7.00006 17.5768C7.00006 17.2789 7.24338 17.0374 7.54354 17.0374H9.73919C10.0314 17.0375 10.3042 16.892 10.4652 16.65C10.6262 16.408 10.654 16.1019 10.5392 15.8352C10.2336 15.1245 9.52992 14.6635 8.75136 14.664H5.04354C4.80341 14.664 4.60876 14.8572 4.60876 15.0955V20.7054C4.60876 20.9437 4.80341 21.1369 5.04354 21.1369H14.4035C15.4771 21.1355 16.3469 20.2718 16.3479 19.2063V18.9793Z" fill="#161616"/>
</svg>
