<svg width="24" height="24" viewBox="0 0 24 24" fill="none" xmlns="http://www.w3.org/2000/svg">
<path fill-rule="evenodd" clip-rule="evenodd" d="M14.2173 10.7747C14.2894 10.7747 14.3478 10.7167 14.3478 10.6452V8.59871C14.3476 8.56433 14.3613 8.53132 14.3858 8.50702C14.4103 8.48271 14.4436 8.46911 14.4782 8.46925H15.2608C15.2954 8.46911 15.3287 8.48271 15.3532 8.50702C15.3777 8.53132 15.3914 8.56433 15.3912 8.59871V10.6452C15.3912 10.7167 15.4496 10.7747 15.5217 10.7747H17.8695C17.9415 10.7747 17.9999 10.7167 17.9999 10.6452V9.24704C18 8.92878 17.8044 8.64272 17.5064 8.52518C17.4678 8.50995 17.4388 8.47732 17.4285 8.43738C17.4182 8.39744 17.4277 8.35501 17.4542 8.32322C17.9305 7.72992 17.8577 6.87085 17.2882 6.36487C16.7187 5.8589 15.8504 5.8818 15.3088 6.41707C15.1753 6.56528 15.0669 6.73405 14.9879 6.91678C14.9664 6.96204 14.9205 6.99089 14.87 6.99089C14.8196 6.99089 14.7737 6.96204 14.7521 6.91678C14.6732 6.73405 14.5648 6.56528 14.4312 6.41707C13.8896 5.88329 13.0227 5.86087 12.4538 6.36595C11.8848 6.87103 11.811 7.72863 12.2853 8.32219C12.3116 8.35419 12.3209 8.3967 12.3104 8.43663C12.3003 8.4766 12.2713 8.50923 12.2326 8.52414C11.9347 8.64168 11.7391 8.92775 11.7391 9.246V10.6442C11.7391 10.7157 11.7975 10.7736 11.8695 10.7736L14.2173 10.7747ZM16.0434 7.14982C16.199 7.00087 16.4461 7.00286 16.5992 7.1543C16.7524 7.30575 16.7553 7.55097 16.6058 7.70597C16.3847 7.84058 16.1464 7.94508 15.8973 8.01667C15.85 8.03301 15.7974 8.02101 15.7621 7.9858C15.7267 7.95059 15.7148 7.89839 15.7314 7.85148C15.8038 7.60405 15.9096 7.3675 16.046 7.14826L16.0434 7.14982ZM13.1291 7.14981C13.2839 6.99737 13.5336 6.99737 13.6884 7.14981C13.8246 7.36927 13.93 7.60622 14.0014 7.85407C14.0177 7.90091 14.0057 7.95289 13.9704 7.98794C13.9351 8.02298 13.8827 8.03494 13.8355 8.01874C13.5866 7.94708 13.3484 7.84258 13.1275 7.70804C13.0528 7.63349 13.0113 7.53241 13.012 7.42728C13.0128 7.32216 13.0559 7.22171 13.1317 7.14826L13.1291 7.14981ZM14.3478 11.9398C14.3478 11.8683 14.2894 11.8103 14.2173 11.8103H11.8695C11.7975 11.8103 11.7391 11.8683 11.7391 11.9398V13.3643C11.7391 13.7933 12.0895 14.1411 12.5217 14.1411H14.2173C14.2894 14.1411 14.3478 14.0831 14.3478 14.0116V11.9398ZM15.5217 11.8103C15.4497 11.8103 15.3913 11.8683 15.3913 11.9398V14.0111C15.3913 14.0826 15.4497 14.1406 15.5217 14.1406H17.2174C17.6496 14.1406 18 13.7928 18 13.3638V11.9398C18 11.8683 17.9416 11.8103 17.8696 11.8103H15.5217ZM6.52174 13.21C6.23359 13.21 6 13.4419 6 13.7279V17.4822C6 17.7682 6.23359 18 6.52174 18C6.80989 18 7.04348 17.7682 7.04348 17.4822V13.7279C7.04348 13.4419 6.80989 13.21 6.52174 13.21ZM14.6087 16.1876C14.6087 15.9016 14.3751 15.6697 14.0869 15.6697H9.32606C9.14596 15.6697 8.99997 15.5248 8.99997 15.3461C8.99997 15.1673 9.14596 15.0224 9.32606 15.0224H10.6434C10.8188 15.0225 10.9824 14.9352 11.079 14.79C11.1757 14.6448 11.1924 14.4611 11.1234 14.3011C10.9401 13.8747 10.5179 13.5981 10.0508 13.5984H7.82606C7.68198 13.5984 7.56519 13.7143 7.56519 13.8573V17.2232C7.56519 17.3662 7.68198 17.4822 7.82606 17.4822H13.4421C14.0862 17.4813 14.6081 16.9631 14.6087 16.3238V16.1876Z" fill="#161616"/>
</svg>
