<svg width="24" height="24" viewBox="0 0 24 24" fill="none" xmlns="http://www.w3.org/2000/svg">
<path fill-rule="evenodd" clip-rule="evenodd" d="M14.9565 10.3662C15.0525 10.3662 15.1304 10.2889 15.1304 10.1936V7.46495C15.1302 7.41911 15.1485 7.3751 15.1811 7.34269C15.2138 7.31028 15.2581 7.29215 15.3043 7.29234H16.3478C16.394 7.29215 16.4383 7.31028 16.471 7.34269C16.5036 7.3751 16.5219 7.41911 16.5217 7.46495V10.1936C16.5217 10.2889 16.5996 10.3662 16.6956 10.3662H19.8261C19.9221 10.3662 20 10.2889 20 10.1936V8.32939C20 7.90505 19.7392 7.52363 19.3419 7.3669C19.2904 7.3466 19.2518 7.30309 19.2381 7.24984C19.2243 7.19658 19.237 7.14001 19.2723 7.09763C19.9074 6.30657 19.8103 5.16113 19.051 4.4865C18.2917 3.81187 17.1339 3.8424 16.4118 4.5561C16.2337 4.75371 16.0893 4.97874 15.984 5.22238C15.9552 5.28271 15.894 5.32119 15.8268 5.32119C15.7595 5.32119 15.6983 5.28271 15.6695 5.22238C15.5643 4.97874 15.4198 4.75371 15.2417 4.5561C14.5195 3.84438 13.3636 3.8145 12.6051 4.48794C11.8465 5.16137 11.7481 6.30484 12.3805 7.09625C12.4155 7.13892 12.4279 7.1956 12.4139 7.24884C12.4005 7.30213 12.3618 7.34564 12.3102 7.36552C11.9129 7.52225 11.6521 7.90366 11.6521 8.328V10.1922C11.6521 10.2875 11.73 10.3648 11.8261 10.3648L14.9565 10.3662ZM17.3913 5.53309C17.5988 5.33449 17.9282 5.33714 18.1324 5.53907C18.3366 5.74099 18.3405 6.06796 18.1412 6.27463C17.8464 6.45411 17.5287 6.59345 17.1965 6.6889C17.1334 6.71068 17.0633 6.69468 17.0162 6.64773C16.969 6.60078 16.9531 6.53118 16.9753 6.46864C17.0718 6.13874 17.2129 5.82333 17.3947 5.53102L17.3913 5.53309ZM13.5055 5.53308C13.7119 5.32982 14.0448 5.32982 14.2512 5.53308C14.4329 5.82569 14.5733 6.14163 14.6686 6.47209C14.6904 6.53455 14.6743 6.60385 14.6272 6.65058C14.5801 6.69731 14.5103 6.71326 14.4474 6.69165C14.1155 6.59611 13.798 6.45677 13.5034 6.27739C13.4038 6.17798 13.3484 6.04321 13.3494 5.90305C13.3505 5.76288 13.4079 5.62894 13.5089 5.53101L13.5055 5.53308ZM15.1304 11.9197C15.1304 11.8244 15.0525 11.7471 14.9565 11.7471H11.8261C11.73 11.7471 11.6521 11.8244 11.6521 11.9197V13.8191C11.6521 14.3911 12.1193 14.8548 12.6956 14.8548H14.9565C15.0525 14.8548 15.1304 14.7775 15.1304 14.6822V11.9197ZM16.6956 11.7471C16.5995 11.7471 16.5217 11.8244 16.5217 11.9197V14.6815C16.5217 14.7768 16.5995 14.8541 16.6956 14.8541H18.9565C19.5328 14.8541 19.9999 14.3904 19.9999 13.8184V11.9197C19.9999 11.8244 19.9221 11.7471 19.826 11.7471H16.6956ZM4.69565 13.6134C4.31145 13.6134 4 13.9225 4 14.3038V19.3096C4 19.6909 4.31145 20 4.69565 20C5.07985 20 5.3913 19.6909 5.3913 19.3096V14.3038C5.3913 13.9225 5.07985 13.6134 4.69565 13.6134ZM15.4782 17.5834C15.4782 17.2021 15.1668 16.893 14.7826 16.893H8.43474C8.19462 16.893 7.99996 16.6998 7.99996 16.4615C7.99996 16.2231 8.19462 16.0299 8.43474 16.0299H10.1913C10.425 16.03 10.6432 15.9136 10.7721 15.72C10.9009 15.5264 10.9231 15.2815 10.8313 15.0681C10.5868 14.4996 10.0238 14.1308 9.401 14.1312H6.43474C6.24264 14.1312 6.08691 14.2858 6.08691 14.4764V18.9643C6.08691 19.155 6.24264 19.3095 6.43474 19.3095H13.9227C14.7816 19.3084 15.4775 18.6175 15.4782 17.765V17.5834Z" fill="#161616"/>
</svg>
