<svg width="24" height="24" viewBox="0 0 24 24" fill="none" xmlns="http://www.w3.org/2000/svg">
<path fill-rule="evenodd" clip-rule="evenodd" d="M13.7819 7.75C13.7819 8.7165 12.9841 9.5 12.0001 9.5C11.016 9.5 10.2182 8.7165 10.2182 7.75C10.2182 6.7835 11.016 6 12.0001 6C12.9841 6 13.7819 6.7835 13.7819 7.75ZM10.0215 11.0569C10.5463 10.5415 11.2578 10.2513 12 10.25C12.7421 10.2513 13.4536 10.5415 13.9784 11.0569C14.5032 11.5724 14.7986 12.2711 14.8 13V14.75C14.8 14.8163 14.7731 14.8799 14.7254 14.9268C14.6777 14.9737 14.6129 15 14.5454 15H13.624C13.5919 14.9999 13.561 15.0117 13.5374 15.033C13.5138 15.0543 13.4992 15.0836 13.4967 15.115L13.2727 17.77C13.2675 17.8328 13.2385 17.8914 13.1913 17.934C13.1441 17.9766 13.0823 18.0002 13.0181 18H10.9818C10.9176 18.0002 10.8558 17.9766 10.8086 17.934C10.7614 17.8914 10.7324 17.8328 10.7272 17.77L10.5032 15.115C10.5007 15.0836 10.4861 15.0543 10.4625 15.033C10.4389 15.0117 10.408 14.9999 10.376 15H9.4545C9.38699 15 9.32224 14.9737 9.27451 14.9268C9.22677 14.8799 9.19995 14.8163 9.19995 14.75V13C9.2013 12.2711 9.49673 11.5724 10.0215 11.0569Z" fill="#161616"/>
</svg>
