<svg width="24" height="24" viewBox="0 0 24 24" fill="none" xmlns="http://www.w3.org/2000/svg">
<path fill-rule="evenodd" clip-rule="evenodd" d="M14.2273 6.33333C14.2273 7.622 13.2301 8.66667 12 8.66667C10.7699 8.66667 9.77277 7.622 9.77277 6.33333C9.77277 5.04467 10.7699 4 12 4C13.2301 4 14.2273 5.04467 14.2273 6.33333ZM9.52698 10.7426C10.183 10.0553 11.0723 9.66843 12 9.66667C12.9277 9.66843 13.817 10.0553 14.473 10.7426C15.129 11.4298 15.4983 12.3614 15.5 13.3333V15.6667C15.5 15.7551 15.4665 15.8399 15.4068 15.9024C15.3471 15.9649 15.2662 16 15.1818 16H14.03C13.9899 15.9999 13.9513 16.0156 13.9218 16.044C13.8923 16.0724 13.8741 16.1115 13.8709 16.1533L13.5909 19.6933C13.5845 19.777 13.5482 19.8551 13.4892 19.912C13.4302 19.9688 13.3529 20.0003 13.2727 20H10.7273C10.6471 20.0003 10.5698 19.9688 10.5108 19.912C10.4518 19.8551 10.4155 19.777 10.4091 19.6933L10.1291 16.1533C10.1259 16.1115 10.1077 16.0724 10.0782 16.044C10.0487 16.0156 10.0101 15.9999 9.97 16H8.81818C8.73379 16 8.65286 15.9649 8.59319 15.9024C8.53352 15.8399 8.5 15.7551 8.5 15.6667V13.3333C8.50168 12.3614 8.87097 11.4298 9.52698 10.7426Z" fill="#161616"/>
</svg>
