<svg width="24" height="24" viewBox="0 0 24 24" fill="none" xmlns="http://www.w3.org/2000/svg">
<path fill-rule="evenodd" clip-rule="evenodd" d="M22.6891 9.14275C22.0426 8.47423 21.6672 7.58629 21.6364 6.65308V5.125C21.6364 4.03098 21.2054 2.98177 20.4382 2.20818C19.671 1.4346 18.6304 1 17.5455 1C16.4605 1 15.4199 1.4346 14.6527 2.20818C13.8855 2.98177 13.4545 4.03098 13.4545 5.125V6.65308C13.424 7.58607 13.0485 8.47379 12.4018 9.14183L12.1818 9.43333C12.1312 9.50143 12.1003 9.5824 12.0927 9.66717C12.0852 9.75195 12.1011 9.83717 12.1389 9.91331C12.1766 9.98944 12.2347 10.0535 12.3065 10.0982C12.3783 10.143 12.461 10.1667 12.5455 10.1667H22.5455C22.6299 10.1667 22.7126 10.143 22.7844 10.0982C22.8562 10.0535 22.9143 9.98944 22.952 9.91331C22.9898 9.83717 23.0057 9.75195 22.9982 9.66717C22.9906 9.5824 22.9597 9.50143 22.9091 9.43333L22.6891 9.14275ZM13 11.7708V17.9583C13 18.2015 12.9042 18.4346 12.7337 18.6065C12.5632 18.7784 12.332 18.875 12.0909 18.875H5.72727C5.48617 18.875 5.25494 18.7784 5.08445 18.6065C4.91396 18.4346 4.81818 18.2015 4.81818 17.9583V7.875C4.81818 7.63189 4.91396 7.39873 5.08445 7.22682C5.25494 7.05492 5.48617 6.95834 5.72727 6.95834H11.85C11.9089 6.95957 11.9659 6.9372 12.0085 6.89614C12.0511 6.85507 12.0758 6.79866 12.0773 6.73925C12.0822 6.50256 12.0871 6.11158 12.0919 5.73209V5.73203C12.096 5.41196 12.0999 5.10008 12.1036 4.89584C12.1041 4.86561 12.0986 4.83558 12.0873 4.80756C12.0761 4.77953 12.0594 4.75407 12.0382 4.73269C12.017 4.71131 11.9917 4.69445 11.9639 4.68311C11.9361 4.67176 11.9063 4.66618 11.8764 4.66667H5.27273C4.66996 4.66667 4.09189 4.90811 3.66567 5.33788C3.23945 5.76766 3 6.35055 3 6.95834V20.7083C3 21.0093 3.05879 21.3073 3.173 21.5853C3.28722 21.8634 3.45462 22.116 3.66567 22.3288C3.87671 22.5416 4.12725 22.7104 4.40299 22.8256C4.67873 22.9407 4.97427 23 5.27273 23H12.5455C12.8439 23 13.1394 22.9407 13.4152 22.8256C13.6909 22.7104 13.9415 22.5416 14.1525 22.3288C14.3636 22.116 14.531 21.8634 14.6452 21.5853C14.7594 21.3073 14.8182 21.0093 14.8182 20.7083V11.7708C14.8182 11.7101 14.7942 11.6518 14.7516 11.6088C14.709 11.5658 14.6512 11.5417 14.5909 11.5417H13.2273C13.167 11.5417 13.1092 11.5658 13.0666 11.6088C13.0239 11.6518 13 11.7101 13 11.7708ZM16.3764 11.0833H18.7146C18.7847 11.0826 18.8539 11.0982 18.917 11.1288C18.9801 11.1595 19.0353 11.2045 19.0783 11.2602C19.1377 11.3418 19.1696 11.4404 19.1692 11.5417C19.1693 11.5803 19.1644 11.6189 19.1546 11.6562C19.0635 12.017 18.8558 12.3368 18.5644 12.5653C18.2729 12.7937 17.9142 12.9177 17.5451 12.9177C17.1759 12.9177 16.8173 12.7937 16.5258 12.5653C16.2343 12.3368 16.0266 12.017 15.9355 11.6562C15.9265 11.6187 15.9219 11.5803 15.9219 11.5417C15.921 11.4404 15.953 11.3416 16.0128 11.2602C16.0558 11.2045 16.111 11.1595 16.1741 11.1288C16.2371 11.0982 16.3064 11.0826 16.3764 11.0833Z" fill="#161616"/>
</svg>
