<svg width="24" height="24" viewBox="0 0 24 24" fill="none" xmlns="http://www.w3.org/2000/svg">
<path fill-rule="evenodd" clip-rule="evenodd" d="M18.8136 10.1817C18.4257 9.75633 18.2004 9.19127 18.1819 8.59741V7.625C18.1819 6.92881 17.9233 6.26113 17.463 5.76884C17.0027 5.27656 16.3783 5 15.7273 5C15.0763 5 14.452 5.27656 13.9917 5.76884C13.5314 6.26113 13.2728 6.92881 13.2728 7.625V8.59741C13.2544 9.19113 13.0291 9.75605 12.6411 10.1812L12.5091 10.3667C12.4787 10.41 12.4602 10.4615 12.4557 10.5155C12.4511 10.5694 12.4607 10.6237 12.4834 10.6721C12.506 10.7205 12.5408 10.7613 12.5839 10.7898C12.627 10.8182 12.6767 10.8333 12.7273 10.8333H18.7274C18.778 10.8333 18.8277 10.8182 18.8708 10.7898C18.9138 10.7613 18.9487 10.7205 18.9713 10.6721C18.994 10.6237 19.0035 10.5694 18.999 10.5155C18.9944 10.4615 18.9759 10.41 18.9456 10.3667L18.8136 10.1817ZM13.0001 11.8542V15.7917C13.0001 15.9464 12.9426 16.0948 12.8403 16.2042C12.738 16.3136 12.5993 16.375 12.4546 16.375H8.63638C8.49171 16.375 8.35297 16.3136 8.25068 16.2042C8.14839 16.0948 8.09092 15.9464 8.09092 15.7917V9.37502C8.09092 9.22031 8.14839 9.07194 8.25068 8.96254C8.35297 8.85315 8.49171 8.79169 8.63638 8.79169H12.3101C12.3454 8.79247 12.3796 8.77824 12.4052 8.75211C12.4307 8.72598 12.4456 8.69008 12.4464 8.65227C12.4494 8.50164 12.4523 8.25279 12.4552 8.01128C12.4576 7.80761 12.46 7.60916 12.4622 7.47919C12.4625 7.45995 12.4592 7.44085 12.4525 7.42301C12.4457 7.40518 12.4357 7.38897 12.423 7.37537C12.4102 7.36176 12.3951 7.35103 12.3784 7.34382C12.3617 7.3366 12.3439 7.33304 12.3259 7.33336H8.36365C8.00199 7.33336 7.65514 7.487 7.3994 7.76049C7.14367 8.03398 7 8.40492 7 8.79169V17.5417C7 17.7332 7.03527 17.9228 7.1038 18.0998C7.17233 18.2767 7.27278 18.4375 7.3994 18.5729C7.52603 18.7083 7.67636 18.8157 7.8418 18.889C8.00725 18.9623 8.18457 19 8.36365 19H12.7273C12.9064 19 13.0837 18.9623 13.2492 18.889C13.4146 18.8157 13.5649 18.7083 13.6916 18.5729C13.8182 18.4375 13.9186 18.2767 13.9872 18.0998C14.0557 17.9228 14.091 17.7332 14.091 17.5417V11.8542C14.091 11.8155 14.0766 11.7784 14.051 11.7511C14.0255 11.7237 13.9908 11.7084 13.9546 11.7084H13.1364C13.1003 11.7084 13.0656 11.7237 13.04 11.7511C13.0144 11.7784 13.0001 11.8155 13.0001 11.8542ZM15.0259 11.4167H16.4288C16.4709 11.4162 16.5124 11.4261 16.5503 11.4456C16.5881 11.4652 16.6212 11.4938 16.647 11.5292C16.6827 11.5811 16.7018 11.6439 16.7016 11.7083C16.7017 11.7329 16.6987 11.7575 16.6928 11.7812C16.6382 12.0108 16.5136 12.2143 16.3387 12.3597C16.1638 12.5051 15.9486 12.584 15.7271 12.584C15.5056 12.584 15.2904 12.5051 15.1155 12.3597C14.9406 12.2143 14.816 12.0108 14.7614 11.7812C14.7559 11.7574 14.7532 11.7329 14.7532 11.7083C14.7527 11.6439 14.7718 11.581 14.8077 11.5292C14.8335 11.4938 14.8666 11.4652 14.9045 11.4456C14.9423 11.4261 14.9839 11.4162 15.0259 11.4167Z" fill="#161616"/>
</svg>
