<svg width="24" height="24" viewBox="0 0 24 24" fill="none" xmlns="http://www.w3.org/2000/svg">
<path fill-rule="evenodd" clip-rule="evenodd" d="M20.7512 9.66225C20.234 9.11528 19.9337 8.38878 19.909 7.62525V6.375C19.909 5.47989 19.5642 4.62145 18.9505 3.98851C18.3367 3.35558 17.5043 3 16.6363 3C15.7683 3 14.9359 3.35558 14.3221 3.98851C13.7084 4.62145 13.3636 5.47989 13.3636 6.375V7.62525C13.3391 8.3886 13.0387 9.11492 12.5214 9.6615L12.3454 9.9C12.3049 9.95571 12.2802 10.022 12.2741 10.0913C12.2681 10.1607 12.2808 10.2304 12.3111 10.2927C12.3413 10.355 12.3877 10.4074 12.4451 10.444C12.5026 10.4806 12.5688 10.5 12.6363 10.5H20.6363C20.7038 10.5 20.77 10.4806 20.8275 10.444C20.8849 10.4074 20.9313 10.355 20.9615 10.2927C20.9917 10.2304 21.0045 10.1607 20.9985 10.0913C20.9924 10.022 20.9677 9.95571 20.9272 9.9L20.7512 9.66225ZM13 11.8125V16.875C13 17.0739 12.9234 17.2647 12.787 17.4053C12.6506 17.546 12.4656 17.625 12.2727 17.625H7.18182C6.98893 17.625 6.80395 17.546 6.66756 17.4053C6.53117 17.2647 6.45455 17.0739 6.45455 16.875V8.62501C6.45455 8.4261 6.53117 8.23533 6.66756 8.09468C6.80395 7.95403 6.98893 7.87501 7.18182 7.87501H12.08C12.1271 7.87601 12.1727 7.85772 12.2068 7.82412C12.2409 7.79052 12.2607 7.74436 12.2618 7.69576C12.2658 7.50211 12.2697 7.18225 12.2735 6.87178L12.2735 6.87164L12.2735 6.87131C12.2768 6.60956 12.2799 6.35454 12.2829 6.18751C12.2833 6.16277 12.2789 6.13821 12.2699 6.11528C12.2609 6.09235 12.2475 6.07152 12.2305 6.05402C12.2136 6.03653 12.1934 6.02273 12.1711 6.01345C12.1489 6.00418 12.1251 5.9996 12.1011 6.00001H6.81818C6.33597 6.00001 5.87351 6.19755 5.53253 6.54918C5.19156 6.90081 5 7.37773 5 7.87501V19.125C5 19.3712 5.04703 19.6151 5.1384 19.8425C5.22977 20.07 5.3637 20.2767 5.53253 20.4508C5.70137 20.6249 5.9018 20.7631 6.12239 20.8573C6.34299 20.9515 6.57942 21 6.81818 21H12.6364C12.8751 21 13.1116 20.9515 13.3322 20.8573C13.5527 20.7631 13.7532 20.6249 13.922 20.4508C14.0908 20.2767 14.2248 20.07 14.3161 19.8425C14.4075 19.6151 14.4545 19.3712 14.4545 19.125V11.8125C14.4545 11.7628 14.4354 11.7151 14.4013 11.6799C14.3672 11.6448 14.321 11.625 14.2727 11.625H13.1818C13.1336 11.625 13.0874 11.6448 13.0533 11.6799C13.0192 11.7151 13 11.7628 13 11.8125ZM15.7011 11.25H17.5716C17.6276 11.2494 17.683 11.2621 17.7335 11.2872C17.784 11.3123 17.8281 11.3491 17.8625 11.3948C17.9101 11.4615 17.9356 11.5422 17.9352 11.625C17.9354 11.6566 17.9314 11.6882 17.9236 11.7188C17.8507 12.0139 17.6846 12.2756 17.4514 12.4625C17.2182 12.6494 16.9313 12.7509 16.636 12.7509C16.3406 12.7509 16.0537 12.6494 15.8205 12.4625C15.5874 12.2756 15.4212 12.0139 15.3483 11.7188C15.3411 11.6881 15.3374 11.6566 15.3374 11.625C15.3367 11.5421 15.3623 11.4613 15.4101 11.3948C15.4445 11.3491 15.4887 11.3123 15.5392 11.2872C15.5896 11.2621 15.645 11.2494 15.7011 11.25Z" fill="#161616"/>
</svg>
