<svg width="24" height="24" viewBox="0 0 24 24" fill="none" xmlns="http://www.w3.org/2000/svg">
<path fill-rule="evenodd" clip-rule="evenodd" d="M10.9988 4.66709C10.9988 4.29867 11.2973 4 11.6656 4C16.2663 4.00551 19.9945 7.73561 20 12.3386C20 12.707 19.7015 13.0057 19.3332 13.0057C18.965 13.0057 18.6665 12.707 18.6665 12.3386C18.6621 8.472 15.5302 5.33859 11.6656 5.33418C11.2973 5.33418 10.9988 5.03551 10.9988 4.66709ZM13.0871 14.7768C13.738 14.1258 14.7932 14.1258 15.4441 14.7768L16.8576 16.1917C17.5083 16.843 17.5083 17.8986 16.8576 18.5499L16.0808 19.3264C15.2919 20.0984 14.0738 20.2208 13.1471 19.6212C9.67097 17.3125 6.69168 14.3313 4.38469 10.853C3.77685 9.92798 3.8998 8.7034 4.67939 7.91782L5.45549 7.14066C6.10641 6.48961 7.16154 6.48961 7.81245 7.14066L9.22797 8.55622C9.87693 9.20845 9.87693 10.2628 9.22797 10.915L8.9706 11.1712C10.1421 12.569 11.4336 13.8614 12.8304 15.0337L13.0871 14.7768ZM11.6656 8.00253C14.0579 8.00548 15.9965 9.94508 15.9995 12.3386C15.9995 12.707 16.298 13.0057 16.6662 13.0057C17.0344 13.0057 17.333 12.707 17.333 12.3386C17.3293 9.20854 14.7941 6.67203 11.6656 6.66836C11.2973 6.66836 10.9988 6.96702 10.9988 7.33545C10.9988 7.70387 11.2973 8.00253 11.6656 8.00253ZM13.3325 12.3386C13.3325 11.4176 12.5862 10.6709 11.6656 10.6709C11.2973 10.6709 10.9988 10.3722 10.9988 10.0038C10.9988 9.63538 11.2973 9.33671 11.6656 9.33671C13.3219 9.33855 14.6641 10.6815 14.666 12.3386C14.666 12.707 14.3674 13.0057 13.9992 13.0057C13.631 13.0057 13.3325 12.707 13.3325 12.3386Z" fill="#161616"/>
</svg>
