<svg width="24" height="24" viewBox="0 0 24 24" fill="none" xmlns="http://www.w3.org/2000/svg">
<path fill-rule="evenodd" clip-rule="evenodd" d="M10.7486 2.83386C10.7486 2.37333 11.1217 2 11.582 2C17.3329 2.00689 21.9931 6.66951 22 12.4233C22 12.8838 21.6269 13.2571 21.1666 13.2571C20.7063 13.2571 20.3331 12.8838 20.3331 12.4233C20.3276 7.59 16.4128 3.67324 11.582 3.66772C11.1217 3.66772 10.7486 3.29439 10.7486 2.83386ZM13.3589 15.471C14.1725 14.6572 15.4915 14.6572 16.3051 15.471L18.072 17.2397C18.8854 18.0537 18.8854 19.3733 18.072 20.1874L17.101 21.158C16.1149 22.1229 14.5922 22.276 13.4339 21.5265C9.08872 18.6407 5.36459 14.9141 2.48086 10.5663C1.72106 9.40997 1.87475 7.87925 2.84924 6.89727L3.81936 5.92582C4.63301 5.11201 5.95192 5.11201 6.76557 5.92582L8.53496 7.69527C9.34616 8.51056 9.34616 9.82852 8.53496 10.6438L8.21325 10.964C9.67756 12.7112 11.292 14.3267 13.038 15.7921L13.3589 15.471ZM11.582 7.00317C14.5724 7.00684 16.9957 9.43135 16.9993 12.4233C16.9993 12.8838 17.3725 13.2571 17.8328 13.2571C18.2931 13.2571 18.6662 12.8838 18.6662 12.4233C18.6616 8.51068 15.4926 5.34004 11.582 5.33545C11.1217 5.33545 10.7485 5.70878 10.7485 6.16931C10.7485 6.62984 11.1217 7.00317 11.582 7.00317ZM13.6656 12.4233C13.6656 11.2719 12.7327 10.3386 11.582 10.3386C11.1217 10.3386 10.7485 9.96528 10.7485 9.50475C10.7485 9.04422 11.1217 8.67089 11.582 8.67089C13.6524 8.67319 15.3302 10.3518 15.3324 12.4233C15.3324 12.8838 14.9593 13.2571 14.499 13.2571C14.0387 13.2571 13.6656 12.8838 13.6656 12.4233Z" fill="#161616"/>
</svg>
