<svg width="24" height="24" viewBox="0 0 24 24" fill="none" xmlns="http://www.w3.org/2000/svg">
<path fill-rule="evenodd" clip-rule="evenodd" d="M11.2491 6.50032C11.2491 6.224 11.473 6 11.7492 6C15.1997 6.00414 17.9958 8.80171 18 12.254C18 12.5303 17.7761 12.7543 17.4999 12.7543C17.2237 12.7543 16.9999 12.5303 16.9999 12.254C16.9965 9.354 14.6477 7.00394 11.7492 7.00063C11.473 7.00063 11.2491 6.77663 11.2491 6.50032ZM12.8153 14.0826C13.3035 13.5943 14.0949 13.5943 14.5831 14.0826L15.6432 15.1438C16.1312 15.6322 16.1312 16.424 15.6432 16.9124L15.0606 17.4948C14.4689 18.0738 13.5553 18.1656 12.8603 17.7159C10.2532 15.9844 8.01876 13.7485 6.28852 11.1398C5.83264 10.446 5.92485 9.52755 6.50954 8.93836L7.09162 8.35549C7.5798 7.86721 8.37115 7.86721 8.85934 8.35549L9.92098 9.41716C10.4077 9.90634 10.4077 10.6971 9.92098 11.1863L9.72795 11.3784C10.6065 12.4267 11.5752 13.396 12.6228 14.2752L12.8153 14.0826ZM11.7492 9.0019C13.5434 9.00411 14.9974 10.4588 14.9996 12.254C14.9996 12.5303 15.2235 12.7543 15.4997 12.7543C15.7758 12.7543 15.9997 12.5303 15.9997 12.254C15.997 9.90641 14.0956 8.00402 11.7492 8.00127C11.473 8.00127 11.2491 8.22527 11.2491 8.50158C11.2491 8.7779 11.473 9.0019 11.7492 9.0019ZM12.9993 12.254C12.9993 11.5632 12.4396 11.0032 11.7492 11.0032C11.473 11.0032 11.2491 10.7792 11.2491 10.5029C11.2491 10.2265 11.473 10.0025 11.7492 10.0025C12.9914 10.0039 13.9981 11.0111 13.9995 12.254C13.9995 12.5303 13.7756 12.7543 13.4994 12.7543C13.2232 12.7543 12.9993 12.5303 12.9993 12.254Z" fill="#161616"/>
</svg>
