<svg width="24" height="24" viewBox="0 0 24 24" fill="none" xmlns="http://www.w3.org/2000/svg">
<path fill-rule="evenodd" clip-rule="evenodd" d="M19.4128 6.21133C19.4124 7.43225 18.4588 8.4217 17.2828 8.42133C16.1074 8.41949 15.1552 7.43031 15.1541 6.21C15.1545 4.98908 16.1081 3.99963 17.2841 4C18.4601 4.00037 19.4131 4.99042 19.4128 6.21133ZM18.064 5.87463C17.933 5.54674 17.6247 5.33308 17.2827 5.33335C16.8167 5.33408 16.439 5.72615 16.4383 6.21002C16.4381 6.56499 16.6439 6.88514 16.9597 7.0211C17.2755 7.15707 17.6392 7.08205 17.8809 6.83105C18.1227 6.58005 18.195 6.20253 18.064 5.87463ZM4.16227 5.36437C4.49202 4.53824 5.26869 3.99973 6.13004 4C7.3051 4.00147 8.25732 4.99006 8.25873 6.21C8.25899 7.10425 7.74029 7.91059 6.94456 8.25293C6.14882 8.59527 5.2328 8.40617 4.62373 7.77384C4.01466 7.14151 3.83253 6.1905 4.16227 5.36437ZM5.28438 6.21135C5.28473 6.69589 5.66336 7.08838 6.13007 7.08802C6.59649 7.08691 6.97413 6.69425 6.97449 6.21002C6.97413 5.72548 6.5955 5.33298 6.12879 5.33335C5.66208 5.33372 5.28402 5.72681 5.28438 6.21135ZM9.5541 17.7891C9.55422 16.5683 10.5075 15.5787 11.6834 15.5787C12.859 15.5805 13.8114 16.5696 13.8128 17.79C13.8124 19.0108 12.8589 20.0002 11.683 20C10.5071 19.9997 9.55398 19.0099 9.5541 17.7891ZM10.9026 18.1249C11.0333 18.4528 11.3415 18.6667 11.6834 18.6667C12.1497 18.6663 12.5277 18.2741 12.5284 17.79C12.5287 17.4351 12.323 17.115 12.0072 16.979C11.6914 16.843 11.3279 16.9179 11.086 17.1687C10.8442 17.4196 10.7718 17.797 10.9026 18.1249ZM11.6833 4C10.822 4 10.0455 4.53868 9.71599 5.36483C9.38645 6.19099 9.56875 7.14188 10.1779 7.77408C10.787 8.40627 11.703 8.59524 12.4986 8.25286C13.2943 7.91048 13.8129 7.10419 13.8126 6.21C13.8112 4.9898 12.8586 4.0011 11.6833 4ZM11.6831 7.08802C11.2165 7.08802 10.8382 6.69536 10.838 6.2109C10.8379 5.72645 11.216 5.3336 11.6827 5.33335C12.1493 5.3331 12.5278 5.72557 12.5281 6.21002C12.5274 6.69436 12.1496 7.08691 11.6831 7.08802ZM6.13006 9.78999C4.95442 9.78999 4.00137 10.7794 4.00137 12C4.00137 13.2205 4.95442 14.21 6.13006 14.21C7.30571 14.21 8.25876 13.2205 8.25876 12C8.25734 10.78 7.30512 9.79146 6.13006 9.78999ZM6.13006 12.8767C5.6637 12.8767 5.28564 12.4842 5.28564 12C5.28564 11.5158 5.6637 11.1234 6.13006 11.1234C6.59642 11.1234 6.97447 11.5158 6.97447 12C6.97412 12.484 6.59627 12.8763 6.13006 12.8767ZM9.55527 12.0004C9.55504 10.78 10.5078 9.79036 11.6833 9.78999C12.8586 9.79109 13.8112 10.7798 13.8127 12C13.8127 13.2205 12.8597 14.2099 11.6842 14.21C10.5086 14.2101 9.55551 13.2209 9.55527 12.0004ZM10.8396 11.9996C10.8393 12.4837 11.217 12.8763 11.6833 12.8767C12.1496 12.8763 12.5277 12.4841 12.5284 12C12.5284 11.5159 12.1505 11.1235 11.6842 11.1234C11.2179 11.1232 10.8398 11.5155 10.8396 11.9996ZM17.2827 9.78999C16.1072 9.79036 15.1545 10.78 15.1547 12.0004C15.1549 13.2209 16.108 14.2101 17.2836 14.21C18.4592 14.2099 19.4121 13.2205 19.4121 12C19.4107 10.7798 18.458 9.79109 17.2827 9.78999ZM17.2827 12.8767C16.8165 12.8763 16.4387 12.4837 16.439 11.9996C16.4392 11.5155 16.8173 11.1232 17.2836 11.1234C17.7499 11.1235 18.1278 11.5159 18.1278 12C18.1274 12.4843 17.7492 12.8767 17.2827 12.8767Z" fill="#161616"/>
</svg>
