<svg width="24" height="24" viewBox="0 0 24 24" fill="none" xmlns="http://www.w3.org/2000/svg">
<path fill-rule="evenodd" clip-rule="evenodd" d="M17.5595 7.6585C17.5593 8.57419 16.8441 9.31627 15.9621 9.316C15.0805 9.31462 14.3663 8.57273 14.3655 7.6575C14.3658 6.74181 15.081 5.99972 15.963 6C16.845 6.00028 17.5598 6.74281 17.5595 7.6585ZM16.548 7.40599C16.4498 7.16007 16.2185 6.99983 15.962 7.00003C15.6125 7.00058 15.3293 7.29463 15.3287 7.65753C15.3285 7.92376 15.4829 8.16387 15.7198 8.26585C15.9566 8.36782 16.2294 8.31156 16.4107 8.12331C16.592 7.93506 16.6462 7.65192 16.548 7.40599ZM6.1217 7.02328C6.36901 6.40368 6.95152 5.9998 7.59753 6C8.47882 6.0011 9.19299 6.74254 9.19405 7.6575C9.19425 8.32819 8.80522 8.93294 8.20842 9.18969C7.61162 9.44645 6.9246 9.30463 6.4678 8.83038C6.011 8.35613 5.87439 7.64288 6.1217 7.02328ZM6.96332 7.65853C6.96358 8.02193 7.24756 8.31631 7.59759 8.31603C7.94741 8.3152 8.23064 8.02071 8.2309 7.65753C8.23064 7.29413 7.94666 6.99975 7.59663 7.00003C7.24659 7.00031 6.96305 7.29513 6.96332 7.65853ZM10.1656 16.3418C10.1657 15.4262 10.8807 14.684 11.7627 14.684C12.6443 14.6854 13.3586 15.4272 13.3597 16.3425C13.3594 17.2581 12.6443 18.0002 11.7623 18C10.8804 17.9998 10.1656 17.2575 10.1656 16.3418ZM11.177 16.5937C11.2751 16.8396 11.5062 17 11.7626 17C12.1123 16.9997 12.3959 16.7056 12.3964 16.3425C12.3966 16.0763 12.2423 15.8362 12.0055 15.7342C11.7687 15.6322 11.496 15.6884 11.3146 15.8766C11.1332 16.0647 11.0789 16.3478 11.177 16.5937ZM11.7625 6C11.1165 6 10.5342 6.40401 10.287 7.02363C10.0399 7.64324 10.1766 8.35641 10.6334 8.83056C11.0903 9.3047 11.7773 9.44643 12.374 9.18965C12.9707 8.93286 13.3597 8.32814 13.3595 7.6575C13.3585 6.74235 12.644 6.00083 11.7625 6ZM11.7623 8.31603C11.4124 8.31603 11.1286 8.02153 11.1285 7.6582C11.1285 7.29486 11.412 7.00021 11.762 7.00003C12.112 6.99985 12.3959 7.29419 12.3961 7.65753C12.3956 8.02079 12.1122 8.3152 11.7623 8.31603ZM7.59762 10.3425C6.71589 10.3425 6.0011 11.0846 6.0011 12C6.0011 12.9154 6.71589 13.6575 7.59762 13.6575C8.47935 13.6575 9.19414 12.9154 9.19414 12C9.19308 11.085 8.47891 10.3436 7.59762 10.3425ZM7.59767 12.6575C7.2479 12.6575 6.96436 12.3632 6.96436 12C6.96436 11.6369 7.2479 11.3425 7.59767 11.3425C7.94743 11.3425 8.23098 11.6369 8.23098 12C8.23071 12.363 7.94732 12.6573 7.59767 12.6575ZM10.1664 12.0003C10.1662 11.085 10.8807 10.3428 11.7624 10.3425C12.6439 10.3433 13.3584 11.0848 13.3594 12C13.3594 12.9153 12.6447 13.6574 11.7631 13.6575C10.8814 13.6576 10.1666 12.9157 10.1664 12.0003ZM11.1294 11.9997C11.1292 12.3628 11.4125 12.6573 11.7622 12.6575C12.112 12.6573 12.3955 12.3631 12.396 12C12.396 11.637 12.1126 11.3426 11.7629 11.3425C11.4132 11.3424 11.1296 11.6366 11.1294 11.9997ZM15.9621 10.3425C15.0805 10.3428 14.3659 11.085 14.3661 12.0003C14.3663 12.9157 15.0811 13.6576 15.9628 13.6575C16.8444 13.6574 17.5591 12.9153 17.5591 12C17.5581 11.0848 16.8436 10.3433 15.9621 10.3425ZM15.9619 12.6575C15.6122 12.6573 15.3289 12.3628 15.3291 11.9997C15.3293 11.6366 15.6129 11.3424 15.9626 11.3425C16.3123 11.3426 16.5957 11.637 16.5957 12C16.5955 12.3632 16.3118 12.6575 15.9619 12.6575Z" fill="#161616"/>
</svg>
