<svg width="24" height="24" viewBox="0 0 24 24" fill="none" xmlns="http://www.w3.org/2000/svg">
<path fill-rule="evenodd" clip-rule="evenodd" d="M18.6667 7.61144V16.3886C18.6667 16.9913 18.2495 17.4012 17.7535 17.4541C16.4699 17.5911 14.5521 17.7273 12 17.7273C9.44789 17.7273 7.53012 17.5911 6.24645 17.4541C5.75046 17.4012 5.33333 16.9913 5.33333 16.3886V7.61144C5.33333 7.00874 5.75046 6.59882 6.24645 6.54589C7.53012 6.4089 9.44789 6.27273 12 6.27273C14.5521 6.27273 16.4699 6.4089 17.7535 6.54589C18.2495 6.59882 18.6667 7.00874 18.6667 7.61144ZM4 7.61144C4 6.42468 4.86274 5.4129 6.09831 5.28105C7.43085 5.13884 9.39809 5 12 5C14.6019 5 16.5691 5.13884 17.9017 5.28105C19.1373 5.4129 20 6.42468 20 7.61144V16.3886C20 17.5753 19.1373 18.5871 17.9017 18.719C16.5691 18.8612 14.6019 19 12 19C9.39809 19 7.43085 18.8612 6.09831 18.719C4.86274 18.5871 4 17.5753 4 16.3886V7.61144ZM10.1133 9.31456V14.6855L14.6667 12L10.1133 9.31456Z" fill="#161616"/>
</svg>
