<svg width="24" height="24" viewBox="0 0 24 24" fill="none" xmlns="http://www.w3.org/2000/svg">
<path d="M12 6C10.8133 6 9.65328 6.35189 8.66658 7.01118C7.67989 7.67047 6.91085 8.60754 6.45673 9.7039C6.0026 10.8003 5.88378 12.0067 6.11529 13.1705C6.3468 14.3344 6.91825 15.4035 7.75736 16.2426C8.59648 17.0818 9.66557 17.6532 10.8295 17.8847C11.9933 18.1162 13.1997 17.9974 14.2961 17.5433C15.3925 17.0891 16.3295 16.3201 16.9888 15.3334C17.6481 14.3467 18 13.1867 18 12C18 10.4087 17.3679 8.88258 16.2426 7.75736C15.1174 6.63214 13.5913 6 12 6V6ZM14.415 12.445L10.725 14.29C10.6489 14.3284 10.5642 14.3466 10.4791 14.343C10.3939 14.3395 10.3111 14.3142 10.2384 14.2696C10.1658 14.225 10.1058 14.1626 10.064 14.0883C10.0223 14.014 10.0003 13.9302 10 13.845V10.155C9.9994 10.0693 10.0208 9.98497 10.0622 9.90997C10.1036 9.83497 10.1635 9.77186 10.2363 9.72669C10.3091 9.68152 10.3922 9.6558 10.4778 9.652C10.5634 9.6482 10.6485 9.66645 10.725 9.705L14.415 11.55C14.4982 11.5915 14.5682 11.6553 14.6171 11.7344C14.6661 11.8134 14.692 11.9045 14.692 11.9975C14.692 12.0905 14.6661 12.1816 14.6171 12.2606C14.5682 12.3397 14.4982 12.4035 14.415 12.445Z" fill="#161616"/>
</svg>
