<svg width="24" height="24" viewBox="0 0 24 24" fill="none" xmlns="http://www.w3.org/2000/svg">
<path d="M12 4C10.4178 4 8.87103 4.46919 7.55544 5.34824C6.23985 6.22729 5.21447 7.47672 4.60897 8.93853C4.00347 10.4003 3.84504 12.0089 4.15372 13.5607C4.4624 15.1126 5.22433 16.538 6.34315 17.6569C7.46197 18.7757 8.88743 19.5376 10.4393 19.8463C11.9911 20.155 13.5997 19.9965 15.0615 19.391C16.5233 18.7855 17.7727 17.7602 18.6518 16.4446C19.5308 15.129 20 13.5822 20 12C20 9.87827 19.1571 7.84344 17.6569 6.34315C16.1566 4.84285 14.1217 4 12 4V4ZM15.22 12.5933L10.3 15.0533C10.1985 15.1045 10.0856 15.1288 9.9721 15.1241C9.85855 15.1193 9.74811 15.0856 9.65126 15.0262C9.5544 14.9667 9.47435 14.8835 9.41871 14.7844C9.36307 14.6853 9.33368 14.5736 9.33334 14.46V9.54C9.33254 9.42579 9.36109 9.3133 9.41627 9.2133C9.47144 9.1133 9.55137 9.02915 9.64841 8.96892C9.74545 8.90869 9.85633 8.8744 9.97043 8.86933C10.0845 8.86427 10.198 8.8886 10.3 8.94L15.22 11.4C15.3309 11.4553 15.4243 11.5404 15.4895 11.6458C15.5547 11.7512 15.5893 11.8727 15.5893 11.9967C15.5893 12.1206 15.5547 12.2421 15.4895 12.3475C15.4243 12.4529 15.3309 12.538 15.22 12.5933Z" fill="#161616"/>
</svg>
