<svg width="24" height="24" viewBox="0 0 24 24" fill="none" xmlns="http://www.w3.org/2000/svg">
<path fill-rule="evenodd" clip-rule="evenodd" d="M17 8.86531V15.1347C17 15.5652 16.6872 15.858 16.3152 15.8958C15.3524 15.9936 13.9141 16.0909 12 16.0909C10.0859 16.0909 8.64759 15.9936 7.68484 15.8958C7.31284 15.858 7 15.5652 7 15.1347V8.86531C7 8.43481 7.31284 8.14202 7.68484 8.10421C8.64759 8.00636 10.0859 7.90909 12 7.90909C13.9141 7.90909 15.3524 8.00636 16.3152 8.10421C16.6872 8.14202 17 8.43482 17 8.86531ZM6 8.86531C6 8.01763 6.64705 7.29493 7.57373 7.20075C8.57314 7.09917 10.0486 7 12 7C13.9514 7 15.4269 7.09917 16.4263 7.20075C17.3529 7.29493 18 8.01763 18 8.86531V15.1347C18 15.9824 17.3529 16.7051 16.4263 16.7993C15.4269 16.9008 13.9514 17 12 17C10.0486 17 8.57314 16.9008 7.57373 16.7993C6.64705 16.7051 6 15.9824 6 15.1347V8.86531ZM10.585 10.0818V13.9182L14 12L10.585 10.0818Z" fill="#161616"/>
</svg>
