<svg width="24" height="24" viewBox="0 0 24 24" fill="none" xmlns="http://www.w3.org/2000/svg">
<path fill-rule="evenodd" clip-rule="evenodd" d="M2 12C2 12.6904 2.55964 13.25 3.25 13.25H10.5417C10.6567 13.25 10.75 13.3433 10.75 13.4583V20.75C10.75 21.4404 11.3096 22 12 22C12.6904 22 13.25 21.4404 13.25 20.75V13.4583C13.25 13.3433 13.3433 13.25 13.4583 13.25H20.75C21.4404 13.25 22 12.6904 22 12C22 11.3096 21.4404 10.75 20.75 10.75H13.4583C13.3433 10.75 13.25 10.6567 13.25 10.5417V3.25C13.25 2.55964 12.6904 2 12 2C11.3096 2 10.75 2.55964 10.75 3.25V10.5417C10.75 10.6567 10.6567 10.75 10.5417 10.75H3.25C2.55964 10.75 2 11.3096 2 12Z" fill="#161616"/>
</svg>
