<svg width="24" height="24" viewBox="0 0 24 24" fill="none" xmlns="http://www.w3.org/2000/svg">
<path fill-rule="evenodd" clip-rule="evenodd" d="M4 12C4 12.5523 4.44772 13 5 13H10.8333C10.9254 13 11 13.0746 11 13.1667V19C11 19.5523 11.4477 20 12 20C12.5523 20 13 19.5523 13 19V13.1667C13 13.0746 13.0746 13 13.1667 13H19C19.5523 13 20 12.5523 20 12C20 11.4477 19.5523 11 19 11H13.1667C13.0746 11 13 10.9254 13 10.8333V5C13 4.44772 12.5523 4 12 4C11.4477 4 11 4.44772 11 5V10.8333C11 10.9254 10.9254 11 10.8333 11H5C4.44772 11 4 11.4477 4 12Z" fill="#161616"/>
</svg>
