<svg width="24" height="24" viewBox="0 0 24 24" fill="none" xmlns="http://www.w3.org/2000/svg">
<path fill-rule="evenodd" clip-rule="evenodd" d="M8.66658 7.01118C9.65328 6.35189 10.8133 6 12 6C13.5913 6 15.1174 6.63214 16.2426 7.75736C17.3679 8.88258 18 10.4087 18 12C18 13.1867 17.6481 14.3467 16.9888 15.3334C16.3295 16.3201 15.3925 17.0891 14.2961 17.5433C13.1997 17.9974 11.9933 18.1162 10.8295 17.8847C9.66557 17.6532 8.59648 17.0818 7.75736 16.2426C6.91825 15.4035 6.3468 14.3344 6.11529 13.1705C5.88378 12.0067 6.0026 10.8003 6.45673 9.7039C6.91085 8.60754 7.67989 7.67047 8.66658 7.01118ZM9.22215 16.1573C10.0444 16.7068 11.0111 17 12 17C13.3261 17 14.5979 16.4732 15.5355 15.5355C16.4732 14.5979 17 13.3261 17 12C17 11.0111 16.7068 10.0444 16.1573 9.22215C15.6079 8.3999 14.827 7.75904 13.9134 7.3806C12.9998 7.00216 11.9945 6.90315 11.0245 7.09607C10.0546 7.289 9.16373 7.7652 8.46447 8.46447C7.76521 9.16373 7.289 10.0546 7.09608 11.0245C6.90315 11.9945 7.00217 12.9998 7.3806 13.9134C7.75904 14.827 8.39991 15.6079 9.22215 16.1573ZM15 12C15 13.6569 13.6569 15 12 15C10.3431 15 9 13.6569 9 12C9 10.3431 10.3431 9 12 9C13.6569 9 15 10.3431 15 12Z" fill="#161616"/>
</svg>
