<svg width="24" height="24" viewBox="0 0 24 24" fill="none" xmlns="http://www.w3.org/2000/svg">
<path fill-rule="evenodd" clip-rule="evenodd" d="M7.55544 5.34824C8.87103 4.46919 10.4178 4 12 4C14.1217 4 16.1566 4.84285 17.6569 6.34315C19.1571 7.84344 20 9.87827 20 12C20 13.5822 19.5308 15.129 18.6518 16.4446C17.7727 17.7602 16.5233 18.7855 15.0615 19.391C13.5997 19.9965 11.9911 20.155 10.4393 19.8463C8.88743 19.5376 7.46197 18.7757 6.34315 17.6569C5.22433 16.538 4.4624 15.1126 4.15372 13.5607C3.84504 12.0089 4.00347 10.4003 4.60897 8.93853C5.21447 7.47672 6.23985 6.22729 7.55544 5.34824ZM8.2962 17.5431C9.39253 18.2757 10.6815 18.6667 12 18.6667C13.7681 18.6667 15.4638 17.9643 16.714 16.714C17.9643 15.4638 18.6667 13.7681 18.6667 12C18.6667 10.6815 18.2757 9.39253 17.5431 8.2962C16.8106 7.19987 15.7694 6.34539 14.5512 5.8408C13.3331 5.33622 11.9926 5.2042 10.6994 5.46143C9.40619 5.71867 8.21831 6.3536 7.28596 7.28595C6.35361 8.2183 5.71867 9.40619 5.46143 10.6994C5.2042 11.9926 5.33622 13.333 5.84081 14.5512C6.34539 15.7694 7.19987 16.8106 8.2962 17.5431ZM16 12C16 14.2091 14.2091 16 12 16C9.79086 16 8 14.2091 8 12C8 9.79086 9.79086 8 12 8C14.2091 8 16 9.79086 16 12Z" fill="#161616"/>
</svg>
