<svg width="24" height="24" viewBox="0 0 24 24" fill="none" xmlns="http://www.w3.org/2000/svg">
<path fill-rule="evenodd" clip-rule="evenodd" d="M6.4443 3.6853C8.08879 2.58649 10.0222 2 12 2C14.6522 2 17.1957 3.05357 19.0711 4.92893C20.9464 6.8043 22 9.34784 22 12C22 13.9778 21.4135 15.9112 20.3147 17.5557C19.2159 19.2002 17.6541 20.4819 15.8268 21.2388C13.9996 21.9957 11.9889 22.1937 10.0491 21.8079C8.10929 21.422 6.32746 20.4696 4.92894 19.0711C3.53041 17.6725 2.578 15.8907 2.19215 13.9509C1.8063 12.0111 2.00433 10.0004 2.76121 8.17317C3.51809 6.3459 4.79981 4.78412 6.4443 3.6853ZM7.37025 18.9289C8.74066 19.8446 10.3518 20.3333 12 20.3333C14.2101 20.3333 16.3298 19.4554 17.8926 17.8926C19.4554 16.3298 20.3333 14.2101 20.3333 12C20.3333 10.3518 19.8446 8.74066 18.9289 7.37025C18.0132 5.99984 16.7118 4.93173 15.189 4.301C13.6663 3.67027 11.9908 3.50525 10.3743 3.82679C8.75774 4.14833 7.27289 4.94201 6.10745 6.10744C4.94201 7.27288 4.14834 8.75774 3.82679 10.3742C3.50525 11.9908 3.67028 13.6663 4.30101 15.189C4.93174 16.7117 5.99984 18.0132 7.37025 18.9289ZM17 12C17 14.7614 14.7614 17 12 17C9.23858 17 7 14.7614 7 12C7 9.23858 9.23858 7 12 7C14.7614 7 17 9.23858 17 12Z" fill="#161616"/>
</svg>
