<svg width="24" height="24" viewBox="0 0 24 24" fill="none" xmlns="http://www.w3.org/2000/svg">
<path fill-rule="evenodd" clip-rule="evenodd" d="M17.2329 6.45258C16.9244 6.17512 16.5282 6.01492 16.1136 6H16.0789H9.76532C8.79327 6 8.00527 6.788 8.00527 7.76005V15.5545C8.00382 16.1438 7.72676 16.6985 7.2565 17.0536L7.20118 17.0948C7.02802 17.2247 6.95739 17.4508 7.02584 17.6562C7.09429 17.8615 7.28645 18 7.5029 18H14.0402C14.149 18 14.2549 17.9647 14.3419 17.8994L14.3973 17.8582C15.1209 17.3129 15.5472 16.4601 15.5493 15.554V10.649C15.5493 10.5796 15.6056 10.5233 15.6751 10.5233H16.8065C17.362 10.5233 17.8123 10.073 17.8123 9.51758V7.75753C17.8119 7.26031 17.6015 6.78638 17.2329 6.45258ZM9.76529 13.1634C9.55699 13.1634 9.38813 12.9945 9.38813 12.7862C9.38813 12.5779 9.55699 12.4091 9.76529 12.4091H13.5368C13.7451 12.4091 13.914 12.5779 13.914 12.7862C13.914 12.9945 13.7451 13.1634 13.5368 13.1634H9.76529ZM12.4054 14.7977C12.4054 15.006 12.2365 15.1749 12.0282 15.1749H9.76529C9.55699 15.1749 9.38813 15.006 9.38813 14.7977C9.38813 14.5894 9.55699 14.4206 9.76529 14.4206H12.0282C12.2365 14.4206 12.4054 14.5894 12.4054 14.7977ZM9.38813 8.76327C9.38813 8.55498 9.55699 8.38612 9.76529 8.38612H11.0225C11.2308 8.38612 11.3996 8.55498 11.3996 8.76327C11.3996 8.97157 11.2308 9.14043 11.0225 9.14043H9.76529C9.66526 9.14043 9.56933 9.10069 9.4986 9.02996C9.42787 8.95923 9.38813 8.8633 9.38813 8.76327ZM13.5368 11.1519H10.771C10.5628 11.1519 10.3939 10.9831 10.3939 10.7748C10.3939 10.5665 10.5628 10.3976 10.771 10.3976H13.5368C13.7451 10.3976 13.914 10.5665 13.914 10.7748C13.914 10.9831 13.7451 11.1519 13.5368 11.1519ZM16.8055 9.26614C16.8055 9.40501 16.6929 9.51758 16.5541 9.51758H15.674C15.6046 9.51758 15.5483 9.46129 15.5483 9.39186V7.82944C15.5483 7.74546 15.5624 7.01278 16.0678 7.00323C16.4779 7.01225 16.8056 7.34734 16.8055 7.75753V9.26614Z" fill="#161616"/>
</svg>
