<svg width="24" height="24" viewBox="0 0 24 24" fill="none" xmlns="http://www.w3.org/2000/svg">
<path fill-rule="evenodd" clip-rule="evenodd" d="M20.0549 2.75431C19.5407 2.29186 18.8804 2.02487 18.1893 2H18.1314H7.60886C5.98878 2 4.67545 3.31333 4.67545 4.93341V17.9242C4.67303 18.9064 4.21127 19.8308 3.42749 20.4227L3.3353 20.4914C3.0467 20.7078 2.92898 21.0847 3.04306 21.4269C3.15714 21.7692 3.47742 22 3.83817 22H14.7337C14.915 22 15.0915 21.9412 15.2366 21.8324L15.3288 21.7637C16.5348 20.8548 17.2454 19.4335 17.2489 17.9234V9.7484C17.2489 9.63268 17.3427 9.53887 17.4584 9.53887H19.3442C20.2699 9.53887 21.0204 8.78839 21.0204 7.86263V4.92922C21.0198 4.10052 20.6691 3.31064 20.0549 2.75431ZM7.60886 13.939C7.2617 13.939 6.98027 13.6576 6.98027 13.3104C6.98027 12.9632 7.2617 12.6818 7.60886 12.6818H13.8947C14.2419 12.6818 14.5233 12.9632 14.5233 13.3104C14.5233 13.6576 14.2419 13.939 13.8947 13.939H7.60886ZM12.009 16.6629C12.009 17.01 11.7276 17.2915 11.3804 17.2915H7.60886C7.2617 17.2915 6.98027 17.01 6.98027 16.6629C6.98027 16.3157 7.2617 16.0343 7.60886 16.0343H11.3804C11.7276 16.0343 12.009 16.3157 12.009 16.6629ZM6.98027 6.60546C6.98027 6.2583 7.2617 5.97687 7.60886 5.97687H9.70416C10.0513 5.97687 10.3327 6.2583 10.3327 6.60546C10.3327 6.95262 10.0513 7.23404 9.70416 7.23404H7.60886C7.44215 7.23404 7.28227 7.16782 7.16438 7.04994C7.0465 6.93205 6.98027 6.77217 6.98027 6.60546ZM13.8947 10.5865H9.2851C8.93794 10.5865 8.65651 10.3051 8.65651 9.95793C8.65651 9.61077 8.93794 9.32934 9.2851 9.32934H13.8947C14.2419 9.32934 14.5233 9.61077 14.5233 9.95793C14.5233 10.3051 14.2419 10.5865 13.8947 10.5865ZM19.3425 7.44357C19.3425 7.67501 19.1549 7.86263 18.9235 7.86263H17.4567C17.341 7.86263 17.2472 7.76882 17.2472 7.6531V5.04907C17.2472 4.90911 17.2707 3.68797 18.113 3.67204C18.7965 3.68709 19.3427 4.24556 19.3425 4.92922V7.44357Z" fill="#161616"/>
</svg>
