<svg width="24" height="24" viewBox="0 0 24 24" fill="none" xmlns="http://www.w3.org/2000/svg">
<path fill-rule="evenodd" clip-rule="evenodd" d="M18.6439 4.60344C18.2326 4.23349 17.7043 4.0199 17.1514 4H17.1051H8.68709C7.39103 4 6.34036 5.05067 6.34036 6.34673V16.7394C6.33842 17.5251 5.96902 18.2647 5.342 18.7381L5.26824 18.7931C5.03736 18.9663 4.94319 19.2677 5.03445 19.5415C5.12571 19.8153 5.38194 20 5.67054 20H14.387C14.532 20 14.6732 19.9529 14.7893 19.8659L14.863 19.8109C15.8278 19.0838 16.3963 17.9468 16.3991 16.7387V10.1987C16.3991 10.1061 16.4742 10.0311 16.5667 10.0311H18.0753C18.816 10.0311 19.4163 9.43071 19.4163 8.69011V6.34338C19.4158 5.68041 19.1353 5.04851 18.6439 4.60344ZM8.68705 13.5512C8.40932 13.5512 8.18418 13.326 8.18418 13.0483C8.18418 12.7706 8.40932 12.5454 8.68705 12.5454H13.7158C13.9935 12.5454 14.2186 12.7706 14.2186 13.0483C14.2186 13.326 13.9935 13.5512 13.7158 13.5512H8.68705ZM12.2071 15.7303C12.2071 16.008 11.982 16.2332 11.7043 16.2332H8.68705C8.40932 16.2332 8.18418 16.008 8.18418 15.7303C8.18418 15.4526 8.40932 15.2274 8.68705 15.2274H11.7043C11.982 15.2274 12.2071 15.4526 12.2071 15.7303ZM8.18418 7.68436C8.18418 7.40664 8.40932 7.18149 8.68705 7.18149H10.3633C10.641 7.18149 10.8662 7.40664 10.8662 7.68436C10.8662 7.96209 10.641 8.18724 10.3633 8.18724H8.68705C8.55368 8.18724 8.42577 8.13425 8.33147 8.03995C8.23716 7.94564 8.18418 7.81773 8.18418 7.68436ZM13.7158 10.8692H10.0281C9.75034 10.8692 9.5252 10.6441 9.5252 10.3663C9.5252 10.0886 9.75034 9.86347 10.0281 9.86347H13.7158C13.9935 9.86347 14.2187 10.0886 14.2187 10.3663C14.2187 10.6441 13.9935 10.8692 13.7158 10.8692ZM18.074 8.35486C18.074 8.54001 17.9239 8.6901 17.7387 8.6901H16.5654C16.4728 8.6901 16.3978 8.61506 16.3978 8.52248V6.43926C16.3978 6.32728 16.4165 5.35037 17.0904 5.33763C17.6372 5.34967 18.0741 5.79645 18.074 6.34338V8.35486Z" fill="#161616"/>
</svg>
