<svg width="24" height="24" viewBox="0 0 24 24" fill="none" xmlns="http://www.w3.org/2000/svg">
<path fill-rule="evenodd" clip-rule="evenodd" d="M10.5 7.75C10.5 8.7165 9.71655 9.5 8.75005 9.5C7.78355 9.5 7.00005 8.7165 7.00005 7.75C7.00005 6.7835 7.78355 6 8.75005 6C9.71655 6 10.5 6.7835 10.5 7.75ZM14.75 7.75C14.75 8.57843 14.0784 9.25 13.25 9.25C12.4215 9.25 11.75 8.57843 11.75 7.75C11.75 6.92157 12.4215 6.25 13.25 6.25C14.0784 6.25 14.75 6.92157 14.75 7.75ZM11.9666 11.6305C11.9822 11.667 12.0143 11.694 12.0529 11.703C12.0916 11.7121 12.1323 11.7023 12.1626 11.6765C12.883 11.0586 13.8009 10.7189 14.7501 10.719H14.8501C14.9005 10.7217 14.9475 10.6938 14.9694 10.6483C14.9913 10.6029 14.9837 10.5487 14.9501 10.511C14.5004 10.0051 13.849 9.72554 13.1725 9.74825C12.496 9.77096 11.8648 10.0936 11.4501 10.6285C11.4146 10.6746 11.4157 10.7391 11.4526 10.784C11.6631 11.0404 11.8361 11.3254 11.9666 11.6305ZM7.155 15H6.25C6.11193 15 6 14.8881 6 14.75V13C6.00119 11.5965 7.05912 10.4191 8.45451 10.2683C9.84991 10.1174 11.135 11.0416 11.436 12.4125C11.4432 12.4456 11.4367 12.4802 11.418 12.5085C10.9817 13.1625 10.7492 13.9313 10.75 14.7175C10.75 14.7425 10.7512 14.7675 10.7525 14.7925C10.7537 14.8175 10.755 14.8425 10.755 14.8675C10.7571 14.9018 10.7449 14.9355 10.7213 14.9606C10.6978 14.9857 10.6649 14.9999 10.6305 15H10.345C10.2804 15.0005 10.2269 15.0502 10.2215 15.1145L10 17.771C9.98906 17.9008 9.88027 18.0005 9.75 18H7.75C7.61973 18.0005 7.51094 17.9008 7.5 17.771L7.2795 15.1145C7.27404 15.0498 7.21994 15 7.155 15ZM11.5 14.75C11.5 16.5449 12.9551 18 14.75 18C16.545 18 18 16.5449 18 14.75C18 12.9551 16.545 11.5 14.75 11.5C12.956 11.5022 11.5023 12.956 11.5 14.75ZM13.0001 14.25H14.1251C14.1942 14.25 14.2501 14.194 14.2501 14.125V13C14.2501 12.7239 14.474 12.5 14.7501 12.5C15.0263 12.5 15.2501 12.7239 15.2501 13V14.125C15.2501 14.194 15.3061 14.25 15.3751 14.25H16.5001C16.7763 14.25 17.0001 14.4739 17.0001 14.75C17.0001 15.0261 16.7763 15.25 16.5001 15.25H15.3751C15.3061 15.25 15.2501 15.306 15.2501 15.375V16.5C15.2501 16.7761 15.0263 17 14.7501 17C14.474 17 14.2501 16.7761 14.2501 16.5V15.375C14.2501 15.306 14.1942 15.25 14.1251 15.25H13.0001C12.724 15.25 12.5001 15.0261 12.5001 14.75C12.5001 14.4739 12.724 14.25 13.0001 14.25Z" fill="#161616"/>
</svg>
