<svg width="24" height="24" viewBox="0 0 24 24" fill="none" xmlns="http://www.w3.org/2000/svg">
<path fill-rule="evenodd" clip-rule="evenodd" d="M10.0001 6.33333C10.0001 7.622 8.9554 8.66667 7.66673 8.66667C6.37807 8.66667 5.3334 7.622 5.3334 6.33333C5.3334 5.04467 6.37807 4 7.66673 4C8.9554 4 10.0001 5.04467 10.0001 6.33333ZM15.6666 6.33333C15.6666 7.4379 14.7712 8.33333 13.6666 8.33333C12.562 8.33333 11.6666 7.4379 11.6666 6.33333C11.6666 5.22876 12.562 4.33333 13.6666 4.33333C14.7712 4.33333 15.6666 5.22876 15.6666 6.33333ZM11.9554 11.5073C11.9762 11.556 12.019 11.592 12.0706 11.6041C12.1222 11.6162 12.1764 11.603 12.2168 11.5687C13.1774 10.7448 14.4012 10.2919 15.6667 10.292H15.8001C15.8673 10.2956 15.9301 10.2584 15.9592 10.1978C15.9884 10.1371 15.9782 10.0649 15.9334 10.0147C15.3339 9.34011 14.4653 8.96739 13.5633 8.99767C12.6614 9.02795 11.8197 9.45809 11.2668 10.1713C11.2195 10.2328 11.2209 10.3187 11.2701 10.3787C11.5508 10.7206 11.7815 11.1006 11.9554 11.5073ZM5.54 16H4.33333C4.14924 16 4 15.8508 4 15.6667V13.3333C4.00159 11.462 5.41215 9.89208 7.27268 9.691C9.13321 9.48992 10.8466 10.7222 11.248 12.55C11.2576 12.5942 11.249 12.6403 11.224 12.678C10.6422 13.55 10.3323 14.5751 10.3333 15.6233C10.3333 15.6567 10.335 15.69 10.3367 15.7233C10.3383 15.7567 10.34 15.79 10.34 15.8233C10.3428 15.8691 10.3265 15.914 10.2951 15.9475C10.2637 15.9809 10.2199 15.9999 10.174 16H9.79333C9.70726 16.0007 9.63589 16.0669 9.62867 16.1527L9.33333 19.6947C9.31874 19.8677 9.17369 20.0006 9 20H6.33333C6.15964 20.0006 6.01459 19.8677 6 19.6947L5.706 16.1527C5.69873 16.0664 5.62659 16 5.54 16ZM11.3334 15.6667C11.3334 18.0599 13.2735 20 15.6667 20C18.06 20 20.0001 18.0599 20.0001 15.6667C20.0001 13.2734 18.06 11.3333 15.6667 11.3333C13.2747 11.3363 11.3363 13.2747 11.3334 15.6667ZM13.3334 15H14.8334C14.9254 15 15 14.9254 15 14.8333V13.3333C15 12.9651 15.2985 12.6667 15.6667 12.6667C16.0349 12.6667 16.3334 12.9651 16.3334 13.3333V14.8333C16.3334 14.9254 16.408 15 16.5 15H18C18.3682 15 18.6667 15.2985 18.6667 15.6667C18.6667 16.0349 18.3682 16.3333 18 16.3333H16.5C16.408 16.3333 16.3334 16.408 16.3334 16.5V18C16.3334 18.3682 16.0349 18.6667 15.6667 18.6667C15.2985 18.6667 15 18.3682 15 18V16.5C15 16.408 14.9254 16.3333 14.8334 16.3333H13.3334C12.9652 16.3333 12.6667 16.0349 12.6667 15.6667C12.6667 15.2985 12.9652 15 13.3334 15Z" fill="#161616"/>
</svg>
