<svg width="24" height="24" viewBox="0 0 24 24" fill="none" xmlns="http://www.w3.org/2000/svg">
<path fill-rule="evenodd" clip-rule="evenodd" d="M9.5 4.91667C9.5 6.5275 8.19416 7.83333 6.58333 7.83333C4.9725 7.83333 3.66667 6.5275 3.66667 4.91667C3.66667 3.30584 4.9725 2 6.58333 2C8.19416 2 9.5 3.30584 9.5 4.91667ZM16.5833 4.91667C16.5833 6.29738 15.464 7.41667 14.0833 7.41667C12.7026 7.41667 11.5833 6.29738 11.5833 4.91667C11.5833 3.53595 12.7026 2.41667 14.0833 2.41667C15.464 2.41667 16.5833 3.53595 16.5833 4.91667ZM11.9442 11.3842C11.9702 11.4451 12.0236 11.4899 12.0881 11.5051C12.1526 11.5202 12.2204 11.5038 12.2708 11.4608C13.4716 10.4309 15.0014 9.86486 16.5833 9.865H16.75C16.834 9.8695 16.9125 9.82305 16.9489 9.74723C16.9854 9.67142 16.9726 9.58113 16.9167 9.51833C16.1673 8.67514 15.0815 8.20923 13.954 8.24708C12.8266 8.28493 11.7745 8.82262 11.0833 9.71417C11.0243 9.79101 11.026 9.89843 11.0875 9.97333C11.4383 10.4007 11.7268 10.8757 11.9442 11.3842ZM3.925 17H2.41667C2.18655 17 2 16.8135 2 16.5833V13.6667C2.00198 11.3275 3.76519 9.3651 6.09085 9.11375C8.41651 8.8624 10.5583 10.4027 11.06 12.6875C11.072 12.7427 11.0612 12.8004 11.03 12.8475C10.3028 13.9375 9.91532 15.2188 9.91667 16.5292C9.91667 16.5708 9.91875 16.6125 9.92083 16.6542L9.92083 16.6542C9.92292 16.6959 9.925 16.7375 9.925 16.7792C9.92844 16.8364 9.90814 16.8925 9.86887 16.9343C9.8296 16.9761 9.77484 16.9999 9.7175 17H9.24167C9.13407 17.0009 9.04487 17.0836 9.03583 17.1908L8.66667 21.6183C8.64843 21.8347 8.46712 22.0008 8.25 22H4.91667C4.69955 22.0008 4.51824 21.8347 4.5 21.6183L4.1325 17.1908C4.12341 17.083 4.03324 17.0001 3.925 17ZM11.1667 16.5833C11.1667 19.5749 13.5918 22 16.5833 22C19.5749 22 22 19.5749 22 16.5833C22 13.5918 19.5749 11.1667 16.5833 11.1667C13.5933 11.1703 11.1703 13.5933 11.1667 16.5833ZM13.6667 15.75H15.5417C15.6567 15.75 15.75 15.6567 15.75 15.5417V13.6667C15.75 13.2064 16.1231 12.8333 16.5833 12.8333C17.0436 12.8333 17.4167 13.2064 17.4167 13.6667V15.5417C17.4167 15.6567 17.5099 15.75 17.625 15.75H19.5C19.9602 15.75 20.3333 16.1231 20.3333 16.5833C20.3333 17.0436 19.9602 17.4167 19.5 17.4167H17.625C17.5099 17.4167 17.4167 17.5099 17.4167 17.625V19.5C17.4167 19.9602 17.0436 20.3333 16.5833 20.3333C16.1231 20.3333 15.75 19.9602 15.75 19.5V17.625C15.75 17.5099 15.6567 17.4167 15.5417 17.4167H13.6667C13.2064 17.4167 12.8333 17.0436 12.8333 16.5833C12.8333 16.1231 13.2064 15.75 13.6667 15.75Z" fill="#161616"/>
</svg>
