<svg width="24" height="24" viewBox="0 0 24 24" fill="none" xmlns="http://www.w3.org/2000/svg">
<path fill-rule="evenodd" clip-rule="evenodd" d="M17.2174 9.26089C17.2657 9.26147 17.3133 9.24861 17.3547 9.22373C17.3962 9.19886 17.4299 9.16295 17.4522 9.12002C17.4765 9.07895 17.4893 9.0321 17.4893 8.98437C17.4893 8.93663 17.4765 8.88978 17.4522 8.84871L15.5739 6.24002C15.5263 6.1658 15.4606 6.10485 15.3831 6.06288C15.3055 6.02091 15.2186 5.99928 15.1304 6.00002H12.3913C12.3221 6.00002 12.2558 6.0275 12.2068 6.07642C12.1579 6.12535 12.1304 6.1917 12.1304 6.26089V9.00002C12.1304 9.0692 12.1579 9.13556 12.2068 9.18448C12.2558 9.2334 12.3221 9.26089 12.3913 9.26089H17.2174ZM6.26087 10.0435C6.19168 10.0435 6.12533 10.071 6.07641 10.1199C6.02748 10.1688 6 10.2352 6 10.3043V17.4783C6 17.6166 6.05497 17.7493 6.15281 17.8472C6.25066 17.945 6.38337 18 6.52174 18H17.4783C17.6166 18 17.7493 17.945 17.8472 17.8472C17.945 17.7493 18 17.6166 18 17.4783V10.3043C18 10.2352 17.9725 10.1688 17.9236 10.1199C17.8747 10.071 17.8083 10.0435 17.7391 10.0435H6.26087ZM12.2609 15.1304C12.2609 15.0612 12.2884 14.9949 12.3373 14.946C12.3862 14.897 12.4526 14.8696 12.5217 14.8696H16.1739C16.2431 14.8696 16.3095 14.897 16.3584 14.946C16.4073 14.9949 16.4348 15.0612 16.4348 15.1304V16.1739C16.4348 16.2431 16.4073 16.3095 16.3584 16.3584C16.3095 16.4073 16.2431 16.4348 16.1739 16.4348H12.5217C12.4526 16.4348 12.3862 16.4073 12.3373 16.3584C12.2884 16.3095 12.2609 16.2431 12.2609 16.1739V15.1304ZM11.2714 6.07641C11.3203 6.12533 11.3478 6.19168 11.3478 6.26087L11.3426 9C11.3426 9.06919 11.3151 9.13554 11.2662 9.18446C11.2173 9.23339 11.1509 9.26087 11.0817 9.26087H6.78261C6.74074 9.2591 6.69992 9.24727 6.66359 9.22638C6.62726 9.20549 6.5965 9.17616 6.57391 9.14087C6.54958 9.09981 6.53674 9.05295 6.53674 9.00522C6.53674 8.95748 6.54958 8.91063 6.57391 8.86957L8.45217 6.21913C8.49967 6.15241 8.5622 6.0978 8.63471 6.05974C8.70722 6.02167 8.78768 6.0012 8.86956 6H11.087C11.1561 6 11.2225 6.02748 11.2714 6.07641Z" fill="#161616"/>
</svg>
