<svg width="24" height="24" viewBox="0 0 24 24" fill="none" xmlns="http://www.w3.org/2000/svg">
<path d="M21.5652 6.97829C21.6539 6.97936 21.741 6.95578 21.817 6.91017C21.8931 6.86457 21.9549 6.79874 21.9957 6.72003C22.0403 6.64475 22.0638 6.55885 22.0638 6.47134C22.0638 6.38383 22.0403 6.29793 21.9957 6.22264L18.5522 1.44003C18.4649 1.30396 18.3445 1.19223 18.2023 1.11529C18.0602 1.03834 17.9008 0.998689 17.7391 1.00003H12.7174C12.5906 1.00003 12.4689 1.05042 12.3792 1.14011C12.2895 1.2298 12.2391 1.35145 12.2391 1.47829V6.50003C12.2391 6.62688 12.2895 6.74852 12.3792 6.83821C12.4689 6.92791 12.5906 6.97829 12.7174 6.97829H21.5652Z" fill="#161616"/>
<path fill-rule="evenodd" clip-rule="evenodd" d="M1.47826 8.41312C1.35142 8.41312 1.22977 8.4635 1.14008 8.5532C1.05039 8.64289 1 8.76453 1 8.89138V22.0436C1 22.2972 1.10078 22.5405 1.28016 22.7199C1.45954 22.8993 1.70284 23.0001 1.95652 23.0001H22.0435C22.2972 23.0001 22.5405 22.8993 22.7198 22.7199C22.8992 22.5405 23 22.2972 23 22.0436V8.89138C23 8.76453 22.9496 8.64289 22.8599 8.5532C22.7702 8.4635 22.6486 8.41312 22.5217 8.41312H1.47826ZM12.4783 17.7392C12.4783 17.6124 12.5286 17.4907 12.6183 17.401C12.708 17.3113 12.8297 17.2609 12.9565 17.2609H19.6522C19.779 17.2609 19.9007 17.3113 19.9904 17.401C20.08 17.4907 20.1304 17.6124 20.1304 17.7392V19.6522C20.1304 19.7791 20.08 19.9007 19.9904 19.9904C19.9007 20.0801 19.779 20.1305 19.6522 20.1305H12.9565C12.8297 20.1305 12.708 20.0801 12.6183 19.9904C12.5286 19.9007 12.4783 19.7791 12.4783 19.6522V17.7392Z" fill="#161616"/>
<path d="M10.6643 1.14008C10.754 1.22977 10.8044 1.35142 10.8044 1.47826L10.7948 6.5C10.7948 6.62684 10.7444 6.74849 10.6547 6.83818C10.565 6.92787 10.4434 6.97826 10.3165 6.97826H2.43481C2.35805 6.97502 2.28321 6.95333 2.21661 6.91503C2.15001 6.87674 2.09361 6.82297 2.0522 6.75826C2.00758 6.68298 1.98404 6.59708 1.98404 6.50957C1.98404 6.42205 2.00758 6.33615 2.0522 6.26087L5.49568 1.40174C5.58274 1.27942 5.69739 1.17931 5.83032 1.10952C5.96326 1.03972 6.11076 1.00221 6.26089 1H10.3261C10.453 1 10.5746 1.05039 10.6643 1.14008Z" fill="#161616"/>
</svg>
