<svg width="24" height="24" viewBox="0 0 24 24" fill="none" xmlns="http://www.w3.org/2000/svg">
<path fill-rule="evenodd" clip-rule="evenodd" d="M11.0286 4.10188C11.0938 4.16711 11.1304 4.25558 11.1304 4.34783L11.1235 8C11.1235 8.09225 11.0868 8.18072 11.0216 8.24595C10.9564 8.31118 10.8679 8.34783 10.7757 8.34783H5.04348C4.98766 8.34547 4.93323 8.32969 4.88479 8.30184C4.83636 8.27399 4.79535 8.23488 4.76522 8.18783C4.73278 8.13307 4.71566 8.0706 4.71566 8.00696C4.71566 7.94331 4.73278 7.88084 4.76522 7.82609L7.26957 4.29217C7.33289 4.20321 7.41627 4.13041 7.51295 4.07965C7.60963 4.02889 7.71691 4.0016 7.82609 4H10.7826C10.8749 4 10.9633 4.03665 11.0286 4.10188ZM18.9565 8.34785C19.021 8.34863 19.0844 8.33147 19.1397 8.29831C19.1949 8.26514 19.2399 8.21727 19.2696 8.16002C19.302 8.10527 19.3191 8.0428 19.3191 7.97915C19.3191 7.91551 19.302 7.85304 19.2696 7.79828L16.7652 4.32002C16.7017 4.22106 16.6142 4.13981 16.5108 4.08385C16.4074 4.02788 16.2915 3.99905 16.1739 4.00002H12.5217C12.4295 4.00002 12.341 4.03667 12.2758 4.1019C12.2106 4.16713 12.1739 4.2556 12.1739 4.34785V8.00002C12.1739 8.09227 12.2106 8.18074 12.2758 8.24597C12.341 8.3112 12.4295 8.34785 12.5217 8.34785H18.9565ZM4.34783 9.39128C4.25558 9.39128 4.16711 9.42792 4.10188 9.49315C4.03665 9.55838 4 9.64685 4 9.7391V19.3043C4 19.4888 4.07329 19.6658 4.20375 19.7962C4.33421 19.9267 4.51115 20 4.69565 20H19.3043C19.4888 20 19.6658 19.9267 19.7962 19.7962C19.9267 19.6658 20 19.4888 20 19.3043V9.7391C20 9.64685 19.9634 9.55838 19.8981 9.49315C19.8329 9.42792 19.7444 9.39128 19.6522 9.39128H4.34783ZM12.3478 16.1739C12.3478 16.0816 12.3845 15.9932 12.4497 15.9279C12.5149 15.8627 12.6034 15.8261 12.6957 15.8261H17.5652C17.6575 15.8261 17.7459 15.8627 17.8112 15.9279C17.8764 15.9932 17.913 16.0816 17.913 16.1739V17.5652C17.913 17.6574 17.8764 17.7459 17.8112 17.8111C17.7459 17.8764 17.6575 17.913 17.5652 17.913H12.6957C12.6034 17.913 12.5149 17.8764 12.4497 17.8111C12.3845 17.7459 12.3478 17.6574 12.3478 17.5652V16.1739Z" fill="#161616"/>
</svg>
