<svg width="24" height="24" viewBox="0 0 24 24" fill="none" xmlns="http://www.w3.org/2000/svg">
<path d="M17.4686 20C17.8278 20 18.1829 19.9238 18.5103 19.7766C18.8377 19.6293 19.1299 19.4144 19.3674 19.1461C19.605 18.8777 19.7825 18.5621 19.8881 18.2202C19.9937 17.8783 20.0251 17.5179 19.98 17.163L18.9133 8.6521C18.916 8.61629 18.916 8.58034 18.9133 8.54454L18.2382 6.57479C18.1412 6.36474 17.9848 6.18738 17.7881 6.06441C17.5915 5.94144 17.3631 5.87818 17.131 5.88235H16.4559C16.3227 5.88234 16.1949 5.93454 16.1002 6.02765C16.0054 6.12075 15.9513 6.24728 15.9495 6.37983C15.9495 6.51418 16.0026 6.64313 16.0974 6.73875C16.1922 6.83438 16.3209 6.88899 16.4559 6.89076H17.131C17.1557 6.89242 17.1795 6.90083 17.1997 6.91506C17.22 6.92929 17.2359 6.94879 17.2458 6.97143L17.6171 7.97983C17.6301 8.00354 17.6369 8.03013 17.6369 8.05714C17.6369 8.08416 17.6301 8.11074 17.6171 8.13445C17.6014 8.1575 17.5803 8.17632 17.5556 8.18923C17.5308 8.20213 17.5032 8.20872 17.4753 8.2084H15.6119C15.5666 8.20666 15.5236 8.18748 15.4922 8.15489C15.4607 8.1223 15.4431 8.07883 15.4432 8.03361V7.36134C15.4432 6.46986 15.0875 5.61489 14.4545 4.98452C13.8214 4.35414 12.9628 4 12.0675 4C11.1722 4 10.3136 4.35414 9.68057 4.98452C9.04751 5.61489 8.69186 6.46986 8.69186 7.36134V8.03361C8.6919 8.07883 8.67433 8.1223 8.64286 8.15489C8.61139 8.18748 8.56845 8.20666 8.52308 8.2084H6.59896C6.57066 8.20686 6.5431 8.19876 6.51849 8.18476C6.49388 8.17076 6.47289 8.15123 6.45718 8.12773C6.44418 8.10402 6.43737 8.07744 6.43737 8.05042C6.43737 8.0234 6.44418 7.99682 6.45718 7.97311L6.88251 6.96471C6.89408 6.9388 6.9118 6.91608 6.93415 6.89851C6.95649 6.88095 6.9828 6.86905 7.01079 6.86387H7.68592C7.75299 6.86387 7.81939 6.85061 7.88126 6.82485C7.94314 6.79909 7.99926 6.76135 8.04637 6.71382C8.09348 6.66629 8.13063 6.60991 8.15568 6.54796C8.18072 6.48601 8.19316 6.41972 8.19227 6.35294C8.19227 6.28704 8.17913 6.2218 8.1536 6.161C8.12807 6.1002 8.09067 6.04506 8.04356 5.99877C7.99645 5.95249 7.94058 5.91599 7.87918 5.89138C7.81779 5.86678 7.75209 5.85457 7.68592 5.85546H7.01079C6.79098 5.86014 6.57678 5.92546 6.39203 6.04415C6.20728 6.16284 6.05923 6.33024 5.96434 6.52773L5.12043 8.53782C5.10206 8.58056 5.09067 8.62595 5.08667 8.67227L4.01996 17.163C3.97494 17.5179 4.00628 17.8783 4.1119 18.2202C4.21752 18.5621 4.395 18.8777 4.63256 19.1461C4.87011 19.4144 5.16229 19.6293 5.48969 19.7766C5.81709 19.9238 6.17221 20 6.53145 20H17.4686ZM9.79232 13.8689C9.83535 13.8262 9.89361 13.8022 9.95436 13.8022C10.0151 13.8022 10.0734 13.8262 10.1164 13.8689L11.1358 14.8437C11.1674 14.8745 11.2098 14.8917 11.254 14.8917C11.2982 14.8917 11.3406 14.8745 11.3721 14.8437L14.3967 11.8387C14.4175 11.8167 14.4427 11.7992 14.4705 11.7872C14.4984 11.7752 14.5284 11.7691 14.5587 11.7691C14.5891 11.7691 14.6191 11.7752 14.647 11.7872C14.6748 11.7992 14.6999 11.8167 14.7208 11.8387L15.5512 12.6857C15.5733 12.7065 15.5908 12.7315 15.6028 12.7592C15.6149 12.7869 15.6211 12.8168 15.6211 12.8471C15.6211 12.8773 15.6149 12.9072 15.6028 12.9349C15.5908 12.9627 15.5733 12.9877 15.5512 13.0084L11.4194 17.1227C11.3764 17.1654 11.3181 17.1894 11.2574 17.1894C11.1966 17.1894 11.1384 17.1654 11.0953 17.1227L8.96192 15.0252C8.93966 15.0039 8.92195 14.9783 8.90986 14.95C8.89776 14.9217 8.89153 14.8913 8.89153 14.8605C8.89153 14.8297 8.89776 14.7993 8.90986 14.771C8.92195 14.7427 8.93966 14.7171 8.96192 14.6958L9.79232 13.8689ZM10.0421 7.38824C10.0421 6.85334 10.2555 6.34036 10.6353 5.96214C11.0152 5.58391 11.5303 5.37143 12.0675 5.37143C12.6047 5.37143 13.1198 5.58391 13.4997 5.96214C13.8795 6.34036 14.0929 6.85334 14.0929 7.38824V8.0605C14.0929 8.10572 14.0754 8.14919 14.0439 8.18178C14.0124 8.21438 13.9695 8.23356 13.9241 8.23529H10.2109C10.1655 8.23356 10.1226 8.21438 10.0911 8.18178C10.0597 8.14919 10.0421 8.10572 10.0421 8.0605V7.38824Z" fill="#161616"/>
</svg>
