<svg width="24" height="24" viewBox="0 0 24 24" fill="none" xmlns="http://www.w3.org/2000/svg">
<path fill-rule="evenodd" clip-rule="evenodd" d="M18.8064 11.0017C18.7119 10.9407 18.5873 10.9566 18.5112 11.0394C17.6964 11.9566 16.5614 12.5272 15.3392 12.6341C14.1857 12.7214 13.0423 12.3652 12.1425 11.6381C12.0587 11.5716 11.9402 11.5716 11.8565 11.6381C11.0597 12.2907 10.062 12.6481 9.03216 12.6497C8.91169 12.6497 8.78937 12.6442 8.6643 12.6341C7.43691 12.5289 6.29666 11.9568 5.47857 11.0357C5.4034 10.953 5.2796 10.9363 5.1852 10.9962C4.55124 11.4154 3.80076 11.6231 3.04145 11.5894C2.9796 11.5876 2.91964 11.6108 2.87503 11.6537C2.83042 11.6966 2.80489 11.7556 2.80418 11.8174V20.6205C2.80418 21.3824 3.4218 22 4.18368 22H19.818C20.5799 22 21.1975 21.3824 21.1975 20.6205V11.8285C21.1974 11.7651 21.1712 11.7046 21.1251 11.6611C21.079 11.6177 21.0171 11.595 20.9538 11.5986C20.1923 11.6366 19.439 11.4272 18.8064 11.0017ZM14.7598 14.9774C14.7702 14.7844 14.9346 14.636 15.1277 14.6454H18.0707C18.2637 14.636 18.4281 14.7844 18.4385 14.9774V19.8379C18.4385 20.0918 18.2326 20.2977 17.9787 20.2977H15.2197C14.9657 20.2977 14.7598 20.0918 14.7598 19.8379V14.9774ZM6.02301 14.9517C6.03436 14.7722 6.18833 14.6355 6.36789 14.6454H11.1925C11.372 14.6355 11.526 14.7722 11.5373 14.9517V18.0178C11.526 18.1973 11.372 18.334 11.1925 18.3241H6.36605C6.18649 18.334 6.03252 18.1973 6.02117 18.0178L6.02301 14.9517ZM21.0035 2H18.1038C18.0315 2.00029 17.9634 2.0343 17.9198 2.09197C17.8765 2.15181 17.8649 2.22892 17.8886 2.29889L19.3214 6.61029C19.345 6.68056 19.3574 6.75412 19.3582 6.82825C19.3582 8.80646 19.3582 9.39136 19.3582 9.57898C19.357 9.65472 19.3931 9.72621 19.4547 9.77027C20.0475 10.2362 20.8444 10.3492 21.5433 10.0664C22.4413 9.67189 23.0255 8.78848 23.0369 7.8077V6.93769C23.0365 6.90978 23.0315 6.88212 23.0221 6.85584L21.2895 2.30993C21.2122 2.10852 21.0844 2 21.0035 2ZM17.9345 9.53023C17.9621 9.4916 17.9769 9.44528 17.9768 9.3978V6.97724C17.9771 6.95251 17.973 6.92794 17.9649 6.90458L16.3821 2.16094C16.3509 2.06709 16.2631 2.00375 16.1642 2.00368H12.9205C12.8595 2.00367 12.801 2.02781 12.7577 2.07081C12.7151 2.11429 12.691 2.17267 12.6906 2.2336V10.185C13.2912 10.964 14.2551 11.3727 15.2326 11.2629C16.3527 11.1344 17.3504 10.4946 17.9345 9.53023ZM11.3111 10.1814V2.22992C11.3111 2.10294 11.2082 2 11.0812 2H7.83384C7.73492 2.00008 7.64713 2.06341 7.61588 2.15726L6.03313 6.90458C6.025 6.92794 6.02096 6.95251 6.02117 6.97724V9.39228C6.02118 9.43961 6.03562 9.48581 6.06256 9.52472C6.6488 10.4956 7.6545 11.1374 8.78201 11.2601C9.75614 11.3706 10.7166 10.9609 11.3111 10.1814ZM4.64351 9.58725V6.82825C4.64367 6.75422 4.65546 6.68066 4.67846 6.61029L6.11498 2.30257C6.13868 2.2326 6.12703 2.15549 6.08371 2.09565C6.04029 2.03775 5.97215 2.00368 5.89978 2.00368H2.99823C2.9173 2.00368 2.78946 2.1122 2.71313 2.31361L0.981398 6.85584C0.971366 6.88202 0.965771 6.90968 0.964844 6.93769V7.8077C0.976724 8.78649 1.56067 9.66762 2.45746 10.06C3.20883 10.4181 4.10725 10.2238 4.64351 9.58725Z" fill="#161616"/>
</svg>
