<svg width="24" height="24" viewBox="0 0 24 24" fill="none" xmlns="http://www.w3.org/2000/svg">
<path d="M18.8357 22C19.2847 21.9999 19.7286 21.9047 20.1379 21.7207C20.5471 21.5367 20.9124 21.268 21.2093 20.9326C21.5062 20.5971 21.7281 20.2026 21.8601 19.7753C21.9922 19.3479 22.0313 18.8974 21.975 18.4538L20.6417 7.81513C20.6449 7.77037 20.6449 7.72543 20.6417 7.68067L19.7978 5.21849C19.6765 4.95592 19.481 4.73423 19.2352 4.58051C18.9894 4.4268 18.7039 4.34772 18.4137 4.35294H17.5698C17.4034 4.35293 17.2437 4.41817 17.1252 4.53456C17.0068 4.65094 16.9391 4.8091 16.9369 4.97479C16.9369 5.14273 17.0033 5.30391 17.1217 5.42344C17.2402 5.54297 17.4012 5.61124 17.5698 5.61345H18.4137C18.4446 5.61553 18.4744 5.62604 18.4997 5.64382C18.525 5.66161 18.5449 5.68599 18.5572 5.71429L19.0214 6.97479C19.0376 7.00443 19.0461 7.03766 19.0461 7.07143C19.0461 7.1052 19.0376 7.13843 19.0214 7.16807C19.0018 7.19687 18.9754 7.2204 18.9444 7.23653C18.9135 7.25267 18.879 7.2609 18.8441 7.2605H16.5149C16.4582 7.25833 16.4045 7.23436 16.3652 7.19361C16.3259 7.15287 16.3039 7.09854 16.304 7.04202V6.20168C16.304 5.08733 15.8594 4.01861 15.0681 3.23064C14.2768 2.44268 13.2035 2 12.0844 2C10.9653 2 9.89203 2.44268 9.10071 3.23064C8.30939 4.01861 7.86483 5.08733 7.86483 6.20168V7.04202C7.86487 7.09854 7.84292 7.15287 7.80358 7.19361C7.76423 7.23436 7.71057 7.25833 7.65385 7.2605H5.2487C5.21332 7.25857 5.17888 7.24846 5.14812 7.23095C5.11735 7.21344 5.09111 7.18904 5.07148 7.15966C5.05523 7.13002 5.04671 7.09679 5.04671 7.06303C5.04671 7.02926 5.05523 6.99603 5.07148 6.96639L5.60314 5.70588C5.6176 5.6735 5.63975 5.6451 5.66768 5.62314C5.69562 5.60118 5.7285 5.58632 5.76349 5.57983H6.6074C6.69123 5.57984 6.77423 5.56326 6.85158 5.53107C6.92892 5.49887 6.99908 5.45169 7.05796 5.39227C7.11685 5.33286 7.16329 5.26238 7.1946 5.18495C7.22591 5.10751 7.24145 5.02465 7.24033 4.94118C7.24034 4.8588 7.22391 4.77725 7.192 4.70125C7.16009 4.62525 7.11334 4.55632 7.05445 4.49847C6.99556 4.44061 6.92572 4.39498 6.84898 4.36423C6.77223 4.33348 6.69012 4.31821 6.6074 4.31933H5.76349C5.48872 4.32518 5.22098 4.40683 4.99004 4.55519C4.75911 4.70355 4.57404 4.9128 4.45542 5.15966L3.40053 7.67227C3.37758 7.7257 3.36333 7.78244 3.35834 7.84034L2.02495 18.4538C1.96867 18.8974 2.00785 19.3479 2.13987 19.7753C2.2719 20.2026 2.49375 20.5971 2.7907 20.9326C3.08764 21.268 3.45287 21.5367 3.86212 21.7207C4.27136 21.9047 4.71526 21.9999 5.16431 22H18.8357ZM9.24041 14.3361C9.29419 14.2828 9.36702 14.2528 9.44295 14.2528C9.51887 14.2528 9.5917 14.2828 9.64548 14.3361L10.9198 15.5546C10.9592 15.5931 11.0123 15.6147 11.0675 15.6147C11.1227 15.6147 11.1757 15.5931 11.2152 15.5546L14.9959 11.7983C15.0219 11.7709 15.0533 11.749 15.0881 11.734C15.123 11.7191 15.1605 11.7113 15.1984 11.7113C15.2364 11.7113 15.2739 11.7191 15.3087 11.734C15.3435 11.749 15.3749 11.7709 15.401 11.7983L16.439 12.8571C16.4666 12.8831 16.4885 12.9143 16.5036 12.949C16.5186 12.9837 16.5263 13.0211 16.5263 13.0588C16.5263 13.0966 16.5186 13.134 16.5036 13.1686C16.4885 13.2033 16.4666 13.2346 16.439 13.2605L11.2742 18.4034C11.2205 18.4567 11.1476 18.4867 11.0717 18.4867C10.9958 18.4867 10.9229 18.4567 10.8692 18.4034L8.20239 15.7815C8.17457 15.7549 8.15244 15.7229 8.13732 15.6875C8.1222 15.6521 8.11441 15.6141 8.11441 15.5756C8.11441 15.5372 8.1222 15.4991 8.13732 15.4638C8.15244 15.4284 8.17457 15.3964 8.20239 15.3697L9.24041 14.3361ZM9.55265 6.23529C9.55265 5.56668 9.81939 4.92545 10.2942 4.45267C10.769 3.97989 11.4129 3.71429 12.0844 3.71429C12.7559 3.71429 13.3998 3.97989 13.8746 4.45267C14.3494 4.92545 14.6161 5.56668 14.6161 6.23529V7.07563C14.6162 7.13215 14.5942 7.18649 14.5549 7.22723C14.5155 7.26797 14.4619 7.29194 14.4052 7.29412H9.76363C9.70691 7.29194 9.65325 7.26797 9.61391 7.22723C9.57457 7.18649 9.55261 7.13215 9.55265 7.07563V6.23529Z" fill="#161616"/>
</svg>
