<svg width="24" height="24" viewBox="0 0 24 24" fill="none" xmlns="http://www.w3.org/2000/svg">
<path d="M16.1014 18C16.3708 18 16.6372 17.9428 16.8827 17.8324C17.1283 17.722 17.3474 17.5608 17.5256 17.3595C17.7037 17.1583 17.8369 16.9216 17.9161 16.6652C17.9953 16.4087 18.0188 16.1384 17.985 15.8723L17.185 9.48908C17.187 9.46222 17.187 9.43526 17.185 9.4084L16.6786 7.93109C16.6059 7.77355 16.4886 7.64054 16.3411 7.54831C16.1936 7.45608 16.0224 7.40863 15.8482 7.41176H15.3419C15.242 7.41176 15.1462 7.4509 15.0751 7.52073C15.0041 7.59056 14.9635 7.68546 14.9621 7.78487C14.9621 7.88564 15.002 7.98235 15.073 8.05407C15.1441 8.12578 15.2407 8.16674 15.3419 8.16807H15.8482C15.8668 8.16932 15.8846 8.17562 15.8998 8.18629C15.915 8.19697 15.9269 8.21159 15.9343 8.22857L16.2128 8.98487C16.2226 9.00266 16.2277 9.0226 16.2277 9.04286C16.2277 9.06312 16.2226 9.08306 16.2128 9.10084C16.2011 9.11813 16.1852 9.13224 16.1667 9.14192C16.1481 9.1516 16.1274 9.15654 16.1065 9.1563H14.709C14.6749 9.155 14.6427 9.14061 14.6191 9.11617C14.5955 9.09172 14.5823 9.05912 14.5824 9.02521V8.52101C14.5824 7.8524 14.3156 7.21117 13.8408 6.73839C13.3661 6.26561 12.7221 6 12.0506 6C11.3792 6 10.7352 6.26561 10.2604 6.73839C9.78563 7.21117 9.5189 7.8524 9.5189 8.52101V9.02521C9.51892 9.05912 9.50575 9.09172 9.48215 9.11617C9.45854 9.14061 9.42634 9.155 9.39231 9.1563H7.94922C7.92799 9.15514 7.90733 9.14907 7.88887 9.13857C7.87041 9.12807 7.85467 9.11342 7.84289 9.0958C7.83314 9.07801 7.82803 9.05808 7.82803 9.03782C7.82803 9.01755 7.83314 8.99762 7.84289 8.97983L8.16189 8.22353C8.17056 8.2041 8.18385 8.18706 8.20061 8.17389C8.21737 8.16071 8.2371 8.15179 8.25809 8.1479H8.76444C8.81474 8.1479 8.86454 8.13796 8.91095 8.11864C8.95735 8.09932 8.99945 8.07102 9.03478 8.03536C9.07011 7.99971 9.09797 7.95743 9.11676 7.91097C9.13554 7.8645 9.14487 7.81479 9.1442 7.76471C9.1442 7.71528 9.13435 7.66635 9.1152 7.62075C9.09606 7.57515 9.068 7.53379 9.03267 7.49908C8.99734 7.46437 8.95543 7.43699 8.90939 7.41854C8.86334 7.40009 8.81407 7.39093 8.76444 7.3916H8.25809C8.09323 7.39511 7.93259 7.4441 7.79402 7.53311C7.65546 7.62213 7.54442 7.74768 7.47325 7.8958L6.84032 9.40336C6.82655 9.43542 6.818 9.46946 6.815 9.5042L6.01497 15.8723C5.9812 16.1384 6.00471 16.4087 6.08392 16.6652C6.16314 16.9216 6.29625 17.1583 6.47442 17.3595C6.65258 17.5608 6.87172 17.722 7.11727 17.8324C7.36282 17.9428 7.62916 18 7.89859 18H16.1014ZM10.3442 13.4017C10.3765 13.3697 10.4202 13.3517 10.4658 13.3517C10.5113 13.3517 10.555 13.3697 10.5873 13.4017L11.3519 14.1328C11.3755 14.1559 11.4074 14.1688 11.4405 14.1688C11.4736 14.1688 11.5054 14.1559 11.5291 14.1328L13.7975 11.879C13.8132 11.8625 13.832 11.8494 13.8529 11.8404C13.8738 11.8314 13.8963 11.8268 13.9191 11.8268C13.9418 11.8268 13.9643 11.8314 13.9852 11.8404C14.0061 11.8494 14.025 11.8625 14.0406 11.879L14.6634 12.5143C14.6799 12.5298 14.6931 12.5486 14.7021 12.5694C14.7111 12.5902 14.7158 12.6126 14.7158 12.6353C14.7158 12.658 14.7111 12.6804 14.7021 12.7012C14.6931 12.722 14.6799 12.7407 14.6634 12.7563L11.5645 15.842C11.5323 15.874 11.4886 15.892 11.443 15.892C11.3975 15.892 11.3538 15.874 11.3215 15.842L9.72144 14.2689C9.70474 14.2529 9.69146 14.2337 9.68239 14.2125C9.67332 14.1913 9.66865 14.1684 9.66865 14.1454C9.66865 14.1223 9.67332 14.0995 9.68239 14.0783C9.69146 14.057 9.70474 14.0378 9.72144 14.0218L10.3442 13.4017ZM10.5316 8.54118C10.5316 8.14001 10.6916 7.75527 10.9765 7.4716C11.2614 7.18793 11.6478 7.02857 12.0506 7.02857C12.4535 7.02857 12.8399 7.18793 13.1248 7.4716C13.4096 7.75527 13.5697 8.14001 13.5697 8.54118V9.04538C13.5697 9.07929 13.5565 9.11189 13.5329 9.13634C13.5093 9.16078 13.4771 9.17517 13.4431 9.17647H10.6582C10.6241 9.17517 10.5919 9.16078 10.5683 9.13634C10.5447 9.11189 10.5316 9.07929 10.5316 9.04538V8.54118Z" fill="#161616"/>
</svg>
