<svg width="24" height="24" viewBox="0 0 24 24" fill="none" xmlns="http://www.w3.org/2000/svg">
<path fill-rule="evenodd" clip-rule="evenodd" d="M15.7049 11.401C15.6483 11.3644 15.5735 11.374 15.5278 11.4236C15.0389 11.974 14.358 12.3163 13.6247 12.3805C12.9325 12.4328 12.2465 12.2191 11.7066 11.7829C11.6564 11.743 11.5852 11.743 11.535 11.7829C11.0569 12.1744 10.4583 12.3888 9.8404 12.3898C9.76812 12.3898 9.69473 12.3865 9.61968 12.3805C8.88325 12.3173 8.1991 11.9741 7.70825 11.4214C7.66315 11.3718 7.58886 11.3618 7.53222 11.3977C7.15185 11.6493 6.70156 11.7739 6.24598 11.7536C6.20887 11.7526 6.17289 11.7665 6.14612 11.7922C6.11936 11.8179 6.10404 11.8533 6.10361 11.8905V17.1723C6.10361 17.6294 6.47419 18 6.93131 18H16.3119C16.769 18 17.1396 17.6294 17.1396 17.1723V11.8971C17.1395 11.8591 17.1238 11.8228 17.0962 11.7967C17.0685 11.7706 17.0313 11.757 16.9934 11.7591C16.5365 11.7819 16.0845 11.6563 15.7049 11.401ZM13.277 13.7864C13.2832 13.6706 13.3818 13.5816 13.4977 13.5872H15.2634C15.3793 13.5816 15.4779 13.6706 15.4842 13.7864V16.7027C15.4842 16.8551 15.3606 16.9786 15.2083 16.9786H13.5529C13.4005 16.9786 13.277 16.8551 13.277 16.7027V13.7864ZM8.03494 13.771C8.04175 13.6633 8.13413 13.5813 8.24187 13.5872H11.1366C11.2443 13.5813 11.3367 13.6633 11.3435 13.771V15.6107C11.3367 15.7184 11.2443 15.8004 11.1366 15.7944H8.24076C8.13303 15.8004 8.04064 15.7184 8.03384 15.6107L8.03494 13.771ZM17.0232 6H15.2833C15.24 6.00017 15.1991 6.02058 15.173 6.05518C15.147 6.09108 15.14 6.13735 15.1542 6.17934L16.0139 8.76617C16.0281 8.80834 16.0355 8.85247 16.036 8.89695C16.036 10.0839 16.036 10.4348 16.036 10.5474C16.0353 10.5928 16.0569 10.6357 16.0939 10.6622C16.4496 10.9417 16.9277 11.0095 17.3471 10.8398C17.8859 10.6031 18.2364 10.0731 18.2432 9.48462V8.96262C18.243 8.94587 18.24 8.92927 18.2344 8.91351L17.1948 6.18596C17.1484 6.06511 17.0717 6 17.0232 6ZM15.1819 10.5181C15.1984 10.495 15.2073 10.4672 15.2072 10.4387V8.98635C15.2074 8.97152 15.205 8.95677 15.2001 8.94276L14.2504 6.09657C14.2317 6.04026 14.179 6.00226 14.1196 6.00222H12.1734C12.1368 6.00221 12.1017 6.01669 12.0758 6.0425C12.0502 6.06859 12.0357 6.10361 12.0355 6.14017V10.911C12.3959 11.3784 12.9742 11.6236 13.5607 11.5577C14.2328 11.4806 14.8314 11.0968 15.1819 10.5181ZM11.2078 10.9088V6.13795C11.2078 6.06176 11.146 6 11.0698 6H9.12144C9.06209 6.00005 9.00942 6.03805 8.99066 6.09436L8.04102 8.94275C8.03614 8.95676 8.03371 8.97151 8.03384 8.98634V10.4354C8.03385 10.4638 8.04251 10.4915 8.05867 10.5148C8.41042 11.0974 9.01384 11.4824 9.69035 11.5561C10.2748 11.6224 10.8511 11.3766 11.2078 10.9088ZM7.2072 10.5524V8.89696C7.20729 8.85254 7.21437 8.80841 7.22817 8.76618L8.09008 6.18155C8.1043 6.13957 8.09731 6.0933 8.07132 6.0574C8.04527 6.02266 8.00438 6.00222 7.96096 6.00222H6.22003C6.17147 6.00222 6.09477 6.06733 6.04897 6.18817L5.00993 8.91351C5.00391 8.92922 5.00056 8.94582 5 8.96262V9.48463C5.00713 10.0719 5.3575 10.6006 5.89557 10.836C6.34639 11.0509 6.88544 10.9343 7.2072 10.5524Z" fill="#161616"/>
</svg>
