<svg width="24" height="24" viewBox="0 0 24 24" fill="none" xmlns="http://www.w3.org/2000/svg">
<path fill-rule="evenodd" clip-rule="evenodd" d="M17.2732 11.2014C17.1977 11.1525 17.0979 11.1653 17.0371 11.2315C16.3852 11.9653 15.4773 12.4218 14.4995 12.5073C13.5767 12.5771 12.662 12.2921 11.9421 11.7105C11.8751 11.6573 11.7803 11.6573 11.7133 11.7105C11.0759 12.2326 10.2778 12.5184 9.45387 12.5198C9.35749 12.5198 9.25964 12.5154 9.15958 12.5073C8.17767 12.4231 7.26547 11.9654 6.611 11.2286C6.55086 11.1624 6.45182 11.149 6.3763 11.1969C5.86913 11.5324 5.26875 11.6985 4.6613 11.6715C4.61182 11.6701 4.56385 11.6886 4.52817 11.723C4.49248 11.7573 4.47206 11.8045 4.47148 11.854V18.8964C4.47148 19.5059 4.96558 20 5.57508 20H18.0826C18.6921 20 19.1862 19.5059 19.1862 18.8964V11.8628C19.186 11.8121 19.1651 11.7637 19.1282 11.7289C19.0913 11.6941 19.0418 11.676 18.9912 11.6788C18.382 11.7092 17.7794 11.5417 17.2732 11.2014ZM14.0359 14.3819C14.0443 14.2275 14.1758 14.1088 14.3302 14.1163H16.6846C16.839 14.1088 16.9706 14.2275 16.9789 14.3819V18.2703C16.9789 18.4734 16.8142 18.6381 16.611 18.6381H14.4038C14.2006 18.6381 14.0359 18.4734 14.0359 18.2703V14.3819ZM7.04659 14.3613C7.05566 14.2177 7.17884 14.1084 7.32249 14.1163H11.1821C11.3258 14.1084 11.449 14.2177 11.458 14.3613V16.8143C11.449 16.9578 11.3258 17.0672 11.1821 17.0593H7.32102C7.17737 17.0672 7.05419 16.9578 7.04512 16.8143L7.04659 14.3613ZM19.0309 4H16.7111C16.6533 4.00023 16.5988 4.02744 16.564 4.07357C16.5293 4.12145 16.52 4.18314 16.5389 4.23911L17.6852 7.68823C17.7041 7.74445 17.7141 7.80329 17.7146 7.8626C17.7146 9.44517 17.7146 9.91309 17.7146 10.0632C17.7137 10.1238 17.7426 10.181 17.7919 10.2162C18.2661 10.589 18.9036 10.6793 19.4628 10.4531C20.1812 10.1375 20.6485 9.43078 20.6576 8.64616V7.95015C20.6573 7.92783 20.6533 7.9057 20.6458 7.88467L19.2597 4.24794C19.1979 4.08682 19.0956 4 19.0309 4ZM16.5758 10.0242C16.5979 9.99329 16.6097 9.95624 16.6097 9.91825V7.9818C16.6098 7.96202 16.6066 7.94236 16.6001 7.92368L15.3339 4.12876C15.3089 4.05368 15.2387 4.00301 15.1595 4.00295H12.5646C12.5158 4.00295 12.469 4.02226 12.4344 4.05666C12.4002 4.09145 12.381 4.13815 12.3807 4.18689V10.548C12.8612 11.1712 13.6322 11.4982 14.4142 11.4103C15.3104 11.3075 16.1085 10.7957 16.5758 10.0242ZM11.2771 10.5451V4.18393C11.2771 4.08235 11.1947 4 11.0931 4H8.49525C8.41612 4.00006 8.34589 4.05073 8.32089 4.12581L7.05469 7.92367C7.04819 7.94235 7.04495 7.96201 7.04512 7.98179V9.91383C7.04513 9.95169 7.05668 9.98865 7.07823 10.0198C7.54723 10.7965 8.35178 11.3099 9.2538 11.4081C10.0331 11.4965 10.8015 11.1687 11.2771 10.5451ZM5.94293 10.0705V7.86334C5.94306 7.80411 5.95249 7.74527 5.97089 7.68897L7.12011 4.24279C7.13907 4.18682 7.12975 4.12512 7.09509 4.07725C7.06036 4.03094 7.00584 4.00368 6.94795 4.00368H4.62671C4.56196 4.00368 4.4597 4.0905 4.39863 4.25162L3.01324 7.88541C3.00522 7.90635 3.00074 7.92848 3 7.95089V8.64689C3.0095 9.42993 3.47666 10.1348 4.1941 10.4487C4.79519 10.7352 5.51392 10.5798 5.94293 10.0705Z" fill="#161616"/>
</svg>
