<svg width="24" height="24" viewBox="0 0 24 24" fill="none" xmlns="http://www.w3.org/2000/svg">
<path fill-rule="evenodd" clip-rule="evenodd" d="M19.8843 9.03778C20.0386 8.80653 20.0386 8.50516 19.8843 8.27391L18.5706 6.30644C18.4023 6.05412 18.0887 5.94168 17.7985 6.02961C17.5083 6.11754 17.3098 6.38511 17.3099 6.68838V7.62635C17.3099 7.72136 17.2328 7.79839 17.1378 7.79839H16.0271C13.9131 7.79839 12.6152 9.83743 11.36 11.8097L11.3548 11.8178C10.351 13.3953 9.3141 15.0248 8.14621 15.0248H4.86021C4.38513 15.0248 4 15.41 4 15.885C4 16.3601 4.38513 16.7453 4.86021 16.7453H8.14621C10.2603 16.7453 11.5581 14.7062 12.8134 12.7339C13.8174 11.1532 14.8572 9.5195 16.0271 9.5195H17.1378C17.2328 9.5195 17.3099 9.59652 17.3099 9.69154V10.6288C17.3099 10.932 17.5083 11.1995 17.7984 11.2874C17.8631 11.3074 17.9304 11.3173 17.998 11.317C18.2281 11.317 18.4429 11.2021 18.5706 11.0108L19.8843 9.03778ZM4 8.6586C3.99982 8.88686 4.09037 9.10583 4.25171 9.2673C4.41305 9.42877 4.63195 9.5195 4.86021 9.5195H8.14621C8.89034 9.59303 9.55488 10.0168 9.93545 10.6605C10.2115 11.0439 10.7452 11.1329 11.1307 10.8598C11.5163 10.5867 11.6094 10.0537 11.3393 9.66608C10.6484 8.55485 9.45349 7.85621 8.14621 7.79908H4.86021C4.3854 7.79908 4.00038 8.18379 4 8.6586ZM17.998 18.5428C17.9304 18.5431 17.8631 18.5331 17.7984 18.5132C17.5062 18.4259 17.3063 18.1568 17.3071 17.8518V16.9139C17.3071 16.8188 17.2301 16.7418 17.1351 16.7418H16.0244C14.725 16.685 13.5042 16.104 12.6406 15.1315C12.427 14.9102 12.3476 14.5918 12.4324 14.2961C12.5172 14.0005 12.7533 13.7725 13.0518 13.6981C13.3502 13.6237 13.6657 13.7142 13.8793 13.9355C14.4235 14.5672 15.1957 14.9577 16.0271 15.0214H17.1378C17.2328 15.0214 17.3098 14.9444 17.3098 14.8494V13.9114C17.3098 13.6081 17.5083 13.3405 17.7985 13.2526C18.0887 13.1647 18.4023 13.2771 18.5706 13.5294L19.8843 15.4997C20.0386 15.7309 20.0386 16.0323 19.8843 16.2635L18.5706 18.2365C18.4429 18.4279 18.2281 18.5428 17.998 18.5428Z" fill="#161616"/>
</svg>
