<svg width="24" height="24" viewBox="0 0 24 24" fill="none" xmlns="http://www.w3.org/2000/svg">
<path fill-rule="evenodd" clip-rule="evenodd" d="M17.9132 9.27833C18.0289 9.1049 18.0289 8.87887 17.9132 8.70544L16.9279 7.22983C16.8017 7.04059 16.5666 6.95626 16.3489 7.02221C16.1312 7.08816 15.9823 7.28883 15.9824 7.51628V8.21976C15.9824 8.29102 15.9246 8.34879 15.8534 8.34879H15.0203C13.4348 8.34879 12.4614 9.87807 11.52 11.3573L11.5161 11.3633C10.7633 12.5465 9.98558 13.7686 9.10966 13.7686H6.64516C6.28885 13.7686 6 14.0575 6 14.4138C6 14.7701 6.28885 15.0589 6.64516 15.0589H9.10966C10.6952 15.0589 11.6686 13.5297 12.61 12.0504C13.363 10.8649 14.1429 9.63962 15.0203 9.63962H15.8534C15.9246 9.63962 15.9824 9.69739 15.9824 9.76865V10.4716C15.9824 10.699 16.1312 10.8996 16.3488 10.9655C16.3973 10.9805 16.4478 10.988 16.4985 10.9877C16.671 10.9878 16.8322 10.9016 16.9279 10.7581L17.9132 9.27833ZM6 8.99395C5.99986 9.16515 6.06777 9.32938 6.18878 9.45048C6.30979 9.57158 6.47396 9.63962 6.64516 9.63962H9.10966C9.66776 9.69477 10.1662 10.0126 10.4516 10.4954C10.6586 10.7829 11.0589 10.8497 11.3481 10.6448C11.6372 10.44 11.7071 10.0403 11.5045 9.74956C10.9863 8.91613 10.0901 8.39216 9.10966 8.34931H6.64516C6.28905 8.34931 6.00029 8.63784 6 8.99395ZM16.4985 16.4071C16.4478 16.4073 16.3973 16.3998 16.3488 16.3849C16.1297 16.3195 15.9797 16.1176 15.9803 15.8889V15.1854C15.9803 15.1141 15.9226 15.0564 15.8513 15.0564H15.0183C14.0438 15.0137 13.1282 14.578 12.4805 13.8486C12.3202 13.6827 12.2607 13.4438 12.3243 13.2221C12.3879 13.0003 12.565 12.8294 12.7888 12.7736C13.0127 12.7178 13.2493 12.7856 13.4095 12.9516C13.8176 13.4254 14.3968 13.7183 15.0203 13.766H15.8534C15.9246 13.766 15.9824 13.7083 15.9824 13.637V12.9335C15.9823 12.7061 16.1312 12.5054 16.3489 12.4395C16.5666 12.3735 16.8017 12.4578 16.9279 12.6471L17.9132 14.1248C18.0289 14.2982 18.0289 14.5242 17.9132 14.6977L16.9279 16.1774C16.8322 16.3209 16.671 16.4071 16.4985 16.4071Z" fill="#161616"/>
</svg>
