<svg width="24" height="24" viewBox="0 0 24 24" fill="none" xmlns="http://www.w3.org/2000/svg">
<path fill-rule="evenodd" clip-rule="evenodd" d="M21.8554 7.79722C22.0482 7.50816 22.0482 7.13145 21.8554 6.84239L20.2132 4.38305C20.0029 4.06765 19.6109 3.92711 19.2481 4.03702C18.8853 4.14693 18.6372 4.48138 18.6373 4.86047V6.03293C18.6373 6.15171 18.541 6.24799 18.4223 6.24799H17.0339C14.3913 6.24799 12.769 8.79679 11.1999 11.2621L11.1935 11.2722C9.93875 13.2441 8.64263 15.281 7.18276 15.281H3.07526C2.48141 15.281 2 15.7625 2 16.3563C2 16.9502 2.48141 17.4316 3.07526 17.4316H7.18276C9.82533 17.4316 11.4477 14.8828 13.0167 12.4174C14.2717 10.4415 15.5715 8.39937 17.0339 8.39937H18.4223C18.541 8.39937 18.6373 8.49565 18.6373 8.61442V9.78603C18.6373 10.165 18.8854 10.4993 19.2481 10.6092C19.3288 10.6342 19.413 10.6467 19.4975 10.6462C19.7851 10.6463 20.0536 10.5026 20.2132 10.2634L21.8554 7.79722ZM2 7.32325C1.99977 7.60858 2.11296 7.88229 2.31463 8.08413C2.51631 8.28597 2.78994 8.39937 3.07526 8.39937H7.18276C8.11293 8.49129 8.94361 9.02101 9.41931 9.8256C9.76441 10.3049 10.4315 10.4161 10.9134 10.0747C11.3954 9.73336 11.5118 9.06717 11.1741 8.5826C10.3104 7.19356 8.81687 6.32027 7.18276 6.24885H3.07526C2.48175 6.24885 2.00048 6.72973 2 7.32325ZM19.4975 19.6784C19.413 19.6789 19.3288 19.6664 19.2481 19.6414C18.8828 19.5324 18.6328 19.196 18.6339 18.8148V17.6423C18.6339 17.5236 18.5376 17.4273 18.4188 17.4273H17.0304C15.4063 17.3562 13.8803 16.63 12.8008 15.4144C12.5337 15.1378 12.4345 14.7397 12.5405 14.3702C12.6465 14.0006 12.9416 13.7156 13.3147 13.6226C13.6878 13.5296 14.0821 13.6427 14.3492 13.9193C15.0294 14.709 15.9947 15.1971 17.0339 15.2767H18.4223C18.541 15.2767 18.6373 15.1805 18.6373 15.0617V13.8892C18.6372 13.5101 18.8853 13.1757 19.2481 13.0658C19.6109 12.9559 20.0029 13.0964 20.2132 13.4118L21.8554 15.8746C22.0482 16.1637 22.0482 16.5404 21.8554 16.8294L20.2132 19.2956C20.0536 19.5348 19.7851 19.6785 19.4975 19.6784Z" fill="#161616"/>
</svg>
