<svg width="24" height="24" viewBox="0 0 24 24" fill="none" xmlns="http://www.w3.org/2000/svg">
<path fill-rule="evenodd" clip-rule="evenodd" d="M15.4779 12.3696C15.6075 12.4973 15.6804 12.6705 15.6804 12.8511V17.9574C15.6804 18.4992 15.4618 19.0187 15.0728 19.4017C14.6838 19.7848 14.1562 20 13.606 20H8.07437C7.52421 20 6.99659 19.7848 6.60757 19.4017C6.21855 19.0187 6 18.4992 6 17.9574V6.04255C6 5.50083 6.21855 4.9813 6.60757 4.59825C6.99659 4.2152 7.52421 4 8.07437 4H8.76583C8.94921 4 9.12509 4.07173 9.25476 4.19942C9.38443 4.3271 9.45728 4.50028 9.45728 4.68085C9.45728 4.86142 9.38443 5.0346 9.25476 5.16229C9.12509 5.28997 8.94921 5.3617 8.76583 5.3617H8.07437C7.89098 5.3617 7.71511 5.43343 7.58544 5.56112C7.45576 5.6888 7.38291 5.86198 7.38291 6.04255V16.5957C7.38291 16.686 7.41934 16.7726 7.48418 16.8365C7.54901 16.9003 7.63695 16.9362 7.72864 16.9362H13.9518C14.0434 16.9362 14.1314 16.9003 14.1962 16.8365C14.2611 16.7726 14.2975 16.686 14.2975 16.5957V12.8511C14.2975 12.6705 14.3703 12.4973 14.5 12.3696C14.6297 12.2419 14.8056 12.1702 14.9889 12.1702C15.1723 12.1702 15.3482 12.2419 15.4779 12.3696ZM13.9733 7.35637C13.9733 7.8264 13.5863 8.20744 13.109 8.20744C12.6316 8.20744 12.2447 7.8264 12.2447 7.35637C12.2447 6.88634 12.6316 6.50531 13.109 6.50531C13.5863 6.50531 13.9733 6.88634 13.9733 7.35637ZM15.8748 8.20744C16.3521 8.20744 16.7391 7.8264 16.7391 7.35637C16.7391 6.88634 16.3521 6.50531 15.8748 6.50531C15.3974 6.50531 15.0105 6.88634 15.0105 7.35637C15.0105 7.8264 15.3974 8.20744 15.8748 8.20744ZM18.0866 5.18525C18.6697 5.75944 18.9981 6.53769 19 7.34972C19.0055 8.1606 18.6851 8.94073 18.1086 9.51984C17.5321 10.0989 16.7464 10.43 15.923 10.4408C15.8938 10.4309 15.8622 10.4309 15.8331 10.4408L13.9316 11.6867C13.8451 11.7424 13.7445 11.773 13.6412 11.7752C13.5566 11.7751 13.4733 11.754 13.3992 11.714C13.316 11.6708 13.2464 11.6062 13.1977 11.527C13.1489 11.4479 13.123 11.3572 13.1226 11.2646V10.5838C13.1226 10.5386 13.1044 10.4953 13.0719 10.4634C13.0395 10.4315 12.9956 10.4135 12.9497 10.4135H12.7768C11.9516 10.4135 11.1602 10.0908 10.5766 9.51617C9.99311 8.94159 9.66529 8.1623 9.66529 7.34972C9.66529 6.53714 9.99311 5.75784 10.5766 5.18326C11.1602 4.60868 11.9516 4.28589 12.7768 4.28589H15.8884C16.7131 4.28769 17.5034 4.61106 18.0866 5.18525ZM15.4251 9.47397C15.5122 9.4204 15.6129 9.39209 15.7155 9.39227H15.8884C16.4386 9.39227 16.9662 9.17707 17.3552 8.79402C17.7442 8.41097 17.9628 7.89144 17.9628 7.34972C17.9628 6.808 17.7442 6.28847 17.3552 5.90542C16.9662 5.52236 16.4386 5.30717 15.8884 5.30717H12.7768C12.2267 5.30717 11.6991 5.52236 11.31 5.90542C10.921 6.28847 10.7025 6.808 10.7025 7.34972C10.7025 7.89144 10.921 8.41097 11.31 8.79402C11.6991 9.17707 12.2267 9.39227 12.7768 9.39227H13.6412C13.7787 9.39227 13.9106 9.44607 14.0079 9.54183C14.1051 9.6376 14.1598 9.76748 14.1598 9.90291V10.005C14.1597 10.0357 14.168 10.0657 14.1838 10.0921C14.1996 10.1185 14.2224 10.1401 14.2496 10.1548C14.2772 10.1697 14.3081 10.1775 14.3395 10.1775C14.371 10.1775 14.4019 10.1697 14.4294 10.1548L15.4251 9.47397Z" fill="#161616"/>
</svg>
