<svg width="24" height="24" viewBox="0 0 24 24" fill="none" xmlns="http://www.w3.org/2000/svg">
<path fill-rule="evenodd" clip-rule="evenodd" d="M15.2907 12.2772C15.3904 12.373 15.4465 12.5029 15.4465 12.6383V16.4681C15.4465 16.8744 15.2783 17.264 14.9791 17.5513C14.6799 17.8386 14.274 18 13.8508 18H9.59567C9.17247 18 8.76661 17.8386 8.46736 17.5513C8.16811 17.264 8 16.8744 8 16.4681V7.53191C8 7.12563 8.16811 6.73598 8.46736 6.44869C8.76661 6.1614 9.17247 6 9.59567 6H10.1276C10.2686 6 10.4039 6.0538 10.5037 6.14956C10.6034 6.24533 10.6594 6.37521 10.6594 6.51064C10.6594 6.64607 10.6034 6.77595 10.5037 6.87171C10.4039 6.96748 10.2686 7.02128 10.1276 7.02128H9.59567C9.4546 7.02128 9.31932 7.07508 9.21957 7.17084C9.11982 7.2666 9.06378 7.39649 9.06378 7.53191V15.4468C9.06378 15.5145 9.0918 15.5795 9.14167 15.6273C9.19155 15.6752 9.25919 15.7021 9.32972 15.7021H14.1167C14.1873 15.7021 14.2549 15.6752 14.3048 15.6273C14.3547 15.5795 14.3827 15.5145 14.3827 15.4468V12.6383C14.3827 12.5029 14.4387 12.373 14.5385 12.2772C14.6382 12.1815 14.7735 12.1277 14.9146 12.1277C15.0556 12.1277 15.1909 12.1815 15.2907 12.2772ZM14.1334 8.51727C14.1334 8.86979 13.8357 9.15556 13.4685 9.15556C13.1013 9.15556 12.8036 8.86979 12.8036 8.51727C12.8036 8.16474 13.1013 7.87897 13.4685 7.87897C13.8357 7.87897 14.1334 8.16474 14.1334 8.51727ZM15.5961 9.15556C15.9633 9.15556 16.2609 8.86979 16.2609 8.51727C16.2609 8.16474 15.9633 7.87897 15.5961 7.87897C15.2289 7.87897 14.9312 8.16474 14.9312 8.51727C14.9312 8.86979 15.2289 9.15556 15.5961 9.15556ZM17.2972 6.88894C17.7458 7.31958 17.9984 7.90327 17.9998 8.51229C18.0041 9.12045 17.7576 9.70555 17.3142 10.1399C16.8708 10.5742 16.2664 10.8225 15.6329 10.8306C15.6105 10.8232 15.5862 10.8232 15.5638 10.8306L14.1011 11.7651C14.0345 11.8068 13.9572 11.8298 13.8777 11.8314C13.8126 11.8313 13.7486 11.8155 13.6915 11.7855C13.6276 11.7531 13.574 11.7046 13.5365 11.6453C13.4991 11.5859 13.4791 11.5179 13.4788 11.4485V10.9378C13.4788 10.904 13.4648 10.8715 13.4398 10.8476C13.4149 10.8236 13.3811 10.8102 13.3458 10.8102H13.2128C12.578 10.8102 11.9692 10.5681 11.5204 10.1371C11.0715 9.7062 10.8193 9.12172 10.8193 8.51229C10.8193 7.90286 11.0715 7.31838 11.5204 6.88745C11.9692 6.45651 12.578 6.21442 13.2128 6.21442H15.6063C16.2407 6.21577 16.8487 6.4583 17.2972 6.88894ZM15.25 10.1055C15.317 10.0653 15.3944 10.0441 15.4734 10.0442H15.6063C16.0295 10.0442 16.4354 9.88281 16.7346 9.59552C17.0339 9.30823 17.202 8.91858 17.202 8.51229C17.202 8.106 17.0339 7.71635 16.7346 7.42906C16.4354 7.14177 16.0295 6.98037 15.6063 6.98037H13.2128C12.7896 6.98037 12.3838 7.14177 12.0845 7.42906C11.7853 7.71635 11.6172 8.106 11.6172 8.51229C11.6172 8.91858 11.7853 9.30823 12.0845 9.59552C12.3838 9.88281 12.7896 10.0442 13.2128 10.0442H13.8777C13.9835 10.0442 14.085 10.0846 14.1598 10.1564C14.2346 10.2282 14.2766 10.3256 14.2766 10.4272V10.5038C14.2765 10.5267 14.2829 10.5493 14.2951 10.5691C14.3073 10.5888 14.3248 10.6051 14.3458 10.6161C14.3669 10.6273 14.3907 10.6332 14.4149 10.6332C14.4391 10.6332 14.4629 10.6273 14.484 10.6161L15.25 10.1055Z" fill="#161616"/>
</svg>
