<svg width="24" height="24" viewBox="0 0 24 24" fill="none" xmlns="http://www.w3.org/2000/svg">
<path fill-rule="evenodd" clip-rule="evenodd" d="M17.2145 8.05623L12.6519 3.2828C12.2915 2.90573 11.7088 2.90573 11.3522 3.2828L6.7858 8.05623C6.20685 8.66194 6.6171 9.70086 7.43759 9.70086H16.5627C17.3832 9.70086 17.7934 8.66194 17.2145 8.05623ZM17.2145 15.9437L12.6519 20.7172C12.2915 21.0942 11.7088 21.0942 11.3522 20.7172L6.7858 15.9437C6.20685 15.338 6.6171 14.2991 7.43759 14.2991H16.5627C17.3832 14.2991 17.7934 15.338 17.2145 15.9437ZM4 12.0034C4 11.6174 4.29928 11.3046 4.66845 11.3046H19.3315C19.7007 11.3046 20 11.6174 20 12.0034C20 12.3894 19.7007 12.7023 19.3315 12.7023H4.66845C4.29928 12.7023 4 12.3894 4 12.0034Z" fill="#161616"/>
</svg>
