<svg width="24" height="24" viewBox="0 0 24 24" fill="none" xmlns="http://www.w3.org/2000/svg">
<path fill-rule="evenodd" clip-rule="evenodd" d="M15.9109 8.93261L12.489 5.21994C12.2187 4.92667 11.7816 4.92667 11.5142 5.21994L8.08941 8.93261C7.6552 9.40372 7.96288 10.2118 8.57825 10.2118H15.4221C16.0375 10.2118 16.3451 9.40372 15.9109 8.93261ZM15.9109 15.0674L12.489 18.7801C12.2187 19.0733 11.7816 19.0733 11.5142 18.7801L8.08941 15.0674C7.6552 14.5963 7.96288 13.7882 8.57825 13.7882H15.4221C16.0375 13.7882 16.3451 14.5963 15.9109 15.0674ZM6 12.0027C6 11.7025 6.22446 11.4591 6.50134 11.4591H17.4987C17.7755 11.4591 18 11.7025 18 12.0027C18 12.3029 17.7755 12.5462 17.4987 12.5462H6.50134C6.22446 12.5462 6 12.3029 6 12.0027Z" fill="#161616"/>
</svg>
