<svg width="24" height="24" viewBox="0 0 24 24" fill="none" xmlns="http://www.w3.org/2000/svg">
<path d="M17.9476 10.3197C17.8938 10.1715 17.7954 10.0432 17.6655 9.9521C17.5357 9.861 17.3807 9.81152 17.2216 9.81034H14.0857C14.0328 9.81032 13.9811 9.79417 13.9378 9.76409C13.8945 9.73401 13.8616 9.69147 13.8437 9.64224L12.7211 6.48393C12.6626 6.34088 12.5623 6.21838 12.4329 6.13215C12.3035 6.04593 12.1511 5.99991 11.9951 6C11.8364 6.00075 11.6819 6.05014 11.5528 6.14137C11.4237 6.2326 11.3264 6.36118 11.2742 6.5094V6.5094L10.1465 9.65243C10.1285 9.70166 10.0956 9.7442 10.0523 9.77428C10.009 9.80436 9.95739 9.82051 9.90448 9.82053H6.76859C6.60924 9.82098 6.45392 9.87017 6.32394 9.96137C6.19396 10.0526 6.09567 10.1813 6.04255 10.3299C5.99147 10.4769 5.98625 10.6356 6.02758 10.7855C6.0689 10.9354 6.15486 11.0695 6.27427 11.1705L8.94157 13.3609C8.98165 13.3932 9.01095 13.4368 9.02564 13.4859C9.04034 13.5349 9.03975 13.5872 9.02396 13.636L7.90143 16.9624C7.84856 17.1164 7.84675 17.2831 7.89627 17.4382C7.94579 17.5933 8.04404 17.7287 8.17674 17.8248C8.30943 17.9208 8.46965 17.9724 8.63407 17.9722C8.79848 17.9719 8.95853 17.9197 9.0909 17.8233L11.8406 15.8264C11.8844 15.7938 11.9377 15.7761 11.9925 15.7761C12.0473 15.7761 12.1006 15.7938 12.1444 15.8264L14.8992 17.8233C15.0306 17.9314 15.1945 17.9934 15.3653 17.9995C15.536 18.0056 15.704 17.9556 15.843 17.8571C15.9819 17.7587 16.0839 17.6175 16.133 17.4556C16.1822 17.2937 16.1756 17.1202 16.1145 16.9624L14.9919 13.636C14.9761 13.5872 14.9756 13.5349 14.9903 13.4859C15.0049 13.4368 15.0342 13.3932 15.0743 13.3609L17.7468 11.1654C17.8625 11.0608 17.9436 10.9242 17.9794 10.7733C18.0152 10.6224 18.0041 10.4643 17.9476 10.3197Z" fill="#161616"/>
</svg>
