<svg width="24" height="24" viewBox="0 0 24 24" fill="none" xmlns="http://www.w3.org/2000/svg">
<path d="M17.9515 10.3301C17.8931 10.1774 17.7896 10.0459 17.6545 9.95277C17.5194 9.85965 17.359 9.80929 17.1945 9.80833H13.9302L12.758 6.52136C12.701 6.36837 12.5982 6.23639 12.4633 6.14318C12.3284 6.04997 12.168 6 12.0037 6C11.8394 6 11.679 6.04997 11.5441 6.14318C11.4092 6.23639 11.3064 6.36837 11.2494 6.52136L10.0824 9.80311H6.81811C6.65133 9.80026 6.48778 9.84895 6.35012 9.94244C6.21245 10.0359 6.10748 10.1696 6.04973 10.3249C5.99198 10.4802 5.98433 10.6495 6.02781 10.8094C6.0713 10.9692 6.16379 11.1117 6.29246 11.217L9.06266 13.4918L7.90622 16.9458C7.85128 17.1068 7.84959 17.2811 7.90141 17.4432C7.95323 17.6053 8.05585 17.7467 8.1943 17.8468C8.33276 17.947 8.49982 18.0007 8.67114 18C8.84247 17.9993 9.0091 17.9444 9.14676 17.8431L12.0063 15.7562L14.8659 17.8431C15.0036 17.9444 15.1702 17.9993 15.3415 18C15.5128 18.0007 15.6799 17.947 15.8184 17.8468C15.9568 17.7467 16.0594 17.6053 16.1112 17.4432C16.1631 17.2811 16.1614 17.1068 16.1064 16.9458L14.9447 13.4918L17.7202 11.2118C17.8442 11.1054 17.9326 10.9641 17.9739 10.8066C18.0152 10.6492 18.0074 10.483 17.9515 10.3301ZM13.9565 12.8918C13.8694 12.9599 13.8062 13.0536 13.776 13.1595C13.7458 13.2654 13.7501 13.3781 13.7883 13.4814L14.6346 16.0171C14.6445 16.0439 14.6453 16.0733 14.6367 16.1007C14.6282 16.128 14.6108 16.1518 14.5873 16.1684C14.5637 16.1857 14.5352 16.1951 14.5058 16.1951C14.4765 16.1951 14.4479 16.1857 14.4243 16.1684L12.3217 14.6449C12.2263 14.5779 12.1126 14.5415 11.9958 14.5405C11.8789 14.5408 11.765 14.5773 11.6699 14.6449L9.58831 16.1736C9.56475 16.1909 9.53618 16.2003 9.50684 16.2003C9.47749 16.2003 9.44892 16.1909 9.42536 16.1736C9.40069 16.1567 9.38255 16.132 9.37395 16.1036C9.36535 16.0751 9.36679 16.0446 9.37805 16.0171L10.2244 13.4814C10.2625 13.3781 10.2668 13.2654 10.2366 13.1595C10.2064 13.0536 10.1432 12.9599 10.0561 12.8918L7.95353 11.1388C7.93092 11.1215 7.91459 11.0974 7.90701 11.0701C7.89942 11.0428 7.90099 11.0138 7.91147 10.9875C7.92015 10.9608 7.93694 10.9374 7.95953 10.9206C7.98212 10.9038 8.0094 10.8944 8.03763 10.8936H10.4714C10.5858 10.895 10.6979 10.8612 10.792 10.7967C10.8862 10.7322 10.9579 10.6402 10.9971 10.5336L11.8802 8.03963C11.8908 8.01371 11.909 7.99153 11.9324 7.97592C11.9558 7.9603 11.9834 7.95196 12.0116 7.95196C12.0398 7.95196 12.0673 7.9603 12.0908 7.97592C12.1142 7.99153 12.1323 8.01371 12.143 8.03963L13.0261 10.5336C13.0653 10.6402 13.137 10.7322 13.2311 10.7967C13.3253 10.8612 13.4373 10.895 13.5518 10.8936H16.0066C16.0355 10.894 16.0636 10.9033 16.0871 10.9201C16.1106 10.9369 16.1283 10.9604 16.138 10.9875C16.1485 11.0138 16.15 11.0428 16.1424 11.0701C16.1349 11.0974 16.1185 11.1215 16.0959 11.1388L13.9565 12.8918Z" fill="#161616"/>
</svg>
