<svg width="24" height="24" viewBox="0 0 24 24" fill="none" xmlns="http://www.w3.org/2000/svg">
<path d="M19.9301 9.75966C19.8585 9.56203 19.7272 9.39093 19.5541 9.26947C19.3809 9.148 19.1743 9.08203 18.9621 9.08046H14.7809C14.7103 9.08043 14.6415 9.0589 14.5838 9.01879C14.526 8.97869 14.4822 8.92196 14.4582 8.85632L12.9615 4.64525C12.8835 4.45451 12.7497 4.29117 12.5772 4.1762C12.4047 4.06123 12.2014 3.99988 11.9934 4C11.7819 4.001 11.5759 4.06686 11.4037 4.18849C11.2316 4.31013 11.1018 4.48157 11.0322 4.67921V4.67921L9.52866 8.8699C9.50468 8.93554 9.46083 8.99227 9.40309 9.03238C9.34535 9.07248 9.27653 9.09401 9.20598 9.09404H5.02479C4.81232 9.09463 4.60523 9.16022 4.43192 9.28182C4.25861 9.40342 4.12756 9.57507 4.05674 9.77325C3.98863 9.96915 3.98167 10.1808 4.03677 10.3807C4.09187 10.5805 4.20648 10.7594 4.36569 10.8939L7.9221 13.8145C7.97554 13.8577 8.0146 13.9157 8.03419 13.9812C8.05378 14.0466 8.053 14.1163 8.03195 14.1813L6.53524 18.6165C6.46475 18.8219 6.46234 19.0441 6.52836 19.2509C6.59438 19.4577 6.72539 19.6383 6.90232 19.7663C7.07925 19.8944 7.29287 19.9633 7.51209 19.9629C7.73131 19.9625 7.9447 19.893 8.1212 19.7644L11.7875 17.1019C11.8458 17.0583 11.9169 17.0348 11.99 17.0348C12.0631 17.0348 12.1342 17.0583 12.1925 17.1019L15.8657 19.7644C16.0408 19.9085 16.2593 19.9912 16.487 19.9993C16.7147 20.0075 16.9387 19.9407 17.1239 19.8095C17.3092 19.6783 17.4452 19.49 17.5107 19.2741C17.5762 19.0582 17.5675 18.827 17.486 18.6165L15.9892 14.1813C15.9682 14.1163 15.9674 14.0466 15.987 13.9812C16.0066 13.9157 16.0457 13.8577 16.0991 13.8145L19.6624 10.8871C19.8166 10.7478 19.9247 10.5656 19.9725 10.3644C20.0203 10.1632 20.0055 9.9524 19.9301 9.75966Z" fill="#161616"/>
</svg>
