<svg width="24" height="24" viewBox="0 0 24 24" fill="none" xmlns="http://www.w3.org/2000/svg">
<path d="M21.9191 9.21679C21.8219 8.96239 21.6493 8.74317 21.4241 8.58796C21.1989 8.43275 20.9317 8.34882 20.6576 8.34722H15.217L13.2634 2.86893C13.1683 2.61396 12.9969 2.39399 12.7722 2.23863C12.5474 2.08328 12.2801 2 12.0062 2C11.7323 2 11.4649 2.08328 11.2402 2.23863C11.0154 2.39399 10.844 2.61396 10.749 2.86893L8.80405 8.33852H3.36352C3.08555 8.33377 2.81297 8.41491 2.58353 8.57073C2.35408 8.72654 2.17913 8.94931 2.08288 9.20818C1.98664 9.46706 1.97388 9.74923 2.04636 10.0156C2.11884 10.282 2.27298 10.5195 2.48743 10.6951L7.10443 14.4864L5.17703 20.2429C5.08546 20.5114 5.08266 20.8018 5.16902 21.072C5.25539 21.3421 5.42641 21.5778 5.65717 21.7447C5.88793 21.9117 6.16637 22.0011 6.45191 22C6.73745 21.9989 7.01517 21.9073 7.24461 21.7386L12.0105 18.2603L16.7765 21.7386C17.0059 21.9073 17.2836 21.9989 17.5692 22C17.8547 22.0011 18.1332 21.9117 18.3639 21.7447C18.5947 21.5778 18.7657 21.3421 18.8521 21.072C18.9384 20.8018 18.9356 20.5114 18.8441 20.2429L16.9079 14.4864L21.5337 10.6864C21.7403 10.5089 21.8877 10.2735 21.9566 10.011C22.0254 9.74864 22.0123 9.47167 21.9191 9.21679ZM15.2608 13.4864C15.1157 13.5999 15.0104 13.756 14.96 13.9325C14.9097 14.109 14.9168 14.2968 14.9805 14.469L16.391 18.6951C16.4076 18.7399 16.4088 18.7888 16.3946 18.8344C16.3803 18.88 16.3514 18.9196 16.3122 18.9473C16.2729 18.9762 16.2253 18.9918 16.1764 18.9918C16.1274 18.9918 16.0798 18.9762 16.0406 18.9473L12.5362 16.4081C12.3772 16.2965 12.1877 16.2359 11.993 16.2342C11.7982 16.2347 11.6083 16.2955 11.4498 16.4081L7.98052 18.956C7.94125 18.9849 7.89364 19.0005 7.84473 19.0005C7.79582 19.0005 7.7482 18.9849 7.70893 18.956C7.66782 18.9279 7.63759 18.8867 7.62325 18.8393C7.60891 18.7919 7.61132 18.741 7.63009 18.6951L9.04059 14.469C9.10425 14.2968 9.11141 14.109 9.06106 13.9325C9.01071 13.756 8.90542 13.5999 8.76024 13.4864L5.25588 10.5646C5.2182 10.5358 5.19099 10.4957 5.17834 10.4502C5.1657 10.4047 5.16831 10.3563 5.18579 10.3124C5.20025 10.268 5.22823 10.2291 5.26588 10.201C5.30353 10.173 5.34901 10.1573 5.39605 10.1559H9.45236C9.64303 10.1584 9.82976 10.102 9.98671 9.99446C10.1437 9.88697 10.2631 9.73372 10.3284 9.55592L11.8003 5.39938C11.818 5.35618 11.8483 5.31922 11.8874 5.29319C11.9264 5.26717 11.9723 5.25327 12.0193 5.25327C12.0663 5.25327 12.1122 5.26717 12.1513 5.29319C12.1903 5.31922 12.2206 5.35618 12.2383 5.39938L13.7102 9.55592C13.7755 9.73372 13.8949 9.88697 14.0519 9.99446C14.2089 10.102 14.3956 10.1584 14.5863 10.1559H18.6776C18.7258 10.1567 18.7727 10.1722 18.8118 10.2001C18.851 10.2281 18.8806 10.2673 18.8966 10.3124C18.9141 10.3563 18.9167 10.4047 18.9041 10.4502C18.8914 10.4957 18.8642 10.5358 18.8265 10.5646L15.2608 13.4864Z" fill="#161616"/>
</svg>
