<svg width="24" height="24" viewBox="0 0 24 24" fill="none" xmlns="http://www.w3.org/2000/svg">
<path d="M19.9353 9.77343C19.8575 9.56991 19.7194 9.39453 19.5393 9.27037C19.3592 9.1462 19.1454 9.07906 18.9261 9.07777H14.5736L13.0107 4.69515C12.9347 4.49117 12.7975 4.31519 12.6177 4.19091C12.4379 4.06663 12.224 4 12.0049 4C11.7858 4 11.572 4.06663 11.3921 4.19091C11.2123 4.31519 11.0752 4.49117 10.9992 4.69515L9.44324 9.07082H5.09082C4.86844 9.06701 4.65038 9.13193 4.46682 9.25658C4.28327 9.38123 4.1433 9.55945 4.06631 9.76655C3.98931 9.97365 3.9791 10.1994 4.03709 10.4125C4.09507 10.6256 4.21838 10.8156 4.38994 10.956L8.08354 13.9891L6.54162 18.5943C6.46837 18.8091 6.46613 19.0415 6.53522 19.2576C6.60431 19.4737 6.74113 19.6623 6.92574 19.7958C7.11034 19.9293 7.33309 20.0009 7.56153 20C7.78996 19.9991 8.01214 19.9258 8.19568 19.7909L12.0084 17.0082L15.8212 19.7909C16.0047 19.9258 16.2269 19.9991 16.4553 20C16.6838 20.0009 16.9065 19.9293 17.0911 19.7958C17.2757 19.6623 17.4126 19.4737 17.4817 19.2576C17.5507 19.0415 17.5485 18.8091 17.4752 18.5943L15.9263 13.9891L19.6269 10.9491C19.7922 10.8072 19.9102 10.6188 19.9652 10.4088C20.0203 10.1989 20.0099 9.97734 19.9353 9.77343ZM14.6087 13.1891C14.4925 13.2799 14.4083 13.4048 14.368 13.546C14.3277 13.6872 14.3335 13.8374 14.3844 13.9752L15.5128 17.3561C15.5261 17.3919 15.5271 17.4311 15.5157 17.4675C15.5043 17.504 15.4811 17.5357 15.4497 17.5578C15.4183 17.581 15.3802 17.5935 15.3411 17.5935C15.302 17.5935 15.2639 17.581 15.2325 17.5578L12.429 15.5265C12.3018 15.4372 12.1502 15.3887 11.9944 15.3874C11.8385 15.3878 11.6866 15.4364 11.5599 15.5265L8.78442 17.5648C8.753 17.5879 8.71491 17.6004 8.67578 17.6004C8.63665 17.6004 8.59856 17.5879 8.56715 17.5648C8.53425 17.5423 8.51007 17.5094 8.4986 17.4714C8.48713 17.4335 8.48906 17.3928 8.50407 17.3561L9.63247 13.9752C9.6834 13.8374 9.68913 13.6872 9.64885 13.546C9.60856 13.4048 9.52433 13.2799 9.40819 13.1891L6.6047 10.8517C6.57456 10.8287 6.55279 10.7965 6.54267 10.7601C6.53256 10.7237 6.53465 10.6851 6.54863 10.65C6.5602 10.6144 6.58259 10.5833 6.61271 10.5608C6.64283 10.5384 6.67921 10.5258 6.71684 10.5247H9.96188C10.1144 10.5267 10.2638 10.4816 10.3894 10.3956C10.5149 10.3096 10.6105 10.187 10.6628 10.0447L11.8402 6.7195C11.8544 6.68495 11.8787 6.65537 11.9099 6.63456C11.9411 6.61374 11.9778 6.60262 12.0154 6.60262C12.053 6.60262 12.0898 6.61374 12.121 6.63456C12.1522 6.65537 12.1765 6.68495 12.1907 6.7195L13.3681 10.0447C13.4204 10.187 13.516 10.3096 13.6415 10.3956C13.7671 10.4816 13.9165 10.5267 14.069 10.5247H17.3421C17.3807 10.5254 17.4181 10.5377 17.4494 10.5601C17.4808 10.5825 17.5044 10.6138 17.5173 10.65C17.5313 10.6851 17.5334 10.7237 17.5233 10.7601C17.5131 10.7965 17.4914 10.8287 17.4612 10.8517L14.6087 13.1891Z" fill="#161616"/>
</svg>
