<svg width="24" height="24" viewBox="0 0 24 24" fill="none" xmlns="http://www.w3.org/2000/svg">
<path d="M12 4C10.4178 4 8.87103 4.46919 7.55544 5.34824C6.23985 6.22729 5.21447 7.47672 4.60897 8.93853C4.00347 10.4003 3.84504 12.0089 4.15372 13.5607C4.4624 15.1126 5.22433 16.538 6.34315 17.6569C7.46197 18.7757 8.88743 19.5376 10.4393 19.8463C11.9911 20.155 13.5997 19.9965 15.0615 19.391C16.5233 18.7855 17.7727 17.7602 18.6518 16.4446C19.5308 15.129 20 13.5822 20 12C20 9.87827 19.1571 7.84344 17.6569 6.34315C16.1566 4.84285 14.1217 4 12 4V4ZM15.4667 15.48C15.4074 15.5452 15.3358 15.5979 15.2559 15.6353C15.1761 15.6726 15.0897 15.6937 15.0017 15.6974C14.9136 15.7012 14.8258 15.6874 14.7431 15.6569C14.6604 15.6265 14.5846 15.5799 14.52 15.52L11.1867 12.4933C11.1236 12.4281 11.0746 12.3507 11.0425 12.2659C11.0104 12.1811 10.9959 12.0906 11 12V8.33333C11 8.15652 11.0702 7.98695 11.1953 7.86193C11.3203 7.7369 11.4899 7.66667 11.6667 7.66667C11.8435 7.66667 12.013 7.7369 12.1381 7.86193C12.2631 7.98695 12.3333 8.15652 12.3333 8.33333V11.7067L15.42 14.54C15.5506 14.6586 15.6288 14.8242 15.6375 15.0004C15.6463 15.1765 15.5848 15.349 15.4667 15.48V15.48Z" fill="#161616"/>
</svg>
