<svg width="24" height="24" viewBox="0 0 24 24" fill="none" xmlns="http://www.w3.org/2000/svg">
<path fill-rule="evenodd" clip-rule="evenodd" d="M12 2C6.47715 2 2 6.47715 2 12C2 17.5228 6.47715 22 12 22C17.5228 22 22 17.5228 22 12C21.9936 6.47982 17.5202 2.00643 12 2ZM12 20.3333C7.39763 20.3333 3.66667 16.6024 3.66667 12C3.66667 7.39763 7.39763 3.66667 12 3.66667C16.6024 3.66667 20.3333 7.39763 20.3333 12C20.3283 16.6003 16.6003 20.3283 12 20.3333ZM12.4167 11.6342L16.2783 15.175C16.6173 15.4858 16.6404 16.0124 16.33 16.3517C16.0168 16.6865 15.4933 16.7091 15.1525 16.4025L11.02 12.615C10.8477 12.457 10.7497 12.2338 10.75 12V7.41667C10.75 6.95643 11.1231 6.58333 11.5833 6.58333C12.0436 6.58333 12.4167 6.95643 12.4167 7.41667V11.6342Z" fill="#161616"/>
</svg>
