<svg width="24" height="24" viewBox="0 0 24 24" fill="none" xmlns="http://www.w3.org/2000/svg">
<path fill-rule="evenodd" clip-rule="evenodd" d="M12 4C7.58172 4 4 7.58172 4 12C4 16.4183 7.58172 20 12 20C16.4183 20 20 16.4183 20 12C19.9949 7.58385 16.4161 4.00514 12 4ZM12.0001 18.6667C8.31817 18.6667 5.3334 15.6819 5.3334 12C5.3334 8.31811 8.31817 5.33334 12.0001 5.33334C15.682 5.33334 18.6667 8.31811 18.6667 12C18.6627 15.6802 15.6803 18.6626 12.0001 18.6667ZM12.3333 11.7073L15.4227 14.54C15.6938 14.7886 15.7123 15.2099 15.464 15.4813C15.2135 15.7492 14.7947 15.7672 14.522 15.522L11.216 12.492C11.0782 12.3656 10.9998 12.187 11 12V8.33333C11 7.96514 11.2985 7.66666 11.6667 7.66666C12.0349 7.66666 12.3333 7.96514 12.3333 8.33333V11.7073Z" fill="#161616"/>
</svg>
