<svg width="24" height="24" viewBox="0 0 24 24" fill="none" xmlns="http://www.w3.org/2000/svg">
<path fill-rule="evenodd" clip-rule="evenodd" d="M12 6C8.68629 6 6 8.68629 6 12C6 15.3137 8.68629 18 12 18C15.3137 18 18 15.3137 18 12C17.9961 8.68789 15.3121 6.00386 12 6ZM12 17C9.23862 17 7.00005 14.7614 7.00005 12C7.00005 9.23858 9.23862 7 12 7C14.7615 7 17 9.23858 17 12C16.997 14.7602 14.7602 16.997 12 17ZM12.25 11.7805L14.567 13.905C14.7704 14.0915 14.7842 14.4074 14.598 14.611C14.4101 14.8119 14.096 14.8254 13.8915 14.6415L11.412 12.369C11.3086 12.2742 11.2498 12.1403 11.25 12V9.25C11.25 8.97385 11.4739 8.75 11.75 8.75C12.0261 8.75 12.25 8.97385 12.25 9.25V11.7805Z" fill="#161616"/>
</svg>
