<svg width="24" height="24" viewBox="0 0 24 24" fill="none" xmlns="http://www.w3.org/2000/svg">
<path d="M12 6C10.8133 6 9.65328 6.35189 8.66658 7.01118C7.67989 7.67047 6.91085 8.60754 6.45673 9.7039C6.0026 10.8003 5.88378 12.0067 6.11529 13.1705C6.3468 14.3344 6.91825 15.4035 7.75736 16.2426C8.59648 17.0818 9.66557 17.6532 10.8295 17.8847C11.9933 18.1162 13.1997 17.9974 14.2961 17.5433C15.3925 17.0891 16.3295 16.3201 16.9888 15.3334C17.6481 14.3467 18 13.1867 18 12C18 10.4087 17.3679 8.88258 16.2426 7.75736C15.1174 6.63214 13.5913 6 12 6V6ZM14.6 14.61C14.5555 14.6589 14.5018 14.6985 14.442 14.7265C14.3821 14.7544 14.3173 14.7703 14.2513 14.7731C14.1852 14.7759 14.1193 14.7655 14.0573 14.7427C13.9953 14.7199 13.9384 14.685 13.89 14.64L11.39 12.37C11.3427 12.3211 11.3059 12.2631 11.2819 12.1994C11.2578 12.1358 11.2469 12.068 11.25 12V9.25C11.25 9.11739 11.3027 8.99021 11.3964 8.89645C11.4902 8.80268 11.6174 8.75 11.75 8.75C11.8826 8.75 12.0098 8.80268 12.1036 8.89645C12.1973 8.99021 12.25 9.11739 12.25 9.25V11.78L14.565 13.905C14.6629 13.994 14.7216 14.1181 14.7282 14.2503C14.7347 14.3824 14.6886 14.5118 14.6 14.61V14.61Z" fill="#161616"/>
</svg>
