<svg width="24" height="24" viewBox="0 0 24 24" fill="none" xmlns="http://www.w3.org/2000/svg">
<path fill-rule="evenodd" clip-rule="evenodd" d="M12.1678 12.4584C12.102 12.4859 12.0313 12.5 11.96 12.5H6.54C6.39633 12.4987 6.25898 12.4407 6.15786 12.3386C6.05673 12.2366 5.99999 12.0987 6 11.955V6.54C6 6.39678 6.05689 6.25943 6.15816 6.15816C6.25943 6.05689 6.39678 6 6.54 6H11.96C12.1032 6 12.2406 6.05689 12.3418 6.15816C12.4431 6.25943 12.5 6.39678 12.5 6.54V11.955C12.5007 12.0263 12.4872 12.0971 12.4603 12.1632C12.4335 12.2293 12.3938 12.2894 12.3436 12.3401C12.2934 12.3907 12.2337 12.431 12.1678 12.4584ZM11.2283 11.5471C11.2935 11.4963 11.3399 11.4252 11.36 11.345C11.3873 11.2528 11.3781 11.1537 11.3343 11.0681C11.2906 10.9825 11.2157 10.9169 11.125 10.885C10.7011 10.7718 10.3001 10.5857 9.94 10.335C9.92534 10.326 9.91312 10.3136 9.9044 10.2987C9.89568 10.2839 9.89074 10.2672 9.89 10.25C9.87814 10.2177 9.87814 10.1823 9.89 10.15C10.2552 9.72228 10.5413 9.23298 10.735 8.705C10.744 8.6817 10.7597 8.66163 10.7802 8.64738C10.8007 8.63312 10.825 8.62532 10.85 8.625H11.265C11.3645 8.625 11.4598 8.58549 11.5302 8.51517C11.6005 8.44484 11.64 8.34946 11.64 8.25C11.64 8.15054 11.6005 8.05516 11.5302 7.98483C11.4598 7.91451 11.3645 7.875 11.265 7.875H9.765C9.73185 7.875 9.70005 7.86183 9.67661 7.83839C9.65317 7.81495 9.64 7.78315 9.64 7.75V7.25C9.64 7.15054 9.60049 7.05516 9.53017 6.98483C9.45984 6.91451 9.36446 6.875 9.265 6.875C9.16554 6.875 9.07016 6.91451 8.99984 6.98483C8.92951 7.05516 8.89 7.15054 8.89 7.25V7.75C8.89 7.78315 8.87683 7.81495 8.85339 7.83839C8.82995 7.86183 8.79815 7.875 8.765 7.875H7.265C7.16554 7.875 7.07016 7.91451 6.99984 7.98483C6.92951 8.05516 6.89 8.15054 6.89 8.25C6.89 8.34946 6.92951 8.44484 6.99984 8.51517C7.07016 8.58549 7.16554 8.625 7.265 8.625H7.65C7.67497 8.62532 7.69926 8.63312 7.71976 8.64738C7.74026 8.66163 7.75601 8.6817 7.765 8.705C7.96628 9.23481 8.26094 9.72422 8.635 10.15C8.64686 10.1823 8.64686 10.2177 8.635 10.25C8.63426 10.2672 8.62932 10.2839 8.6206 10.2987C8.61188 10.3136 8.59966 10.326 8.585 10.335C8.22492 10.5857 7.82393 10.7718 7.4 10.885C7.30902 10.9061 7.22918 10.9604 7.17611 11.0372C7.12304 11.1141 7.10056 11.208 7.11306 11.3005C7.12557 11.3931 7.17217 11.4776 7.24373 11.5377C7.3153 11.5977 7.40668 11.6288 7.5 11.625C8.10967 11.4882 8.68161 11.2184 9.175 10.835C9.19628 10.818 9.22274 10.8087 9.25 10.8087C9.27727 10.8087 9.30372 10.818 9.325 10.835C9.81865 11.218 10.3905 11.4877 11 11.625C11.0827 11.6252 11.163 11.5978 11.2283 11.5471ZM9.89007 8.805C9.90014 8.7866 9.90541 8.76597 9.90541 8.745C9.90541 8.72403 9.90014 8.70339 9.89007 8.685C9.87864 8.6662 9.86245 8.65075 9.84313 8.64022C9.82382 8.62968 9.80207 8.62443 9.78007 8.625H8.72507C8.70308 8.62443 8.68133 8.62968 8.66201 8.64022C8.6427 8.65075 8.62651 8.6662 8.61507 8.685C8.60501 8.70339 8.59973 8.72403 8.59973 8.745C8.59973 8.76597 8.60501 8.7866 8.61507 8.805C8.76031 9.10278 8.94168 9.38155 9.15507 9.635C9.16681 9.64872 9.18138 9.65973 9.19778 9.66729C9.21418 9.67484 9.23202 9.67875 9.25007 9.67875C9.26813 9.67875 9.28597 9.67484 9.30237 9.66729C9.31877 9.65973 9.33334 9.64872 9.34507 9.635C9.56022 9.38182 9.74327 9.10304 9.89007 8.805ZM13.7499 11.5H17.4599C17.6032 11.5 17.7405 11.5569 17.8418 11.6581C17.943 11.7594 17.9999 11.8968 17.9999 12.04V17.455C17.9999 17.5987 17.9432 17.7365 17.8421 17.8386C17.741 17.9407 17.6036 17.9987 17.4599 18H12.0399C11.8963 17.9987 11.7589 17.9407 11.6578 17.8386C11.5567 17.7365 11.4999 17.5987 11.4999 17.455V13.75C11.4999 13.6837 11.5263 13.6201 11.5732 13.5732C11.62 13.5263 11.6836 13.5 11.7499 13.5H11.9599C12.1626 13.5 12.3633 13.46 12.5504 13.3823C12.7376 13.3046 12.9076 13.1907 13.0507 13.0472C13.1937 12.9036 13.3071 12.7333 13.3842 12.5459C13.4612 12.3584 13.5006 12.1576 13.4999 11.955V11.75C13.4999 11.6837 13.5263 11.6201 13.5732 11.5732C13.62 11.5263 13.6836 11.5 13.7499 11.5ZM16.2307 17.1315C16.2821 17.1315 16.3329 17.1207 16.3799 17.1C16.4264 17.0828 16.4689 17.0565 16.5051 17.0228C16.5414 16.989 16.5705 16.9484 16.591 16.9033C16.6114 16.8582 16.6228 16.8095 16.6243 16.76C16.6258 16.7106 16.6176 16.6613 16.5999 16.615L15.3349 13.24C15.2902 13.121 15.2102 13.0185 15.1057 12.9461C15.0012 12.8738 14.8771 12.835 14.7499 12.835C14.6228 12.835 14.4987 12.8738 14.3942 12.9461C14.2897 13.0185 14.2097 13.121 14.1649 13.24L12.8999 16.615C12.8788 16.6617 12.8674 16.7122 12.8665 16.7634C12.8657 16.8147 12.8753 16.8656 12.8949 16.9129C12.9145 16.9603 12.9435 17.0032 12.9803 17.0389C13.0171 17.0746 13.0608 17.1024 13.1087 17.1205C13.1567 17.1386 13.2078 17.1468 13.259 17.1444C13.3102 17.142 13.3604 17.1291 13.4064 17.1066C13.4524 17.084 13.4934 17.0523 13.5266 17.0133C13.5599 16.9744 13.5849 16.929 13.5999 16.88L13.8549 16.205C13.8639 16.1817 13.8797 16.1616 13.9002 16.1474C13.9207 16.1331 13.945 16.1253 13.9699 16.125H15.5099C15.5349 16.1253 15.5592 16.1331 15.5797 16.1474C15.6002 16.1616 15.616 16.1817 15.6249 16.205L15.8799 16.88C15.8964 16.9287 15.9228 16.9734 15.9575 17.0113C15.9922 17.0492 16.0344 17.0795 16.0814 17.1002C16.1285 17.1209 16.1793 17.1316 16.2307 17.1315ZM14.2154 15.2625C14.2154 15.2424 14.2204 15.2226 14.2301 15.205L14.6051 14.13C14.6147 14.1074 14.6307 14.0882 14.6511 14.0747C14.6716 14.0612 14.6956 14.054 14.7201 14.054C14.7446 14.054 14.7685 14.0612 14.789 14.0747C14.8094 14.0882 14.8255 14.1074 14.8351 14.13L15.2401 15.205C15.2497 15.2226 15.2547 15.2424 15.2547 15.2625C15.2547 15.2826 15.2497 15.3024 15.2401 15.32C15.2296 15.3371 15.2149 15.3511 15.1974 15.3608C15.1798 15.3704 15.1601 15.3753 15.1401 15.375H14.3301C14.3101 15.3753 14.2903 15.3704 14.2728 15.3608C14.2552 15.3511 14.2405 15.3371 14.2301 15.32C14.2204 15.3024 14.2154 15.2826 14.2154 15.2625ZM14.825 8.67499C14.8593 8.71017 14.9034 8.73423 14.9515 8.74404C14.9997 8.75385 15.0497 8.74895 15.095 8.72999C15.1406 8.71123 15.1797 8.67938 15.2073 8.63845C15.2349 8.59752 15.2497 8.54935 15.25 8.49999V8.34499C15.2499 8.32326 15.2555 8.30189 15.2663 8.28299C15.277 8.26409 15.2924 8.24831 15.3111 8.2372C15.3298 8.2261 15.351 8.22006 15.3728 8.21967C15.3945 8.21928 15.4159 8.22456 15.435 8.23499C15.756 8.40477 16.0248 8.65876 16.2124 8.96971C16.4 9.28065 16.4994 9.63682 16.5 9.99999C16.5 10.1326 16.5527 10.2598 16.6464 10.3535C16.7402 10.4473 16.8674 10.5 17 10.5C17.1326 10.5 17.2598 10.4473 17.3535 10.3535C17.4473 10.2598 17.5 10.1326 17.5 9.99999C17.4989 9.35173 17.2879 8.72127 16.8985 8.20299C16.5091 7.68471 15.9623 7.3065 15.34 7.12499C15.3136 7.11646 15.2907 7.09974 15.2745 7.07725C15.2583 7.05477 15.2497 7.0277 15.25 6.99999V6.49999C15.2503 6.45063 15.236 6.40229 15.2088 6.36106C15.1817 6.31984 15.1429 6.28756 15.0975 6.26832C15.052 6.24907 15.0019 6.2437 14.9534 6.2529C14.9049 6.26209 14.8602 6.28544 14.825 6.31999L13.825 7.31999C13.8016 7.34323 13.783 7.37088 13.7703 7.40134C13.7576 7.43181 13.751 7.46449 13.751 7.49749C13.751 7.53049 13.7576 7.56317 13.7703 7.59363C13.783 7.6241 13.8016 7.65175 13.825 7.67499L14.825 8.67499ZM6.64651 13.1464C6.74028 13.0527 6.86745 13 7.00006 13C7.13267 13 7.25985 13.0527 7.35361 13.1464C7.44738 13.2402 7.50006 13.3674 7.50006 13.5C7.50151 13.8623 7.60135 14.2174 7.78893 14.5274C7.97651 14.8374 8.24477 15.0906 8.56506 15.26C8.58406 15.271 8.60562 15.2767 8.62756 15.2767C8.6495 15.2767 8.67106 15.271 8.69006 15.26C8.70846 15.2494 8.72371 15.234 8.73426 15.2156C8.7448 15.1971 8.75025 15.1762 8.75006 15.155V15C8.74977 14.9506 8.7641 14.9023 8.79124 14.8611C8.81837 14.8198 8.85711 14.7876 8.90256 14.7683C8.94801 14.7491 8.99814 14.7437 9.04663 14.7529C9.09513 14.7621 9.13981 14.7854 9.17506 14.82L10.1751 15.82C10.1985 15.8432 10.2171 15.8709 10.2298 15.9013C10.2425 15.9318 10.249 15.9645 10.249 15.9975C10.249 16.0305 10.2425 16.0632 10.2298 16.0936C10.2171 16.1241 10.1985 16.1517 10.1751 16.175L9.17506 17.175C9.14076 17.2102 9.09667 17.2342 9.04853 17.244C9.00038 17.2538 8.95039 17.2489 8.90506 17.23C8.85941 17.2112 8.82032 17.1794 8.79274 17.1385C8.76516 17.0975 8.75031 17.0493 8.75006 17V16.5C8.75117 16.4721 8.74291 16.4446 8.7266 16.422C8.71029 16.3993 8.68687 16.3828 8.66006 16.375C8.03774 16.1935 7.49095 15.8153 7.10156 15.297C6.71217 14.7787 6.50114 14.1482 6.50006 13.5C6.50006 13.3674 6.55274 13.2402 6.64651 13.1464Z" fill="#161616"/>
</svg>
