<svg width="24" height="24" viewBox="0 0 24 24" fill="none" xmlns="http://www.w3.org/2000/svg">
<path fill-rule="evenodd" clip-rule="evenodd" d="M12.2237 12.6112C12.136 12.6478 12.0418 12.6667 11.9467 12.6667H4.72C4.52843 12.6649 4.34531 12.5876 4.21047 12.4515C4.07564 12.3154 3.99999 12.1316 4 11.94V4.72C4 4.52904 4.07586 4.34591 4.21088 4.21088C4.34591 4.07586 4.52904 4 4.72 4H11.9467C12.1376 4 12.3208 4.07586 12.4558 4.21088C12.5908 4.34591 12.6667 4.52904 12.6667 4.72V11.94C12.6675 12.0351 12.6496 12.1295 12.6138 12.2176C12.578 12.3057 12.5251 12.3859 12.4582 12.4534C12.3912 12.521 12.3115 12.5746 12.2237 12.6112ZM10.971 11.3961C11.058 11.3284 11.1199 11.2336 11.1467 11.1267C11.183 11.0038 11.1708 10.8716 11.1124 10.7574C11.0541 10.6433 10.9542 10.5559 10.8333 10.5133C10.2681 10.3624 9.73345 10.1143 9.25333 9.78C9.23379 9.76801 9.21749 9.75141 9.20587 9.73165C9.19424 9.71189 9.18765 9.68957 9.18667 9.66667C9.17086 9.62363 9.17086 9.57637 9.18667 9.53333C9.67355 8.96304 10.0551 8.31064 10.3133 7.60667C10.3253 7.57561 10.3463 7.54885 10.3737 7.52984C10.401 7.51082 10.4334 7.50043 10.4667 7.5H11.02C11.1526 7.5 11.2798 7.44732 11.3736 7.35355C11.4673 7.25979 11.52 7.13261 11.52 7C11.52 6.86739 11.4673 6.74021 11.3736 6.64645C11.2798 6.55268 11.1526 6.5 11.02 6.5H9.02C8.9758 6.5 8.9334 6.48244 8.90215 6.45118C8.87089 6.41993 8.85333 6.37754 8.85333 6.33333V5.66667C8.85333 5.53406 8.80065 5.40688 8.70689 5.31311C8.61312 5.21935 8.48594 5.16667 8.35333 5.16667C8.22073 5.16667 8.09355 5.21935 7.99978 5.31311C7.90601 5.40688 7.85333 5.53406 7.85333 5.66667V6.33333C7.85333 6.37754 7.83577 6.41993 7.80452 6.45118C7.77326 6.48244 7.73087 6.5 7.68667 6.5H5.68667C5.55406 6.5 5.42688 6.55268 5.33311 6.64645C5.23935 6.74021 5.18667 6.86739 5.18667 7C5.18667 7.13261 5.23935 7.25979 5.33311 7.35355C5.42688 7.44732 5.55406 7.5 5.68667 7.5H6.2C6.23329 7.50043 6.26568 7.51082 6.29301 7.52984C6.32034 7.54885 6.34135 7.57561 6.35333 7.60667C6.62171 8.31307 7.01459 8.96563 7.51333 9.53333C7.52914 9.57637 7.52914 9.62363 7.51333 9.66667C7.51235 9.68957 7.50576 9.71189 7.49413 9.73165C7.48251 9.75141 7.46621 9.76801 7.44667 9.78C6.96655 10.1143 6.4319 10.3624 5.86667 10.5133C5.74535 10.5415 5.6389 10.6138 5.56814 10.7163C5.49738 10.8188 5.46741 10.944 5.48408 11.0674C5.50076 11.1908 5.56289 11.3035 5.65831 11.3835C5.75373 11.4636 5.87557 11.5051 6 11.5C6.81289 11.3175 7.57548 10.9579 8.23333 10.4467C8.26171 10.4239 8.29698 10.4116 8.33333 10.4116C8.36969 10.4116 8.40496 10.4239 8.43333 10.4467C9.09153 10.9573 9.85399 11.3169 10.6667 11.5C10.7769 11.5003 10.884 11.4637 10.971 11.3961ZM9.18672 7.74001C9.20014 7.71548 9.20717 7.68797 9.20717 7.66001C9.20717 7.63205 9.20014 7.60454 9.18672 7.58001C9.17148 7.55495 9.14989 7.53435 9.12413 7.52031C9.09838 7.50626 9.06938 7.49926 9.04005 7.50001H7.63339C7.60406 7.49926 7.57506 7.50626 7.54931 7.52031C7.52355 7.53435 7.50196 7.55495 7.48672 7.58001C7.4733 7.60454 7.46626 7.63205 7.46626 7.66001C7.46626 7.68797 7.4733 7.71548 7.48672 7.74001C7.68037 8.13706 7.92219 8.50875 8.20672 8.84668C8.22237 8.86497 8.24179 8.87966 8.26366 8.88974C8.28552 8.89981 8.30931 8.90502 8.33339 8.90502C8.35746 8.90502 8.38125 8.89981 8.40312 8.88974C8.42498 8.87966 8.44441 8.86497 8.46005 8.84668C8.74691 8.50911 8.99098 8.13741 9.18672 7.74001ZM14.3333 11.3333H19.2799C19.4709 11.3333 19.654 11.4092 19.7891 11.5442C19.9241 11.6792 19.9999 11.8624 19.9999 12.0533V19.2733C19.9999 19.4649 19.9243 19.6487 19.7895 19.7848C19.6546 19.9209 19.4715 19.9982 19.2799 20H12.0533C11.8617 19.9982 11.6786 19.9209 11.5437 19.7848C11.4089 19.6487 11.3333 19.4649 11.3333 19.2733V14.3333C11.3333 14.2449 11.3684 14.1601 11.4309 14.0976C11.4934 14.0351 11.5782 14 11.6666 14H11.9466C12.2168 14 12.4844 13.9467 12.7339 13.8431C12.9835 13.7394 13.2101 13.5876 13.4009 13.3962C13.5917 13.2048 13.7428 12.9777 13.8456 12.7278C13.9484 12.4779 14.0008 12.2102 13.9999 11.94V11.6667C13.9999 11.5782 14.0351 11.4935 14.0976 11.4309C14.1601 11.3684 14.2449 11.3333 14.3333 11.3333ZM17.641 18.842C17.7095 18.842 17.7773 18.8277 17.8399 18.8C17.9018 18.777 17.9586 18.742 18.0069 18.697C18.0552 18.652 18.0941 18.5979 18.1213 18.5378C18.1486 18.4776 18.1637 18.4127 18.1658 18.3467C18.1678 18.2808 18.1568 18.215 18.1333 18.1533L16.4466 13.6533C16.3869 13.4947 16.2803 13.358 16.1409 13.2615C16.0016 13.165 15.8361 13.1133 15.6666 13.1133C15.4971 13.1133 15.3316 13.165 15.1923 13.2615C15.0529 13.358 14.9463 13.4947 14.8866 13.6533L13.1999 18.1533C13.1717 18.2156 13.1566 18.2829 13.1554 18.3513C13.1543 18.4196 13.1671 18.4874 13.1932 18.5506C13.2193 18.6138 13.2581 18.6709 13.3071 18.7185C13.3561 18.7661 13.4144 18.8031 13.4783 18.8273C13.5422 18.8515 13.6104 18.8624 13.6787 18.8592C13.747 18.856 13.8138 18.8388 13.8752 18.8088C13.9366 18.7787 13.9912 18.7364 14.0355 18.6845C14.0799 18.6325 14.1132 18.572 14.1333 18.5067L14.4733 17.6067C14.4853 17.5756 14.5063 17.5488 14.5336 17.5298C14.5609 17.5108 14.5933 17.5004 14.6266 17.5H16.6799C16.7132 17.5004 16.7456 17.5108 16.773 17.5298C16.8003 17.5488 16.8213 17.5756 16.8333 17.6067L17.1733 18.5067C17.1952 18.5716 17.2304 18.6312 17.2767 18.6818C17.323 18.7323 17.3792 18.7727 17.442 18.8003C17.5047 18.8279 17.5725 18.8421 17.641 18.842ZM14.9538 16.35C14.9538 16.3232 14.9606 16.2968 14.9734 16.2733L15.4734 14.84C15.4862 14.8099 15.5076 14.7843 15.5348 14.7663C15.5621 14.7482 15.5941 14.7386 15.6267 14.7386C15.6594 14.7386 15.6914 14.7482 15.7186 14.7663C15.7459 14.7843 15.7673 14.8099 15.7801 14.84L16.3201 16.2733C16.3329 16.2968 16.3396 16.3232 16.3396 16.35C16.3396 16.3768 16.3329 16.4031 16.3201 16.4266C16.3061 16.4494 16.2865 16.4682 16.2631 16.481C16.2398 16.4939 16.2134 16.5004 16.1867 16.5H15.1067C15.08 16.5004 15.0537 16.4939 15.0303 16.481C15.0069 16.4682 14.9873 16.4494 14.9734 16.4266C14.9606 16.4031 14.9538 16.3768 14.9538 16.35ZM15.7666 7.56666C15.8124 7.61357 15.8711 7.64565 15.9353 7.65873C15.9995 7.67181 16.0662 7.66528 16.1266 7.63999C16.1875 7.61498 16.2396 7.57252 16.2764 7.51794C16.3132 7.46337 16.333 7.39913 16.3333 7.33332V7.12666C16.3332 7.09769 16.3407 7.0692 16.355 7.04399C16.3693 7.01879 16.3899 6.99775 16.4148 6.98295C16.4397 6.96814 16.468 6.96008 16.497 6.95956C16.5259 6.95904 16.5545 6.96608 16.58 6.97999C17.008 7.20636 17.3663 7.54502 17.6165 7.95962C17.8667 8.37421 17.9992 8.8491 18 9.33332C18 9.51014 18.0702 9.6797 18.1952 9.80473C18.3202 9.92975 18.4898 9.99999 18.6666 9.99999C18.8434 9.99999 19.013 9.92975 19.138 9.80473C19.2631 9.6797 19.3333 9.51014 19.3333 9.33332C19.3319 8.46898 19.0505 7.62836 18.5313 6.93732C18.0121 6.24628 17.2831 5.742 16.4533 5.49999C16.4181 5.48862 16.3875 5.46632 16.366 5.43634C16.3444 5.40636 16.3329 5.37027 16.3333 5.33332V4.66666C16.3337 4.60085 16.3146 4.5364 16.2784 4.48143C16.2422 4.42646 16.1906 4.38343 16.13 4.35776C16.0694 4.33209 16.0025 4.32494 15.9379 4.3372C15.8732 4.34946 15.8136 4.38059 15.7666 4.42666L14.4333 5.75999C14.4021 5.79098 14.3773 5.82785 14.3603 5.86846C14.3434 5.90908 14.3347 5.95265 14.3347 5.99666C14.3347 6.04066 14.3434 6.08423 14.3603 6.12485C14.3773 6.16547 14.4021 6.20234 14.4333 6.23332L15.7666 7.56666ZM4.86199 13.5286C4.98701 13.4036 5.15658 13.3333 5.33339 13.3333C5.5102 13.3333 5.67977 13.4036 5.8048 13.5286C5.92982 13.6536 6.00006 13.8232 6.00006 14C6.00199 14.4831 6.13512 14.9566 6.38522 15.3699C6.63532 15.7832 6.99301 16.1208 7.42006 16.3467C7.4454 16.3613 7.47414 16.369 7.50339 16.369C7.53265 16.369 7.56139 16.3613 7.58673 16.3467C7.61126 16.3325 7.6316 16.3121 7.64565 16.2875C7.65971 16.2629 7.66698 16.235 7.66673 16.2067V16C7.66634 15.9342 7.68544 15.8697 7.72163 15.8148C7.75781 15.7598 7.80946 15.7168 7.87006 15.6911C7.93066 15.6654 7.9975 15.6583 8.06215 15.6705C8.12681 15.6828 8.1864 15.7139 8.23339 15.76L9.56673 17.0933C9.59797 17.1243 9.62277 17.1612 9.63969 17.2018C9.65661 17.2424 9.66533 17.286 9.66533 17.33C9.66533 17.374 9.65661 17.4176 9.63969 17.4582C9.62277 17.4988 9.59797 17.5357 9.56673 17.5667L8.23339 18.9C8.18766 18.9469 8.12888 18.979 8.06468 18.9921C8.00048 19.0051 7.93383 18.9986 7.87339 18.9733C7.81252 18.9483 7.76041 18.9058 7.72363 18.8513C7.68686 18.7967 7.66705 18.7325 7.66673 18.6667V18C7.66821 17.9628 7.65719 17.9262 7.63545 17.896C7.6137 17.8658 7.58247 17.8437 7.54673 17.8333C6.71696 17.5913 5.98791 17.087 5.46872 16.396C4.94954 15.7049 4.66817 14.8643 4.66673 14C4.66673 13.8232 4.73696 13.6536 4.86199 13.5286Z" fill="#161616"/>
</svg>
