<svg width="24" height="24" viewBox="0 0 24 24" fill="none" xmlns="http://www.w3.org/2000/svg">
  <path fill-rule="evenodd" clip-rule="evenodd" d="M12.2797 12.764C12.1699 12.8098 12.0522 12.8333 11.9333 12.8333H2.9C2.66054 12.8311 2.43164 12.7345 2.26309 12.5644C2.09454 12.3943 1.99999 12.1645 2 11.925V2.9C2 2.66131 2.09482 2.43239 2.2636 2.2636C2.43239 2.09482 2.66131 2 2.9 2H11.9333C12.172 2 12.4009 2.09482 12.5697 2.2636C12.7385 2.43239 12.8333 2.66131 12.8333 2.9V11.925C12.8344 12.0439 12.812 12.1618 12.7672 12.272C12.7225 12.3821 12.6564 12.4823 12.5727 12.5668C12.489 12.6512 12.3894 12.7183 12.2797 12.764ZM10.7138 11.2451C10.8225 11.1605 10.8998 11.042 10.9333 10.9083C10.9788 10.7547 10.9634 10.5895 10.8906 10.4468C10.8177 10.3041 10.6928 10.1949 10.5417 10.1417C9.83512 9.95305 9.16681 9.64287 8.56667 9.225C8.54224 9.21002 8.52186 9.18926 8.50733 9.16456C8.4928 9.13986 8.48456 9.11197 8.48333 9.08333C8.46357 9.02954 8.46357 8.97047 8.48333 8.91667C9.09193 8.20379 9.56881 7.3883 9.89167 6.50833C9.90664 6.46951 9.93291 6.43606 9.96707 6.41229C10.0012 6.38853 10.0417 6.37554 10.0833 6.375H10.775C10.9408 6.375 11.0997 6.30915 11.2169 6.19194C11.3342 6.07473 11.4 5.91576 11.4 5.75C11.4 5.58424 11.3342 5.42527 11.2169 5.30806C11.0997 5.19085 10.9408 5.125 10.775 5.125H8.275C8.21975 5.125 8.16676 5.10305 8.12769 5.06398C8.08862 5.02491 8.06667 4.97192 8.06667 4.91667V4.08333C8.06667 3.91757 8.00082 3.7586 7.88361 3.64139C7.7664 3.52418 7.60743 3.45833 7.44167 3.45833C7.27591 3.45833 7.11694 3.52418 6.99973 3.64139C6.88251 3.7586 6.81667 3.91757 6.81667 4.08333V4.91667C6.81667 4.97192 6.79472 5.02491 6.75565 5.06398C6.71658 5.10305 6.66359 5.125 6.60833 5.125H4.10833C3.94257 5.125 3.7836 5.19085 3.66639 5.30806C3.54918 5.42527 3.48333 5.58424 3.48333 5.75C3.48333 5.91576 3.54918 6.07473 3.66639 6.19194C3.7836 6.30915 3.94257 6.375 4.10833 6.375H4.75C4.79161 6.37554 4.83211 6.38853 4.86627 6.41229C4.90043 6.43606 4.92669 6.46951 4.94167 6.50833C5.27713 7.39134 5.76824 8.20703 6.39167 8.91667C6.41143 8.97047 6.41143 9.02954 6.39167 9.08333C6.39044 9.11197 6.3822 9.13986 6.36767 9.16456C6.35314 9.18926 6.33276 9.21002 6.30833 9.225C5.70819 9.64287 5.03988 9.95305 4.33333 10.1417C4.18169 10.1768 4.04863 10.2673 3.96018 10.3954C3.87173 10.5235 3.83426 10.68 3.8551 10.8342C3.87595 10.9885 3.95361 11.1294 4.07289 11.2294C4.19216 11.3294 4.34447 11.3814 4.5 11.375C5.51612 11.1469 6.46936 10.6973 7.29167 10.0583C7.32714 10.0299 7.37123 10.0145 7.41667 10.0145C7.46211 10.0145 7.50619 10.0299 7.54167 10.0583C8.36441 10.6966 9.31748 11.1461 10.3333 11.375C10.4711 11.3754 10.605 11.3297 10.7138 11.2451ZM8.4834 6.67501C8.50018 6.64435 8.50897 6.60996 8.50897 6.57501C8.50897 6.54006 8.50018 6.50567 8.4834 6.47501C8.46434 6.44369 8.43736 6.41794 8.40517 6.40038C8.37298 6.38282 8.33672 6.37407 8.30007 6.37501H6.54173C6.50508 6.37407 6.46882 6.38282 6.43663 6.40038C6.40444 6.41794 6.37745 6.44369 6.3584 6.47501C6.34162 6.50567 6.33283 6.54006 6.33283 6.57501C6.33283 6.60996 6.34162 6.64435 6.3584 6.67501C6.60047 7.17133 6.90274 7.63593 7.2584 8.05835C7.27796 8.08122 7.30224 8.09958 7.32957 8.11217C7.3569 8.12476 7.38664 8.13128 7.41673 8.13128C7.44683 8.13128 7.47656 8.12476 7.50389 8.11217C7.53123 8.09958 7.55551 8.08122 7.57507 8.05835C7.93364 7.63639 8.23873 7.17176 8.4834 6.67501ZM14.9166 11.1666H21.0999C21.3386 11.1666 21.5675 11.2615 21.7363 11.4303C21.9051 11.599 21.9999 11.828 21.9999 12.0666V21.0916C21.9999 21.3311 21.9054 21.5609 21.7368 21.731C21.5683 21.9011 21.3394 21.9978 21.0999 22H12.0666C11.8271 21.9978 11.5982 21.9011 11.4297 21.731C11.2611 21.5609 11.1666 21.3311 11.1666 21.0916V14.9166C11.1666 14.8061 11.2105 14.7002 11.2886 14.622C11.3668 14.5439 11.4728 14.5 11.5833 14.5H11.9333C12.271 14.5 12.6055 14.4333 12.9174 14.3038C13.2294 14.1743 13.5127 13.9845 13.7511 13.7453C13.9896 13.5061 14.1785 13.2221 14.3069 12.9098C14.4354 12.5974 14.501 12.2627 14.4999 11.925V11.5833C14.4999 11.4728 14.5438 11.3668 14.622 11.2887C14.7001 11.2105 14.8061 11.1666 14.9166 11.1666ZM19.0512 20.5525C19.1369 20.5525 19.2216 20.5346 19.2999 20.5C19.3773 20.4713 19.4482 20.4275 19.5086 20.3713C19.5689 20.315 19.6176 20.2474 19.6517 20.1722C19.6858 20.0971 19.7046 20.0159 19.7072 19.9334C19.7098 19.8509 19.696 19.7688 19.6666 19.6916L17.5583 14.0666C17.4837 13.8683 17.3504 13.6975 17.1762 13.5769C17.002 13.4563 16.7951 13.3916 16.5833 13.3916C16.3714 13.3916 16.1645 13.4563 15.9903 13.5769C15.8161 13.6975 15.6828 13.8683 15.6083 14.0666L13.4999 19.6916C13.4647 19.7695 13.4457 19.8537 13.4443 19.9391C13.4428 20.0245 13.4589 20.1093 13.4915 20.1882C13.5241 20.2672 13.5726 20.3386 13.6339 20.3981C13.6952 20.4576 13.768 20.5039 13.8479 20.5342C13.9278 20.5644 14.013 20.578 14.0984 20.574C14.1837 20.57 14.2673 20.5485 14.344 20.511C14.4208 20.4734 14.489 20.4205 14.5444 20.3556C14.5999 20.2906 14.6415 20.215 14.6666 20.1333L15.0916 19.0083C15.1066 18.9695 15.1328 18.936 15.167 18.9123C15.2012 18.8885 15.2416 18.8755 15.2833 18.875H17.8499C17.8915 18.8755 17.932 18.8885 17.9662 18.9123C18.0004 18.936 18.0266 18.9695 18.0416 19.0083L18.4666 20.1333C18.494 20.2145 18.538 20.289 18.5959 20.3522C18.6537 20.4154 18.724 20.4658 18.8024 20.5003C18.8808 20.5348 18.9656 20.5526 19.0512 20.5525ZM15.6923 17.4375C15.6923 17.404 15.7007 17.371 15.7167 17.3416L16.3417 15.55C16.3578 15.5124 16.3845 15.4804 16.4185 15.4578C16.4526 15.4353 16.4926 15.4233 16.5334 15.4233C16.5743 15.4233 16.6142 15.4353 16.6483 15.4578C16.6824 15.4804 16.7091 15.5124 16.7251 15.55L17.4001 17.3416C17.4161 17.371 17.4245 17.404 17.4245 17.4375C17.4245 17.471 17.4161 17.5039 17.4001 17.5333C17.3827 17.5618 17.3582 17.5852 17.3289 17.6013C17.2997 17.6174 17.2668 17.6255 17.2334 17.625H15.8834C15.8501 17.6255 15.8171 17.6174 15.7879 17.6013C15.7587 17.5852 15.7341 17.5618 15.7167 17.5333C15.7007 17.5039 15.6923 17.471 15.6923 17.4375ZM16.7083 6.45832C16.7654 6.51696 16.8389 6.55706 16.9192 6.57341C16.9994 6.58976 17.0827 6.5816 17.1583 6.54999C17.2344 6.51873 17.2995 6.46565 17.3455 6.39743C17.3915 6.32921 17.4162 6.24892 17.4166 6.16665V5.90832C17.4165 5.87211 17.4259 5.83649 17.4437 5.80499C17.4616 5.77349 17.4873 5.74719 17.5185 5.72868C17.5496 5.71017 17.585 5.7001 17.6212 5.69945C17.6574 5.6988 17.6932 5.70761 17.725 5.72499C18.26 6.00796 18.7079 6.43127 19.0206 6.94952C19.3334 7.46776 19.499 8.06137 19.5 8.66665C19.5 8.88767 19.5877 9.09963 19.744 9.25591C19.9003 9.41219 20.1123 9.49999 20.3333 9.49999C20.5543 9.49999 20.7663 9.41219 20.9225 9.25591C21.0788 9.09963 21.1666 8.88767 21.1666 8.66665C21.1648 7.58623 20.8131 6.53545 20.1641 5.67165C19.5151 4.80785 18.6038 4.17751 17.5666 3.87499C17.5227 3.86078 17.4844 3.83291 17.4574 3.79543C17.4305 3.75795 17.4162 3.71283 17.4166 3.66665V2.83332C17.4171 2.75106 17.3932 2.6705 17.348 2.60178C17.3028 2.53307 17.2382 2.47928 17.1625 2.4472C17.0867 2.41512 17.0032 2.40618 16.9223 2.4215C16.8415 2.43683 16.767 2.47574 16.7083 2.53332L15.0416 4.19999C15.0026 4.23872 14.9716 4.28481 14.9504 4.33558C14.9293 4.38636 14.9184 4.44082 14.9184 4.49582C14.9184 4.55083 14.9293 4.60529 14.9504 4.65606C14.9716 4.70684 15.0026 4.75292 15.0416 4.79165L16.7083 6.45832ZM3.07748 13.9107C3.23377 13.7544 3.44573 13.6666 3.66674 13.6666C3.88775 13.6666 4.09972 13.7544 4.256 13.9107C4.41228 14.067 4.50007 14.279 4.50007 14.5C4.50249 15.1038 4.6689 15.6957 4.98152 16.2124C5.29415 16.729 5.74126 17.151 6.27507 17.4333C6.30674 17.4516 6.34267 17.4612 6.37924 17.4612C6.41581 17.4612 6.45174 17.4516 6.48341 17.4333C6.51408 17.4156 6.53949 17.3901 6.55706 17.3593C6.57463 17.3286 6.58372 17.2937 6.58341 17.2583V17C6.58292 16.9177 6.6068 16.8372 6.65203 16.7684C6.69726 16.6997 6.76182 16.6459 6.83757 16.6139C6.91332 16.5818 6.99687 16.5728 7.07769 16.5882C7.15852 16.6035 7.23299 16.6424 7.29174 16.7L8.95841 18.3666C8.99746 18.4054 9.02846 18.4515 9.04961 18.5022C9.07077 18.553 9.08166 18.6075 9.08166 18.6625C9.08166 18.7175 9.07077 18.7719 9.04961 18.8227C9.02846 18.8735 8.99746 18.9196 8.95841 18.9583L7.29174 20.625C7.23458 20.6836 7.1611 20.7237 7.08085 20.7401C7.0006 20.7564 6.91729 20.7483 6.84174 20.7166C6.76565 20.6854 6.70051 20.6323 6.65454 20.5641C6.60857 20.4959 6.58382 20.4156 6.58341 20.3333V19.5C6.58526 19.4535 6.57149 19.4077 6.54431 19.37C6.51712 19.3322 6.47808 19.3046 6.43341 19.2916C5.3962 18.9891 4.48488 18.3588 3.8359 17.495C3.18693 16.6312 2.83521 15.5804 2.83341 14.5C2.83341 14.279 2.9212 14.067 3.07748 13.9107Z" fill="#161616"/>
</svg>
