<svg width="24" height="24" viewBox="0 0 24 24" fill="none" xmlns="http://www.w3.org/2000/svg">
<path fill-rule="evenodd" clip-rule="evenodd" d="M7.05307 17.2787C6.93223 17.5254 7.0329 17.8234 7.27856 17.9462C7.52422 18.069 7.82292 17.9706 7.94759 17.7259L9.21913 15.1826C9.23816 15.1437 9.23608 15.0977 9.21363 15.0606C9.19038 15.0243 9.15021 15.0024 9.10712 15.0026H8.2686C8.22117 15.0024 8.17774 15.0291 8.1566 15.0716L7.05307 17.2787ZM9.46109 14.5024C9.48271 14.5022 9.50009 14.4846 9.50009 14.4629C9.50885 14.1858 9.60946 13.9194 9.7861 13.7057C9.81619 13.6684 9.82232 13.6172 9.80188 13.5738C9.78143 13.5305 9.73801 13.5026 9.69009 13.5022H7.87505C7.80601 13.5022 7.75004 13.4462 7.75004 13.3771V8.75079C7.75004 8.61268 7.86198 8.50072 8.00005 8.50072H15.0002C15.1383 8.50072 15.2502 8.61268 15.2502 8.75079V12.1933C15.2504 12.2461 15.2836 12.2933 15.3332 12.3113L16.0833 12.5789C16.1215 12.5925 16.164 12.5868 16.1972 12.5634C16.2304 12.54 16.2502 12.502 16.2503 12.4614V8.75079C16.2503 8.41917 16.1186 8.10114 15.8841 7.86665C15.6497 7.63216 15.3318 7.50043 15.0002 7.50043H12.1252C12.0561 7.50043 12.0002 7.44445 12.0002 7.37539V6.50014C12.0002 6.22392 11.7763 6 11.5001 6C11.224 6 11.0001 6.22392 11.0001 6.50014V7.37539C11.0001 7.44445 10.9442 7.50043 10.8751 7.50043H8.00005C7.30968 7.50043 6.75002 8.06024 6.75002 8.75079V13.3771C6.75002 13.4462 6.69405 13.5022 6.62502 13.5022H6.50001C6.22386 13.5022 6 13.7261 6 14.0023C6 14.2785 6.22386 14.5024 6.50001 14.5024H9.46109ZM16.5003 16.0414C16.5004 15.9994 16.4793 15.9602 16.4442 15.9371C16.4091 15.914 16.3648 15.9102 16.3263 15.9269L14.5457 16.6901C14.3569 16.7705 14.1435 16.7705 13.9547 16.6901L12.1747 15.9269C12.1361 15.9105 12.0918 15.9145 12.0568 15.9375C12.0217 15.9605 12.0005 15.9995 12.0001 16.0414V16.7756C12.0003 17.034 12.1592 17.2656 12.4002 17.3588L14.0182 17.9559C14.1654 18.0147 14.3295 18.0147 14.4767 17.9559L14.9742 17.7724C15.0241 17.7538 15.0803 17.7688 15.1142 17.8099C15.2595 17.9947 15.5149 18.0515 15.7247 17.9454C15.8962 17.8587 16.0009 17.6794 15.9922 17.4873C15.9909 17.4336 16.0238 17.3849 16.0743 17.3663L16.1083 17.3538C16.3448 17.2593 16.5 17.0304 16.5003 16.7756V16.0414ZM10.5002 16.503C10.5002 16.7792 10.724 17.0032 11.0002 17.0032C11.2763 17.0032 11.5002 16.7792 11.5002 16.503V15.7228C11.5004 15.6728 11.4707 15.6274 11.4247 15.6078L10.6747 15.2862C10.6357 15.2697 10.5911 15.2738 10.556 15.2973C10.5208 15.3208 10.4998 15.3604 10.5002 15.4027V16.503ZM17.8343 14.2659L14.3343 13.0155C14.2799 12.9961 14.2206 12.9961 14.1662 13.0155L10.6662 14.2659C10.5695 14.3006 10.5039 14.391 10.5008 14.4937C10.4978 14.5964 10.5578 14.6905 10.6522 14.731L14.1522 16.2314C14.2149 16.2586 14.2861 16.2586 14.3488 16.2314L17.8488 14.731C17.9432 14.6904 18.0031 14.5962 17.9999 14.4935C17.9967 14.3908 17.931 14.3005 17.8343 14.2659Z" fill="#161616"/>
</svg>
