<svg width="24" height="24" viewBox="0 0 24 24" fill="none" xmlns="http://www.w3.org/2000/svg">
<path fill-rule="evenodd" clip-rule="evenodd" d="M5.40409 19.0383C5.24297 19.3672 5.3772 19.7645 5.70475 19.9283C6.0323 20.092 6.43056 19.9608 6.59679 19.6345L8.29217 16.2435C8.31754 16.1916 8.31478 16.1303 8.28484 16.0808C8.25383 16.0324 8.20027 16.0032 8.14283 16.0034H7.0248C6.96156 16.0032 6.90366 16.0388 6.87547 16.0955L5.40409 19.0383ZM8.61479 15.3366C8.64361 15.3362 8.66679 15.3127 8.66679 15.2839C8.67847 14.9144 8.81261 14.5592 9.04813 14.2743C9.08826 14.2246 9.09643 14.1562 9.06917 14.0984C9.04191 14.0406 8.98402 14.0035 8.92013 14.0029H6.50006C6.40801 14.0029 6.33339 13.9282 6.33339 13.8362V7.66772C6.33339 7.48357 6.48264 7.33429 6.66674 7.33429H16.0003C16.1844 7.33429 16.3337 7.48357 16.3337 7.66772V12.2577C16.3339 12.3282 16.3781 12.391 16.4443 12.4151L17.4443 12.7719C17.4953 12.79 17.552 12.7823 17.5963 12.7512C17.6405 12.72 17.6669 12.6693 17.667 12.6151V7.66772C17.667 7.22556 17.4914 6.80152 17.1789 6.48887C16.8663 6.17622 16.4423 6.00057 16.0003 6.00057H12.1669C12.0748 6.00057 12.0002 5.92593 12.0002 5.83386V4.66686C12.0002 4.29856 11.7017 4 11.3335 4C10.9653 4 10.6668 4.29856 10.6668 4.66686V5.83386C10.6668 5.92593 10.5922 6.00057 10.5002 6.00057H6.66674C5.74624 6.00057 5.00003 6.74698 5.00003 7.66772V13.8362C5.00003 13.9282 4.9254 14.0029 4.83335 14.0029H4.66668C4.29848 14.0029 4 14.3014 4 14.6697C4 15.038 4.29848 15.3366 4.66668 15.3366H8.61479ZM18.0004 17.3885C18.0005 17.3325 17.9724 17.2802 17.9256 17.2495C17.8789 17.2187 17.8198 17.2135 17.7684 17.2358L15.3943 18.2534C15.1426 18.3606 14.8581 18.3606 14.6063 18.2534L12.2329 17.2358C12.1815 17.214 12.1225 17.2193 12.0758 17.25C12.029 17.2806 12.0007 17.3326 12.0002 17.3885V18.3675C12.0005 18.7119 12.2124 19.0208 12.5336 19.145L14.691 19.9412C14.8872 20.0196 15.1061 20.0196 15.3023 19.9412L15.9657 19.6965C16.0322 19.6717 16.1071 19.6918 16.1524 19.7465C16.346 19.993 16.6866 20.0686 16.9664 19.9272C17.195 19.8115 17.3346 19.5725 17.323 19.3164C17.3212 19.2447 17.3651 19.1798 17.4324 19.155L17.4777 19.1384C17.7931 19.0124 18.0001 18.7071 18.0004 18.3675V17.3885ZM10.0002 18.004C10.0002 18.3723 10.2987 18.6709 10.6669 18.6709C11.0351 18.6709 11.3336 18.3723 11.3336 18.004V16.9637C11.3339 16.897 11.2943 16.8366 11.2329 16.8103L10.2329 16.3816C10.181 16.3595 10.1215 16.3651 10.0747 16.3964C10.0278 16.4277 9.99982 16.4806 10.0002 16.5369V18.004ZM19.7791 15.0212L15.1123 13.354C15.0399 13.3282 14.9608 13.3282 14.8883 13.354L10.2215 15.0212C10.0927 15.0675 10.0052 15.188 10.0011 15.3249C9.99701 15.4618 10.077 15.5873 10.2029 15.6413L14.8697 17.6419C14.9532 17.6782 15.0481 17.6782 15.1317 17.6419L19.7985 15.6413C19.9243 15.5872 20.0042 15.4616 19.9999 15.3247C19.9956 15.1877 19.9081 15.0674 19.7791 15.0212Z" fill="#161616"/>
</svg>
