<svg width="24" height="24" viewBox="0 0 24 24" fill="none" xmlns="http://www.w3.org/2000/svg">
<path fill-rule="evenodd" clip-rule="evenodd" d="M9.50002 10.75C10.8117 10.75 11.875 9.68669 11.875 8.37501C11.875 7.06333 10.8117 6 9.50002 6C8.18833 6 7.12501 7.06333 7.12501 8.37501C7.12501 9.68669 8.18833 10.75 9.50002 10.75ZM12 12.6095C11.545 12.8062 11.2503 13.2544 11.25 13.75V14C11.25 14.1381 11.138 14.25 11 14.25H6.24995C6.17099 14.25 6.09668 14.2127 6.04952 14.1494C6.00235 14.0861 5.98786 14.0042 6.01044 13.9285C6.37097 12.7034 7.33316 11.748 8.56073 11.396C9.7883 11.0441 11.1106 11.3446 12.0655 12.1925C12.1297 12.249 12.1606 12.3345 12.1473 12.419C12.134 12.5036 12.0785 12.5754 12 12.6095ZM17.9356 15.021C17.8958 14.9989 17.8471 15.0002 17.8086 15.0245L15.596 16.5636C15.231 16.7902 14.7691 16.7902 14.404 16.5636L12.1915 15.0245C12.153 15.0003 12.1043 14.999 12.0645 15.021C12.0247 15.0431 12 15.085 12 15.1305V17.2501C12 17.449 12.079 17.6397 12.2197 17.7804C12.3604 17.921 12.5511 18.0001 12.75 18.0001H17.2501C17.6643 18.0001 18.0001 17.6643 18.0001 17.2501V15.1305C18.0002 15.085 17.9755 15.043 17.9356 15.021ZM17.2501 13.25C17.6643 13.25 18.0001 13.5858 18.0001 14C17.9997 14.0131 17.9925 14.0251 17.9811 14.0315L15.197 15.9276C15.0755 16.0031 14.9216 16.0031 14.8 15.9276L12.0175 14.0315C12.0066 14.0248 12 14.0129 12 14C12 13.5858 12.3358 13.25 12.75 13.25H17.2501Z" fill="#161616"/>
</svg>
