<svg width="24" height="24" viewBox="0 0 24 24" fill="none" xmlns="http://www.w3.org/2000/svg">
<path d="M10.7499 12.728C10.7502 12.4209 10.8442 12.1212 11.0194 11.869C11.063 11.8058 11.0751 11.7261 11.0523 11.6528C11.0294 11.5795 10.9742 11.5208 10.9024 11.4935C10.4876 11.3338 10.047 11.2513 9.60244 11.25C7.94703 11.2578 6.49018 12.3441 6.01044 13.9285C5.98786 14.0042 6.00235 14.086 6.04952 14.1494C6.09668 14.2127 6.17099 14.25 6.24994 14.25H10.4999C10.638 14.25 10.7499 14.1381 10.7499 14V12.728Z" fill="#161616"/>
<path d="M9.49994 10.75C10.8116 10.75 11.8749 9.68668 11.8749 8.375C11.8749 7.06332 10.8116 6 9.49994 6C8.18827 6 7.12494 7.06332 7.12494 8.375C7.12494 9.68668 8.18827 10.75 9.49994 10.75Z" fill="#161616"/>
<path fill-rule="evenodd" clip-rule="evenodd" d="M14.7389 11.5C15.6945 11.509 16.641 11.685 17.5359 12.02C17.8177 12.1427 17.9999 12.4207 17.9999 12.728V14.4245C17.9999 15.841 16.9239 17.24 15.3834 17.827C15.1828 17.9284 14.9634 17.9873 14.7389 18C14.5145 17.9882 14.2951 17.9293 14.0949 17.827C12.6226 17.3204 11.5991 15.9784 11.4999 14.4245V12.728C11.5 12.4207 11.6822 12.1427 11.9639 12.02C12.8508 11.6834 13.7904 11.5074 14.7389 11.5ZM15.3749 13.875C15.2369 13.875 15.1249 13.7631 15.1249 13.625V12.75C15.1249 12.5429 14.9571 12.375 14.7499 12.375C14.5428 12.375 14.3749 12.5429 14.3749 12.75V13.625C14.3749 13.7631 14.263 13.875 14.1249 13.875H13.2499C13.0428 13.875 12.8749 14.0429 12.8749 14.25C12.8749 14.4571 13.0428 14.625 13.2499 14.625H14.1249C14.263 14.625 14.3749 14.7369 14.3749 14.875V15.75C14.3749 15.9571 14.5428 16.125 14.7499 16.125C14.9571 16.125 15.1249 15.9571 15.1249 15.75V14.875C15.1249 14.7369 15.2369 14.625 15.3749 14.625H16.2499C16.4571 14.625 16.6249 14.4571 16.6249 14.25C16.6249 14.0429 16.4571 13.875 16.2499 13.875H15.3749Z" fill="#161616"/>
</svg>
