<svg width="24" height="24" viewBox="0 0 24 24" fill="none" xmlns="http://www.w3.org/2000/svg">
<path fill-rule="evenodd" clip-rule="evenodd" d="M8.66669 10.3334C10.4156 10.3334 11.8334 8.91559 11.8334 7.16668C11.8334 5.41777 10.4156 4 8.66669 4C6.91778 4 5.50001 5.41777 5.50001 7.16668C5.50001 8.91559 6.91778 10.3334 8.66669 10.3334ZM12 12.8127C11.3933 13.075 11.0004 13.6725 11 14.3334V14.6667C11 14.8508 10.8507 15 10.6666 15H4.33326C4.22799 15 4.12891 14.9503 4.06602 14.8658C4.00313 14.7814 3.98382 14.6722 4.01393 14.5714C4.49462 12.9379 5.77755 11.6639 7.41431 11.1947C9.05107 10.7254 10.8141 11.1261 12.0873 12.2567C12.173 12.332 12.2141 12.446 12.1964 12.5587C12.1787 12.6714 12.1046 12.7672 12 12.8127ZM19.9141 16.0281C19.861 15.9985 19.7961 16.0003 19.7447 16.0327L16.7947 18.0847C16.308 18.3869 15.6921 18.3869 15.2054 18.0847L12.2554 16.0327C12.204 16.0004 12.1391 15.9986 12.086 16.028C12.0329 16.0574 12 16.1134 12 16.1741V19.0001C12 19.2653 12.1054 19.5197 12.2929 19.7072C12.4805 19.8947 12.7348 20.0001 13 20.0001H19.0001C19.5524 20.0001 20.0001 19.5524 20.0001 19.0001V16.1741C20.0003 16.1133 19.9673 16.0573 19.9141 16.0281ZM19.0001 13.6667C19.5524 13.6667 20.0001 14.1144 20.0001 14.6667C19.9995 14.6842 19.9899 14.7001 19.9747 14.7087L16.2627 17.2367C16.1007 17.3375 15.8955 17.3375 15.7334 17.2367L12.0234 14.7087C12.0088 14.6997 12 14.6838 12 14.6667C12 14.1144 12.4478 13.6667 13 13.6667H19.0001Z" fill="#161616"/>
</svg>
