<svg width="24" height="24" viewBox="0 0 24 24" fill="none" xmlns="http://www.w3.org/2000/svg">
<path d="M10.3333 12.9707C10.3336 12.5612 10.459 12.1616 10.6926 11.8253C10.7507 11.7411 10.7668 11.6348 10.7363 11.5371C10.7059 11.4394 10.6323 11.361 10.5366 11.3247C9.98341 11.1118 9.39599 11.0018 8.80326 11C6.59604 11.0103 4.65357 12.4588 4.01393 14.5713C3.98382 14.6722 4.00313 14.7814 4.06602 14.8658C4.12891 14.9502 4.22799 15 4.33326 15H9.99993C10.184 15 10.3333 14.8508 10.3333 14.6667V12.9707Z" fill="#161616"/>
<path d="M8.66659 10.3333C10.4155 10.3333 11.8333 8.91557 11.8333 7.16667C11.8333 5.41777 10.4155 4 8.66659 4C6.91769 4 5.49993 5.41777 5.49993 7.16667C5.49993 8.91557 6.91769 10.3333 8.66659 10.3333Z" fill="#161616"/>
<path fill-rule="evenodd" clip-rule="evenodd" d="M15.6519 11.3333C16.9259 11.3453 18.1881 11.5799 19.3813 12.0267C19.7569 12.1903 19.9998 12.561 19.9999 12.9707V15.2327C19.9999 17.1213 18.5653 18.9867 16.5113 19.7693C16.2437 19.9045 15.9512 19.983 15.6519 20C15.3527 19.9843 15.0601 19.9057 14.7933 19.7693C12.8301 19.0939 11.4654 17.3046 11.3333 15.2327V12.9707C11.3334 12.561 11.5763 12.1903 11.9519 12.0267C13.1344 11.5779 14.3872 11.3432 15.6519 11.3333ZM16.4999 14.5C16.3158 14.5 16.1666 14.3508 16.1666 14.1667V13C16.1666 12.7239 15.9427 12.5 15.6666 12.5C15.3905 12.5 15.1666 12.7239 15.1666 13V14.1667C15.1666 14.3508 15.0174 14.5 14.8333 14.5H13.6666C13.3905 14.5 13.1666 14.7239 13.1666 15C13.1666 15.2761 13.3905 15.5 13.6666 15.5H14.8333C15.0174 15.5 15.1666 15.6492 15.1666 15.8333V17C15.1666 17.2761 15.3905 17.5 15.6666 17.5C15.9427 17.5 16.1666 17.2761 16.1666 17V15.8333C16.1666 15.6492 16.3158 15.5 16.4999 15.5H17.6666C17.9427 15.5 18.1666 15.2761 18.1666 15C18.1666 14.7239 17.9427 14.5 17.6666 14.5H16.4999Z" fill="#161616"/>
</svg>
