<svg width="24" height="24" viewBox="0 0 24 24" fill="none" xmlns="http://www.w3.org/2000/svg">
<path fill-rule="evenodd" clip-rule="evenodd" d="M7.83324 9.91667C10.0194 9.91667 11.7916 8.14446 11.7916 5.95833C11.7916 3.77221 10.0194 2 7.83324 2C5.64711 2 3.87491 3.77221 3.87491 5.95833C3.87491 8.14446 5.64711 9.91667 7.83324 9.91667ZM11.9999 13.0158C11.2416 13.3437 10.7505 14.0906 10.7499 14.9167V15.3333C10.7499 15.5635 10.5634 15.75 10.3332 15.75H2.41657C2.28498 15.75 2.16114 15.6878 2.08253 15.5823C2.00392 15.4767 1.97977 15.3403 2.01741 15.2142C2.61828 13.1724 4.22193 11.5799 6.26787 10.9933C8.31381 10.4067 10.5176 10.9076 12.1091 12.3208C12.2162 12.415 12.2676 12.5574 12.2455 12.6983C12.2234 12.8392 12.1307 12.959 11.9999 13.0158ZM21.8924 17.035C21.8261 16.9981 21.7449 17.0003 21.6807 17.0408L17.9932 19.6058C17.3849 19.9835 16.6149 19.9835 16.0066 19.6058L12.3191 17.0408C12.2548 17.0005 12.1737 16.9982 12.1073 17.035C12.041 17.0717 11.9998 17.1416 11.9999 17.2175V20.75C11.9999 21.0815 12.1316 21.3995 12.366 21.6339C12.6004 21.8683 12.9184 22 13.2499 22H20.7499C21.4403 22 21.9999 21.4404 21.9999 20.75V17.2175C22.0002 17.1416 21.9589 17.0716 21.8924 17.035ZM20.7499 14.0833C21.4403 14.0833 21.9999 14.643 21.9999 15.3333C21.9993 15.3552 21.9872 15.3751 21.9682 15.3858L17.3282 18.5458C17.1257 18.6718 16.8692 18.6718 16.6666 18.5458L12.0291 15.3858C12.0109 15.3746 11.9999 15.3547 11.9999 15.3333C11.9999 14.643 12.5596 14.0833 13.2499 14.0833H20.7499Z" fill="#161616"/>
</svg>
