<svg width="24" height="24" viewBox="0 0 24 24" fill="none" xmlns="http://www.w3.org/2000/svg">
<path fill-rule="evenodd" clip-rule="evenodd" d="M12 2C6.47715 2 2 6.47715 2 12C2 17.5228 6.47715 22 12 22C17.5228 22 22 17.5228 22 12C21.994 6.47963 17.5204 2.00597 12 2ZM12 4.08333C15.0712 4.07586 17.8685 5.84862 19.1728 8.62906C20.4772 11.4095 20.0523 14.6939 18.0833 17.0508C17.9637 17.1944 17.763 17.2408 17.5925 17.1642C16.8592 16.8308 15.9717 16.5058 14.9592 16.1333L14.3392 15.905C14.1891 15.7959 14.0912 15.6292 14.0692 15.445C13.9468 15.0153 14.003 14.5544 14.225 14.1667C15.115 13.1867 15.6667 12.1333 15.6667 9.91667C15.756 8.89933 15.4065 7.89229 14.706 7.14913C14.0055 6.40598 13.0208 5.99754 12 6.02667C10.9792 5.99754 9.99452 6.40598 9.29403 7.14913C8.59355 7.89229 8.24397 8.89933 8.33333 9.91667C8.33333 12.1358 8.885 13.1892 9.775 14.1667C9.9982 14.5536 10.0559 15.0142 9.935 15.4442C9.91293 15.6284 9.81509 15.7951 9.665 15.9042L9.045 16.1325C8.0325 16.505 7.145 16.8325 6.41167 17.1633C6.24116 17.2399 6.0405 17.1936 5.92083 17.05C3.95288 14.6936 3.52799 11.4106 4.83123 8.63078C6.13448 5.85101 8.9299 4.07776 12 4.08333Z" fill="#161616"/>
</svg>
