<svg width="24" height="24" viewBox="0 0 24 24" fill="none" xmlns="http://www.w3.org/2000/svg">
<path d="M9.91657 13.2133C9.91698 12.7015 10.0737 12.202 10.3657 11.7817C10.4383 11.6763 10.4585 11.5435 10.4204 11.4213C10.3824 11.2992 10.2903 11.2013 10.1707 11.1558C9.47926 10.8897 8.74498 10.7522 8.00407 10.75C5.24505 10.7629 2.81697 12.5735 2.01741 15.2142C1.97977 15.3403 2.00392 15.4767 2.08253 15.5823C2.16114 15.6878 2.28498 15.75 2.41657 15.75H9.49991C9.73003 15.75 9.91657 15.5635 9.91657 15.3333V13.2133Z" fill="#161616"/>
<path d="M7.83324 9.91667C10.0194 9.91667 11.7916 8.14446 11.7916 5.95833C11.7916 3.77221 10.0194 2 7.83324 2C5.64711 2 3.87491 3.77221 3.87491 5.95833C3.87491 8.14446 5.64711 9.91667 7.83324 9.91667Z" fill="#161616"/>
<path fill-rule="evenodd" clip-rule="evenodd" d="M16.5649 11.1667C18.1574 11.1816 19.7351 11.4749 21.2266 12.0333C21.6961 12.2379 21.9998 12.7012 21.9999 13.2133V16.0408C21.9999 18.4017 20.2066 20.7333 17.6391 21.7117C17.3047 21.8806 16.939 21.9788 16.5649 22C16.1909 21.9803 15.8251 21.8821 15.4916 21.7117C13.0376 20.8674 11.3318 18.6307 11.1666 16.0408V13.2133C11.1667 12.7012 11.4704 12.2379 11.9399 12.0333C13.418 11.4724 14.984 11.1789 16.5649 11.1667ZM17.6249 15.125C17.3948 15.125 17.2082 14.9385 17.2082 14.7083V13.25C17.2082 12.9048 16.9284 12.625 16.5832 12.625C16.2381 12.625 15.9582 12.9048 15.9582 13.25V14.7083C15.9582 14.9385 15.7717 15.125 15.5416 15.125H14.0832C13.7381 15.125 13.4582 15.4048 13.4582 15.75C13.4582 16.0952 13.7381 16.375 14.0832 16.375H15.5416C15.7717 16.375 15.9582 16.5615 15.9582 16.7917V18.25C15.9582 18.5952 16.2381 18.875 16.5832 18.875C16.9284 18.875 17.2082 18.5952 17.2082 18.25V16.7917C17.2082 16.5615 17.3948 16.375 17.6249 16.375H19.0832C19.4284 16.375 19.7082 16.0952 19.7082 15.75C19.7082 15.4048 19.4284 15.125 19.0832 15.125H17.6249Z" fill="#161616"/>
</svg>
