<svg width="24" height="24" viewBox="0 0 24 24" fill="none" xmlns="http://www.w3.org/2000/svg">
<path fill-rule="evenodd" clip-rule="evenodd" d="M12 4C7.58172 4 4 7.58172 4 12C4 16.4183 7.58172 20 12 20C16.4183 20 20 16.4183 20 12C19.9952 7.5837 16.4163 4.00478 12 4ZM12 5.66667C14.4569 5.66069 16.6948 7.0789 17.7383 9.30325C18.7817 11.5276 18.4418 14.1551 16.8666 16.0407C16.7709 16.1555 16.6104 16.1926 16.474 16.1313C15.8873 15.8647 15.1773 15.6047 14.3673 15.3067L13.8713 15.124C13.7512 15.0367 13.673 14.9034 13.6553 14.756C13.5574 14.4122 13.6024 14.0435 13.78 13.7333C14.492 12.9493 14.9333 12.1067 14.9333 10.3333C15.0048 9.51947 14.7251 8.71383 14.1648 8.11931C13.6044 7.52479 12.8167 7.19803 12 7.22134C11.1833 7.19803 10.3956 7.52479 9.83521 8.11931C9.27482 8.71383 8.99516 9.51947 9.06665 10.3333C9.06665 12.1087 9.50798 12.9513 10.22 13.7333C10.3985 14.0429 10.4447 14.4113 10.348 14.7553C10.3303 14.9027 10.2521 15.0361 10.132 15.1233L9.63598 15.306C8.82598 15.604 8.11598 15.866 7.52932 16.1307C7.39291 16.1919 7.23238 16.1549 7.13665 16.04C5.56228 14.1549 5.22238 11.5284 6.26497 9.30463C7.30756 7.08081 9.5439 5.66221 12 5.66667Z" fill="#161616"/>
</svg>
