<svg width="24" height="24" viewBox="0 0 24 24" fill="none" xmlns="http://www.w3.org/2000/svg">
<path fill-rule="evenodd" clip-rule="evenodd" d="M12 6C8.68629 6 6 8.68629 6 12C6 15.3137 8.68629 18 12 18C15.3137 18 18 15.3137 18 12C17.9964 8.68778 15.3122 6.00358 12 6ZM12 7.25001C13.8427 7.24552 15.5211 8.30918 16.3037 9.97744C17.0863 11.6457 16.8314 13.6163 15.65 15.0305C15.5782 15.1167 15.4578 15.1445 15.3555 15.0985C14.9155 14.8985 14.383 14.7035 13.7755 14.48L13.4035 14.343C13.3135 14.2776 13.2547 14.1775 13.2415 14.067C13.1681 13.8092 13.2018 13.5326 13.335 13.3C13.869 12.712 14.2 12.08 14.2 10.75C14.2536 10.1396 14.0439 9.53538 13.6236 9.08949C13.2033 8.64359 12.6125 8.39853 12 8.41601C11.3875 8.39853 10.7967 8.64359 10.3764 9.08949C9.95613 9.53538 9.74639 10.1396 9.80001 10.75C9.80001 12.0815 10.131 12.7135 10.665 13.3C10.7989 13.5322 10.8335 13.8085 10.761 14.0665C10.7478 14.177 10.6891 14.2771 10.599 14.3425L10.227 14.4795C9.61951 14.703 9.08701 14.8995 8.64701 15.098C8.5447 15.144 8.42431 15.1162 8.35251 15.03C7.17173 13.6162 6.9168 11.6463 7.69875 9.97847C8.48069 8.31061 10.1579 7.24666 12 7.25001Z" fill="#161616"/>
</svg>
