<svg width="24" height="24" viewBox="0 0 24 24" fill="none" xmlns="http://www.w3.org/2000/svg">
<path fill-rule="evenodd" clip-rule="evenodd" d="M11.9863 2.00223C9.31454 2.04597 6.76729 3.1394 4.89523 5.04615C3.00261 6.93045 1.9579 9.50356 2.0013 12.1739C1.9982 14.7821 3.03331 17.2842 4.87811 19.1279C6.72291 20.9716 9.22567 22.0052 11.8338 22.0006H12.0121C17.5769 21.9433 22.045 17.3921 21.9997 11.8273C22.0059 9.18677 20.9467 6.6554 19.062 4.80609C17.1772 2.95678 14.6262 1.9459 11.9863 2.00223ZM10.7506 15.7861C10.7384 15.4561 10.8596 15.135 11.0867 14.8952C11.3138 14.6554 11.6278 14.517 11.958 14.5112H11.9805C12.6638 14.5125 13.224 15.0533 13.2495 15.7361C13.2619 16.0662 13.1409 16.3874 12.9137 16.6273C12.6866 16.8671 12.3724 17.0054 12.0421 17.011H12.0196C11.3367 17.0088 10.7769 16.4685 10.7506 15.7861ZM11.1672 12.418V7.41846C11.1672 6.95826 11.5403 6.58519 12.0005 6.58519C12.4607 6.58519 12.8337 6.95826 12.8337 7.41846V12.418C12.8337 12.8782 12.4607 13.2513 12.0005 13.2513C11.5403 13.2513 11.1672 12.8782 11.1672 12.418Z" fill="#161616"/>
</svg>
