<svg width="24" height="24" viewBox="0 0 24 24" fill="none" xmlns="http://www.w3.org/2000/svg">
<path fill-rule="evenodd" clip-rule="evenodd" d="M11.9891 4.00179C9.85163 4.03678 7.81383 4.91152 6.31618 6.43692C4.80208 7.94436 3.96632 10.0028 4.00104 12.1391C3.99856 14.2256 4.82665 16.2274 6.30249 17.7023C7.77832 19.1773 9.78053 20.0042 11.8671 20.0005H12.0097C16.4615 19.9547 20.036 16.3137 19.9997 11.8618C20.0047 9.74942 19.1574 7.72432 17.6496 6.24487C16.1418 4.76543 14.101 3.95672 11.9891 4.00179ZM11.0005 15.0289C10.9908 14.7648 11.0877 14.508 11.2693 14.3162C11.451 14.1243 11.7022 14.0136 11.9664 14.009H11.9844C12.531 14.01 12.9792 14.4426 12.9996 14.9889C13.0095 15.253 12.9127 15.5099 12.731 15.7018C12.5493 15.8937 12.298 16.0043 12.0337 16.0088H12.0157C11.4694 16.0071 11.0215 15.5748 11.0005 15.0289ZM11.3338 12.3344V8.33478C11.3338 7.96662 11.6322 7.66816 12.0004 7.66816C12.3686 7.66816 12.667 7.96662 12.667 8.33478V12.3344C12.667 12.7026 12.3686 13.0011 12.0004 13.0011C11.6322 13.0011 11.3338 12.7026 11.3338 12.3344Z" fill="#161616"/>
</svg>
