<svg width="24" height="24" viewBox="0 0 24 24" fill="none" xmlns="http://www.w3.org/2000/svg">
<path fill-rule="evenodd" clip-rule="evenodd" d="M11.9918 6.00134C10.3887 6.02758 8.86038 6.68364 7.73714 7.82769C6.60156 8.95827 5.97474 10.5021 6.00078 12.1043C5.99892 13.6692 6.61999 15.1705 7.72686 16.2767C8.83374 17.383 10.3354 18.0031 11.9003 18.0004H12.0073C15.3461 17.966 18.027 15.2353 17.9998 11.8964C18.0035 10.3121 17.368 8.79324 16.2372 7.68366C15.1063 6.57407 13.5757 5.96754 11.9918 6.00134ZM11.2503 14.2717C11.243 14.0736 11.3157 13.881 11.452 13.7371C11.5882 13.5932 11.7766 13.5102 11.9748 13.5067H11.9883C12.3982 13.5075 12.7344 13.832 12.7497 14.2417C12.7571 14.4397 12.6845 14.6324 12.5482 14.7764C12.4119 14.9203 12.2234 15.0033 12.0253 15.0066H12.0118C11.602 15.0053 11.2661 14.6811 11.2503 14.2717ZM11.5003 12.2508V9.25107C11.5003 8.97495 11.7241 8.75111 12.0003 8.75111C12.2764 8.75111 12.5002 8.97495 12.5002 9.25107V12.2508C12.5002 12.5269 12.2764 12.7508 12.0003 12.7508C11.7241 12.7508 11.5003 12.5269 11.5003 12.2508Z" fill="#161616"/>
</svg>
