<svg width="24" height="24" viewBox="0 0 24 24" fill="none" xmlns="http://www.w3.org/2000/svg">
<path d="M21.6755 15.7113C21.9849 15.427 22.0838 14.9909 21.9255 14.6089C21.763 14.2323 21.3758 13.9906 20.9513 14.0008H18.8678C18.7847 14.0005 18.7095 13.9532 18.6762 13.88L17.5561 11.3862L17.5453 11.3646C17.3602 11.0203 16.9904 10.804 16.5869 10.804C16.1833 10.804 15.8135 11.0203 15.6285 11.3646L15.6176 11.3862L14.4975 13.88C14.4645 13.953 14.3896 14.0004 14.3067 14.0008H12.2232C11.7986 13.991 11.4115 14.2329 11.249 14.6097C11.0912 14.9918 11.19 15.4276 11.499 15.7121L13.3433 17.2898C13.4104 17.3473 13.4315 17.4395 13.3958 17.5187L12.3757 19.7708C12.1898 20.1713 12.2961 20.6413 12.6383 20.9317C12.9811 21.2352 13.4899 21.289 13.8933 21.0645L16.4877 19.662C16.551 19.6276 16.6285 19.6276 16.6919 19.662L19.2854 21.0645C19.6888 21.2893 20.1977 21.2354 20.5405 20.9317C20.8824 20.6412 20.9889 20.1715 20.8038 19.7708L19.7796 17.5211C19.7436 17.4419 19.7648 17.3495 19.8321 17.2922L21.6755 15.7113Z" fill="#161616"/>
<path d="M4.08347 3.60011H7.89457C8.05226 3.60011 8.19644 3.68558 8.26709 3.82092L8.94214 5.12021C9.22566 5.66035 9.8022 6.00086 10.4322 6.00027H17.8344C18.0645 6.00027 18.2511 6.17937 18.2511 6.4003V9.55811C18.2527 9.67472 18.3071 9.78487 18.4003 9.85973C18.661 10.079 18.8757 10.344 19.0328 10.6406C19.0387 10.6526 19.2662 11.103 19.4879 11.5446C19.5506 11.6305 19.6663 11.6642 19.7681 11.6263C19.87 11.5884 19.9318 11.4887 19.9179 11.3846V6.00027C19.9179 5.11656 19.1716 4.40016 18.2511 4.40016H10.6898C10.5321 4.40016 10.3879 4.31469 10.3172 4.17935L9.64219 2.88406C9.35983 2.34237 8.78305 2.00017 8.15208 2H3.66678C2.74624 2 2 2.71639 2 3.60011V15.2009C2 16.0846 2.74624 16.801 3.66678 16.801H9.85803C9.93421 16.8022 10.0049 16.763 10.0417 16.699C10.0785 16.6349 10.0755 16.5566 10.0339 16.4954C9.78323 16.1607 9.61561 15.7753 9.54385 15.3689C9.53013 15.2729 9.44481 15.2012 9.34383 15.2009H4.08347C3.85334 15.2009 3.66678 15.0218 3.66678 14.8009V4.00014C3.66678 3.77921 3.85334 3.60011 4.08347 3.60011Z" fill="#161616"/>
</svg>
