<svg width="24" height="24" viewBox="0 0 24 24" fill="none" xmlns="http://www.w3.org/2000/svg">
<path fill-rule="evenodd" clip-rule="evenodd" d="M6.80082 5.77778H19.1446H19.1473C19.6182 5.77778 20 5.37981 20 4.88889C20 4.39797 19.6182 4 19.1473 4H6.80082C6.32991 4 5.94816 4.39797 5.94816 4.88889C5.94816 5.37981 6.32991 5.77778 6.80082 5.77778ZM4.85266 20H19.1446C19.6155 20 19.9973 19.6021 19.9973 19.1112C19.9973 18.6202 19.6155 18.2223 19.1446 18.2223H4.85266C4.38175 18.2223 4 18.6202 4 19.1112C4 19.6021 4.38175 20 4.85266 20ZM19.1446 10.5188H9.39973C8.92882 10.5188 8.54707 10.1208 8.54707 9.6299C8.54707 9.13898 8.92882 8.74102 9.39973 8.74102H19.1446C19.6155 8.74102 19.9973 9.13898 19.9973 9.6299C19.9973 10.1208 19.6155 10.5188 19.1446 10.5188ZM7.45089 15.259H19.1446C19.6155 15.259 19.9973 14.8611 19.9973 14.3701C19.9973 13.8792 19.6155 13.4812 19.1446 13.4812H7.45089C6.97998 13.4812 6.59823 13.8792 6.59823 14.3701C6.59823 14.8611 6.97998 15.259 7.45089 15.259Z" fill="#161616"/>
</svg>
