<svg width="24" height="24" viewBox="0 0 24 24" fill="none" xmlns="http://www.w3.org/2000/svg">
<path fill-rule="evenodd" clip-rule="evenodd" d="M3.06383 4.21769H18.4996C19.0871 4.21769 19.5634 3.72124 19.5634 3.10884C19.5634 2.49645 19.0871 2 18.4996 2H3.06383C2.47629 2 2 2.49645 2 3.10884C2 3.72124 2.47629 4.21769 3.06383 4.21769ZM3.06383 22H20.9362C21.5237 22 22 21.5036 22 20.8912C22 20.2788 21.5237 19.7823 20.9362 19.7823H3.06383C2.47629 19.7823 2 20.2788 2 20.8912C2 21.5036 2.47629 22 3.06383 22ZM15.2494 10.1451H3.06383C2.47629 10.1451 2 9.64864 2 9.03624C2 8.42384 2.47629 7.92739 3.06383 7.92739H15.2494C15.8369 7.92739 16.3132 8.42384 16.3132 9.03624C16.3132 9.64864 15.8369 10.1451 15.2494 10.1451ZM3.06383 16.0726H17.6868C18.2743 16.0726 18.7506 15.5762 18.7506 14.9638C18.7506 14.3514 18.2743 13.8549 17.6868 13.8549H3.06383C2.47629 13.8549 2 14.3514 2 14.9638C2 15.5762 2.47629 16.0726 3.06383 16.0726Z" fill="#161616"/>
</svg>
