<svg width="24" height="24" viewBox="0 0 24 24" fill="none" xmlns="http://www.w3.org/2000/svg">
<path fill-rule="evenodd" clip-rule="evenodd" d="M6.6383 7.33061H15.8997C16.2523 7.33061 16.538 7.03275 16.538 6.66531C16.538 6.29787 16.2523 6 15.8997 6H6.6383C6.28578 6 6 6.29787 6 6.66531C6 7.03275 6.28578 7.33061 6.6383 7.33061ZM6.6383 18H17.3617C17.7142 18 18 17.7022 18 17.3347C18 16.9673 17.7142 16.6694 17.3617 16.6694H6.6383C6.28578 16.6694 6 16.9673 6 17.3347C6 17.7022 6.28578 18 6.6383 18ZM13.9496 10.887H6.6383C6.28578 10.887 6 10.5892 6 10.2217C6 9.85429 6.28578 9.55642 6.6383 9.55642H13.9496C14.3021 9.55642 14.5879 9.85429 14.5879 10.2217C14.5879 10.5892 14.3021 10.887 13.9496 10.887ZM6.6383 14.4435H15.4121C15.7646 14.4435 16.0504 14.1457 16.0504 13.7782C16.0504 13.4108 15.7646 13.1129 15.4121 13.1129H6.6383C6.28578 13.1129 6 13.4108 6 13.7782C6 14.1457 6.28578 14.4435 6.6383 14.4435Z" fill="#161616"/>
</svg>
