<svg width="24" height="24" viewBox="0 0 24 24" fill="none" xmlns="http://www.w3.org/2000/svg">
<path fill-rule="evenodd" clip-rule="evenodd" d="M4.85106 5.77415H17.1997C17.6697 5.77415 18.0507 5.37699 18.0507 4.88708C18.0507 4.39716 17.6697 4 17.1997 4H4.85106C4.38103 4 4 4.39716 4 4.88708C4 5.37699 4.38103 5.77415 4.85106 5.77415ZM4.85106 20H19.1489C19.619 20 20 19.6029 20 19.113C20 18.623 19.619 18.2259 19.1489 18.2259H4.85106C4.38103 18.2259 4 18.623 4 19.113C4 19.6029 4.38103 20 4.85106 20ZM14.5995 10.516H4.85106C4.38103 10.516 4 10.1189 4 9.62897C4 9.13905 4.38103 8.74189 4.85106 8.74189H14.5995C15.0695 8.74189 15.4506 9.13905 15.4506 9.62897C15.4506 10.1189 15.0695 10.516 14.5995 10.516ZM4.85106 15.258H16.5494C17.0195 15.258 17.4005 14.8609 17.4005 14.371C17.4005 13.881 17.0195 13.4839 16.5494 13.4839H4.85106C4.38103 13.4839 4 13.881 4 14.371C4 14.8609 4.38103 15.258 4.85106 15.258Z" fill="#161616"/>
</svg>
