<svg width="24" height="24" viewBox="0 0 24 24" fill="none" xmlns="http://www.w3.org/2000/svg">
<path fill-rule="evenodd" clip-rule="evenodd" d="M8.10062 7.33333H17.3585H17.3605C17.7137 7.33333 18 7.03486 18 6.66667C18 6.29848 17.7137 6 17.3605 6H8.10062C7.74744 6 7.46113 6.29848 7.46113 6.66667C7.46113 7.03486 7.74744 7.33333 8.10062 7.33333ZM6.6395 18H17.3585C17.7116 18 17.998 17.7016 17.998 17.3334C17.998 16.9652 17.7116 16.6667 17.3585 16.6667H6.6395C6.28631 16.6667 6 16.9652 6 17.3334C6 17.7016 6.28631 18 6.6395 18ZM17.3585 10.8891H10.0498C9.69661 10.8891 9.4103 10.5906 9.4103 10.2224C9.4103 9.85424 9.69661 9.55576 10.0498 9.55576H17.3585C17.7116 9.55576 17.998 9.85424 17.998 10.2224C17.998 10.5906 17.7116 10.8891 17.3585 10.8891ZM8.58818 14.4443H17.3585C17.7117 14.4443 17.998 14.1458 17.998 13.7776C17.998 13.4094 17.7117 13.1109 17.3585 13.1109H8.58818C8.23499 13.1109 7.94868 13.4094 7.94868 13.7776C7.94868 14.1458 8.23499 14.4443 8.58818 14.4443Z" fill="#161616"/>
</svg>
