<svg width="24" height="24" viewBox="0 0 24 24" fill="none" xmlns="http://www.w3.org/2000/svg">
<path fill-rule="evenodd" clip-rule="evenodd" d="M3.11111 4.12766H20.8889C21.5025 4.12766 22 3.65137 22 3.06383C22 2.47629 21.5025 2 20.8889 2H3.11111C2.49746 2 2 2.47629 2 3.06383C2 3.65137 2.49746 4.12766 3.11111 4.12766ZM3.11111 22H20.8889C21.5025 22 22 21.5237 22 20.9361C22 20.3486 21.5025 19.8723 20.8889 19.8723H3.11111C2.49746 19.8723 2 20.3486 2 20.9361C2 21.5237 2.49746 22 3.11111 22ZM19.1111 10.0851H4.88888C4.27523 10.0851 3.77777 9.60876 3.77777 9.02122C3.77777 8.43369 4.27523 7.95739 4.88888 7.95739H19.1111C19.7248 7.95739 20.2222 8.43369 20.2222 9.02122C20.2222 9.60876 19.7248 10.0851 19.1111 10.0851ZM7.11111 16.0426H16.8889C17.5025 16.0426 18 15.5663 18 14.9787C18 14.3912 17.5025 13.9149 16.8889 13.9149H7.11111C6.49746 13.9149 6 14.3912 6 14.9787C6 15.5663 6.49746 16.0426 7.11111 16.0426Z" fill="#161616"/>
</svg>
