<svg width="24" height="24" viewBox="0 0 24 24" fill="none" xmlns="http://www.w3.org/2000/svg">
<path fill-rule="evenodd" clip-rule="evenodd" d="M6.66667 7.2766H17.3333C17.7015 7.2766 18 6.99082 18 6.6383C18 6.28578 17.7015 6 17.3333 6H6.66667C6.29848 6 6 6.28578 6 6.6383C6 6.99082 6.29848 7.2766 6.66667 7.2766ZM6.66667 18H17.3333C17.7015 18 18 17.7142 18 17.3617C18 17.0092 17.7015 16.7234 17.3333 16.7234H6.66667C6.29848 16.7234 6 17.0092 6 17.3617C6 17.7142 6.29848 18 6.66667 18ZM16.2667 10.851H7.73333C7.36514 10.851 7.06666 10.5653 7.06666 10.2127C7.06666 9.86021 7.36514 9.57444 7.73333 9.57444H16.2667C16.6349 9.57444 16.9333 9.86021 16.9333 10.2127C16.9333 10.5653 16.6349 10.851 16.2667 10.851ZM9.06667 14.4255H14.9333C15.3015 14.4255 15.6 14.1398 15.6 13.7872C15.6 13.4347 15.3015 13.149 14.9333 13.149H9.06667C8.69848 13.149 8.4 13.4347 8.4 13.7872C8.4 14.1398 8.69848 14.4255 9.06667 14.4255Z" fill="#161616"/>
</svg>
