<svg width="24" height="24" viewBox="0 0 24 24" fill="none" xmlns="http://www.w3.org/2000/svg">
<path fill-rule="evenodd" clip-rule="evenodd" d="M4.88889 5.70213H19.1111C19.602 5.70213 20 5.32109 20 4.85106C20 4.38103 19.602 4 19.1111 4H4.88889C4.39797 4 4 4.38103 4 4.85106C4 5.32109 4.39797 5.70213 4.88889 5.70213ZM4.88889 20H19.1111C19.602 20 20 19.6189 20 19.1489C20 18.6789 19.602 18.2979 19.1111 18.2979H4.88889C4.39797 18.2979 4 18.6789 4 19.1489C4 19.6189 4.39797 20 4.88889 20ZM17.6889 10.468H6.31111C5.82019 10.468 5.42222 10.087 5.42222 9.61698C5.42222 9.14695 5.82019 8.76592 6.31111 8.76592H17.6889C18.1798 8.76592 18.5778 9.14695 18.5778 9.61698C18.5778 10.087 18.1798 10.468 17.6889 10.468ZM8.08889 15.2341H15.9111C16.402 15.2341 16.8 14.853 16.8 14.383C16.8 13.913 16.402 13.5319 15.9111 13.5319H8.08889C7.59797 13.5319 7.2 13.913 7.2 14.383C7.2 14.853 7.59797 15.2341 8.08889 15.2341Z" fill="#161616"/>
</svg>
