<svg width="24" height="24" viewBox="0 0 24 24" fill="none" xmlns="http://www.w3.org/2000/svg">
<path fill-rule="evenodd" clip-rule="evenodd" d="M5.50102 4.22222H20.9308H20.9342C21.5228 4.22222 22 3.72476 22 3.11111C22 2.49746 21.5228 2 20.9342 2H5.50102C4.91238 2 4.4352 2.49746 4.4352 3.11111C4.4352 3.72476 4.91238 4.22222 5.50102 4.22222ZM3.06583 22H20.9308C21.5194 22 21.9966 21.5026 21.9966 20.8889C21.9966 20.2753 21.5194 19.7778 20.9308 19.7778H3.06583C2.47719 19.7778 2 20.2753 2 20.8889C2 21.5026 2.47719 22 3.06583 22ZM20.9308 10.1485H8.74966C8.16102 10.1485 7.68384 9.65099 7.68384 9.03734C7.68384 8.42369 8.16102 7.92623 8.74966 7.92623H20.9308C21.5194 7.92623 21.9966 8.42369 21.9966 9.03734C21.9966 9.65099 21.5194 10.1485 20.9308 10.1485ZM6.31361 16.0738H20.9308C21.5194 16.0738 21.9966 15.5763 21.9966 14.9627C21.9966 14.349 21.5194 13.8516 20.9308 13.8516H6.31361C5.72497 13.8516 5.24779 14.349 5.24779 14.9627C5.24779 15.5763 5.72497 16.0738 6.31361 16.0738Z" fill="#161616"/>
</svg>
