<svg width="24" height="24" viewBox="0 0 24 24" fill="none" xmlns="http://www.w3.org/2000/svg">
<path fill-rule="evenodd" clip-rule="evenodd" d="M14.003 12.6687C14.003 12.3004 14.3016 12.0018 14.6699 12.0018C15.0382 12.0018 15.3367 12.3004 15.3367 12.6687V16.003C15.3367 16.7396 14.7396 17.3367 14.003 17.3367H5.33373C4.59713 17.3367 4 16.7396 4 16.003V7.33373C4 6.59713 4.59713 6 5.33373 6H14.003C14.7396 6 15.3367 6.59713 15.3367 7.33373C15.3367 7.70203 15.0382 8.0006 14.6699 8.0006C14.3016 8.0006 14.003 7.70203 14.003 7.33373H5.66717C5.48302 7.33373 5.33373 7.48302 5.33373 7.66717V15.6696C5.33373 15.8537 5.48302 16.003 5.66717 16.003H13.6696C13.8537 16.003 14.003 15.8537 14.003 15.6696V12.6687ZM19.8048 9.53101C20.0651 9.79143 20.0651 10.2136 19.8048 10.474L17.4761 12.8067C17.2854 12.9978 16.9983 13.0551 16.7489 12.9519C16.4994 12.8486 16.3368 12.6052 16.337 12.3352V11.1682C16.3372 11.1239 16.3197 11.0814 16.2884 11.0501C16.2571 11.0188 16.2146 11.0013 16.1703 11.0015H12.3358C11.9675 11.0015 11.669 11.3 11.669 11.6683V13.0021C11.669 13.5545 11.2211 14.0024 10.6687 14.0024C10.1162 14.0024 9.66838 13.5545 9.66838 13.0021V11.6683C9.67021 10.1959 10.8634 9.00269 12.3358 9.00086H16.1703C16.2146 9.00103 16.2571 8.98353 16.2884 8.95222C16.3197 8.92092 16.3372 8.87841 16.337 8.83414V7.66712C16.3408 7.40032 16.5032 7.16144 16.7499 7.05985C16.9967 6.95826 17.2802 7.01351 17.4707 7.20031L19.8048 9.53101Z" fill="#161616"/>
</svg>
