<svg width="24" height="24" viewBox="0 0 24 24" fill="none" xmlns="http://www.w3.org/2000/svg">
<path fill-rule="evenodd" clip-rule="evenodd" d="M13.5023 13.0015C13.5023 12.7253 13.7262 12.5014 14.0024 12.5014C14.2786 12.5014 14.5026 12.7253 14.5026 13.0015V15.5023C14.5026 16.0547 14.0547 16.5026 13.5023 16.5026H7.0003C6.44785 16.5026 6 16.0547 6 15.5023V9.0003C6 8.44785 6.44785 8 7.0003 8H13.5023C14.0547 8 14.5026 8.44785 14.5026 9.0003C14.5026 9.27653 14.2786 9.50045 14.0024 9.50045C13.7262 9.50045 13.5023 9.27653 13.5023 9.0003H7.25038C7.11226 9.0003 7.0003 9.11226 7.0003 9.25038V15.2522C7.0003 15.3903 7.11226 15.5023 7.25038 15.5023H13.2522C13.3903 15.5023 13.5023 15.3903 13.5023 15.2522V13.0015ZM17.8536 10.6483C18.0488 10.8436 18.0488 11.1602 17.8536 11.3555L16.107 13.105C15.964 13.2484 15.7487 13.2914 15.5616 13.2139C15.3746 13.1365 15.2526 12.9539 15.2528 12.7514V11.8762C15.2529 11.843 15.2398 11.8111 15.2163 11.7876C15.1928 11.7641 15.1609 11.751 15.1277 11.7511H12.2519C11.9757 11.7511 11.7517 11.9751 11.7517 12.2513V13.2516C11.7517 13.6659 11.4158 14.0018 11.0015 14.0018C10.5872 14.0018 10.2513 13.6659 10.2513 13.2516V12.2513C10.2527 11.1469 11.1475 10.2521 12.2519 10.2507H15.1277C15.1609 10.2508 15.1928 10.2377 15.2163 10.2142C15.2398 10.1907 15.2529 10.1588 15.2528 10.1256V9.25038C15.2556 9.05028 15.3774 8.87112 15.5625 8.79492C15.7475 8.71873 15.9601 8.76017 16.103 8.90027L17.8536 10.6483Z" fill="#161616"/>
</svg>
