<svg width="24" height="24" viewBox="0 0 24 24" fill="none" xmlns="http://www.w3.org/2000/svg">
<path fill-rule="evenodd" clip-rule="evenodd" d="M11.116 12.9205C10.861 12.8146 10.5684 12.9355 10.4625 13.1905C10.4375 13.2518 10.4003 13.3072 10.353 13.3535C10.2599 13.4479 10.1326 13.5007 10 13.5H8C7.44772 13.5 7 13.0523 7 12.5V11C7 10.4477 7.44772 10 8 10H10C10.1329 9.99953 10.2605 10.0525 10.354 10.147C10.4007 10.1931 10.4376 10.2482 10.4625 10.309C10.53 10.4755 10.6816 10.593 10.8597 10.6169C11.0377 10.6407 11.2149 10.5671 11.3237 10.4241C11.4326 10.2812 11.4563 10.0908 11.386 9.9255C11.1537 9.36511 10.6066 8.99985 10 9H8C6.89543 9 6 9.89543 6 11V12.5C6 13.6046 6.89543 14.5 8 14.5H10C10.6062 14.4993 11.1527 14.1346 11.386 13.575C11.4372 13.4524 11.4374 13.3145 11.3868 13.1917C11.3361 13.0689 11.2387 12.9714 11.116 12.9205ZM9 11.75C9 12.0261 9.22386 12.25 9.5 12.25H15C15.2761 12.25 15.5 12.0261 15.5 11.75C15.5 11.4739 15.2761 11.25 15 11.25H9.5C9.22386 11.25 9 11.4739 9 11.75ZM14 9H16C17.1046 9 18 9.89543 18 11V12.5C18 13.6046 17.1046 14.5 16 14.5H14C13.3935 14.5002 12.8465 14.1352 12.614 13.575C12.5454 13.41 12.57 13.221 12.6786 13.0791C12.7872 12.9372 12.9632 12.864 13.1403 12.8871C13.3175 12.9102 13.4689 13.026 13.5375 13.191C13.5622 13.2518 13.5991 13.307 13.646 13.353C13.7394 13.4477 13.867 13.5007 14 13.5H16C16.5523 13.5 17 13.0523 17 12.5V11C17 10.4477 16.5523 10 16 10H14C13.8676 9.99929 13.7404 10.0517 13.647 10.1455C13.5998 10.1919 13.5626 10.2473 13.5375 10.3085C13.47 10.475 13.3184 10.5925 13.1403 10.6164C12.9622 10.6402 12.7851 10.5666 12.6762 10.4236C12.5674 10.2807 12.5436 10.0903 12.614 9.925C12.8471 9.36535 13.3937 9.00057 14 9Z" fill="#161616"/>
</svg>
