<svg width="24" height="24" viewBox="0 0 24 24" fill="none" xmlns="http://www.w3.org/2000/svg">
<path fill-rule="evenodd" clip-rule="evenodd" d="M10.5267 13.5342C10.1016 13.3577 9.61401 13.5592 9.4375 13.9842C9.39591 14.0863 9.33379 14.1787 9.255 14.2558C9.09975 14.4131 8.88765 14.5011 8.66667 14.5H5.33333C4.41286 14.5 3.66667 13.7538 3.66667 12.8333V10.3333C3.66667 9.41286 4.41286 8.66667 5.33333 8.66667H8.66667C8.88824 8.66588 9.10083 8.75416 9.25667 8.91167C9.33456 8.98853 9.39608 9.08038 9.4375 9.18167C9.54993 9.4592 9.80263 9.65508 10.0994 9.69476C10.3962 9.73443 10.6915 9.61182 10.8729 9.37356C11.0543 9.1353 11.0939 8.81804 10.9767 8.5425C10.5894 7.60852 9.67774 6.99975 8.66667 7H5.33333C3.49238 7 2 8.49238 2 10.3333V12.8333C2 14.6743 3.49238 16.1667 5.33333 16.1667H8.66667C9.67706 16.1655 10.5879 15.5576 10.9767 14.625C11.0619 14.4207 11.0624 14.1909 10.978 13.9862C10.8936 13.7816 10.7312 13.6189 10.5267 13.5342ZM7 11.5833C7 12.0436 7.3731 12.4167 7.83333 12.4167H17C17.4602 12.4167 17.8333 12.0436 17.8333 11.5833C17.8333 11.1231 17.4602 10.75 17 10.75H7.83333C7.3731 10.75 7 11.1231 7 11.5833ZM15.3333 7H18.6667C20.5076 7 22 8.49238 22 10.3333V12.8333C22 14.6743 20.5076 16.1667 18.6667 16.1667H15.3333C14.3225 16.1671 13.4108 15.5587 13.0233 14.625C12.909 14.3501 12.95 14.035 13.131 13.7985C13.3119 13.562 13.6053 13.4401 13.9006 13.4785C14.1959 13.517 14.4482 13.7101 14.5625 13.985C14.6037 14.0864 14.6653 14.1783 14.7433 14.255C14.899 14.4128 15.1117 14.5012 15.3333 14.5H18.6667C19.5871 14.5 20.3333 13.7538 20.3333 12.8333V10.3333C20.3333 9.41286 19.5871 8.66667 18.6667 8.66667H15.3333C15.1127 8.66548 14.9007 8.75283 14.745 8.90917C14.6664 8.98642 14.6043 9.07885 14.5625 9.18083C14.4501 9.45837 14.1974 9.65424 13.9006 9.69392C13.6038 9.7336 13.3085 9.61098 13.1271 9.37273C12.9457 9.13447 12.9061 8.81721 13.0233 8.54167C13.4119 7.60891 14.3229 7.00095 15.3333 7Z" fill="#161616"/>
</svg>
