<svg width="24" height="24" viewBox="0 0 24 24" fill="none" xmlns="http://www.w3.org/2000/svg">
<path fill-rule="evenodd" clip-rule="evenodd" d="M10.8213 13.2273C10.4813 13.0861 10.0912 13.2473 9.95 13.5873C9.91673 13.669 9.86703 13.743 9.804 13.8047C9.6798 13.9305 9.51012 14.0009 9.33333 14H6.66667C5.93029 14 5.33333 13.403 5.33333 12.6667V10.6667C5.33333 9.93029 5.93029 9.33333 6.66667 9.33333H9.33333C9.51059 9.3327 9.68066 9.40333 9.80533 9.52933C9.86765 9.59082 9.91686 9.6643 9.95 9.74533C10.0399 9.96736 10.2421 10.1241 10.4796 10.1558C10.717 10.1875 10.9532 10.0895 11.0983 9.89885C11.2434 9.70824 11.2751 9.45443 11.1813 9.234C10.8715 8.48682 10.1422 7.9998 9.33333 8H6.66667C5.19391 8 4 9.19391 4 10.6667V12.6667C4 14.1394 5.19391 15.3333 6.66667 15.3333H9.33333C10.1416 15.3324 10.8703 14.8461 11.1813 14.1C11.2496 13.9366 11.2499 13.7527 11.1824 13.589C11.1149 13.4253 10.9849 13.2951 10.8213 13.2273ZM8 11.6667C8 12.0349 8.29848 12.3333 8.66667 12.3333H16C16.3682 12.3333 16.6667 12.0349 16.6667 11.6667C16.6667 11.2985 16.3682 11 16 11H8.66667C8.29848 11 8 11.2985 8 11.6667ZM14.6667 8H17.3333C18.8061 8 20 9.19391 20 10.6667V12.6667C20 14.1394 18.8061 15.3333 17.3333 15.3333H14.6667C13.858 15.3336 13.1287 14.8469 12.8187 14.1C12.7272 13.88 12.76 13.628 12.9048 13.4388C13.0495 13.2496 13.2842 13.152 13.5205 13.1828C13.7567 13.2136 13.9585 13.368 14.05 13.588C14.083 13.6691 14.1322 13.7426 14.1947 13.804C14.3192 13.9303 14.4893 14.0009 14.6667 14H17.3333C18.0697 14 18.6667 13.403 18.6667 12.6667V10.6667C18.6667 9.93029 18.0697 9.33333 17.3333 9.33333H14.6667C14.4901 9.33238 14.3206 9.40226 14.196 9.52733C14.1331 9.58914 14.0834 9.66308 14.05 9.74467C13.96 9.9667 13.7579 10.1234 13.5204 10.1551C13.283 10.1869 13.0468 10.0888 12.9017 9.89818C12.7566 9.70757 12.7249 9.45377 12.8187 9.23333C13.1295 8.48713 13.8583 8.00076 14.6667 8Z" fill="#161616"/>
</svg>
