<svg width="24" height="24" viewBox="0 0 24 24" fill="none" xmlns="http://www.w3.org/2000/svg">
<path fill-rule="evenodd" clip-rule="evenodd" d="M4.97926 6.25519H5.19202V6.25689C5.54453 6.25689 5.8303 6.54265 5.8303 6.89516C5.8303 7.24768 5.54453 7.53344 5.19202 7.53344H3.06443C2.71191 7.53344 2.42615 7.24768 2.42615 6.89516C2.42615 6.54265 2.71191 6.25689 3.06443 6.25689H3.27718C3.39469 6.25689 3.48994 6.16163 3.48994 6.04413V3.49102C3.4904 3.4343 3.46818 3.37974 3.42823 3.33947C3.38828 3.2992 3.33391 3.27655 3.27718 3.27656H3.06443C2.71191 3.27656 2.42615 2.99079 2.42615 2.63828C2.42615 2.28577 2.71191 2 3.06443 2H3.59632C4.24221 2.00094 4.76556 2.52429 4.7665 3.17018V6.04413C4.76743 6.16097 4.86242 6.25519 4.97926 6.25519ZM21.149 5.61861H8.38341C7.91339 5.61861 7.53237 5.23759 7.53237 4.76757C7.53237 4.29756 7.91339 3.91654 8.38341 3.91654H21.149C21.619 3.91654 22 4.29756 22 4.76757C22 5.23759 21.619 5.61861 21.149 5.61861ZM8.38341 11.1504H21.149C21.619 11.1504 22 11.5314 22 12.0014C22 12.4714 21.619 12.8524 21.149 12.8524H8.38341C7.91339 12.8524 7.53237 12.4714 7.53237 12.0014C7.53237 11.5314 7.91339 11.1504 8.38341 11.1504ZM21.149 18.3842H8.38341C7.91339 18.3842 7.53237 18.7652 7.53237 19.2352C7.53237 19.7052 7.91339 20.0862 8.38341 20.0862H21.149C21.619 20.0862 22 19.7052 22 19.2352C22 18.7652 21.619 18.3842 21.149 18.3842ZM2.02531 17.7306C2.22426 16.9855 2.89923 16.4674 3.67036 16.4676V16.4659C4.29822 16.4663 4.87491 16.8122 5.17075 17.366C5.4666 17.9198 5.43356 18.5914 5.08479 19.1135C5.03713 19.1852 5.03713 19.2784 5.08479 19.3501C5.45926 19.9095 5.46882 20.6371 5.10918 21.2062C4.74954 21.7753 4.08827 22.0789 3.42226 21.9808C2.75626 21.8827 2.21066 21.4012 2.03042 20.7526C1.96176 20.5304 2.01938 20.2885 2.18081 20.1211C2.34223 19.9537 2.58192 19.8874 2.80644 19.9479C3.03097 20.0085 3.20479 20.1863 3.26016 20.4122C3.31955 20.624 3.53053 20.7556 3.74685 20.7158C3.96316 20.676 4.11351 20.4779 4.09366 20.2589C4.07381 20.0399 3.8903 19.872 3.67036 19.8718C3.31785 19.8718 3.03209 19.586 3.03209 19.2335C3.03209 18.881 3.31785 18.5952 3.67036 18.5952C3.89091 18.5951 4.07484 18.4266 4.09409 18.2069C4.11334 17.9871 3.96154 17.7891 3.74437 17.7507C3.52721 17.7123 3.31665 17.8461 3.25931 18.0591C3.1686 18.3998 2.81882 18.6025 2.47806 18.5118C2.1373 18.4211 1.9346 18.0713 2.02531 17.7306ZM5.40478 10.9359C5.40478 9.99586 4.64273 9.23382 3.7027 9.23382C2.76267 9.23382 2.00063 9.99586 2.00063 10.9359C2.00063 11.2884 2.2864 11.5742 2.63891 11.5742C2.99142 11.5742 3.27718 11.2884 3.27718 10.9359C3.27718 10.7009 3.4677 10.5104 3.7027 10.5104C3.93771 10.5104 4.12822 10.7009 4.12822 10.9359C4.12814 11.1355 4.06 11.3291 3.93504 11.4848L2.1402 13.7281C1.98664 13.9198 1.95663 14.1825 2.06302 14.4038C2.16942 14.6251 2.39334 14.7658 2.63891 14.7656H4.7665C5.11901 14.7656 5.40478 14.4798 5.40478 14.1273C5.40478 13.7748 5.11901 13.489 4.7665 13.489H4.40991C4.3279 13.4896 4.25292 13.4428 4.21742 13.3688C4.18191 13.2949 4.19225 13.2071 4.24396 13.1435L4.93671 12.2822C5.24022 11.8991 5.40519 11.4246 5.40478 10.9359Z" fill="#161616"/>
</svg>
