<svg width="24" height="24" viewBox="0 0 24 24" fill="none" xmlns="http://www.w3.org/2000/svg">
<path fill-rule="evenodd" clip-rule="evenodd" d="M7.78756 8.55311H7.91521V8.55413C8.12672 8.55413 8.29818 8.72559 8.29818 8.9371C8.29818 9.14861 8.12672 9.32007 7.91521 9.32007H6.63866C6.42715 9.32007 6.25569 9.14861 6.25569 8.9371C6.25569 8.72559 6.42715 8.55413 6.63866 8.55413H6.76631C6.83681 8.55413 6.89397 8.49698 6.89397 8.42648V6.89461C6.89424 6.86058 6.88091 6.82784 6.85694 6.80368C6.83297 6.77952 6.80034 6.76593 6.76631 6.76593H6.63866C6.42715 6.76593 6.25569 6.59447 6.25569 6.38297C6.25569 6.17146 6.42715 6 6.63866 6H6.95779C7.34532 6.00056 7.65934 6.31458 7.6599 6.70211V8.42648C7.66046 8.49658 7.71745 8.55311 7.78756 8.55311ZM17.4894 8.17115H9.83003C9.54802 8.17115 9.31941 7.94253 9.31941 7.66052C9.31941 7.37852 9.54802 7.1499 9.83003 7.1499H17.4894C17.7714 7.1499 18 7.37852 18 7.66052C18 7.94253 17.7714 8.17115 17.4894 8.17115ZM9.83003 11.4902H17.4894C17.7714 11.4902 18 11.7188 18 12.0009C18 12.2829 17.7714 12.5115 17.4894 12.5115H9.83003C9.54802 12.5115 9.31941 12.2829 9.31941 12.0009C9.31941 11.7188 9.54802 11.4902 9.83003 11.4902ZM17.4894 15.8305H9.83003C9.54802 15.8305 9.31941 16.0591 9.31941 16.3411C9.31941 16.6231 9.54802 16.8517 9.83003 16.8517H17.4894C17.7714 16.8517 18 16.6231 18 16.3411C18 16.0591 17.7714 15.8305 17.4894 15.8305ZM6.01519 15.4383C6.13456 14.9913 6.53954 14.6804 7.00222 14.6806V14.6796C7.37893 14.6798 7.72494 14.8873 7.90245 15.2196C8.07996 15.5519 8.06014 15.9549 7.85087 16.2681C7.82228 16.3111 7.82228 16.3671 7.85087 16.4101C8.07556 16.7457 8.08129 17.1823 7.86551 17.5237C7.64972 17.8652 7.25296 18.0474 6.85336 17.9885C6.45375 17.9296 6.1264 17.6407 6.01825 17.2516C5.97706 17.1183 6.01163 16.9731 6.10848 16.8727C6.20534 16.7722 6.34915 16.7324 6.48387 16.7688C6.61858 16.8051 6.72288 16.9118 6.7561 17.0473C6.79173 17.1744 6.91832 17.2534 7.04811 17.2295C7.1779 17.2056 7.26811 17.0868 7.2562 16.9553C7.24429 16.8239 7.13418 16.7232 7.00222 16.7231C6.79071 16.7231 6.61925 16.5516 6.61925 16.3401C6.61925 16.1286 6.79071 15.9571 7.00222 15.9571C7.13455 15.9571 7.2449 15.8559 7.25646 15.7241C7.26801 15.5923 7.17693 15.4735 7.04663 15.4504C6.91632 15.4274 6.78999 15.5077 6.75559 15.6355C6.70116 15.8399 6.49129 15.9615 6.28684 15.9071C6.08238 15.8527 5.96076 15.6428 6.01519 15.4383ZM8.04287 11.3615C8.04287 10.7975 7.58564 10.3403 7.02162 10.3403C6.4576 10.3403 6.00038 10.7975 6.00038 11.3615C6.00038 11.573 6.17184 11.7445 6.38334 11.7445C6.59485 11.7445 6.76631 11.573 6.76631 11.3615C6.76631 11.2205 6.88062 11.1062 7.02162 11.1062C7.16263 11.1062 7.27693 11.2205 7.27693 11.3615C7.27689 11.4813 7.236 11.5975 7.16102 11.6909L6.08412 13.0369C5.99198 13.1518 5.97398 13.3095 6.03781 13.4423C6.10165 13.5751 6.23601 13.6594 6.38334 13.6593H7.6599C7.87141 13.6593 8.04287 13.4878 8.04287 13.2763C8.04287 13.0648 7.87141 12.8934 7.6599 12.8934H7.44595C7.39674 12.8937 7.35175 12.8656 7.33045 12.8213C7.30915 12.7769 7.31535 12.7242 7.34638 12.6861L7.76202 12.1693C7.94413 11.9395 8.04311 11.6548 8.04287 11.3615Z" fill="#161616"/>
</svg>
