<svg width="24" height="24" viewBox="0 0 24 24" fill="none" xmlns="http://www.w3.org/2000/svg">
<path fill-rule="evenodd" clip-rule="evenodd" d="M7.25 9.5C7.94036 9.5 8.5 8.94036 8.5 8.25C8.5 7.55964 7.94036 7 7.25 7C6.55964 7 6 7.55964 6 8.25C6 8.94036 6.55964 9.5 7.25 9.5ZM17.5 8.75103H10.25C9.97386 8.75103 9.75 8.52717 9.75 8.25103C9.75 7.97488 9.97386 7.75103 10.25 7.75103H17.5C17.7761 7.75103 18 7.97488 18 8.25103C18 8.52717 17.7761 8.75103 17.5 8.75103ZM8.5 12.25C8.5 12.9403 7.94036 13.5 7.25 13.5C6.55964 13.5 6 12.9403 6 12.25C6 11.5596 6.55964 11 7.25 11C7.94036 11 8.5 11.5596 8.5 12.25ZM10.25 11.751H17.5C17.7761 11.751 18 11.9749 18 12.251C18 12.5271 17.7761 12.751 17.5 12.751H10.25C9.97386 12.751 9.75 12.5271 9.75 12.251C9.75 11.9749 9.97386 11.751 10.25 11.751ZM8.5 16.25C8.5 16.9404 7.94036 17.5 7.25 17.5C6.55964 17.5 6 16.9404 6 16.25C6 15.5597 6.55964 15 7.25 15C7.94036 15 8.5 15.5597 8.5 16.25ZM10.25 15.751H17.5C17.7761 15.751 18 15.9748 18 16.251C18 16.5271 17.7761 16.751 17.5 16.751H10.25C9.97386 16.751 9.75 16.5271 9.75 16.251C9.75 15.9748 9.97386 15.751 10.25 15.751Z" fill="#161616"/>
</svg>
