<svg width="24" height="24" viewBox="0 0 24 24" fill="none" xmlns="http://www.w3.org/2000/svg">
<path fill-rule="evenodd" clip-rule="evenodd" d="M5.66667 8.33333C6.58714 8.33333 7.33333 7.58714 7.33333 6.66667C7.33333 5.74619 6.58714 5 5.66667 5C4.74619 5 4 5.74619 4 6.66667C4 7.58714 4.74619 8.33333 5.66667 8.33333ZM19.3333 7.3347H9.66667C9.29848 7.3347 9 7.03622 9 6.66803C9 6.29984 9.29848 6.00137 9.66667 6.00137H19.3333C19.7015 6.00137 20 6.29984 20 6.66803C20 7.03622 19.7015 7.3347 19.3333 7.3347ZM7.33333 12C7.33333 12.9204 6.58714 13.6666 5.66667 13.6666C4.74619 13.6666 4 12.9204 4 12C4 11.0795 4.74619 10.3333 5.66667 10.3333C6.58714 10.3333 7.33333 11.0795 7.33333 12ZM9.66667 11.3347H19.3333C19.7015 11.3347 20 11.6331 20 12.0013C20 12.3695 19.7015 12.668 19.3333 12.668H9.66667C9.29848 12.668 9 12.3695 9 12.0013C9 11.6331 9.29848 11.3347 9.66667 11.3347ZM7.33333 17.3334C7.33333 18.2538 6.58714 19 5.66667 19C4.74619 19 4 18.2538 4 17.3334C4 16.4129 4.74619 15.6667 5.66667 15.6667C6.58714 15.6667 7.33333 16.4129 7.33333 17.3334ZM9.66667 16.668H19.3333C19.7015 16.668 20 16.9664 20 17.3346C20 17.7028 19.7015 18.0013 19.3333 18.0013H9.66667C9.29848 18.0013 9 17.7028 9 17.3346C9 16.9664 9.29848 16.668 9.66667 16.668Z" fill="#161616"/>
</svg>
