<svg width="24" height="24" viewBox="0 0 24 24" fill="none" xmlns="http://www.w3.org/2000/svg">
<path fill-rule="evenodd" clip-rule="evenodd" d="M4.08333 7.16667C5.23393 7.16667 6.16667 6.23393 6.16667 5.08333C6.16667 3.93274 5.23393 3 4.08333 3C2.93274 3 2 3.93274 2 5.08333C2 6.23393 2.93274 7.16667 4.08333 7.16667ZM21.1667 5.91833H9.08333C8.6231 5.91833 8.25 5.54524 8.25 5.085C8.25 4.62476 8.6231 4.25167 9.08333 4.25167H21.1667C21.6269 4.25167 22 4.62476 22 5.085C22 5.54524 21.6269 5.91833 21.1667 5.91833ZM6.16667 11.75C6.16667 12.9006 5.23393 13.8333 4.08333 13.8333C2.93274 13.8333 2 12.9006 2 11.75C2 10.5994 2.93274 9.66667 4.08333 9.66667C5.23393 9.66667 6.16667 10.5994 6.16667 11.75ZM9.08333 10.9183H21.1667C21.6269 10.9183 22 11.2914 22 11.7517C22 12.2119 21.6269 12.585 21.1667 12.585H9.08333C8.6231 12.585 8.25 12.2119 8.25 11.7517C8.25 11.2914 8.6231 10.9183 9.08333 10.9183ZM6.16667 18.4167C6.16667 19.5673 5.23393 20.5 4.08333 20.5C2.93274 20.5 2 19.5673 2 18.4167C2 17.2661 2.93274 16.3333 4.08333 16.3333C5.23393 16.3333 6.16667 17.2661 6.16667 18.4167ZM9.08333 17.585H21.1667C21.6269 17.585 22 17.9581 22 18.4183C22 18.8786 21.6269 19.2517 21.1667 19.2517H9.08333C8.6231 19.2517 8.25 18.8786 8.25 18.4183C8.25 17.9581 8.6231 17.585 9.08333 17.585Z" fill="#161616"/>
</svg>
