<svg width="24" height="24" viewBox="0 0 24 24" fill="none" xmlns="http://www.w3.org/2000/svg">
<path fill-rule="evenodd" clip-rule="evenodd" d="M6.38341 7.40415H6.55361V7.40551C6.83562 7.40551 7.06424 7.63412 7.06424 7.91613C7.06424 8.19814 6.83562 8.42675 6.55361 8.42675H4.85154C4.56953 8.42675 4.34092 8.19814 4.34092 7.91613C4.34092 7.63412 4.56953 7.40551 4.85154 7.40551H5.02175C5.11575 7.40551 5.19195 7.32931 5.19195 7.2353V5.19281C5.19232 5.14744 5.17455 5.10379 5.14259 5.07158C5.11063 5.03936 5.06713 5.02124 5.02175 5.02124H4.85154C4.56953 5.02124 4.34092 4.79263 4.34092 4.51062C4.34092 4.22861 4.56953 4 4.85154 4H5.27706C5.79376 4.00075 6.21245 4.41944 6.2132 4.93614V7.2353C6.21395 7.32877 6.28993 7.40415 6.38341 7.40415ZM19.3192 6.89486H9.10671C8.7307 6.89486 8.42588 6.59004 8.42588 6.21403C8.42588 5.83802 8.7307 5.5332 9.10671 5.5332H19.3192C19.6952 5.5332 20 5.83802 20 6.21403C20 6.59004 19.6952 6.89486 19.3192 6.89486ZM9.10671 11.3203H19.3192C19.6952 11.3203 20 11.6251 20 12.0011C20 12.3772 19.6952 12.682 19.3192 12.682H9.10671C8.7307 12.682 8.42588 12.3772 8.42588 12.0011C8.42588 11.6251 8.7307 11.3203 9.10671 11.3203ZM19.3192 17.1073H9.10671C8.7307 17.1073 8.42588 17.4121 8.42588 17.7882C8.42588 18.1642 8.7307 18.469 9.10671 18.469H19.3192C19.6952 18.469 20 18.1642 20 17.7882C20 17.4121 19.6952 17.1073 19.3192 17.1073ZM4.02025 16.5845C4.17941 15.9884 4.71939 15.5739 5.33629 15.5741V15.5728C5.83857 15.573 6.29992 15.8498 6.5366 16.2928C6.77328 16.7358 6.74685 17.2732 6.46783 17.6908C6.4297 17.7481 6.4297 17.8228 6.46783 17.8801C6.76741 18.3276 6.77506 18.9097 6.48734 19.365C6.19963 19.8202 5.67062 20.0631 5.13781 19.9846C4.60501 19.9061 4.16853 19.521 4.02433 19.0021C3.96941 18.8243 4.0155 18.6308 4.14464 18.4969C4.27379 18.363 4.46554 18.3099 4.64516 18.3583C4.82477 18.4068 4.96383 18.5491 5.00813 18.7298C5.05564 18.8992 5.22443 19.0045 5.39748 18.9726C5.57053 18.9408 5.69081 18.7824 5.67493 18.6071C5.65905 18.4319 5.51224 18.2976 5.33629 18.2974C5.05428 18.2974 4.82567 18.0688 4.82567 17.7868C4.82567 17.5048 5.05428 17.2762 5.33629 17.2762C5.51273 17.2761 5.65987 17.1413 5.67527 16.9655C5.69068 16.7897 5.56924 16.6313 5.3955 16.6006C5.22177 16.5698 5.05332 16.6769 5.00745 16.8473C4.93488 17.1199 4.65506 17.282 4.38245 17.2095C4.10984 17.1369 3.94768 16.8571 4.02025 16.5845ZM6.72382 11.1487C6.72382 10.3966 6.11419 9.78701 5.36216 9.78701C4.61014 9.78701 4.0005 10.3966 4.0005 11.1487C4.0005 11.4307 4.22912 11.6593 4.51113 11.6593C4.79313 11.6593 5.02175 11.4307 5.02175 11.1487C5.02175 10.9607 5.17416 10.8083 5.36216 10.8083C5.55017 10.8083 5.70258 10.9607 5.70258 11.1487C5.70252 11.3084 5.648 11.4633 5.54803 11.5878L4.11216 13.3825C3.98931 13.5358 3.9653 13.746 4.05042 13.923C4.13553 14.1001 4.31467 14.2126 4.51113 14.2124H6.2132C6.49521 14.2124 6.72382 13.9838 6.72382 13.7018C6.72382 13.4198 6.49521 13.1912 6.2132 13.1912H5.92793C5.86232 13.1916 5.80234 13.1542 5.77393 13.095C5.74553 13.0359 5.7538 12.9657 5.79517 12.9147L6.34937 12.2257C6.59218 11.9193 6.72415 11.5397 6.72382 11.1487Z" fill="#161616"/>
</svg>
