<svg width="24" height="24" viewBox="0 0 24 24" fill="none" xmlns="http://www.w3.org/2000/svg">
<path fill-rule="evenodd" clip-rule="evenodd" d="M6 8C7.10457 8 8 7.10457 8 6C8 4.89543 7.10457 4 6 4C4.89543 4 4 4.89543 4 6C4 7.10457 4.89543 8 6 8ZM20 6C20 7.10457 19.1046 8 18 8C16.8954 8 16 7.10457 16 6C16 4.89543 16.8954 4 18 4C19.1046 4 20 4.89543 20 6ZM14.8333 5.3333H9.16667C9.07462 5.3333 9 5.40792 9 5.49997V6.49997C9 6.59201 9.07462 6.66663 9.16667 6.66663H14.8333C14.9254 6.66663 15 6.59201 15 6.49997V5.49997C15 5.40792 14.9254 5.3333 14.8333 5.3333ZM18.5 9H17.5C17.4079 9 17.3333 9.07462 17.3333 9.16667V14.8333C17.3333 14.9254 17.4079 15 17.5 15H18.5C18.592 15 18.6667 14.9254 18.6667 14.8333V9.16667C18.6667 9.07462 18.592 9 18.5 9ZM5.49999 9H6.49999C6.59204 9 6.66666 9.07462 6.66666 9.16667V14.8333C6.66666 14.9254 6.59204 15 6.49999 15H5.49999C5.40794 15 5.33333 14.9254 5.33333 14.8333V9.16667C5.33333 9.07462 5.40794 9 5.49999 9ZM14.8333 17.3333H9.16667C9.07462 17.3333 9 17.4079 9 17.5V18.5C9 18.592 9.07462 18.6666 9.16667 18.6666H14.8333C14.9254 18.6666 15 18.592 15 18.5V17.5C15 17.4079 14.9254 17.3333 14.8333 17.3333ZM20 18C20 19.1046 19.1046 20 18 20C16.8954 20 16 19.1046 16 18C16 16.8954 16.8954 16 18 16C19.1046 16 20 16.8954 20 18ZM6 20C7.10457 20 8 19.1046 8 18C8 16.8954 7.10457 16 6 16C4.89543 16 4 16.8954 4 18C4 19.1046 4.89543 20 6 20ZM14.8047 8.86196C14.9298 8.98699 15 9.15656 15 9.33337V10.3334C15 10.5102 14.9298 10.6797 14.8047 10.8048C14.6797 10.9298 14.5101 11 14.3333 11C14.1565 11 13.987 10.9298 13.8619 10.8048C13.7369 10.6797 13.6667 10.5102 13.6667 10.3334V10.1667C13.6667 10.1225 13.6491 10.0801 13.6179 10.0488C13.5866 10.0176 13.5442 10 13.5 10H12.8333C12.7891 10 12.7467 10.0176 12.7155 10.0488C12.6842 10.0801 12.6667 10.1225 12.6667 10.1667V13.8334C12.6667 13.8776 12.6842 13.92 12.7155 13.9512C12.7467 13.9825 12.7891 14 12.8333 14H13.3333C13.5101 14 13.6797 14.0703 13.8047 14.1953C13.9298 14.3203 14 14.4899 14 14.6667C14 14.8435 13.9298 15.0131 13.8047 15.1381C13.6797 15.2631 13.5101 15.3334 13.3333 15.3334H10.6667C10.4899 15.3334 10.3203 15.2631 10.1953 15.1381C10.0702 15.0131 10 14.8435 10 14.6667C10 14.4899 10.0702 14.3203 10.1953 14.1953C10.3203 14.0703 10.4899 14 10.6667 14H11.1667C11.2109 14 11.2533 13.9825 11.2845 13.9512C11.3158 13.92 11.3333 13.8776 11.3333 13.8334V10.1667C11.3333 10.1225 11.3158 10.0801 11.2845 10.0488C11.2533 10.0176 11.2109 10 11.1667 10H10.5C10.4558 10 10.4134 10.0176 10.3821 10.0488C10.3509 10.0801 10.3333 10.1225 10.3333 10.1667V10.3334C10.3333 10.5102 10.2631 10.6797 10.1381 10.8048C10.013 10.9298 9.84348 11 9.66667 11C9.48986 11 9.32029 10.9298 9.19526 10.8048C9.07024 10.6797 9 10.5102 9 10.3334V9.33337C9 9.15656 9.07024 8.98699 9.19526 8.86196C9.32029 8.73694 9.48986 8.6667 9.66667 8.6667H14.3333C14.5101 8.6667 14.6797 8.73694 14.8047 8.86196Z" fill="#161616"/>
</svg>
