<svg width="24" height="24" viewBox="0 0 24 24" fill="none" xmlns="http://www.w3.org/2000/svg">
<path fill-rule="evenodd" clip-rule="evenodd" d="M7.5 9C8.32843 9 9 8.32843 9 7.5C9 6.67157 8.32843 6 7.5 6C6.67157 6 6 6.67157 6 7.5C6 8.32843 6.67157 9 7.5 9ZM18 7.5C18 8.32843 17.3284 9 16.5 9C15.6716 9 15 8.32843 15 7.5C15 6.67157 15.6716 6 16.5 6C17.3284 6 18 6.67157 18 7.5ZM14.125 6.99994H9.875C9.80596 6.99994 9.75 7.0559 9.75 7.12494V7.87494C9.75 7.94397 9.80596 7.99994 9.875 7.99994H14.125C14.194 7.99994 14.25 7.94397 14.25 7.87494V7.12494C14.25 7.0559 14.194 6.99994 14.125 6.99994ZM16.875 9.75H16.125C16.0559 9.75 16 9.80596 16 9.875V14.125C16 14.194 16.0559 14.25 16.125 14.25H16.875C16.944 14.25 17 14.194 17 14.125V9.875C17 9.80596 16.944 9.75 16.875 9.75ZM7.12498 9.75H7.87498C7.94402 9.75 7.99998 9.80596 7.99998 9.875V14.125C7.99998 14.194 7.94402 14.25 7.87498 14.25H7.12498C7.05595 14.25 6.99998 14.194 6.99998 14.125V9.875C6.99998 9.80596 7.05595 9.75 7.12498 9.75ZM14.125 15.9999H9.875C9.80596 15.9999 9.75 16.0559 9.75 16.1249V16.8749C9.75 16.944 9.80596 16.9999 9.875 16.9999H14.125C14.194 16.9999 14.25 16.944 14.25 16.8749V16.1249C14.25 16.0559 14.194 15.9999 14.125 15.9999ZM18 16.5C18 17.3284 17.3284 18 16.5 18C15.6716 18 15 17.3284 15 16.5C15 15.6716 15.6716 15 16.5 15C17.3284 15 18 15.6716 18 16.5ZM7.5 18C8.32843 18 9 17.3284 9 16.5C9 15.6716 8.32843 15 7.5 15C6.67157 15 6 15.6716 6 16.5C6 17.3284 6.67157 18 7.5 18ZM14.1036 9.64651C14.1973 9.74028 14.25 9.86745 14.25 10.0001V10.7501C14.25 10.8827 14.1973 11.0098 14.1036 11.1036C14.0098 11.1974 13.8826 11.2501 13.75 11.2501C13.6174 11.2501 13.4902 11.1974 13.3964 11.1036C13.3027 11.0098 13.25 10.8827 13.25 10.7501V10.6251C13.25 10.5919 13.2368 10.5601 13.2134 10.5367C13.1899 10.5132 13.1582 10.5001 13.125 10.5001H12.625C12.5918 10.5001 12.5601 10.5132 12.5366 10.5367C12.5132 10.5601 12.5 10.5919 12.5 10.6251V13.3751C12.5 13.4082 12.5132 13.44 12.5366 13.4634C12.5601 13.4869 12.5918 13.5001 12.625 13.5001H13C13.1326 13.5001 13.2598 13.5527 13.3536 13.6465C13.4473 13.7403 13.5 13.8675 13.5 14.0001C13.5 14.1327 13.4473 14.2598 13.3536 14.3536C13.2598 14.4474 13.1326 14.5001 13 14.5001H11C10.8674 14.5001 10.7402 14.4474 10.6464 14.3536C10.5527 14.2598 10.5 14.1327 10.5 14.0001C10.5 13.8675 10.5527 13.7403 10.6464 13.6465C10.7402 13.5527 10.8674 13.5001 11 13.5001H11.375C11.4082 13.5001 11.4399 13.4869 11.4634 13.4634C11.4868 13.44 11.5 13.4082 11.5 13.3751V10.6251C11.5 10.5919 11.4868 10.5601 11.4634 10.5367C11.4399 10.5132 11.4082 10.5001 11.375 10.5001H10.875C10.8418 10.5001 10.8101 10.5132 10.7866 10.5367C10.7632 10.5601 10.75 10.5919 10.75 10.6251V10.7501C10.75 10.8827 10.6973 11.0098 10.6036 11.1036C10.5098 11.1974 10.3826 11.2501 10.25 11.2501C10.1174 11.2501 9.99021 11.1974 9.89645 11.1036C9.80268 11.0098 9.75 10.8827 9.75 10.7501V10.0001C9.75 9.86745 9.80268 9.74028 9.89645 9.64651C9.99021 9.55274 10.1174 9.50006 10.25 9.50006H13.75C13.8826 9.50006 14.0098 9.55274 14.1036 9.64651Z" fill="#161616"/>
</svg>
