<svg width="24" height="24" viewBox="0 0 24 24" fill="none" xmlns="http://www.w3.org/2000/svg">
<path fill-rule="evenodd" clip-rule="evenodd" d="M4.5 7C5.88071 7 7 5.88071 7 4.5C7 3.11929 5.88071 2 4.5 2C3.11929 2 2 3.11929 2 4.5C2 5.88071 3.11929 7 4.5 7ZM22 4.5C22 5.88071 20.8807 7 19.5 7C18.1193 7 17 5.88071 17 4.5C17 3.11929 18.1193 2 19.5 2C20.8807 2 22 3.11929 22 4.5ZM15.5417 3.66663H8.45833C8.34327 3.66663 8.25 3.7599 8.25 3.87496V5.12496C8.25 5.24002 8.34327 5.33329 8.45833 5.33329H15.5417C15.6567 5.33329 15.75 5.24002 15.75 5.12496V3.87496C15.75 3.7599 15.6567 3.66663 15.5417 3.66663ZM20.125 8.25H18.875C18.7599 8.25 18.6667 8.34327 18.6667 8.45833V15.5417C18.6667 15.6567 18.7599 15.75 18.875 15.75H20.125C20.24 15.75 20.3333 15.6567 20.3333 15.5417V8.45833C20.3333 8.34327 20.24 8.25 20.125 8.25ZM3.87499 8.25H5.12499C5.24005 8.25 5.33332 8.34327 5.33332 8.45833V15.5417C5.33332 15.6567 5.24005 15.75 5.12499 15.75H3.87499C3.75993 15.75 3.66666 15.6567 3.66666 15.5417V8.45833C3.66666 8.34327 3.75993 8.25 3.87499 8.25ZM15.5417 18.6666H8.45833C8.34327 18.6666 8.25 18.7599 8.25 18.875V20.125C8.25 20.24 8.34327 20.3333 8.45833 20.3333H15.5417C15.6567 20.3333 15.75 20.24 15.75 20.125V18.875C15.75 18.7599 15.6567 18.6666 15.5417 18.6666ZM22 19.5C22 20.8807 20.8807 22 19.5 22C18.1193 22 17 20.8807 17 19.5C17 18.1193 18.1193 17 19.5 17C20.8807 17 22 18.1193 22 19.5ZM4.5 22C5.88071 22 7 20.8807 7 19.5C7 18.1193 5.88071 17 4.5 17C3.11929 17 2 18.1193 2 19.5C2 20.8807 3.11929 22 4.5 22ZM15.5059 8.07745C15.6622 8.23373 15.75 8.44569 15.75 8.66671V9.91671C15.75 10.1377 15.6622 10.3497 15.5059 10.506C15.3496 10.6622 15.1377 10.75 14.9167 10.75C14.6957 10.75 14.4837 10.6622 14.3274 10.506C14.1711 10.3497 14.0833 10.1377 14.0833 9.91671V9.70837C14.0833 9.65312 14.0614 9.60013 14.0223 9.56106C13.9832 9.52199 13.9303 9.50004 13.875 9.50004H13.0417C12.9864 9.50004 12.9334 9.52199 12.8944 9.56106C12.8553 9.60013 12.8333 9.65312 12.8333 9.70837V14.2917C12.8333 14.347 12.8553 14.4 12.8944 14.439C12.9334 14.4781 12.9864 14.5 13.0417 14.5H13.6667C13.8877 14.5 14.0996 14.5878 14.2559 14.7441C14.4122 14.9004 14.5 15.1124 14.5 15.3334C14.5 15.5544 14.4122 15.7663 14.2559 15.9226C14.0996 16.0789 13.8877 16.1667 13.6667 16.1667H10.3333C10.1123 16.1667 9.90036 16.0789 9.74408 15.9226C9.5878 15.7663 9.5 15.5544 9.5 15.3334C9.5 15.1124 9.5878 14.9004 9.74408 14.7441C9.90036 14.5878 10.1123 14.5 10.3333 14.5H10.9583C11.0136 14.5 11.0666 14.4781 11.1056 14.439C11.1447 14.4 11.1667 14.347 11.1667 14.2917V9.70837C11.1667 9.65312 11.1447 9.60013 11.1056 9.56106C11.0666 9.52199 11.0136 9.50004 10.9583 9.50004H10.125C10.0697 9.50004 10.0168 9.52199 9.97769 9.56106C9.93862 9.60013 9.91667 9.65312 9.91667 9.70837V9.91671C9.91667 10.1377 9.82887 10.3497 9.67259 10.506C9.51631 10.6622 9.30435 10.75 9.08333 10.75C8.86232 10.75 8.65036 10.6622 8.49408 10.506C8.3378 10.3497 8.25 10.1377 8.25 9.91671V8.66671C8.25 8.44569 8.3378 8.23373 8.49408 8.07745C8.65036 7.92117 8.86232 7.83337 9.08333 7.83337H14.9167C15.1377 7.83337 15.3496 7.92117 15.5059 8.07745Z" fill="#161616"/>
</svg>
