<svg width="24" height="24" viewBox="0 0 24 24" fill="none" xmlns="http://www.w3.org/2000/svg">
<path fill-rule="evenodd" clip-rule="evenodd" d="M6.1045 5.70077H5.1765V5.70213C4.70647 5.70213 4.32544 5.32109 4.32544 4.85106C4.32544 4.38103 4.70647 4 5.1765 4H9.07233C9.54236 4 9.9234 4.38103 9.9234 4.85106C9.9234 5.32109 9.54236 5.70213 9.07233 5.70213H8.14978C8.05577 5.70213 7.97957 5.77833 7.97957 5.87234V11.6752C7.97957 13.8972 9.78079 15.6984 12.0027 15.6984C14.2246 15.6984 16.0259 13.8972 16.0259 11.6752V5.87234C16.0259 5.77833 15.9497 5.70213 15.8557 5.70213H14.9277C14.4576 5.70213 14.0766 5.32109 14.0766 4.85106C14.0766 4.38103 14.4576 4 14.9277 4H18.8235C19.2935 4 19.6745 4.38103 19.6745 4.85106C19.6745 5.32109 19.2935 5.70213 18.8235 5.70213H17.8955C17.8015 5.70213 17.7253 5.77833 17.7253 5.87234V11.6739C17.7253 14.8359 15.162 17.3991 12 17.3991C8.83801 17.3991 6.27472 14.8359 6.27472 11.6739V5.87098C6.27472 5.77697 6.19851 5.70077 6.1045 5.70077ZM4.85106 18.2965H19.1489C19.619 18.2965 20 18.6775 20 19.1475C20 19.6176 19.619 19.9986 19.1489 19.9986H4.85106C4.38103 19.9986 4 19.6176 4 19.1475C4 18.6775 4.38103 18.2965 4.85106 18.2965Z" fill="#161616"/>
</svg>
