<svg width="24" height="24" viewBox="0 0 24 24" fill="none" xmlns="http://www.w3.org/2000/svg">
<path d="M22 12.8511C22.0057 12.7078 21.9825 12.5649 21.9316 12.4309C21.8807 12.2969 21.8032 12.1745 21.7039 12.0712C21.6045 11.9678 21.4853 11.8856 21.3534 11.8295C21.2214 11.7734 21.0795 11.7446 20.9362 11.7447H13.3277C13.2423 11.7442 13.1591 11.7174 13.0894 11.6681C12.4766 11.234 11.8298 10.817 11.2 10.4511C8.82553 8.98723 7.37872 7.98298 7.37872 6.31489C7.37872 4.40851 9.25957 4.12766 10.3745 4.12766C11.2976 4.02027 12.2285 4.24996 12.9957 4.77447C13.3431 5.26905 13.4807 5.88091 13.3787 6.4766V6.7234C13.3787 7.00555 13.4908 7.27614 13.6903 7.47565C13.8898 7.67515 14.1604 7.78723 14.4426 7.78723C14.7247 7.78723 14.9953 7.67515 15.1948 7.47565C15.3943 7.27614 15.5064 7.00555 15.5064 6.7234V6.49362C15.5783 5.92196 15.5306 5.34161 15.3666 4.78931C15.2025 4.23701 14.9255 3.7248 14.5532 3.28511C13.7021 2.41702 12.3064 2 10.3745 2C7.25957 2 5.26809 3.70213 5.26809 6.31489C5.26809 8.67234 6.8766 10.1532 8.67234 11.3532C8.70919 11.3794 8.7371 11.4164 8.75232 11.459C8.76753 11.5016 8.76932 11.5478 8.75745 11.5915C8.74456 11.6357 8.71768 11.6745 8.68085 11.7021C8.64402 11.7297 8.59923 11.7447 8.55319 11.7447H3.06383C2.78168 11.7447 2.5111 11.8568 2.31159 12.0563C2.11208 12.2558 2 12.5264 2 12.8085C2 13.0907 2.11208 13.3612 2.31159 13.5608C2.5111 13.7603 2.78168 13.8723 3.06383 13.8723H12.4255C12.4753 13.8742 12.523 13.8921 12.5617 13.9234C13.0497 14.2505 13.4531 14.6888 13.7387 15.2022C14.0242 15.7156 14.1838 16.2895 14.2043 16.8766C14.2043 19.6511 11.2851 19.8723 10.3915 19.8723C8.85106 19.8723 7.71915 19.5234 7.13192 18.8766C6.88201 18.5531 6.70351 18.1802 6.60816 17.7827C6.5128 17.3851 6.50277 16.9719 6.57872 16.5702C6.60581 16.2892 6.52015 16.0089 6.3406 15.7911C6.16104 15.5732 5.90229 15.4356 5.62128 15.4085C5.34026 15.3814 5.05999 15.4671 4.84213 15.6466C4.62427 15.8262 4.48666 16.0849 4.45957 16.366C4.34527 17.0599 4.3819 17.7703 4.56695 18.4489C4.752 19.1274 5.08113 19.758 5.53191 20.2979C6.55319 21.4298 8.18723 22 10.3745 22C13.9234 22 16.3319 19.9404 16.3319 16.8936C16.343 15.9503 16.0926 15.0224 15.6085 14.2128C15.588 14.1811 15.5771 14.1441 15.5771 14.1064C15.5771 14.0686 15.588 14.0317 15.6085 14C15.6247 13.9665 15.6501 13.9383 15.6818 13.9187C15.7134 13.8991 15.75 13.8889 15.7872 13.8894H20.9362C21.2139 13.8894 21.4807 13.7809 21.6795 13.5869C21.8783 13.3928 21.9933 13.1288 22 12.8511Z" fill="#161616"/>
</svg>
