<svg width="24" height="24" viewBox="0 0 24 24" fill="none" xmlns="http://www.w3.org/2000/svg">
<path fill-rule="evenodd" clip-rule="evenodd" d="M17.3617 6H13.462C13.1094 6 12.8237 6.28578 12.8237 6.6383C12.8237 6.99082 13.1094 7.2766 13.462 7.2766H14.0165C14.0631 7.27661 14.1059 7.30197 14.1284 7.34278C14.1508 7.38359 14.1492 7.43337 14.1243 7.47268L8.31319 16.6054C8.26624 16.679 8.18497 16.7235 8.0977 16.7234H6.6383C6.28578 16.7234 6 17.0092 6 17.3617C6 17.7142 6.28578 18 6.6383 18H10.538C10.8906 18 11.1763 17.7142 11.1763 17.3617C11.1763 17.0092 10.8906 16.7234 10.538 16.7234H9.98349C9.93692 16.7234 9.89406 16.698 9.87164 16.6572C9.84921 16.6164 9.85079 16.5666 9.87575 16.5273L15.6868 7.39506C15.7336 7.32131 15.8149 7.27661 15.9023 7.2766H17.3617C17.7142 7.2766 18 6.99082 18 6.6383C18 6.28578 17.7142 6 17.3617 6Z" fill="#161616"/>
</svg>
