<svg width="24" height="24" viewBox="0 0 24 24" fill="none" xmlns="http://www.w3.org/2000/svg">
<path fill-rule="evenodd" clip-rule="evenodd" d="M15.6291 11.294C16.8472 10.081 17.2189 8.2557 16.5722 6.66291C15.9255 5.07012 14.3866 4.02058 12.6677 4H6.85099C6.381 4 6 4.381 6 4.85099C6 5.32098 6.381 5.70198 6.85099 5.70198H7.54063C7.63463 5.70198 7.71083 5.77818 7.71083 5.87218V18.1278C7.71083 18.2218 7.63463 18.298 7.54063 18.298H6.85099C6.381 18.298 6 18.679 6 19.149C6 19.619 6.381 20 6.85099 20H13.6337C15.7591 19.9821 17.5942 18.5072 18.0689 16.4355C18.5437 14.3637 17.5339 12.237 15.6285 11.2954L15.6291 11.294ZM12.6677 5.70195C14.0657 5.72475 15.1871 6.86456 15.1871 8.26276C15.1871 9.66096 14.0657 10.8008 12.6677 10.8236H9.58299C9.48899 10.8236 9.41279 10.7474 9.41279 10.6534V5.87351C9.41279 5.77952 9.48899 5.70331 9.58299 5.70331L12.6677 5.70195ZM13.6344 18.2967H9.58299C9.48899 18.2967 9.41279 18.2205 9.41279 18.1265V12.6958C9.41279 12.6018 9.48899 12.5256 9.58299 12.5256H12.6677C12.6792 12.5256 12.6901 12.5256 12.701 12.5256H12.7099H13.6344C15.2108 12.5498 16.476 13.8346 16.476 15.4111C16.476 16.9877 15.2108 18.2725 13.6344 18.2967Z" fill="#161616"/>
</svg>
