<svg width="24" height="24" viewBox="0 0 24 24" fill="none" xmlns="http://www.w3.org/2000/svg">
<path fill-rule="evenodd" clip-rule="evenodd" d="M19.1489 4H13.9493C13.4792 4 13.0982 4.38103 13.0982 4.85106C13.0982 5.32109 13.4792 5.70213 13.9493 5.70213H14.6887C14.7508 5.70214 14.8079 5.73596 14.8378 5.79037C14.8677 5.84478 14.8656 5.91116 14.8323 5.96357L7.08426 18.1406C7.02165 18.2387 6.91329 18.298 6.79694 18.2979H4.85106C4.38103 18.2979 4 18.6789 4 19.1489C4 19.619 4.38103 20 4.85106 20H10.0507C10.5208 20 10.9018 19.619 10.9018 19.1489C10.9018 18.6789 10.5208 18.2979 10.0507 18.2979H9.31132C9.24923 18.2979 9.19208 18.264 9.16218 18.2096C9.13228 18.1552 9.13438 18.0888 9.16766 18.0364L16.9157 5.86009C16.9782 5.76174 17.0866 5.70215 17.2031 5.70213H19.1489C19.619 5.70213 20 5.32109 20 4.85106C20 4.38103 19.619 4 19.1489 4Z" fill="#161616"/>
</svg>
