<svg width="24" height="24" viewBox="0 0 24 24" fill="none" xmlns="http://www.w3.org/2000/svg">
<path d="M18 12.5106C18.0034 12.4247 17.9895 12.3389 17.9589 12.2585C17.9284 12.1781 17.8819 12.1047 17.8223 12.0427C17.7627 11.9807 17.6912 11.9314 17.612 11.8977C17.5329 11.8641 17.4477 11.8467 17.3617 11.8468H12.7966C12.7454 11.8465 12.6954 11.8304 12.6536 11.8009C12.286 11.5404 11.8979 11.2902 11.52 11.0706C10.0953 10.1923 9.22723 9.58979 9.22723 8.58894C9.22723 7.44511 10.3557 7.2766 11.0247 7.2766C11.5786 7.21216 12.1371 7.34998 12.5974 7.66468C12.8058 7.96143 12.8884 8.32855 12.8272 8.68596V8.83404C12.8272 9.00333 12.8945 9.16568 13.0142 9.28539C13.1339 9.40509 13.2962 9.47234 13.4655 9.47234C13.6348 9.47234 13.7972 9.40509 13.9169 9.28539C14.0366 9.16568 14.1038 9.00333 14.1038 8.83404V8.69617C14.147 8.35318 14.1184 8.00497 14.0199 7.67359C13.9215 7.34221 13.7553 7.03488 13.5319 6.77106C13.0213 6.25021 12.1838 6 11.0247 6C9.15575 6 7.96085 7.02128 7.96085 8.58894C7.96085 10.0034 8.92596 10.8919 10.0034 11.6119C10.0255 11.6277 10.0423 11.6498 10.0514 11.6754C10.0605 11.701 10.0616 11.7287 10.0545 11.7549C10.0467 11.7814 10.0306 11.8047 10.0085 11.8213C9.98641 11.8378 9.95954 11.8468 9.93192 11.8468H6.6383C6.46901 11.8468 6.30666 11.9141 6.18695 12.0338C6.06725 12.1535 6 12.3158 6 12.4851C6 12.6544 6.06725 12.8167 6.18695 12.9365C6.30666 13.0562 6.46901 13.1234 6.6383 13.1234H12.2553C12.2852 13.1245 12.3138 13.1353 12.337 13.154C12.6298 13.3503 12.8719 13.6133 13.0432 13.9213C13.2145 14.2294 13.3103 14.5737 13.3226 14.926C13.3226 16.5906 11.5711 16.7234 11.0349 16.7234C10.1106 16.7234 9.43149 16.514 9.07915 16.126C8.92921 15.9318 8.8221 15.7081 8.76489 15.4696C8.70768 15.2311 8.70166 14.9831 8.74723 14.7421C8.76349 14.5735 8.71209 14.4054 8.60436 14.2746C8.49662 14.1439 8.34138 14.0614 8.17277 14.0451C8.00416 14.0289 7.836 14.0802 7.70528 14.188C7.57456 14.2957 7.492 14.451 7.47574 14.6196C7.40717 15.0359 7.42914 15.4622 7.54017 15.8693C7.6512 16.2764 7.84868 16.6548 8.11915 16.9787C8.73192 17.6579 9.71234 18 11.0247 18C13.154 18 14.5991 16.7643 14.5991 14.9362C14.6058 14.3702 14.4556 13.8134 14.1651 13.3277C14.1528 13.3086 14.1462 13.2865 14.1462 13.2638C14.1462 13.2412 14.1528 13.219 14.1651 13.2C14.1748 13.1799 14.1901 13.163 14.2091 13.1512C14.2281 13.1394 14.25 13.1333 14.2723 13.1336H17.3617C17.5284 13.1337 17.6884 13.0685 17.8077 12.9521C17.927 12.8357 17.996 12.6773 18 12.5106Z" fill="#161616"/>
</svg>
