<svg width="24" height="24" viewBox="0 0 24 24" fill="none" xmlns="http://www.w3.org/2000/svg">
<path fill-rule="evenodd" clip-rule="evenodd" d="M7.57841 7.27557H6.88241V7.2766C6.52989 7.2766 6.24412 6.99082 6.24412 6.6383C6.24412 6.28578 6.52989 6 6.88241 6H9.80429C10.1568 6 10.4426 6.28578 10.4426 6.6383C10.4426 6.99082 10.1568 7.2766 9.80429 7.2766H9.11237C9.04187 7.2766 8.98471 7.33375 8.98471 7.40426V11.7564C8.98471 13.4229 10.3356 14.7738 12.0021 14.7738C13.6685 14.7738 15.0194 13.4229 15.0194 11.7564V7.40426C15.0194 7.33375 14.9623 7.2766 14.8918 7.2766H14.1958C13.8433 7.2766 13.5575 6.99082 13.5575 6.6383C13.5575 6.28578 13.8433 6 14.1958 6H17.1176C17.4702 6 17.7559 6.28578 17.7559 6.6383C17.7559 6.99082 17.4702 7.2766 17.1176 7.2766H16.4216C16.3511 7.2766 16.294 7.33375 16.294 7.40426V11.7554C16.294 14.1269 14.3715 16.0494 12 16.0494C9.62854 16.0494 7.70607 14.1269 7.70607 11.7554V7.40323C7.70607 7.33273 7.64892 7.27557 7.57841 7.27557ZM6.6383 16.7224H17.3617C17.7142 16.7224 18 17.0081 18 17.3607C18 17.7132 17.7142 17.999 17.3617 17.999H6.6383C6.28578 17.999 6 17.7132 6 17.3607C6 17.0081 6.28578 16.7224 6.6383 16.7224Z" fill="#161616"/>
</svg>
