<svg width="24" height="24" viewBox="0 0 24 24" fill="none" xmlns="http://www.w3.org/2000/svg">
<path fill-rule="evenodd" clip-rule="evenodd" d="M14.2219 11.4705C15.1354 10.5607 15.4142 9.19177 14.9292 7.99718C14.4442 6.80259 13.29 6.01543 12.0008 6H7.63824C7.28575 6 7 6.28575 7 6.63824C7 6.99074 7.28575 7.27649 7.63824 7.27649H8.15548C8.22597 7.27649 8.28312 7.33364 8.28312 7.40414V16.5959C8.28312 16.6664 8.22597 16.7235 8.15548 16.7235H7.63824C7.28575 16.7235 7 17.0093 7 17.3618C7 17.7142 7.28575 18 7.63824 18H12.7253C14.3193 17.9865 15.6956 16.8804 16.0517 15.3266C16.4078 13.7728 15.6505 12.1778 14.2213 11.4715L14.2219 11.4705ZM12.0007 7.27646C13.0493 7.29356 13.8903 8.14842 13.8903 9.19707C13.8903 10.2457 13.0493 11.1006 12.0007 11.1177H9.68724C9.61674 11.1177 9.55959 11.0605 9.55959 10.99V7.40513C9.55959 7.33464 9.61674 7.27749 9.68724 7.27749L12.0007 7.27646ZM12.7258 16.7225H9.68724C9.61674 16.7225 9.55959 16.6654 9.55959 16.5949V12.5218C9.55959 12.4513 9.61674 12.3942 9.68724 12.3942H12.0007C12.0094 12.3942 12.0176 12.3942 12.0258 12.3942H12.0324H12.7258C13.9081 12.4123 14.857 13.3759 14.857 14.5583C14.857 15.7408 13.9081 16.7043 12.7258 16.7225Z" fill="#161616"/>
</svg>
