<svg width="24" height="24" viewBox="0 0 24 24" fill="none" xmlns="http://www.w3.org/2000/svg">
<path fill-rule="evenodd" clip-rule="evenodd" d="M16.0364 11.1175C17.559 9.60122 18.0237 7.31962 17.2153 5.32864C16.4069 3.33765 14.4833 2.02572 12.3346 2H5.06374C4.47625 2 4 2.47625 4 3.06374C4 3.65123 4.47625 4.12748 5.06374 4.12748H5.92579C6.04329 4.12748 6.13854 4.22273 6.13854 4.34023V19.6598C6.13854 19.7773 6.04329 19.8725 5.92579 19.8725H5.06374C4.47625 19.8725 4 20.3488 4 20.9363C4 21.5237 4.47625 22 5.06374 22H13.5422C16.1989 21.9776 18.4927 20.1341 19.0861 17.5444C19.6796 14.9547 18.4174 12.2963 16.0356 11.1192L16.0364 11.1175ZM12.3346 4.12748C14.0821 4.15597 15.4838 5.58073 15.4838 7.32848C15.4838 9.07623 14.0821 10.501 12.3346 10.5295H8.47877C8.36127 10.5295 8.26602 10.4342 8.26602 10.3167V4.34193C8.26602 4.22443 8.36127 4.12918 8.47877 4.12918L12.3346 4.12748ZM13.543 19.8708H8.47877C8.36127 19.8708 8.26602 19.7756 8.26602 19.6581V12.8697C8.26602 12.7522 8.36127 12.657 8.47877 12.657H12.3346C12.3491 12.657 12.3627 12.657 12.3763 12.657H12.3874H13.543C15.5135 12.6872 17.095 14.2932 17.095 16.2639C17.095 18.2346 15.5135 19.8406 13.543 19.8708Z" fill="#161616"/>
</svg>
