<svg width="24" height="24" viewBox="0 0 24 24" fill="none" xmlns="http://www.w3.org/2000/svg">
<path fill-rule="evenodd" clip-rule="evenodd" d="M4.63064 4.12596H3.47064V4.12766C2.8831 4.12766 2.40681 3.65137 2.40681 3.06383C2.40681 2.47629 2.8831 2 3.47064 2H8.34043C8.92796 2 9.40426 2.47629 9.40426 3.06383C9.40426 3.65137 8.92796 4.12766 8.34043 4.12766H7.18723C7.06973 4.12766 6.97447 4.22292 6.97447 4.34043V11.594C6.97447 14.3714 9.226 16.623 12.0034 16.623C14.7808 16.623 17.0323 14.3714 17.0323 11.594V4.34043C17.0323 4.22292 16.9371 4.12766 16.8196 4.12766H15.6596C15.072 4.12766 14.5957 3.65137 14.5957 3.06383C14.5957 2.47629 15.072 2 15.6596 2H20.5294C21.1169 2 21.5932 2.47629 21.5932 3.06383C21.5932 3.65137 21.1169 4.12766 20.5294 4.12766H19.3694C19.2519 4.12766 19.1566 4.22292 19.1566 4.34043V11.5923C19.1566 15.5448 15.9525 18.7489 12 18.7489C8.04752 18.7489 4.8434 15.5448 4.8434 11.5923V4.33872C4.8434 4.22122 4.74815 4.12596 4.63064 4.12596ZM2 20.9345C2 20.3469 2.47629 19.8706 3.06383 19.8706H20.9362C21.5237 19.8706 22 20.3469 22 20.9345C22 21.522 21.5237 21.9983 20.9362 21.9983H3.06383C2.47629 21.9983 2 21.522 2 20.9345Z" fill="#161616"/>
</svg>
