<svg width="24" height="24" viewBox="0 0 24 24" fill="none" xmlns="http://www.w3.org/2000/svg">
<path d="M20 12.6809C20.0046 12.5663 19.986 12.4519 19.9453 12.3447C19.9045 12.2375 19.8426 12.1396 19.7631 12.0569C19.6836 11.9743 19.5882 11.9085 19.4827 11.8636C19.3771 11.8187 19.2636 11.7957 19.1489 11.7957H13.0621C12.9938 11.7953 12.9273 11.7739 12.8715 11.7345C12.3813 11.3872 11.8638 11.0536 11.36 10.7609C9.46043 9.58979 8.30298 8.78638 8.30298 7.45191C8.30298 5.92681 9.80766 5.70213 10.6996 5.70213C11.4381 5.61621 12.1828 5.79997 12.7966 6.21957C13.0745 6.61524 13.1846 7.10473 13.103 7.58128V7.77872C13.103 8.00444 13.1926 8.22091 13.3523 8.38052C13.5119 8.54012 13.7283 8.62979 13.954 8.62979C14.1798 8.62979 14.3962 8.54012 14.5558 8.38052C14.7154 8.22091 14.8051 8.00444 14.8051 7.77872V7.59489C14.8626 7.13757 14.8245 6.67329 14.6933 6.23145C14.562 5.78961 14.3404 5.37984 14.0426 5.02809C13.3617 4.33362 12.2451 4 10.6996 4C8.20766 4 6.61447 5.3617 6.61447 7.45191C6.61447 9.33787 7.90128 10.5226 9.33787 11.4826C9.36735 11.5036 9.38968 11.5331 9.40185 11.5672C9.41403 11.6013 9.41546 11.6383 9.40596 11.6732C9.39565 11.7085 9.37414 11.7396 9.34468 11.7617C9.31522 11.7838 9.27938 11.7957 9.24255 11.7957H4.85106C4.62535 11.7957 4.40888 11.8854 4.24927 12.045C4.08967 12.2046 4 12.4211 4 12.6468C4 12.8725 4.08967 13.089 4.24927 13.2486C4.40888 13.4082 4.62535 13.4979 4.85106 13.4979H12.3404C12.3802 13.4993 12.4184 13.5137 12.4494 13.5387C12.8398 13.8004 13.1625 14.151 13.3909 14.5617C13.6194 14.9725 13.747 15.4316 13.7634 15.9013C13.7634 18.1209 11.4281 18.2979 10.7132 18.2979C9.48085 18.2979 8.57532 18.0187 8.10553 17.5013C7.90561 17.2424 7.76281 16.9442 7.68652 16.6261C7.61024 16.3081 7.60222 15.9775 7.66298 15.6562C7.68465 15.4314 7.61612 15.2071 7.47248 15.0329C7.32883 14.8586 7.12183 14.7485 6.89702 14.7268C6.67221 14.7051 6.44799 14.7737 6.27371 14.9173C6.09942 15.061 5.98933 15.268 5.96766 15.4928C5.87622 16.0479 5.90552 16.6163 6.05356 17.1591C6.2016 17.7019 6.4649 18.2064 6.82553 18.6383C7.64255 19.5438 8.94979 20 10.6996 20C13.5387 20 15.4655 18.3523 15.4655 15.9149C15.4744 15.1603 15.2741 14.4179 14.8868 13.7702C14.8704 13.7449 14.8617 13.7153 14.8617 13.6851C14.8617 13.6549 14.8704 13.6254 14.8868 13.6C14.8998 13.5732 14.9201 13.5506 14.9454 13.5349C14.9707 13.5192 15 13.5111 15.0298 13.5115H19.1489C19.3712 13.5116 19.5846 13.4247 19.7436 13.2695C19.9027 13.1143 19.9947 12.903 20 12.6809Z" fill="#161616"/>
</svg>
