<svg width="24" height="24" viewBox="0 0 24 24" fill="none" xmlns="http://www.w3.org/2000/svg">
<path d="M17.4277 4H6.57231C6.15531 4 5.75538 4.15858 5.46052 4.44085C5.16565 4.72312 5 5.10596 5 5.50515V6.80412C5 7.03197 5.09455 7.25049 5.26285 7.4116C5.43115 7.57272 5.65942 7.66323 5.89744 7.66323C6.13545 7.66323 6.36372 7.57272 6.53202 7.4116C6.70032 7.25049 6.79487 7.03197 6.79487 6.80412V5.89003C6.79487 5.84446 6.81378 5.80076 6.84744 5.76854C6.8811 5.73632 6.92676 5.71821 6.97436 5.71821H10.9231C10.9707 5.71821 11.0163 5.73632 11.05 5.76854C11.0837 5.80076 11.1026 5.84446 11.1026 5.89003V18.11C11.1026 18.1555 11.0837 18.1992 11.05 18.2315C11.0163 18.2637 10.9707 18.2818 10.9231 18.2818H9.62359C9.38557 18.2818 9.15731 18.3723 8.98901 18.5334C8.8207 18.6945 8.72615 18.913 8.72615 19.1409C8.72615 19.3687 8.8207 19.5873 8.98901 19.7484C9.15731 19.9095 9.38557 20 9.62359 20H14.3764C14.6144 20 14.8427 19.9095 15.011 19.7484C15.1793 19.5873 15.2738 19.3687 15.2738 19.1409C15.2738 18.913 15.1793 18.6945 15.011 18.5334C14.8427 18.3723 14.6144 18.2818 14.3764 18.2818H13.0769C13.0293 18.2818 12.9837 18.2637 12.95 18.2315C12.9163 18.1992 12.8974 18.1555 12.8974 18.11V5.89003C12.8974 5.84446 12.9163 5.80076 12.95 5.76854C12.9837 5.73632 13.0293 5.71821 13.0769 5.71821H17.0256C17.0732 5.71821 17.1189 5.73632 17.1526 5.76854C17.1862 5.80076 17.2051 5.84446 17.2051 5.89003V6.80412C17.2051 7.03197 17.2997 7.25049 17.468 7.4116C17.6363 7.57272 17.8645 7.66323 18.1026 7.66323C18.3406 7.66323 18.5688 7.57272 18.7371 7.4116C18.9054 7.25049 19 7.03197 19 6.80412V5.50515C19 5.10596 18.8343 4.72312 18.5395 4.44085C18.2446 4.15858 17.8447 4 17.4277 4Z" fill="#161616"/>
</svg>
