<svg width="24" height="24" viewBox="0 0 24 24" fill="none" xmlns="http://www.w3.org/2000/svg">
<path d="M18.2031 2H5.79692C5.32035 2 4.8633 2.19822 4.52631 2.55106C4.18932 2.9039 4 3.38245 4 3.88144V5.50515C4 5.78997 4.10806 6.06311 4.3004 6.2645C4.49275 6.4659 4.75362 6.57904 5.02564 6.57904C5.29766 6.57904 5.55853 6.4659 5.75088 6.2645C5.94322 6.06311 6.05128 5.78997 6.05128 5.50515V4.36254C6.05128 4.30558 6.07289 4.25095 6.11136 4.21067C6.14983 4.17039 6.20201 4.14777 6.25641 4.14777H10.7692C10.8236 4.14777 10.8758 4.17039 10.9143 4.21067C10.9527 4.25095 10.9744 4.30558 10.9744 4.36254V19.6375C10.9744 19.6944 10.9527 19.7491 10.9143 19.7893C10.8758 19.8296 10.8236 19.8522 10.7692 19.8522H9.2841C9.01209 19.8522 8.75121 19.9654 8.55887 20.1668C8.36652 20.3682 8.25846 20.6413 8.25846 20.9261C8.25846 21.2109 8.36652 21.4841 8.55887 21.6855C8.75121 21.8869 9.01209 22 9.2841 22H14.7159C14.9879 22 15.2488 21.8869 15.4411 21.6855C15.6335 21.4841 15.7415 21.2109 15.7415 20.9261C15.7415 20.6413 15.6335 20.3682 15.4411 20.1668C15.2488 19.9654 14.9879 19.8522 14.7159 19.8522H13.2308C13.1764 19.8522 13.1242 19.8296 13.0857 19.7893C13.0473 19.7491 13.0256 19.6944 13.0256 19.6375V4.36254C13.0256 4.30558 13.0473 4.25095 13.0857 4.21067C13.1242 4.17039 13.1764 4.14777 13.2308 4.14777H17.7436C17.798 4.14777 17.8502 4.17039 17.8886 4.21067C17.9271 4.25095 17.9487 4.30558 17.9487 4.36254V5.50515C17.9487 5.78997 18.0568 6.06311 18.2491 6.2645C18.4415 6.4659 18.7023 6.57904 18.9744 6.57904C19.2464 6.57904 19.5073 6.4659 19.6996 6.2645C19.8919 6.06311 20 5.78997 20 5.50515V3.88144C20 3.38245 19.8107 2.9039 19.4737 2.55106C19.1367 2.19822 18.6797 2 18.2031 2Z" fill="#161616"/>
</svg>
