<svg width="24" height="24" viewBox="0 0 24 24" fill="none" xmlns="http://www.w3.org/2000/svg">
<path d="M16.2646 6H7.73538C7.40774 6 7.09352 6.11893 6.86184 6.33064C6.63016 6.54234 6.5 6.82947 6.5 7.12887V8.10309C6.5 8.27398 6.57429 8.43787 6.70653 8.5587C6.83876 8.67954 7.01812 8.74742 7.20513 8.74742C7.39214 8.74742 7.57149 8.67954 7.70373 8.5587C7.83597 8.43787 7.91026 8.27398 7.91026 8.10309V7.41753C7.91026 7.38335 7.92511 7.35057 7.95156 7.3264C7.97801 7.30224 8.01388 7.28866 8.05128 7.28866H11.1538C11.1912 7.28866 11.2271 7.30224 11.2536 7.3264C11.28 7.35057 11.2949 7.38335 11.2949 7.41753V16.5825C11.2949 16.6167 11.28 16.6494 11.2536 16.6736C11.2271 16.6978 11.1912 16.7113 11.1538 16.7113H10.1328C9.94581 16.7113 9.76646 16.7792 9.63422 16.9001C9.50198 17.0209 9.42769 17.1848 9.42769 17.3557C9.42769 17.5266 9.50198 17.6904 9.63422 17.8113C9.76646 17.9321 9.94581 18 10.1328 18H13.8672C14.0542 18 14.2335 17.9321 14.3658 17.8113C14.498 17.6904 14.5723 17.5266 14.5723 17.3557C14.5723 17.1848 14.498 17.0209 14.3658 16.9001C14.2335 16.7792 14.0542 16.7113 13.8672 16.7113H12.8462C12.8088 16.7113 12.7729 16.6978 12.7464 16.6736C12.72 16.6494 12.7051 16.6167 12.7051 16.5825V7.41753C12.7051 7.38335 12.72 7.35057 12.7464 7.3264C12.7729 7.30224 12.8088 7.28866 12.8462 7.28866H15.9487C15.9861 7.28866 16.022 7.30224 16.0484 7.3264C16.0749 7.35057 16.0897 7.38335 16.0897 7.41753V8.10309C16.0897 8.27398 16.164 8.43787 16.2963 8.5587C16.4285 8.67954 16.6079 8.74742 16.7949 8.74742C16.9819 8.74742 17.1612 8.67954 17.2935 8.5587C17.4257 8.43787 17.5 8.27398 17.5 8.10309V7.12887C17.5 6.82947 17.3698 6.54234 17.1382 6.33064C16.9065 6.11893 16.5923 6 16.2646 6Z" fill="#161616"/>
</svg>
