<svg width="24" height="24" viewBox="0 0 24 24" fill="none" xmlns="http://www.w3.org/2000/svg">
<path fill-rule="evenodd" clip-rule="evenodd" d="M10.3321 7.00039C10.7003 7.00039 10.9988 6.70187 10.9988 6.33363V4.66675C10.9988 4.29852 10.7003 4 10.3321 4C9.96385 4 9.66533 4.29852 9.66533 4.66675V6.33363C9.66533 6.70187 9.96385 7.00039 10.3321 7.00039ZM7.81647 7.52244C8.07919 7.777 8.49654 7.777 8.75926 7.52244C9.01955 7.26208 9.01955 6.84002 8.75926 6.57965L7.42575 5.24615C7.16413 4.99347 6.74828 4.99708 6.49109 5.25427C6.2339 5.51146 6.23029 5.92732 6.48297 6.18894L7.81647 7.52244ZM7.60443 10.0008H5.93755C5.56932 10.0008 5.2708 9.70227 5.2708 9.33404C5.2708 8.9658 5.56932 8.66728 5.93755 8.66728H7.60443C7.97267 8.66728 8.27119 8.9658 8.27119 9.33404C8.27119 9.70227 7.97267 10.0008 7.60443 10.0008ZM11.1502 15.9142L8.88324 18.1812C8.22233 18.8073 7.18718 18.8073 6.52627 18.1812L5.81884 17.4744C5.1717 16.8218 5.1717 15.7694 5.81884 15.1168L8.0858 12.8498C8.25913 12.6824 8.32864 12.4345 8.26762 12.2014C8.2066 11.9683 8.02455 11.7862 7.79143 11.7252C7.55832 11.6642 7.31042 11.7337 7.14301 11.907L4.87605 14.174C3.70798 15.3472 3.70798 17.244 4.87605 18.4172L5.58348 19.124C6.75649 20.292 8.65301 20.292 9.82602 19.124L12.093 16.857C12.2663 16.6896 12.3358 16.4417 12.2748 16.2086C12.2138 15.9755 12.0317 15.7934 11.7986 15.7324C11.5655 15.6714 11.3176 15.7409 11.1502 15.9142ZM13.9172 8.66728H16.9176C18.6021 8.68109 19.969 10.0341 20 11.7183V13.0518C19.9564 14.7208 18.5707 16.04 16.9016 16.0016H13.9172C13.549 16.0016 13.2505 15.703 13.2505 15.3348C13.2505 14.9666 13.549 14.6681 13.9172 14.6681H16.9016C17.8302 14.6953 18.6121 13.9792 18.6665 13.0518V11.7183C18.6236 10.7761 17.8605 10.0267 16.9176 10.0008H13.9172C13.549 10.0008 13.2505 9.70227 13.2505 9.33404C13.2505 8.9658 13.549 8.66728 13.9172 8.66728Z" fill="#161616"/>
</svg>
