<svg width="24" height="24" viewBox="0 0 24 24" fill="none" xmlns="http://www.w3.org/2000/svg">
<path fill-rule="evenodd" clip-rule="evenodd" d="M10.7491 8.25029C11.0252 8.25029 11.2491 8.0264 11.2491 7.75023V6.50006C11.2491 6.22389 11.0252 6 10.7491 6C10.4729 6 10.249 6.22389 10.249 6.50006V7.75023C10.249 8.0264 10.4729 8.25029 10.7491 8.25029ZM8.86235 8.64183C9.05939 8.83275 9.37241 8.83275 9.56944 8.64183C9.76466 8.44656 9.76466 8.13002 9.56944 7.93474L8.56932 6.93461C8.3731 6.7451 8.06121 6.74781 7.86832 6.9407C7.67542 7.1336 7.67271 7.44549 7.86222 7.6417L8.86235 8.64183ZM8.70333 10.5006H7.45316C7.17699 10.5006 6.9531 10.2767 6.9531 10.0005C6.9531 9.72435 7.17699 9.50046 7.45316 9.50046H8.70333C8.9795 9.50046 9.20339 9.72435 9.20339 10.0005C9.20339 10.2767 8.9795 10.5006 8.70333 10.5006ZM11.3626 14.9357L9.66243 16.6359C9.16674 17.1055 8.39038 17.1055 7.8947 16.6359L7.36413 16.1058C6.87877 15.6163 6.87877 14.8271 7.36413 14.3376L9.06435 12.6374C9.19435 12.5118 9.24648 12.3259 9.20072 12.1511C9.15495 11.9762 9.01841 11.8397 8.84358 11.7939C8.66874 11.7481 8.48281 11.8003 8.35726 11.9303L6.65704 13.6305C5.78099 14.5104 5.78099 15.933 6.65704 16.8129L7.18761 17.343C8.06737 18.219 9.48976 18.219 10.3695 17.343L12.0697 15.6428C12.1997 15.5172 12.2519 15.3313 12.2061 15.1564C12.1603 14.9816 12.0238 14.8451 11.849 14.7993C11.6741 14.7535 11.4882 14.8057 11.3626 14.9357ZM13.4379 9.50046H15.6882C16.9516 9.51082 17.9768 10.5256 18 11.7888V12.7889C17.9673 14.0406 16.9281 15.03 15.6762 15.0012H13.4379C13.1618 15.0012 12.9379 14.7773 12.9379 14.5011C12.9379 14.2249 13.1618 14.001 13.4379 14.001H15.6762C16.3726 14.0214 16.9591 13.4844 16.9999 12.7889V11.7888C16.9677 11.082 16.3954 10.52 15.6882 10.5006H13.4379C13.1618 10.5006 12.9379 10.2767 12.9379 10.0005C12.9379 9.72435 13.1618 9.50046 13.4379 9.50046Z" fill="#161616"/>
</svg>
