<svg width="24" height="24" viewBox="0 0 24 24" fill="none" xmlns="http://www.w3.org/2000/svg">
<path fill-rule="evenodd" clip-rule="evenodd" d="M9.91511 5.75048C10.3754 5.75048 10.7486 5.37734 10.7486 4.91704V2.83344C10.7486 2.37314 10.3754 2 9.91511 2C9.45482 2 9.08167 2.37314 9.08167 2.83344V4.91704C9.08167 5.37734 9.45482 5.75048 9.91511 5.75048ZM6.77054 6.40307C7.09893 6.72126 7.62063 6.72126 7.94903 6.40307C8.27439 6.07761 8.27439 5.55004 7.94903 5.22458L6.28214 3.5577C5.95512 3.24185 5.4353 3.24637 5.11381 3.56785C4.79233 3.88934 4.78781 4.40916 5.10366 4.73619L6.77054 6.40307ZM6.50551 9.50097H4.42191C3.96161 9.50097 3.58846 9.12782 3.58846 8.66752C3.58846 8.20723 3.96161 7.83408 4.42191 7.83408H6.50551C6.9658 7.83408 7.33895 8.20723 7.33895 8.66752C7.33895 9.12782 6.9658 9.50097 6.50551 9.50097ZM10.9377 16.8927L8.10405 19.7264C7.27791 20.5091 5.98397 20.5091 5.15783 19.7264L4.27355 18.843C3.46462 18.0272 3.46462 16.7118 4.27355 15.896L7.10725 13.0623C7.32391 12.853 7.4108 12.5431 7.33453 12.2517C7.25826 11.9603 7.03069 11.7328 6.73929 11.6565C6.4479 11.5802 6.13802 11.6671 5.92877 11.8838L3.09507 14.7175C1.63498 16.184 1.63498 18.5549 3.09507 20.0215L3.97935 20.9049C5.44562 22.3649 7.81626 22.3649 9.28253 20.9049L12.1162 18.0712C12.3329 17.862 12.4198 17.5521 12.3435 17.2607C12.2672 16.9693 12.0397 16.7417 11.7483 16.6655C11.4569 16.5892 11.147 16.6761 10.9377 16.8927ZM14.3965 7.83408H18.147C20.2526 7.85134 21.9612 9.54263 22 11.6479V13.3148C21.9454 15.401 20.2134 17.0499 18.127 17.0019H14.3965C13.9362 17.0019 13.5631 16.6288 13.5631 16.1685C13.5631 15.7082 13.9362 15.335 14.3965 15.335H18.127C19.2877 15.369 20.2651 14.474 20.3331 13.3148V11.6479C20.2794 10.4701 19.3256 9.53337 18.147 9.50097H14.3965C13.9362 9.50097 13.5631 9.12782 13.5631 8.66752C13.5631 8.20723 13.9362 7.83408 14.3965 7.83408Z" fill="#161616"/>
</svg>
