<svg width="24" height="24" viewBox="0 0 24 24" fill="none" xmlns="http://www.w3.org/2000/svg">
<path fill-rule="evenodd" clip-rule="evenodd" d="M12.1667 9.6667C9.31319 9.6667 7 11.9799 7 14.8334C7 17.6868 9.31319 20 12.1667 20C15.0201 20 17.3333 17.6868 17.3333 14.8334C17.33 11.9813 15.0188 9.67001 12.1667 9.6667ZM14.466 17.2847C14.5304 17.44 14.4887 17.6191 14.3624 17.7301C14.236 17.841 14.053 17.8592 13.9073 17.7753L12.2487 16.842C12.198 16.8134 12.136 16.8134 12.0853 16.842L10.4267 17.7753C10.2809 17.8592 10.0979 17.841 9.9716 17.7301C9.84525 17.6191 9.80359 17.44 9.86799 17.2847L10.5427 15.7333C10.5706 15.6701 10.5562 15.5962 10.5067 15.548L9.28865 14.348C9.17255 14.2454 9.13359 14.0809 9.19138 13.9371C9.24917 13.7934 9.3912 13.7016 9.54599 13.708H10.9373C11.0022 13.7083 11.0613 13.6708 11.0887 13.612L11.814 12.05C11.8818 11.9179 12.0178 11.8348 12.1663 11.8348C12.3148 11.8348 12.4509 11.9179 12.5187 12.05L13.244 13.612C13.2713 13.6708 13.3305 13.7083 13.3953 13.708H14.786C14.9408 13.7015 15.0829 13.7931 15.1411 13.9366C15.1993 14.0802 15.1609 14.2449 15.0453 14.348L13.8273 15.548C13.7778 15.5962 13.7634 15.6701 13.7913 15.7333L14.466 17.2847ZM8.63335 9.08067C8.6808 9.21829 8.78574 9.32849 8.92087 9.38262C9.05601 9.43675 9.208 9.42947 9.33734 9.36267C11.1278 8.4324 13.2606 8.43963 15.0447 9.382C15.1752 9.45079 15.3294 9.45852 15.4661 9.40313C15.6028 9.34775 15.7082 9.23489 15.754 9.09467L16.6207 6.42467C16.659 6.30737 16.6786 6.18475 16.6787 6.06134V5.16667C16.6783 4.85655 16.5547 4.5593 16.3349 4.34045C16.1152 4.1216 15.8175 3.99912 15.5073 4H8.82668C8.18265 4.00074 7.66075 4.52264 7.66001 5.16667V6.05534C7.65973 6.18395 7.68091 6.3117 7.72268 6.43334L8.63335 9.08067Z" fill="#161616"/>
</svg>
