<svg width="24" height="24" viewBox="0 0 24 24" fill="none" xmlns="http://www.w3.org/2000/svg">
<path fill-rule="evenodd" clip-rule="evenodd" d="M11.875 10.25C9.7349 10.25 8 11.9849 8 14.125C8 16.2651 9.7349 18 11.875 18C14.0151 18 15.75 16.2651 15.75 14.125C15.7475 11.9859 14.0141 10.2525 11.875 10.25ZM13.5995 15.9635C13.6478 16.08 13.6165 16.2143 13.5218 16.2976C13.427 16.3808 13.2898 16.3944 13.1805 16.3315L11.9365 15.6315C11.8985 15.61 11.852 15.61 11.814 15.6315L10.57 16.3315C10.4607 16.3944 10.3235 16.3808 10.2287 16.2976C10.1339 16.2143 10.1027 16.08 10.151 15.9635L10.657 14.8C10.6779 14.7526 10.6672 14.6971 10.63 14.661L9.71649 13.761C9.62941 13.6841 9.60019 13.5607 9.64354 13.4529C9.68688 13.3451 9.7934 13.2762 9.90949 13.281H10.953C11.0016 13.2812 11.046 13.2531 11.0665 13.209L11.6105 12.0375C11.6613 11.9384 11.7634 11.8761 11.8747 11.8761C11.9861 11.8761 12.0881 11.9384 12.139 12.0375L12.683 13.209C12.7035 13.2531 12.7478 13.2812 12.7965 13.281H13.8395C13.9556 13.2762 14.0622 13.3448 14.1058 13.4525C14.1495 13.5602 14.1207 13.6837 14.034 13.761L13.1205 14.661C13.0833 14.6971 13.0725 14.7526 13.0935 14.8L13.5995 15.9635ZM9.22497 9.8105C9.26057 9.91372 9.33927 9.99637 9.44062 10.037C9.54197 10.0776 9.65596 10.0721 9.75297 10.022C11.0958 9.3243 12.6954 9.32972 14.0335 10.0365C14.1313 10.0881 14.247 10.0939 14.3495 10.0524C14.4521 10.0108 14.5311 9.92616 14.5655 9.821L15.2155 7.8185C15.2442 7.73053 15.2589 7.63856 15.259 7.546V6.875C15.2587 6.64241 15.166 6.41948 15.0012 6.25534C14.8364 6.0912 14.6131 5.99934 14.3805 6H9.36997C8.88695 6.00055 8.49552 6.39198 8.49497 6.875V7.5415C8.49476 7.63796 8.51065 7.73378 8.54197 7.825L9.22497 9.8105Z" fill="#161616"/>
</svg>
