<svg width="24" height="24" viewBox="0 0 24 24" fill="none" xmlns="http://www.w3.org/2000/svg">
<path fill-rule="evenodd" clip-rule="evenodd" d="M20.3333 6.58333H20.1283C20.0078 6.58436 19.8927 6.5331 19.8128 6.44281C19.7329 6.35252 19.696 6.23205 19.7117 6.1125C19.8343 5.16915 19.9028 4.21953 19.9167 3.26833C19.9216 2.93365 19.7921 2.61098 19.5571 2.37257C19.3221 2.13417 19.0014 1.99996 18.6667 2H5.33333C4.99846 1.99996 4.67758 2.13428 4.4426 2.37287C4.20762 2.61145 4.0782 2.93434 4.08333 3.26917C4.095 4.21996 4.16122 5.1693 4.28167 6.1125C4.29735 6.23205 4.26047 6.35252 4.18057 6.44281C4.10066 6.5331 3.98557 6.58436 3.865 6.58333H3.66667C2.74619 6.58333 2 7.32953 2 8.25V10.3333C2.00414 12.0762 3.08858 13.6338 4.72167 14.2425C5.1536 14.402 5.63303 14.1811 5.7925 13.7492C5.95197 13.3172 5.7311 12.8378 5.29917 12.6783C4.31947 12.3133 3.66894 11.3788 3.66667 10.3333V8.66667C3.66667 8.43655 3.85321 8.25 4.08333 8.25H4.36917C4.55637 8.24989 4.72066 8.37465 4.77083 8.555C5.90667 12.655 8.41667 14.9167 12 14.9167C15.5833 14.9167 18.0933 12.655 19.2292 8.555C19.2793 8.37465 19.4436 8.24989 19.6308 8.25H19.9167C20.1468 8.25 20.3333 8.43655 20.3333 8.66667V10.3333C20.3311 11.3788 19.6805 12.3133 18.7008 12.6783C18.4214 12.7815 18.2183 13.0259 18.1679 13.3194C18.1175 13.613 18.2276 13.9111 18.4567 14.1015C18.6857 14.2919 18.9989 14.3457 19.2783 14.2425C20.9114 13.6338 21.9959 12.0762 22 10.3333V8.25C22 7.32953 21.2538 6.58333 20.3333 6.58333ZM15.75 18.7108C14.5642 18.5933 13.8333 18.17 13.6917 16.4658C13.6824 16.3519 13.6267 16.2468 13.5377 16.1751C13.4487 16.1034 13.3341 16.0714 13.2208 16.0867C12.4113 16.1934 11.5912 16.1934 10.7817 16.0867C10.6684 16.0714 10.5538 16.1034 10.4648 16.1751C10.3758 16.2468 10.3201 16.3519 10.3108 16.4658C10.1667 18.1725 9.435 18.5933 8.25 18.7108C7.37913 18.803 6.73213 19.5597 6.77645 20.4343C6.82077 21.3089 7.54095 21.9964 8.41667 22H15.5833C16.4582 21.9939 17.176 21.3056 17.2189 20.4318C17.2619 19.558 16.615 18.8027 15.745 18.7108H15.75ZM14.8763 11.0124C14.9568 11.2065 14.9047 11.4304 14.7468 11.5691C14.5889 11.7078 14.3601 11.7306 14.178 11.6257L12.1046 10.459C12.0413 10.4232 11.9638 10.4232 11.9005 10.459L9.82714 11.6257C9.64498 11.7306 9.41625 11.7078 9.25832 11.5691C9.10039 11.4304 9.04831 11.2065 9.12881 11.0124L9.97214 9.0732C10.007 8.99417 9.98909 8.90176 9.92714 8.84154L8.40464 7.34154C8.25951 7.21334 8.21081 7.00765 8.28305 6.82798C8.35529 6.64831 8.53282 6.53359 8.72631 6.54154H10.4655C10.5466 6.54194 10.6204 6.49506 10.6546 6.42154L11.5613 4.46904C11.646 4.30387 11.8161 4.2 12.0017 4.2C12.1874 4.2 12.3574 4.30387 12.4421 4.46904L13.3488 6.42154C13.383 6.49506 13.4569 6.54194 13.538 6.54154H15.2763C15.4698 6.53346 15.6475 6.64787 15.7202 6.82735C15.7929 7.00683 15.745 7.21265 15.6005 7.34154L14.078 8.84154C14.016 8.90176 13.9981 8.99417 14.033 9.0732L14.8763 11.0124Z" fill="#161616"/>
</svg>
