<svg width="24" height="24" viewBox="0 0 24 24" fill="none" xmlns="http://www.w3.org/2000/svg">
<path fill-rule="evenodd" clip-rule="evenodd" d="M18.6667 7.66667H18.5027C18.4062 7.66749 18.3141 7.62648 18.2502 7.55425C18.1863 7.48202 18.1568 7.38564 18.1693 7.29C18.2675 6.53532 18.3222 5.77562 18.3333 5.01467C18.3373 4.74692 18.2336 4.48878 18.0457 4.29806C17.8577 4.10734 17.6011 3.99997 17.3333 4H6.66667C6.39877 3.99997 6.14207 4.10743 5.95408 4.29829C5.7661 4.48916 5.66256 4.74747 5.66667 5.01533C5.676 5.77597 5.72898 6.53544 5.82533 7.29C5.83788 7.38564 5.80838 7.48202 5.74445 7.55425C5.68053 7.62648 5.58845 7.66749 5.492 7.66667H5.33333C4.59695 7.66667 4 8.26362 4 9V10.6667C4.00331 12.0609 4.87086 13.307 6.17733 13.794C6.52288 13.9216 6.90642 13.7449 7.034 13.3993C7.16158 13.0538 6.98488 12.6702 6.63933 12.5427C5.85557 12.2506 5.33515 11.5031 5.33333 10.6667V9.33333C5.33333 9.14924 5.48257 9 5.66667 9H5.89533C6.0451 8.99991 6.17653 9.09972 6.21667 9.244C7.12533 12.524 9.13333 14.3333 12 14.3333C14.8667 14.3333 16.8747 12.524 17.7833 9.244C17.8235 9.09972 17.9549 8.99991 18.1047 9H18.3333C18.5174 9 18.6667 9.14924 18.6667 9.33333V10.6667C18.6648 11.5031 18.1444 12.2506 17.3607 12.5427C17.1371 12.6252 16.9746 12.8207 16.9343 13.0556C16.894 13.2904 16.9821 13.5289 17.1653 13.6812C17.3486 13.8335 17.5991 13.8765 17.8227 13.794C19.1291 13.307 19.9967 12.0609 20 10.6667V9C20 8.26362 19.403 7.66667 18.6667 7.66667ZM15 17.3687C14.0513 17.2747 13.4667 16.936 13.3533 15.5727C13.3459 15.4816 13.3014 15.3975 13.2302 15.3401C13.1589 15.2828 13.0673 15.2572 12.9767 15.2694C12.329 15.3547 11.673 15.3547 11.0253 15.2694C10.9347 15.2572 10.843 15.2828 10.7718 15.3401C10.7006 15.3975 10.6561 15.4816 10.6487 15.5727C10.5333 16.938 9.94799 17.2747 8.99999 17.3687C8.30329 17.4424 7.7857 18.0478 7.82115 18.7475C7.8566 19.4472 8.43275 19.9971 9.13332 20H14.8667C15.5665 19.9951 16.1408 19.4446 16.1751 18.7455C16.2095 18.0465 15.692 17.4422 14.996 17.3687H15ZM14.301 11.2099C14.3654 11.3652 14.3238 11.5443 14.1974 11.6553C14.0711 11.7662 13.8881 11.7844 13.7424 11.7005L12.0837 10.7672C12.033 10.7386 11.9711 10.7386 11.9204 10.7672L10.2617 11.7005C10.116 11.7844 9.933 11.7662 9.80666 11.6553C9.68031 11.5443 9.63865 11.3652 9.70305 11.2099L10.3777 9.65852C10.4056 9.59529 10.3913 9.52137 10.3417 9.47319L9.12371 8.27319C9.00761 8.17063 8.96865 8.00608 9.02644 7.86234C9.08423 7.71861 9.22626 7.62683 9.38105 7.63319H10.7724C10.8372 7.63351 10.8964 7.59601 10.9237 7.53719L11.649 5.97519C11.7168 5.84306 11.8529 5.75996 12.0014 5.75996C12.1499 5.75996 12.2859 5.84306 12.3537 5.97519L13.079 7.53719C13.1064 7.59601 13.1655 7.63351 13.2304 7.63319H14.621C14.7758 7.62673 14.918 7.71826 14.9762 7.86184C15.0343 8.00542 14.996 8.17008 14.8804 8.27319L13.6624 9.47319C13.6128 9.52137 13.5985 9.59529 13.6264 9.65852L14.301 11.2099Z" fill="#161616"/>
</svg>
