<svg width="24" height="24" viewBox="0 0 24 24" fill="none" xmlns="http://www.w3.org/2000/svg">
<path fill-rule="evenodd" clip-rule="evenodd" d="M17 8.75H16.877C16.8047 8.75061 16.7356 8.71986 16.6877 8.66569C16.6397 8.61151 16.6176 8.53923 16.627 8.4675C16.7006 7.90149 16.7417 7.33172 16.75 6.761C16.7529 6.56019 16.6752 6.36659 16.5343 6.22354C16.3933 6.0805 16.2008 5.99998 16 6H8C7.79908 5.99998 7.60655 6.08057 7.46556 6.22372C7.32457 6.36687 7.24692 6.5606 7.25 6.7615C7.257 7.33197 7.29673 7.90158 7.369 8.4675C7.37841 8.53923 7.35628 8.61151 7.30834 8.66569C7.2604 8.71986 7.19134 8.75061 7.119 8.75H7C6.44772 8.75 6 9.19772 6 9.75V11C6.00248 12.0457 6.65315 12.9803 7.633 13.3455C7.89216 13.4412 8.17982 13.3087 8.2755 13.0495C8.37118 12.7903 8.23866 12.5027 7.9795 12.407C7.39168 12.188 7.00137 11.6273 7 11V10C7 9.86193 7.11193 9.75 7.25 9.75H7.4215C7.53382 9.74993 7.6324 9.82479 7.6625 9.933C8.344 12.393 9.85 13.75 12 13.75C14.15 13.75 15.656 12.393 16.3375 9.933C16.3676 9.82479 16.4662 9.74993 16.5785 9.75H16.75C16.8881 9.75 17 9.86193 17 10V11C16.9986 11.6273 16.6083 12.188 16.0205 12.407C15.8529 12.4689 15.731 12.6155 15.7007 12.7917C15.6705 12.9678 15.7366 13.1467 15.874 13.2609C16.0114 13.3752 16.1994 13.4074 16.367 13.3455C17.3469 12.9803 17.9975 12.0457 18 11V9.75C18 9.19772 17.5523 8.75 17 8.75ZM14.25 16.0265C13.5385 15.956 13.1 15.702 13.015 14.6795C13.0094 14.6112 12.976 14.5481 12.9226 14.5051C12.8692 14.4621 12.8005 14.4429 12.7325 14.452C12.2468 14.5161 11.7547 14.5161 11.269 14.452C11.201 14.4429 11.1323 14.4621 11.0789 14.5051C11.0255 14.5481 10.9921 14.6112 10.9865 14.6795C10.9 15.7035 10.461 15.956 9.74999 16.0265C9.22747 16.0818 8.83927 16.5359 8.86586 17.0606C8.89245 17.5854 9.32456 17.9979 9.84999 18H14.15C14.6749 17.9963 15.1056 17.5834 15.1313 17.0591C15.1571 16.5349 14.769 16.0817 14.247 16.0265H14.25ZM13.7258 11.4074C13.7741 11.5239 13.7428 11.6582 13.6481 11.7414C13.5533 11.8247 13.4161 11.8383 13.3068 11.7754L12.0628 11.0754C12.0248 11.0539 11.9783 11.0539 11.9403 11.0754L10.6963 11.7754C10.587 11.8383 10.4498 11.8247 10.355 11.7414C10.2602 11.6582 10.229 11.5239 10.2773 11.4074L10.7833 10.2439C10.8042 10.1965 10.7935 10.141 10.7563 10.1049L9.84279 9.20489C9.7557 9.12797 9.72648 9.00456 9.76983 8.89676C9.81317 8.78896 9.91969 8.72012 10.0358 8.72489H11.0793C11.1279 8.72513 11.1723 8.69701 11.1928 8.65289L11.7368 7.48139C11.7876 7.38229 11.8896 7.31997 12.001 7.31997C12.1124 7.31997 12.2144 7.38229 12.2653 7.48139L12.8093 8.65289C12.8298 8.69701 12.8741 8.72513 12.9228 8.72489H13.9658C14.0819 8.72005 14.1885 8.78869 14.2321 8.89638C14.2758 9.00407 14.247 9.12756 14.1603 9.20489L13.2468 10.1049C13.2096 10.141 13.1988 10.1965 13.2198 10.2439L13.7258 11.4074Z" fill="#161616"/>
</svg>
