<svg width="24" height="24" viewBox="0 0 24 24" fill="none" xmlns="http://www.w3.org/2000/svg">
<path fill-rule="evenodd" clip-rule="evenodd" d="M17.3333 10.3333H16.8333V8.5C16.8333 6.01472 14.8186 4 12.3333 4C9.84805 4 7.83333 6.01472 7.83333 8.5V10.3333H7.33333C6.59695 10.3333 6 10.9303 6 11.6667V18.6667C6 19.403 6.59695 20 7.33333 20H17.3333C18.0697 20 18.6667 19.403 18.6667 18.6667V11.6667C18.6667 10.9303 18.0697 10.3333 17.3333 10.3333ZM11 14.3333C10.9971 13.6855 11.4602 13.1294 12.0978 13.0149C12.7355 12.9005 13.3631 13.261 13.5856 13.8694C13.8081 14.4778 13.561 15.1581 13 15.482V17C13 17.3682 12.7015 17.6667 12.3333 17.6667C11.9652 17.6667 11.6667 17.3682 11.6667 17V15.482C11.2554 15.2455 11.0013 14.8078 11 14.3333ZM9.5 8.5C9.5 6.93519 10.7685 5.66667 12.3333 5.66667C13.8981 5.66667 15.1667 6.93519 15.1667 8.5V10C15.1667 10.1841 15.0174 10.3333 14.8333 10.3333H9.83333C9.64924 10.3333 9.5 10.1841 9.5 10V8.5Z" fill="#161616"/>
</svg>
