<svg width="24" height="24" viewBox="0 0 24 24" fill="none" xmlns="http://www.w3.org/2000/svg">
<path fill-rule="evenodd" clip-rule="evenodd" d="M18.1667 9.91667H17.5417V7.625C17.5417 4.5184 15.0233 2 11.9167 2C8.81006 2 6.29167 4.5184 6.29167 7.625V9.91667H5.66667C4.74619 9.91667 4 10.6629 4 11.5833V20.3333C4 21.2538 4.74619 22 5.66667 22H18.1667C19.0871 22 19.8333 21.2538 19.8333 20.3333V11.5833C19.8333 10.6629 19.0871 9.91667 18.1667 9.91667ZM10.25 14.9167C10.2464 14.1069 10.8253 13.4117 11.6223 13.2687C12.4193 13.1256 13.2038 13.5762 13.482 14.3367C13.7601 15.0972 13.4513 15.9476 12.75 16.3525V18.25C12.75 18.7102 12.3769 19.0833 11.9167 19.0833C11.4564 19.0833 11.0834 18.7102 11.0834 18.25V16.3525C10.5693 16.0569 10.2517 15.5097 10.25 14.9167ZM8.375 7.625C8.375 5.66899 9.96066 4.08333 11.9167 4.08333C13.8727 4.08333 15.4583 5.66899 15.4583 7.625V9.5C15.4583 9.73012 15.2718 9.91667 15.0417 9.91667H8.79167C8.56155 9.91667 8.375 9.73012 8.375 9.5V7.625Z" fill="#161616"/>
</svg>
