<svg width="24" height="24" viewBox="0 0 24 24" fill="none" xmlns="http://www.w3.org/2000/svg">
<path fill-rule="evenodd" clip-rule="evenodd" d="M18.1668 9.91653H17.5418V7.62484C17.5411 4.83374 15.4941 2.46519 12.7325 2.06006C9.97099 1.65492 7.32994 3.33572 6.52753 6.00899C6.42079 6.36551 6.51237 6.7519 6.76776 7.0226C7.02316 7.29329 7.40356 7.40718 7.76569 7.32135C8.12782 7.23552 8.41665 6.96302 8.52338 6.6065C9.02927 4.9238 10.6921 3.8662 12.4306 4.12148C14.169 4.37675 15.4577 5.86774 15.4585 7.62484V9.49986C15.4585 9.72998 15.2719 9.91653 15.0418 9.91653H5.66669C4.7462 9.91653 4 10.6627 4 11.5832V20.3333C4 21.2538 4.7462 22 5.66669 22H18.1668C19.0873 22 19.8335 21.2538 19.8335 20.3333V11.5832C19.8335 10.6627 19.0873 9.91653 18.1668 9.91653ZM10.2501 14.9166C10.2464 14.1068 10.8253 13.4116 11.6224 13.2686C12.4194 13.1256 13.2039 13.5761 13.482 14.3366C13.7602 15.0972 13.4514 15.9475 12.7501 16.3524V18.25C12.7501 18.7102 12.377 19.0833 11.9168 19.0833C11.4565 19.0833 11.0834 18.7102 11.0834 18.25V16.3524C10.5693 16.0568 10.2517 15.5096 10.2501 14.9166Z" fill="#161616"/>
</svg>
