<svg width="24" height="24" viewBox="0 0 24 24" fill="none" xmlns="http://www.w3.org/2000/svg">
<path fill-rule="evenodd" clip-rule="evenodd" d="M15.5 10.75H15.125V9.375C15.125 7.51104 13.614 6 11.75 6C9.88604 6 8.375 7.51104 8.375 9.375V10.75H8C7.44772 10.75 7 11.1977 7 11.75V17C7 17.5523 7.44772 18 8 18H15.5C16.0523 18 16.5 17.5523 16.5 17V11.75C16.5 11.1977 16.0523 10.75 15.5 10.75ZM10.75 13.75C10.7478 13.2641 11.0951 12.847 11.5734 12.7612C12.0516 12.6754 12.5223 12.9457 12.6892 13.402C12.856 13.8583 12.6708 14.3686 12.25 14.6115V15.75C12.25 16.0261 12.0261 16.25 11.75 16.25C11.4739 16.25 11.25 16.0261 11.25 15.75V14.6115C10.9415 14.4341 10.751 14.1058 10.75 13.75ZM9.625 9.375C9.625 8.2014 10.5764 7.25 11.75 7.25C12.9236 7.25 13.875 8.2014 13.875 9.375V10.5C13.875 10.6381 13.7631 10.75 13.625 10.75H9.875C9.73693 10.75 9.625 10.6381 9.625 10.5V9.375Z" fill="#161616"/>
</svg>
