<svg width="24" height="24" viewBox="0 0 24 24" fill="none" xmlns="http://www.w3.org/2000/svg">
<path fill-rule="evenodd" clip-rule="evenodd" d="M17.3335 10.3332H16.8335V8.49987C16.8328 6.26699 15.1953 4.37215 12.986 4.04804C10.7768 3.72394 8.66395 5.06858 8.02202 7.20719C7.93664 7.49241 8.0099 7.80152 8.21421 8.01808C8.41853 8.23464 8.72285 8.32574 9.01255 8.25708C9.30226 8.18842 9.53332 7.97042 9.61871 7.6852C10.0234 6.33904 11.3537 5.49296 12.7445 5.69718C14.1352 5.9014 15.1661 7.0942 15.1668 8.49987V9.99989C15.1668 10.184 15.0175 10.3332 14.8334 10.3332H7.33335C6.59696 10.3332 6 10.9302 6 11.6666V18.6667C6 19.403 6.59696 20 7.33335 20H17.3335C18.0698 20 18.6668 19.403 18.6668 18.6667V11.6666C18.6668 10.9302 18.0698 10.3332 17.3335 10.3332ZM11.0001 14.3333C10.9971 13.6855 11.4603 13.1293 12.0979 13.0149C12.7355 12.9004 13.3632 13.2609 13.5856 13.8693C13.8081 14.4777 13.5611 15.158 13.0001 15.4819V17C13.0001 17.3682 12.7016 17.6666 12.3334 17.6666C11.9652 17.6666 11.6667 17.3682 11.6667 17V15.4819C11.2555 15.2455 11.0014 14.8077 11.0001 14.3333Z" fill="#161616"/>
</svg>
