<svg width="24" height="24" viewBox="0 0 24 24" fill="none" xmlns="http://www.w3.org/2000/svg">
<path fill-rule="evenodd" clip-rule="evenodd" d="M15.5001 10.7499H15.1251V9.3749C15.1246 7.70025 13.8964 6.27911 12.2395 6.03603C10.5826 5.79295 8.99796 6.80143 8.51652 8.40539C8.45248 8.61931 8.50742 8.85114 8.66066 9.01356C8.81389 9.17598 9.04214 9.24431 9.25941 9.19281C9.47669 9.14131 9.64999 8.97781 9.71403 8.7639C10.0176 7.75428 11.0153 7.11972 12.0584 7.27289C13.1014 7.42605 13.8746 8.32065 13.8751 9.3749V10.4999C13.8751 10.638 13.7631 10.7499 13.6251 10.7499H8.00001C7.44772 10.7499 7 11.1976 7 11.7499V17C7 17.5523 7.44772 18 8.00001 18H15.5001C16.0524 18 16.5001 17.5523 16.5001 17V11.7499C16.5001 11.1976 16.0524 10.7499 15.5001 10.7499ZM10.75 13.75C10.7479 13.2641 11.0952 12.847 11.5734 12.7611C12.0517 12.6753 12.5224 12.9457 12.6892 13.402C12.8561 13.8583 12.6708 14.3685 12.2501 14.6115V15.75C12.2501 16.0261 12.0262 16.25 11.7501 16.25C11.4739 16.25 11.2501 16.0261 11.2501 15.75V14.6115C10.9416 14.4341 10.751 14.1058 10.75 13.75Z" fill="#161616"/>
</svg>
