<?xml version="1.0" encoding="UTF-8"?>
<svg width="24px" height="24px" viewBox="0 0 24 24" version="1.1" xmlns="http://www.w3.org/2000/svg" xmlns:xlink="http://www.w3.org/1999/xlink">
    <title>Large / Lock / Open</title>
    <g id="Large-/-Lock-/-Open" stroke="none" stroke-width="1" fill="none" fill-rule="evenodd">
        <path d="M18.1668237,9.91653272 L17.5418168,9.91653272 L17.5418168,7.62484065 C17.541058,4.83374153 15.4940675,2.46518737 12.7325275,2.06005564 C9.97098747,1.65492391 7.32993714,3.33571904 6.52752802,6.0089894 C6.42079373,6.36551465 6.51237114,6.75189962 6.76776392,7.02259684 C7.02315669,7.29329406 7.4035646,7.40717818 7.76569165,7.32135015 C8.12781871,7.23552212 8.4166492,6.96302127 8.52338348,6.60649603 C9.02927102,4.92380054 10.6921341,3.86620452 12.4305878,4.12147855 C14.1690416,4.37675258 15.4576707,5.86774484 15.4584604,7.62484065 L15.4584604,9.49986143 C15.4584604,9.72998263 15.2719103,9.91653272 15.0417891,9.91653272 L5.66668514,9.91653272 C4.74620036,9.91653272 4,10.6627331 4,11.5832179 L4,20.3333149 C4,21.2537996 4.74620036,22 5.66668514,22 L18.1668237,22 C19.0873085,22 19.8335088,21.2537996 19.8335088,20.3333149 L19.8335088,11.5832179 C19.8335088,10.6627331 19.0873085,9.91653272 18.1668237,9.91653272 Z M10.250052,14.9165881 C10.2464095,14.1068192 10.825323,13.4115934 11.62237,13.2685717 C12.419417,13.1255501 13.2039319,13.5761232 13.4820441,14.3366446 C13.7601562,15.0971659 13.4513798,15.9475405 12.750097,16.3524374 L12.750097,18.2499584 C12.750097,18.7102008 12.3769968,19.083301 11.9167544,19.083301 C11.456512,19.083301 11.0834119,18.7102008 11.0834119,18.2499584 L11.0834119,16.3524374 C10.5693149,16.0568155 10.2517311,15.5096187 10.250052,14.9165881 Z" id="LockOpen" fill="#050505"></path>
    </g>
</svg>