<?xml version="1.0" encoding="UTF-8"?>
<svg width="24px" height="24px" viewBox="0 0 24 24" version="1.1" xmlns="http://www.w3.org/2000/svg" xmlns:xlink="http://www.w3.org/1999/xlink">
    <title>Bold / Large/ Shipping / Motocycle Delivery</title>
    <g id="Bold-/-Large/-Shipping-/-Motocycle-Delivery" stroke="none" stroke-width="1" fill="none" fill-rule="evenodd">
        <path d="M13.25,8.00002565 C14.9749382,7.99779648 16.3727047,6.65594066 16.375,5 C16.3747774,4.94689147 16.3966552,4.89589642 16.4357737,4.85834272 C16.4748921,4.82078901 16.528012,4.79978628 16.5833333,4.8 L17.625,4.8 C18.0852373,4.8 18.4583333,4.4418278 18.4583333,4 C18.4583333,3.5581722 18.0852373,3.2 17.625,3.2 L15.8333333,3.2 C15.7687419,3.20146211 15.7071269,3.17395717 15.6666667,3.1256 C14.7535986,2.0377115 13.1783598,1.70030278 11.870184,2.31241131 C10.5620082,2.92451984 9.86838582,4.32355134 10.1984849,5.68421681 C10.528584,7.04488228 11.7947205,8.00574839 13.25,8.00002565 L13.25,8.00002565 Z M11.8333333,5.04 C11.8583336,5.01420833 11.893302,4.99944923 11.93,4.9992 L14.4841667,4.9992 C14.5455211,4.99934751 14.6037142,5.02534808 14.6433385,5.07031771 C14.6829629,5.11528733 14.7000223,5.1746907 14.69,5.2328 C14.5665546,5.92345706 13.9304753,6.42028612 13.2009708,6.3958515 C12.4714663,6.37141689 11.8730035,5.83323708 11.8,5.136 C11.7970031,5.10097443 11.8090449,5.06629426 11.8333333,5.04 L11.8333333,5.04 Z M3.20833333,8 L7.04166667,8 C7.59395142,8 8.04166667,8.44771525 8.04166667,9 L8.04166667,12.6 C8.04166667,13.1522847 7.59395142,13.6 7.04166667,13.6 L3.20833333,13.6 C2.65604858,13.6 2.20833333,13.1522847 2.20833333,12.6 L2.20833333,9 C2.20833333,8.44771525 2.65604858,8 3.20833333,8 Z M5.75,14.5968 C4.02376167,14.5990066 2.62545819,15.9428098 2.625,17.6 L2.625,18.6 C2.625,19.0418278 2.99809605,19.4 3.45833333,19.4 C3.91857062,19.4 4.29166666,19.0418278 4.29166667,18.6 L4.29166667,17.6 C4.29258513,16.8271669 4.94496549,16.2008817 5.75,16.2 C6.59083333,16.2 8.27,16.2 9.1125,16.2 L9.11833333,16.2 C9.79369107,16.2181591 10.3317965,16.748204 10.3333333,17.3968 C10.3333333,18.5013695 11.2660734,19.3968 12.4166667,19.3968 L16.4583333,19.3968 C16.5534342,19.3968694 16.636415,19.4587552 16.66,19.5472 C16.925748,20.5566716 17.895006,21.2470389 18.9784219,21.1985277 C20.0618378,21.1500166 20.9599502,20.3760357 21.1266667,19.3472 C21.1406377,19.2642622 21.207311,19.1986557 21.2933333,19.1832 C21.5846521,19.1277085 21.7942288,18.8819169 21.7933362,18.5968 C21.7892537,17.304681 20.9220437,16.1608912 19.6425,15.76 C19.5577496,15.7329027 19.5004255,15.6569532 19.5,15.5712 L19.5,15.1352 C19.5001384,15.0758782 19.5275931,15.019651 19.575,14.9816 C19.62292,14.9438529 19.68562,14.9280744 19.7466667,14.9384 C19.8016013,14.9484828 19.8574037,14.953572 19.9133333,14.9536 C20.4885743,14.952718 20.9545413,14.5050318 20.955,13.9528 L20.955,12.4472 C20.9548098,12.1006719 20.7679037,11.7788973 20.4609211,11.5966016 C20.1539385,11.4143059 19.7705694,11.3974334 19.4475,11.552 L19.3441667,11.6 C19.2592557,11.6411298 19.1560678,11.6213177 19.0941667,11.552 C18.7796331,11.1974869 18.3192455,10.9928702 17.8341667,10.992 L17.4175,10.992 C16.9572627,10.992 16.5841667,11.3501722 16.5841667,11.792 C16.5841667,12.2338278 16.9572627,12.592 17.4175,12.592 L17.6258333,12.592 C17.7408927,12.592 17.8341667,12.6815431 17.8341667,12.792 L17.8341667,17.592 C17.8341667,17.7024569 17.7408927,17.792 17.6258333,17.792 L12.4166667,17.792 C12.186548,17.792 12,17.6129139 12,17.392 C11.9983418,17.0035951 11.91086,16.6199478 11.7433333,16.2664 C11.73607,16.2506725 11.7379697,16.2324353 11.7483333,16.2184 C11.7572255,16.2035962 11.7738741,16.1946829 11.7916667,16.1952 C12.251904,16.1952 12.625,15.8370278 12.625,15.3952 C12.625,14.9533722 12.251904,14.5952 11.7916667,14.5952 L5.75,14.5968 Z M7.41666667,21.2 C8.68231922,21.2 9.70833333,20.2150264 9.70833333,19 C9.70833333,17.7849736 8.68231922,16.8 7.41666667,16.8 C6.15101412,16.8 5.125,17.7849736 5.125,19 C5.125,20.2150264 6.15101412,21.2 7.41666667,21.2 Z M12.5741667,14.2 L13.45,14.2 C13.5056632,14.200081 13.5590157,14.2213741 13.5983333,14.2592 C13.6376007,14.2969045 13.6592522,14.3482906 13.6583333,14.4016 L13.6441667,16.192 C13.6395446,16.7439821 14.1016888,17.1951602 14.6766667,17.2 L14.6858333,17.2 C15.2578912,17.2 15.7229235,16.757158 15.7275,16.208 L15.745,14.0104 C15.7474377,13.5313402 15.5510236,13.0710755 15.1991765,12.7313506 C14.8473293,12.3916258 14.3690264,12.2004197 13.87,12.2 L12.5741667,12.2 C12.386465,12.2000368 12.2086843,12.1190865 12.0899565,11.9795208 C11.9712287,11.839955 11.9241263,11.656553 11.9616667,11.48 L12.0758333,10.9344 C12.0900362,10.8754813 12.131456,10.8259984 12.1883333,10.8 C12.2466483,10.772397 12.3150183,10.772397 12.3733333,10.8 L12.8808333,11.04 C13.3725818,11.2756477 13.9145578,11.3986021 14.4641667,11.3992 L15.3333333,11.3992 C15.9086299,11.3992 16.375,10.9514847 16.375,10.3992 C16.375,9.84691525 15.9086299,9.3992 15.3333333,9.3992 L14.465,9.3992 C14.2387708,9.3989734 14.0156878,9.34830903 13.8133333,9.2512 L11.8408333,8.3056 C11.5504172,8.16613365 11.2088637,8.16466327 10.9171563,8.30162358 C10.6254488,8.43858389 10.4169607,8.69830573 10.3533333,9.004 L9.91666667,11.0896 C9.75706695,11.8534109 9.96275432,12.6456716 10.4770924,13.2482318 C10.9914305,13.8507919 11.7601808,14.2001097 12.5716667,14.2 L12.5741667,14.2 Z" id="Shape" fill="#050505"></path>
    </g>
</svg>