<svg width="24" height="24" viewBox="0 0 24 24" fill="none" xmlns="http://www.w3.org/2000/svg">
<path d="M13.6667 8.16667C14.5411 8.16667 15.25 7.45778 15.25 6.58333C15.25 5.70888 14.5411 5 13.6667 5C12.7922 5 12.0833 5.70888 12.0833 6.58333C12.0833 7.45778 12.7922 8.16667 13.6667 8.16667Z" fill="#161616"/>
<path fill-rule="evenodd" clip-rule="evenodd" d="M4 16.25C4 14.5931 5.34315 13.25 7 13.25C8.65685 13.25 10 14.5931 10 16.25C10 17.9069 8.65685 19.25 7 19.25C5.34315 19.25 4 17.9069 4 16.25ZM5.33333 16.25C5.33333 17.1705 6.07953 17.9167 7 17.9167C7.92047 17.9167 8.66667 17.1705 8.66667 16.25C8.66667 15.3295 7.92047 14.5833 7 14.5833C6.07953 14.5833 5.33333 15.3295 5.33333 16.25Z" fill="#161616"/>
<path fill-rule="evenodd" clip-rule="evenodd" d="M14 16.25C14 14.5931 15.3431 13.25 17 13.25C18.6569 13.25 20 14.5931 20 16.25C20 17.9069 18.6569 19.25 17 19.25C15.3431 19.25 14 17.9069 14 16.25ZM15.3333 16.25C15.3333 17.1705 16.0795 17.9167 17 17.9167C17.9205 17.9167 18.6667 17.1705 18.6667 16.25C18.6667 15.3295 17.9205 14.5833 17 14.5833C16.0795 14.5833 15.3333 15.3295 15.3333 16.25Z" fill="#161616"/>
<path d="M11.148 11.7427L12.1153 10.6367C13.0313 11.2565 14.1127 11.5864 15.2187 11.5833H15.6667C16.219 11.5833 16.6667 11.1356 16.6667 10.5833C16.6667 10.031 16.219 9.58333 15.6667 9.58333H15.2187C14.2771 9.58084 13.3747 9.20686 12.7073 8.54267C12.5157 8.34066 12.2446 8.23376 11.9667 8.25067C11.69 8.25997 11.4295 8.38356 11.2473 8.592L8.914 11.2587C8.72478 11.4756 8.63825 11.7636 8.67655 12.049C8.71485 12.3343 8.87426 12.5893 9.114 12.7487L9.55667 13.0433C10.7483 13.8468 11.3295 15.2958 11.0233 16.7C10.937 17.0521 11.048 17.4233 11.3134 17.6702C11.5788 17.9171 11.957 18.0011 12.302 17.8896C12.6469 17.7782 12.9045 17.4888 12.9753 17.1333C13.4098 15.1368 12.707 13.0635 11.148 11.7427Z" fill="#161616"/>
</svg>
