<svg width="24" height="24" viewBox="0 0 24 24" fill="none" xmlns="http://www.w3.org/2000/svg">
<path d="M13.25 9.375C13.9058 9.375 14.4375 8.84334 14.4375 8.1875C14.4375 7.53166 13.9058 7 13.25 7C12.5942 7 12.0625 7.53166 12.0625 8.1875C12.0625 8.84334 12.5942 9.375 13.25 9.375Z" fill="#161616"/>
<path fill-rule="evenodd" clip-rule="evenodd" d="M6 15.4375C6 14.1949 7.00736 13.1875 8.25 13.1875C9.49264 13.1875 10.5 14.1949 10.5 15.4375C10.5 16.6801 9.49264 17.6875 8.25 17.6875C7.00736 17.6875 6 16.6801 6 15.4375ZM7 15.4375C7 16.1279 7.55964 16.6875 8.25 16.6875C8.94036 16.6875 9.5 16.1279 9.5 15.4375C9.5 14.7471 8.94036 14.1875 8.25 14.1875C7.55964 14.1875 7 14.7471 7 15.4375Z" fill="#161616"/>
<path fill-rule="evenodd" clip-rule="evenodd" d="M13.5 15.4375C13.5 14.1949 14.5074 13.1875 15.75 13.1875C16.9926 13.1875 18 14.1949 18 15.4375C18 16.6801 16.9926 17.6875 15.75 17.6875C14.5074 17.6875 13.5 16.6801 13.5 15.4375ZM14.5 15.4375C14.5 16.1279 15.0596 16.6875 15.75 16.6875C16.4404 16.6875 17 16.1279 17 15.4375C17 14.7471 16.4404 14.1875 15.75 14.1875C15.0596 14.1875 14.5 14.7471 14.5 15.4375Z" fill="#161616"/>
<path d="M11.361 12.057L12.0865 11.2275C12.7735 11.6924 13.5845 11.9398 14.414 11.9375H14.75C15.1642 11.9375 15.5 11.6017 15.5 11.1875C15.5 10.7733 15.1642 10.4375 14.75 10.4375H14.414C13.7079 10.4356 13.031 10.1551 12.5305 9.657C12.3868 9.50549 12.1834 9.42532 11.975 9.438C11.7675 9.44498 11.5721 9.53767 11.4355 9.694L9.6855 11.694C9.54359 11.8567 9.47869 12.0727 9.50741 12.2867C9.53614 12.5007 9.6557 12.692 9.8355 12.8115L10.1675 13.0325C11.0613 13.6351 11.4971 14.7218 11.2675 15.775C11.2028 16.0391 11.286 16.3174 11.4851 16.5026C11.6841 16.6878 11.9678 16.7508 12.2265 16.6672C12.4852 16.5837 12.6784 16.3666 12.7315 16.1C13.0574 14.6026 12.5302 13.0476 11.361 12.057Z" fill="#161616"/>
</svg>
