<svg width="24" height="24" viewBox="0 0 24 24" fill="none" xmlns="http://www.w3.org/2000/svg">
<path d="M20.5772 10.3937C20.556 10.3707 20.5399 10.3437 20.5298 10.3145C20.5197 10.2853 20.5159 10.2544 20.5186 10.2237C20.525 10.1934 20.5381 10.1647 20.5568 10.1396C20.5756 10.1144 20.5997 10.0935 20.6275 10.078L21.2976 9.69766C21.4522 9.62429 21.5895 9.521 21.701 9.3942C21.8125 9.2674 21.8959 9.11981 21.9459 8.96058C21.9959 8.80135 22.0115 8.63389 21.9917 8.4686C21.9719 8.30331 21.9171 8.14371 21.8308 7.99972C21.7445 7.85573 21.6285 7.73042 21.4899 7.63158C21.3514 7.53273 21.1933 7.46246 21.0255 7.42512C20.8577 7.38779 20.6837 7.38419 20.5143 7.41454C20.345 7.4449 20.184 7.50856 20.0412 7.60159L19.1449 8.09526C19.1156 8.11159 19.0824 8.12019 19.0486 8.12019C19.0148 8.12019 18.9815 8.11159 18.9523 8.09526C18.9244 8.08287 18.8995 8.06494 18.8793 8.04262C18.8591 8.02031 18.844 7.99412 18.835 7.96577L18.4999 6.03155C18.4018 5.45853 18.0943 4.93849 17.6333 4.56579C17.1722 4.19309 16.5882 3.99243 15.9871 4.00022H7.97104C7.37469 4.00271 6.79869 4.21003 6.34601 4.58514C5.89333 4.96024 5.59348 5.47866 5.50006 6.04774L5.16501 7.96577C5.1582 7.99706 5.14411 8.02645 5.12379 8.05169C5.10347 8.07693 5.07746 8.09737 5.04774 8.11144C5.01845 8.12778 4.98523 8.13638 4.95142 8.13638C4.9176 8.13638 4.88438 8.12778 4.85509 8.11144L3.95883 7.62586C3.81604 7.53284 3.65498 7.46918 3.48565 7.43882C3.31632 7.40846 3.14234 7.41207 2.97451 7.4494C2.80668 7.48674 2.64859 7.55701 2.51005 7.65586C2.37152 7.7547 2.25549 7.88001 2.16918 8.024C2.08287 8.16799 2.02812 8.32759 2.00832 8.49288C1.98853 8.65817 2.00412 8.82563 2.05413 8.98486C2.10413 9.14409 2.18748 9.29168 2.299 9.41848C2.41052 9.54528 2.54783 9.64857 2.7024 9.72194L3.3725 10.1023C3.4003 10.1177 3.42439 10.1387 3.44316 10.1638C3.46193 10.1889 3.47496 10.2176 3.48139 10.248C3.48408 10.2787 3.48027 10.3096 3.47019 10.3388C3.46011 10.368 3.44397 10.3949 3.42276 10.4179C2.74552 11.0858 2.36655 11.9837 2.36735 12.9187V14.5373C2.36763 14.9434 2.49495 15.3401 2.73261 15.6751C2.97028 16.0102 3.30719 16.268 3.69917 16.4148C3.7382 16.4294 3.77182 16.4549 3.7957 16.488C3.81959 16.5212 3.83265 16.5605 3.83319 16.601V18.1791C3.83319 18.662 4.03175 19.1252 4.38519 19.4667C4.73863 19.8082 5.218 20 5.71784 20C6.21768 20 6.69705 19.8082 7.05049 19.4667C7.40393 19.1252 7.60249 18.662 7.60249 18.1791V16.7709C7.60245 16.7165 7.62424 16.6641 7.66328 16.6249C7.70233 16.5857 7.7556 16.5626 7.81189 16.5605H16.1881C16.2444 16.5626 16.2977 16.5857 16.3367 16.6249C16.3758 16.6641 16.3976 16.7165 16.3975 16.7709V18.1791C16.3975 18.662 16.5961 19.1252 16.9495 19.4667C17.303 19.8082 17.7823 20 18.2822 20C18.782 20 19.2614 19.8082 19.6148 19.4667C19.9682 19.1252 20.1668 18.662 20.1668 18.1791V16.601C20.1674 16.5605 20.1804 16.5212 20.2043 16.488C20.2282 16.4549 20.2618 16.4294 20.3008 16.4148C20.6928 16.268 21.0297 16.0102 21.2674 15.6751C21.505 15.3401 21.6324 14.9434 21.6326 14.5373V12.9187C21.6401 11.9753 21.2606 11.0675 20.5772 10.3937ZM8.01292 5.61072H16.0708C16.2716 5.60822 16.4666 5.67549 16.6204 5.80026C16.7741 5.92504 16.8764 6.09903 16.9085 6.29053L17.3105 8.61321C17.3154 8.64336 17.3134 8.67418 17.3048 8.70353C17.2961 8.73287 17.2809 8.76005 17.2603 8.78316C17.2404 8.8047 17.2158 8.82168 17.1882 8.83288C17.1607 8.84408 17.131 8.84921 17.1011 8.8479H6.97427C6.93991 8.84957 6.90558 8.8439 6.87374 8.83131C6.84189 8.81873 6.8133 8.79952 6.78999 8.77506C6.7688 8.72026 6.7688 8.65991 6.78999 8.60511L7.15017 6.34718C7.1745 6.15254 7.27114 5.97306 7.42211 5.84207C7.57309 5.71108 7.76815 5.6375 7.97104 5.635L8.01292 5.61072ZM18.324 14.513C18.0755 14.513 17.8326 14.4418 17.626 14.3084C17.4194 14.175 17.2583 13.9854 17.1632 13.7636C17.0682 13.5418 17.0433 13.2977 17.0918 13.0622C17.1402 12.8267 17.2599 12.6104 17.4356 12.4406C17.6113 12.2709 17.8352 12.1553 18.0789 12.1084C18.3226 12.0616 18.5753 12.0856 18.8049 12.1775C19.0344 12.2694 19.2307 12.425 19.3687 12.6246C19.5068 12.8242 19.5805 13.0589 19.5805 13.299C19.584 13.4639 19.5527 13.6278 19.4885 13.7806C19.4242 13.9335 19.3284 14.0721 19.207 14.1879C19.0855 14.3038 18.9408 14.3945 18.7818 14.4546C18.6228 14.5147 18.4528 14.5428 18.2822 14.5373L18.324 14.513ZM4.46141 13.3233C4.46141 13.0832 4.53509 12.8485 4.67315 12.6489C4.81121 12.4492 5.00744 12.2937 5.23702 12.2018C5.46661 12.1099 5.71923 12.0858 5.96296 12.1327C6.20668 12.1795 6.43056 12.2951 6.60627 12.4649C6.78199 12.6347 6.90165 12.851 6.95013 13.0865C6.99861 13.322 6.97373 13.566 6.87863 13.7879C6.78353 14.0097 6.62249 14.1993 6.41588 14.3327C6.20926 14.4661 5.96634 14.5373 5.71784 14.5373C5.38461 14.5373 5.06503 14.4094 4.82941 14.1817C4.59378 13.954 4.46141 13.6453 4.46141 13.3233Z" fill="#161616"/>
</svg>
