<svg width="24" height="24" viewBox="0 0 24 24" fill="none" xmlns="http://www.w3.org/2000/svg">
<path d="M18.8618 10.6948C18.8448 10.6762 18.8319 10.6543 18.8238 10.6305C18.8158 10.6068 18.8127 10.5817 18.8149 10.5568C18.82 10.5321 18.8305 10.5088 18.8455 10.4884C18.8605 10.468 18.8798 10.4509 18.902 10.4384L19.4381 10.1294C19.5617 10.0697 19.6716 9.98581 19.7608 9.88279C19.85 9.77976 19.9167 9.65984 19.9567 9.53047C19.9967 9.4011 20.0092 9.26504 19.9933 9.13074C19.9775 8.99644 19.9337 8.86677 19.8647 8.74977C19.7956 8.63278 19.7028 8.53097 19.592 8.45066C19.4811 8.37034 19.3547 8.31325 19.2204 8.28291C19.0861 8.25258 18.9469 8.24965 18.8115 8.27431C18.676 8.29898 18.5472 8.35071 18.4329 8.42629L17.7159 8.8274C17.6925 8.84067 17.6659 8.84766 17.6389 8.84766C17.6118 8.84766 17.5852 8.84067 17.5618 8.8274C17.5395 8.81734 17.5196 8.80276 17.5034 8.78463C17.4873 8.7665 17.4752 8.74522 17.468 8.72219L17.2 7.15064C17.1214 6.68506 16.8755 6.26252 16.5066 5.9597C16.1378 5.65688 15.6705 5.49385 15.1897 5.50018H8.77683C8.29975 5.5022 7.83895 5.67065 7.47681 5.97542C7.11467 6.28019 6.87478 6.70141 6.80005 7.16379L6.53201 8.72219C6.52656 8.74761 6.51528 8.77149 6.49903 8.792C6.48277 8.81251 6.46197 8.82911 6.43819 8.84055C6.41476 8.85382 6.38819 8.86081 6.36113 8.86081C6.33408 8.86081 6.3075 8.85382 6.28407 8.84055L5.56707 8.44602C5.45283 8.37043 5.32398 8.31871 5.18852 8.29404C5.05306 8.26938 4.91387 8.2723 4.77961 8.30264C4.64535 8.33297 4.51887 8.39007 4.40804 8.47038C4.29721 8.5507 4.20439 8.65251 4.13534 8.7695C4.06629 8.88649 4.02249 9.01617 4.00666 9.15047C3.99083 9.28477 4.0033 9.42083 4.0433 9.5502C4.0833 9.67957 4.14998 9.79949 4.2392 9.90251C4.32842 10.0055 4.43826 10.0895 4.56192 10.1491L5.098 10.4581C5.12024 10.4707 5.13951 10.4877 5.15453 10.5081C5.16955 10.5285 5.17997 10.5518 5.18511 10.5765C5.18727 10.6014 5.18422 10.6265 5.17615 10.6503C5.16809 10.674 5.15518 10.6959 5.1382 10.7146C4.59641 11.2572 4.29324 11.9868 4.29388 12.7464V14.0615C4.29411 14.3915 4.39596 14.7138 4.58609 14.986C4.77622 15.2583 5.04575 15.4678 5.35934 15.587C5.39056 15.5989 5.41745 15.6196 5.43656 15.6465C5.45567 15.6735 5.46612 15.7054 5.46655 15.7383V17.0205C5.46655 17.4129 5.6254 17.7892 5.90815 18.0667C6.19091 18.3441 6.5744 18.5 6.97427 18.5C7.37414 18.5 7.75764 18.3441 8.04039 18.0667C8.32314 17.7892 8.48199 17.4129 8.48199 17.0205V15.8764C8.48196 15.8321 8.49939 15.7896 8.53063 15.7577C8.56187 15.7259 8.60448 15.7071 8.64951 15.7054H15.3505C15.3955 15.7071 15.4381 15.7259 15.4694 15.7577C15.5006 15.7896 15.518 15.8321 15.518 15.8764V17.0205C15.518 17.4129 15.6769 17.7892 15.9596 18.0667C16.2424 18.3441 16.6259 18.5 17.0257 18.5C17.4256 18.5 17.8091 18.3441 18.0918 18.0667C18.3746 17.7892 18.5334 17.4129 18.5334 17.0205V15.7383C18.5339 15.7054 18.5443 15.6735 18.5634 15.6465C18.5825 15.6196 18.6094 15.5989 18.6407 15.587C18.9542 15.4678 19.2238 15.2583 19.4139 14.986C19.604 14.7138 19.7059 14.3915 19.7061 14.0615V12.7464C19.7121 11.9799 19.4085 11.2423 18.8618 10.6948ZM8.81034 6.80871H15.2567C15.4173 6.80668 15.5733 6.86133 15.6963 6.96272C15.8193 7.0641 15.9011 7.20546 15.9268 7.36105L16.2484 9.24823C16.2523 9.27273 16.2507 9.29777 16.2438 9.32162C16.2369 9.34546 16.2247 9.36754 16.2082 9.38632C16.1923 9.40382 16.1726 9.41762 16.1506 9.42672C16.1286 9.43582 16.1048 9.43998 16.0809 9.43892H7.97942C7.95192 9.44027 7.92447 9.43567 7.89899 9.42544C7.87351 9.41522 7.85064 9.39961 7.832 9.37974C7.81504 9.33521 7.81504 9.28618 7.832 9.24165L8.12014 7.40708C8.1396 7.24894 8.21691 7.10311 8.33769 6.99668C8.45847 6.89026 8.61452 6.83047 8.77683 6.82843L8.81034 6.80871ZM17.0592 14.0418C16.8604 14.0418 16.6661 13.9839 16.5008 13.8756C16.3355 13.7672 16.2067 13.6131 16.1306 13.4329C16.0545 13.2527 16.0346 13.0544 16.0734 12.863C16.1122 12.6717 16.2079 12.496 16.3485 12.358C16.4891 12.2201 16.6682 12.1261 16.8631 12.0881C17.0581 12.05 17.2602 12.0696 17.4439 12.1442C17.6276 12.2189 17.7845 12.3453 17.895 12.5075C18.0054 12.6697 18.0644 12.8604 18.0644 13.0555C18.0672 13.1895 18.0421 13.3226 17.9908 13.4468C17.9394 13.5709 17.8628 13.6835 17.7656 13.7777C17.6684 13.8718 17.5526 13.9456 17.4254 13.9944C17.2982 14.0432 17.1622 14.066 17.0257 14.0615L17.0592 14.0418ZM5.96913 13.0752C5.96913 12.8801 6.02808 12.6894 6.13852 12.5272C6.24897 12.365 6.40595 12.2386 6.58962 12.1639C6.77328 12.0893 6.97539 12.0698 7.17037 12.1078C7.36534 12.1459 7.54444 12.2398 7.68502 12.3777C7.82559 12.5157 7.92132 12.6914 7.9601 12.8828C7.99889 13.0741 7.97898 13.2724 7.9029 13.4526C7.82683 13.6329 7.698 13.7869 7.5327 13.8953C7.3674 14.0037 7.17307 14.0615 6.97427 14.0615C6.70769 14.0615 6.45203 13.9576 6.26353 13.7726C6.07502 13.5877 5.96913 13.3368 5.96913 13.0752Z" fill="#161616"/>
</svg>
