<svg width="24" height="24" viewBox="0 0 24 24" fill="none" xmlns="http://www.w3.org/2000/svg">
<path d="M17.5752 10.996C17.5614 10.9817 17.5509 10.9648 17.5444 10.9466C17.5378 10.9283 17.5353 10.909 17.5371 10.8898C17.5413 10.8708 17.5497 10.8529 17.5619 10.8372C17.5741 10.8215 17.5898 10.8084 17.6079 10.7988L18.0434 10.561C18.1439 10.5152 18.2332 10.4506 18.3056 10.3714C18.3781 10.2921 18.4323 10.1999 18.4648 10.1004C18.4973 10.0008 18.5075 9.89618 18.4946 9.79288C18.4817 9.68957 18.4461 9.58982 18.39 9.49983C18.3339 9.40983 18.2585 9.33151 18.1685 9.26974C18.0784 9.20796 17.9757 9.16404 17.8666 9.1407C17.7575 9.11737 17.6444 9.11512 17.5343 9.13409C17.4243 9.15306 17.3196 9.19285 17.2268 9.25099L16.6442 9.55954C16.6252 9.56975 16.6036 9.57512 16.5816 9.57512C16.5596 9.57512 16.538 9.56975 16.519 9.55954C16.5008 9.5518 16.4847 9.54059 16.4715 9.52664C16.4584 9.51269 16.4486 9.49632 16.4427 9.47861L16.225 8.26972C16.1612 7.91158 15.9613 7.58656 15.6616 7.35362C15.3619 7.12068 14.9823 6.99527 14.5916 7.00014H9.38118C8.99355 7.00169 8.61915 7.13127 8.32491 7.36571C8.03067 7.60015 7.83576 7.92416 7.77504 8.27984L7.55726 9.47861C7.55283 9.49816 7.54367 9.51653 7.53046 9.53231C7.51725 9.54808 7.50035 9.56085 7.48103 9.56965C7.462 9.57986 7.4404 9.58524 7.41842 9.58524C7.39644 9.58524 7.37484 9.57986 7.35581 9.56965L6.77324 9.26617C6.68043 9.20803 6.57574 9.16824 6.46567 9.14926C6.35561 9.13029 6.24252 9.13254 6.13343 9.15588C6.02435 9.17921 5.92159 9.22313 5.83154 9.28491C5.74149 9.34669 5.66607 9.42501 5.60997 9.515C5.55386 9.60499 5.51828 9.70474 5.50541 9.80805C5.49255 9.91136 5.50268 10.016 5.53518 10.1155C5.56768 10.2151 5.62186 10.3073 5.69435 10.3865C5.76684 10.4658 5.85609 10.5304 5.95656 10.5762L6.39212 10.8139C6.41019 10.8236 6.42585 10.8367 6.43805 10.8524C6.45026 10.8681 6.45873 10.886 6.4629 10.905C6.46465 10.9242 6.46218 10.9435 6.45563 10.9617C6.44907 10.98 6.43858 10.9968 6.42479 11.0112C5.98459 11.4286 5.73826 11.9898 5.73878 12.5742V13.5858C5.73896 13.8396 5.82172 14.0875 5.9762 14.2969C6.13068 14.5064 6.34967 14.6675 6.60446 14.7593C6.62983 14.7684 6.65168 14.7843 6.66721 14.805C6.68273 14.8258 6.69122 14.8503 6.69157 14.8756V15.8619C6.69157 16.1638 6.82064 16.4532 7.05037 16.6667C7.28011 16.8801 7.5917 17 7.9166 17C8.24149 17 8.55308 16.8801 8.78282 16.6667C9.01255 16.4532 9.14162 16.1638 9.14162 15.8619V14.9818C9.14159 14.9478 9.15575 14.9151 9.18113 14.8906C9.20652 14.866 9.24114 14.8516 9.27773 14.8503H14.7223C14.7589 14.8516 14.7935 14.866 14.8189 14.8906C14.8442 14.9151 14.8584 14.9478 14.8584 14.9818V15.8619C14.8584 16.1638 14.9874 16.4532 15.2172 16.6667C15.4469 16.8801 15.7585 17 16.0834 17C16.4083 17 16.7199 16.8801 16.9496 16.6667C17.1794 16.4532 17.3084 16.1638 17.3084 15.8619V14.8756C17.3088 14.8503 17.3173 14.8258 17.3328 14.805C17.3483 14.7843 17.3702 14.7684 17.3955 14.7593C17.6503 14.6675 17.8693 14.5064 18.0238 14.2969C18.1783 14.0875 18.261 13.8396 18.2612 13.5858V12.5742C18.266 11.9846 18.0194 11.4172 17.5752 10.996ZM9.4084 8.0067H14.646C14.7765 8.00514 14.9033 8.04718 15.0032 8.12517C15.1032 8.20315 15.1696 8.31189 15.1905 8.43158L15.4518 9.88325C15.455 9.9021 15.4537 9.92136 15.4481 9.9397C15.4425 9.95805 15.4326 9.97503 15.4192 9.98947C15.4062 10.0029 15.3903 10.0136 15.3724 10.0206C15.3545 10.0276 15.3351 10.0308 15.3157 10.0299H8.73328C8.71094 10.031 8.68863 10.0274 8.66793 10.0196C8.64723 10.0117 8.62864 9.9997 8.6135 9.98442C8.59972 9.95017 8.59972 9.91245 8.6135 9.8782L8.84761 8.46699C8.86343 8.34534 8.92624 8.23316 9.02437 8.15129C9.12251 8.06943 9.24929 8.02344 9.38118 8.02187L9.4084 8.0067ZM16.1106 13.5706C15.9491 13.5706 15.7912 13.5261 15.6569 13.4427C15.5226 13.3594 15.4179 13.2409 15.3561 13.1022C15.2943 12.9636 15.2781 12.8111 15.3096 12.6639C15.3412 12.5167 15.4189 12.3815 15.5331 12.2754C15.6474 12.1693 15.7929 12.097 15.9513 12.0678C16.1097 12.0385 16.2739 12.0535 16.4232 12.1109C16.5724 12.1684 16.6999 12.2656 16.7897 12.3904C16.8794 12.5151 16.9273 12.6618 16.9273 12.8119C16.9296 12.915 16.9092 13.0174 16.8675 13.1129C16.8258 13.2084 16.7635 13.295 16.6845 13.3675C16.6055 13.4399 16.5115 13.4966 16.4082 13.5341C16.3048 13.5717 16.1943 13.5892 16.0834 13.5858L16.1106 13.5706ZM7.09991 12.8271C7.09991 12.677 7.14781 12.5303 7.23755 12.4055C7.32729 12.2808 7.45484 12.1835 7.60406 12.1261C7.75329 12.0687 7.9175 12.0537 8.07592 12.0829C8.23434 12.1122 8.37986 12.1845 8.49408 12.2906C8.60829 12.3967 8.68607 12.5319 8.71758 12.679C8.7491 12.8262 8.73292 12.9788 8.67111 13.1174C8.6093 13.2561 8.50462 13.3745 8.37032 13.4579C8.23602 13.5413 8.07812 13.5858 7.9166 13.5858C7.7 13.5858 7.49227 13.5058 7.33911 13.3636C7.18596 13.2213 7.09991 13.0283 7.09991 12.8271Z" fill="#161616"/>
</svg>
