<svg width="24" height="24" viewBox="0 0 24 24" fill="none" xmlns="http://www.w3.org/2000/svg">
<path fill-rule="evenodd" clip-rule="evenodd" d="M16.6753 5.12607C16.6729 6.85178 15.2455 8.25016 13.4841 8.25246C11.9979 8.25845 10.705 7.2571 10.3679 5.83912C10.0308 4.42113 10.7391 2.96316 12.075 2.32526C13.4109 1.68737 15.0195 2.03899 15.9519 3.17271C15.9933 3.2231 16.0562 3.25177 16.1221 3.25024H17.9518C18.4218 3.25024 18.8028 3.6235 18.8028 4.08395C18.8028 4.54439 18.4218 4.91765 17.9518 4.91765H16.888C16.8315 4.91743 16.7773 4.93931 16.7373 4.97845C16.6974 5.01758 16.675 5.07073 16.6753 5.12607ZM12.136 5.12525C12.0985 5.12551 12.0628 5.14089 12.0373 5.16777C12.0125 5.19517 12.0002 5.23131 12.0033 5.26782C12.0778 5.99443 12.689 6.55528 13.4339 6.58074C14.1789 6.60621 14.8284 6.08845 14.9545 5.36869C14.9647 5.30814 14.9473 5.24623 14.9069 5.19937C14.8664 5.1525 14.807 5.12541 14.7443 5.12525H12.136ZM2.20837 9.25246C2.20837 8.70018 2.65609 8.25246 3.20837 8.25246H7.16531C7.7176 8.25246 8.16531 8.70018 8.16531 9.25246V13.0884C8.16531 13.6407 7.7176 14.0884 7.16531 14.0884H3.20837C2.65609 14.0884 2.20837 13.6407 2.20837 13.0884V9.25246ZM2.63379 18.2569C2.63426 16.5299 4.06219 15.1295 5.82501 15.1272L11.9947 15.1255C12.4647 15.1255 12.8457 15.4988 12.8457 15.9592C12.8457 16.4197 12.4647 16.7929 11.9947 16.7929C11.9765 16.7924 11.9595 16.8017 11.9504 16.8171C11.9399 16.8317 11.9379 16.8507 11.9453 16.8671C12.1164 17.2356 12.2057 17.6354 12.2074 18.0401C12.2074 18.2704 12.3979 18.457 12.6329 18.457H17.9525C18.07 18.457 18.1652 18.3637 18.1652 18.2486V13.2463C18.1652 13.1312 18.07 13.0379 17.9525 13.0379H17.7397C17.2697 13.0379 16.8887 12.6647 16.8887 12.2042C16.8887 11.7438 17.2697 11.3705 17.7397 11.3705H18.1652C18.6606 11.3714 19.1307 11.5847 19.4519 11.9541C19.5151 12.0263 19.6205 12.047 19.7072 12.0041L19.8127 11.9541C20.1427 11.793 20.5342 11.8106 20.8476 12.0006C21.1611 12.1906 21.352 12.5259 21.3522 12.887V14.456C21.3517 15.0315 20.8759 15.4981 20.2885 15.499C20.2313 15.499 20.1744 15.4937 20.1183 15.4832C20.0559 15.4724 19.9919 15.4889 19.943 15.5282C19.8945 15.5678 19.8665 15.6264 19.8664 15.6883V16.1426C19.8668 16.232 19.9253 16.3111 20.0119 16.3394C21.3185 16.7572 22.2041 17.9491 22.2083 19.2957C22.2092 19.5928 21.9952 19.849 21.6977 19.9068C21.6098 19.9229 21.5418 19.9913 21.5275 20.0777C21.3572 21.1499 20.4401 21.9565 19.3337 22.007C18.2274 22.0576 17.2376 21.3381 16.9662 20.2861C16.9421 20.194 16.8574 20.1295 16.7602 20.1294H12.6329C11.458 20.1294 10.5055 19.1962 10.5055 18.0451C10.5039 17.3692 9.95438 16.8168 9.26471 16.7979H9.25876H5.82501C5.00291 16.7988 4.33671 17.4515 4.33577 18.2569V19.299C4.33577 19.7595 3.95477 20.1327 3.48478 20.1327C3.01479 20.1327 2.63379 19.7595 2.63379 19.299V18.2569ZM9.86722 19.7159C9.86722 20.9821 8.81946 22.0085 7.52699 22.0085C6.23452 22.0085 5.18677 20.9821 5.18677 19.7159C5.18677 18.4496 6.23452 17.4232 7.52699 17.4232C8.81946 17.4232 9.86722 18.4496 9.86722 19.7159ZM13.6882 14.7137H12.7938H12.7913C11.9626 14.7138 11.1776 14.3497 10.6523 13.7218C10.1271 13.0939 9.91705 12.2682 10.08 11.4722L10.5259 9.29877C10.5909 8.9802 10.8038 8.70953 11.1017 8.5668C11.3996 8.42407 11.7484 8.42561 12.045 8.57095L14.0593 9.55638C14.2659 9.65758 14.4937 9.71038 14.7247 9.71062H15.6115C16.199 9.71062 16.6752 10.1772 16.6752 10.7527C16.6752 11.3283 16.199 11.7949 15.6115 11.7949H14.7239C14.1626 11.7943 13.6092 11.6661 13.107 11.4205L12.5887 11.1704C12.5292 11.1417 12.4594 11.1417 12.3998 11.1704C12.3417 11.1975 12.2994 11.2491 12.2849 11.3105L12.1684 11.8791C12.13 12.0631 12.1781 12.2542 12.2994 12.3996C12.4206 12.5451 12.6022 12.6295 12.7938 12.6294H14.1171C14.6267 12.6298 15.1152 12.8291 15.4745 13.1831C15.8338 13.5372 16.0343 14.0168 16.0319 14.5161L16.014 16.8063C16.0093 17.3786 15.5344 17.8401 14.9502 17.8401H14.9409C14.3537 17.835 13.8818 17.3648 13.8865 16.7896L13.901 14.9238C13.9019 14.8682 13.8798 14.8147 13.8397 14.7754C13.7996 14.7359 13.7451 14.7138 13.6882 14.7137Z" fill="#161616"/>
</svg>
