<svg width="24" height="24" viewBox="0 0 24 24" fill="none" xmlns="http://www.w3.org/2000/svg">
<path fill-rule="evenodd" clip-rule="evenodd" d="M14.6802 7.86993C14.6788 8.90535 13.8223 9.74438 12.7654 9.74576C11.8738 9.74936 11.098 9.14855 10.8957 8.29776C10.6935 7.44696 11.1185 6.57218 11.92 6.18944C12.7215 5.80671 13.6867 6.01768 14.2462 6.69791C14.2709 6.72815 14.3087 6.74535 14.3483 6.74443H15.446C15.728 6.74443 15.9566 6.96839 15.9566 7.24465C15.9566 7.52092 15.728 7.74488 15.446 7.74488H14.8078C14.7739 7.74474 14.7414 7.75787 14.7174 7.78136C14.6934 7.80484 14.68 7.83672 14.6802 7.86993ZM11.9566 7.86944C11.9341 7.8696 11.9127 7.87883 11.8974 7.89495C11.8825 7.9114 11.8751 7.93308 11.8769 7.95498C11.9217 8.39095 12.2884 8.72746 12.7353 8.74274C13.1823 8.75802 13.572 8.44736 13.6477 8.01551C13.6538 7.97917 13.6434 7.94203 13.6191 7.91391C13.5948 7.88579 13.5592 7.86953 13.5216 7.86944H11.9566ZM6 10.7458C6 10.1935 6.44772 9.74576 7 9.74576H8.57416C9.12645 9.74576 9.57416 10.1935 9.57416 10.7458V12.2473C9.57416 12.7996 9.12645 13.2473 8.57416 13.2473H7C6.44771 13.2473 6 12.7996 6 12.2473V10.7458ZM6.25518 15.7484C6.25546 14.7122 7.11222 13.872 8.16991 13.8706L11.8717 13.8696C12.1537 13.8696 12.3823 14.0935 12.3823 14.3698C12.3823 14.6461 12.1537 14.87 11.8717 14.87C11.8608 14.8697 11.8506 14.8753 11.8452 14.8845C11.8388 14.8933 11.8377 14.9047 11.8421 14.9146C11.9447 15.1356 11.9984 15.3755 11.9994 15.6184C11.9994 15.7565 12.1137 15.8685 12.2547 15.8685H15.4464C15.5169 15.8685 15.574 15.8125 15.574 15.7434V12.7421C15.574 12.673 15.5169 12.617 15.4464 12.617H15.3187C15.0367 12.617 14.8081 12.3931 14.8081 12.1168C14.8081 11.8406 15.0367 11.6166 15.3187 11.6166H15.574C15.8713 11.6171 16.1533 11.7451 16.3461 11.9668C16.384 12.0101 16.4472 12.0225 16.4992 11.9968L16.5626 11.9668C16.7605 11.8701 16.9954 11.8807 17.1835 11.9946C17.3716 12.1086 17.4861 12.3098 17.4862 12.5265V13.4679C17.4859 13.8132 17.2004 14.0931 16.848 14.0937C16.8137 14.0937 16.7795 14.0905 16.7459 14.0842C16.7084 14.0777 16.67 14.0876 16.6407 14.1112C16.6116 14.135 16.5948 14.1701 16.5947 14.2072V14.4799C16.595 14.5335 16.6301 14.581 16.682 14.5979C17.466 14.8486 17.9974 15.5638 17.9999 16.3717C18.0004 16.55 17.872 16.7037 17.6935 16.7384C17.6408 16.748 17.6 16.7891 17.5914 16.8409C17.4893 17.4842 16.939 17.9682 16.2751 17.9985C15.6113 18.0288 15.0174 17.5972 14.8546 16.966C14.8402 16.9107 14.7893 16.872 14.731 16.8719H12.2547C11.5497 16.8719 10.9782 16.312 10.9782 15.6214C10.9772 15.2158 10.6475 14.8844 10.2337 14.873H10.2302H8.16991C7.67665 14.8736 7.27693 15.2652 7.27637 15.7484V16.3737C7.27637 16.65 7.04776 16.8739 6.76577 16.8739C6.48378 16.8739 6.25518 16.65 6.25518 16.3737V15.7484ZM10.5954 16.6238C10.5954 17.3835 9.96673 17.9994 9.19125 17.9994C8.41576 17.9994 7.78711 17.3835 7.78711 16.6238C7.78711 15.8641 8.41576 15.2482 9.19125 15.2482C9.96673 15.2482 10.5954 15.8641 10.5954 16.6238ZM12.8879 13.6225H12.3513H12.3497C11.8525 13.6226 11.3815 13.4041 11.0664 13.0274C10.7512 12.6506 10.6252 12.1552 10.723 11.6776L10.9905 10.3736C11.0295 10.1824 11.1573 10.02 11.336 9.93437C11.5147 9.84874 11.724 9.84966 11.902 9.93686L13.1105 10.5281C13.2345 10.5888 13.3712 10.6205 13.5098 10.6207H14.0419C14.3944 10.6207 14.6801 10.9006 14.6801 11.2459C14.6801 11.5913 14.3944 11.8712 14.0419 11.8712H13.5093C13.1726 11.8708 12.8405 11.794 12.5392 11.6466L12.2282 11.4966C12.1925 11.4793 12.1506 11.4793 12.1149 11.4966C12.08 11.5128 12.0546 11.5437 12.0459 11.5806L11.976 11.9217C11.953 12.0321 11.9818 12.1468 12.0546 12.2341C12.1273 12.3213 12.2363 12.372 12.3513 12.3719H13.1453C13.451 12.3722 13.7441 12.4918 13.9597 12.7042C14.1752 12.9166 14.2956 13.2044 14.2941 13.5039L14.2834 14.878C14.2806 15.2214 13.9956 15.4983 13.6451 15.4983H13.6395C13.2872 15.4953 13.004 15.2132 13.0069 14.868L13.0156 13.7485C13.0161 13.7152 13.0029 13.6831 12.9788 13.6595C12.9547 13.6359 12.922 13.6225 12.8879 13.6225Z" fill="#161616"/>
</svg>
