<svg width="24" height="24" viewBox="0 0 24 24" fill="none" xmlns="http://www.w3.org/2000/svg">
<path fill-rule="evenodd" clip-rule="evenodd" d="M15.5735 6.49324C15.5717 7.8738 14.4298 8.99251 13.0206 8.99435C11.8317 8.99914 10.7973 8.19806 10.5276 7.06367C10.258 5.92928 10.8246 4.76291 11.8933 4.25259C12.962 3.74228 14.2489 4.02357 14.9949 4.93055C15.0279 4.97086 15.0783 4.9938 15.131 4.99258H16.5947C16.9707 4.99258 17.2755 5.29119 17.2755 5.65954C17.2755 6.02789 16.9707 6.3265 16.5947 6.3265H15.7437C15.6985 6.32632 15.6551 6.34383 15.6232 6.37514C15.5912 6.40645 15.5734 6.44896 15.5735 6.49324ZM11.9421 6.49259C11.9121 6.4928 11.8836 6.5051 11.8631 6.52661C11.8433 6.54853 11.8335 6.57744 11.8359 6.60664C11.8956 7.18793 12.3845 7.63661 12.9804 7.65698C13.5764 7.67735 14.0961 7.26315 14.1969 6.68734C14.2051 6.6389 14.1912 6.58937 14.1588 6.55188C14.1264 6.51439 14.0789 6.49271 14.0287 6.49259H11.9421ZM4 9.99435C4 9.44206 4.44772 8.99435 5 8.99435H7.76555C8.31784 8.99435 8.76555 9.44206 8.76555 9.99435V12.6631C8.76555 13.2154 8.31784 13.6631 7.76555 13.6631H5C4.44772 13.6631 4 13.2154 4 12.6631V9.99435ZM4.34023 16.9979C4.34061 15.6163 5.48295 14.496 6.89321 14.4941L11.829 14.4928C12.2049 14.4928 12.5097 14.7914 12.5097 15.1598C12.5097 15.5281 12.2049 15.8267 11.829 15.8267C11.8144 15.8263 11.8008 15.8337 11.7936 15.8461C11.7851 15.8578 11.7835 15.873 11.7895 15.8861C11.9263 16.1808 11.9978 16.5007 11.9992 16.8245C11.9992 17.0087 12.1516 17.158 12.3396 17.158H16.5952C16.6892 17.158 16.7654 17.0833 16.7654 16.9912V12.9895C16.7654 12.8974 16.6892 12.8227 16.5952 12.8227H16.425C16.049 12.8227 15.7442 12.5241 15.7442 12.1558C15.7442 11.7874 16.049 11.4888 16.425 11.4888H16.7654C17.1617 11.4895 17.5378 11.6601 17.7947 11.9557C17.8453 12.0135 17.9296 12.03 17.999 11.9957L18.0834 11.9557C18.3473 11.8268 18.6605 11.8409 18.9113 11.9929C19.1621 12.1448 19.3148 12.4131 19.315 12.702V13.9572C19.3146 14.4176 18.9339 14.7909 18.464 14.7916C18.4183 14.7916 18.3727 14.7873 18.3278 14.7789C18.2779 14.7703 18.2267 14.7835 18.1876 14.8149C18.1488 14.8467 18.1264 14.8935 18.1263 14.943V15.3065C18.1266 15.378 18.1735 15.4413 18.2427 15.4639C19.288 15.7981 19.9965 16.7517 19.9998 17.8289C20.0006 18.0666 19.8294 18.2716 19.5914 18.3178C19.5211 18.3307 19.4666 18.3854 19.4552 18.4545C19.319 19.3123 18.5853 19.9576 17.7002 19.998C16.8151 20.0384 16.0233 19.4629 15.8061 18.6213C15.7869 18.5475 15.7191 18.496 15.6414 18.4959H12.3396C11.3996 18.4959 10.6376 17.7494 10.6376 16.8285C10.6363 16.2878 10.1967 15.8459 9.64497 15.8307H9.64021H6.89321C6.23553 15.8315 5.70257 16.3536 5.70182 16.9979V17.8316C5.70182 18.2 5.39702 18.4986 5.02103 18.4986C4.64504 18.4986 4.34023 18.2 4.34023 17.8316V16.9979ZM10.1272 18.1651C10.1272 19.178 9.28897 19.9992 8.25499 19.9992C7.22102 19.9992 6.38281 19.178 6.38281 18.1651C6.38281 17.1521 7.22102 16.3309 8.25499 16.3309C9.28897 16.3309 10.1272 17.1521 10.1272 18.1651ZM13.1839 14.1633H12.4684H12.4663C11.8034 14.1634 11.1754 13.8722 10.7552 13.3698C10.335 12.8675 10.1669 12.207 10.2973 11.5702L10.6541 9.8314C10.706 9.57655 10.8764 9.36002 11.1147 9.24583C11.353 9.13165 11.632 9.13287 11.8693 9.24915L13.4807 10.0375C13.646 10.1185 13.8283 10.1607 14.0131 10.1609H14.7225C15.1925 10.1609 15.5735 10.5341 15.5735 10.9946C15.5735 11.455 15.1925 11.8283 14.7225 11.8283H14.0124C13.5634 11.8278 13.1206 11.7253 12.7189 11.5288L12.3043 11.3287C12.2567 11.3057 12.2008 11.3057 12.1532 11.3287C12.1067 11.3504 12.0729 11.3917 12.0613 11.4408L11.968 11.8957C11.9373 12.0428 11.9758 12.1957 12.0728 12.3121C12.1698 12.4285 12.315 12.4959 12.4684 12.4959H13.527C13.9347 12.4963 14.3254 12.6557 14.6129 12.9389C14.9003 13.2221 15.0608 13.6059 15.0588 14.0053L15.0445 15.8374C15.0408 16.2952 14.6608 16.6644 14.1935 16.6644H14.186C13.7163 16.6604 13.3387 16.2842 13.3425 15.8241L13.3541 14.3314C13.3548 14.287 13.3371 14.2441 13.3051 14.2127C13.2729 14.1811 13.2294 14.1634 13.1839 14.1633Z" fill="#161616"/>
</svg>
