<svg width="24" height="24" viewBox="0 0 24 24" fill="none" xmlns="http://www.w3.org/2000/svg">
<path fill-rule="evenodd" clip-rule="evenodd" d="M12.0643 5H2.31115C1.95536 5.00917 1.61782 5.15234 1.37222 5.39825C1.12663 5.64415 0.992939 5.97283 1.00033 6.3125V16.8125C1.00033 16.9285 1.04862 17.0398 1.13457 17.1219C1.22052 17.2039 1.3371 17.25 1.45866 17.25H2.58614C2.64387 17.2502 2.69955 17.2295 2.74203 17.1922C2.78452 17.1549 2.81069 17.1037 2.81531 17.0488C2.81531 16.3526 3.10503 15.6849 3.62075 15.1926C4.13647 14.7003 4.83593 14.4238 5.56527 14.4238C6.2946 14.4238 6.99407 14.7003 7.50979 15.1926C8.0255 15.6849 8.31523 16.3526 8.31523 17.0488C8.31985 17.1037 8.34602 17.1549 8.3885 17.1922C8.43099 17.2295 8.48666 17.2502 8.54439 17.25H11.771C11.8287 17.2502 11.8844 17.2295 11.9269 17.1922C11.9694 17.1549 11.9956 17.1037 12.0002 17.0488C12.0368 16.6449 12.1708 16.2546 12.3919 15.9085C12.613 15.5623 12.915 15.2698 13.2743 15.0538C13.3052 15.0329 13.3304 15.0054 13.348 14.9735C13.3655 14.9415 13.3748 14.9061 13.3752 14.87V6.3125C13.3826 5.97283 13.2489 5.64415 13.0033 5.39825C12.7577 5.15234 12.4201 5.00917 12.0643 5ZM22.463 17.1749C22.8068 16.8467 23 16.4016 23 15.9375V11.5625C23 10.4022 22.5171 9.28938 21.6576 8.46891C20.7981 7.64844 19.6323 7.1875 18.4167 7.1875H15.6668C15.4237 7.1875 15.1905 7.27969 15.0186 7.44378C14.8467 7.60788 14.7501 7.83044 14.7501 8.0625V14.415C14.7522 14.4686 14.7748 14.5196 14.8137 14.5583C14.8525 14.597 14.9049 14.6207 14.9609 14.625C15.6531 14.6758 16.2996 14.9746 16.7705 15.4615C17.2415 15.9484 17.5021 16.5873 17.5001 17.25C17.5046 17.317 17.5046 17.3842 17.5001 17.4512C17.4871 17.4772 17.4803 17.5056 17.4803 17.5344C17.4803 17.5631 17.4871 17.5915 17.5001 17.6175C17.528 17.6454 17.5626 17.6664 17.601 17.6786C17.6393 17.6908 17.6802 17.6939 17.7201 17.6875H21.1667C21.6529 17.6875 22.1192 17.5031 22.463 17.1749ZM16.8126 8.9375H18.4167C19.1051 8.93483 19.7696 9.17873 20.2787 9.62101C20.7879 10.0633 21.1047 10.6718 21.1667 11.3262C21.167 11.3573 21.1606 11.388 21.148 11.4166C21.1354 11.4452 21.1168 11.471 21.0934 11.4925C21.073 11.5151 21.0476 11.5331 21.0191 11.5452C20.9906 11.5573 20.9596 11.5632 20.9284 11.5625H16.8126C16.7518 11.5625 16.6935 11.5395 16.6505 11.4984C16.6076 11.4574 16.5834 11.4018 16.5834 11.3437V9.15625C16.5834 9.09823 16.6076 9.04259 16.6505 9.00157C16.6935 8.96055 16.7518 8.9375 16.8126 8.9375ZM14.7501 19.0001C13.7376 19.0001 12.9168 18.2166 12.9168 17.2501C12.9168 16.2836 13.7376 15.5001 14.7501 15.5001C15.7626 15.5001 16.5834 16.2836 16.5834 17.2501C16.5834 18.2166 15.7626 19.0001 14.7501 19.0001ZM3.75027 17.2501C3.75027 18.2166 4.57107 19.0001 5.58358 19.0001C6.59608 19.0001 7.41689 18.2166 7.41689 17.2501C7.41689 16.2836 6.59608 15.5001 5.58358 15.5001C4.57107 15.5001 3.75027 16.2836 3.75027 17.2501Z" fill="#161616"/>
</svg>
