<svg width="24" height="24" viewBox="0 0 24 24" fill="none" xmlns="http://www.w3.org/2000/svg">
<path fill-rule="evenodd" clip-rule="evenodd" d="M12.0468 6.5H4.95355C4.69479 6.50721 4.44931 6.6197 4.2707 6.81291C4.09209 7.00612 3.99485 7.26436 4.00023 7.53125V15.7812C4.00023 15.8724 4.03535 15.9599 4.09786 16.0243C4.16037 16.0888 4.24516 16.125 4.33356 16.125H5.15355C5.19553 16.1251 5.23602 16.1089 5.26692 16.0796C5.29782 16.0503 5.31685 16.01 5.32021 15.9669C5.32021 15.4199 5.53092 14.8953 5.90599 14.5085C6.28106 14.1217 6.78976 13.9044 7.32019 13.9044C7.85061 13.9044 8.35931 14.1217 8.73438 14.5085C9.10945 14.8953 9.32016 15.4199 9.32016 15.9669C9.32352 16.01 9.34255 16.0503 9.37345 16.0796C9.40435 16.1089 9.44484 16.1251 9.48682 16.125H11.8335C11.8754 16.1251 11.9159 16.1089 11.9468 16.0796C11.9777 16.0503 11.9968 16.01 12.0001 15.9669C12.0267 15.6496 12.1242 15.3429 12.285 15.0709C12.4458 14.799 12.6654 14.5691 12.9268 14.3994C12.9492 14.383 12.9676 14.3614 12.9803 14.3363C12.9931 14.3112 12.9999 14.2833 13.0001 14.255V7.53125C13.0055 7.26436 12.9083 7.00612 12.7296 6.81291C12.551 6.6197 12.3055 6.50721 12.0468 6.5ZM19.6095 16.0661C19.8595 15.8083 20 15.4585 20 15.0939V11.6564C20 10.7447 19.6488 9.87033 19.0237 9.22568C18.3986 8.58102 17.5508 8.21886 16.6667 8.21886H14.6667C14.4899 8.21886 14.3204 8.29129 14.1953 8.42022C14.0703 8.54915 14.0001 8.72402 14.0001 8.90636V13.8976C14.0016 13.9397 14.018 13.9798 14.0463 14.0102C14.0746 14.0406 14.1127 14.0593 14.1534 14.0626C14.6568 14.1025 15.127 14.3373 15.4695 14.7199C15.812 15.1024 16.0015 15.6044 16.0001 16.1251C16.0034 16.1778 16.0034 16.2306 16.0001 16.2832C15.9906 16.3036 15.9857 16.3259 15.9857 16.3485C15.9857 16.3712 15.9906 16.3935 16.0001 16.4139C16.0203 16.4358 16.0455 16.4523 16.0734 16.4619C16.1013 16.4715 16.1311 16.4739 16.1601 16.4689H18.6667C19.0203 16.4689 19.3594 16.324 19.6095 16.0661ZM15.5001 9.59386H16.6667C17.1674 9.59176 17.6506 9.7834 18.0209 10.1309C18.3912 10.4784 18.6216 10.9565 18.6667 11.4707C18.6669 11.4951 18.6623 11.5193 18.6531 11.5417C18.6439 11.5642 18.6304 11.5845 18.6134 11.6014C18.5985 11.6191 18.5801 11.6333 18.5594 11.6428C18.5386 11.6523 18.5161 11.6569 18.4934 11.6564H15.5001C15.4559 11.6564 15.4135 11.6382 15.3822 11.606C15.351 11.5738 15.3334 11.5301 15.3334 11.4845V9.76573C15.3334 9.72015 15.351 9.67643 15.3822 9.6442C15.4135 9.61197 15.4559 9.59386 15.5001 9.59386ZM14.0001 17.5001C13.2637 17.5001 12.6668 16.8845 12.6668 16.1251C12.6668 15.3657 13.2637 14.7501 14.0001 14.7501C14.7365 14.7501 15.3334 15.3657 15.3334 16.1251C15.3334 16.8845 14.7365 17.5001 14.0001 17.5001ZM6.00019 16.1251C6.00019 16.8845 6.59714 17.5001 7.33351 17.5001C8.06988 17.5001 8.66682 16.8845 8.66682 16.1251C8.66682 15.3657 8.06988 14.7501 7.33351 14.7501C6.59714 14.7501 6.00019 15.3657 6.00019 16.1251Z" fill="#161616"/>
</svg>
