<svg width="24" height="24" viewBox="0 0 24 24" fill="none" xmlns="http://www.w3.org/2000/svg">
<path fill-rule="evenodd" clip-rule="evenodd" d="M12.0353 8H6.7154C6.52134 8.00524 6.33722 8.08705 6.20326 8.22757C6.0693 8.36808 5.99638 8.55589 6.00041 8.74999V14.7499C6.00041 14.8162 6.02675 14.8798 6.07364 14.9267C6.12052 14.9736 6.18411 14.9999 6.25041 14.9999H6.8654C6.89689 15 6.92726 14.9882 6.95043 14.9669C6.97361 14.9456 6.98788 14.9163 6.9904 14.8849C6.9904 14.4871 7.14843 14.1056 7.42973 13.8243C7.71103 13.543 8.09256 13.3849 8.49038 13.3849C8.8882 13.3849 9.26972 13.543 9.55102 13.8243C9.83232 14.1056 9.99036 14.4871 9.99036 14.8849C9.99288 14.9163 10.0072 14.9456 10.0303 14.9669C10.0535 14.9882 10.0839 15 10.1154 14.9999H11.8753C11.9068 15 11.9372 14.9882 11.9604 14.9669C11.9835 14.9456 11.9978 14.9163 12.0003 14.8849C12.0203 14.6541 12.0934 14.4311 12.214 14.2333C12.3346 14.0355 12.4993 13.8684 12.6953 13.7449C12.7122 13.733 12.7259 13.7173 12.7355 13.6991C12.745 13.6808 12.7501 13.6605 12.7503 13.6399V8.74999C12.7544 8.55589 12.6814 8.36808 12.5475 8.22757C12.4135 8.08705 12.2294 8.00524 12.0353 8ZM17.7074 14.957C17.8949 14.7695 18.0002 14.5151 18.0002 14.2499V11.7499C18.0002 11.0869 17.7369 10.451 17.268 9.98221C16.7992 9.51337 16.1633 9.24998 15.5003 9.24998H14.0003C13.8677 9.24998 13.7405 9.30266 13.6468 9.39643C13.553 9.49019 13.5003 9.61737 13.5003 9.74998V13.3799C13.5014 13.4105 13.5138 13.4397 13.535 13.4618C13.5562 13.4839 13.5848 13.4975 13.6153 13.4999C13.9929 13.529 14.3455 13.6997 14.6024 13.9779C14.8592 14.2561 15.0014 14.6212 15.0003 14.9999C15.0028 15.0382 15.0028 15.0766 15.0003 15.1149C14.9932 15.1297 14.9895 15.146 14.9895 15.1624C14.9895 15.1788 14.9932 15.1951 15.0003 15.2099C15.0155 15.2259 15.0344 15.2379 15.0553 15.2448C15.0762 15.2518 15.0985 15.2535 15.1203 15.2499H17.0003C17.2655 15.2499 17.5198 15.1445 17.7074 14.957ZM14.6253 10.25H15.5003C15.8758 10.2484 16.2382 10.3878 16.5159 10.6405C16.7936 10.8933 16.9665 11.241 17.0003 11.6149C17.0004 11.6327 16.997 11.6502 16.9901 11.6666C16.9832 11.6829 16.9731 11.6977 16.9603 11.7099C16.9492 11.7229 16.9353 11.7332 16.9198 11.7401C16.9042 11.747 16.8873 11.7504 16.8703 11.7499H14.6253C14.5921 11.7499 14.5603 11.7368 14.5369 11.7133C14.5135 11.6899 14.5003 11.6581 14.5003 11.625V10.375C14.5003 10.3418 14.5135 10.31 14.5369 10.2866C14.5603 10.2631 14.5921 10.25 14.6253 10.25ZM13.5003 15.9999C12.948 15.9999 12.5003 15.5522 12.5003 14.9999C12.5003 14.4476 12.948 13.9999 13.5003 13.9999C14.0526 13.9999 14.5003 14.4476 14.5003 14.9999C14.5003 15.5522 14.0526 15.9999 13.5003 15.9999ZM7.50039 14.9999C7.50039 15.5522 7.9481 15.9999 8.50037 15.9999C9.05265 15.9999 9.50036 15.5522 9.50036 14.9999C9.50036 14.4476 9.05265 13.9999 8.50037 13.9999C7.9481 13.9999 7.50039 14.4476 7.50039 14.9999Z" fill="#161616"/>
</svg>
