<svg width="24" height="24" viewBox="0 0 24 24" fill="none" xmlns="http://www.w3.org/2000/svg">
<path d="M13.611 8.45609C14.3221 8.45609 14.8985 7.90627 14.8985 7.22804C14.8985 6.54981 14.3221 6 13.611 6C12.9 6 12.3236 6.54981 12.3236 7.22804C12.3236 7.90627 12.9 8.45609 13.611 8.45609Z" fill="#161616"/>
<path fill-rule="evenodd" clip-rule="evenodd" d="M7.71008 8.14207C7.32513 8.09699 6.97475 8.3581 6.92748 8.72529L6.50531 12.005C6.45804 12.3722 6.73179 12.7064 7.11674 12.7515L9.67246 13.0508C10.0004 13.0892 10.3032 12.9054 10.415 12.6231C10.6311 12.7305 10.8762 12.8103 11.1411 12.8603C11.1283 13.0904 11.1813 13.3112 11.2852 13.5046C11.1919 13.8734 11.0704 14.3045 10.9334 14.7524C10.675 15.597 10.3822 16.4352 10.1656 16.9347C9.99636 17.3252 10.1827 17.7751 10.5819 17.9396C10.9811 18.1041 11.442 17.9209 11.6113 17.5305C11.8611 16.9542 12.1732 16.0537 12.4378 15.1886C12.536 14.8676 12.6306 14.5419 12.7146 14.2318C13.2384 15.1113 13.6134 16.2215 13.5148 17.2701C13.4802 17.6385 13.7652 17.964 14.1515 17.9971C14.5378 18.0301 14.8791 17.7582 14.9137 17.3897C15.0542 15.895 14.4872 14.3946 13.7523 13.2788C13.7722 13.2129 13.7867 13.1447 13.7953 13.0745L13.9704 11.6529C14.3729 12.0194 14.861 12.3747 15.4621 12.6865C15.8029 12.8632 16.2293 12.743 16.4145 12.418C16.5998 12.093 16.4738 11.6863 16.1331 11.5096C15.1448 10.997 14.5391 10.342 14.1055 9.73254C14.052 9.55172 13.9572 9.38579 13.8303 9.24588C13.4353 8.7435 12.5429 8.62498 11.5858 8.79097C11.3153 8.85548 11.0792 8.92388 10.8731 8.99604C10.8233 8.71069 10.5821 8.47844 10.2658 8.4414L7.71008 8.14207ZM10.5631 11.6282L10.7704 10.0177C10.9284 9.93088 11.1702 9.8299 11.5417 9.72707C11.5221 9.79227 11.5078 9.85982 11.4993 9.92935L11.2481 11.9688C11.0219 11.9181 10.8396 11.8394 10.7077 11.7498C10.6505 11.711 10.6025 11.6706 10.5631 11.6282Z" fill="#161616"/>
</svg>
