<svg width="24" height="24" viewBox="0 0 24 24" fill="none" xmlns="http://www.w3.org/2000/svg">
<path d="M14.8776 6.09348C16.0153 6.09348 16.9376 5.17712 16.9376 4.04674C16.9376 2.91636 16.0153 2 14.8776 2C13.74 2 12.8177 2.91636 12.8177 4.04674C12.8177 5.17712 13.74 6.09348 14.8776 6.09348Z" fill="#161616"/>
<path fill-rule="evenodd" clip-rule="evenodd" d="M5.43613 5.57012C4.82021 5.49498 4.2596 5.93017 4.18397 6.54215L3.50849 12.0083C3.43286 12.6203 3.87086 13.1773 4.48678 13.2524L8.57594 13.7513C9.10064 13.8153 9.58519 13.509 9.76397 13.0385C10.1097 13.2174 10.5019 13.3505 10.9258 13.4338C10.9054 13.8174 10.9901 14.1853 11.1563 14.5077C11.0071 15.1224 10.8126 15.8408 10.5934 16.5873C10.1801 17.9949 9.71157 19.392 9.36504 20.2246C9.09418 20.8754 9.39239 21.6252 10.0311 21.8994C10.6698 22.1735 11.4072 21.8682 11.6781 21.2174C12.0778 20.2571 12.5771 18.7562 13.0004 17.3144C13.1576 16.7793 13.3089 16.2366 13.4433 15.7196C14.2815 17.1855 14.8815 19.0359 14.7237 20.7835C14.6683 21.3976 15.1244 21.94 15.7424 21.9951C16.3605 22.0502 16.9065 21.597 16.9619 20.9829C17.1868 18.4917 16.2795 15.9909 15.1037 14.1313C15.1355 14.0216 15.1587 13.9078 15.1725 13.7908L15.4526 11.4216C16.0966 12.0323 16.8777 12.6245 17.8394 13.1441C18.3846 13.4387 19.0668 13.2384 19.3633 12.6967C19.6597 12.1551 19.4581 11.4772 18.913 11.1826C17.3318 10.3283 16.3625 9.23675 15.6689 8.2209C15.5832 7.91954 15.4315 7.64299 15.2285 7.40979C14.5965 6.5725 13.1687 6.37497 11.6373 6.65162C11.2045 6.75914 10.8267 6.87314 10.4969 6.9934C10.4173 6.51781 10.0314 6.13073 9.52529 6.06899L5.43613 5.57012ZM10.001 11.3803L10.3327 8.69625C10.5854 8.55147 10.9724 8.38316 11.5667 8.21178C11.5354 8.32045 11.5125 8.43304 11.4988 8.54892L11.097 11.948C10.735 11.8634 10.4433 11.7323 10.2323 11.5831C10.1408 11.5183 10.0641 11.451 10.001 11.3803Z" fill="#161616"/>
</svg>
