<svg width="24" height="24" viewBox="0 0 24 24" fill="none" xmlns="http://www.w3.org/2000/svg">
<path d="M14.2443 7.27478C15.1687 7.27478 15.918 6.5417 15.918 5.63739C15.918 4.73309 15.1687 4 14.2443 4C13.32 4 12.5706 4.73309 12.5706 5.63739C12.5706 6.5417 13.32 7.27478 14.2443 7.27478Z" fill="#161616"/>
<path fill-rule="evenodd" clip-rule="evenodd" d="M6.57311 6.8561C6.07267 6.79599 5.61718 7.14414 5.55573 7.63372L5.0069 12.0066C4.94545 12.4962 5.30132 12.9418 5.80176 13.0019L9.1242 13.401C9.55052 13.4523 9.94422 13.2072 10.0895 12.8308C10.3704 12.9739 10.689 13.0804 11.0334 13.147C11.0169 13.4539 11.0857 13.7482 11.2208 14.0062C11.0995 14.4979 10.9415 15.0726 10.7634 15.6699C10.4276 16.7959 10.0469 17.9136 9.76534 18.5797C9.54527 19.1003 9.78757 19.7002 10.3065 19.9195C10.8255 20.1388 11.4246 19.8946 11.6447 19.374C11.9694 18.6057 12.3751 17.4049 12.7191 16.2515C12.8468 15.8234 12.9697 15.3893 13.0789 14.9757C13.7599 16.1484 14.2474 17.6287 14.1193 19.0268C14.0742 19.518 14.4448 19.952 14.947 19.9961C15.4492 20.0402 15.8928 19.6776 15.9378 19.1863C16.1205 17.1933 15.3833 15.1928 14.428 13.705C14.4538 13.6173 14.4727 13.5263 14.4839 13.4326L14.7115 11.5372C15.2348 12.0258 15.8694 12.4996 16.6508 12.9153C17.0937 13.151 17.648 12.9907 17.8889 12.5574C18.1298 12.124 17.966 11.5817 17.523 11.3461C16.2383 10.6626 15.4508 9.7894 14.8872 8.97672C14.8176 8.73563 14.6943 8.51439 14.5294 8.32784C14.0159 7.658 12.8558 7.49998 11.6116 7.7213C11.2599 7.80731 10.9529 7.89851 10.685 7.99472C10.6203 7.61425 10.3067 7.30459 9.89555 7.25519L6.57311 6.8561ZM10.282 11.5042L10.5515 9.357C10.7569 9.24118 11.0713 9.10653 11.5542 8.96942C11.5288 9.05636 11.5102 9.14643 11.4991 9.23913L11.1725 11.9584C10.8785 11.8908 10.6414 11.7859 10.47 11.6665C10.3956 11.6147 10.3333 11.5608 10.282 11.5042Z" fill="#161616"/>
</svg>
