<svg width="24" height="24" viewBox="0 0 24 24" fill="none" xmlns="http://www.w3.org/2000/svg">
<path fill-rule="evenodd" clip-rule="evenodd" d="M13.25 7.625C13.25 8.52246 12.5225 9.25 11.625 9.25C10.7275 9.25 10 8.52246 10 7.625C10 6.72754 10.7275 6 11.625 6C12.5225 6 13.25 6.72754 13.25 7.625ZM13.25 12C13.25 12.8975 12.5225 13.625 11.625 13.625C10.7275 13.625 10 12.8975 10 12C10 11.1025 10.7275 10.375 11.625 10.375C12.5225 10.375 13.25 11.1025 13.25 12ZM11.625 18C12.5225 18 13.25 17.2725 13.25 16.375C13.25 15.4775 12.5225 14.75 11.625 14.75C10.7275 14.75 10 15.4775 10 16.375C10 17.2725 10.7275 18 11.625 18Z" fill="#161616"/>
</svg>
