<svg width="24" height="24" viewBox="0 0 24 24" fill="none" xmlns="http://www.w3.org/2000/svg">
<path fill-rule="evenodd" clip-rule="evenodd" d="M14.4167 4.70833C14.4167 6.2041 13.2041 7.41667 11.7083 7.41667C10.2126 7.41667 9 6.2041 9 4.70833C9 3.21256 10.2126 2 11.7083 2C13.2041 2 14.4167 3.21256 14.4167 4.70833ZM14.4167 12C14.4167 13.4958 13.2041 14.7084 11.7083 14.7084C10.2126 14.7084 9 13.4958 9 12C9 10.5042 10.2126 9.29169 11.7083 9.29169C13.2041 9.29169 14.4167 10.5042 14.4167 12ZM11.7083 22C13.2041 22 14.4167 20.7874 14.4167 19.2916C14.4167 17.7959 13.2041 16.5833 11.7083 16.5833C10.2126 16.5833 9 17.7959 9 19.2916C9 20.7874 10.2126 22 11.7083 22Z" fill="#161616"/>
</svg>
