<svg width="24" height="24" viewBox="0 0 24 24" fill="none" xmlns="http://www.w3.org/2000/svg">
<path fill-rule="evenodd" clip-rule="evenodd" d="M6.33335 9.83329C7.52997 9.83329 8.50002 10.8033 8.50002 12C8.50002 13.1966 7.52997 14.1666 6.33335 14.1666C5.13674 14.1666 4.16669 13.1966 4.16669 12C4.16669 10.8033 5.13674 9.83329 6.33335 9.83329ZM12.1667 9.83329C13.3633 9.83329 14.3334 10.8033 14.3334 12C14.3334 13.1966 13.3633 14.1666 12.1667 14.1666C10.9701 14.1666 10 13.1966 10 12C10 10.8033 10.9701 9.83329 12.1667 9.83329ZM20.1667 12C20.1667 10.8033 19.1966 9.83329 18 9.83329C16.8034 9.83329 15.8333 10.8033 15.8333 12C15.8333 13.1966 16.8034 14.1666 18 14.1666C19.1966 14.1666 20.1667 13.1966 20.1667 12Z" fill="#161616"/>
</svg>
