<svg width="24" height="24" viewBox="0 0 24 24" fill="none" xmlns="http://www.w3.org/2000/svg">
<path fill-rule="evenodd" clip-rule="evenodd" d="M14.3333 6.16667C14.3333 7.36328 13.3633 8.33333 12.1667 8.33333C10.97 8.33333 10 7.36328 10 6.16667C10 4.97005 10.97 4 12.1667 4C13.3633 4 14.3333 4.97005 14.3333 6.16667ZM14.3333 12C14.3333 13.1966 13.3633 14.1667 12.1667 14.1667C10.97 14.1667 10 13.1966 10 12C10 10.8034 10.97 9.83335 12.1667 9.83335C13.3633 9.83335 14.3333 10.8034 14.3333 12ZM12.1667 20C13.3633 20 14.3333 19.0299 14.3333 17.8333C14.3333 16.6367 13.3633 15.6667 12.1667 15.6667C10.97 15.6667 10 16.6367 10 17.8333C10 19.0299 10.97 20 12.1667 20Z" fill="#161616"/>
</svg>
