<svg width="24" height="24" viewBox="0 0 24 24" fill="none" xmlns="http://www.w3.org/2000/svg">
<path fill-rule="evenodd" clip-rule="evenodd" d="M7.25 10.375C8.14746 10.375 8.875 11.1025 8.875 12C8.875 12.8975 8.14746 13.625 7.25 13.625C6.35254 13.625 5.625 12.8975 5.625 12C5.625 11.1025 6.35254 10.375 7.25 10.375ZM11.625 10.375C12.5225 10.375 13.25 11.1025 13.25 12C13.25 12.8975 12.5225 13.625 11.625 13.625C10.7275 13.625 10 12.8975 10 12C10 11.1025 10.7275 10.375 11.625 10.375ZM17.625 12C17.625 11.1025 16.8975 10.375 16 10.375C15.1025 10.375 14.375 11.1025 14.375 12C14.375 12.8975 15.1025 13.625 16 13.625C16.8975 13.625 17.625 12.8975 17.625 12Z" fill="#161616"/>
</svg>
