<svg width="24" height="24" viewBox="0 0 24 24" fill="none" xmlns="http://www.w3.org/2000/svg">
<path fill-rule="evenodd" clip-rule="evenodd" d="M4.41665 9.29171C5.91242 9.29171 7.12498 10.5043 7.12498 12C7.12498 13.4958 5.91242 14.7084 4.41665 14.7084C2.92088 14.7084 1.70831 13.4958 1.70831 12C1.70831 10.5043 2.92087 9.29171 4.41665 9.29171ZM11.7083 9.29171C13.2041 9.29171 14.4166 10.5043 14.4166 12C14.4166 13.4958 13.2041 14.7084 11.7083 14.7084C10.2125 14.7084 8.99998 13.4958 8.99998 12C8.99998 10.5043 10.2125 9.29171 11.7083 9.29171ZM21.7083 12C21.7083 10.5043 20.4958 9.29171 19 9.29171C17.5042 9.29171 16.2916 10.5043 16.2916 12C16.2916 13.4958 17.5042 14.7084 19 14.7084C20.4958 14.7084 21.7083 13.4958 21.7083 12Z" fill="#161616"/>
</svg>
