<svg width="24" height="24" viewBox="0 0 24 24" fill="none" xmlns="http://www.w3.org/2000/svg">
<path fill-rule="evenodd" clip-rule="evenodd" d="M4 6C4 5.44772 4.44772 5 5 5H19C19.5523 5 20 5.44772 20 6V6.08696C20 6.63924 19.5523 7.08696 19 7.08696H5C4.44772 7.08696 4 6.63924 4 6.08696V6ZM4 11.5652C4 11.0129 4.44772 10.5652 5 10.5652H19C19.5523 10.5652 20 11.0129 20 11.5652V11.6522C20 12.2045 19.5523 12.6522 19 12.6522H5C4.44772 12.6522 4 12.2045 4 11.6522V11.5652ZM5 16.1304C4.44772 16.1304 4 16.5781 4 17.1304V17.2174C4 17.7697 4.44772 18.2174 5 18.2174H19C19.5523 18.2174 20 17.7697 20 17.2174V17.1304C20 16.5781 19.5523 16.1304 19 16.1304H5Z" fill="#161616"/>
</svg>
