<svg width="24" height="24" viewBox="0 0 24 24" fill="none" xmlns="http://www.w3.org/2000/svg">
<path fill-rule="evenodd" clip-rule="evenodd" d="M2 5C2 4.44772 2.44772 4 3 4H21C21.5523 4 22 4.44772 22 5V5.6087C22 6.16098 21.5523 6.6087 21 6.6087H3C2.44772 6.6087 2 6.16098 2 5.6087V5ZM2 11.9565C2 11.4042 2.44772 10.9565 3 10.9565H21C21.5523 10.9565 22 11.4042 22 11.9565V12.5652C22 13.1175 21.5523 13.5652 21 13.5652H3C2.44772 13.5652 2 13.1175 2 12.5652V11.9565ZM3 17.913C2.44772 17.913 2 18.3608 2 18.913V19.5217C2 20.074 2.44772 20.5217 3 20.5217H21C21.5523 20.5217 22 20.074 22 19.5217V18.913C22 18.3608 21.5523 17.913 21 17.913H3Z" fill="#161616"/>
</svg>
