<svg width="24" height="24" viewBox="0 0 24 24" fill="none" xmlns="http://www.w3.org/2000/svg">
<path fill-rule="evenodd" clip-rule="evenodd" d="M6 7.78261C6 7.35039 6.35039 7 6.78261 7H17.2174C17.6496 7 18 7.35039 18 7.78261C18 8.21483 17.6496 8.56522 17.2174 8.56522H6.78261C6.35039 8.56522 6 8.21483 6 7.78261ZM6 11.9565C6 11.5243 6.35039 11.1739 6.78261 11.1739H17.2174C17.6496 11.1739 18 11.5243 18 11.9565C18 12.3888 17.6496 12.7392 17.2174 12.7392H6.78261C6.35039 12.7392 6 12.3888 6 11.9565ZM6.78261 15.3478C6.35039 15.3478 6 15.6982 6 16.1304C6 16.5627 6.35039 16.913 6.78261 16.913H17.2174C17.6496 16.913 18 16.5627 18 16.1304C18 15.6982 17.6496 15.3478 17.2174 15.3478H6.78261Z" fill="#161616"/>
</svg>
