<?xml version="1.0" encoding="UTF-8"?>
<svg width="24px" height="24px" viewBox="0 0 24 24" version="1.1" xmlns="http://www.w3.org/2000/svg" xmlns:xlink="http://www.w3.org/1999/xlink">
    <title>Bold / Large/ Finance / Credit Card</title>
    <g id="Bold-/-Large/-Finance-/-Credit-Card" stroke="none" stroke-width="1" fill="none" fill-rule="evenodd">
        <path d="M19.5,5.41666667 L4.5,5.41666667 C3.11928813,5.41666667 2,6.53595479 2,7.91666667 L2,17.0833333 C2,18.4640452 3.11928813,19.5833333 4.5,19.5833333 L19.5,19.5833333 C20.8807119,19.5833333 22,18.4640452 22,17.0833333 L22,7.91666667 C22,6.53595479 20.8807119,5.41666667 19.5,5.41666667 Z M4.5,7.08333333 L19.5,7.08333333 C19.9602373,7.08333333 20.3333333,7.45642938 20.3333333,7.91666667 L20.3333333,8.75 C20.3333333,8.98011865 20.1467853,9.16666667 19.9166667,9.16666667 L4.08333333,9.16666667 C3.85321469,9.16666667 3.66666667,8.98011865 3.66666667,8.75 L3.66666667,7.91666667 C3.66666667,7.45642938 4.03976271,7.08333333 4.5,7.08333333 Z M19.5,17.9166667 L4.5,17.9166667 C4.03976271,17.9166667 3.66666667,17.5435706 3.66666667,17.0833333 L3.66666667,12.0833333 C3.66666667,11.8532147 3.85321469,11.6666667 4.08333333,11.6666667 L19.9166667,11.6666667 C20.1467853,11.6666667 20.3333333,11.8532147 20.3333333,12.0833333 L20.3333333,17.0833333 C20.3333333,17.5435706 19.9602373,17.9166667 19.5,17.9166667 Z M8.66666667,14.5833333 L6.16666667,14.5833333 C5.70642938,14.5833333 5.33333333,14.9564294 5.33333333,15.4166667 C5.33333333,15.876904 5.70642938,16.25 6.16666667,16.25 L8.66666667,16.25 C9.12690396,16.25 9.5,15.876904 9.5,15.4166667 C9.5,14.9564294 9.12690396,14.5833333 8.66666667,14.5833333 Z" id="Shape" fill="#050505"></path>
    </g>
</svg>