<svg width="24" height="24" viewBox="0 0 24 24" fill="none" xmlns="http://www.w3.org/2000/svg">
<path fill-rule="evenodd" clip-rule="evenodd" d="M17.7677 10.6119C17.9197 10.9626 17.9987 11.3397 18 11.7209C18.0007 12.4247 17.7367 13.104 17.2589 13.6286C16.781 14.1531 16.1228 14.486 15.4104 14.5634C15.2778 14.5803 15.1438 14.5449 15.0378 14.4648C14.9319 14.3846 14.8627 14.2665 14.8455 14.1363C14.8282 14.0061 14.8644 13.8745 14.9459 13.7705C15.0275 13.6664 15.1478 13.5985 15.2804 13.5815C15.7503 13.5343 16.1858 13.3182 16.5032 12.9747C16.8207 12.6313 16.9977 12.1847 17.0001 11.7209C17.001 11.4713 16.95 11.2241 16.8503 10.9945C16.7506 10.7649 16.6042 10.5577 16.4202 10.3855C16.2391 10.2104 16.023 10.0742 15.7855 9.98546C15.5479 9.89672 15.2942 9.85741 15.0404 9.87001C14.9428 9.87354 14.8463 9.84892 14.7628 9.79919C14.6793 9.74946 14.6124 9.67679 14.5705 9.59017C14.3031 9.02661 13.8515 8.56698 13.2876 8.28432C12.7237 8.00166 12.0797 7.91218 11.4581 8.0301C10.8365 8.14801 10.2728 8.46657 9.85665 8.93514C9.44049 9.4037 9.19574 9.99541 9.16128 10.6162C9.15671 10.6862 9.13695 10.7544 9.10332 10.8162C9.06969 10.878 9.02297 10.932 8.9663 10.9746C8.90958 11.0178 8.84405 11.0485 8.77418 11.0646C8.70431 11.0807 8.63172 11.0818 8.56136 11.0679C8.37303 11.0283 8.17806 11.0307 7.99077 11.0747C7.80347 11.1188 7.62861 11.2035 7.47902 11.3227C7.32942 11.4418 7.20889 11.5923 7.12628 11.7632C7.04366 11.934 7.00105 12.1209 7.00159 12.31C6.99232 12.4705 7.01733 12.6312 7.07502 12.7817C7.1327 12.9322 7.22178 13.0692 7.33654 13.1839C7.63873 13.4385 8.0232 13.5794 8.42138 13.5815C8.55397 13.5815 8.68113 13.6333 8.77488 13.7253C8.86864 13.8174 8.92131 13.9423 8.92131 14.0725C8.92131 14.2027 8.86864 14.3276 8.77488 14.4196C8.68113 14.5117 8.55397 14.5634 8.42138 14.5634C7.75855 14.5547 7.12053 14.3146 6.62164 13.8859C6.41412 13.6788 6.25205 13.4321 6.14542 13.161C6.0388 12.89 5.9899 12.6003 6.00173 12.31C5.99783 11.9712 6.07177 11.6359 6.21804 11.3291C6.36432 11.0222 6.57917 10.7517 6.84661 10.5377C7.21602 10.2496 7.66579 10.0784 8.13642 10.0467C8.16052 10.0455 8.18373 10.0374 8.20325 10.0234C8.22276 10.0095 8.23775 9.99032 8.24641 9.9682C8.41029 9.22913 8.79674 8.55556 9.35553 8.035C9.91433 7.51444 10.6196 7.17096 11.3798 7.04919C12.14 6.92741 12.9199 7.03298 13.6182 7.35217C14.3165 7.67136 14.9008 8.18942 15.2954 8.83903C15.3054 8.85545 15.3193 8.86933 15.3358 8.87956C15.3523 8.88979 15.371 8.89608 15.3904 8.89794C16.0393 8.95682 16.648 9.23233 17.1151 9.67854C17.3939 9.94379 17.6158 10.2611 17.7677 10.6119ZM12.1931 10.9212C12.2541 10.9461 12.3093 10.9826 12.3558 11.0286L14.1056 12.742C14.1761 12.8107 14.2242 12.8984 14.2437 12.994C14.2632 13.0896 14.2533 13.1888 14.2152 13.2789C14.1772 13.3689 14.1126 13.4458 14.0299 13.4997C13.9471 13.5536 13.8499 13.5821 13.7506 13.5815H12.8757C12.8426 13.5815 12.8108 13.5945 12.7874 13.6175C12.7639 13.6405 12.7508 13.6717 12.7508 13.7043V17.2636C12.7508 17.4589 12.6718 17.6462 12.5311 17.7843C12.3905 17.9224 12.1998 18 12.0009 18C11.802 18 11.6113 17.9224 11.4706 17.7843C11.33 17.6462 11.251 17.4589 11.251 17.2636V13.7043C11.251 13.6717 11.2378 13.6405 11.2144 13.6175C11.1909 13.5945 11.1591 13.5815 11.126 13.5815H10.2511C10.1529 13.5811 10.0569 13.5523 9.9752 13.4986C9.89352 13.445 9.82976 13.3689 9.79188 13.2798C9.75401 13.1907 9.7437 13.0927 9.76225 12.9979C9.7808 12.9032 9.82738 12.8159 9.89618 12.7469L11.6459 11.0286C11.6924 10.9826 11.7477 10.9461 11.8086 10.9212C11.8695 10.8962 11.9349 10.8834 12.0009 10.8834C12.0669 10.8834 12.1322 10.8962 12.1931 10.9212Z" fill="#161616"/>
</svg>
