<svg width="24" height="24" viewBox="0 0 24 24" fill="none" xmlns="http://www.w3.org/2000/svg">
<path fill-rule="evenodd" clip-rule="evenodd" d="M19.6903 9.92529C19.893 10.4036 19.9982 10.9178 20 11.4375C20.0009 12.3973 19.649 13.3237 19.0118 14.039C18.3746 14.7543 17.497 15.2082 16.5472 15.3137C16.3704 15.3368 16.1917 15.2884 16.0504 15.1792C15.9092 15.07 15.8169 14.9089 15.7939 14.7313C15.771 14.5538 15.8191 14.3743 15.9279 14.2324C16.0367 14.0906 16.1971 13.9979 16.3739 13.9748C17.0004 13.9104 17.5811 13.6157 18.0043 13.1474C18.4276 12.679 18.6636 12.07 18.6669 11.4375C18.668 11.0972 18.6 10.7601 18.467 10.4471C18.3341 10.134 18.139 9.85139 17.8936 9.61659C17.6522 9.37784 17.364 9.19208 17.0473 9.07108C16.7306 8.95007 16.3923 8.89646 16.0539 8.91365C15.9238 8.91846 15.7951 8.88489 15.6837 8.81708C15.5724 8.74926 15.4832 8.65017 15.4273 8.53205C15.0708 7.76356 14.4687 7.13679 13.7168 6.75135C12.9649 6.3659 12.1063 6.24388 11.2775 6.40468C10.4486 6.56547 9.69706 6.99986 9.1422 7.63882C8.58733 8.27778 8.26099 9.08465 8.21503 9.93123C8.20895 10.0266 8.1826 10.1196 8.13776 10.2039C8.09292 10.2882 8.03063 10.3618 7.95507 10.4199C7.87944 10.4788 7.79207 10.5207 7.69891 10.5426C7.60574 10.5646 7.50896 10.5661 7.41515 10.5471C7.16404 10.4932 6.90408 10.4963 6.65436 10.5565C6.40463 10.6166 6.17148 10.7321 5.97202 10.8945C5.77256 11.057 5.61186 11.2622 5.5017 11.4952C5.39155 11.7282 5.33474 11.983 5.33545 12.2409C5.3231 12.4598 5.35645 12.6789 5.43336 12.8841C5.51027 13.0893 5.62904 13.2761 5.78205 13.4325C6.18497 13.7798 6.6976 13.972 7.22851 13.9748C7.4053 13.9748 7.57484 14.0453 7.69985 14.1709C7.82485 14.2964 7.89508 14.4667 7.89508 14.6443C7.89508 14.8218 7.82485 14.9921 7.69985 15.1177C7.57484 15.2432 7.4053 15.3137 7.22851 15.3137C6.34474 15.3019 5.49404 14.9744 4.82886 14.3899C4.55216 14.1074 4.33606 13.771 4.1939 13.4014C4.05173 13.0318 3.98653 12.6368 4.00231 12.2409C3.9971 11.7789 4.09569 11.3217 4.29072 10.9033C4.48576 10.4849 4.77223 10.116 5.12881 9.82412C5.62136 9.43124 6.22105 9.19779 6.84857 9.15465C6.8807 9.15292 6.91164 9.14189 6.93766 9.12288C6.96369 9.10387 6.98367 9.07771 6.99521 9.04754C7.21372 8.03973 7.72898 7.12122 8.47404 6.41136C9.2191 5.70151 10.1595 5.23312 11.1731 5.06707C12.1867 4.90102 13.2265 5.04498 14.1576 5.48024C15.0886 5.9155 15.8678 6.62194 16.3939 7.50777C16.4073 7.53015 16.4257 7.54908 16.4477 7.56303C16.4697 7.57698 16.4946 7.58557 16.5205 7.5881C17.3857 7.66839 18.1973 8.04408 18.8202 8.65255C19.1918 9.01426 19.4877 9.44699 19.6903 9.92529ZM12.2575 10.3471C12.3387 10.3811 12.4125 10.4309 12.4744 10.4936L14.8074 12.8301C14.9014 12.9237 14.9656 13.0433 14.9916 13.1737C15.0176 13.3041 15.0044 13.4393 14.9537 13.5621C14.9029 13.6849 14.8169 13.7898 14.7065 13.8633C14.5962 13.9368 14.4666 13.9756 14.3342 13.9749H13.1677C13.1235 13.9749 13.0811 13.9925 13.0498 14.0239C13.0186 14.0553 13.001 14.0978 13.001 14.1422V18.9959C13.001 19.2622 12.8957 19.5176 12.7082 19.7059C12.5207 19.8943 12.2664 20.0001 12.0012 20.0001C11.736 20.0001 11.4817 19.8943 11.2942 19.7059C11.1067 19.5176 11.0013 19.2622 11.0013 18.9959V14.1422C11.0013 14.0978 10.9838 14.0553 10.9525 14.0239C10.9213 13.9925 10.8789 13.9749 10.8347 13.9749H9.66818C9.53715 13.9743 9.40918 13.935 9.30027 13.8618C9.19137 13.7886 9.10635 13.6848 9.05585 13.5634C9.00535 13.442 8.99161 13.3083 9.01635 13.179C9.04108 13.0498 9.10319 12.9307 9.19491 12.8368L11.5279 10.4936C11.5899 10.4309 11.6636 10.3811 11.7448 10.3471C11.8261 10.3131 11.9132 10.2956 12.0012 10.2956C12.0892 10.2956 12.1763 10.3131 12.2575 10.3471Z" fill="#161616"/>
</svg>
