<svg width="24" height="24" viewBox="0 0 24 24" fill="none" xmlns="http://www.w3.org/2000/svg">
<path fill-rule="evenodd" clip-rule="evenodd" d="M22.5742 8.56705C22.8528 9.20477 22.9976 9.89034 23 10.5834C23.0012 11.8631 22.5174 13.0982 21.6412 14.052C20.7651 15.0057 19.5584 15.6109 18.2523 15.7517C18.0093 15.7824 17.7636 15.7179 17.5694 15.5723C17.3751 15.4266 17.2483 15.2118 17.2167 14.9751C17.1851 14.7383 17.2513 14.4991 17.4009 14.3099C17.5504 14.1208 17.771 13.9972 18.0141 13.9664C18.8755 13.8806 19.674 13.4876 20.2559 12.8631C20.8379 12.2387 21.1624 11.4267 21.1669 10.5834C21.1685 10.1296 21.075 9.68019 20.8922 9.26274C20.7094 8.84528 20.4411 8.46851 20.1038 8.15545C19.7717 7.83712 19.3755 7.58944 18.94 7.4281C18.5045 7.26676 18.0394 7.19528 17.5741 7.21819C17.3952 7.22462 17.2182 7.17986 17.0651 7.08944C16.912 6.99902 16.7894 6.8669 16.7126 6.7094C16.2223 5.68475 15.3945 4.84906 14.3606 4.33513C13.3268 3.8212 12.1462 3.65851 11.0065 3.8729C9.86687 4.0873 8.83346 4.66648 8.07052 5.51843C7.30757 6.37037 6.85886 7.44621 6.79567 8.57498C6.7873 8.70215 6.75107 8.8261 6.68942 8.93849C6.62776 9.05089 6.54211 9.14912 6.43822 9.22659C6.33423 9.30511 6.2141 9.36089 6.086 9.39016C5.95789 9.41942 5.82482 9.42148 5.69583 9.39619C5.35056 9.32422 4.99311 9.32846 4.64974 9.40861C4.30637 9.48876 3.98579 9.64279 3.71153 9.85938C3.43727 10.076 3.2163 10.3496 3.06484 10.6603C2.91338 10.9709 2.83527 11.3106 2.83624 11.6545C2.81926 11.9464 2.86511 12.2385 2.97086 12.5122C3.07661 12.7858 3.23993 13.0349 3.45032 13.2434C4.00434 13.7064 4.70921 13.9626 5.4392 13.9664C5.68228 13.9664 5.91541 14.0605 6.08729 14.2279C6.25917 14.3953 6.35574 14.6223 6.35574 14.859C6.35574 15.0958 6.25917 15.3228 6.08729 15.4902C5.91541 15.6576 5.68228 15.7517 5.4392 15.7517C4.22402 15.7359 3.05431 15.2992 2.13968 14.5198C1.75922 14.1432 1.46208 13.6947 1.26661 13.2019C1.07114 12.709 0.981478 12.1824 1.00318 11.6545C0.996019 11.0386 1.13157 10.4289 1.39974 9.87105C1.66792 9.31315 2.06181 8.82132 2.55212 8.43216C3.22936 7.90832 4.05394 7.59705 4.91678 7.53954C4.96096 7.53723 5.00351 7.52252 5.03929 7.49718C5.07507 7.47183 5.10255 7.43694 5.11841 7.39672C5.41887 6.05297 6.12735 4.82829 7.15181 3.88182C8.17627 2.93535 9.46933 2.31083 10.863 2.08943C12.2567 1.86803 13.6865 2.05997 14.9667 2.64032C16.2468 3.22066 17.3182 4.16258 18.0415 5.34369C18.06 5.37354 18.0853 5.39877 18.1156 5.41737C18.1458 5.43597 18.1801 5.44742 18.2157 5.4508C19.4053 5.55785 20.5214 6.05878 21.3777 6.87007C21.8888 7.35234 22.2956 7.92933 22.5742 8.56705ZM12.3541 9.12938C12.4658 9.1747 12.5671 9.2411 12.6523 9.32477L15.8602 12.44C15.9895 12.5649 16.0776 12.7244 16.1134 12.8982C16.1492 13.0721 16.1311 13.2523 16.0613 13.4161C15.9915 13.5798 15.8732 13.7196 15.7215 13.8176C15.5697 13.9156 15.3915 13.9674 15.2095 13.9664H13.6055C13.5448 13.9664 13.4865 13.9899 13.4435 14.0318C13.4005 14.0736 13.3764 14.1304 13.3764 14.1896V20.6611C13.3764 21.0162 13.2316 21.3567 12.9737 21.6078C12.7159 21.8589 12.3662 22 12.0016 22C11.637 22 11.2873 21.8589 11.0295 21.6078C10.7716 21.3567 10.6268 21.0162 10.6268 20.6611V14.1896C10.6268 14.1304 10.6027 14.0736 10.5597 14.0318C10.5167 13.9899 10.4584 13.9664 10.3977 13.9664H8.79373C8.61356 13.9657 8.4376 13.9133 8.28786 13.8157C8.13811 13.7181 8.02121 13.5797 7.95178 13.4178C7.88234 13.2559 7.86345 13.0776 7.89746 12.9053C7.93146 12.733 8.01687 12.5743 8.14299 12.4489L11.3509 9.32477C11.4361 9.2411 11.5374 9.1747 11.6491 9.12938C11.7608 9.08406 11.8806 9.06073 12.0016 9.06073C12.1226 9.06073 12.2424 9.08406 12.3541 9.12938Z" fill="#161616"/>
</svg>
