<svg width="24" height="24" viewBox="0 0 24 24" fill="none" xmlns="http://www.w3.org/2000/svg">
<path fill-rule="evenodd" clip-rule="evenodd" d="M17.705 7.5C17.8928 7.68668 17.9989 7.94021 18 8.205V15.25C18 15.5152 17.8947 15.7696 17.7071 15.9571C17.5196 16.1447 17.2652 16.25 17 16.25H13.115C13.095 16.2506 13.0752 16.2463 13.0574 16.2373C13.0395 16.2284 13.0242 16.2151 13.0128 16.1987C13.0014 16.1823 12.9942 16.1633 12.992 16.1435C12.9897 16.1236 12.9925 16.1035 13 16.085C13.0873 15.8478 13.1542 15.6036 13.2 15.355C13.2047 15.3263 13.2192 15.3001 13.2411 15.2809C13.263 15.2617 13.2909 15.2508 13.32 15.25H16.75C16.8163 15.25 16.8799 15.2237 16.9268 15.1768C16.9737 15.1299 17 15.0663 17 15V8.31C17.0004 8.27722 16.9939 8.24471 16.981 8.21457C16.9681 8.18443 16.949 8.15733 16.925 8.135L15.865 7.075C15.8427 7.05098 15.8156 7.0319 15.7854 7.01899C15.7553 7.00607 15.7228 6.9996 15.69 7H10.25C10.1837 7 10.1201 7.02634 10.0732 7.07323C10.0263 7.12011 10 7.1837 10 7.25V10.68C10.0001 10.6973 9.99652 10.7144 9.98963 10.7303C9.98273 10.7461 9.97262 10.7604 9.95993 10.7721C9.94724 10.7839 9.93225 10.7929 9.91591 10.7985C9.89957 10.8042 9.88224 10.8064 9.865 10.805C9.62 10.765 9.305 10.765 9.12 10.765C9.08813 10.7626 9.05827 10.7485 9.03614 10.7254C9.014 10.7024 9.00114 10.672 9 10.64V7C9 6.73478 9.10536 6.48043 9.29289 6.29289C9.48043 6.10536 9.73478 6 10 6H15.795C16.0598 6.00112 16.3133 6.10721 16.5 6.295L17.705 7.5ZM7.4444 12.0478C7.97886 11.6906 8.60722 11.5 9.25001 11.5C10.1116 11.5014 10.9374 11.8442 11.5466 12.4534C12.1559 13.0626 12.4987 13.8885 12.5 14.75C12.5 15.3928 12.3094 16.0212 11.9523 16.5556C11.5952 17.0901 11.0876 17.5067 10.4937 17.7527C9.89987 17.9986 9.2464 18.063 8.61596 17.9376C7.98552 17.8122 7.40643 17.5027 6.95191 17.0481C6.49738 16.5936 6.18785 16.0145 6.06245 15.3841C5.93705 14.7536 6.00141 14.1002 6.24739 13.5063C6.49338 12.9125 6.90994 12.4049 7.4444 12.0478ZM10.4974 14.4733C10.4921 14.4265 10.474 14.3821 10.445 14.345L9.44501 13.095C9.42107 13.0666 9.39122 13.0438 9.35753 13.0281C9.32385 13.0125 9.28715 13.0044 9.25001 13.0044C9.21286 13.0044 9.17616 13.0125 9.14248 13.0281C9.1088 13.0438 9.07894 13.0666 9.05501 13.095L8.05501 14.345C8.02603 14.3821 8.0079 14.4265 8.0026 14.4733C7.99731 14.5201 8.00506 14.5674 8.02501 14.61C8.04562 14.6521 8.07765 14.6875 8.11743 14.7123C8.15721 14.7371 8.20315 14.7501 8.25001 14.75H8.62501C8.65816 14.75 8.68995 14.7632 8.71339 14.7866C8.73684 14.8101 8.75001 14.8419 8.75001 14.875V16.25C8.75001 16.3826 8.80269 16.5098 8.89645 16.6036C8.99022 16.6974 9.1174 16.75 9.25001 16.75C9.38262 16.75 9.50979 16.6974 9.60356 16.6036C9.69733 16.5098 9.75001 16.3826 9.75001 16.25V14.875C9.75001 14.8419 9.76318 14.8101 9.78662 14.7866C9.81006 14.7632 9.84186 14.75 9.87501 14.75H10.25C10.2969 14.7501 10.3428 14.7371 10.3826 14.7123C10.4224 14.6875 10.4544 14.6521 10.475 14.61C10.495 14.5674 10.5027 14.5201 10.4974 14.4733Z" fill="#161616"/>
</svg>
