<svg width="24" height="24" viewBox="0 0 24 24" fill="none" xmlns="http://www.w3.org/2000/svg">
<path fill-rule="evenodd" clip-rule="evenodd" d="M21.5083 4.5C21.8213 4.81113 21.9981 5.23369 22 5.675V17.4167C22 17.8587 21.8244 18.2826 21.5118 18.5952C21.1993 18.9077 20.7754 19.0833 20.3333 19.0833H13.8583C13.8251 19.0844 13.792 19.0771 13.7623 19.0622C13.7325 19.0472 13.707 19.0251 13.688 18.9978C13.6689 18.9705 13.657 18.9388 13.6533 18.9058C13.6496 18.8727 13.6542 18.8392 13.6667 18.8083C13.8121 18.413 13.9236 18.006 14 17.5917C14.0077 17.5438 14.032 17.5001 14.0685 17.4681C14.105 17.4362 14.1515 17.418 14.2 17.4167H19.9167C20.0272 17.4167 20.1332 17.3728 20.2113 17.2946C20.2894 17.2165 20.3333 17.1105 20.3333 17V5.85C20.334 5.79535 20.3232 5.74117 20.3017 5.69094C20.2802 5.64071 20.2484 5.59554 20.2083 5.55833L18.4417 3.79167C18.4045 3.75164 18.3593 3.71983 18.3091 3.69831C18.2588 3.67678 18.2046 3.666 18.15 3.66667H9.08333C8.97283 3.66667 8.86685 3.71057 8.78871 3.78871C8.71057 3.86685 8.66667 3.97283 8.66667 4.08333V9.8C8.66676 9.82882 8.66087 9.85734 8.64937 9.88377C8.63788 9.9102 8.62102 9.93395 8.59988 9.95353C8.57873 9.97311 8.55375 9.98809 8.52652 9.99753C8.49929 10.007 8.47039 10.0106 8.44167 10.0083C8.03333 9.94167 7.50833 9.94167 7.2 9.94167C7.14688 9.9376 7.09712 9.91411 7.06023 9.87568C7.02334 9.83725 7.00189 9.78657 7 9.73333V3.66667C7 3.22464 7.17559 2.80072 7.48816 2.48816C7.80072 2.17559 8.22464 2 8.66667 2H18.325C18.7663 2.00186 19.1889 2.17868 19.5 2.49167L21.5083 4.5ZM4.40733 12.0795C5.2981 11.4843 6.34535 11.1666 7.41667 11.1666C8.85258 11.1688 10.2291 11.7402 11.2444 12.7556C12.2597 13.7709 12.8311 15.1474 12.8333 16.5833C12.8333 17.6546 12.5157 18.7019 11.9205 19.5926C11.3253 20.4834 10.4793 21.1777 9.48954 21.5876C8.49977 21.9976 7.41066 22.1049 6.35993 21.8959C5.3092 21.6869 4.34404 21.171 3.58651 20.4135C2.82897 19.6559 2.31309 18.6908 2.10408 17.64C1.89508 16.5893 2.00235 15.5002 2.41232 14.5104C2.8223 13.5207 3.51656 12.6747 4.40733 12.0795ZM9.49568 16.1221C9.48685 16.0441 9.45662 15.9701 9.40834 15.9083L7.74167 13.825C7.70178 13.7776 7.65202 13.7396 7.59588 13.7135C7.53974 13.6873 7.47858 13.6738 7.41667 13.6738C7.35476 13.6738 7.29359 13.6873 7.23746 13.7135C7.18132 13.7396 7.13156 13.7776 7.09167 13.825L5.425 15.9083C5.37672 15.9701 5.34649 16.0441 5.33766 16.1221C5.32884 16.2 5.34176 16.2789 5.375 16.35C5.40936 16.4201 5.46274 16.4791 5.52904 16.5204C5.59535 16.5617 5.67191 16.5834 5.75 16.5833H6.375C6.43026 16.5833 6.48325 16.6052 6.52232 16.6443C6.56139 16.6834 6.58334 16.7364 6.58334 16.7916V19.0833C6.58334 19.3043 6.67113 19.5163 6.82741 19.6726C6.98369 19.8288 7.19566 19.9166 7.41667 19.9166C7.63768 19.9166 7.84964 19.8288 8.00592 19.6726C8.16221 19.5163 8.25 19.3043 8.25 19.0833V16.7916C8.25 16.7364 8.27195 16.6834 8.31102 16.6443C8.35009 16.6052 8.40308 16.5833 8.45834 16.5833H9.08334C9.16143 16.5834 9.23799 16.5617 9.3043 16.5204C9.3706 16.4791 9.42398 16.4201 9.45834 16.35C9.49158 16.2789 9.5045 16.2 9.49568 16.1221Z" fill="#161616"/>
</svg>
