<svg width="24" height="24" viewBox="0 0 24 24" fill="none" xmlns="http://www.w3.org/2000/svg">
<path fill-rule="evenodd" clip-rule="evenodd" d="M19.6067 6C19.8571 6.2489 19.9985 6.58695 20 6.94001V16.3334C20 16.687 19.8596 17.0261 19.6095 17.2762C19.3595 17.5262 19.0203 17.6667 18.6667 17.6667H13.4867C13.4601 17.6675 13.4337 17.6617 13.4099 17.6498C13.3861 17.6378 13.3656 17.6201 13.3504 17.5983C13.3351 17.5764 13.3256 17.5511 13.3226 17.5246C13.3197 17.4982 13.3233 17.4714 13.3334 17.4467C13.4497 17.1304 13.5389 16.8048 13.6 16.4734C13.6062 16.435 13.6256 16.4001 13.6548 16.3745C13.684 16.349 13.7212 16.3344 13.76 16.3334H18.3334C18.4218 16.3334 18.5065 16.2982 18.5691 16.2357C18.6316 16.1732 18.6667 16.0884 18.6667 16V7.08001C18.6672 7.03629 18.6586 6.99294 18.6414 6.95276C18.6242 6.91257 18.5987 6.87644 18.5667 6.84667L17.1534 5.43334C17.1236 5.40131 17.0875 5.37587 17.0473 5.35865C17.0071 5.34142 16.9637 5.3328 16.92 5.33334H9.66668C9.57827 5.33334 9.49349 5.36845 9.43097 5.43097C9.36846 5.49348 9.33334 5.57826 9.33334 5.66667V10.24C9.33342 10.2631 9.32871 10.2859 9.31951 10.307C9.31031 10.3282 9.29683 10.3472 9.27991 10.3628C9.26299 10.3785 9.24301 10.3905 9.22122 10.398C9.19944 10.4056 9.17632 10.4085 9.15334 10.4067C8.82668 10.3533 8.40668 10.3533 8.16001 10.3533H8.16001C8.11751 10.3501 8.07771 10.3313 8.04819 10.3006C8.01868 10.2698 8.00152 10.2293 8.00001 10.1867V5.33334C8.00001 4.97971 8.14048 4.64057 8.39053 4.39053C8.64058 4.14048 8.97972 4 9.33334 4H17.06C17.4131 4.00149 17.7511 4.14294 18 4.39333L19.6067 6ZM5.92587 12.0636C6.63848 11.5875 7.47629 11.3333 8.33334 11.3333C9.48208 11.3351 10.5833 11.7922 11.3955 12.6045C12.2078 13.4167 12.6649 14.5179 12.6667 15.6667C12.6667 16.5237 12.4125 17.3615 11.9364 18.0741C11.4602 18.7867 10.7835 19.3422 9.99164 19.6701C9.19983 19.9981 8.32854 20.0839 7.48795 19.9167C6.64736 19.7495 5.87524 19.3368 5.26921 18.7308C4.66318 18.1248 4.25047 17.3526 4.08327 16.512C3.91606 15.6715 4.00188 14.8002 4.32986 14.0084C4.65784 13.2165 5.21325 12.5398 5.92587 12.0636ZM9.99655 15.2977C9.98949 15.2353 9.96531 15.1761 9.92668 15.1267L8.59334 13.46C8.56143 13.4221 8.52162 13.3917 8.47671 13.3708C8.4318 13.3499 8.38287 13.3391 8.33334 13.3391C8.28381 13.3391 8.23488 13.3499 8.18997 13.3708C8.14506 13.3917 8.10526 13.4221 8.07334 13.46L6.74001 15.1267C6.70138 15.1761 6.67719 15.2353 6.67013 15.2977C6.66307 15.36 6.67341 15.4231 6.70001 15.48C6.7275 15.5361 6.7702 15.5833 6.82324 15.6163C6.87628 15.6493 6.93753 15.6668 7.00001 15.6667H7.50001C7.54421 15.6667 7.5866 15.6842 7.61786 15.7155C7.64912 15.7467 7.66668 15.7891 7.66668 15.8333V17.6667C7.66668 17.8435 7.73691 18.013 7.86194 18.1381C7.98696 18.2631 8.15653 18.3333 8.33334 18.3333C8.51015 18.3333 8.67972 18.2631 8.80475 18.1381C8.92977 18.013 9.00001 17.8435 9.00001 17.6667V15.8333C9.00001 15.7891 9.01757 15.7467 9.04883 15.7155C9.08008 15.6842 9.12248 15.6667 9.16668 15.6667H9.66668C9.72915 15.6668 9.7904 15.6493 9.84345 15.6163C9.89649 15.5833 9.93919 15.5361 9.96668 15.48C9.99327 15.4231 10.0036 15.36 9.99655 15.2977Z" fill="#161616"/>
</svg>
