<svg width="24" height="24" viewBox="0 0 24 24" fill="none" xmlns="http://www.w3.org/2000/svg">
<path fill-rule="evenodd" clip-rule="evenodd" d="M21.5125 4.5L19.5 2.4875C19.1874 2.17522 18.7635 1.99987 18.3217 2H8.66667C7.74619 2 7 2.74619 7 3.66667V9.72917C6.99906 9.84203 7.08884 9.93478 7.20167 9.9375C7.50667 9.94334 8.06667 9.96584 8.43917 10.0058C8.49767 10.0126 8.55623 9.99373 8.59982 9.95413C8.64341 9.91454 8.66778 9.85805 8.66667 9.79917V4.08333C8.66667 3.85322 8.85322 3.66667 9.08334 3.66667H18.1492C18.2595 3.66669 18.3653 3.71044 18.4433 3.78833L20.2117 5.55667C20.2896 5.63476 20.3333 5.74054 20.3333 5.85083V17C20.3333 17.2301 20.1468 17.4167 19.9167 17.4167H14.2017C14.1005 17.4169 14.0149 17.4915 14.0008 17.5917C13.9384 18.0054 13.8368 18.4122 13.6975 18.8067C13.6736 18.8692 13.6821 18.9394 13.72 18.9945C13.758 19.0496 13.8206 19.0825 13.8875 19.0825H20.3333C21.2538 19.0825 22 18.3363 22 17.4158V5.67833C22.0001 5.23646 21.8248 4.81263 21.5125 4.5ZM14.1423 7.09357C13.9482 7.55842 13.4929 7.86036 12.9892 7.85834C12.3043 7.85558 11.7505 7.29986 11.75 6.615C11.7497 6.11125 12.0531 5.65702 12.5186 5.46448C12.9841 5.27194 13.5198 5.3791 13.8754 5.7359C14.231 6.0927 14.3364 6.62872 14.1423 7.09357ZM7.41667 11.1667C4.42513 11.1667 2 13.5918 2 16.5833C2 19.5749 4.42513 22 7.41667 22C10.4082 22 12.8333 19.5749 12.8333 16.5833C12.8297 13.5933 10.4067 11.1703 7.41667 11.1667ZM9.45834 16.3475C9.38894 16.4916 9.24323 16.5832 9.08334 16.5833H8.35334C8.29741 16.5838 8.25179 16.6283 8.25 16.6842V19.0833C8.25 19.5436 7.87691 19.9167 7.41667 19.9167C6.95643 19.9167 6.58333 19.5436 6.58333 19.0833V16.6875C6.58246 16.6307 6.53683 16.5847 6.48 16.5833H5.75C5.58986 16.5834 5.44383 16.4917 5.37435 16.3474C5.30487 16.2032 5.32424 16.0318 5.42417 15.9067L7.09084 13.8233C7.17267 13.7287 7.29158 13.6744 7.41667 13.6744C7.54175 13.6744 7.66067 13.7287 7.7425 13.8233L9.40917 15.9067C9.50891 16.032 9.52802 16.2033 9.45834 16.3475ZM19.0592 12.5925C19.0894 12.6402 19.0913 12.7005 19.0642 12.75C19.0383 12.8001 18.9872 12.832 18.9308 12.8333H13.0317C12.9658 12.8347 12.9034 12.8035 12.865 12.75C12.6088 12.3892 12.3173 12.0548 11.995 11.7517C11.9232 11.6853 11.9085 11.5773 11.96 11.4942L12.9983 9.83334C13.0557 9.7431 13.1552 9.68844 13.2621 9.68844C13.369 9.68844 13.4685 9.7431 13.5258 9.83334L14.0625 10.6967C14.091 10.7422 14.1409 10.7698 14.1946 10.7698C14.2483 10.7698 14.2982 10.7422 14.3267 10.6967L15.835 8.28C15.8918 8.18897 15.9915 8.13365 16.0988 8.13365C16.206 8.13365 16.3057 8.18897 16.3625 8.28L19.0592 12.5925Z" fill="#161616"/>
</svg>
