<svg width="24" height="24" viewBox="0 0 24 24" fill="none" xmlns="http://www.w3.org/2000/svg">
<path fill-rule="evenodd" clip-rule="evenodd" d="M19.61 6L18 4.39C17.7499 4.14018 17.4108 3.9999 17.0573 4H9.33334C8.59696 4 8.00001 4.59695 8.00001 5.33333V10.1833C7.99925 10.2736 8.07107 10.3478 8.16134 10.35C8.40534 10.3547 8.85334 10.3727 9.15134 10.4047C9.19814 10.4101 9.24499 10.395 9.27986 10.3633C9.31473 10.3316 9.33423 10.2864 9.33334 10.2393V5.66667C9.33334 5.48257 9.48258 5.33333 9.66667 5.33333H16.9193C17.0076 5.33335 17.0922 5.36835 17.1547 5.43067L18.5693 6.84533C18.6317 6.9078 18.6667 6.99243 18.6667 7.08067V16C18.6667 16.1841 18.5174 16.3333 18.3333 16.3333H13.7613C13.6804 16.3335 13.612 16.3932 13.6007 16.4733C13.5507 16.8043 13.4695 17.1297 13.358 17.4453C13.3389 17.4953 13.3457 17.5515 13.376 17.5956C13.4064 17.6397 13.4565 17.666 13.51 17.666H18.6667C19.4031 17.666 20 17.0691 20 16.3327V6.94267C20.0001 6.58917 19.8598 6.2501 19.61 6ZM13.7138 8.07487C13.5585 8.44676 13.1943 8.6883 12.7913 8.68669C12.2434 8.68448 11.8004 8.23991 11.8 7.69202C11.7997 7.28902 12.0425 6.92563 12.4149 6.7716C12.7873 6.61757 13.2158 6.70329 13.5003 6.98873C13.7848 7.27418 13.8691 7.70299 13.7138 8.07487ZM8.33333 11.3333C5.9401 11.3333 4 13.2734 4 15.6667C4 18.0599 5.9401 20 8.33333 20C10.7266 20 12.6667 18.0599 12.6667 15.6667C12.6637 13.2747 10.7254 11.3363 8.33333 11.3333ZM9.96668 15.478C9.91116 15.5932 9.79459 15.6665 9.66668 15.6666H9.08268C9.03793 15.667 9.00144 15.7026 9.00001 15.7473V17.6667C9.00001 18.0348 8.70153 18.3333 8.33334 18.3333C7.96515 18.3333 7.66668 18.0348 7.66668 17.6667V15.75C7.66597 15.7045 7.62947 15.6677 7.58401 15.6666H7.00001C6.87189 15.6667 6.75507 15.5934 6.69949 15.4779C6.6439 15.3625 6.6594 15.2254 6.73934 15.1253L8.07268 13.4586C8.13814 13.383 8.23327 13.3395 8.33334 13.3395C8.43341 13.3395 8.52854 13.383 8.59401 13.4586L9.92734 15.1253C10.0071 15.2255 10.0224 15.3626 9.96668 15.478ZM17.6473 12.474C17.6715 12.5122 17.673 12.5604 17.6513 12.6C17.6306 12.6401 17.5897 12.6656 17.5447 12.6667H12.8253C12.7726 12.6678 12.7228 12.6429 12.692 12.6C12.487 12.3114 12.2539 12.0439 11.996 11.8014C11.9385 11.7483 11.9268 11.6619 11.968 11.5954L12.7987 10.2667C12.8445 10.1945 12.9241 10.1508 13.0097 10.1508C13.0952 10.1508 13.1748 10.1945 13.2207 10.2667L13.65 10.9574C13.6728 10.9938 13.7127 11.0159 13.7557 11.0159C13.7986 11.0159 13.8385 10.9938 13.8613 10.9574L15.068 9.02402C15.1134 8.95119 15.1932 8.90693 15.279 8.90693C15.3648 8.90693 15.4446 8.95119 15.49 9.02402L17.6473 12.474Z" fill="#161616"/>
</svg>
