<svg width="24" height="24" viewBox="0 0 24 24" fill="none" xmlns="http://www.w3.org/2000/svg">
<path fill-rule="evenodd" clip-rule="evenodd" d="M17.7075 7.5L16.5 6.2925C16.3124 6.10513 16.0581 5.99992 15.793 6H10C9.44772 6 9 6.44772 9 7V10.6375C8.99944 10.7052 9.0533 10.7609 9.121 10.7625C9.304 10.766 9.64 10.7795 9.8635 10.8035C9.89861 10.8075 9.93374 10.7962 9.9599 10.7725C9.98605 10.7487 10.0007 10.7148 10 10.6795V7.25C10 7.11193 10.1119 7 10.25 7H15.6895C15.7557 7.00001 15.8192 7.02627 15.866 7.073L16.927 8.134C16.9737 8.18085 17 8.24432 17 8.3105V15C17 15.1381 16.8881 15.25 16.75 15.25H13.321C13.2603 15.2502 13.209 15.2949 13.2005 15.355C13.163 15.6032 13.1021 15.8473 13.0185 16.084C13.0042 16.1215 13.0092 16.1637 13.032 16.1967C13.0548 16.2298 13.0924 16.2495 13.1325 16.2495H17C17.5523 16.2495 18 15.8018 18 15.2495V8.207C18.0001 7.94188 17.8949 7.68758 17.7075 7.5ZM13.2854 9.05615C13.1689 9.33506 12.8957 9.51622 12.5935 9.515C12.1826 9.51335 11.8503 9.17992 11.85 8.769C11.8498 8.46676 12.0319 8.19421 12.3112 8.07869C12.5905 7.96317 12.9119 8.02746 13.1252 8.24154C13.3386 8.45562 13.4018 8.77724 13.2854 9.05615ZM9.25 11.5C7.45508 11.5 6 12.9551 6 14.75C6 16.545 7.45508 18 9.25 18C11.0449 18 12.5 16.545 12.5 14.75C12.4978 12.956 11.044 11.5022 9.25 11.5ZM10.475 14.6085C10.4334 14.695 10.3459 14.7499 10.25 14.75H9.812C9.77844 14.7503 9.75108 14.777 9.75 14.8105V16.25C9.75 16.5262 9.52614 16.75 9.25 16.75C8.97386 16.75 8.75 16.5262 8.75 16.25V14.8125C8.74947 14.7784 8.7221 14.7508 8.688 14.75H8.25C8.15391 14.7501 8.0663 14.6951 8.02461 14.6085C7.98292 14.5219 7.99454 14.4191 8.0545 14.344L9.0545 13.094C9.1036 13.0373 9.17495 13.0046 9.25 13.0046C9.32505 13.0046 9.3964 13.0373 9.4455 13.094L10.4455 14.344C10.5053 14.4192 10.5168 14.522 10.475 14.6085ZM16.2355 12.3555C16.2536 12.3841 16.2548 12.4203 16.2385 12.45C16.223 12.48 16.1923 12.4992 16.1585 12.5H12.619C12.5795 12.5008 12.5421 12.4821 12.519 12.45C12.3653 12.2336 12.1904 12.0329 11.997 11.851C11.9539 11.8112 11.9451 11.7464 11.976 11.6965L12.599 10.7C12.6334 10.6459 12.6931 10.6131 12.7573 10.6131C12.8214 10.6131 12.8811 10.6459 12.9155 10.7L13.2375 11.218C13.2546 11.2453 13.2845 11.2619 13.3168 11.2619C13.349 11.2619 13.3789 11.2453 13.396 11.218L14.301 9.768C14.3351 9.71338 14.3949 9.68019 14.4593 9.68019C14.5236 9.68019 14.5834 9.71338 14.6175 9.768L16.2355 12.3555Z" fill="#161616"/>
</svg>
