<svg width="24" height="24" viewBox="0 0 24 24" fill="none" xmlns="http://www.w3.org/2000/svg">
<path fill-rule="evenodd" clip-rule="evenodd" d="M15.8095 4.86563L17.3429 6.375C17.5808 6.60947 17.7144 6.92735 17.7143 7.25876V14.5619C17.7143 15.2523 17.1458 15.8119 16.4445 15.8119H13.1429C13.0919 15.8119 13.0442 15.7872 13.0153 15.7459C12.9928 15.7139 12.9949 15.6758 12.9969 15.6378C12.9975 15.6268 12.9981 15.6159 12.9981 15.605C12.9981 15.1942 12.9981 14.8506 12.9453 14.6938C12.956 14.6186 13.0212 14.5627 13.0983 14.5625H16.127C16.3023 14.5625 16.4445 14.4226 16.4445 14.25V7.38813C16.4444 7.30541 16.4111 7.22607 16.3518 7.16751L15.0045 5.84125C14.945 5.78283 14.8644 5.75002 14.7803 5.75H9.39683C9.2215 5.75 9.07937 5.88991 9.07937 6.0625V10.3494C9.08022 10.3935 9.06165 10.4359 9.02844 10.4656C8.99523 10.4953 8.95061 10.5094 8.90604 10.5044C8.62223 10.4744 8.19556 10.4575 7.96318 10.4531C7.87721 10.4511 7.80881 10.3815 7.80953 10.2969V5.75C7.80953 5.05965 8.37806 4.5 9.07937 4.5H14.9118C15.2484 4.49991 15.5713 4.63142 15.8095 4.86563ZM11.6108 8.89379C11.9946 8.8953 12.3414 8.66885 12.4893 8.32021C12.6372 7.97157 12.5569 7.56956 12.286 7.30195C12.0151 7.03435 11.6069 6.95398 11.2523 7.09839C10.8976 7.24279 10.6664 7.58347 10.6667 7.96128C10.667 8.47493 11.089 8.89172 11.6108 8.89379ZM4 15.4375C4 13.1939 5.84771 11.375 8.12699 11.375C10.4051 11.3778 12.2512 13.195 12.254 15.4375C12.254 17.6812 10.4063 19.5 8.12699 19.5C5.84771 19.5 4 17.6812 4 15.4375ZM9.39682 15.4376C9.51864 15.4374 9.62966 15.3687 9.68253 15.2607C9.73563 15.1525 9.72107 15.024 9.64507 14.9301L8.37523 13.3675C8.31288 13.2966 8.22228 13.2558 8.12698 13.2558C8.03167 13.2558 7.94108 13.2966 7.87872 13.3675L6.60888 14.9301C6.53274 15.0239 6.51799 15.1524 6.57093 15.2606C6.62386 15.3688 6.73512 15.4376 6.85714 15.4376H7.41333C7.45663 15.4386 7.49139 15.4731 7.49206 15.5157V17.3126C7.49206 17.6577 7.77632 17.9376 8.12698 17.9376C8.47763 17.9376 8.7619 17.6577 8.7619 17.3126V15.5132C8.76326 15.4713 8.79802 15.4379 8.84063 15.4376H9.39682ZM15.4795 11.8258C15.4973 11.7966 15.496 11.7609 15.4762 11.7328L13.7088 9.18662C13.6716 9.13287 13.6063 9.10021 13.536 9.10021C13.4656 9.10021 13.4003 9.13287 13.3631 9.18662L12.3745 10.6135C12.3559 10.6403 12.3232 10.6566 12.288 10.6566C12.2528 10.6566 12.2201 10.6403 12.2014 10.6135L11.8497 10.1037C11.8121 10.0505 11.7469 10.0182 11.6768 10.0182C11.6067 10.0182 11.5415 10.0505 11.5039 10.1037L10.9228 10.9306C10.889 10.9797 10.8986 11.0434 10.9457 11.0826C11.2381 11.25 11.7228 11.6128 11.8908 11.8258C11.9159 11.8574 11.9568 11.8758 12 11.875H15.3921C15.429 11.8742 15.4625 11.8553 15.4795 11.8258ZM18.7302 8.88497C18.7302 8.53432 19.0144 8.25005 19.3651 8.25005C19.7157 8.25005 20 8.53432 20 8.88497V15.312C20 16.5 19.2381 18.062 17.2063 18.062L14.5303 18.0653C14.1849 18.0657 13.9048 17.7859 13.9048 17.4405C13.9048 17.0958 14.1839 16.8163 14.5286 16.8158L16.8889 16.8126C18.0952 16.8126 18.7302 16.125 18.7302 15.0001V8.88497Z" fill="#161616"/>
</svg>
