<svg width="24" height="24" viewBox="0 0 24 24" fill="none" xmlns="http://www.w3.org/2000/svg">
<path fill-rule="evenodd" clip-rule="evenodd" d="M14.8571 6.76813L16.0071 7.875C16.1856 8.04695 16.2858 8.28006 16.2857 8.52309V13.8787C16.2857 14.385 15.8593 14.7954 15.3333 14.7954H12.8571C12.8189 14.7954 12.7831 14.7773 12.7614 14.747C12.7446 14.7235 12.7461 14.6956 12.7477 14.6677C12.7481 14.6597 12.7486 14.6516 12.7486 14.6437C12.7486 14.3424 12.7486 14.0905 12.709 13.9754C12.717 13.9203 12.7659 13.8793 12.8237 13.8792H15.0952C15.2267 13.8792 15.3333 13.7766 15.3333 13.65V8.61796C15.3333 8.5573 15.3083 8.49912 15.2638 8.45617L14.2533 7.48359C14.2087 7.44075 14.1483 7.41668 14.0852 7.41667H10.0476C9.91612 7.41667 9.80952 7.51927 9.80952 7.64584V10.7896C9.81015 10.8219 9.79623 10.853 9.77132 10.8748C9.74641 10.8966 9.71295 10.9069 9.67952 10.9032C9.46666 10.8812 9.14666 10.8688 8.97237 10.8656C8.9079 10.8641 8.8566 10.8131 8.85714 10.7511V7.41667C8.85714 6.91041 9.28353 6.5 9.80952 6.5H14.1838C14.4363 6.49993 14.6785 6.59637 14.8571 6.76813ZM11.7081 9.72211C11.9959 9.72322 12.2561 9.55715 12.367 9.30149C12.4779 9.04582 12.4177 8.751 12.2145 8.55476C12.0113 8.35852 11.7052 8.29958 11.4392 8.40548C11.1732 8.51138 10.9998 8.76121 11 9.03827C11.0003 9.41495 11.3167 9.72059 11.7081 9.72211ZM6 14.5208C6 12.8755 7.38579 11.5417 9.09524 11.5417C10.8038 11.5437 12.1884 12.8763 12.1905 14.5208C12.1905 16.1662 10.8047 17.5 9.09524 17.5C7.38579 17.5 6 16.1662 6 14.5208ZM10.0476 14.5209C10.139 14.5209 10.2222 14.4705 10.2619 14.3912C10.3017 14.3119 10.2908 14.2177 10.2338 14.1488L9.28141 13.0029C9.23464 12.9509 9.1667 12.921 9.09522 12.921C9.02374 12.921 8.95579 12.9509 8.90903 13.0029L7.95665 14.1488C7.89954 14.2176 7.88848 14.3118 7.92818 14.3912C7.96788 14.4706 8.05133 14.521 8.14284 14.5209H8.55998C8.59245 14.5217 8.61852 14.547 8.61903 14.5782V15.8959C8.61903 16.1491 8.83223 16.3543 9.09522 16.3543C9.35821 16.3543 9.57141 16.1491 9.57141 15.8959V14.5764C9.57243 14.5457 9.5985 14.5212 9.63046 14.5209H10.0476ZM14.6096 11.8723C14.623 11.8509 14.622 11.8247 14.6072 11.8041L13.2816 9.93689C13.2537 9.89748 13.2047 9.87352 13.152 9.87352C13.0992 9.87352 13.0502 9.89748 13.0223 9.93689L12.2809 10.9832C12.2669 11.0029 12.2424 11.0149 12.216 11.0149C12.1896 11.0149 12.1651 11.0029 12.151 10.9832L11.8872 10.6094C11.8591 10.5704 11.8102 10.5467 11.7576 10.5467C11.705 10.5467 11.6561 10.5704 11.628 10.6094L11.1921 11.2158C11.1668 11.2518 11.174 11.2985 11.2093 11.3273C11.4286 11.45 11.7921 11.7161 11.9181 11.8723C11.937 11.8955 11.9676 11.909 12 11.9084H14.5441C14.5718 11.9078 14.5969 11.894 14.6096 11.8723ZM17.0476 9.72619C17.0476 9.4632 17.2608 9.25 17.5238 9.25C17.7868 9.25 18 9.4632 18 9.72619V14.4287C18 15.3 17.4286 16.4454 15.9047 16.4454L13.8872 16.4478C13.634 16.4481 13.4286 16.2429 13.4286 15.9897C13.4286 15.7369 13.6333 15.5319 13.8861 15.5316L15.6667 15.5292C16.5714 15.5292 17.0476 15.025 17.0476 14.2V9.72619Z" fill="#161616"/>
</svg>
