<svg width="24" height="24" viewBox="0 0 24 24" fill="none" xmlns="http://www.w3.org/2000/svg">
<path fill-rule="evenodd" clip-rule="evenodd" d="M17 2.4875L19.0125 4.5C19.3248 4.81263 19.5001 5.23646 19.5 5.67833V15.4158C19.5 16.3363 18.7538 17.0825 17.8333 17.0825H13.5C13.4331 17.0825 13.3705 17.0496 13.3325 16.9945C13.3031 16.9518 13.3058 16.9011 13.3084 16.8504V16.8504V16.8504C13.3092 16.8357 13.31 16.8211 13.31 16.8067C13.31 16.2589 13.31 15.8008 13.2407 15.5917C13.2548 15.4915 13.3404 15.4169 13.4415 15.4167H17.4167C17.6468 15.4167 17.8333 15.2301 17.8333 15V5.85083C17.8333 5.74054 17.7896 5.63476 17.7117 5.55667L15.9433 3.78833C15.8653 3.71044 15.7595 3.66669 15.6492 3.66667H8.58334C8.35322 3.66667 8.16667 3.85322 8.16667 4.08333V9.79917C8.16778 9.85805 8.14341 9.91454 8.09983 9.95413C8.05624 9.99373 7.99768 10.0126 7.93917 10.0058C7.56667 9.96584 7.00667 9.94334 6.70167 9.9375C6.58884 9.93478 6.49906 9.84203 6.50001 9.72917V3.66667C6.50001 2.74619 7.2462 2 8.16667 2H15.8217C16.2635 1.99987 16.6874 2.17522 17 2.4875ZM11.4892 7.85836C11.9929 7.86038 12.4482 7.55845 12.6423 7.09359C12.8364 6.62874 12.731 6.09272 12.3754 5.73592C12.0198 5.37912 11.4841 5.27196 11.0186 5.4645C10.5531 5.65704 10.2497 6.11127 10.25 6.61502C10.2505 7.29988 10.8043 7.8556 11.4892 7.85836ZM1.5 16.5833C1.5 13.5918 3.92513 11.1666 6.91667 11.1666C9.90669 11.1703 12.3297 13.5933 12.3333 16.5833C12.3333 19.5748 9.90821 22 6.91667 22C3.92513 22 1.5 19.5748 1.5 16.5833ZM8.58334 16.5833C8.74323 16.5831 8.88894 16.4915 8.95834 16.3475C9.02802 16.2033 9.00891 16.0319 8.90917 15.9066L7.2425 13.8233C7.16067 13.7287 7.04175 13.6743 6.91667 13.6743C6.79158 13.6743 6.67267 13.7287 6.59084 13.8233L4.92417 15.9066C4.82424 16.0318 4.80487 16.2031 4.87435 16.3474C4.94383 16.4917 5.08986 16.5834 5.25 16.5833H5.98C6.03683 16.5846 6.08246 16.6306 6.08333 16.6875V19.0833C6.08333 19.5435 6.45643 19.9166 6.91667 19.9166C7.37691 19.9166 7.75 19.5435 7.75 19.0833V16.6841C7.75179 16.6282 7.79741 16.5837 7.85334 16.5833H8.58334ZM16.5669 11.7678C16.5902 11.7288 16.5886 11.6813 16.5626 11.6438L14.2428 8.24888C14.194 8.17722 14.1082 8.13367 14.016 8.13367C13.9237 8.13367 13.8379 8.17722 13.7891 8.24888L12.4916 10.1513C12.4671 10.1872 12.4241 10.2089 12.378 10.2089C12.3318 10.2089 12.2889 10.1872 12.2643 10.1513L11.8027 9.4717C11.7534 9.40066 11.6678 9.35764 11.5758 9.35764C11.4838 9.35764 11.3983 9.40066 11.3489 9.4717L10.5862 10.5741C10.5418 10.6396 10.5545 10.7246 10.6163 10.7769C11 11 11.6362 11.4838 11.8566 11.7678C11.8897 11.8099 11.9433 11.8345 12 11.8334H16.4522C16.5006 11.8323 16.5446 11.8072 16.5669 11.7678ZM20.8333 7.83337C20.8333 7.37313 21.2064 7.00003 21.6667 7.00003C22.1269 7.00003 22.5 7.37313 22.5 7.83337V16.4159C22.5 18 21.5 20.0826 18.8333 20.0826L15.334 20.0869C14.8736 20.0875 14.5 19.7144 14.5 19.254C14.5 18.7944 14.8722 18.4216 15.3318 18.421L18.4167 18.4167C20 18.4167 20.8333 17.5 20.8333 16.0001V7.83337Z" fill="#161616"/>
</svg>
