<svg width="24" height="24" viewBox="0 0 24 24" fill="none" xmlns="http://www.w3.org/2000/svg">
<path fill-rule="evenodd" clip-rule="evenodd" d="M10.7133 16.5949C10.1781 16.5945 9.74436 16.1501 9.74399 15.6017L9.74466 9.98489C9.74484 9.93955 9.72734 9.89601 9.69604 9.86394C9.66475 9.83188 9.62225 9.81394 9.57799 9.81413H7.64466C7.31672 9.84111 7.00923 9.64825 6.88351 9.33674C6.7578 9.02523 6.84256 8.6662 7.09333 8.44799L11.1587 4.28129C11.5422 3.90624 12.1458 3.90624 12.5293 4.28129L16.5947 8.44458C16.8445 8.66317 16.9286 9.02168 16.8031 9.33274C16.6776 9.64381 16.3709 9.83674 16.0433 9.81071H14.11C14.0179 9.81071 13.9433 9.88717 13.9433 9.98148V15.6017C13.943 16.1498 13.5096 16.5942 12.9747 16.5949H10.7133ZM6.69 20C5.20496 19.9985 4.00147 18.7654 4 17.2438V15.9617C4.01263 15.5091 4.37439 15.1489 4.81633 15.1489C5.25828 15.1489 5.62004 15.5091 5.63267 15.9617V17.2418C5.6334 17.8398 6.10636 18.3244 6.69 18.3251H17.31C17.8936 18.3244 18.3666 17.8398 18.3673 17.2418V15.9617C18.38 15.5091 18.7417 15.1489 19.1837 15.1489C19.6256 15.1489 19.9874 15.5091 20 15.9617V17.2438C19.9985 18.7654 18.795 19.9985 17.31 20H6.69Z" fill="#161616"/>
</svg>
