<svg width="24" height="24" viewBox="0 0 24 24" fill="none" xmlns="http://www.w3.org/2000/svg">
<path fill-rule="evenodd" clip-rule="evenodd" d="M10.3917 17.7436C9.72267 17.7432 9.18046 17.1876 9.18 16.5022L9.18083 9.48111C9.18106 9.42443 9.15918 9.37001 9.12006 9.32993C9.08094 9.28984 9.02782 9.26743 8.9725 9.26766H6.55583C6.1459 9.30138 5.76155 9.06032 5.6044 8.67093C5.44725 8.28154 5.5532 7.83275 5.86667 7.55999L10.9483 2.35162C11.4278 1.88279 12.1822 1.88279 12.6617 2.35162L17.7433 7.55572C18.0556 7.82896 18.1608 8.2771 18.0039 8.66593C17.8469 9.05476 17.4636 9.29593 17.0542 9.26339H14.6375C14.5224 9.26339 14.4292 9.35896 14.4292 9.47685V16.5022C14.4287 17.1873 13.887 17.7427 13.2183 17.7436H10.3917ZM5.3625 22C3.5062 21.9981 2.00184 20.4567 2 18.5548V16.9521C2.01578 16.3863 2.46798 15.9361 3.02042 15.9361C3.57285 15.9361 4.02505 16.3863 4.04083 16.9521V18.5522C4.04175 19.2997 4.63294 19.9055 5.3625 19.9064H18.6375C19.3671 19.9055 19.9583 19.2997 19.9592 18.5522V16.9521C19.9749 16.3863 20.4272 15.9361 20.9796 15.9361C21.532 15.9361 21.9842 16.3863 22 16.9521V18.5548C21.9982 20.4567 20.4938 21.9981 18.6375 22H5.3625Z" fill="#161616"/>
</svg>
