<svg width="24" height="24" viewBox="0 0 24 24" fill="none" xmlns="http://www.w3.org/2000/svg">
<path fill-rule="evenodd" clip-rule="evenodd" d="M11.035 15.4462C10.6336 15.4459 10.3083 15.1126 10.308 14.7013L10.3085 10.4887C10.3086 10.4547 10.2955 10.422 10.272 10.398C10.2486 10.3739 10.2167 10.3605 10.1835 10.3606H8.7335C8.48754 10.3808 8.25692 10.2362 8.16264 10.0026C8.06835 9.76893 8.13192 9.49965 8.32 9.336L11.369 6.21097C11.6567 5.92968 12.1093 5.92968 12.397 6.21097L15.446 9.33343C15.6334 9.49738 15.6965 9.76626 15.6023 9.99956C15.5082 10.2329 15.2782 10.3776 15.0325 10.358H13.5825C13.5135 10.358 13.4575 10.4154 13.4575 10.4861V14.7013C13.4572 15.1124 13.1322 15.4456 12.731 15.4462H11.035ZM8.0175 18C6.90372 17.9989 6.0011 17.0741 6 15.9329V14.9713C6.00947 14.6318 6.28079 14.3617 6.61225 14.3617C6.94371 14.3617 7.21503 14.6318 7.2245 14.9713V15.9313C7.22505 16.3798 7.57977 16.7433 8.0175 16.7439H15.9825C16.4202 16.7433 16.775 16.3798 16.7755 15.9313V14.9713C16.785 14.6318 17.0563 14.3617 17.3878 14.3617C17.7192 14.3617 17.9905 14.6318 18 14.9713V15.9329C17.9989 17.0741 17.0963 17.9989 15.9825 18H8.0175Z" fill="#161616"/>
</svg>
