<svg width="24" height="24" viewBox="0 0 24 24" fill="none" xmlns="http://www.w3.org/2000/svg">
<path fill-rule="evenodd" clip-rule="evenodd" d="M7.55544 5.34824C8.87103 4.46919 10.4178 4 12 4C14.1217 4 16.1566 4.84285 17.6569 6.34315C19.1571 7.84344 20 9.87827 20 12C20 13.5822 19.5308 15.129 18.6518 16.4446C17.7727 17.7602 16.5233 18.7855 15.0615 19.391C13.5997 19.9965 11.9911 20.155 10.4393 19.8463C8.88743 19.5376 7.46197 18.7757 6.34315 17.6569C5.22433 16.538 4.4624 15.1126 4.15372 13.5607C3.84504 12.0089 4.00347 10.4003 4.60897 8.93853C5.21447 7.47672 6.23985 6.22729 7.55544 5.34824ZM8.2962 17.5431C9.39253 18.2757 10.6815 18.6667 12 18.6667C13.7681 18.6667 15.4638 17.9643 16.714 16.714C17.9643 15.4638 18.6667 13.7681 18.6667 12C18.6667 10.6815 18.2757 9.39253 17.5431 8.2962C16.8106 7.19987 15.7694 6.34539 14.5512 5.8408C13.3331 5.33622 11.9926 5.2042 10.6994 5.46143C9.40619 5.71867 8.21831 6.3536 7.28596 7.28595C6.35361 8.2183 5.71867 9.40619 5.46143 10.6994C5.2042 11.9926 5.33622 13.333 5.84081 14.5512C6.34539 15.7694 7.19987 16.8106 8.2962 17.5431ZM14.4876 13.3594C14.6576 13.3119 14.8394 13.3337 14.9933 13.4201C15.0712 13.4631 15.1396 13.5212 15.1947 13.591C15.2497 13.6608 15.2902 13.741 15.3138 13.8267C15.3374 13.9124 15.3437 14.002 15.3321 14.0902C15.3206 14.1783 15.2915 14.2633 15.2467 14.3401C14.9341 14.9335 14.4679 15.4322 13.8968 15.784C13.3257 16.1358 12.6706 16.3278 12 16.3401C11.3294 16.3278 10.6743 16.1358 10.1032 15.784C9.5321 15.4322 9.06592 14.9335 8.75333 14.3401C8.66493 14.1862 8.64125 14.0036 8.68751 13.8323C8.73377 13.661 8.84617 13.5151 9 13.4267C9.15382 13.3383 9.33647 13.3147 9.50775 13.3609C9.67903 13.4072 9.82493 13.5196 9.91333 13.6734C10.1116 14.0607 10.4094 14.3884 10.7761 14.6227C11.1428 14.857 11.5652 14.9895 12 15.0067C12.4348 14.9895 12.8572 14.857 13.2239 14.6227C13.5906 14.3884 13.8883 14.0607 14.0867 13.6734C14.1735 13.5198 14.3177 13.4068 14.4876 13.3594ZM9.33333 11.3333C10.0697 11.3333 10.6667 10.7363 10.6667 9.99993C10.6667 9.26356 10.0697 8.6666 9.33333 8.6666C8.59695 8.6666 8 9.26356 8 9.99993C8 10.7363 8.59695 11.3333 9.33333 11.3333ZM16 9.99993C16 10.7363 15.403 11.3333 14.6667 11.3333C13.9303 11.3333 13.3333 10.7363 13.3333 9.99993C13.3333 9.26356 13.9303 8.6666 14.6667 8.6666C15.403 8.6666 16 9.26356 16 9.99993Z" fill="#161616"/>
</svg>
