<svg width="24" height="24" viewBox="0 0 24 24" fill="none" xmlns="http://www.w3.org/2000/svg">
<path d="M12 4C10.4178 4 8.87103 4.46919 7.55544 5.34824C6.23985 6.22729 5.21447 7.47672 4.60897 8.93853C4.00347 10.4003 3.84504 12.0089 4.15372 13.5607C4.4624 15.1126 5.22433 16.538 6.34315 17.6569C7.46197 18.7757 8.88743 19.5376 10.4393 19.8463C11.9911 20.155 13.5997 19.9965 15.0615 19.391C16.5233 18.7855 17.7727 17.7602 18.6518 16.4446C19.5308 15.129 20 13.5822 20 12C20 9.87827 19.1571 7.84344 17.6569 6.34315C16.1566 4.84285 14.1217 4 12 4ZM10.0333 7.07333C10.1113 7.03175 10.1966 7.00592 10.2845 6.99731C10.3724 6.98871 10.4611 6.99751 10.5456 7.0232C10.6301 7.04889 10.7087 7.09097 10.777 7.14705C10.8452 7.20312 10.9018 7.27208 10.9433 7.35C10.9849 7.42792 11.0108 7.51326 11.0194 7.60116C11.028 7.68906 11.0192 7.7778 10.9935 7.8623C10.9678 7.9468 10.9257 8.02541 10.8696 8.09365C10.8135 8.16189 10.7446 8.21841 10.6667 8.26L8 9.59333C7.90779 9.64269 7.80459 9.66792 7.7 9.66667C7.57476 9.67577 7.44949 9.64931 7.33862 9.59033C7.22775 9.53136 7.13579 9.44227 7.07334 9.33333C6.99426 9.17589 6.98073 8.99354 7.03569 8.82615C7.09066 8.65875 7.20965 8.51992 7.36667 8.44L10.0333 7.07333ZM7.73334 10.6267C7.81343 10.5912 7.89975 10.5718 7.98734 10.5696C8.07493 10.5675 8.16208 10.5827 8.24381 10.6143C8.32554 10.6458 8.40025 10.6932 8.46365 10.7537C8.52706 10.8141 8.57792 10.8865 8.61334 10.9667C8.65905 11.0757 8.73596 11.1688 8.8344 11.2343C8.93285 11.2997 9.04844 11.3347 9.16667 11.3347C9.2849 11.3347 9.40049 11.2997 9.49894 11.2343C9.59738 11.1688 9.67429 11.0757 9.72 10.9667C9.79161 10.804 9.92491 10.6764 10.0906 10.6121C10.1726 10.5802 10.2601 10.5648 10.3481 10.5667C10.4361 10.5686 10.5228 10.5879 10.6033 10.6233C10.6839 10.6588 10.7567 10.7098 10.8175 10.7733C10.8783 10.8369 10.9261 10.9119 10.9579 10.9939C10.9898 11.0759 11.0052 11.1634 11.0033 11.2514C11.0014 11.3394 10.9821 11.4261 10.9467 11.5067C10.794 11.8514 10.5446 12.1444 10.2286 12.3501C9.9126 12.5557 9.54369 12.6652 9.16667 12.6652C8.78965 12.6652 8.42074 12.5557 8.10475 12.3501C7.78877 12.1444 7.53931 11.8514 7.38667 11.5067C7.35136 11.4262 7.33232 11.3395 7.33065 11.2516C7.32898 11.1637 7.3447 11.0763 7.37692 10.9945C7.40914 10.9128 7.45722 10.8381 7.51839 10.775C7.57956 10.7119 7.65261 10.6615 7.73334 10.6267ZM8.66667 15.5733C9.07331 15.0838 9.58279 14.6898 10.1589 14.4194C10.735 14.149 11.3636 14.0089 12 14.0089C12.6364 14.0089 13.265 14.149 13.8411 14.4194C14.4172 14.6898 14.9267 15.0838 15.3333 15.5733C15.3895 15.6407 15.4318 15.7185 15.4578 15.8022C15.4838 15.8859 15.4931 15.974 15.485 16.0613C15.477 16.1486 15.4518 16.2335 15.4109 16.3111C15.37 16.3886 15.3142 16.4574 15.2467 16.5133C15.1267 16.6127 14.9758 16.667 14.82 16.6667C14.7221 16.6668 14.6253 16.6454 14.5366 16.6039C14.4478 16.5624 14.3694 16.5019 14.3067 16.4267C14.0259 16.0847 13.6728 15.8093 13.2728 15.6202C12.8728 15.431 12.4358 15.3329 11.9933 15.3329C11.5509 15.3329 11.1139 15.431 10.7139 15.6202C10.3139 15.8093 9.96079 16.0847 9.68 16.4267C9.62803 16.5049 9.56011 16.5712 9.4807 16.6214C9.4013 16.6715 9.31219 16.7043 9.21923 16.7176C9.12626 16.7309 9.03154 16.7245 8.94125 16.6986C8.85097 16.6728 8.76716 16.6281 8.69533 16.5676C8.62349 16.5071 8.56525 16.4322 8.52441 16.3476C8.48358 16.263 8.46107 16.1708 8.45836 16.0769C8.45566 15.983 8.47281 15.8896 8.50871 15.8029C8.54461 15.7161 8.59844 15.6379 8.66667 15.5733ZM16.2867 11.5067C16.134 11.8514 15.8846 12.1444 15.5686 12.3501C15.2526 12.5557 14.8837 12.6652 14.5067 12.6652C14.1296 12.6652 13.7607 12.5557 13.4448 12.3501C13.1288 12.1444 12.8793 11.8514 12.7267 11.5067C12.6551 11.344 12.651 11.1595 12.7154 10.9939C12.7798 10.8282 12.9073 10.6949 13.07 10.6233C13.2327 10.5517 13.4171 10.5477 13.5828 10.6121C13.7484 10.6764 13.8817 10.804 13.9533 10.9667C13.999 11.0757 14.076 11.1688 14.1744 11.2343C14.2728 11.2997 14.3884 11.3347 14.5067 11.3347C14.6249 11.3347 14.7405 11.2997 14.8389 11.2343C14.9374 11.1688 15.0143 11.0757 15.06 10.9667C15.1316 10.804 15.2649 10.6764 15.4306 10.6121C15.5962 10.5477 15.7807 10.5517 15.9433 10.6233C16.106 10.6949 16.2336 10.8282 16.2979 10.9939C16.3623 11.1595 16.3583 11.344 16.2867 11.5067ZM16.3333 9.66667C16.2287 9.66792 16.1255 9.64269 16.0333 9.59333L13.3667 8.26C13.2093 8.17601 13.0918 8.03296 13.0399 7.8623C12.988 7.69164 13.006 7.50736 13.09 7.35C13.174 7.19264 13.317 7.07508 13.4877 7.0232C13.6584 6.97131 13.8426 6.98935 14 7.07333L16.6667 8.40667C16.746 8.44904 16.8159 8.50702 16.8722 8.57712C16.9285 8.64721 16.97 8.72797 16.9943 8.81454C17.0186 8.90111 17.0251 8.9917 17.0135 9.08085C17.0019 9.17001 16.9723 9.25589 16.9267 9.33333C16.8668 9.43706 16.7801 9.52276 16.6757 9.58141C16.5713 9.64007 16.4531 9.66952 16.3333 9.66667Z" fill="#161616"/>
</svg>
