<svg width="24" height="24" viewBox="0 0 24 24" fill="none" xmlns="http://www.w3.org/2000/svg">
<path d="M12 2C10.0222 2 8.08879 2.58649 6.4443 3.6853C4.79981 4.78412 3.51809 6.3459 2.76121 8.17316C2.00433 10.0004 1.8063 12.0111 2.19215 13.9509C2.578 15.8907 3.53041 17.6725 4.92894 19.0711C6.32746 20.4696 8.10929 21.422 10.0491 21.8078C11.9889 22.1937 13.9996 21.9957 15.8268 21.2388C17.6541 20.4819 19.2159 19.2002 20.3147 17.5557C21.4135 15.9112 22 13.9778 22 12C22 9.34783 20.9464 6.8043 19.0711 4.92893C17.1957 3.05357 14.6522 2 12 2ZM9.54167 5.84167C9.63907 5.78968 9.74575 5.7574 9.85562 5.74664C9.9655 5.73589 10.0764 5.74689 10.182 5.779C10.2877 5.81111 10.3859 5.86372 10.4712 5.93381C10.5565 6.0039 10.6272 6.0901 10.6792 6.1875C10.7312 6.2849 10.7634 6.39158 10.7742 6.50145C10.7849 6.61133 10.774 6.72225 10.7418 6.82787C10.7097 6.9335 10.6571 7.03177 10.587 7.11706C10.5169 7.20236 10.4307 7.27302 10.3333 7.325L7 8.99167C6.88474 9.05336 6.75573 9.0849 6.625 9.08333C6.46845 9.09471 6.31186 9.06163 6.17327 8.98792C6.03469 8.9142 5.91974 8.80284 5.84167 8.66667C5.74283 8.46986 5.72591 8.24193 5.79462 8.03268C5.86332 7.82344 6.01207 7.6499 6.20834 7.55L9.54167 5.84167ZM6.66667 10.2833C6.76679 10.2389 6.87468 10.2147 6.98417 10.2121C7.09366 10.2094 7.20261 10.2283 7.30477 10.2678C7.40693 10.3073 7.50031 10.3665 7.57957 10.4421C7.65882 10.5177 7.7224 10.6082 7.76667 10.7083C7.82381 10.8446 7.91995 10.961 8.043 11.0428C8.16606 11.1247 8.31055 11.1683 8.45834 11.1683C8.60612 11.1683 8.75061 11.1247 8.87367 11.0428C8.99673 10.961 9.09286 10.8446 9.15 10.7083C9.23951 10.505 9.40613 10.3456 9.6132 10.2651C9.71574 10.2252 9.82511 10.206 9.93509 10.2084C10.0451 10.2108 10.1535 10.2348 10.2542 10.2792C10.3548 10.3235 10.4458 10.3872 10.5219 10.4667C10.5979 10.5462 10.6576 10.6398 10.6974 10.7424C10.7373 10.8449 10.7566 10.9543 10.7541 11.0643C10.7517 11.1742 10.7277 11.2827 10.6833 11.3833C10.4925 11.8143 10.1807 12.1805 9.78573 12.4376C9.39075 12.6947 8.92961 12.8315 8.45834 12.8315C7.98706 12.8315 7.52592 12.6947 7.13094 12.4376C6.73596 12.1805 6.42413 11.8143 6.23334 11.3833C6.1892 11.2827 6.1654 11.1743 6.16331 11.0645C6.16122 10.9546 6.18088 10.8454 6.22115 10.7432C6.26143 10.6409 6.32153 10.5477 6.39799 10.4688C6.47445 10.3898 6.56576 10.3268 6.66667 10.2833ZM7.83334 16.4667C8.34164 15.8547 8.97849 15.3623 9.69862 15.0243C10.4188 14.6863 11.2045 14.5111 12 14.5111C12.7955 14.5111 13.5812 14.6863 14.3014 15.0243C15.0215 15.3623 15.6584 15.8547 16.1667 16.4667C16.2368 16.5509 16.2897 16.6481 16.3222 16.7528C16.3548 16.8574 16.3663 16.9675 16.3563 17.0766C16.3462 17.1858 16.3147 17.2919 16.2636 17.3888C16.2125 17.4858 16.1427 17.5717 16.0583 17.6417C15.9084 17.7659 15.7197 17.8337 15.525 17.8333C15.4026 17.8335 15.2816 17.8068 15.1707 17.7549C15.0598 17.7031 14.9617 17.6274 14.8833 17.5333C14.5323 17.1059 14.091 16.7616 13.591 16.5252C13.0909 16.2888 12.5447 16.1662 11.9917 16.1662C11.4386 16.1662 10.8924 16.2888 10.3924 16.5252C9.89238 16.7616 9.45099 17.1059 9.1 17.5333C9.03503 17.6311 8.95014 17.714 8.85088 17.7767C8.75162 17.8394 8.64024 17.8804 8.52404 17.897C8.40783 17.9137 8.28942 17.9056 8.17657 17.8733C8.06371 17.8409 7.95895 17.7852 7.86916 17.7095C7.77937 17.6339 7.70656 17.5402 7.65552 17.4345C7.60447 17.3288 7.57634 17.2135 7.57295 17.0961C7.56957 16.9788 7.59102 16.8621 7.63589 16.7536C7.68076 16.6451 7.74805 16.5473 7.83334 16.4667ZM17.3583 11.3833C17.1675 11.8143 16.8557 12.1805 16.4607 12.4376C16.0658 12.6947 15.6046 12.8315 15.1333 12.8315C14.6621 12.8315 14.2009 12.6947 13.8059 12.4376C13.411 12.1805 13.0991 11.8143 12.9083 11.3833C12.8188 11.18 12.8138 10.9494 12.8942 10.7424C12.9747 10.5353 13.1342 10.3687 13.3375 10.2792C13.5408 10.1897 13.7714 10.1846 13.9785 10.2651C14.1855 10.3456 14.3522 10.505 14.4417 10.7083C14.4988 10.8446 14.5949 10.961 14.718 11.0428C14.8411 11.1247 14.9856 11.1683 15.1333 11.1683C15.2811 11.1683 15.4256 11.1247 15.5487 11.0428C15.6717 10.961 15.7679 10.8446 15.825 10.7083C15.9145 10.505 16.0811 10.3456 16.2882 10.2651C16.4953 10.1846 16.7258 10.1897 16.9292 10.2792C17.1325 10.3687 17.2919 10.5353 17.3724 10.7424C17.4529 10.9494 17.4478 11.18 17.3583 11.3833ZM17.4167 9.08333C17.2859 9.0849 17.1569 9.05336 17.0417 8.99167L13.7083 7.325C13.5116 7.22002 13.3647 7.0412 13.2998 6.82787C13.235 6.61455 13.2575 6.3842 13.3625 6.1875C13.4675 5.9908 13.6463 5.84386 13.8596 5.779C14.073 5.71414 14.3033 5.73669 14.5 5.84167L17.8333 7.50833C17.9325 7.56131 18.0198 7.63378 18.0902 7.7214C18.1606 7.80902 18.2125 7.90997 18.2429 8.01818C18.2733 8.12639 18.2814 8.23962 18.2669 8.35106C18.2524 8.46251 18.2154 8.56986 18.1583 8.66667C18.0835 8.79633 17.9752 8.90345 17.8447 8.97677C17.7142 9.05009 17.5663 9.0869 17.4167 9.08333Z" fill="#161616"/>
</svg>
