<svg width="24" height="24" viewBox="0 0 24 24" fill="none" xmlns="http://www.w3.org/2000/svg">
<path fill-rule="evenodd" clip-rule="evenodd" d="M21.325 3.35C21.6978 3.35 22 3.04779 22 2.675C22 2.30221 21.6978 2 21.325 2C20.9522 2 20.65 2.30221 20.65 2.675C20.65 3.04779 20.9522 3.35 21.325 3.35ZM12.3417 7.60836C12.2246 7.49117 12.1589 7.33232 12.1589 7.16669C12.1589 7.00107 12.2246 6.84221 12.3417 6.72503C12.8215 6.24388 13.091 5.59207 13.091 4.91253C13.091 4.23298 12.8215 3.58117 12.3417 3.10003C12.2313 2.98155 12.1712 2.82484 12.174 2.66292C12.1769 2.50101 12.2425 2.34652 12.357 2.23201C12.4715 2.1175 12.626 2.0519 12.7879 2.04905C12.9498 2.04619 13.1065 2.10629 13.225 2.21669C13.5795 2.57044 13.8608 2.99063 14.0527 3.45322C14.2446 3.91581 14.3434 4.41171 14.3434 4.91253C14.3434 5.41334 14.2446 5.90924 14.0527 6.37183C13.8608 6.83442 13.5795 7.25462 13.225 7.60836C13.1676 7.66732 13.0989 7.71419 13.023 7.74619C12.9472 7.77818 12.8657 7.79467 12.7833 7.79467C12.701 7.79467 12.6195 7.77818 12.5437 7.74619C12.4678 7.71419 12.3991 7.66732 12.3417 7.60836ZM19.0875 10.9257C19.7638 10.9257 20.4137 11.1884 20.9 11.6583C20.9572 11.7197 21.0262 11.769 21.1029 11.8031C21.1796 11.8373 21.2623 11.8557 21.3462 11.8571C21.4302 11.8586 21.5135 11.8432 21.5913 11.8118C21.6692 11.7803 21.7399 11.7335 21.7992 11.6742C21.8586 11.6148 21.9053 11.5441 21.9368 11.4663C21.9682 11.3885 21.9837 11.3051 21.9822 11.2212C21.9807 11.1373 21.9623 11.0545 21.9282 10.9779C21.894 10.9012 21.8447 10.8322 21.7833 10.775C21.4296 10.4205 21.0094 10.1392 20.5468 9.9473C20.0842 9.7554 19.5883 9.65662 19.0875 9.65662C18.5867 9.65662 18.0908 9.7554 17.6282 9.9473C17.1656 10.1392 16.7454 10.4205 16.3917 10.775C16.3327 10.8324 16.2858 10.9011 16.2539 10.977C16.2219 11.0528 16.2054 11.1343 16.2054 11.2167C16.2054 11.299 16.2219 11.3805 16.2539 11.4563C16.2858 11.5322 16.3327 11.6009 16.3917 11.6583C16.5089 11.7754 16.6677 11.8411 16.8333 11.8411C16.999 11.8411 17.1578 11.7754 17.275 11.6583C17.7613 11.1884 18.4112 10.9257 19.0875 10.9257ZM19.975 14.1334C19.975 14.5062 19.6728 14.8084 19.3 14.8084C18.9272 14.8084 18.625 14.5062 18.625 14.1334C18.625 13.7606 18.9272 13.4584 19.3 13.4584C19.6728 13.4584 19.975 13.7606 19.975 14.1334ZM10.5417 4.70002C10.5417 5.07282 10.2395 5.37502 9.86667 5.37502C9.49388 5.37502 9.19167 5.07282 9.19167 4.70002C9.19167 4.32723 9.49388 4.02502 9.86667 4.02502C10.2395 4.02502 10.5417 4.32723 10.5417 4.70002ZM21.775 7.39167C21.775 7.76447 21.4728 8.06667 21.1 8.06667C20.7272 8.06667 20.425 7.76447 20.425 7.39167C20.425 7.01888 20.7272 6.71667 21.1 6.71667C21.4728 6.71667 21.775 7.01888 21.775 7.39167ZM15.0417 8.95837C14.9246 8.84118 14.8589 8.68233 14.8589 8.5167C14.8589 8.35108 14.9246 8.19222 15.0417 8.07503L19.3083 3.80837C19.4268 3.69797 19.5835 3.63787 19.7454 3.64072C19.9074 3.64358 20.0619 3.70917 20.1764 3.82368C20.2909 3.93819 20.3565 4.09268 20.3593 4.2546C20.3622 4.41652 20.3021 4.57322 20.1917 4.6917L15.925 8.95837C15.8078 9.07541 15.649 9.14115 15.4833 9.14115C15.3177 9.14115 15.1589 9.07541 15.0417 8.95837ZM7.90834 8.66672C9.24167 7.30005 11.825 8.46672 13.6667 10.3334C15.5333 12.1751 16.7 14.7501 15.3667 16.0917C15.2317 16.2329 15.0703 16.3461 14.8917 16.4251L4.89167 21.7667C4.51958 21.9643 4.09404 22.0377 3.67724 21.9763C3.26044 21.9148 2.87422 21.7217 2.57501 21.4251C2.27771 21.1245 2.08422 20.7369 2.02276 20.3186C1.96129 19.9004 2.03508 19.4734 2.23334 19.1001C2.23334 19.1001 7.57501 9.09172 7.60834 9.06672C7.68322 8.91627 7.78488 8.78072 7.90834 8.66672ZM10.85 13.1667C12.1 14.4001 13.7833 15.1334 14.075 14.8334L14.0917 14.8167C14.2833 14.6334 13.9917 13.1751 12.4167 11.6084C10.6583 9.87505 9.30834 9.81672 9.18334 9.94172C8.87501 10.2334 9.60001 11.9334 10.85 13.1667Z" fill="#161616"/>
</svg>
