<svg width="24" height="24" viewBox="0 0 24 24" fill="none" xmlns="http://www.w3.org/2000/svg">
<path fill-rule="evenodd" clip-rule="evenodd" d="M8.66658 7.01118C9.65328 6.35189 10.8133 6 12 6C13.5913 6 15.1174 6.63214 16.2426 7.75736C17.3679 8.88258 18 10.4087 18 12C18 13.1867 17.6481 14.3467 16.9888 15.3334C16.3295 16.3201 15.3925 17.0891 14.2961 17.5433C13.1997 17.9974 11.9933 18.1162 10.8295 17.8847C9.66557 17.6532 8.59648 17.0818 7.75736 16.2426C6.91825 15.4035 6.3468 14.3344 6.11529 13.1705C5.88378 12.0067 6.0026 10.8003 6.45673 9.7039C6.91085 8.60754 7.67989 7.67047 8.66658 7.01118ZM9.22215 16.1573C10.0444 16.7068 11.0111 17 12 17C13.3261 17 14.5979 16.4732 15.5355 15.5355C16.4732 14.5979 17 13.3261 17 12C17 11.0111 16.7068 10.0444 16.1573 9.22215C15.6079 8.3999 14.8271 7.75904 13.9134 7.3806C12.9998 7.00216 11.9945 6.90315 11.0246 7.09607C10.0546 7.289 9.16373 7.7652 8.46447 8.46447C7.76521 9.16373 7.289 10.0546 7.09608 11.0245C6.90315 11.9945 7.00217 12.9998 7.3806 13.9134C7.75904 14.827 8.39991 15.6079 9.22215 16.1573ZM13.8657 13.0195C13.9932 12.9839 14.1296 13.0002 14.245 13.065C14.3034 13.0973 14.3547 13.1408 14.396 13.1932C14.4373 13.2456 14.4677 13.3057 14.4854 13.37C14.5031 13.4343 14.5077 13.5015 14.4991 13.5676C14.4904 13.6337 14.4686 13.6974 14.435 13.755C14.2006 14.2001 13.8509 14.5741 13.4226 14.838C12.9943 15.1018 12.503 15.2458 12 15.255C11.497 15.2458 11.0057 15.1018 10.5774 14.838C10.1491 14.5741 9.79944 14.2001 9.565 13.755C9.49869 13.6396 9.48094 13.5027 9.51563 13.3742C9.55033 13.2457 9.63463 13.1363 9.75 13.07C9.86537 13.0037 10.0024 12.986 10.1308 13.0206C10.2593 13.0553 10.3687 13.1396 10.435 13.255C10.5837 13.5455 10.8071 13.7912 11.0821 13.967C11.3571 14.1427 11.6739 14.2421 12 14.255C12.3261 14.2421 12.6429 14.1427 12.9179 13.967C13.1929 13.7912 13.4163 13.5455 13.565 13.255C13.6301 13.1398 13.7383 13.0551 13.8657 13.0195ZM10 11.4999C10.5523 11.4999 11 11.0522 11 10.4999C11 9.94759 10.5523 9.49988 10 9.49988C9.44772 9.49988 9 9.94759 9 10.4999C9 11.0522 9.44772 11.4999 10 11.4999ZM15 10.4999C15 11.0522 14.5523 11.4999 14 11.4999C13.4477 11.4999 13 11.0522 13 10.4999C13 9.94759 13.4477 9.49988 14 9.49988C14.5523 9.49988 15 9.94759 15 10.4999Z" fill="#161616"/>
</svg>
