<svg width="24" height="24" viewBox="0 0 24 24" fill="none" xmlns="http://www.w3.org/2000/svg">
<path d="M12 6C10.8133 6 9.65328 6.35189 8.66658 7.01118C7.67989 7.67047 6.91085 8.60754 6.45673 9.7039C6.0026 10.8003 5.88378 12.0067 6.11529 13.1705C6.3468 14.3344 6.91825 15.4035 7.75736 16.2426C8.59648 17.0818 9.66557 17.6532 10.8295 17.8847C11.9933 18.1162 13.1997 17.9974 14.2961 17.5433C15.3925 17.0891 16.3295 16.3201 16.9888 15.3334C17.6481 14.3467 18 13.1867 18 12C18 10.4087 17.3679 8.88258 16.2426 7.75736C15.1174 6.63214 13.5913 6 12 6ZM10.525 8.305C10.5834 8.27381 10.6474 8.25444 10.7134 8.24799C10.7793 8.24153 10.8459 8.24813 10.9092 8.2674C10.9726 8.28667 11.0316 8.31823 11.0827 8.36028C11.1339 8.40234 11.1763 8.45406 11.2075 8.5125C11.2387 8.57094 11.2581 8.63495 11.2645 8.70087C11.271 8.7668 11.2644 8.83335 11.2451 8.89672C11.2258 8.9601 11.1943 9.01906 11.1522 9.07024C11.1102 9.12142 11.0584 9.16381 11 9.195L9 10.195C8.93084 10.232 8.85344 10.2509 8.775 10.25C8.68107 10.2568 8.58712 10.237 8.50396 10.1927C8.42081 10.1485 8.35185 10.0817 8.305 10C8.2457 9.88191 8.23555 9.74516 8.27677 9.61961C8.31799 9.49406 8.40724 9.38994 8.525 9.33L10.525 8.305ZM8.8 10.97C8.86008 10.9434 8.92481 10.9288 8.9905 10.9272C9.0562 10.9256 9.12156 10.937 9.18286 10.9607C9.24416 10.9844 9.30019 11.0199 9.34774 11.0653C9.39529 11.1106 9.43344 11.1649 9.46 11.225C9.49429 11.3068 9.55197 11.3766 9.6258 11.4257C9.69964 11.4748 9.78633 11.501 9.875 11.501C9.96367 11.501 10.0504 11.4748 10.1242 11.4257C10.198 11.3766 10.2557 11.3068 10.29 11.225C10.3437 11.103 10.4437 11.0073 10.5679 10.959C10.6294 10.9351 10.6951 10.9236 10.7611 10.925C10.827 10.9265 10.8921 10.9409 10.9525 10.9675C11.0129 10.9941 11.0675 11.0323 11.1131 11.08C11.1588 11.1277 11.1945 11.1839 11.2185 11.2454C11.2424 11.3069 11.2539 11.3726 11.2525 11.4386C11.251 11.5045 11.2366 11.5696 11.21 11.63C11.0955 11.8886 10.9084 12.1083 10.6714 12.2626C10.4345 12.4168 10.1578 12.4989 9.875 12.4989C9.59224 12.4989 9.31555 12.4168 9.07856 12.2626C8.84158 12.1083 8.65448 11.8886 8.54 11.63C8.51352 11.5696 8.49924 11.5046 8.49799 11.4387C8.49673 11.3728 8.50853 11.3072 8.53269 11.2459C8.55686 11.1846 8.59292 11.1286 8.63879 11.0813C8.68467 11.0339 8.73946 10.9961 8.8 10.97ZM9.5 14.68C9.80498 14.3128 10.1871 14.0174 10.6192 13.8146C11.0513 13.6118 11.5227 13.5067 12 13.5067C12.4773 13.5067 12.9487 13.6118 13.3808 13.8146C13.8129 14.0174 14.195 14.3128 14.5 14.68C14.5421 14.7305 14.5738 14.7889 14.5933 14.8517C14.6129 14.9145 14.6198 14.9805 14.6138 15.046C14.6077 15.1115 14.5888 15.1751 14.5582 15.2333C14.5275 15.2915 14.4856 15.343 14.435 15.385C14.345 15.4595 14.2318 15.5002 14.115 15.5C14.0415 15.5001 13.969 15.4841 13.9024 15.4529C13.8359 15.4218 13.777 15.3764 13.73 15.32C13.5194 15.0635 13.2546 14.857 12.9546 14.7151C12.6546 14.5733 12.3268 14.4997 11.995 14.4997C11.6632 14.4997 11.3354 14.5733 11.0354 14.7151C10.7354 14.857 10.4706 15.0635 10.26 15.32C10.221 15.3787 10.1701 15.4284 10.1105 15.466C10.051 15.5036 9.98415 15.5282 9.91442 15.5382C9.8447 15.5482 9.77365 15.5433 9.70594 15.524C9.63823 15.5046 9.57537 15.4711 9.5215 15.4257C9.46762 15.3804 9.42394 15.3241 9.39331 15.2607C9.36268 15.1973 9.3458 15.1281 9.34377 15.0577C9.34174 14.9873 9.35461 14.9172 9.38153 14.8521C9.40846 14.7871 9.44883 14.7284 9.5 14.68ZM15.215 11.63C15.1005 11.8886 14.9134 12.1083 14.6764 12.2626C14.4394 12.4168 14.1628 12.4989 13.88 12.4989C13.5972 12.4989 13.3206 12.4168 13.0836 12.2626C12.8466 12.1083 12.6595 11.8886 12.545 11.63C12.4913 11.508 12.4883 11.3697 12.5365 11.2454C12.5848 11.1212 12.6805 11.0212 12.8025 10.9675C12.9245 10.9138 13.0628 10.9107 13.1871 10.959C13.3113 11.0073 13.4113 11.103 13.465 11.225C13.4993 11.3068 13.557 11.3766 13.6308 11.4257C13.7046 11.4748 13.7913 11.501 13.88 11.501C13.9687 11.501 14.0554 11.4748 14.1292 11.4257C14.203 11.3766 14.2607 11.3068 14.295 11.225C14.3487 11.103 14.4487 11.0073 14.5729 10.959C14.6972 10.9107 14.8355 10.9138 14.9575 10.9675C15.0795 11.0212 15.1752 11.1212 15.2235 11.2454C15.2717 11.3697 15.2687 11.508 15.215 11.63ZM15.25 10.25C15.1716 10.2509 15.0942 10.232 15.025 10.195L13.025 9.195C12.907 9.13201 12.8188 9.02472 12.7799 8.89672C12.741 8.76873 12.7545 8.63052 12.8175 8.5125C12.8805 8.39448 12.9878 8.30631 13.1158 8.2674C13.2438 8.22849 13.382 8.24201 13.5 8.305L15.5 9.305C15.5595 9.33678 15.6119 9.38027 15.6541 9.43284C15.6964 9.48541 15.7275 9.54598 15.7457 9.61091C15.764 9.67583 15.7689 9.74377 15.7601 9.81064C15.7514 9.87751 15.7293 9.94192 15.695 10C15.6501 10.0778 15.5851 10.1421 15.5068 10.1861C15.4285 10.2301 15.3398 10.2521 15.25 10.25Z" fill="#161616"/>
</svg>
