<svg width="24" height="24" viewBox="0 0 24 24" fill="none" xmlns="http://www.w3.org/2000/svg">
<path fill-rule="evenodd" clip-rule="evenodd" d="M19.4607 5.08014C19.7589 5.08014 20.0007 4.83834 20.0007 4.54007C20.0007 4.2418 19.7589 4 19.4607 4C19.1624 4 18.9206 4.2418 18.9206 4.54007C18.9206 4.83834 19.1624 5.08014 19.4607 5.08014ZM12.2731 8.48727C12.1794 8.39351 12.1268 8.26641 12.1268 8.13389C12.1268 8.00137 12.1794 7.87427 12.2731 7.78051C12.657 7.39555 12.8726 6.87403 12.8726 6.33032C12.8726 5.78662 12.657 5.2651 12.2731 4.88014C12.1847 4.78534 12.1367 4.65996 12.1389 4.53041C12.1412 4.40086 12.1937 4.27725 12.2853 4.18563C12.3769 4.09401 12.5006 4.04153 12.6301 4.03924C12.7597 4.03696 12.885 4.08505 12.9798 4.17338C13.2635 4.45641 13.4885 4.79261 13.6421 5.16273C13.7956 5.53285 13.8746 5.92962 13.8746 6.33032C13.8746 6.73103 13.7956 7.1278 13.6421 7.49792C13.4885 7.86804 13.2635 8.20424 12.9798 8.48727C12.9339 8.53445 12.8789 8.57194 12.8182 8.59755C12.7575 8.62315 12.6923 8.63634 12.6264 8.63634C12.5606 8.63634 12.4954 8.62315 12.4347 8.59755C12.374 8.57194 12.319 8.53445 12.2731 8.48727ZM17.6704 11.1415C18.2115 11.1415 18.7315 11.3516 19.1206 11.7277C19.1664 11.7768 19.2216 11.8162 19.283 11.8435C19.3443 11.8709 19.4105 11.8856 19.4777 11.8867C19.5448 11.8879 19.6115 11.8756 19.6738 11.8504C19.736 11.8253 19.7926 11.7878 19.8401 11.7404C19.8876 11.6929 19.925 11.6363 19.9501 11.574C19.9753 11.5118 19.9877 11.4451 19.9865 11.3779C19.9853 11.3108 19.9706 11.2446 19.9433 11.1832C19.9159 11.1219 19.8765 11.0667 19.8274 11.0209C19.5444 10.7373 19.2082 10.5122 18.838 10.3587C18.4679 10.2051 18.0711 10.1261 17.6704 10.1261C17.2697 10.1261 16.873 10.2051 16.5028 10.3587C16.1327 10.5122 15.7965 10.7373 15.5135 11.0209C15.4663 11.0669 15.4288 11.1218 15.4032 11.1825C15.3776 11.2432 15.3644 11.3084 15.3644 11.3743C15.3644 11.4402 15.3776 11.5054 15.4032 11.566C15.4288 11.6267 15.4663 11.6817 15.5135 11.7277C15.6073 11.8213 15.7344 11.8739 15.8669 11.8739C15.9994 11.8739 16.1265 11.8213 16.2203 11.7277C16.6094 11.3516 17.1293 11.1415 17.6704 11.1415ZM18.3805 13.708C18.3805 14.0062 18.1387 14.248 17.8405 14.248C17.5422 14.248 17.3004 14.0062 17.3004 13.708C17.3004 13.4097 17.5422 13.1679 17.8405 13.1679C18.1387 13.1679 18.3805 13.4097 18.3805 13.708ZM10.8329 6.1603C10.8329 6.45857 10.5911 6.70037 10.2928 6.70037C9.99454 6.70037 9.75274 6.45857 9.75274 6.1603C9.75274 5.86203 9.99454 5.62023 10.2928 5.62023C10.5911 5.62023 10.8329 5.86203 10.8329 6.1603ZM19.8207 8.3139C19.8207 8.61217 19.5789 8.85397 19.2806 8.85397C18.9824 8.85397 18.7406 8.61217 18.7406 8.3139C18.7406 8.01563 18.9824 7.77383 19.2806 7.77383C19.5789 7.77383 19.8207 8.01563 19.8207 8.3139ZM14.4334 9.56742C14.3397 9.47366 14.2871 9.34656 14.2871 9.21404C14.2871 9.08152 14.3397 8.95442 14.4334 8.86066L17.8471 5.44688C17.9419 5.35855 18.0673 5.31046 18.1969 5.31275C18.3264 5.31503 18.45 5.36752 18.5416 5.45914C18.6333 5.55076 18.6857 5.67436 18.688 5.80391C18.6903 5.93346 18.6422 6.05885 18.5539 6.15364L15.1401 9.56742C15.0463 9.66106 14.9193 9.71366 14.7867 9.71366C14.6542 9.71366 14.5271 9.66106 14.4334 9.56742ZM8.72594 9.33407C9.79275 8.24059 11.8597 9.17405 13.3332 10.6676C14.8267 12.1411 15.7602 14.2014 14.6934 15.2748C14.5854 15.3878 14.4563 15.4784 14.3133 15.5415L6.3123 19.8154C6.01458 19.9735 5.67411 20.0323 5.34062 19.9831C5.00714 19.9339 4.69813 19.7794 4.45872 19.5421C4.22085 19.3016 4.06604 18.9914 4.01686 18.6568C3.96769 18.3221 4.02672 17.9805 4.18535 17.6818C4.18535 17.6818 8.45924 9.67411 8.48591 9.65411C8.54582 9.53373 8.62716 9.42528 8.72594 9.33407ZM11.0796 12.9345C12.0797 13.9213 13.4266 14.5081 13.6599 14.268L13.6733 14.2547C13.8266 14.108 13.5932 12.9412 12.3331 11.6877C10.9262 10.3009 9.84609 10.2542 9.74608 10.3542C9.49938 10.5876 10.0795 11.9477 11.0796 12.9345Z" fill="#161616"/>
</svg>
