<svg width="24" height="24" viewBox="0 0 24 24" fill="none" xmlns="http://www.w3.org/2000/svg">
<path fill-rule="evenodd" clip-rule="evenodd" d="M17.5955 6.8101C17.8192 6.8101 18.0006 6.62876 18.0006 6.40505C18.0006 6.18135 17.8192 6 17.5955 6C17.3718 6 17.1904 6.18135 17.1904 6.40505C17.1904 6.62876 17.3718 6.8101 17.5955 6.8101ZM12.2048 9.36547C12.1346 9.29515 12.0951 9.19982 12.0951 9.10043C12.0951 9.00104 12.1346 8.90572 12.2048 8.8354C12.4928 8.54667 12.6545 8.15554 12.6545 7.74776C12.6545 7.33998 12.4928 6.94884 12.2048 6.66012C12.1386 6.58902 12.1025 6.49498 12.1042 6.39782C12.1059 6.30066 12.1453 6.20795 12.214 6.13924C12.2827 6.07052 12.3754 6.03116 12.4726 6.02945C12.5697 6.02773 12.6638 6.0638 12.7349 6.13005C12.9476 6.34232 13.1164 6.59447 13.2316 6.87206C13.3467 7.14965 13.406 7.44723 13.406 7.74776C13.406 8.04829 13.3467 8.34586 13.2316 8.62345C13.1164 8.90104 12.9476 9.15319 12.7349 9.36547C12.7004 9.40085 12.6592 9.42897 12.6137 9.44817C12.5681 9.46737 12.5192 9.47727 12.4698 9.47727C12.4204 9.47727 12.3715 9.46737 12.326 9.44817C12.2805 9.42897 12.2393 9.40085 12.2048 9.36547ZM16.2528 11.3561C16.6587 11.3561 17.0486 11.5137 17.3405 11.7958C17.3748 11.8326 17.4162 11.8622 17.4622 11.8827C17.5082 11.9032 17.5579 11.9142 17.6082 11.9151C17.6586 11.916 17.7086 11.9067 17.7553 11.8878C17.802 11.869 17.8444 11.8409 17.8801 11.8053C17.9157 11.7697 17.9437 11.7272 17.9626 11.6805C17.9815 11.6338 17.9907 11.5838 17.9899 11.5335C17.989 11.4831 17.9779 11.4334 17.9574 11.3874C17.9369 11.3414 17.9074 11.3 17.8705 11.2657C17.6583 11.0529 17.4061 10.8842 17.1285 10.769C16.8509 10.6539 16.5534 10.5946 16.2528 10.5946C15.9523 10.5946 15.6547 10.6539 15.3771 10.769C15.0995 10.8842 14.8474 11.0529 14.6351 11.2657C14.5997 11.3002 14.5716 11.3414 14.5524 11.3869C14.5332 11.4324 14.5233 11.4813 14.5233 11.5307C14.5233 11.5801 14.5332 11.629 14.5524 11.6745C14.5716 11.7201 14.5997 11.7613 14.6351 11.7958C14.7054 11.866 14.8008 11.9054 14.9002 11.9054C14.9995 11.9054 15.0949 11.866 15.1652 11.7958C15.457 11.5137 15.847 11.3561 16.2528 11.3561ZM16.7854 13.2809C16.7854 13.5046 16.604 13.686 16.3803 13.686C16.1566 13.686 15.9753 13.5046 15.9753 13.2809C15.9753 13.0572 16.1566 12.8759 16.3803 12.8759C16.604 12.8759 16.7854 13.0572 16.7854 13.2809ZM11.1247 7.62023C11.1247 7.84394 10.9433 8.02528 10.7196 8.02528C10.4959 8.02528 10.3146 7.84394 10.3146 7.62023C10.3146 7.39653 10.4959 7.21518 10.7196 7.21518C10.9433 7.21518 11.1247 7.39653 11.1247 7.62023ZM17.8655 9.2354C17.8655 9.45911 17.6842 9.64046 17.4605 9.64046C17.2368 9.64046 17.0554 9.45911 17.0554 9.2354C17.0554 9.0117 17.2368 8.83035 17.4605 8.83035C17.6842 8.83035 17.8655 9.0117 17.8655 9.2354ZM13.825 10.1755C13.7548 10.1052 13.7153 10.0099 13.7153 9.91049C13.7153 9.8111 13.7548 9.71578 13.825 9.64546L16.3854 7.08513C16.4564 7.01888 16.5505 6.98281 16.6476 6.98452C16.7448 6.98624 16.8375 7.0256 16.9062 7.09432C16.9749 7.16303 17.0143 7.25574 17.016 7.3529C17.0177 7.45006 16.9817 7.5441 16.9154 7.61519L14.3551 10.1755C14.2848 10.2458 14.1894 10.2852 14.0901 10.2852C13.9907 10.2852 13.8953 10.2458 13.825 10.1755ZM9.54446 10.0005C10.3446 9.18043 11.8948 9.88052 12.9999 11.0007C14.1201 12.1058 14.8201 13.651 14.02 14.4561C13.939 14.5408 13.8422 14.6088 13.735 14.6561L7.73422 17.8616C7.51093 17.9801 7.25558 18.0242 7.00547 17.9873C6.75536 17.9504 6.52359 17.8345 6.34404 17.6565C6.16564 17.4762 6.04953 17.2436 6.01265 16.9926C5.97577 16.7416 6.02004 16.4854 6.13902 16.2613C6.13902 16.2613 9.34443 10.2556 9.36443 10.2406C9.40936 10.1503 9.47037 10.0689 9.54446 10.0005ZM11.3097 12.7009C12.0598 13.441 13.0699 13.881 13.2449 13.701L13.2549 13.691C13.37 13.581 13.1949 12.7059 12.2498 11.7658C11.1947 10.7256 10.3846 10.6906 10.3096 10.7656C10.1245 10.9407 10.5596 11.9608 11.3097 12.7009Z" fill="#161616"/>
</svg>
