<svg width="24" height="24" viewBox="0 0 24 24" fill="none" xmlns="http://www.w3.org/2000/svg">
<path fill-rule="evenodd" clip-rule="evenodd" d="M17.8137 16.9163L14.4894 13.5911C15.9951 11.6113 15.7097 8.80316 13.8365 7.16691C11.9634 5.53066 9.14306 5.62596 7.38456 7.38491C5.62605 9.14387 5.53078 11.9649 7.16661 13.8385C8.80243 15.7122 11.6099 15.9976 13.5892 14.4916L16.9135 17.8168C17.1639 18.0611 17.5634 18.0611 17.8137 17.8168C18.0621 17.568 18.0621 17.1651 17.8137 16.9163ZM7.30756 10.7429C7.30756 8.84476 8.8463 7.30602 10.7444 7.30602C12.6426 7.30602 14.1813 8.84476 14.1813 10.7429C14.1813 12.641 12.6426 14.1798 10.7444 14.1798C8.84723 14.1775 7.3098 12.6401 7.30756 10.7429Z" fill="#161616"/>
</svg>
