<svg width="24" height="24" viewBox="0 0 24 24" fill="none" xmlns="http://www.w3.org/2000/svg">
<path fill-rule="evenodd" clip-rule="evenodd" d="M19.7516 18.5551L15.3192 14.1215C17.3268 11.4818 16.9463 7.73754 14.4487 5.55588C11.9512 3.37422 8.19075 3.50127 5.84607 5.84655C3.5014 8.19183 3.37438 11.9532 5.55548 14.4514C7.73658 16.9496 11.4798 17.3302 14.1189 15.3221L18.5514 19.7557C18.8852 20.0814 19.4178 20.0814 19.7516 19.7557C20.0828 19.424 20.0828 18.8868 19.7516 18.5551ZM5.74341 10.3239C5.74341 7.79302 7.79507 5.74136 10.3259 5.74136C12.8568 5.74136 14.9084 7.79302 14.9084 10.3239C14.9084 12.8547 12.8568 14.9064 10.3259 14.9064C7.79631 14.9034 5.7464 12.8535 5.74341 10.3239Z" fill="#161616"/>
</svg>
