<svg width="24" height="24" viewBox="0 0 24 24" fill="none" xmlns="http://www.w3.org/2000/svg">
<path fill-rule="evenodd" clip-rule="evenodd" d="M21.6896 20.1939L16.149 14.6519C18.6584 11.3522 18.1828 6.67193 15.0609 3.94485C11.9389 1.21777 7.23843 1.37659 4.30759 4.30819C1.37675 7.23978 1.21797 11.9415 3.94435 15.0642C6.67072 18.187 11.3498 18.6627 14.6486 16.1526L20.1892 21.6946C20.6065 22.1018 21.2723 22.1018 21.6896 21.6946C22.1035 21.2801 22.1035 20.6085 21.6896 20.1939ZM4.17926 9.90486C4.17926 6.7413 6.74384 4.17672 9.90741 4.17672C13.071 4.17672 15.6356 6.7413 15.6356 9.90486C15.6356 13.0684 13.071 15.633 9.90741 15.633C6.74539 15.6293 4.183 13.0669 4.17926 9.90486Z" fill="#161616"/>
</svg>
