<svg width="24" height="24" viewBox="0 0 24 24" fill="none" xmlns="http://www.w3.org/2000/svg">
<path fill-rule="evenodd" clip-rule="evenodd" d="M6.51089 11.9061C6.45561 11.8087 6.37577 11.7275 6.27931 11.6705C6.18286 11.6135 6.07317 11.5828 5.96114 11.5814H5.60298C5.49904 11.5708 5.40337 11.52 5.33643 11.4398C5.29643 11.3966 5.26667 11.345 5.24936 11.2888C5.23206 11.2326 5.22766 11.1732 5.23648 11.115C5.41582 9.78479 5.98149 8.53635 6.86346 7.52429C7.74542 6.51223 8.90494 5.781 10.1984 5.42116C11.4919 5.06131 12.8626 5.08865 14.1407 5.49979C15.4188 5.91093 16.5483 6.68781 17.3892 7.73423C17.537 7.86245 17.7253 7.93452 17.921 7.93779C18.1167 7.94107 18.3073 7.87533 18.4594 7.75212C18.6115 7.62892 18.7153 7.45611 18.7526 7.26402C18.7899 7.07193 18.7584 6.87284 18.6636 6.70167C17.6034 5.37628 16.1718 4.39728 14.552 3.88996C12.9321 3.38263 11.1976 3.37005 9.57058 3.85382C7.94351 4.3376 6.49785 5.29573 5.41859 6.6056C4.33934 7.91546 3.67559 9.51748 3.51228 11.2066C3.50016 11.309 3.45123 11.4034 3.3746 11.4724C3.29798 11.5413 3.19889 11.58 3.09581 11.5814H2.62936C2.51725 11.5805 2.40697 11.6099 2.31011 11.6663C2.21324 11.7228 2.13336 11.8042 2.07884 11.9022C2.02432 12.0001 1.99717 12.1109 2.00023 12.223C2.0033 12.335 2.03648 12.4442 2.09628 12.539L3.76217 15.2036C3.81943 15.293 3.89827 15.3666 3.99143 15.4175C4.08459 15.4685 4.18907 15.4952 4.29525 15.4952C4.40144 15.4952 4.50592 15.4685 4.59907 15.4175C4.69223 15.3666 4.77107 15.293 4.82834 15.2036L6.49423 12.539C6.55234 12.4442 6.58448 12.3359 6.5874 12.2248C6.59033 12.1137 6.56394 12.0038 6.51089 11.9061ZM8.25174 10.7487C8.25174 13.2339 11.2051 16.3392 11.6549 16.8122C11.6829 16.8416 11.7012 16.8608 11.7085 16.8691C11.7459 16.9089 11.791 16.9406 11.8412 16.9623C11.8913 16.9841 11.9454 16.9952 12 16.9952C12.0546 16.9952 12.1087 16.9841 12.1588 16.9623C12.209 16.9406 12.2541 16.9089 12.2915 16.8691C12.4331 16.7275 15.7482 13.3883 15.7482 10.7487C15.7482 9.75483 15.3533 8.80172 14.6504 8.09898C13.9475 7.39625 12.9941 7.00145 12 7.00145C11.0059 7.00145 10.0525 7.39625 9.34958 8.09898C8.64664 8.80172 8.25174 9.75483 8.25174 10.7487ZM13.2494 10.7487C13.2494 10.9957 13.1761 11.2372 13.0388 11.4426C12.9016 11.648 12.7064 11.8081 12.4781 11.9026C12.2498 11.9972 11.9986 12.0219 11.7562 11.9737C11.5139 11.9255 11.2913 11.8066 11.1165 11.6319C10.9418 11.4572 10.8228 11.2346 10.7746 10.9923C10.7264 10.75 10.7511 10.4989 10.8457 10.2707C10.9402 10.0424 11.1004 9.84734 11.3059 9.71009C11.5113 9.57284 11.7529 9.49959 12 9.49959C12.3314 9.49959 12.6492 9.63118 12.8835 9.86543C13.1178 10.0997 13.2494 10.4174 13.2494 10.7487ZM20.2378 8.79175L21.9037 11.4564V11.4981C21.9635 11.5929 21.9967 11.702 21.9998 11.8141C22.0028 11.9261 21.9757 12.0369 21.9212 12.1349C21.8666 12.2328 21.7868 12.3143 21.6899 12.3707C21.593 12.4272 21.4828 12.4565 21.3706 12.4557H20.9042C20.8011 12.457 20.702 12.4957 20.6254 12.5647C20.5488 12.6336 20.4998 12.7281 20.4877 12.8304C20.3173 14.5162 19.6484 16.113 18.5663 17.417C17.4843 18.7211 16.0381 19.6734 14.4124 20.1523C12.7867 20.6312 11.0551 20.615 9.43863 20.1059C7.82212 19.5968 6.39399 18.6178 5.33644 17.2937C5.24159 17.1226 5.21006 16.9235 5.24739 16.7314C5.28473 16.5393 5.38853 16.3665 5.5406 16.2433C5.69266 16.1201 5.88327 16.0543 6.07898 16.0576C6.27469 16.0609 6.46299 16.1329 6.61085 16.2612C7.44837 17.3214 8.58034 18.1109 9.86485 18.5307C11.1494 18.9504 12.5292 18.9818 13.8315 18.6207C15.1337 18.2597 16.3004 17.5224 17.1852 16.5012C18.0699 15.48 18.6335 14.2204 18.8052 12.8804C18.814 12.8222 18.8096 12.7628 18.7923 12.7066C18.775 12.6503 18.7452 12.5987 18.7052 12.5556C18.6674 12.5109 18.6201 12.475 18.5669 12.4505C18.5136 12.4261 18.4556 12.4136 18.397 12.414H18.0389C17.9267 12.4149 17.8165 12.3855 17.7196 12.3291C17.6227 12.2726 17.5429 12.1912 17.4883 12.0932C17.4338 11.9953 17.4067 11.8845 17.4097 11.7724C17.4128 11.6604 17.446 11.5512 17.5058 11.4564L19.1717 8.79175C19.2327 8.70748 19.3128 8.63887 19.4055 8.59156C19.4981 8.54424 19.6007 8.51957 19.7048 8.51957C19.8088 8.51957 19.9114 8.54424 20.004 8.59156C20.0967 8.63887 20.1768 8.70748 20.2378 8.79175Z" fill="#161616"/>
</svg>
