<svg width="24" height="24" viewBox="0 0 24 24" fill="none" xmlns="http://www.w3.org/2000/svg">
<path fill-rule="evenodd" clip-rule="evenodd" d="M11.8456 6.04958C11.9275 6.01571 12.0152 5.99887 12.1036 6.00006C13.2698 6.00006 14.4098 6.35195 15.3795 7.01124C16.3491 7.67052 17.1049 8.60759 17.5512 9.70394C17.9974 10.8003 18.1142 12.0067 17.8867 13.1706C17.6592 14.3344 17.0976 15.4035 16.273 16.2427C15.4484 17.0818 14.3977 17.6532 13.254 17.8847C12.1102 18.1162 10.9246 17.9974 9.84719 17.5433C8.76977 17.0892 7.84888 16.3201 7.20098 15.3334C6.55308 14.3467 6.20726 13.1867 6.20726 12C6.21893 11.0841 6.41145 10.1799 6.77338 9.34125C6.79786 9.28939 6.80154 9.22987 6.78366 9.17529C6.76578 9.1207 6.72774 9.07534 6.67758 9.04879L6.28565 8.77405C6.17773 8.6993 6.0943 8.59336 6.04612 8.4699C5.99794 8.34644 5.98721 8.21111 6.01534 8.08139C6.04346 7.95167 6.10913 7.8335 6.20389 7.74212C6.29864 7.65074 6.41813 7.59035 6.54694 7.56874L8.36723 7.25855C8.53568 7.22725 8.70947 7.26451 8.85119 7.36231C8.9929 7.4601 9.09122 7.61061 9.12496 7.78144L9.46464 9.60713C9.48976 9.73618 9.47669 9.86991 9.42707 9.99139C9.37746 10.1129 9.29354 10.2166 9.18593 10.2896C9.07894 10.3581 8.95528 10.395 8.82884 10.3959C8.69536 10.3973 8.56466 10.3571 8.45433 10.2807L8.18433 10.0857C8.12294 10.0601 8.05411 10.0601 7.99272 10.0857C7.96017 10.0965 7.93059 10.115 7.90638 10.1397C7.88216 10.1643 7.864 10.1944 7.85337 10.2275C7.65484 10.7968 7.55179 11.396 7.54853 12C7.54853 12.9168 7.81569 13.8129 8.31621 14.5752C8.81673 15.3374 9.52814 15.9315 10.3605 16.2823C11.1928 16.6332 12.1087 16.7249 12.9923 16.5461C13.8759 16.3673 14.6875 15.9258 15.3246 15.2776C15.9616 14.6293 16.3954 13.8034 16.5712 12.9043C16.747 12.0052 16.6568 11.0732 16.312 10.2262C15.9672 9.37928 15.3834 8.65537 14.6343 8.14606C13.8852 7.63674 13.0045 7.3649 12.1036 7.3649C12.0152 7.36609 11.9275 7.34925 11.8456 7.31538C11.7637 7.28151 11.6893 7.23128 11.6268 7.16768C11.5643 7.10407 11.5149 7.02836 11.4817 6.94503C11.4484 6.8617 11.4318 6.77242 11.433 6.68248C11.4318 6.59253 11.4484 6.50326 11.4817 6.41992C11.5149 6.33659 11.5643 6.26089 11.6268 6.19728C11.6893 6.13367 11.7637 6.08345 11.8456 6.04958ZM13.5494 13.9233C13.6391 13.9676 13.7371 13.9918 13.8368 13.9942C13.9596 13.9932 14.0797 13.958 14.1841 13.8924C14.2886 13.8268 14.3733 13.7332 14.4291 13.622C14.5023 13.464 14.5123 13.2833 14.457 13.1179C14.4018 12.9526 14.2856 12.8155 14.133 12.7357L12.8701 12.0976C12.835 12.077 12.806 12.0472 12.7861 12.0114C12.7662 11.9756 12.7561 11.9349 12.7568 11.8938V9.5629C12.7568 9.38661 12.688 9.21754 12.5655 9.09289C12.443 8.96823 12.2769 8.8982 12.1036 8.8982C11.9304 8.8982 11.7642 8.96823 11.6417 9.09289C11.5192 9.21754 11.4504 9.38661 11.4504 9.5629V12.4432C11.4511 12.5659 11.4848 12.6861 11.5477 12.7907C11.6107 12.8954 11.7005 12.9805 11.8075 13.037L13.5494 13.9233Z" fill="#161616"/>
</svg>
