<svg width="24" height="24" viewBox="0 0 24 24" fill="none" xmlns="http://www.w3.org/2000/svg">
<path fill-rule="evenodd" clip-rule="evenodd" d="M7.60871 11.9248C7.56449 11.8469 7.50061 11.7819 7.42345 11.7363C7.34629 11.6907 7.25853 11.6662 7.16891 11.665H6.88238C6.79923 11.6566 6.72269 11.6159 6.66915 11.5518C6.63714 11.5173 6.61334 11.476 6.59949 11.431C6.58565 11.386 6.58212 11.3385 6.58918 11.292C6.73265 10.2278 7.18519 9.22903 7.89077 8.41938C8.59634 7.60973 9.52396 7.02475 10.5588 6.73688C11.5936 6.449 12.6901 6.47087 13.7126 6.79978C14.7351 7.12869 15.6386 7.7502 16.3113 8.58733C16.4296 8.68991 16.5803 8.74757 16.7368 8.75019C16.8934 8.7528 17.0459 8.70022 17.1675 8.60165C17.2892 8.50308 17.3722 8.36484 17.4021 8.21117C17.432 8.0575 17.4067 7.89822 17.3308 7.76128C16.4827 6.70098 15.3375 5.91778 14.0416 5.51192C12.7457 5.10605 11.3581 5.09599 10.0565 5.48301C8.75481 5.87003 7.59828 6.63654 6.73488 7.68443C5.87147 8.73232 5.34047 10.0139 5.20983 11.3653C5.20013 11.4471 5.16098 11.5227 5.09968 11.5778C5.03838 11.633 4.95911 11.664 4.87665 11.665H4.50349C4.4138 11.6644 4.32558 11.6878 4.24809 11.733C4.1706 11.7782 4.10669 11.8433 4.06307 11.9217C4.01945 12 3.99773 12.0887 4.00019 12.1783C4.00264 12.268 4.02918 12.3553 4.07702 12.4311L5.40973 14.5629C5.45555 14.6344 5.51862 14.6932 5.59314 14.734C5.66767 14.7747 5.75125 14.7961 5.8362 14.7961C5.92115 14.7961 6.00473 14.7747 6.07926 14.734C6.15378 14.6932 6.21686 14.6344 6.26267 14.5629L7.59538 12.4311C7.64187 12.3553 7.66758 12.2686 7.66992 12.1798C7.67226 12.0909 7.65115 12.003 7.60871 11.9248ZM9.00139 10.9989C9.00139 12.9871 11.3641 15.4713 11.7239 15.8497C11.7463 15.8732 11.7609 15.8886 11.7668 15.8952C11.7967 15.9271 11.8328 15.9525 11.8729 15.9698C11.913 15.9872 11.9563 15.9962 12 15.9962C12.0437 15.9962 12.087 15.9872 12.1271 15.9698C12.1672 15.9525 12.2033 15.9271 12.2332 15.8952C12.3465 15.782 14.9986 13.1106 14.9986 10.9989C14.9986 10.2038 14.6827 9.44133 14.1203 8.87915C13.558 8.31696 12.7953 8.00112 12 8.00112C11.2047 8.00112 10.442 8.31696 9.87966 8.87915C9.31732 9.44133 9.00139 10.2038 9.00139 10.9989ZM12.9995 10.9989C12.9995 11.1965 12.9409 11.3897 12.8311 11.554C12.7212 11.7184 12.5651 11.8464 12.3825 11.9221C12.1999 11.9977 11.9989 12.0175 11.805 11.9789C11.6111 11.9404 11.433 11.8452 11.2932 11.7055C11.1534 11.5657 11.0582 11.3877 11.0197 11.1938C10.9811 11 11.0009 10.7991 11.0765 10.6165C11.1522 10.4339 11.2803 10.2778 11.4447 10.168C11.6091 10.0582 11.8023 9.99963 12 9.99963C12.2651 9.99963 12.5193 10.1049 12.7068 10.2923C12.8942 10.4797 12.9995 10.7339 12.9995 10.9989ZM18.5903 9.43337L19.923 11.5651V11.5984C19.9708 11.6743 19.9974 11.7616 19.9998 11.8512C20.0023 11.9409 19.9805 12.0295 19.9369 12.1079C19.8933 12.1862 19.8294 12.2514 19.7519 12.2965C19.6744 12.3417 19.5862 12.3652 19.4965 12.3645H19.1234C19.0409 12.3656 18.9616 12.3965 18.9003 12.4517C18.839 12.5069 18.7999 12.5824 18.7902 12.6643C18.6538 14.0129 18.1187 15.2903 17.2531 16.3336C16.3874 17.3769 15.2305 18.1387 13.9299 18.5218C12.6294 18.9049 11.2441 18.892 9.9509 18.4847C8.6577 18.0774 7.51519 17.2942 6.66915 16.235C6.59327 16.098 6.56805 15.9387 6.59791 15.7851C6.62778 15.6314 6.71082 15.4931 6.83248 15.3946C6.95413 15.296 7.10662 15.2434 7.26318 15.246C7.41975 15.2487 7.57039 15.3063 7.68868 15.4089C8.3587 16.2571 9.26427 16.8887 10.2919 17.2245C11.3195 17.5603 12.4234 17.5854 13.4652 17.2965C14.507 17.0077 15.4403 16.4179 16.1481 15.6009C16.856 14.784 17.3068 13.7763 17.4441 12.7043C17.4512 12.6577 17.4477 12.6102 17.4338 12.5652C17.42 12.5202 17.3962 12.479 17.3642 12.4444C17.3339 12.4087 17.2961 12.38 17.2535 12.3604C17.2109 12.3408 17.1645 12.3309 17.1176 12.3312H16.8311C16.7414 12.3319 16.6532 12.3084 16.5757 12.2632C16.4982 12.2181 16.4343 12.1529 16.3907 12.0746C16.3471 11.9962 16.3253 11.9076 16.3278 11.8179C16.3302 11.7283 16.3568 11.641 16.4046 11.5651L17.7373 9.43337C17.7861 9.36595 17.8502 9.31106 17.9244 9.27321C17.9985 9.23536 18.0806 9.21562 18.1638 9.21562C18.247 9.21562 18.3291 9.23536 18.4032 9.27321C18.4774 9.31106 18.5415 9.36595 18.5903 9.43337Z" fill="#161616"/>
</svg>
