<svg width="24" height="24" viewBox="0 0 24 24" fill="none" xmlns="http://www.w3.org/2000/svg">
<path fill-rule="evenodd" clip-rule="evenodd" d="M12.3608 5.00679C9.36621 5.1257 6.74206 7.04677 5.72392 9.86551C5.69679 9.94172 5.6194 9.98798 5.53943 9.97579L4.38959 9.80628C4.26123 9.79012 4.13437 9.84583 4.05942 9.95128C3.98571 10.0591 3.98016 10.1995 4.04512 10.3128L5.86892 13.5124C5.92153 13.6043 6.01387 13.6664 6.11877 13.6806C6.13396 13.6816 6.1492 13.6816 6.16438 13.6806C6.25425 13.6804 6.34039 13.6447 6.40402 13.5812L8.97055 11.031C9.0618 10.9402 9.09403 10.8057 9.05385 10.6834C9.01366 10.5611 8.90793 10.472 8.78061 10.453L7.61308 10.2794C7.56036 10.2715 7.51438 10.2394 7.48874 10.1926C7.4631 10.1459 7.46075 10.0899 7.48237 10.0411C8.60484 7.49978 11.4152 6.15923 14.0966 6.88612C16.7781 7.613 18.5266 10.1894 18.2119 12.9497C17.8972 15.71 15.6136 17.8267 12.8374 17.9314C10.9762 18.0045 9.20068 17.1467 8.1012 15.6433C7.81359 15.2952 7.30422 15.2324 6.94063 15.5001C6.57705 15.7678 6.48584 16.2729 6.73283 16.6508C8.11158 18.5297 10.3026 19.6398 12.6331 19.6401C12.723 19.6401 12.8135 19.6401 12.9054 19.6347C15.5298 19.5541 17.91 18.074 19.1429 15.7559C20.3758 13.4378 20.2726 10.6369 18.8723 8.41582C17.4721 6.19477 14.9894 4.89391 12.3663 5.00679H12.3608Z" fill="#161616"/>
</svg>
