<svg width="24" height="24" viewBox="0 0 24 24" fill="none" xmlns="http://www.w3.org/2000/svg">
<path fill-rule="evenodd" clip-rule="evenodd" d="M16.716 8.31045C15.1757 6.56574 12.7992 5.81195 10.5349 6.3499C8.36087 6.9012 6.6066 8.50321 5.86072 10.6184C5.83828 10.68 5.84488 10.7486 5.87867 10.8048C5.91247 10.8611 5.96985 10.8991 6.03484 10.9083L7.66979 11.1102C7.83395 11.1299 7.9728 11.2409 8.02818 11.3967C8.08355 11.5524 8.04589 11.7262 7.93096 11.845L4.90395 14.973C4.82197 15.0576 4.7092 15.1053 4.59141 15.1053C4.57344 15.1066 4.5554 15.1066 4.53743 15.1053C4.40121 15.0886 4.28086 15.0086 4.21271 14.8894L2.05715 11.1094C1.97537 10.9659 1.98178 10.7886 2.07369 10.6514C2.16325 10.514 2.3236 10.4399 2.48634 10.4608L3.38565 10.574C3.49176 10.5876 3.59195 10.5218 3.62158 10.419C4.50479 7.36155 6.94676 5.00413 10.0334 4.22916C13.0789 3.50668 16.2746 4.52117 18.3457 6.8679C18.7441 7.31794 18.7022 8.00569 18.2521 8.40404C17.8021 8.80239 17.1144 8.76049 16.716 8.31045ZM21.9412 13.87C22.0241 14.0128 22.019 14.1901 21.9282 14.3279C21.847 14.4493 21.7103 14.5219 21.5643 14.5212C21.5469 14.5224 21.5294 14.5224 21.512 14.5212L20.591 14.4106C20.4851 14.3983 20.3858 14.4641 20.3559 14.5665C19.476 17.6289 17.0315 19.9908 13.9406 20.765C10.8951 21.4874 7.69922 20.4734 5.6274 18.1271C5.35916 17.8376 5.26876 17.4254 5.39117 17.0501C5.51358 16.6749 5.82961 16.3953 6.21701 16.3196C6.60441 16.2439 7.00244 16.3839 7.25713 16.6855C8.79768 18.4298 11.1738 19.1838 13.4383 18.6469C15.6126 18.0978 17.3674 16.4962 18.1124 14.381C18.1344 14.3185 18.127 14.2495 18.0924 14.193C18.0577 14.1364 17.999 14.0989 17.9331 14.0911L16.3242 13.8987C16.1608 13.8786 16.0227 13.7679 15.9675 13.6128C15.9122 13.4577 15.9492 13.2846 16.0631 13.1657L19.0718 10.0194C19.1656 9.91901 19.3021 9.87005 19.4383 9.88795C19.5747 9.9036 19.6957 9.98265 19.7648 10.1012L21.9412 13.87Z" fill="#161616"/>
</svg>
