<svg width="24" height="24" viewBox="0 0 24 24" fill="none" xmlns="http://www.w3.org/2000/svg">
<path fill-rule="evenodd" clip-rule="evenodd" d="M8.70653 11.9448C8.67336 11.8875 8.62546 11.8397 8.56759 11.8062C8.50972 11.7726 8.4439 11.7546 8.37669 11.7537H8.16179C8.09942 11.7475 8.04202 11.7176 8.00186 11.6705C7.97786 11.6451 7.96 11.6147 7.94962 11.5817C7.93924 11.5486 7.93659 11.5136 7.94189 11.4794C8.04949 10.6969 8.38889 9.96256 8.91807 9.36723C9.44725 8.7719 10.143 8.34177 10.9191 8.13009C11.6952 7.91842 12.5176 7.9345 13.2844 8.17635C14.0513 8.41819 14.729 8.87518 15.2335 9.49072C15.3222 9.56615 15.4352 9.60854 15.5526 9.61047C15.67 9.61239 15.7844 9.57372 15.8756 9.50125C15.9669 9.42877 16.0292 9.32712 16.0516 9.21413C16.074 9.10114 16.055 8.98402 15.9981 8.88333C15.3621 8.1037 14.5031 7.52781 13.5312 7.22939C12.5593 6.93096 11.5186 6.92356 10.5423 7.20813C9.56611 7.49271 8.69871 8.05631 8.05116 8.82682C7.4036 9.59733 7.00535 10.5397 6.90737 11.5333C6.9001 11.5935 6.87074 11.6491 6.82476 11.6896C6.77879 11.7302 6.71933 11.753 6.65749 11.7537H6.37762C6.31035 11.7532 6.24418 11.7705 6.18606 11.8037C6.12795 11.8369 6.08002 11.8848 6.0473 11.9425C6.01459 12.0001 5.9983 12.0652 6.00014 12.1312C6.00198 12.1971 6.02189 12.2613 6.05777 12.317L7.0573 13.8845C7.09166 13.9371 7.13896 13.9803 7.19486 14.0103C7.25075 14.0403 7.31344 14.056 7.37715 14.056C7.44086 14.056 7.50355 14.0403 7.55944 14.0103C7.61534 13.9803 7.66264 13.9371 7.697 13.8845L8.69654 12.317C8.73141 12.2613 8.75069 12.1976 8.75244 12.1322C8.7542 12.0669 8.73836 12.0022 8.70653 11.9448ZM9.75104 11.2639C9.75104 12.7259 11.5231 14.5525 11.7929 14.8307C11.8097 14.848 11.8207 14.8593 11.8251 14.8642C11.8475 14.8876 11.8746 14.9063 11.9047 14.919C11.9348 14.9318 11.9672 14.9384 12 14.9384C12.0328 14.9384 12.0652 14.9318 12.0953 14.919C12.1254 14.9063 12.1525 14.8876 12.1749 14.8642C12.2599 14.7809 14.2489 12.8167 14.2489 11.2639C14.2489 10.6793 14.012 10.1187 13.5902 9.7053C13.1685 9.29193 12.5964 9.0597 12 9.0597C11.4035 9.0597 10.8315 9.29193 10.4097 9.7053C9.98798 10.1187 9.75104 10.6793 9.75104 11.2639ZM12.7496 11.2639C12.7496 11.4093 12.7057 11.5513 12.6233 11.6721C12.5409 11.793 12.4239 11.8871 12.2869 11.9427C12.1499 11.9984 11.9992 12.0129 11.8537 11.9846C11.7083 11.9562 11.5747 11.8862 11.4699 11.7835C11.3651 11.6807 11.2937 11.5498 11.2647 11.4073C11.2358 11.2647 11.2507 11.117 11.3074 10.9828C11.3641 10.8485 11.4602 10.7337 11.5835 10.653C11.7068 10.5723 11.8517 10.5292 12 10.5292C12.1988 10.5292 12.3895 10.6066 12.5301 10.7444C12.6707 10.8822 12.7496 11.0691 12.7496 11.2639ZM16.9427 10.1128L17.9422 11.6803V11.7048C17.9781 11.7606 17.998 11.8248 17.9999 11.8907C18.0017 11.9566 17.9854 12.0218 17.9527 12.0794C17.92 12.137 17.872 12.1849 17.8139 12.2181C17.7558 12.2513 17.6896 12.2686 17.6224 12.2681H17.3425C17.2807 12.2689 17.2212 12.2916 17.1752 12.3322C17.1293 12.3727 17.0999 12.4283 17.0926 12.4885C16.9904 13.4801 16.589 14.4194 15.9398 15.1865C15.2906 15.9536 14.4229 16.5138 13.4474 16.7955C12.472 17.0772 11.4331 17.0677 10.4632 16.7682C9.49327 16.4687 8.63639 15.8928 8.00186 15.114C7.94495 15.0133 7.92603 14.8962 7.94843 14.7832C7.97083 14.6702 8.03311 14.5686 8.12435 14.4961C8.21559 14.4236 8.32996 14.3849 8.44738 14.3869C8.56481 14.3888 8.67779 14.4312 8.7665 14.5066C9.26902 15.1303 9.9482 15.5947 10.7189 15.8416C11.4896 16.0885 12.3175 16.107 13.0989 15.8946C13.8802 15.6822 14.5802 15.2485 15.1111 14.6478C15.642 14.0471 15.9801 13.3062 16.0831 12.5179C16.0884 12.4837 16.0857 12.4487 16.0754 12.4157C16.065 12.3826 16.0471 12.3522 16.0231 12.3269C16.0004 12.3005 15.9721 12.2794 15.9401 12.2651C15.9082 12.2507 15.8734 12.2433 15.8382 12.2436H15.6233C15.556 12.2441 15.4899 12.2268 15.4318 12.1936C15.3736 12.1604 15.3257 12.1125 15.293 12.0549C15.2603 11.9973 15.244 11.9321 15.2458 11.8662C15.2477 11.8003 15.2676 11.7361 15.3035 11.6803L16.303 10.1128C16.3396 10.0633 16.3877 10.0229 16.4433 9.99507C16.4989 9.96724 16.5604 9.95273 16.6228 9.95273C16.6853 9.95273 16.7468 9.96724 16.8024 9.99507C16.858 10.0229 16.9061 10.0633 16.9427 10.1128Z" fill="#161616"/>
</svg>
