<svg width="24" height="24" viewBox="0 0 24 24" fill="none" xmlns="http://www.w3.org/2000/svg">
<path fill-rule="evenodd" clip-rule="evenodd" d="M5.72432 9.86927C6.74171 7.0482 9.36703 5.12492 12.3636 5.00543V5.00679C14.9877 4.89387 17.4712 6.19519 18.8719 8.41703C20.2726 10.6389 20.3759 13.4408 19.1426 15.7597C17.9092 18.0787 15.5282 19.5593 12.9029 19.6398H12.8709C12.5668 19.6453 12.2828 19.4881 12.126 19.2275C11.9692 18.9668 11.9634 18.6423 12.1107 18.3762C12.258 18.1101 12.5362 17.9428 12.8403 17.9373C15.6175 17.8326 17.9019 15.7152 18.2167 12.9539C18.5316 10.1926 16.7824 7.61529 14.1 6.88814C11.4176 6.161 8.60626 7.50202 7.48339 10.0443C7.46146 10.093 7.46368 10.1492 7.48937 10.1961C7.51507 10.2429 7.56127 10.275 7.61414 10.2826L8.78209 10.457C8.90974 10.4758 9.01582 10.5651 9.05606 10.6877C9.0963 10.8103 9.06379 10.9451 8.9721 11.0359L6.40465 13.587C6.32947 13.6615 6.22392 13.6968 6.11905 13.6825C6.01418 13.6682 5.9219 13.606 5.86937 13.5141L4.04492 10.3133C3.98022 10.2002 3.98578 10.06 4.05922 9.95235C4.13401 9.84663 4.26106 9.79083 4.38952 9.8073L5.53976 9.98028C5.61984 9.99183 5.69699 9.94542 5.72432 9.86927ZM11.9536 8.91583C11.9536 8.53972 12.2585 8.23481 12.6346 8.23481C13.0107 8.23481 13.3156 8.53972 13.3156 8.91583V11.8102C13.3156 11.9042 13.3919 11.9804 13.4859 11.9804H16.0397C16.4158 11.9804 16.7207 12.2853 16.7207 12.6614C16.7207 13.0376 16.4158 13.3425 16.0397 13.3425H12.6346C12.2585 13.3425 11.9536 13.0376 11.9536 12.6614V8.91583Z" fill="#161616"/>
</svg>
