<svg width="24" height="24" viewBox="0 0 24 24" fill="none" xmlns="http://www.w3.org/2000/svg">
<path fill-rule="evenodd" clip-rule="evenodd" d="M7.29324 10.652C8.05628 8.53615 10.0253 7.09369 12.2727 7.00407V7.0051C14.2407 6.9204 16.1034 7.89639 17.1539 9.56277C18.2045 11.2292 18.2819 13.3306 17.3569 15.0698C16.4319 16.809 14.6462 17.9195 12.6772 17.9799H12.6532C12.4251 17.984 12.2121 17.8661 12.0945 17.6706C11.9769 17.4751 11.9725 17.2317 12.083 17.0322C12.1935 16.8326 12.4021 16.7071 12.6302 16.703C14.7131 16.6245 16.4264 15.0364 16.6626 12.9654C16.8987 10.8944 15.5868 8.96146 13.575 8.41611C11.5632 7.87075 9.4547 8.87652 8.61254 10.7832C8.59609 10.8198 8.59776 10.8619 8.61703 10.897C8.6363 10.9322 8.67095 10.9562 8.71061 10.962L9.58657 11.0927C9.68231 11.1068 9.76186 11.1738 9.79204 11.2658C9.82222 11.3577 9.79784 11.4588 9.72907 11.5269L7.80349 13.4402C7.7471 13.4961 7.66794 13.5226 7.58929 13.5119C7.51063 13.5011 7.44143 13.4545 7.40203 13.3856L6.03369 10.985C5.98517 10.9001 5.98933 10.795 6.04442 10.7143C6.10051 10.635 6.1958 10.5931 6.29214 10.6055L7.15482 10.7352C7.21488 10.7439 7.27274 10.7091 7.29324 10.652ZM11.9652 9.93688C11.9652 9.65479 12.1939 9.42611 12.476 9.42611C12.758 9.42611 12.9867 9.65479 12.9867 9.93688V12.1076C12.9867 12.1781 13.0439 12.2353 13.1144 12.2353H15.0298C15.3119 12.2353 15.5405 12.464 15.5405 12.7461C15.5405 13.0282 15.3119 13.2568 15.0298 13.2568H12.476C12.1939 13.2568 11.9652 13.0282 11.9652 12.7461V9.93688Z" fill="#161616"/>
</svg>
