<svg width="24" height="24" viewBox="0 0 24 24" fill="none" xmlns="http://www.w3.org/2000/svg">
<path fill-rule="evenodd" clip-rule="evenodd" d="M11.7941 4.06609C11.9033 4.02093 12.0203 3.99848 12.1382 4.00007C13.6931 4.00007 15.2131 4.46926 16.506 5.3483C17.7988 6.22735 18.8065 7.47677 19.4015 8.93858C19.9966 10.4004 20.1523 12.0089 19.8489 13.5607C19.5456 15.1126 18.7968 16.538 17.6973 17.6569C16.5978 18.7757 15.197 19.5376 13.6719 19.8463C12.1469 20.155 10.5661 19.9965 9.12958 19.391C7.69302 18.7855 6.46517 17.7602 5.6013 16.4446C4.73743 15.129 4.27635 13.5823 4.27635 12C4.2919 10.7788 4.5486 9.57325 5.03117 8.45499C5.06381 8.38584 5.06872 8.30648 5.04488 8.2337C5.02104 8.16093 4.97032 8.10044 4.90343 8.06504L4.38086 7.69872C4.23697 7.59905 4.12573 7.4578 4.06149 7.29318C3.99724 7.12857 3.98295 6.94814 4.02044 6.77518C4.05794 6.60221 4.1455 6.44465 4.27184 6.32281C4.39818 6.20098 4.5575 6.12046 4.72924 6.09164L7.1563 5.67805C7.3809 5.63632 7.61262 5.686 7.80158 5.8164C7.99053 5.94679 8.12162 6.14747 8.16661 6.37524L8.61951 8.8095C8.65301 8.98156 8.63558 9.15986 8.56943 9.32184C8.50327 9.48381 8.39138 9.62217 8.2479 9.71939C8.10526 9.81082 7.94036 9.85993 7.77178 9.86119C7.59382 9.8631 7.41955 9.80949 7.27243 9.70757L6.91244 9.4476C6.83058 9.41346 6.73881 9.41346 6.65696 9.4476C6.61356 9.46203 6.57411 9.48667 6.54183 9.51952C6.50955 9.55237 6.48533 9.59251 6.47115 9.63667C6.20645 10.3957 6.06905 11.1946 6.06471 12C6.06471 13.2224 6.42091 14.4172 7.08827 15.4336C7.75563 16.4499 8.70418 17.242 9.81396 17.7098C10.9237 18.1775 12.1449 18.2999 13.323 18.0615C14.5012 17.823 15.5834 17.2344 16.4328 16.3701C17.2821 15.5058 17.8606 14.4046 18.0949 13.2057C18.3293 12.0069 18.209 10.7643 17.7493 9.63498C17.2896 8.5057 16.5112 7.54049 15.5124 6.8614C14.5136 6.18231 13.3394 5.81985 12.1382 5.81985C12.0203 5.82144 11.9033 5.79899 11.7941 5.75383C11.6849 5.70866 11.5858 5.6417 11.5024 5.55689C11.4191 5.47208 11.3533 5.37114 11.3089 5.26003C11.2645 5.14892 11.2424 5.02989 11.244 4.90996C11.2424 4.79003 11.2645 4.671 11.3089 4.55989C11.3533 4.44878 11.4191 4.34784 11.5024 4.26303C11.5858 4.17822 11.6849 4.11126 11.7941 4.06609ZM14.0659 14.5643C14.1855 14.6234 14.3162 14.6556 14.4491 14.6589C14.6128 14.6576 14.7729 14.6106 14.9122 14.5231C15.0514 14.4356 15.1644 14.3109 15.2388 14.1626C15.3363 13.9519 15.3497 13.711 15.276 13.4905C15.2024 13.2701 15.0475 13.0873 14.8439 12.9809L13.1601 12.1301C13.1134 12.1026 13.0747 12.0629 13.0482 12.0151C13.0216 11.9673 13.0081 11.9132 13.0091 11.8583V8.75047C13.0091 8.51542 12.9174 8.28999 12.754 8.12379C12.5907 7.95758 12.3692 7.86421 12.1382 7.86421C11.9072 7.86421 11.6856 7.95758 11.5223 8.12379C11.359 8.28999 11.2672 8.51542 11.2672 8.75047V12.5909C11.2682 12.7545 11.3131 12.9147 11.397 13.0542C11.4809 13.1938 11.6006 13.3073 11.7433 13.3826L14.0659 14.5643Z" fill="#161616"/>
</svg>
