<svg width="24" height="24" viewBox="0 0 24 24" fill="none" xmlns="http://www.w3.org/2000/svg">
<path fill-rule="evenodd" clip-rule="evenodd" d="M4.15539 9.08659C5.42714 5.56025 8.70879 3.15615 12.4545 3.00679V3.00849C15.7346 2.86734 18.839 4.49399 20.5899 7.27129C22.3408 10.0486 22.4699 13.551 20.9282 16.4497C19.3865 19.3483 16.4103 21.1991 13.1287 21.2998H13.0887C12.7085 21.3067 12.3536 21.1102 12.1576 20.7844C11.9615 20.4585 11.9542 20.0529 12.1384 19.7203C12.3226 19.3876 12.6702 19.1785 13.0504 19.1716C16.5219 19.0408 19.3774 16.394 19.7709 12.9424C20.1645 9.49071 17.978 6.26911 14.625 5.36018C11.272 4.45125 7.75783 6.12753 6.35423 9.30536C6.32682 9.36627 6.32959 9.43651 6.36172 9.49506C6.39384 9.55362 6.45159 9.5937 6.51768 9.60331L7.97761 9.82124C8.13718 9.84471 8.26977 9.95636 8.32007 10.1096C8.37037 10.2628 8.32974 10.4313 8.21512 10.5448L5.00582 13.7337C4.91184 13.8268 4.7799 13.8709 4.64881 13.8531C4.51772 13.8352 4.40238 13.7575 4.33672 13.6426L2.05615 9.64162C1.97528 9.5002 1.98222 9.32502 2.07403 9.19044C2.16751 9.05828 2.32633 8.98853 2.4869 9.00912L3.9247 9.22535C4.0248 9.23978 4.12124 9.18178 4.15539 9.08659ZM11.942 7.8948C11.942 7.42466 12.3231 7.04353 12.7933 7.04353C13.2634 7.04353 13.6445 7.42466 13.6445 7.8948V11.5127C13.6445 11.6303 13.7398 11.7255 13.8574 11.7255H17.0496C17.5198 11.7255 17.9009 12.1067 17.9009 12.5768C17.9009 13.047 17.5198 13.4281 17.0496 13.4281H12.7933C12.3231 13.4281 11.942 13.047 11.942 12.5768V7.8948Z" fill="#161616"/>
</svg>
