<svg width="24" height="24" viewBox="0 0 24 24" fill="none" xmlns="http://www.w3.org/2000/svg">
<path fill-rule="evenodd" clip-rule="evenodd" d="M12.451 3.00849C8.70776 3.15712 5.42757 5.55847 4.1549 9.08188C4.12098 9.17715 4.02426 9.23497 3.92428 9.21974L2.48699 9.00785C2.32654 8.98765 2.16797 9.05729 2.07427 9.1891C1.98214 9.32383 1.97519 9.49939 2.0564 9.64097L4.33615 13.6405C4.40191 13.7554 4.51734 13.833 4.64846 13.8507C4.66744 13.852 4.68649 13.852 4.70548 13.8507C4.81781 13.8505 4.92549 13.8058 5.00502 13.7265L8.21319 10.5387C8.32725 10.4253 8.36754 10.2571 8.31731 10.1043C8.26708 9.95142 8.13491 9.83997 7.97576 9.81627L6.51635 9.59927C6.45046 9.58934 6.39298 9.54922 6.36093 9.4908C6.32888 9.43237 6.32593 9.36234 6.35296 9.30143C7.75606 6.12472 11.269 4.44904 14.6208 5.35764C17.9726 6.26625 20.1583 9.48672 19.7649 12.9371C19.3715 16.3876 16.517 19.0334 13.0467 19.1642C10.7203 19.2556 8.50085 18.1834 7.12649 16.3041C6.76699 15.869 6.13027 15.7904 5.67579 16.1251C5.22131 16.4597 5.10731 17.0911 5.41604 17.5635C7.13947 19.9122 9.8783 21.2997 12.7914 21.3001C12.9037 21.3001 13.0169 21.3001 13.1318 21.2933C16.4123 21.1927 19.3874 19.3425 20.9286 16.4449C22.4697 13.5473 22.3407 10.0461 20.5904 7.26978C18.8401 4.49346 15.7368 2.86738 12.4578 3.00849H12.451Z" fill="#161616"/>
</svg>
