<svg width="24" height="24" viewBox="0 0 24 24" fill="none" xmlns="http://www.w3.org/2000/svg">
<path fill-rule="evenodd" clip-rule="evenodd" d="M12.2706 7.00509C10.0247 7.09427 8.05654 8.53508 7.29294 10.6491C7.27259 10.7063 7.21455 10.741 7.15457 10.7318L6.29219 10.6047C6.19592 10.5926 6.10078 10.6344 6.04456 10.7135C5.98928 10.7943 5.98512 10.8996 6.03384 10.9846L7.40169 13.3843C7.44115 13.4532 7.5104 13.4998 7.58908 13.5104C7.60047 13.5112 7.6119 13.5112 7.62329 13.5104C7.69069 13.5103 7.75529 13.4835 7.80301 13.4359L9.72791 11.5232C9.79635 11.4552 9.82053 11.3543 9.79039 11.2626C9.76025 11.1709 9.68095 11.104 9.58546 11.0898L8.70981 10.9596C8.67027 10.9536 8.63579 10.9295 8.61656 10.8945C8.59733 10.8594 8.59556 10.8174 8.61178 10.7809C9.45363 8.87483 11.5614 7.86942 13.5725 8.41459C15.5836 8.95975 16.895 10.892 16.6589 12.9623C16.4229 15.0325 14.7102 16.62 12.628 16.6985C11.2322 16.7534 9.90051 16.11 9.0759 14.9825C8.86019 14.7214 8.47816 14.6743 8.20547 14.8751C7.93279 15.0758 7.86438 15.4546 8.04962 15.7381C9.08368 17.1473 10.727 17.9798 12.4749 17.9801C12.5422 17.9801 12.6102 17.9801 12.6791 17.976C14.6474 17.9156 16.4325 16.8055 17.3572 15.0669C18.2818 13.3284 18.2044 11.2277 17.1542 9.56187C16.1041 7.89608 14.2421 6.92043 12.2747 7.00509H12.2706Z" fill="#161616"/>
</svg>
