<svg width="24" height="24" viewBox="0 0 24 24" fill="none" xmlns="http://www.w3.org/2000/svg">
<path fill-rule="evenodd" clip-rule="evenodd" d="M14.8296 9.58627C13.9054 8.53944 12.4795 8.08717 11.1209 8.40994C9.81652 8.74072 8.76396 9.70192 8.31643 10.971C8.30297 11.008 8.30693 11.0491 8.32721 11.0829C8.34748 11.1167 8.38191 11.1395 8.4209 11.145L9.40187 11.2661C9.50037 11.2779 9.58368 11.3445 9.61691 11.438C9.65013 11.5315 9.62753 11.6357 9.55858 11.707L7.74237 13.5838C7.69318 13.6346 7.62552 13.6632 7.55485 13.6632C7.54407 13.664 7.53324 13.664 7.52246 13.6632C7.44072 13.6532 7.36851 13.6051 7.32762 13.5337L6.03429 11.2656C5.98522 11.1796 5.98907 11.0732 6.04421 10.9909C6.09795 10.9084 6.19416 10.8639 6.29181 10.8765L6.83139 10.9444C6.89506 10.9526 6.95517 10.9131 6.97295 10.8514C7.50287 9.01693 8.96806 7.60248 10.8201 7.1375C12.6473 6.70401 14.5648 7.3127 15.8074 8.72074C16.0465 8.99076 16.0213 9.40341 15.7513 9.64242C15.4813 9.88143 15.0686 9.85629 14.8296 9.58627ZM17.9647 12.922C18.0144 13.0077 18.0114 13.1141 17.9569 13.1968C17.9082 13.2696 17.8262 13.3131 17.7386 13.3127C17.7281 13.3135 17.7176 13.3135 17.7072 13.3127L17.1546 13.2464C17.091 13.239 17.0314 13.2785 17.0135 13.3399C16.4856 15.1774 15.0189 16.5945 13.1643 17.059C11.337 17.4925 9.41952 16.884 8.17643 15.4763C8.01548 15.3025 7.96124 15.0553 8.03469 14.8301C8.10814 14.6049 8.29775 14.4372 8.53019 14.3918C8.76263 14.3463 9.00145 14.4303 9.15427 14.6113C10.0786 15.6579 11.5043 16.1103 12.8629 15.7881C14.1675 15.4587 15.2204 14.4977 15.6674 13.2286C15.6806 13.1911 15.6762 13.1497 15.6554 13.1158C15.6346 13.0819 15.5994 13.0593 15.5598 13.0547L14.5945 12.9392C14.4965 12.9271 14.4136 12.8608 14.3805 12.7677C14.3473 12.6746 14.3695 12.5708 14.4378 12.4994L16.2431 10.6116C16.2993 10.5514 16.3812 10.522 16.463 10.5328C16.5448 10.5422 16.6174 10.5896 16.6589 10.6607L17.9647 12.922Z" fill="#161616"/>
</svg>
