<svg width="24" height="24" viewBox="0 0 24 24" fill="none" xmlns="http://www.w3.org/2000/svg">
<path fill-rule="evenodd" clip-rule="evenodd" d="M15.7728 8.44836C14.5406 7.05259 12.6394 6.44956 10.8279 6.87992C9.08869 7.32096 7.68528 8.60257 7.08858 10.2947C7.07063 10.344 7.07591 10.3988 7.10294 10.4439C7.12997 10.4889 7.17588 10.5193 7.22787 10.5266L8.53583 10.6882C8.66716 10.7039 8.77824 10.7927 8.82254 10.9173C8.86684 11.042 8.83671 11.1809 8.74477 11.276L6.32316 13.7784C6.25757 13.8461 6.16736 13.8843 6.07313 13.8843C6.05875 13.8853 6.04432 13.8853 6.02995 13.8843C5.92097 13.8709 5.82469 13.8069 5.77017 13.7116L4.04572 10.6875C3.9803 10.5728 3.98542 10.4309 4.05895 10.3212C4.1306 10.2112 4.25888 10.1519 4.38907 10.1686L5.10852 10.2592C5.19341 10.2701 5.27356 10.2174 5.29727 10.1352C6.00383 7.68924 7.95741 5.8033 10.4267 5.18333C12.8631 4.60534 15.4197 5.41693 17.0766 7.29432C17.3953 7.65435 17.3617 8.20455 17.0017 8.52323C16.6417 8.84191 16.0915 8.80839 15.7728 8.44836ZM19.953 12.896C20.0192 13.0102 20.0152 13.1521 19.9425 13.2623C19.8776 13.3595 19.7682 13.4175 19.6514 13.417C19.6375 13.418 19.6235 13.418 19.6096 13.417L18.8728 13.3285C18.7881 13.3186 18.7086 13.3713 18.6847 13.4532C17.9808 15.9032 16.0252 17.7927 13.5525 18.412C11.116 18.99 8.55937 18.1787 6.90192 16.3017C6.68732 16.0701 6.615 15.7404 6.71293 15.4401C6.81086 15.1399 7.06368 14.9163 7.3736 14.8557C7.68352 14.7951 8.00194 14.9071 8.2057 15.1484C9.43814 16.5439 11.339 17.1471 13.1506 16.7175C14.8901 16.2782 16.2939 14.997 16.8899 13.3048C16.9075 13.2548 16.9016 13.1996 16.8739 13.1544C16.8461 13.1092 16.7992 13.0791 16.7465 13.0729L15.4594 12.919C15.3286 12.9029 15.2182 12.8143 15.174 12.6903C15.1298 12.5662 15.1594 12.4277 15.2504 12.3326L17.6574 9.81554C17.7325 9.73522 17.8417 9.69606 17.9506 9.71037C18.0597 9.72289 18.1565 9.78613 18.2118 9.88101L19.953 12.896Z" fill="#161616"/>
</svg>
