<svg width="24" height="24" viewBox="0 0 24 24" fill="none" xmlns="http://www.w3.org/2000/svg">
<path fill-rule="evenodd" clip-rule="evenodd" d="M11.7427 2.25625C11.8792 2.20077 12.0254 2.17319 12.1727 2.17515C14.1164 2.17515 16.0164 2.75151 17.6325 3.83134C19.2485 4.91118 20.5081 6.44599 21.2519 8.24169C21.9957 10.0374 22.1904 12.0133 21.8112 13.9196C21.432 15.8259 20.496 17.577 19.1217 18.9514C17.7473 20.3257 15.9962 21.2617 14.0899 21.6409C12.1836 22.0201 10.2077 21.8254 8.41198 21.0816C6.61628 20.3378 5.08147 19.0783 4.00163 17.4622C2.9218 15.8461 2.34544 13.9461 2.34544 12.0024C2.36489 10.5023 2.68576 9.02133 3.28897 7.64765C3.32976 7.5627 3.33591 7.46521 3.30611 7.37581C3.27631 7.28641 3.2129 7.21211 3.1293 7.16862L2.47608 6.71863C2.29622 6.5962 2.15717 6.42268 2.07686 6.22046C1.99656 6.01825 1.97869 5.79661 2.02556 5.58414C2.07243 5.37167 2.18188 5.17811 2.33981 5.02845C2.49773 4.87878 2.69688 4.77986 2.91156 4.74446L5.94539 4.23641C6.22613 4.18515 6.51578 4.24618 6.75198 4.40636C6.98817 4.56653 7.15203 4.81305 7.20827 5.09285L7.77439 8.08313C7.81626 8.29449 7.79448 8.51352 7.71179 8.71249C7.6291 8.91146 7.48923 9.08142 7.30988 9.20085C7.13157 9.31317 6.92546 9.3735 6.71473 9.37504C6.49228 9.37739 6.27444 9.31153 6.09055 9.18634L5.64055 8.86699C5.53823 8.82504 5.42352 8.82504 5.3212 8.86699C5.26695 8.88471 5.21765 8.91498 5.17729 8.95533C5.13694 8.99569 5.10667 9.04499 5.08895 9.09924C4.75807 10.0317 4.58632 11.0131 4.58089 12.0024C4.58089 13.5039 5.02614 14.9717 5.86034 16.2202C6.69454 17.4687 7.88023 18.4417 9.26745 19.0164C10.6547 19.591 12.1811 19.7413 13.6538 19.4484C15.1265 19.1554 16.4792 18.4324 17.5409 17.3707C18.6027 16.3089 19.3257 14.9562 19.6187 13.4835C19.9116 12.0108 19.7613 10.4844 19.1866 9.09716C18.612 7.70993 17.639 6.52425 16.3905 5.69005C15.142 4.85585 13.6742 4.4106 12.1727 4.4106C12.0254 4.41255 11.8792 4.38497 11.7427 4.32949C11.6062 4.27401 11.4822 4.19175 11.378 4.08757C11.2738 3.98339 11.1916 3.85939 11.1361 3.7229C11.0806 3.58641 11.053 3.44019 11.055 3.29287C11.053 3.14555 11.0806 2.99933 11.1361 2.86284C11.1916 2.72635 11.2738 2.60235 11.378 2.49817C11.4822 2.39399 11.6062 2.31173 11.7427 2.25625ZM14.5824 15.1524C14.7319 15.2249 14.8952 15.2645 15.0614 15.2685C15.266 15.267 15.4662 15.2093 15.6402 15.1018C15.8143 14.9943 15.9555 14.8411 16.0485 14.6589C16.1704 14.4001 16.1872 14.1041 16.0951 13.8333C16.003 13.5625 15.8093 13.338 15.5549 13.2073L13.4501 12.1621C13.3917 12.1284 13.3434 12.0797 13.3102 12.0209C13.277 11.9622 13.2602 11.8957 13.2614 11.8282V8.01056C13.2614 7.72182 13.1467 7.44491 12.9425 7.24074C12.7384 7.03657 12.4615 6.92187 12.1727 6.92187C11.884 6.92187 11.6071 7.03657 11.4029 7.24074C11.1987 7.44491 11.084 7.72182 11.084 8.01056V12.7282C11.0852 12.9292 11.1413 13.126 11.2462 13.2974C11.3511 13.4688 11.5008 13.6083 11.6792 13.7008L14.5824 15.1524Z" fill="#161616"/>
</svg>
