<?xml version="1.0" encoding="UTF-8"?>
<svg width="24px" height="24px" viewBox="0 0 24 24" version="1.1" xmlns="http://www.w3.org/2000/svg" xmlns:xlink="http://www.w3.org/1999/xlink">
    <title>Bold / Large / Map  / Map</title>
    <g id="Bold-/-Large-/-Map--/-Map" stroke="none" stroke-width="1" fill="none" fill-rule="evenodd">
        <path d="M22,8.22197176 C22.0002676,7.80799443 21.7955607,7.42073639 21.4533322,7.18780518 L15.6199993,3.22030553 C15.1993621,2.93220872 14.6455271,2.92989695 14.2224995,3.21447219 L14.2066661,3.22530552 L9.34666654,6.80030521 C9.19989294,6.90811745 9.00010685,6.90811745 8.85333325,6.80030521 L3.98916701,3.24197219 C3.60914582,2.96331166 3.10470529,2.92205359 2.68445441,3.13526005 C2.26420353,3.3484665 1.99957338,3.77989826 2,4.25113877 L2,16.5303044 C1.99973171,16.9442817 2.20443862,17.3315397 2.54666714,17.5644709 L8.37999996,21.5319706 C8.8009496,21.8180829 9.35334164,21.82039 9.77666651,21.5378039 L9.79249984,21.5261373 L14.6524994,17.9519709 C14.799273,17.8441587 14.9990591,17.8441587 15.1458327,17.9519709 L20.0099989,21.5103039 C20.3900283,21.7894544 20.894806,21.8309932 21.3153572,21.6177237 C21.7359085,21.4044542 22.0006571,20.972674 22,20.5011374 L22,8.22197176 Z M9.91666649,8.65113839 C9.91666649,8.51998952 9.97841405,8.3964944 10.0833331,8.31780508 L13.7499995,5.57530532 C13.8131282,5.52795882 13.897589,5.52034299 13.968169,5.55563299 C14.038749,5.59092299 14.0833328,5.66306113 14.0833328,5.74197197 L14.0833328,16.1011377 C14.0833328,16.2322866 14.0215852,16.3557817 13.9166665,16.434471 L10.2499998,19.1778041 C10.1868711,19.2251506 10.1024103,19.2327665 10.0318303,19.1974765 C9.96125032,19.1621865 9.91666649,19.0900483 9.91666649,19.0111375 L9.91666649,8.65113839 Z M3.66666704,5.48197199 C3.66666704,5.40306116 3.71125086,5.33092301 3.78183086,5.29563301 C3.85241086,5.26034301 3.93687167,5.26795884 4.00000034,5.31530534 L8.08333332,8.29863842 C8.18982438,8.37644988 8.25318757,8.50008536 8.25416739,8.63197172 L8.25416739,19.0336375 C8.25437452,19.1108687 8.2116723,19.1818251 8.14333331,19.2178041 C8.0749739,19.2537469 7.99240204,19.2492663 7.92833333,19.2061375 L3.85333369,16.4336377 C3.73772917,16.3571144 3.66775736,16.2281038 3.66666704,16.0894711 L3.66666704,5.48197199 Z M20.3333324,19.2694708 C20.3333324,19.3483816 20.2887484,19.4205198 20.2181684,19.4558098 C20.1475884,19.4910998 20.0631276,19.4834839 19.9999989,19.4361374 L15.916666,16.4511377 C15.8117469,16.3724484 15.7499986,16.2489533 15.7499986,16.1178044 L15.7499986,5.71863864 C15.7497914,5.64140738 15.7924937,5.57045106 15.8608326,5.53447199 C15.9291921,5.4985292 16.0117639,5.50300985 16.0758326,5.54613866 L20.1508323,8.31780508 C20.2650954,8.3954413 20.3334514,8.52466227 20.3333324,8.66280505 L20.3333324,19.2694708 Z" id="Shape" fill="#050505"></path>
    </g>
</svg>