<svg width="24" height="24" viewBox="0 0 24 24" fill="none" xmlns="http://www.w3.org/2000/svg">
<path fill-rule="evenodd" clip-rule="evenodd" d="M10.7845 14.25H7.25C7.11193 14.25 7 14.1381 7 14V9.75C7 9.61193 7.11193 9.5 7.25 9.5H14C14.1381 9.5 14.25 9.61193 14.25 9.75V10.785C14.5817 10.7389 14.9183 10.7389 15.25 10.785V7.5C15.25 7.22386 15.0261 7 14.75 7H13.5C13.431 7 13.375 6.94403 13.375 6.875V6.375C13.375 6.16789 13.2071 6 13 6C12.7929 6 12.625 6.16789 12.625 6.375V8.25C12.625 8.4571 12.4571 8.625 12.25 8.625C12.0429 8.625 11.875 8.4571 11.875 8.25V7.25C11.875 7.11193 11.7631 7 11.625 7H9.5C9.43096 7 9.375 6.94403 9.375 6.875V6.375C9.375 6.16789 9.2071 6 9 6C8.79289 6 8.625 6.16789 8.625 6.375V8.25C8.625 8.4571 8.4571 8.625 8.25 8.625C8.04289 8.625 7.875 8.4571 7.875 8.25V7.25C7.875 7.11193 7.76307 7 7.625 7H6.5C6.22386 7 6 7.22386 6 7.5V14.25C6 14.8023 6.44771 15.25 7 15.25H10.7845C10.7385 14.9182 10.7385 14.5817 10.7845 14.25ZM14.7501 11.5C12.9552 11.5 11.5001 12.9551 11.5001 14.75C11.5001 16.545 12.9552 18 14.7501 18C16.545 18 18.0001 16.545 18.0001 14.75C17.9979 12.956 16.5441 11.5022 14.7501 11.5ZM14.7501 17C14.3273 16.9988 13.9136 16.8774 13.5571 16.65L16.6501 13.5575C16.8775 13.9138 16.9989 14.3273 17.0001 14.75C16.9987 15.9921 15.9922 16.9986 14.7501 17ZM15.9429 12.85C15.5865 12.6225 15.1727 12.5011 14.7499 12.5C13.5072 12.5 12.4999 13.5073 12.4999 14.75C12.501 15.1729 12.6224 15.5869 12.8499 15.9435L15.9429 12.85Z" fill="#161616"/>
</svg>
