<svg width="24" height="24" viewBox="0 0 24 24" fill="none" xmlns="http://www.w3.org/2000/svg">
<path fill-rule="evenodd" clip-rule="evenodd" d="M18.6087 6H16.6957C16.5996 6 16.5217 5.92538 16.5217 5.83333V4.66667C16.5217 4.29848 16.2103 4 15.8261 4C15.4419 4 15.1304 4.29848 15.1304 4.66667V7.83333C15.1304 8.10948 14.8968 8.33333 14.6087 8.33333C14.3205 8.33333 14.087 8.10948 14.087 7.83333V6.33333C14.087 6.14924 13.9312 6 13.7391 6H9.3913C9.29553 6 9.21777 5.92579 9.21739 5.834V4.66667C9.21739 4.29848 8.90594 4 8.52174 4C8.13754 4 7.82609 4.29848 7.82609 4.66667V7.83333C7.82609 8.10948 7.5925 8.33333 7.30435 8.33333C7.0162 8.33333 6.78261 8.10948 6.78261 7.83333V6.33333C6.78261 6.14924 6.62688 6 6.43478 6H5.3913C4.62291 6 4 6.59695 4 7.33333V18.6667C4 19.403 4.62291 20 5.3913 20H18.6087C19.3771 20 20 19.403 20 18.6667V7.33333C20 6.59695 19.3771 6 18.6087 6ZM18.2609 18.6667H5.73917C5.54707 18.6667 5.39135 18.5174 5.39135 18.3333V10.3333C5.39135 10.1492 5.54707 10 5.73917 10H18.2609C18.453 10 18.6087 10.1492 18.6087 10.3333V18.3333C18.6087 18.5174 18.453 18.6667 18.2609 18.6667Z" fill="#161616"/>
</svg>
