<svg width="24" height="24" viewBox="0 0 24 24" fill="none" xmlns="http://www.w3.org/2000/svg">
<path fill-rule="evenodd" clip-rule="evenodd" d="M10.3793 15H5.66667C5.48257 15 5.33333 14.8508 5.33333 14.6667V9C5.33333 8.81591 5.48257 8.66667 5.66667 8.66667H14.6667C14.8508 8.66667 15 8.81591 15 9V10.38C15.4423 10.3185 15.891 10.3185 16.3333 10.38V6C16.3333 5.63181 16.0349 5.33333 15.6667 5.33333H14C13.908 5.33333 13.8333 5.25871 13.8333 5.16667V4.5C13.8333 4.22386 13.6095 4 13.3333 4C13.0572 4 12.8333 4.22386 12.8333 4.5V7C12.8333 7.27614 12.6095 7.5 12.3333 7.5C12.0572 7.5 11.8333 7.27614 11.8333 7V5.66667C11.8333 5.48257 11.6841 5.33333 11.5 5.33333H8.66667C8.57462 5.33333 8.5 5.25871 8.5 5.16667V4.5C8.5 4.22386 8.27614 4 8 4C7.72386 4 7.5 4.22386 7.5 4.5V7C7.5 7.27614 7.27614 7.5 7 7.5C6.72386 7.5 6.5 7.27614 6.5 7V5.66667C6.5 5.48257 6.35076 5.33333 6.16667 5.33333H4.66667C4.29848 5.33333 4 5.63181 4 6V15C4 15.7364 4.59695 16.3333 5.33333 16.3333H10.3793C10.318 15.891 10.318 15.4423 10.3793 15ZM15.6667 11.3333C13.2735 11.3333 11.3334 13.2734 11.3334 15.6667C11.3334 18.0599 13.2735 20 15.6667 20C18.0599 20 20 18.0599 20 15.6667C19.9971 13.2747 18.0587 11.3363 15.6667 11.3333ZM15.6666 18.6667C15.1029 18.6651 14.5512 18.5032 14.076 18.2L18.2 14.0767C18.5031 14.5517 18.665 15.1031 18.6666 15.6667C18.6648 17.3228 17.3227 18.6648 15.6666 18.6667ZM17.2573 13.1333C16.7821 12.83 16.2304 12.6682 15.6667 12.6667C14.0098 12.6667 12.6667 14.0098 12.6667 15.6667C12.6681 16.2306 12.83 16.7826 13.1333 17.258L17.2573 13.1333Z" fill="#161616"/>
</svg>
