<svg width="24" height="24" viewBox="0 0 24 24" fill="none" xmlns="http://www.w3.org/2000/svg">
<path fill-rule="evenodd" clip-rule="evenodd" d="M18.6087 6H16.6957C16.6495 6 16.6053 5.98244 16.5727 5.95118C16.5401 5.91993 16.5217 5.87754 16.5217 5.83333V4.66667C16.5217 4.48986 16.4484 4.32029 16.318 4.19526C16.1875 4.07024 16.0106 4 15.8261 4C15.6416 4 15.4646 4.07024 15.3342 4.19526C15.2037 4.32029 15.1304 4.48986 15.1304 4.66667V7.83333C15.1304 7.96594 15.0755 8.09312 14.9776 8.18689C14.8798 8.28065 14.7471 8.33333 14.6087 8.33333C14.4703 8.33333 14.3376 8.28065 14.2398 8.18689C14.1419 8.09312 14.087 7.96594 14.087 7.83333V6.33333C14.087 6.24493 14.0503 6.16014 13.9851 6.09763C13.9199 6.03512 13.8314 6 13.7391 6H9.3913C9.34518 6 9.30094 5.98244 9.26833 5.95118C9.23571 5.91993 9.21739 5.87754 9.21739 5.83333V4.66667C9.21739 4.48986 9.1441 4.32029 9.01364 4.19526C8.88318 4.07024 8.70624 4 8.52174 4C8.33724 4 8.1603 4.07024 8.02984 4.19526C7.89938 4.32029 7.82609 4.48986 7.82609 4.66667V7.83333C7.82609 7.96594 7.77112 8.09312 7.67327 8.18689C7.57543 8.28065 7.44272 8.33333 7.30435 8.33333C7.16597 8.33333 7.03327 8.28065 6.93542 8.18689C6.83758 8.09312 6.78261 7.96594 6.78261 7.83333V6.33333C6.78261 6.24493 6.74596 6.16014 6.68073 6.09763C6.6155 6.03512 6.52703 6 6.43478 6H5.3913C5.02231 6 4.66842 6.14048 4.4075 6.39052C4.14658 6.64057 4 6.97971 4 7.33333V18.6667C4 19.0203 4.14658 19.3594 4.4075 19.6095C4.66842 19.8595 5.02231 20 5.3913 20H18.6087C18.9777 20 19.3316 19.8595 19.5925 19.6095C19.8534 19.3594 20 19.0203 20 18.6667V7.33333C20 6.97971 19.8534 6.64057 19.5925 6.39052C19.3316 6.14048 18.9777 6 18.6087 6ZM18.6087 18.3333C18.6087 18.4217 18.5721 18.5065 18.5068 18.569C18.4416 18.6315 18.3531 18.6667 18.2609 18.6667H5.73913C5.64688 18.6667 5.55841 18.6315 5.49318 18.569C5.42795 18.5065 5.3913 18.4217 5.3913 18.3333V10.3333C5.3913 10.2449 5.42795 10.1601 5.49318 10.0976C5.55841 10.0351 5.64688 10 5.73913 10H18.2609C18.3531 10 18.4416 10.0351 18.5068 10.0976C18.5721 10.1601 18.6087 10.2449 18.6087 10.3333V18.3333ZM10.3652 11.4333C10.1876 11.352 9.98974 11.3202 9.79418 11.3414C9.59862 11.3626 9.41321 11.436 9.25909 11.5533L8.09039 12.4533C8.01017 12.5044 7.94189 12.5709 7.88989 12.6487C7.83789 12.7264 7.8033 12.8136 7.78831 12.9048C7.77332 12.996 7.77825 13.0891 7.8028 13.1784C7.82735 13.2677 7.87097 13.3511 7.93091 13.4234C7.99085 13.4956 8.0658 13.5552 8.15101 13.5982C8.23622 13.6413 8.32983 13.6669 8.42592 13.6735C8.522 13.6801 8.61847 13.6675 8.7092 13.6364C8.79993 13.6054 8.88295 13.5567 8.953 13.4933L9.56517 13.0267V16.6667C9.56517 16.8435 9.63846 17.013 9.76893 17.1381C9.89938 17.2631 10.0763 17.3333 10.2608 17.3333C10.4453 17.3333 10.6223 17.2631 10.7527 17.1381C10.8832 17.013 10.9565 16.8435 10.9565 16.6667V12.3333C10.9562 12.1452 10.9006 11.961 10.796 11.8017C10.6914 11.6425 10.5421 11.5149 10.3652 11.4333ZM12.6957 11.3333H14.7827C14.9565 11.3316 15.128 11.3712 15.2819 11.4486C15.4358 11.526 15.5673 11.6389 15.6645 11.7769C15.7617 11.915 15.8216 12.0741 15.8389 12.2398C15.8562 12.4056 15.8303 12.5729 15.7635 12.7267L13.6766 16.9533C13.5981 17.1133 13.4566 17.2369 13.2831 17.2969C13.1096 17.3569 12.9183 17.3484 12.7514 17.2733C12.6681 17.2367 12.5932 17.1847 12.5309 17.1203C12.4687 17.0558 12.4204 16.9803 12.3887 16.8979C12.357 16.8155 12.3426 16.7279 12.3464 16.6402C12.3501 16.5525 12.3719 16.4663 12.4105 16.3867L14.2331 12.6667H12.6957C12.5112 12.6667 12.3343 12.5964 12.2038 12.4714C12.0733 12.3464 12 12.1768 12 12C12 11.8232 12.0733 11.6536 12.2038 11.5286C12.3343 11.4036 12.5112 11.3333 12.6957 11.3333Z" fill="#161616"/>
</svg>
