<svg width="24" height="24" viewBox="0 0 24 24" fill="none" xmlns="http://www.w3.org/2000/svg">
<path fill-rule="evenodd" clip-rule="evenodd" d="M10.7845 14.25H7.25C7.11193 14.25 7 14.1381 7 14V9.75C7 9.61193 7.11193 9.5 7.25 9.5H14C14.1381 9.5 14.25 9.61193 14.25 9.75V10.785C14.5817 10.7389 14.9183 10.7389 15.25 10.785V7.5C15.25 7.22386 15.0261 7 14.75 7H13.5C13.431 7 13.375 6.94404 13.375 6.875V6.375C13.375 6.16789 13.2071 6 13 6C12.7929 6 12.625 6.16789 12.625 6.375V8.25C12.625 8.45711 12.4571 8.625 12.25 8.625C12.0429 8.625 11.875 8.45711 11.875 8.25V7.25C11.875 7.11193 11.7631 7 11.625 7H9.5C9.43096 7 9.375 6.94404 9.375 6.875V6.375C9.375 6.16789 9.20711 6 9 6C8.79289 6 8.625 6.16789 8.625 6.375V8.25C8.625 8.45711 8.45711 8.625 8.25 8.625C8.04289 8.625 7.875 8.45711 7.875 8.25V7.25C7.875 7.11193 7.76307 7 7.625 7H6.5C6.22386 7 6 7.22386 6 7.5V14.25C6 14.8023 6.44772 15.25 7 15.25H10.7845C10.7385 14.9183 10.7385 14.5817 10.7845 14.25ZM11.5 14.75C11.5 12.9551 12.9551 11.5 14.75 11.5C16.544 11.5022 17.9978 12.956 18 14.75C18 16.5449 16.545 18 14.75 18C12.9551 18 11.5 16.5449 11.5 14.75ZM13.4288 13.4293C13.2842 13.574 13.2823 13.8079 13.4245 13.955L14.1315 14.662C14.1799 14.7111 14.1799 14.7899 14.1315 14.839L13.4245 15.546C13.2868 15.6938 13.2909 15.924 13.4337 16.0668C13.5765 16.2096 13.8068 16.2137 13.9545 16.076L14.6615 15.369C14.7106 15.3206 14.7894 15.3206 14.8385 15.369L15.5455 16.076C15.639 16.1763 15.7798 16.2176 15.9127 16.1837C16.0455 16.1498 16.1493 16.046 16.1832 15.9132C16.2171 15.7803 16.1758 15.6395 16.0755 15.546L15.3685 14.839C15.3201 14.7899 15.3201 14.7111 15.3685 14.662L16.0755 13.955C16.173 13.8609 16.2122 13.7215 16.1779 13.5904C16.1437 13.4592 16.0413 13.3568 15.9103 13.3224C15.7792 13.288 15.6397 13.3271 15.5455 13.4245L14.8385 14.132C14.7894 14.1804 14.7106 14.1804 14.6615 14.132L13.9545 13.4245C13.8073 13.2825 13.5734 13.2846 13.4288 13.4293Z" fill="#161616"/>
</svg>
