<svg width="24" height="24" viewBox="0 0 24 24" fill="none" xmlns="http://www.w3.org/2000/svg">
<path fill-rule="evenodd" clip-rule="evenodd" d="M16.9565 7.5H15.5217C15.4497 7.5 15.3913 7.44404 15.3913 7.375V6.5C15.3913 6.22386 15.1577 6 14.8696 6C14.5814 6 14.3478 6.22386 14.3478 6.5V8.875C14.3478 9.08211 14.1726 9.25 13.9565 9.25C13.7404 9.25 13.5652 9.08211 13.5652 8.875V7.75C13.5652 7.61193 13.4484 7.5 13.3043 7.5H10.0435C9.97164 7.5 9.91333 7.44434 9.91304 7.3755V6.5C9.91304 6.22386 9.67945 6 9.3913 6C9.10316 6 8.86957 6.22386 8.86957 6.5V8.875C8.86957 9.08211 8.69437 9.25 8.47826 9.25C8.26215 9.25 8.08696 9.08211 8.08696 8.875V7.75C8.08696 7.61193 7.97016 7.5 7.82609 7.5H7.04348C6.46718 7.5 6 7.94772 6 8.5V17C6 17.5523 6.46718 18 7.04348 18H16.9565C17.5328 18 18 17.5523 18 17V8.5C18 7.94772 17.5328 7.5 16.9565 7.5ZM16.6957 17H7.30439C7.16031 17 7.04352 16.8881 7.04352 16.75V10.75C7.04352 10.6119 7.16031 10.5 7.30439 10.5H16.6957C16.8398 10.5 16.9566 10.6119 16.9566 10.75V16.75C16.9566 16.8881 16.8398 17 16.6957 17Z" fill="#161616"/>
</svg>
