<svg width="24" height="24" viewBox="0 0 24 24" fill="none" xmlns="http://www.w3.org/2000/svg">
<path fill-rule="evenodd" clip-rule="evenodd" d="M10.3366 15.0056H5.66752C5.48333 15.0056 5.33402 14.8563 5.33402 14.6721V9.00256C5.33402 8.81837 5.48333 8.66906 5.66752 8.66906H14.6721C14.8563 8.66906 15.0056 8.81837 15.0056 9.00256V10.3366C15.0123 10.3366 15.9835 10.3366 16.3397 10.3819V6.00102C16.3397 5.63265 16.041 5.33402 15.6726 5.33402H14.0051C13.913 5.33402 13.8384 5.25936 13.8384 5.16726V4.50026C13.8384 4.22397 13.6144 4 13.3381 4C13.0618 4 12.8379 4.22397 12.8379 4.50026V7.00154C12.8379 7.27782 12.6139 7.50179 12.3376 7.50179C12.0613 7.50179 11.8373 7.27782 11.8373 7.00154V5.66752C11.8373 5.48333 11.688 5.33402 11.5038 5.33402H8.66906C8.57696 5.33402 8.50231 5.25936 8.50231 5.16726V4.50026C8.50231 4.22397 8.27833 4 8.00205 4C7.72576 4 7.50179 4.22397 7.50179 4.50026V7.00154C7.50179 7.27782 7.27782 7.50179 7.00154 7.50179C6.72525 7.50179 6.50128 7.27782 6.50128 7.00154V5.66752C6.50128 5.48333 6.35197 5.33402 6.16778 5.33402H4.66701C4.29863 5.33402 4 5.63265 4 6.00102V15.0056C4 15.7424 4.59726 16.3397 5.33402 16.3397H10.3826C10.3366 15.9868 10.3366 15.013 10.3366 15.0056ZM17.383 12.1793C18.8512 13.4027 19.1445 15.5437 18.0592 17.1167L19.8128 18.8703C20.0655 19.132 20.0619 19.548 19.8046 19.8053C19.5473 20.0626 19.1313 20.0662 18.8696 19.8134L17.116 18.0599C15.543 19.1451 13.402 18.8519 12.1787 17.3837C10.9553 15.9155 11.0534 13.7567 12.4047 12.4054C13.756 11.054 15.9148 10.956 17.383 12.1793ZM17.3788 15.0256C17.3788 13.7256 16.3249 12.6718 15.0249 12.6718C13.7249 12.6718 12.6711 13.7256 12.6711 15.0256C12.6725 16.325 13.7255 17.378 15.0249 17.3795C16.3249 17.3795 17.3788 16.3257 17.3788 15.0256Z" fill="#161616"/>
</svg>
