<svg width="24" height="24" viewBox="0 0 24 24" fill="none" xmlns="http://www.w3.org/2000/svg">
<path fill-rule="evenodd" clip-rule="evenodd" d="M9.97417 15.75H4.08333C3.85321 15.75 3.66667 15.5635 3.66667 15.3333V8.25C3.66667 8.01988 3.85321 7.83333 4.08333 7.83333H15.3333C15.5635 7.83333 15.75 8.01988 15.75 8.25V9.975C16.3029 9.89833 16.8638 9.89833 17.4167 9.975V4.5C17.4167 4.03976 17.0436 3.66667 16.5833 3.66667H14.5C14.3849 3.66667 14.2917 3.57339 14.2917 3.45833V2.625C14.2917 2.27982 14.0118 2 13.6667 2C13.3215 2 13.0417 2.27982 13.0417 2.625V5.75C13.0417 6.09518 12.7618 6.375 12.4167 6.375C12.0715 6.375 11.7917 6.09518 11.7917 5.75V4.08333C11.7917 3.85321 11.6051 3.66667 11.375 3.66667H7.83333C7.71827 3.66667 7.625 3.57339 7.625 3.45833V2.625C7.625 2.27982 7.34518 2 7 2C6.65482 2 6.375 2.27982 6.375 2.625V5.75C6.375 6.09518 6.09518 6.375 5.75 6.375C5.40482 6.375 5.125 6.09518 5.125 5.75V4.08333C5.125 3.85321 4.93845 3.66667 4.70833 3.66667H2.83333C2.3731 3.66667 2 4.03976 2 4.5V15.75C2 16.6705 2.74619 17.4167 3.66667 17.4167H9.97417C9.8975 16.8638 9.8975 16.3029 9.97417 15.75ZM11.1667 16.5833C11.1667 13.5918 13.5918 11.1667 16.5833 11.1667C19.5734 11.1703 21.9963 13.5933 22 16.5833C22 19.5749 19.5749 22 16.5833 22C13.5918 22 11.1667 19.5749 11.1667 16.5833ZM14.1971 16.5476C14.0313 16.5476 13.8722 16.6135 13.755 16.7308V16.7317C13.6375 16.8488 13.5715 17.0079 13.5715 17.1737C13.5715 17.3396 13.6375 17.4987 13.755 17.6158L15.005 18.8658C15.2611 19.1226 15.616 19.2555 15.9778 19.2301C16.3395 19.2047 16.6724 19.0234 16.89 18.7333L19.31 15.5025C19.5171 15.2264 19.4611 14.8346 19.185 14.6275C18.9089 14.4204 18.5171 14.4764 18.31 14.7525L15.8892 17.9808L14.6392 16.7308C14.5219 16.6135 14.3629 16.5476 14.1971 16.5476Z" fill="#161616"/>
</svg>
