<svg width="24" height="24" viewBox="0 0 24 24" fill="none" xmlns="http://www.w3.org/2000/svg">
<path fill-rule="evenodd" clip-rule="evenodd" d="M7.25 14.25C7.11193 14.25 7 14.1381 7 14V9.75C7 9.61193 7.11193 9.5 7.25 9.5H14C14.1381 9.5 14.25 9.61193 14.25 9.75V10.785C14.5817 10.739 14.9183 10.739 15.25 10.785V7.5C15.25 7.22386 15.0261 7 14.75 7H13.5C13.431 7 13.375 6.94404 13.375 6.875V6.375C13.375 6.16789 13.2071 6 13 6C12.7929 6 12.625 6.16789 12.625 6.375V8.25C12.625 8.45711 12.4571 8.625 12.25 8.625C12.0429 8.625 11.875 8.45711 11.875 8.25V7.25C11.875 7.11193 11.7631 7 11.625 7H9.5C9.43096 7 9.375 6.94404 9.375 6.875V6.375C9.375 6.16789 9.20711 6 9 6C8.79289 6 8.625 6.16789 8.625 6.375V8.25C8.625 8.45711 8.45711 8.625 8.25 8.625C8.04289 8.625 7.875 8.45711 7.875 8.25V7.25C7.875 7.11193 7.76307 7 7.625 7H6.5C6.22386 7 6 7.22386 6 7.5V14.25C6 14.8023 6.44772 15.25 7 15.25H10.7845C10.7385 14.9183 10.7385 14.5817 10.7845 14.25H7.25ZM11.5 14.75C11.5 12.9551 12.9551 11.5 14.75 11.5C16.544 11.5022 17.9978 12.956 18 14.75C18 16.5449 16.5449 18 14.75 18C12.9551 18 11.5 16.5449 11.5 14.75ZM12.6713 15.611C13.0195 16.4518 13.8399 17 14.75 17C15.9921 16.9986 16.9986 15.9921 17 14.75C17 13.84 16.4518 13.0195 15.611 12.6713C14.7703 12.323 13.8025 12.5155 13.159 13.159C12.5155 13.8025 12.323 14.7703 12.6713 15.611ZM15.75 14.3755H15.125V13.5C15.125 13.2929 14.9571 13.125 14.75 13.125C14.5429 13.125 14.375 13.2929 14.375 13.5V14.75C14.375 14.9571 14.5429 15.125 14.75 15.125H15.75C15.9571 15.125 16.125 14.9571 16.125 14.75C16.125 14.5429 15.9571 14.375 15.75 14.375V14.3755Z" fill="#161616"/>
</svg>
