<svg width="24" height="24" viewBox="0 0 24 24" fill="none" xmlns="http://www.w3.org/2000/svg">
<path fill-rule="evenodd" clip-rule="evenodd" d="M10.3793 15H5.66667C5.48257 15 5.33333 14.8508 5.33333 14.6667V9C5.33333 8.81591 5.48257 8.66667 5.66667 8.66667H14.6667C14.8508 8.66667 15 8.81591 15 9V10.38C15.4423 10.3187 15.891 10.3187 16.3333 10.38V6C16.3333 5.63181 16.0349 5.33333 15.6667 5.33333H14C13.908 5.33333 13.8333 5.25871 13.8333 5.16667V4.5C13.8333 4.22386 13.6095 4 13.3333 4C13.0572 4 12.8333 4.22386 12.8333 4.5V7C12.8333 7.27614 12.6095 7.5 12.3333 7.5C12.0572 7.5 11.8333 7.27614 11.8333 7V5.66667C11.8333 5.48257 11.6841 5.33333 11.5 5.33333H8.66667C8.57462 5.33333 8.5 5.25871 8.5 5.16667V4.5C8.5 4.22386 8.27614 4 8 4C7.72386 4 7.5 4.22386 7.5 4.5V7C7.5 7.27614 7.27614 7.5 7 7.5C6.72386 7.5 6.5 7.27614 6.5 7V5.66667C6.5 5.48257 6.35076 5.33333 6.16667 5.33333H4.66667C4.29848 5.33333 4 5.63181 4 6V15C4 15.7364 4.59695 16.3333 5.33333 16.3333H10.3793C10.318 15.891 10.318 15.4423 10.3793 15ZM11.3333 15.6667C11.3333 13.2734 13.2734 11.3333 15.6667 11.3333C18.0587 11.3363 19.9971 13.2747 20 15.6667C20 18.0599 18.0599 20 15.6667 20C13.2734 20 11.3333 18.0599 11.3333 15.6667ZM13.7577 15.6381C13.625 15.6381 13.4978 15.6908 13.404 15.7847V15.7853C13.31 15.879 13.2572 16.0063 13.2572 16.139C13.2572 16.2717 13.31 16.399 13.404 16.4927L14.404 17.4927C14.6088 17.6981 14.8928 17.8044 15.1822 17.7841C15.4716 17.7637 15.7379 17.6187 15.912 17.3867L17.848 14.802C18.0137 14.5811 17.9689 14.2677 17.748 14.102C17.5271 13.9363 17.2137 13.9811 17.048 14.202L15.1113 16.7847L14.1113 15.7847C14.0175 15.6908 13.8903 15.6381 13.7577 15.6381Z" fill="#161616"/>
</svg>
