<svg width="24" height="24" viewBox="0 0 24 24" fill="none" xmlns="http://www.w3.org/2000/svg">
<path fill-rule="evenodd" clip-rule="evenodd" d="M15.125 7.5H16.5C17.0523 7.5 17.5 7.94772 17.5 8.5V17C17.5 17.5523 17.0523 18 16.5 18H7C6.44772 18 6 17.5523 6 17V8.5C6 7.94772 6.44772 7.5 7 7.5H7.75C7.88807 7.5 8 7.61193 8 7.75V8.875C8 9.08211 8.16789 9.25 8.375 9.25C8.58211 9.25 8.75 9.08211 8.75 8.875V6.5C8.75 6.22386 8.97386 6 9.25 6C9.52614 6 9.75 6.22386 9.75 6.5V7.3755C9.75028 7.44434 9.80616 7.5 9.875 7.5H13C13.1381 7.5 13.25 7.61193 13.25 7.75V8.875C13.25 9.08211 13.4179 9.25 13.625 9.25C13.8321 9.25 14 9.08211 14 8.875V6.5C14 6.22386 14.2239 6 14.5 6C14.7761 6 15 6.22386 15 6.5V7.375C15 7.44404 15.056 7.5 15.125 7.5ZM16.25 17C16.3881 17 16.5 16.8881 16.5 16.75V10.75C16.5 10.6119 16.3881 10.5 16.25 10.5H7.25C7.11193 10.5 7 10.6119 7 10.75V16.75C7 16.8881 7.11193 17 7.25 17H16.25Z" fill="#161616"/>
<path d="M13.8955 11.7635C13.8324 11.737 13.7596 11.7514 13.7115 11.8L13.2395 12.2715C12.5988 11.6252 11.6255 11.4417 10.7936 11.8106C9.96166 12.1795 9.44407 13.0239 9.49293 13.9326C9.54178 14.8414 10.1469 15.6254 11.0136 15.903C11.8803 16.1805 12.8283 15.8938 13.396 15.1825C13.4815 15.078 13.5042 14.9356 13.4555 14.8096C13.4067 14.6837 13.294 14.5937 13.1604 14.574C13.0268 14.5543 12.893 14.608 12.81 14.7145C12.4384 15.1909 11.8104 15.3869 11.2338 15.2065C10.6571 15.0262 10.2528 14.5072 10.2189 13.904C10.1851 13.3007 10.5288 12.7397 11.0816 12.496C11.6344 12.2522 12.2804 12.3767 12.703 12.8085L12.203 13.3085C12.1546 13.3568 12.1402 13.4295 12.1663 13.4927C12.1925 13.5558 12.2541 13.597 12.3225 13.597H13.83C13.9233 13.597 13.999 13.5213 13.999 13.428V11.9195C13.9993 11.8513 13.9584 11.7897 13.8955 11.7635Z" fill="#161616"/>
</svg>
