<svg width="24" height="24" viewBox="0 0 24 24" fill="none" xmlns="http://www.w3.org/2000/svg">
<path fill-rule="evenodd" clip-rule="evenodd" d="M10.7524 14.2542H7.25064C7.1125 14.2542 7.00051 14.1422 7.00051 14.0041V9.75192C7.00051 9.61378 7.1125 9.50179 7.25064 9.50179H14.0041C14.1422 9.50179 14.2542 9.61378 14.2542 9.75192V10.7524C14.2592 10.7524 14.9876 10.7524 15.2547 10.7865V7.50077C15.2547 7.22448 15.0308 7.00051 14.7545 7.00051H13.5038C13.4348 7.00051 13.3788 6.94452 13.3788 6.87545V6.37519C13.3788 6.16798 13.2108 6 13.0036 6C12.7964 6 12.6284 6.16798 12.6284 6.37519V8.25115C12.6284 8.45837 12.4604 8.62634 12.2532 8.62634C12.046 8.62634 11.878 8.45837 11.878 8.25115V7.25064C11.878 7.1125 11.766 7.00051 11.6279 7.00051H9.50179C9.43272 7.00051 9.37673 6.94452 9.37673 6.87545V6.37519C9.37673 6.16798 9.20875 6 9.00154 6C8.79432 6 8.62634 6.16798 8.62634 6.37519V8.25115C8.62634 8.45837 8.45837 8.62634 8.25115 8.62634C8.04394 8.62634 7.87596 8.45837 7.87596 8.25115V7.25064C7.87596 7.1125 7.76397 7.00051 7.62583 7.00051H6.50026C6.22397 7.00051 6 7.22448 6 7.50077V14.2542C6 14.8068 6.44794 15.2547 7.00051 15.2547H10.787C10.7524 14.9901 10.7524 14.2597 10.7524 14.2542ZM16.0373 12.1345C17.1384 13.052 17.3584 14.6578 16.5444 15.8375L17.8596 17.1527C18.0492 17.349 18.0465 17.661 17.8535 17.854C17.6605 18.0469 17.3485 18.0497 17.1522 17.8601L15.8371 16.5449C14.6573 17.3588 13.0515 17.1389 12.134 16.0378C11.2165 14.9366 11.29 13.3175 12.3035 12.304C13.317 11.2905 14.9361 11.217 16.0373 12.1345ZM16.0341 14.2692C16.0341 13.2942 15.2437 12.5038 14.2687 12.5038C13.2937 12.5038 12.5033 13.2942 12.5033 14.2692C12.5044 15.2438 13.2941 16.0335 14.2687 16.0346C15.2437 16.0346 16.0341 15.2442 16.0341 14.2692Z" fill="#161616"/>
</svg>
