<svg width="24" height="24" viewBox="0 0 24 24" fill="none" xmlns="http://www.w3.org/2000/svg">
<path fill-rule="evenodd" clip-rule="evenodd" d="M10.7845 14.25H7.25C7.11193 14.25 7 14.1381 7 14V9.75C7 9.61193 7.11193 9.5 7.25 9.5H14C14.1381 9.5 14.25 9.61193 14.25 9.75V10.785C14.5817 10.739 14.9183 10.739 15.25 10.785V7.5C15.25 7.22386 15.0261 7 14.75 7H13.5C13.431 7 13.375 6.94404 13.375 6.875V6.375C13.375 6.16789 13.2071 6 13 6C12.7929 6 12.625 6.16789 12.625 6.375V8.25C12.625 8.45711 12.4571 8.625 12.25 8.625C12.0429 8.625 11.875 8.45711 11.875 8.25V7.25C11.875 7.11193 11.7631 7 11.625 7H9.5C9.43096 7 9.375 6.94404 9.375 6.875V6.375C9.375 6.16789 9.20711 6 9 6C8.79289 6 8.625 6.16789 8.625 6.375V8.25C8.625 8.45711 8.45711 8.625 8.25 8.625C8.04289 8.625 7.875 8.45711 7.875 8.25V7.25C7.875 7.11193 7.76307 7 7.625 7H6.5C6.22386 7 6 7.22386 6 7.5V14.25C6 14.8023 6.44772 15.25 7 15.25H10.7845C10.7385 14.9183 10.7385 14.5817 10.7845 14.25ZM11.5 14.75C11.5 12.9551 12.9551 11.5 14.75 11.5C16.544 11.5022 17.9978 12.956 18 14.75C18 16.5449 16.545 18 14.75 18C12.9551 18 11.5 16.5449 11.5 14.75ZM13.3183 14.7286C13.2188 14.7286 13.1234 14.7681 13.0531 14.8385V14.839C12.9826 14.9093 12.9429 15.0047 12.9429 15.1043C12.9429 15.2038 12.9826 15.2992 13.0531 15.3695L13.8031 16.1195C13.9567 16.2736 14.1697 16.3533 14.3867 16.3381C14.6038 16.3228 14.8035 16.214 14.9341 16.04L16.3861 14.1015C16.5103 13.9358 16.4767 13.7008 16.3111 13.5765C16.1454 13.4522 15.9103 13.4858 15.7861 13.6515L14.3336 15.5885L13.5836 14.8385C13.5132 14.7681 13.4178 14.7286 13.3183 14.7286Z" fill="#161616"/>
</svg>
