<svg width="24" height="24" viewBox="0 0 24 24" fill="none" xmlns="http://www.w3.org/2000/svg">
<path fill-rule="evenodd" clip-rule="evenodd" d="M5.66666 15C5.48257 15 5.33333 14.8507 5.33333 14.6667V8.99999C5.33333 8.8159 5.48257 8.66666 5.66666 8.66666H14.6667C14.8507 8.66666 15 8.8159 15 8.99999V10.38C15.4423 10.3187 15.891 10.3187 16.3333 10.38V6C16.3333 5.63181 16.0348 5.33333 15.6667 5.33333H14C13.9079 5.33333 13.8333 5.25871 13.8333 5.16667V4.5C13.8333 4.22386 13.6095 4 13.3333 4C13.0572 4 12.8333 4.22386 12.8333 4.5V7C12.8333 7.27614 12.6095 7.5 12.3333 7.5C12.0572 7.5 11.8333 7.27614 11.8333 7V5.66666C11.8333 5.48257 11.6841 5.33333 11.5 5.33333H8.66666C8.57461 5.33333 8.5 5.25871 8.5 5.16667V4.5C8.5 4.22386 8.27614 4 8 4C7.72385 4 7.5 4.22386 7.5 4.5V7C7.5 7.27614 7.27614 7.5 7 7.5C6.72385 7.5 6.5 7.27614 6.5 7V5.66666C6.5 5.48257 6.35076 5.33333 6.16666 5.33333H4.66667C4.29848 5.33333 4 5.63181 4 6V15C4 15.7364 4.59695 16.3333 5.33333 16.3333H10.3793C10.318 15.891 10.318 15.4423 10.3793 15H5.66666ZM11.3333 15.6667C11.3333 13.2734 13.2734 11.3333 15.6667 11.3333C18.0587 11.3363 19.9971 13.2746 20 15.6667C20 18.0599 18.0599 20 15.6667 20C13.2734 20 11.3333 18.0599 11.3333 15.6667ZM12.8951 16.8147C13.3594 17.9357 14.4533 18.6667 15.6667 18.6667C17.3228 18.6648 18.6649 17.3227 18.6667 15.6667C18.6667 14.4533 17.9358 13.3594 16.8148 12.895C15.6937 12.4307 14.4034 12.6873 13.5454 13.5453C12.6874 14.4033 12.4307 15.6937 12.8951 16.8147ZM17 15.1673H16.1667V14C16.1667 13.7238 15.9428 13.5 15.6667 13.5C15.3905 13.5 15.1667 13.7238 15.1667 14V15.6667C15.1667 15.9428 15.3905 16.1667 15.6667 16.1667H17C17.2762 16.1667 17.5 15.9428 17.5 15.6667C17.5 15.3905 17.2762 15.1667 17 15.1667V15.1673Z" fill="#161616"/>
</svg>
