<svg width="24" height="24" viewBox="0 0 24 24" fill="none" xmlns="http://www.w3.org/2000/svg">
<path fill-rule="evenodd" clip-rule="evenodd" d="M20.2609 4.5H17.8696C17.8119 4.5 17.7566 4.47805 17.7158 4.43898C17.6751 4.39991 17.6522 4.34692 17.6522 4.29167V2.83333C17.6522 2.61232 17.5606 2.40036 17.3975 2.24408C17.2344 2.0878 17.0132 2 16.7826 2C16.552 2 16.3308 2.0878 16.1677 2.24408C16.0047 2.40036 15.913 2.61232 15.913 2.83333V6.79167C15.913 6.95743 15.8443 7.1164 15.722 7.23361C15.5997 7.35082 15.4338 7.41667 15.2609 7.41667C15.0879 7.41667 14.922 7.35082 14.7997 7.23361C14.6774 7.1164 14.6087 6.95743 14.6087 6.79167V4.91667C14.6087 4.80616 14.5629 4.70018 14.4814 4.62204C14.3998 4.5439 14.2892 4.5 14.1739 4.5H8.73913C8.68147 4.5 8.62618 4.47805 8.58541 4.43898C8.54464 4.39991 8.52174 4.34692 8.52174 4.29167V2.83333C8.52174 2.61232 8.43012 2.40036 8.26705 2.24408C8.10397 2.0878 7.8828 2 7.65217 2C7.42155 2 7.20037 2.0878 7.0373 2.24408C6.87422 2.40036 6.78261 2.61232 6.78261 2.83333V6.79167C6.78261 6.95743 6.7139 7.1164 6.59159 7.23361C6.46929 7.35082 6.3034 7.41667 6.13043 7.41667C5.95747 7.41667 5.79158 7.35082 5.66928 7.23361C5.54697 7.1164 5.47826 6.95743 5.47826 6.79167V4.91667C5.47826 4.80616 5.43245 4.70018 5.35092 4.62204C5.26938 4.5439 5.15879 4.5 5.04348 4.5H3.73913C3.27788 4.5 2.83553 4.67559 2.50938 4.98816C2.18323 5.30072 2 5.72464 2 6.16667V20.3333C2 20.7754 2.18323 21.1993 2.50938 21.5118C2.83553 21.8244 3.27788 22 3.73913 22H20.2609C20.7221 22 21.1645 21.8244 21.4906 21.5118C21.8168 21.1993 22 20.7754 22 20.3333V6.16667C22 5.72464 21.8168 5.30072 21.4906 4.98816C21.1645 4.67559 20.7221 4.5 20.2609 4.5ZM20.2609 19.9167C20.2609 20.0272 20.2151 20.1332 20.1335 20.2113C20.052 20.2894 19.9414 20.3333 19.8261 20.3333H4.17391C4.0586 20.3333 3.94801 20.2894 3.86648 20.2113C3.78494 20.1332 3.73913 20.0272 3.73913 19.9167V9.91667C3.73913 9.80616 3.78494 9.70018 3.86648 9.62204C3.94801 9.5439 4.0586 9.5 4.17391 9.5H19.8261C19.9414 9.5 20.052 9.5439 20.1335 9.62204C20.2151 9.70018 20.2609 9.80616 20.2609 9.91667V19.9167ZM9.9565 11.2917C9.73452 11.19 9.48721 11.1502 9.24275 11.1767C8.9983 11.2032 8.76654 11.295 8.57389 11.4417L7.11302 12.5667C7.01274 12.6305 6.9274 12.7137 6.8624 12.8108C6.7974 12.908 6.75416 13.017 6.73542 13.131C6.71668 13.245 6.72285 13.3614 6.75353 13.473C6.78421 13.5846 6.83875 13.6889 6.91367 13.7792C6.9886 13.8695 7.08228 13.944 7.18879 13.9978C7.29531 14.0516 7.41232 14.0837 7.53243 14.0919C7.65253 14.1001 7.77311 14.0843 7.88653 14.0456C7.99994 14.0068 8.10371 13.9459 8.19128 13.8667L8.9565 13.2833V17.8333C8.9565 18.0543 9.04811 18.2663 9.21119 18.4226C9.37426 18.5789 9.59544 18.6667 9.82606 18.6667C10.0567 18.6667 10.2779 18.5789 10.4409 18.4226C10.604 18.2663 10.6956 18.0543 10.6956 17.8333V12.4167C10.6953 12.1815 10.6258 11.9512 10.4951 11.7522C10.3643 11.5532 10.1776 11.3936 9.9565 11.2917ZM12.8696 11.1667H15.4783C15.6956 11.1645 15.91 11.214 16.1024 11.3108C16.2948 11.4075 16.4591 11.5486 16.5806 11.7212C16.7021 11.8938 16.777 12.0926 16.7986 12.2998C16.8202 12.507 16.7879 12.7161 16.7044 12.9083L14.0957 18.1917C13.9976 18.3917 13.8207 18.5461 13.6039 18.6212C13.387 18.6962 13.1479 18.6856 12.9392 18.5917C12.8351 18.5459 12.7415 18.4809 12.6637 18.4003C12.5859 18.3198 12.5254 18.2253 12.4858 18.1223C12.4463 18.0194 12.4283 17.9099 12.433 17.8002C12.4376 17.6906 12.4649 17.5829 12.5131 17.4833L14.7913 12.8333H12.8696C12.639 12.8333 12.4178 12.7455 12.2547 12.5893C12.0917 12.433 12 12.221 12 12C12 11.779 12.0917 11.567 12.2547 11.4107C12.4178 11.2545 12.639 11.1667 12.8696 11.1667Z" fill="#161616"/>
</svg>
