<svg width="24" height="24" viewBox="0 0 24 24" fill="none" xmlns="http://www.w3.org/2000/svg">
<path fill-rule="evenodd" clip-rule="evenodd" d="M16.9565 7.5H15.5217C15.4871 7.5 15.454 7.48683 15.4295 7.46339C15.405 7.43995 15.3913 7.40815 15.3913 7.375V6.5C15.3913 6.36739 15.3363 6.24021 15.2385 6.14645C15.1406 6.05268 15.0079 6 14.8696 6C14.7312 6 14.5985 6.05268 14.5006 6.14645C14.4028 6.24021 14.3478 6.36739 14.3478 6.5V8.875C14.3478 8.97446 14.3066 9.06984 14.2332 9.14017C14.1598 9.21049 14.0603 9.25 13.9565 9.25C13.8527 9.25 13.7532 9.21049 13.6798 9.14017C13.6064 9.06984 13.5652 8.97446 13.5652 8.875V7.75C13.5652 7.6837 13.5377 7.62011 13.4888 7.57322C13.4399 7.52634 13.3735 7.5 13.3043 7.5H10.0435C10.0089 7.5 9.97571 7.48683 9.95125 7.46339C9.92679 7.43995 9.91304 7.40815 9.91304 7.375V6.5C9.91304 6.36739 9.85807 6.24021 9.76023 6.14645C9.66238 6.05268 9.52968 6 9.3913 6C9.25293 6 9.12022 6.05268 9.02238 6.14645C8.92453 6.24021 8.86957 6.36739 8.86957 6.5V8.875C8.86957 8.97446 8.82834 9.06984 8.75495 9.14017C8.68157 9.21049 8.58204 9.25 8.47826 9.25C8.37448 9.25 8.27495 9.21049 8.20157 9.14017C8.12818 9.06984 8.08696 8.97446 8.08696 8.875V7.75C8.08696 7.6837 8.05947 7.62011 8.01055 7.57322C7.96163 7.52634 7.89527 7.5 7.82609 7.5H7.04348C6.76673 7.5 6.50132 7.60536 6.30563 7.79289C6.10994 7.98043 6 8.23478 6 8.5V17C6 17.2652 6.10994 17.5196 6.30563 17.7071C6.50132 17.8946 6.76673 18 7.04348 18H16.9565C17.2333 18 17.4987 17.8946 17.6944 17.7071C17.8901 17.5196 18 17.2652 18 17V8.5C18 8.23478 17.8901 7.98043 17.6944 7.79289C17.4987 7.60536 17.2333 7.5 16.9565 7.5ZM16.9565 16.75C16.9565 16.8163 16.929 16.8799 16.8801 16.9268C16.8312 16.9737 16.7648 17 16.6957 17H7.30435C7.23516 17 7.16881 16.9737 7.11989 16.9268C7.07096 16.8799 7.04348 16.8163 7.04348 16.75V10.75C7.04348 10.6837 7.07096 10.6201 7.11989 10.5732C7.16881 10.5263 7.23516 10.5 7.30435 10.5H16.6957C16.7648 10.5 16.8312 10.5263 16.8801 10.5732C16.929 10.6201 16.9565 10.6837 16.9565 10.75V16.75ZM10.7739 11.575C10.6407 11.514 10.4923 11.4901 10.3456 11.506C10.199 11.5219 10.0599 11.577 9.94431 11.665L9.06779 12.34C9.00763 12.3783 8.95642 12.4282 8.91742 12.4865C8.87842 12.5448 8.85248 12.6102 8.84123 12.6786C8.82999 12.747 8.83369 12.8169 8.8521 12.8838C8.87051 12.9508 8.90323 13.0133 8.94819 13.0675C8.99314 13.1217 9.04935 13.1664 9.11326 13.1987C9.17717 13.231 9.24738 13.2502 9.31944 13.2551C9.3915 13.2601 9.46385 13.2506 9.5319 13.2273C9.59995 13.2041 9.66221 13.1675 9.71475 13.12L10.1739 12.77V15.5C10.1739 15.6326 10.2288 15.7598 10.3267 15.8535C10.4245 15.9473 10.5572 16 10.6956 16C10.834 16 10.9667 15.9473 11.0645 15.8535C11.1624 15.7598 11.2174 15.6326 11.2174 15.5V12.25C11.2172 12.1089 11.1755 11.9707 11.097 11.8513C11.0186 11.7319 10.9066 11.6361 10.7739 11.575ZM12.5218 11.5H14.087C14.2174 11.4987 14.346 11.5284 14.4614 11.5865C14.5769 11.6445 14.6755 11.7291 14.7484 11.8327C14.8213 11.9363 14.8662 12.0556 14.8792 12.1799C14.8922 12.3042 14.8727 12.4297 14.8226 12.545L13.2574 15.715C13.1986 15.835 13.0925 15.9277 12.9623 15.9727C12.8322 16.0177 12.6887 16.0113 12.5635 15.955C12.5011 15.9275 12.4449 15.8885 12.3982 15.8402C12.3515 15.7919 12.3153 15.7352 12.2915 15.6734C12.2678 15.6116 12.257 15.5459 12.2598 15.4801C12.2626 15.4143 12.2789 15.3497 12.3079 15.29L13.6748 12.5H12.5218C12.3834 12.5 12.2507 12.4473 12.1529 12.3536C12.055 12.2598 12 12.1326 12 12C12 11.8674 12.055 11.7402 12.1529 11.6464C12.2507 11.5527 12.3834 11.5 12.5218 11.5Z" fill="#161616"/>
</svg>
