<svg width="24" height="24" viewBox="0 0 24 24" fill="none" xmlns="http://www.w3.org/2000/svg">
<path fill-rule="evenodd" clip-rule="evenodd" d="M16.1667 6H18C18.7364 6 19.3333 6.59695 19.3333 7.33333V18.6667C19.3333 19.403 18.7364 20 18 20H5.33333C4.59695 20 4 19.403 4 18.6667V7.33333C4 6.59695 4.59695 6 5.33333 6H6.33333C6.51743 6 6.66667 6.14924 6.66667 6.33333V7.83333C6.66667 8.10948 6.89052 8.33333 7.16667 8.33333C7.44281 8.33333 7.66667 8.10948 7.66667 7.83333V4.66667C7.66667 4.29848 7.96514 4 8.33333 4C8.70152 4 9 4.29848 9 4.66667V5.834C9.00037 5.92579 9.07488 6 9.16667 6H13.3333C13.5174 6 13.6667 6.14924 13.6667 6.33333V7.83333C13.6667 8.10948 13.8905 8.33333 14.1667 8.33333C14.4428 8.33333 14.6667 8.10948 14.6667 7.83333V4.66667C14.6667 4.29848 14.9651 4 15.3333 4C15.7015 4 16 4.29848 16 4.66667V5.83333C16 5.92538 16.0746 6 16.1667 6ZM17.6667 18.6667C17.8508 18.6667 18 18.5174 18 18.3333V10.3333C18 10.1492 17.8508 10 17.6667 10H5.66667C5.48257 10 5.33333 10.1492 5.33333 10.3333V18.3333C5.33333 18.5174 5.48257 18.6667 5.66667 18.6667H17.6667Z" fill="#161616"/>
<path d="M14.5273 11.6847C14.4433 11.6493 14.3461 11.6685 14.282 11.7333L13.6526 12.362C12.7985 11.5002 11.5007 11.2557 10.3915 11.7475C9.28221 12.2393 8.5921 13.3652 8.65724 14.5768C8.72237 15.7885 9.52923 16.8339 10.6848 17.204C11.8404 17.574 13.1044 17.1917 13.8613 16.2433C13.9753 16.104 14.0056 15.9141 13.9406 15.7462C13.8756 15.5783 13.7254 15.4583 13.5473 15.432C13.3691 15.4058 13.1906 15.4773 13.08 15.6193C12.5845 16.2545 11.7471 16.5159 10.9783 16.2754C10.2095 16.0349 9.67041 15.3429 9.62526 14.5386C9.58011 13.7343 10.0384 12.9863 10.7754 12.6613C11.5125 12.3362 12.3739 12.5023 12.9373 13.078L12.2706 13.7447C12.2062 13.8091 12.1869 13.906 12.2218 13.9902C12.2567 14.0744 12.3388 14.1293 12.43 14.1293H14.44C14.5644 14.1293 14.6653 14.0285 14.6653 13.904V11.8927C14.6658 11.8018 14.6112 11.7196 14.5273 11.6847Z" fill="#161616"/>
</svg>
