<svg width="24" height="24" viewBox="0 0 24 24" fill="none" xmlns="http://www.w3.org/2000/svg">
<path fill-rule="evenodd" clip-rule="evenodd" d="M20.2609 4.5H17.8696C17.7495 4.5 17.6522 4.40673 17.6522 4.29167V2.83333C17.6522 2.3731 17.2629 2 16.7826 2C16.3024 2 15.913 2.3731 15.913 2.83333V6.79167C15.913 7.13684 15.6211 7.41667 15.2609 7.41667C14.9007 7.41667 14.6087 7.13684 14.6087 6.79167V4.91667C14.6087 4.68655 14.414 4.5 14.1739 4.5H8.73913C8.61941 4.5 8.52222 4.40723 8.52174 4.2925V2.83333C8.52174 2.3731 8.13242 2 7.65217 2C7.17193 2 6.78261 2.3731 6.78261 2.83333V6.79167C6.78261 7.13684 6.49062 7.41667 6.13043 7.41667C5.77025 7.41667 5.47826 7.13684 5.47826 6.79167V4.91667C5.47826 4.68655 5.2836 4.5 5.04348 4.5H3.73913C2.77864 4.5 2 5.24619 2 6.16667V20.3333C2 21.2538 2.77864 22 3.73913 22H20.2609C21.2214 22 22 21.2538 22 20.3333V6.16667C22 5.24619 21.2214 4.5 20.2609 4.5ZM19.8262 20.3333H4.17398C3.93386 20.3333 3.7392 20.1468 3.7392 19.9167V9.91667C3.7392 9.68655 3.93386 9.5 4.17398 9.5H19.8262C20.0663 9.5 20.2609 9.68655 20.2609 9.91667V19.9167C20.2609 20.1468 20.0663 20.3333 19.8262 20.3333Z" fill="#161616"/>
</svg>
