<svg width="24" height="24" viewBox="0 0 24 24" fill="none" xmlns="http://www.w3.org/2000/svg">
<path fill-rule="evenodd" clip-rule="evenodd" d="M10.3793 15H5.66667C5.48257 15 5.33333 14.8508 5.33333 14.6667V9C5.33333 8.81591 5.48257 8.66667 5.66667 8.66667H14.6667C14.8508 8.66667 15 8.81591 15 9V10.38C15.4423 10.3185 15.891 10.3185 16.3333 10.38V6C16.3333 5.63181 16.0349 5.33333 15.6667 5.33333H14C13.908 5.33333 13.8333 5.25871 13.8333 5.16667V4.5C13.8333 4.22386 13.6095 4 13.3333 4C13.0572 4 12.8333 4.22386 12.8333 4.5V7C12.8333 7.27614 12.6095 7.5 12.3333 7.5C12.0572 7.5 11.8333 7.27614 11.8333 7V5.66667C11.8333 5.48257 11.6841 5.33333 11.5 5.33333H8.66667C8.57462 5.33333 8.5 5.25871 8.5 5.16667V4.5C8.5 4.22386 8.27614 4 8 4C7.72386 4 7.5 4.22386 7.5 4.5V7C7.5 7.27614 7.27614 7.5 7 7.5C6.72386 7.5 6.5 7.27614 6.5 7V5.66667C6.5 5.48257 6.35076 5.33333 6.16667 5.33333H4.66667C4.29848 5.33333 4 5.63181 4 6V15C4 15.7364 4.59695 16.3333 5.33333 16.3333H10.3793C10.318 15.891 10.318 15.4423 10.3793 15ZM11.3333 15.6667C11.3333 13.2734 13.2734 11.3333 15.6667 11.3333C18.0587 11.3363 19.9971 13.2747 20 15.6667C20 18.0599 18.0599 20 15.6667 20C13.2734 20 11.3333 18.0599 11.3333 15.6667ZM13.905 13.9057C13.7123 14.0987 13.7097 14.4106 13.8993 14.6067L14.842 15.5493C14.9065 15.6148 14.9065 15.7199 14.842 15.7853L13.8993 16.728C13.7157 16.925 13.7211 17.232 13.9115 17.4224C14.1019 17.6128 14.4089 17.6182 14.606 17.4347L15.5486 16.492C15.614 16.4274 15.7192 16.4274 15.7846 16.492L16.7273 17.4347C16.8519 17.5684 17.0397 17.6235 17.2168 17.5783C17.394 17.533 17.5323 17.3947 17.5775 17.2175C17.6228 17.0404 17.5677 16.8526 17.434 16.728L16.4913 15.7853C16.4267 15.7199 16.4267 15.6148 16.4913 15.5493L17.434 14.6067C17.564 14.4812 17.6162 14.2953 17.5705 14.1205C17.5249 13.9456 17.3884 13.8091 17.2136 13.7632C17.0388 13.7174 16.8529 13.7694 16.7273 13.8993L15.7846 14.8427C15.7192 14.9072 15.614 14.9072 15.5486 14.8427L14.606 13.8993C14.4097 13.7099 14.0978 13.7128 13.905 13.9057Z" fill="#161616"/>
</svg>
