<svg width="24" height="24" viewBox="0 0 24 24" fill="none" xmlns="http://www.w3.org/2000/svg">
<path fill-rule="evenodd" clip-rule="evenodd" d="M17.2083 4.5H19.5C20.4205 4.5 21.1667 5.24619 21.1667 6.16667V20.3333C21.1667 21.2538 20.4205 22 19.5 22H3.66667C2.74619 22 2 21.2538 2 20.3333V6.16667C2 5.24619 2.74619 4.5 3.66667 4.5H4.91667C5.14679 4.5 5.33333 4.68655 5.33333 4.91667V6.79167C5.33333 7.13684 5.61316 7.41667 5.95833 7.41667C6.30351 7.41667 6.58333 7.13684 6.58333 6.79167V2.83333C6.58333 2.3731 6.95643 2 7.41667 2C7.8769 2 8.25 2.3731 8.25 2.83333V4.2925C8.25046 4.40723 8.3436 4.5 8.45833 4.5H13.6667C13.8968 4.5 14.0833 4.68655 14.0833 4.91667V6.79167C14.0833 7.13684 14.3632 7.41667 14.7083 7.41667C15.0535 7.41667 15.3333 7.13684 15.3333 6.79167V2.83333C15.3333 2.3731 15.7064 2 16.1667 2C16.6269 2 17 2.3731 17 2.83333V4.29167C17 4.40673 17.0933 4.5 17.2083 4.5ZM19.0833 20.3333C19.3135 20.3333 19.5 20.1468 19.5 19.9167V9.91667C19.5 9.68655 19.3135 9.5 19.0833 9.5H4.08333C3.85321 9.5 3.66667 9.68655 3.66667 9.91667V19.9167C3.66667 20.1468 3.85321 20.3333 4.08333 20.3333H19.0833Z" fill="#161616"/>
<path d="M15.1591 11.6058C15.0541 11.5616 14.9327 11.5857 14.8525 11.6667L14.0658 12.4525C12.9981 11.3753 11.3759 11.0696 9.98933 11.6843C8.60277 12.2991 7.74012 13.7065 7.82154 15.221C7.90297 16.7356 8.91153 18.0424 10.356 18.505C11.8005 18.9675 13.3806 18.4897 14.3266 17.3042C14.4692 17.13 14.507 16.8926 14.4258 16.6827C14.3446 16.4728 14.1567 16.3228 13.9341 16.29C13.7114 16.2572 13.4883 16.3466 13.35 16.5242C12.7306 17.3181 11.6839 17.6449 10.7229 17.3442C9.7619 17.0436 9.08801 16.1786 9.03157 15.1733C8.97513 14.1679 9.54798 13.2329 10.4693 12.8266C11.3906 12.4203 12.4673 12.6278 13.1716 13.3475L12.3383 14.1808C12.2577 14.2614 12.2336 14.3825 12.2772 14.4878C12.3208 14.593 12.4235 14.6617 12.5375 14.6617H15.05C15.2055 14.6617 15.3316 14.5356 15.3316 14.38V11.8658C15.3322 11.7522 15.2641 11.6495 15.1591 11.6058Z" fill="#161616"/>
</svg>
