<svg width="120" height="120" viewBox="0 0 120 120" fill="none" xmlns="http://www.w3.org/2000/svg">
<path fill-rule="evenodd" clip-rule="evenodd" d="M38.2973 24.2181C36.8215 24.26 35.3417 24.302 33.8664 24.2628C33.7824 24.2392 33.7084 24.1887 33.6558 24.1191C33.6032 24.0494 33.5749 23.9645 33.5751 23.8772C33.5753 23.79 33.604 23.7052 33.657 23.6358C33.7099 23.5664 33.7841 23.5163 33.8682 23.493C37.3656 23.226 67.0974 22.701 97.6974 23.601C98.073 23.6118 98.331 24.0792 97.857 24.4752C96.7388 25.4094 92.5463 28.7586 89.785 30.9646C89.3327 31.3259 88.9187 31.6566 88.563 31.941C85.8924 38.9034 75.567 36.2598 76.107 31.7172C76.1982 30.9504 83.904 25.629 86.391 24.2034L74.7258 24.0234C73.9631 24.7026 71.5723 26.5224 69.187 28.3381L69.1869 28.3382L69.1868 28.3382C67.3932 29.7035 65.6027 31.0664 64.5096 31.9404C61.95 39.5454 51.06 36.9708 51.714 31.7166C51.8082 30.9462 60.5532 25.3908 63.1482 23.9898H51.5682C50.8274 24.4369 49.4367 25.1918 47.8089 26.0754C44.3646 27.945 39.8586 30.3908 38.202 31.7166C36.3258 39.7332 25.656 37.5774 26.313 31.7166C26.4 30.966 36.5694 25.6884 39.7632 24.1794C39.2754 24.1903 38.7869 24.2042 38.2979 24.2181L38.2979 24.2181L38.2978 24.2181L38.2978 24.2181L38.2978 24.2181L38.2978 24.2181L38.2977 24.2181L38.2977 24.2181L38.2977 24.2181L38.2976 24.2181L38.2976 24.2181L38.2976 24.2181L38.2976 24.2181L38.2975 24.2181L38.2975 24.2181L38.2975 24.2181L38.2974 24.2181L38.2974 24.2181L38.2974 24.2181L38.2974 24.2181L38.2973 24.2181L38.2973 24.2181L38.2973 24.2181ZM50.2308 32.4552C48.2682 37.0968 41.388 37.665 39.0924 32.1078C39.0727 32.0425 39.0282 31.9875 38.9684 31.9546C38.9086 31.9217 38.8383 31.9135 38.7726 31.9318C38.7069 31.9501 38.6509 31.9933 38.6167 32.0524C38.5825 32.1114 38.5728 32.1815 38.5896 32.2476C40.1634 37.9476 48.5604 38.4456 50.8776 32.6988C51.048 32.2764 50.403 32.0484 50.2308 32.4552ZM75.66 32.8662C75.6805 32.8245 75.6923 32.7789 75.6944 32.7324C75.6966 32.686 75.6892 32.6395 75.6726 32.596C75.6561 32.5526 75.6308 32.5129 75.5983 32.4797C75.5657 32.4464 75.5267 32.4201 75.4836 32.4026C75.4405 32.3851 75.3943 32.3766 75.3478 32.3777C75.3012 32.3788 75.2554 32.3895 75.2132 32.409C75.171 32.4286 75.1333 32.4566 75.1024 32.4914C75.0715 32.5262 75.0481 32.567 75.0336 32.6112C73.5018 37.1112 67.824 36.8004 65.7336 32.3034C65.598 32.0118 65.1204 32.0634 65.2266 32.439C66.5766 37.2042 73.7058 38.2638 75.66 32.8662ZM25.5546 32.2758C25.5728 32.1915 25.5574 32.1034 25.5118 32.0303C25.4661 31.9571 25.3938 31.9046 25.3101 31.8838C25.2264 31.8631 25.1379 31.8757 25.0634 31.9191C24.9888 31.9625 24.9341 32.0332 24.9108 32.1162C23.8662 36.3342 17.8428 37.1226 16.236 32.04C17.3886 31.4991 18.5371 30.9562 19.6837 30.4141L19.6838 30.4141L19.6838 30.4141C24.0067 28.3705 28.3031 26.3394 32.6886 24.48C33.1152 24.3 32.8482 23.769 32.433 23.937C30.8886 24.5604 17.556 30.366 15.741 31.5864C15.5694 31.7016 15.5292 32.0172 15.6132 32.4264C16.6434 37.44 24.255 37.7826 25.5546 32.2758ZM63.0984 53.4349C63.6054 53.4349 63.6648 53.9899 63.1584 54.0775C60.3057 54.3086 57.4388 54.3048 54.5868 54.0661C54.2251 55.474 56.9217 55.489 57.8738 55.4943C57.923 55.4946 57.9676 55.4948 58.0068 55.4953C58.1068 55.4963 58.2175 55.4979 58.3372 55.4997C59.6176 55.5188 61.9118 55.553 62.826 54.9961C63.2694 54.7237 63.6114 55.0453 63.246 55.4389C62.3316 56.4245 59.6338 56.3681 58.1889 56.3379L57.972 56.3335C56.7666 56.3107 53.7102 56.1739 53.7522 54.3691C53.775 53.3869 53.8176 53.2093 55.1376 53.2993C57.3026 53.4469 59.5736 53.4418 61.85 53.4367H61.8501H61.8501H61.8501H61.8502H61.8502H61.8502H61.8503H61.8503H61.8503H61.8504H61.8504H61.8504H61.8505H61.8505H61.8505H61.8506H61.8506H61.8506H61.8507H61.8507C62.2666 53.4358 62.6827 53.4349 63.0984 53.4349ZM88.7699 47.5508L88.7698 47.5505C87.9713 45.3369 87.1751 43.1298 86.4654 41.4498C86.334 41.1384 85.7982 41.1306 85.9026 41.4702C87.0972 45.3672 88.7862 50.1366 90.1824 53.5386C90.4098 54.0936 91.155 53.8584 90.9288 53.307C90.2518 51.6589 89.5098 49.6021 88.7699 47.5508ZM71.2755 47.9227L71.2756 47.9218L71.2757 47.9217C71.8091 44.333 72.2996 41.0333 72.612 38.6034C72.6792 38.0802 73.4784 38.2644 73.4064 38.7714C73.1633 40.4796 72.9227 42.184 72.6821 43.8881L72.6812 43.8944C71.7057 50.8034 70.7308 57.7086 69.5976 64.8492C69.5424 65.1966 68.919 65.1642 68.9592 64.797C69.4837 59.9771 70.433 53.5904 71.2753 47.9239L71.2755 47.9231L71.2755 47.9227ZM61.8366 59.3755C60.24 59.1139 54.3432 59.1457 52.9938 59.2519C50.718 59.4319 50.4618 62.4067 52.7424 62.7811C55.5427 63.2153 58.3874 63.2865 61.206 62.9929C63.7956 62.745 64.1328 59.7517 61.8366 59.3755ZM87.1496 52.1728C87.1144 52.354 87.031 52.5224 86.9082 52.6602C86.853 52.7071 86.7853 52.7368 86.7134 52.7457C86.6415 52.7546 86.5686 52.7423 86.5036 52.7103C86.4386 52.6783 86.3844 52.628 86.3477 52.5655C86.3109 52.5031 86.2933 52.4313 86.2968 52.359C86.2999 52.3335 86.3045 52.3053 86.3093 52.2751L86.3094 52.2748C86.3465 52.0445 86.4024 51.6982 85.9968 51.5604C85.3296 51.3336 84.4488 52.3704 85.4934 52.6104C85.8492 52.6926 85.8696 53.0976 85.4496 53.169C85.1813 53.186 84.9151 53.1125 84.6936 52.9602C84.472 52.8079 84.3081 52.5856 84.228 52.329C83.886 50.8956 86.5044 49.9128 87.108 51.6306C87.1704 51.8043 87.1847 51.9916 87.1496 52.1728ZM85.9506 45.678C84.3246 47.1744 84.6654 49.6116 86.8446 50.1414C88.2984 50.4948 88.2246 49.5384 87.735 49.4982C86.4252 49.3914 84.8664 47.934 86.3616 46.0782C86.6502 45.72 86.2974 45.36 85.9506 45.678ZM81.2472 55.8306C84.222 56.6724 87.3396 56.3808 89.811 54.4608C89.8404 54.4162 89.8797 54.379 89.9259 54.3521C89.972 54.3252 90.0237 54.3093 90.077 54.3057C90.1302 54.302 90.1836 54.3106 90.233 54.331C90.2824 54.3513 90.3264 54.3827 90.3617 54.4228C90.397 54.4629 90.4225 54.5106 90.4364 54.5621C90.4502 54.6137 90.452 54.6678 90.4416 54.7202C90.4311 54.7725 90.4087 54.8218 90.3762 54.8641C90.3436 54.9064 90.3017 54.9407 90.2538 54.9642C88.6614 56.5008 86.2098 57.12 84.0258 57.1158C82.9158 57.114 80.2272 56.7216 78.8358 55.8102C77.8752 55.1814 77.8458 54.7086 78.273 53.7264L78.3704 53.5024L78.3705 53.5023C80.1901 49.3201 82.6779 43.6022 85.0284 39.9768C85.2918 39.57 85.812 39.8856 85.599 40.32C85.0518 41.4386 84.5002 42.5461 83.9497 43.6517L83.9496 43.6518L83.9494 43.6522L83.9492 43.6526L83.949 43.653L83.9488 43.6534L83.9486 43.6538L83.9484 43.6542L83.9482 43.6546L83.9478 43.6554L83.9474 43.6561L83.9466 43.6578L83.9459 43.6592L83.9455 43.6599L83.9449 43.6613C82.1641 47.2372 80.3937 50.7921 78.8118 54.6306C79.5032 55.239 80.3435 55.653 81.2472 55.8306ZM80.0016 53.9023C81.3714 54.723 82.9504 55.1274 84.5461 55.0664C86.1418 55.0054 87.6853 54.4814 88.9884 53.5585C89.4318 53.2201 89.0958 52.5385 88.641 52.8799C86.0868 54.7921 83.0322 54.2977 80.1336 53.2795C79.749 53.1439 79.6944 53.7001 80.0016 53.9023ZM80.9286 51.8976C80.5254 51.7512 80.721 51.1764 81.12 51.2112C83.04 51.3774 84.1962 49.7832 82.6884 48.177C82.2138 47.6706 82.6242 47.3166 83.1084 47.6298C85.4016 49.113 83.7234 52.923 80.9286 51.8976ZM79.5144 59.5711C76.9578 59.8753 76.7208 62.6749 78.9558 63.2365C80.445 63.6103 85.9392 63.4165 87.2676 63.2365C89.5476 62.9269 89.7246 60.0085 87.4554 59.6431C84.8245 59.251 82.1519 59.2268 79.5144 59.5711ZM30.6816 54.3453C30.5315 52.236 30.1989 47.5621 30.2934 46.6483C30.339 46.2049 30.7596 46.3249 30.8442 46.6843C31.077 47.6707 31.5348 53.6947 31.611 54.8563L35.7828 54.9643C36.3244 53.158 36.7367 51.1355 37.1285 49.2134L37.1285 49.2133L37.1286 49.213L37.1286 49.2127C37.2824 48.4584 37.433 47.7197 37.587 47.0155C37.5939 46.9646 37.6111 46.9157 37.6376 46.8717C37.6642 46.8278 37.6994 46.7897 37.7412 46.7599C37.7831 46.7301 37.8305 46.7092 37.8807 46.6985C37.931 46.6878 37.9828 46.6875 38.0332 46.6976C38.0835 46.7077 38.1312 46.728 38.1734 46.7573C38.2156 46.7866 38.2513 46.8242 38.2784 46.8678C38.3054 46.9114 38.3233 46.9601 38.3308 47.0109C38.3383 47.0617 38.3353 47.1135 38.322 47.1631C38.0979 48.0927 37.9071 49.1555 37.7125 50.2387C37.4147 51.8967 37.1083 53.6026 36.6612 54.9523C36.3619 55.8547 36.1225 55.8473 35.3726 55.8241L35.3118 55.8223L32.082 55.7389C32.0412 55.7377 31.9956 55.7372 31.9464 55.7366H31.9459C31.5036 55.7317 30.7766 55.7236 30.7404 55.1839C30.7286 55.0058 30.7079 54.7149 30.6816 54.3453ZM32.106 51.7938C32.0296 51.8063 31.961 51.8478 31.9145 51.9096C31.868 51.9714 31.8472 52.0489 31.8564 52.1257C31.8656 52.2025 31.9041 52.2728 31.964 52.3219C32.0238 52.371 32.1002 52.395 32.1774 52.3891C32.3067 52.3891 32.6039 52.4074 32.9705 52.43L32.9706 52.43C33.9075 52.4877 35.2975 52.5734 35.4954 52.4526C35.7708 52.2846 35.859 52.0975 35.6268 51.9301C35.256 51.6601 32.433 51.7543 32.106 51.7938ZM61.533 51.4124L61.5335 51.4124L61.5352 51.4124L61.5371 51.4125L61.5382 51.4125L61.5383 51.4125L61.5407 51.4125L61.5412 51.4125L61.5428 51.4126C62.2885 51.4273 62.8602 51.4386 63.09 51.4386C63.6852 51.4386 63.7848 52.3944 63.1698 52.3932C62.8731 52.3924 62.5764 52.3918 62.2797 52.3912H62.2796H62.2796C59.7017 52.386 57.1238 52.3808 54.5508 52.2414C54.0396 52.2138 54.1398 51.501 54.5868 51.411C55.2001 51.2871 59.2064 51.3664 61.533 51.4124ZM38.9646 45.4266C38.5798 45.4085 38.1969 45.3903 37.8155 45.3722C35.375 45.2564 32.9924 45.1434 30.5406 45.0708C30.6464 44.9317 30.7203 44.8144 30.7817 44.717C30.9705 44.4174 31.0412 44.3052 31.5606 44.3202C32.5785 44.3499 33.5999 44.3679 34.622 44.3858H34.6221H34.6221H34.6222H34.6223H34.6224H34.6224H34.6225C35.9704 44.4094 37.3194 44.4331 38.6628 44.484C39.2256 44.5056 39.2496 43.8012 38.691 43.7418C38.1324 43.6824 31.7208 43.2792 30.951 43.4862C30.3684 43.6422 28.7274 45.8742 29.751 45.9294C31.656 46.032 36.9972 46.236 39.051 46.2048C39.5316 46.2 39.4836 45.4506 38.9646 45.4266ZM38.7432 38.9508C39.24 39.1896 40.3362 39.7596 40.56 40.26C40.5928 40.3361 40.6029 40.4201 40.5889 40.5017C40.575 40.5834 40.5377 40.6593 40.4815 40.7202C40.4253 40.7811 40.3526 40.8244 40.2723 40.8449C40.192 40.8653 40.1075 40.862 40.029 40.8354C39.863 40.7827 39.5324 40.5646 39.1521 40.3137C38.4617 39.8581 37.6076 39.2945 37.278 39.4176C37.0922 39.4873 36.5864 40.4118 36.1067 41.2887L36.1066 41.2887L36.1066 41.2888L36.1066 41.2889L36.1065 41.289L36.1065 41.2891L36.1064 41.2891C35.7312 41.975 35.3719 42.6317 35.1942 42.8274C34.9776 43.0638 34.4604 42.975 34.4838 42.7038C34.6622 41.9407 34.9788 41.2168 35.418 40.5678L35.4384 40.5317C36.5909 38.493 36.8481 38.0381 38.7432 38.9508ZM28.5528 62.7252C30.0474 63.1338 35.5992 63.0762 36.9366 62.9166C39.2442 62.6412 39.4914 59.6664 37.2162 59.2518C34.5706 58.7917 31.8741 58.699 29.2032 58.9764C26.6262 59.22 26.313 62.1126 28.5528 62.7252ZM62.6065 49.2032C63.0824 49.5656 63.2818 49.7175 64.5312 48.6919C64.9458 48.3517 65.46 48.8563 65.0466 49.2169C64.3644 49.8121 63.366 50.6689 62.4552 50.1349C62.231 50.0035 62.0467 49.882 61.8862 49.7764C61.1046 49.2615 60.8911 49.1208 59.4096 50.0269C57.5839 51.1436 56.8408 50.3937 56.2277 49.7751C55.723 49.2659 55.3065 48.8456 54.447 49.6279C54.1176 49.9255 53.8002 49.5655 53.9976 49.2121C54.2009 48.8505 54.5393 48.5844 54.9386 48.4719C55.3379 48.3595 55.7654 48.4099 56.1276 48.6121C56.3585 48.7401 56.5504 48.9362 56.7393 49.1293C57.0428 49.4395 57.3386 49.7419 57.7764 49.7419C58.2057 49.7405 58.6601 49.4872 59.1483 49.2152C59.895 48.799 60.7208 48.3388 61.6572 48.6679C62.115 48.8289 62.3895 49.038 62.6065 49.2032ZM36.3498 47.7978C35.1575 47.8755 34.3629 47.8147 33.5799 47.7547C33.0335 47.7128 32.4927 47.6714 31.8264 47.6778C31.4268 47.682 31.4496 48.1746 31.8264 48.2568C33.3206 48.5705 34.8529 48.6621 36.3738 48.5286C36.4248 48.5317 36.4759 48.5241 36.5238 48.5063C36.5717 48.4885 36.6154 48.4609 36.6521 48.4253C36.6887 48.3897 36.7175 48.3468 36.7366 48.2994C36.7557 48.252 36.7647 48.2011 36.7631 48.15C36.7614 48.0989 36.7491 48.0487 36.7269 48.0027C36.7047 47.9567 36.6731 47.9158 36.6342 47.8826C36.5953 47.8494 36.5499 47.8248 36.501 47.8102C36.452 47.7956 36.4005 47.7913 36.3498 47.7978ZM63.4812 45.5383C62.679 44.1187 61.9356 43.2649 60.0918 43.3663C59.0904 43.4279 58.1263 43.7693 57.3093 44.3516C56.4923 44.9339 55.855 45.7338 55.47 46.6603C56.9236 46.6467 58.3466 46.6662 59.7734 46.6858L59.7737 46.6858C60.8746 46.7009 61.9777 46.7161 63.099 46.7161C63.1508 46.7105 63.2032 46.716 63.2528 46.732C63.3023 46.748 63.348 46.7743 63.3867 46.8091C63.4255 46.844 63.4564 46.8866 63.4777 46.9342C63.4989 46.9817 63.5098 47.0333 63.5098 47.0854C63.5098 47.1375 63.4989 47.189 63.4777 47.2366C63.4564 47.2841 63.4255 47.3267 63.3867 47.3616C63.348 47.3964 63.3023 47.4227 63.2528 47.4387C63.2032 47.4548 63.1508 47.4602 63.099 47.4547C62.1054 47.4787 55.905 47.5825 54.975 47.4145C54.8719 47.3841 54.7819 47.32 54.7196 47.2324C54.6573 47.1448 54.6261 47.0388 54.6312 46.9315C54.5754 44.9077 57.4008 42.5364 60.2208 42.5118C61.8378 42.498 63.834 43.5816 64.1412 45.2785C64.1582 45.3615 64.1454 45.4478 64.105 45.5224C64.0646 45.5969 63.9993 45.6547 63.9204 45.6858C63.8415 45.7168 63.7542 45.719 63.6739 45.6921C63.5936 45.6651 63.5253 45.6106 63.4812 45.5383ZM45.1533 61.7154L45.1532 61.7161C45.0116 62.6527 44.8692 63.5948 44.7258 64.5415C44.6736 64.8853 45.2976 65.1246 45.3684 64.7173C46.9968 55.305 48.6 45.9774 49.6722 38.4156C49.6587 38.3308 49.6182 38.2526 49.5568 38.1925C49.4954 38.1325 49.4163 38.0938 49.3312 38.0821C49.2461 38.0705 49.1595 38.0865 49.0842 38.1279C49.009 38.1693 48.949 38.2338 48.9132 38.3118C47.6346 45.3026 46.4269 53.2909 45.1533 61.7154ZM83.8981 95.7107C94.8601 95.81 105.791 95.909 116.623 95.9934C116.729 96.0135 116.825 96.07 116.894 96.153C116.962 96.2361 117 96.3406 117 96.4485C117 96.5564 116.962 96.6609 116.894 96.744C116.825 96.8271 116.729 96.8835 116.623 96.9036C101.719 96.7857 86.5095 96.6502 71.3159 96.5147C49.9297 96.3241 28.575 96.1337 8.14799 95.9934C8.09425 95.9955 8.04065 95.9867 7.99038 95.9676C7.94012 95.9485 7.89423 95.9194 7.85548 95.8821C7.81672 95.8448 7.78589 95.8001 7.76483 95.7506C7.74377 95.7011 7.73291 95.6479 7.73291 95.5941C7.73291 95.5403 7.74377 95.4871 7.76483 95.4376C7.78589 95.3881 7.81672 95.3434 7.85548 95.3061C7.89423 95.2689 7.94012 95.2398 7.99038 95.2206C8.04065 95.2015 8.09425 95.1927 8.14799 95.1948C33.0048 95.2497 58.5346 95.481 83.8981 95.7107Z" fill="#417FDA"/>
<path fill-rule="evenodd" clip-rule="evenodd" d="M99.2885 24.4866C98.7971 24.216 98.4131 25.0098 98.8895 25.2852C100.923 26.4597 100.601 29.2477 100.365 31.2896C100.353 31.3955 100.341 31.4993 100.33 31.6008C99.4432 39.3859 98.5081 47.173 97.5732 54.9585L97.5731 54.9597L97.5729 54.9609L97.5728 54.9621L97.5726 54.9633L97.5725 54.9644L97.5724 54.9656L97.5722 54.9668C97.062 59.2158 96.5519 63.4643 96.0497 67.7118C95.0327 76.3152 94.2773 77.9076 85.4381 77.7918C66.4025 77.5434 45.4907 77.2272 28.1921 76.8654C22.2557 76.7412 19.9565 74.5926 20.5721 68.9568C21.4188 61.1907 22.7701 53.3469 24.1133 45.5501L24.1133 45.5501L24.1133 45.55L24.1133 45.5499C24.6899 42.2028 25.265 38.8644 25.7981 35.5446C25.8815 35.0256 25.1831 34.854 25.0955 35.373C24.6127 38.223 24.0987 41.1123 23.5811 44.0215C22.0977 52.3599 20.5851 60.8617 19.6955 69.072C18.9959 75.5478 21.7475 77.451 28.0793 77.628C41.7139 78.0094 55.6954 78.2068 69.6123 78.4033L69.6139 78.4033L69.6154 78.4033L69.6169 78.4034L69.6185 78.4034L69.62 78.4034L69.6215 78.4034L69.6231 78.4035C74.9247 78.4783 80.217 78.553 85.4771 78.6378C92.6633 78.7536 95.7281 77.568 96.5837 70.338C97.1623 65.4491 97.758 60.5468 98.3541 55.6416L98.3544 55.6395C99.3316 47.5988 100.31 39.5504 101.215 31.5402C101.491 29.0796 101.838 25.8912 99.2885 24.4866ZM22.5881 67.5636C45.8333 67.8636 70.8947 68.0568 94.5017 68.1504C94.5613 68.1526 94.6207 68.1428 94.6763 68.1215C94.732 68.1002 94.7828 68.0679 94.8257 68.0266C94.8686 67.9852 94.9028 67.9356 94.9261 67.8807C94.9494 67.8259 94.9614 67.7669 94.9614 67.7073C94.9614 67.6477 94.9494 67.5887 94.9261 67.5339C94.9028 67.479 94.8686 67.4294 94.8257 67.3881C94.7828 67.3467 94.732 67.3144 94.6763 67.2931C94.6207 67.2719 94.5613 67.262 94.5017 67.2642C83.0305 67.2236 70.8958 67.132 58.9331 67.0416H58.9324H58.9319H58.9313H58.9309H58.9305H58.9301H58.9298H58.9296H58.9294C46.2955 66.9462 33.8536 66.8522 22.5881 66.8214C22.5381 66.8194 22.4882 66.8275 22.4415 66.8452C22.3947 66.863 22.352 66.89 22.3159 66.9247C22.2798 66.9593 22.2511 67.0009 22.2315 67.0469C22.2119 67.093 22.2018 67.1425 22.2018 67.1925C22.2018 67.2425 22.2119 67.292 22.2315 67.3381C22.2511 67.3841 22.2798 67.4257 22.3159 67.4604C22.352 67.495 22.3947 67.522 22.4415 67.5398C22.4882 67.5575 22.5381 67.5656 22.5881 67.5636ZM53.4245 70.3746C51.5717 71.493 51.4007 74.4816 53.4923 74.7138C55.0697 74.889 56.7851 73.6482 56.7701 71.9634C56.7533 70.0032 55.0421 69.3978 53.4245 70.3746ZM55.9037 72.099C55.8383 73.4244 54.2753 73.9032 53.5565 73.836C52.3109 73.716 52.6907 71.8464 53.7401 71.145C54.6983 70.5042 55.9799 70.5222 55.9037 72.099ZM55.9637 78.8862C56.6111 81.7736 57.0951 84.6952 57.4133 87.6372C57.4259 87.7501 57.3951 87.8635 57.3271 87.9545C57.2591 88.0454 57.1591 88.1071 57.0472 88.127C56.9354 88.1468 56.8202 88.1234 56.7251 88.0614C56.6299 87.9994 56.5619 87.9035 56.5349 87.7932C56.4723 87.3962 56.3895 86.8875 56.296 86.3127C55.9086 83.9333 55.3369 80.4214 55.2533 79.0098C55.2452 78.9632 55.2463 78.9154 55.2567 78.8692C55.267 78.823 55.2864 78.7793 55.3136 78.7405C55.3409 78.7018 55.3755 78.6688 55.4155 78.6435C55.4555 78.6181 55.5001 78.6009 55.5467 78.5928C55.5934 78.5847 55.6411 78.5858 55.6873 78.5962C55.7335 78.6065 55.7772 78.6259 55.816 78.6531C55.8547 78.6804 55.8877 78.715 55.913 78.755C55.9384 78.795 55.9556 78.8396 55.9637 78.8862ZM65.4889 89.9593C65.4213 90.0268 65.3298 90.0648 65.2343 90.0648C60.7078 90.1001 56.1966 90.0744 51.6455 90.0486H51.6446C45.9068 90.016 40.1057 89.983 34.1309 90.0714C34.007 90.1081 33.0647 90.7406 31.9416 91.4944C30.3892 92.5364 28.4912 93.8103 27.9311 94.0638C27.5795 94.2228 27.2927 93.924 27.6035 93.6168C28.0829 93.1422 31.3403 90.9294 32.9135 89.8638C33.3895 89.4539 34.0075 89.2475 34.6343 89.289C44.0474 89.1953 53.8134 89.2642 63.2675 89.331H63.2677H63.268H63.2683H63.2686H63.2689H63.2692H63.2694H63.2697H63.2699H63.2702H63.2704H63.2706L65.2343 89.3448C65.3298 89.3448 65.4213 89.3827 65.4889 89.4502C65.5564 89.5177 65.5943 89.6093 65.5943 89.7048C65.5943 89.8002 65.5564 89.8918 65.4889 89.9593ZM62.5071 92.7887C63.9139 91.8255 65.3207 90.8623 66.7313 89.9088C67.8816 89.0092 69.4472 91.5734 70.4028 93.1385L70.4032 93.1392C70.5545 93.3869 70.6905 93.6097 70.8071 93.7896C71.1071 94.2522 70.5881 94.7034 70.2845 94.2324C69.6425 93.2376 68.4311 91.4076 67.5095 90.6876C67.2936 90.5182 67.2006 90.5826 67.015 90.7113C66.9948 90.7253 66.9735 90.7401 66.9509 90.7554C66.6029 90.9905 66.1417 91.3137 65.624 91.6765L65.6236 91.6768C64.3712 92.5545 62.7886 93.6635 61.6811 94.3164L61.589 94.3707C60.9602 94.7423 60.9509 94.7478 59.8565 94.7478C53.6356 94.7489 46.7446 94.6671 40.3428 94.5911L40.3415 94.5911C36.7188 94.5481 33.2528 94.507 30.1535 94.4838C30.1035 94.4858 30.0536 94.4777 30.0069 94.4599C29.9601 94.4422 29.9174 94.4152 29.8813 94.3805C29.8452 94.3459 29.8165 94.3043 29.7969 94.2583C29.7773 94.2122 29.7672 94.1627 29.7672 94.1127C29.7672 94.0627 29.7773 94.0131 29.7969 93.9671C29.8165 93.9211 29.8452 93.8795 29.8813 93.8448C29.9174 93.8102 29.9601 93.7832 30.0069 93.7654C30.0536 93.7477 30.1035 93.7396 30.1535 93.7416C33.6289 93.7251 39.6415 93.799 46.2868 93.8808L46.2887 93.8808L46.292 93.8808L46.293 93.8809C50.9981 93.9387 56.02 94.0005 60.6827 94.0368C61.291 93.6213 61.8991 93.205 62.5071 92.7887ZM71.0659 78.8013C71.0959 78.8394 71.1179 78.8832 71.1305 78.93C71.8799 80.7186 74.1929 88.4916 74.6837 90.723C74.7082 90.8341 74.7338 90.9464 74.7597 91.0592C75.1395 92.7195 75.5493 94.5109 72.4841 94.548C71.8853 94.5552 71.8493 93.8574 72.4403 93.7896C74.1167 93.597 74.2361 93.1056 73.9493 91.6656C73.5067 89.4421 72.7216 86.9402 71.9873 84.6001C71.3478 82.5623 70.7468 80.6471 70.4441 79.1454C70.4277 79.0998 70.4207 79.0513 70.4235 79.0029C70.4263 78.9544 70.4389 78.9071 70.4605 78.8636C70.4821 78.8202 70.5122 78.7815 70.5491 78.75C70.586 78.7185 70.6289 78.6948 70.6751 78.6803C70.7214 78.6658 70.7702 78.6607 70.8184 78.6655C70.8667 78.6703 70.9135 78.6848 70.956 78.7081C70.9986 78.7314 71.0359 78.7631 71.0659 78.8013ZM78.3491 94.5C78.1979 94.8954 77.6477 94.8 77.7263 94.38C78.9065 88.0374 90.6599 86.5344 93.3917 93.5352C93.7937 94.5642 93.4715 94.8066 92.3219 94.8552C89.1443 94.9896 83.7347 94.9842 79.8497 94.8192C79.4747 94.8006 79.4507 94.1442 79.8497 94.1406C81.2876 94.1276 82.6607 94.1544 84.0186 94.1809C86.8087 94.2353 89.5344 94.2884 92.6255 93.993C90.4295 88.0044 80.6891 88.3638 78.3491 94.5ZM116.244 40.8C116.11 40.428 115.757 40.4646 115.725 40.9554C115.682 41.6112 115.656 42.8167 115.631 43.9524C115.606 45.1026 115.583 46.1812 115.545 46.545C115.324 48.6648 115.169 49.179 112.435 48.888C109.997 48.6291 110.059 47.9381 110.229 46.0261L110.229 46.0226C110.237 45.9282 110.246 45.8307 110.255 45.7302C110.411 43.9372 110.688 42.1566 111.081 40.4004C111.155 40.0008 110.679 39.8682 110.507 40.2486C109.886 41.819 109.511 43.4752 109.393 45.1596C109.074 48 109.086 49.4544 112.292 49.8C115.498 50.1456 116.216 49.4004 116.492 46.3506C116.567 45.51 116.538 41.6088 116.244 40.8ZM112.76 41.5561L112.76 41.5564C112.575 43.5436 112.358 45.8844 112.068 47.6862C112.041 47.7805 111.983 47.8627 111.903 47.9191C111.823 47.9755 111.726 48.0026 111.628 47.996C111.53 47.9894 111.438 47.9494 111.366 47.8828C111.294 47.8161 111.248 47.7268 111.234 47.6298C111.426 45.1774 111.796 42.7423 112.343 40.344C112.467 39.969 112.902 40.0446 112.867 40.4202C112.832 40.7802 112.797 41.1612 112.76 41.5561ZM114.124 48.1692C114.419 47.8176 114.724 41.5248 114.464 40.4556C114.404 40.2156 114.116 40.1166 114.037 40.4118C113.857 41.0826 113.357 47.8578 113.506 48.105C113.532 48.1615 113.573 48.2102 113.624 48.2463C113.675 48.2825 113.735 48.3049 113.797 48.3113C113.859 48.3178 113.922 48.3081 113.979 48.2832C114.036 48.2583 114.086 48.219 114.124 48.1692ZM112.439 71.7156C112.136 73.4802 109.579 74.9922 109.246 71.5122C108.962 68.5515 110.65 56.8174 111.339 52.0297V52.0297L111.34 52.0256C111.46 51.1918 111.549 50.5692 111.593 50.241C112.152 50.3446 112.721 50.39 113.29 50.3766C113.29 53.7504 112.743 69.951 112.439 71.7156ZM8.8067 37.4658C5.1935 41.5044 2.7467 50.481 3.0215 55.8306C3.1163 57.6828 4.1555 59.9424 6.3071 59.9424C6.38333 59.9477 6.45854 59.9226 6.51621 59.8724C6.57388 59.8223 6.60927 59.7513 6.6146 59.6751C6.61993 59.5989 6.59477 59.5237 6.54464 59.466C6.49451 59.4083 6.42353 59.3729 6.3473 59.3676C4.7141 59.1078 3.9761 57.411 3.8837 55.8984C3.5591 50.58 6.0599 42.0564 9.3893 38.0682C9.42287 38.0283 9.46082 37.9823 9.50211 37.9323L9.5022 37.9322C9.95765 37.3805 10.8181 36.3383 10.6547 37.5534C10.605 37.9238 10.5273 38.4889 10.4294 39.201L10.4293 39.2014L10.4293 39.2015C9.73422 44.2571 8.01982 56.7262 8.0561 59.6334C8.0609 60.0324 8.6081 60.2088 8.6789 59.8014C9.28962 56.2781 9.70052 52.432 10.1125 48.5754C10.4895 45.0474 10.8673 41.5107 11.3999 38.2044C11.8859 35.1648 10.1939 35.9142 8.8067 37.4658ZM3.4007 72.5172C3.0365 70.4136 4.8899 63.5304 5.7965 60.54C6.31452 60.6238 6.68777 60.6998 6.98042 60.7595C7.61245 60.8882 7.86852 60.9404 8.3951 60.828C8.3195 62.4564 7.4129 71.9142 7.0895 73.0842C6.7661 74.2542 3.7649 74.6208 3.4007 72.5172Z" fill="#4D4D4D"/>
</svg>
