<svg width="24" height="24" viewBox="0 0 24 24" fill="none" xmlns="http://www.w3.org/2000/svg">
<path fill-rule="evenodd" clip-rule="evenodd" d="M12 6C8.68629 6 6 8.68629 6 12C6 15.3137 8.68629 18 12 18C15.3137 18 18 15.3137 18 12C17.9961 8.68789 15.3121 6.00386 12 6ZM14.745 14.038C14.875 14.1635 14.9271 14.3494 14.8813 14.5243C14.8356 14.6991 14.6991 14.8356 14.5243 14.8814C14.3494 14.9271 14.1635 14.875 14.038 14.745L12.088 12.795C12.0389 12.7466 11.9601 12.7466 11.911 12.795L9.961 14.745C9.76442 14.937 9.45058 14.937 9.254 14.745C9.05881 14.5498 9.05881 14.2333 9.254 14.038L11.204 12.088C11.2275 12.0646 11.2407 12.0329 11.2407 11.9998C11.2407 11.9666 11.2275 11.9349 11.204 11.9115L9.254 9.96151C9.05891 9.766 9.05924 9.44935 9.25475 9.25426C9.45026 9.05916 9.76691 9.0595 9.962 9.25501L11.912 11.205C11.9355 11.2285 11.9673 11.2417 12.0005 11.2417C12.0337 11.2417 12.0655 11.2285 12.089 11.205L14.039 9.25501C14.1634 9.12003 14.3518 9.06408 14.5297 9.10926C14.7077 9.15445 14.8465 9.2935 14.8914 9.47149C14.9364 9.64948 14.8802 9.83778 14.745 9.96201L12.795 11.912C12.7715 11.9354 12.7583 11.9671 12.7583 12.0003C12.7583 12.0334 12.7715 12.0651 12.795 12.0885L14.745 14.038Z" fill="#161616"/>
</svg>
