<svg width="24" height="24" viewBox="0 0 24 24" fill="none" xmlns="http://www.w3.org/2000/svg">
<path fill-rule="evenodd" clip-rule="evenodd" d="M13.3411 12.1032C13.3136 12.0758 13.2982 12.0386 13.2982 11.9999C13.2982 11.9612 13.3136 11.924 13.3411 11.8967L18.744 6.49405C19.0857 6.15192 19.0853 5.59762 18.7432 5.25598C18.401 4.91433 17.8468 4.91472 17.5051 5.25685L12.1028 10.6571C12.0754 10.6846 12.0382 10.7 11.9995 10.7C11.9608 10.7 11.9236 10.6846 11.8963 10.6571L6.49389 5.25685C6.15226 4.91505 5.59824 4.91492 5.25645 5.25656C4.91466 5.5982 4.91453 6.15225 5.25616 6.49405L10.658 11.8967C10.6854 11.924 10.7008 11.9612 10.7008 11.9999C10.7008 12.0386 10.6854 12.0758 10.658 12.1032L5.25616 17.5063C5.03516 17.7275 4.94891 18.0497 5.02989 18.3516C5.11087 18.6536 5.34678 18.8894 5.64875 18.9702C5.95073 19.0511 6.27289 18.9647 6.49389 18.7435L11.8963 13.3403C11.9236 13.3129 11.9608 13.2975 11.9995 13.2975C12.0382 13.2975 12.0754 13.3129 12.1028 13.3403L17.5051 18.7435C17.8468 19.0853 18.4008 19.0855 18.7426 18.7438C19.0844 18.4022 19.0845 17.8481 18.7429 17.5063L13.3411 12.1032Z" fill="#161616"/>
</svg>
