<svg width="24" height="24" viewBox="0 0 24 24" fill="none" xmlns="http://www.w3.org/2000/svg">
<path fill-rule="evenodd" clip-rule="evenodd" d="M17.6587 6.34491C14.9608 3.64529 10.7315 3.2276 7.55754 5.34733C4.38362 7.46705 3.14923 11.5337 4.60937 15.06C6.0695 18.5863 9.81742 20.59 13.5608 19.8456C17.3042 19.1011 20.0002 15.8159 20 11.9992C19.9999 9.87861 19.1578 7.84481 17.6587 6.34491ZM16.4817 16.4759C14.3458 18.614 10.9967 18.9454 8.48316 17.2672C5.96959 15.5891 4.99167 12.3689 6.14757 9.57645C7.30346 6.78395 10.2712 5.19701 13.2355 5.78629C16.1997 6.37557 18.3348 8.97691 18.3348 11.9992C18.3349 13.678 17.6684 15.2882 16.4817 16.4759ZM14.1298 8.67548C14.4612 8.34522 14.9974 8.34522 15.3288 8.67548C15.6601 9.0088 15.6586 9.54759 15.3254 9.87908L13.21 11.9952L15.3254 14.112C15.6261 14.448 15.6123 14.9602 15.294 15.2796C14.9757 15.5989 14.4635 15.6144 14.1265 15.3149L12.0104 13.1981L9.89492 15.3142C9.56067 15.6337 9.03245 15.6276 8.7056 15.3006C8.37876 14.9736 8.373 14.4454 8.69265 14.1113L10.8081 11.9945L8.69265 9.87841C8.373 9.54434 8.37876 9.01612 8.7056 8.6891C9.03245 8.36207 9.56067 8.35602 9.89492 8.67548L12.0137 10.7916L14.1298 8.67548Z" fill="#161616"/>
</svg>
