<?xml version="1.0" encoding="UTF-8"?>
<svg width="24px" height="24px" viewBox="0 0 24 24" version="1.1" xmlns="http://www.w3.org/2000/svg" xmlns:xlink="http://www.w3.org/1999/xlink">
    <title>Large / Cancel / Cancel circle filled</title>
    <g id="Large-/-Cancel-/-Cancel-circle-filled" stroke="none" stroke-width="1" fill="none" fill-rule="evenodd">
        <path d="M12,2 C6.4771525,2 2,6.4771525 2,12 C2,17.5228475 6.4771525,22 12,22 C17.5228475,22 22,17.5228475 22,12 C21.993571,6.47981766 17.5201823,2.00642897 12,2 Z M16.575,15.3966667 C16.7916305,15.6058954 16.8785105,15.9157316 16.8022476,16.2070894 C16.7259848,16.4984473 16.4984473,16.7259848 16.2070894,16.8022476 C15.9157316,16.8785105 15.6058954,16.7916305 15.3966667,16.575 L12.1466667,13.325 C12.0648887,13.2443043 11.9334446,13.2443043 11.8516667,13.325 L8.60166667,16.575 C8.2740285,16.8949087 7.7509715,16.8949087 7.42333333,16.575 C7.09801505,16.2495835 7.09801505,15.7220832 7.42333333,15.3966667 L10.6733333,12.1466667 C10.712467,12.1077241 10.7344682,12.0547918 10.7344682,11.9995833 C10.7344682,11.9443749 10.712467,11.8914426 10.6733333,11.8525 L7.42333333,8.6025 C7.0981757,8.276652 7.09873534,7.74890765 7.42458334,7.42375001 C7.75043134,7.09859237 8.27817569,7.09915201 8.60333333,7.425 L11.8533333,10.675 C11.8924184,10.714184 11.9454886,10.7362057 12.0008333,10.7362057 C12.056178,10.7362057 12.1092482,10.714184 12.1483333,10.675 L15.3983333,7.425 C15.605693,7.20002744 15.9196605,7.10677716 16.2162058,7.18208679 C16.5127512,7.25739642 16.7441808,7.48915383 16.8190706,7.78580549 C16.8939604,8.08245716 16.8002658,8.39629229 16.575,8.60333333 L13.325,11.8533333 C13.2858663,11.8922759 13.2638651,11.9452082 13.2638651,12.0004167 C13.2638651,12.0556251 13.2858663,12.1085574 13.325,12.1475 L16.575,15.3966667 Z" id="CancelCircleFilled" fill="#050505"></path>
    </g>
</svg>