<svg width="24" height="24" viewBox="0 0 24 24" fill="none" xmlns="http://www.w3.org/2000/svg">
<path fill-rule="evenodd" clip-rule="evenodd" d="M16.2441 7.75868C14.2206 5.73397 11.0486 5.4207 8.66815 7.01049C6.28772 8.60029 5.36193 11.6503 6.45703 14.295C7.55212 16.9398 10.3631 18.4425 13.1706 17.8842C15.9781 17.3258 18.0002 14.8619 18 11.9994C18 10.409 17.3684 8.88361 16.2441 7.75868ZM15.3613 15.3569C13.7593 16.9605 11.2476 17.209 9.36237 15.9504C7.47719 14.6918 6.74375 12.2767 7.61067 10.1823C8.4776 8.08797 10.7034 6.89776 12.9266 7.33972C15.1498 7.78168 16.7511 9.73269 16.7511 11.9994C16.7512 13.2585 16.2513 14.4662 15.3613 15.3569ZM13.5974 9.50662C13.8459 9.25892 14.248 9.25892 14.4966 9.50662C14.7451 9.75661 14.744 10.1607 14.4941 10.4093L12.9075 11.9964L14.4941 13.584C14.7196 13.836 14.7092 14.2202 14.4705 14.4597C14.2318 14.6992 13.8476 14.7108 13.5949 14.4862L12.0078 12.8986L10.4212 14.4857C10.1705 14.7253 9.77434 14.7207 9.5292 14.4755C9.28407 14.2302 9.27975 13.834 9.51949 13.5835L11.1061 11.9959L9.51949 10.4088C9.27975 10.1583 9.28407 9.7621 9.5292 9.51683C9.77434 9.27156 10.1705 9.26703 10.4212 9.50662L12.0103 11.0937L13.5974 9.50662Z" fill="#161616"/>
</svg>
