<svg width="24" height="24" viewBox="0 0 24 24" fill="none" xmlns="http://www.w3.org/2000/svg">
<path fill-rule="evenodd" clip-rule="evenodd" d="M12 4C7.58172 4 4 7.58172 4 12C4 16.4183 7.58172 20 12 20C16.4183 20 20 16.4183 20 12C19.9949 7.58385 16.4161 4.00514 12 4ZM15.66 14.7173C15.8333 14.8847 15.9028 15.1326 15.8418 15.3657C15.7808 15.5988 15.5988 15.7808 15.3657 15.8418C15.1326 15.9028 14.8847 15.8333 14.7173 15.66L12.1173 13.06C12.0519 12.9955 11.9468 12.9955 11.8813 13.06L9.28133 15.66C9.01922 15.9159 8.60078 15.9159 8.33867 15.66C8.07841 15.3997 8.07841 14.9777 8.33867 14.7173L10.9387 12.1173C10.97 12.0862 10.9876 12.0438 10.9876 11.9997C10.9876 11.9555 10.97 11.9132 10.9387 11.882L8.33867 9.28201C8.07854 9.02133 8.07899 8.59913 8.33967 8.33901C8.60035 8.07888 9.02254 8.07933 9.28267 8.34001L11.8827 10.94C11.9139 10.9714 11.9564 10.989 12.0007 10.989C12.0449 10.989 12.0874 10.9714 12.1187 10.94L14.7187 8.34001C14.8846 8.16003 15.1357 8.08543 15.373 8.14568C15.6102 8.20592 15.7953 8.39133 15.8553 8.62865C15.9152 8.86597 15.8402 9.11704 15.66 9.28267L13.06 11.8827C13.0287 11.9138 13.0111 11.9562 13.0111 12.0003C13.0111 12.0445 13.0287 12.0869 13.06 12.118L15.66 14.7173Z" fill="#161616"/>
</svg>
