<svg width="24" height="24" viewBox="0 0 24 24" fill="none" xmlns="http://www.w3.org/2000/svg">
<path fill-rule="evenodd" clip-rule="evenodd" d="M13.7242 12.1326C13.689 12.0974 13.6691 12.0497 13.6691 11.9999C13.6691 11.9501 13.689 11.9023 13.7242 11.8671L20.6709 4.92092C21.1101 4.48104 21.1096 3.76837 20.6698 3.32911C20.2299 2.88986 19.5173 2.89036 19.078 3.33024L12.1321 10.2734C12.0969 10.3087 12.0492 10.3285 11.9994 10.3285C11.9496 10.3285 11.9018 10.3087 11.8666 10.2734L4.92071 3.33024C4.48147 2.89077 3.76916 2.89061 3.32972 3.32986C2.89027 3.76912 2.89011 4.48146 3.32934 4.92092L10.2745 11.8671C10.3098 11.9023 10.3296 11.9501 10.3296 11.9999C10.3296 12.0497 10.3098 12.0974 10.2745 12.1326L3.32934 19.0796C3.04521 19.3639 2.93431 19.7781 3.03843 20.1664C3.14254 20.5546 3.44586 20.8578 3.83411 20.9617C4.22237 21.0656 4.63657 20.9545 4.92071 20.6703L11.8666 13.7233C11.9018 13.688 11.9496 13.6682 11.9994 13.6682C12.0492 13.6682 12.0969 13.688 12.1321 13.7233L19.078 20.6703C19.5173 21.1097 20.2296 21.1099 20.669 20.6706C21.1085 20.2314 21.1086 19.519 20.6694 19.0796L13.7242 12.1326Z" fill="#161616"/>
</svg>
