<svg width="24" height="24" viewBox="0 0 24 24" fill="none" xmlns="http://www.w3.org/2000/svg">
<path fill-rule="evenodd" clip-rule="evenodd" d="M12.9579 12.0737C12.9383 12.0541 12.9273 12.0276 12.9273 11.9999C12.9273 11.9723 12.9383 11.9457 12.9579 11.9262L16.8172 8.06718C17.0612 7.8228 17.0609 7.42687 16.8165 7.18284C16.5722 6.93881 16.1763 6.93909 15.9322 7.18347L12.0734 11.0408C12.0539 11.0604 12.0273 11.0714 11.9997 11.0714C11.972 11.0714 11.9454 11.0604 11.9259 11.0408L8.06706 7.18347C7.82304 6.93932 7.42731 6.93923 7.18318 7.18326C6.93904 7.42729 6.93895 7.82303 7.18297 8.06718L11.0414 11.9262C11.061 11.9457 11.072 11.9723 11.072 11.9999C11.072 12.0276 11.061 12.0541 11.0414 12.0737L7.18297 15.9331C7.02512 16.091 6.96351 16.3212 7.02135 16.5369C7.07919 16.7525 7.2477 16.921 7.4634 16.9787C7.67909 17.0365 7.90921 16.9748 8.06706 16.8168L11.9259 12.9574C11.9454 12.9378 11.972 12.9268 11.9997 12.9268C12.0273 12.9268 12.0539 12.9378 12.0734 12.9574L15.9322 16.8168C16.1763 17.061 16.572 17.0611 16.8161 16.817C17.0603 16.573 17.0604 16.1772 16.8163 15.9331L12.9579 12.0737Z" fill="#161616"/>
</svg>
