<svg width="24" height="24" viewBox="0 0 24 24" fill="none" xmlns="http://www.w3.org/2000/svg">
<path fill-rule="evenodd" clip-rule="evenodd" d="M12 2C6.47715 2 2 6.47715 2 12C2 17.5228 6.47715 22 12 22C17.5228 22 22 17.5228 22 12C21.9936 6.47982 17.5202 2.00643 12 2ZM16.575 15.3967C16.7916 15.6059 16.8785 15.9157 16.8022 16.2071C16.726 16.4984 16.4984 16.726 16.2071 16.8022C15.9157 16.8785 15.6059 16.7916 15.3967 16.575L12.1467 13.325C12.0649 13.2443 11.9334 13.2443 11.8517 13.325L8.60167 16.575C8.27403 16.8949 7.75097 16.8949 7.42333 16.575C7.09802 16.2496 7.09802 15.7221 7.42333 15.3967L10.6733 12.1467C10.7125 12.1077 10.7345 12.0548 10.7345 11.9996C10.7345 11.9444 10.7125 11.8914 10.6733 11.8525L7.42333 8.6025C7.09818 8.27665 7.09874 7.74891 7.42458 7.42375C7.75043 7.09859 8.27818 7.09915 8.60333 7.425L11.8533 10.675C11.8924 10.7142 11.9455 10.7362 12.0008 10.7362C12.0562 10.7362 12.1092 10.7142 12.1483 10.675L15.3983 7.425C15.6057 7.20003 15.9197 7.10678 16.2162 7.18209C16.5128 7.2574 16.7442 7.48915 16.8191 7.78581C16.894 8.08246 16.8003 8.39629 16.575 8.60333L13.325 11.8533C13.2859 11.8923 13.2639 11.9452 13.2639 12.0004C13.2639 12.0556 13.2859 12.1086 13.325 12.1475L16.575 15.3967Z" fill="#161616"/>
</svg>
