<?xml version="1.0" encoding="UTF-8"?>
<svg width="24px" height="24px" viewBox="0 0 24 24" version="1.1" xmlns="http://www.w3.org/2000/svg" xmlns:xlink="http://www.w3.org/1999/xlink">
    <title>Bold / Medium / Info </title>
    <g id="Bold-/-Medium-/-Info-" stroke="none" stroke-width="1" fill="none" fill-rule="evenodd">
        <path d="M12,4 C7.581722,4 4,7.581722 4,12 C4,16.418278 7.581722,20 12,20 C16.418278,20 20,16.418278 20,12 C19.9952234,7.58370203 16.416298,4.00477657 12,4 Z M12.1666667,7.33333333 C12.7189514,7.33333333 13.1666667,7.78104858 13.1666667,8.33333333 C13.1666667,8.88561808 12.7189514,9.33333333 12.1666667,9.33333333 C11.6143819,9.33333333 11.1666667,8.88561808 11.1666667,8.33333333 C11.1666667,7.78104858 11.6143819,7.33333333 12.1666667,7.33333333 Z M13.6666667,16.3333333 L11,16.3333333 C10.6318102,16.3333333 10.3333333,16.0348565 10.3333333,15.6666667 C10.3333333,15.2984768 10.6318102,15 11,15 L11.5,15 C11.5920475,15 11.6666667,14.9253808 11.6666667,14.8333333 L11.6666667,11.8333333 C11.6666667,11.7412859 11.5920475,11.6666667 11.5,11.6666667 L11,11.6666667 C10.6318102,11.6666667 10.3333333,11.3681898 10.3333333,11 C10.3333333,10.6318102 10.6318102,10.3333333 11,10.3333333 L11.6666667,10.3333333 C12.4030463,10.3333333 13,10.930287 13,11.6666667 L13,14.8333333 C13,14.9253808 13.0746192,15 13.1666667,15 L13.6666667,15 C14.0348565,15 14.3333333,15.2984768 14.3333333,15.6666667 C14.3333333,16.0348565 14.0348565,16.3333333 13.6666667,16.3333333 Z" id="Shape" fill="#050505"></path>
    </g>
</svg>