<?xml version="1.0" encoding="UTF-8"?>
<svg width="24px" height="24px" viewBox="0 0 24 24" version="1.1" xmlns="http://www.w3.org/2000/svg" xmlns:xlink="http://www.w3.org/1999/xlink">
    <title>Bold / Medium / Check / With Circle</title>
    <g id="Bold-/-Medium-/-Check-/-With-Circle" stroke="none" stroke-width="1" fill="none" fill-rule="evenodd">
        <path d="M12,4 C7.581722,4 4,7.581722 4,12 C4,16.418278 7.581722,20 12,20 C16.418278,20 20,16.418278 20,12 C19.9948568,7.58385413 16.4161459,4.00514317 12,4 Z M16.618,9.46666667 L12.0546667,15.6593333 C11.9458357,15.8037264 11.7835522,15.8983367 11.6042812,15.9219052 C11.4250103,15.9454737 11.2437874,15.8960237 11.1013333,15.7846667 L7.84266667,13.1793333 C7.55511041,12.9492147 7.50854802,12.5295563 7.73866667,12.242 C7.96878531,11.9544437 8.38844374,11.9078814 8.676,12.138 L11.3933333,14.312 L15.5446667,8.678 C15.6807947,8.47372668 15.9181674,8.36078844 16.162541,8.38402501 C16.4069147,8.40726159 16.6187482,8.56291318 16.7139376,8.78918161 C16.809127,9.01545003 16.77227,9.27572379 16.618,9.46666667 Z" id="Shape" fill="#050505"></path>
    </g>
</svg>