<svg width="24" height="24" viewBox="0 0 24 24" fill="none" xmlns="http://www.w3.org/2000/svg">
<path fill-rule="evenodd" clip-rule="evenodd" d="M12.2464 12.5333C12.279 12.5052 12.3021 12.4677 12.3126 12.4259C12.323 12.3841 12.3203 12.3401 12.3047 12.3C12.2464 12.1667 12.0881 12.1667 12.0048 12.1667C11.3459 12.1667 10.7017 11.9712 10.1538 11.6049C9.60592 11.2386 9.17889 10.718 8.92672 10.1089C8.67455 9.49986 8.60857 8.82963 8.73712 8.18303C8.86568 7.53643 9.18299 6.94248 9.64894 6.47631C10.1149 6.01013 10.7085 5.69267 11.3548 5.56405C12.0011 5.43543 12.671 5.50144 13.2798 5.75373C13.8886 6.00603 14.409 6.43327 14.7751 6.98143C15.1411 7.5296 15.3365 8.17406 15.3365 8.83333C15.3366 9.54691 15.1025 10.2408 14.6702 10.8083C14.6462 10.8441 14.6334 10.8861 14.6334 10.9292C14.6334 10.9722 14.6462 11.0143 14.6702 11.05C14.6942 11.086 14.7285 11.114 14.7686 11.1303C14.8087 11.1467 14.8527 11.1506 14.8951 11.1417C15.438 10.9935 15.9982 10.9178 16.561 10.9167C17.5873 10.919 18.5993 11.1586 19.5179 11.6167C19.5518 11.6373 19.5907 11.6482 19.6303 11.6482C19.67 11.6482 19.7089 11.6373 19.7428 11.6167C20.361 11.1321 20.9454 10.6059 21.4919 10.0417C21.648 9.88673 21.772 9.70239 21.8566 9.49929C21.9411 9.29619 21.9847 9.07835 21.9847 8.85833C21.9847 8.63831 21.9411 8.42047 21.8566 8.21737C21.772 8.01427 21.648 7.82994 21.4919 7.675C19.3429 5.39167 15.7447 3 12.1298 3H11.8799C8.26497 3 4.66671 5.39167 2.49276 7.65C2.33662 7.80494 2.21269 7.98927 2.12812 8.19237C2.04354 8.39547 2 8.61331 2 8.83333C2 9.05335 2.04354 9.27119 2.12812 9.47429C2.21269 9.67739 2.33662 9.86173 2.49276 10.0167C4.40017 11.9833 7.38206 14.0583 10.5056 14.55C10.5485 14.5581 10.593 14.5519 10.6321 14.5324C10.6712 14.5128 10.7028 14.4809 10.7221 14.4417C11.1112 13.7189 11.6276 13.0724 12.2464 12.5333ZM12.0048 10.0833C12.6948 10.0833 13.2542 9.52368 13.2542 8.83333C13.2542 8.14297 12.6948 7.58333 12.0048 7.58333C11.3147 7.58333 10.7554 8.14297 10.7554 8.83333C10.7554 9.52368 11.3147 10.0833 12.0048 10.0833ZM13.578 13.0795C14.4684 12.4843 15.5151 12.1667 16.5859 12.1667C18.0211 12.1689 19.397 12.7403 20.4118 13.7556C21.4267 14.7709 21.9978 16.1474 22 17.5833C22 18.6546 21.6824 19.7019 21.0875 20.5927C20.4926 21.4834 19.6471 22.1777 18.6578 22.5877C17.6685 22.9976 16.5799 23.1049 15.5297 22.8959C14.4795 22.6869 13.5148 22.171 12.7576 21.4135C12.0004 20.656 11.4848 19.6908 11.2759 18.6401C11.067 17.5893 11.1742 16.5002 11.584 15.5105C11.9938 14.5207 12.6877 13.6747 13.578 13.0795ZM17.0857 19.8583L19.5012 16.625C19.613 16.4474 19.6537 16.2342 19.6152 16.0279C19.5767 15.8216 19.4618 15.6374 19.2935 15.5122C19.1252 15.3869 18.9158 15.3298 18.7073 15.3523C18.4987 15.3748 18.3063 15.4751 18.1685 15.6333L16.0362 18.475C16.0185 18.4987 15.9961 18.5184 15.9702 18.5328C15.9444 18.5472 15.9157 18.5559 15.8863 18.5583C15.8566 18.5597 15.827 18.5544 15.7996 18.5429C15.7722 18.5313 15.7478 18.5138 15.728 18.4917L14.8118 17.5833C14.7371 17.4961 14.6452 17.4252 14.5419 17.3752C14.4386 17.3252 14.326 17.2971 14.2113 17.2927C14.0966 17.2882 13.9822 17.3076 13.8753 17.3495C13.7684 17.3914 13.6713 17.4549 13.5902 17.5361C13.509 17.6173 13.4455 17.7145 13.4036 17.8214C13.3617 17.9283 13.3424 18.0428 13.3468 18.1575C13.3513 18.2723 13.3794 18.3849 13.4293 18.4883C13.4793 18.5917 13.5502 18.6836 13.6374 18.7583L14.8867 20.0083C15.034 20.1568 15.2115 20.2718 15.4071 20.3456C15.6027 20.4194 15.8119 20.4502 16.0205 20.436C16.229 20.4217 16.4321 20.3628 16.6159 20.2631C16.7997 20.1635 16.9599 20.0254 17.0857 19.8583Z" fill="#161616"/>
</svg>
