<svg width="24" height="24" viewBox="0 0 24 24" fill="none" xmlns="http://www.w3.org/2000/svg">
<path fill-rule="evenodd" clip-rule="evenodd" d="M22 13.9163C22.0005 12.2937 20.9985 10.8474 19.5004 10.3082V9.66049C19.5004 5.42972 16.1431 2 12.0016 2C7.86013 2 4.50281 5.42972 4.50281 9.66049V10.3082C3.00309 10.8483 2 12.2961 2 13.9206C2 15.545 3.00309 16.9928 4.50281 17.5329C4.88614 17.6714 5.31143 17.6107 5.64295 17.3702C5.97447 17.1298 6.17078 16.7396 6.16921 16.3243V9.66049C6.16921 7.53185 7.28086 5.5649 9.08541 4.50057C10.89 3.43625 13.1133 3.43625 14.9178 4.50057C16.7224 5.5649 17.834 7.53185 17.834 9.66049V16.3243C17.8376 16.6824 17.9889 17.0223 18.2506 17.2606V17.744C18.2506 18.9986 17.1749 19.4463 16.1676 19.4463H14.6862C14.3091 18.7791 13.5403 18.4538 12.8117 18.6532C12.0832 18.8526 11.5766 19.527 11.5766 20.2975C11.5766 21.068 12.0832 21.7424 12.8117 21.9418C13.5403 22.1413 14.3091 21.8159 14.6862 21.1487H16.1676C18.3747 21.1487 19.917 19.7485 19.917 17.744V17.3372C21.1897 16.6921 21.9962 15.3677 22 13.9163Z" fill="#161616"/>
</svg>
