<svg width="24" height="24" viewBox="0 0 24 24" fill="none" xmlns="http://www.w3.org/2000/svg">
<path fill-rule="evenodd" clip-rule="evenodd" d="M20 13.5331C20.0004 12.235 19.1988 11.0779 18.0003 10.6466V10.1284C18.0003 6.74378 15.3145 4 12.0013 4C8.68811 4 6.00225 6.74378 6.00225 10.1284V10.6466C4.80247 11.0787 4 12.2369 4 13.5365C4 14.836 4.80247 15.9943 6.00225 16.4263C6.30891 16.5371 6.64915 16.4886 6.91436 16.2962C7.17958 16.1038 7.33662 15.7917 7.33537 15.4594V10.1284C7.33537 8.42548 8.22468 6.85192 9.66832 6.00046C11.112 5.149 12.8906 5.149 14.3342 6.00046C15.7779 6.85192 16.6672 8.42548 16.6672 10.1284V15.4594C16.6701 15.7459 16.7911 16.0178 17.0005 16.2084V16.5952C17.0005 17.5989 16.14 17.9571 15.3341 17.9571H14.1489C13.8472 17.4233 13.2322 17.163 12.6494 17.3226C12.0666 17.4821 11.6613 18.0216 11.6613 18.638C11.6613 19.2544 12.0666 19.7939 12.6494 19.9535C13.2322 20.113 13.8472 19.8528 14.1489 19.3189H15.3341C17.0998 19.3189 18.3336 18.1988 18.3336 16.5952V16.2697C19.3517 15.7537 19.9969 14.6941 20 13.5331Z" fill="#161616"/>
</svg>
