<svg width="24" height="24" viewBox="0 0 24 24" fill="none" xmlns="http://www.w3.org/2000/svg">
<path fill-rule="evenodd" clip-rule="evenodd" d="M18 13.1498C18.0003 12.1762 17.3991 11.3085 16.5002 10.9849V10.5963C16.5002 8.05783 14.4858 6 12.001 6C9.51608 6 7.50168 8.05783 7.50168 10.5963V10.9849C6.60185 11.309 6 12.1777 6 13.1523C6 14.127 6.60185 14.9957 7.50168 15.3198C7.73168 15.4028 7.98686 15.3664 8.18577 15.2221C8.38468 15.0779 8.50247 14.8438 8.50152 14.5946V10.5963C8.50152 9.31911 9.16851 8.13894 10.2512 7.50034C11.334 6.86175 12.668 6.86175 13.7507 7.50034C14.8334 8.13894 15.5004 9.31911 15.5004 10.5963V14.5946C15.5026 14.8094 15.5933 15.0134 15.7504 15.1563V15.4464C15.7504 16.1992 15.105 16.4678 14.5006 16.4678H13.6117C13.3854 16.0675 12.9242 15.8723 12.487 15.9919C12.0499 16.1116 11.746 16.5162 11.746 16.9785C11.746 17.4408 12.0499 17.8455 12.487 17.9651C12.9242 18.0848 13.3854 17.8896 13.6117 17.4892H14.5006C15.8248 17.4892 16.7502 16.6491 16.7502 15.4464V15.2023C17.5138 14.8153 17.9977 14.0206 18 13.1498Z" fill="#161616"/>
</svg>
