<svg width="24" height="24" viewBox="0 0 24 24" fill="none" xmlns="http://www.w3.org/2000/svg">
<path fill-rule="evenodd" clip-rule="evenodd" d="M16.92 12C16.92 14.7172 14.7172 16.92 12 16.92C9.28276 16.92 7.08 14.7172 7.08 12C7.08 9.28276 9.28276 7.08 12 7.08C14.7172 7.08 16.92 9.28276 16.92 12ZM18 12C18 15.3137 15.3137 18 12 18C8.68629 18 6 15.3137 6 12C6 8.68629 8.68629 6 12 6C15.3137 6 18 8.68629 18 12ZM12.8 12.46C12.6177 12.5396 12.4999 12.7196 12.5 12.9185C12.5 13.1947 12.2761 13.4185 12 13.4185C11.7239 13.4185 11.5 13.1947 11.5 12.9185C11.4999 12.322 11.8533 11.7821 12.4 11.5435C12.8578 11.3437 13.098 10.8367 12.9626 10.3559C12.8271 9.87513 12.3577 9.56799 11.8629 9.63646C11.3681 9.70493 10.9997 10.128 11 10.6275C11 10.9037 10.7761 11.1275 10.5 11.1275C10.2239 11.1275 9.99999 10.9037 9.99999 10.6275C9.99998 9.62864 10.737 8.78289 11.7265 8.64629C12.716 8.50969 13.6546 9.12412 13.9252 10.0857C14.1958 11.0472 13.7155 12.061 12.8 12.4605V12.46ZM12 15.5C11.5858 15.5 11.25 15.1642 11.25 14.75C11.25 14.3358 11.5858 14 12 14C12.4142 14 12.75 14.3358 12.75 14.75C12.75 15.1642 12.4142 15.5 12 15.5Z" fill="#161616"/>
</svg>
