<svg width="24" height="24" viewBox="0 0 24 24" fill="none" xmlns="http://www.w3.org/2000/svg">
<path fill-rule="evenodd" clip-rule="evenodd" d="M12 4C7.58172 4 4 7.58172 4 12C4 16.4183 7.58172 20 12 20C16.4183 20 20 16.4183 20 12C19.9952 7.5837 16.4163 4.00478 12 4ZM12 16.6667C11.4477 16.6667 11 16.2189 11 15.6667C11 15.1144 11.4477 14.6667 12 14.6667C12.5523 14.6667 13 15.1144 13 15.6667C13 16.2189 12.5523 16.6667 12 16.6667ZM13.0666 12.6133C12.8236 12.7194 12.6665 12.9595 12.6666 13.2247C12.6666 13.5929 12.3682 13.8913 12 13.8913C11.6318 13.8913 11.3333 13.5929 11.3333 13.2247C11.3332 12.4293 11.8043 11.7095 12.5333 11.3913C13.1437 11.1249 13.4639 10.4489 13.2834 9.80787C13.1028 9.16679 12.4769 8.75726 11.8172 8.84856C11.1575 8.93986 10.6663 9.50398 10.6666 10.17C10.6666 10.5382 10.3682 10.8367 9.99997 10.8367C9.63178 10.8367 9.3333 10.5382 9.3333 10.17C9.33328 8.83814 10.3159 7.71048 11.6353 7.52834C12.9546 7.34621 14.2061 8.16545 14.5669 9.4475C14.9277 10.7296 14.2873 12.0813 13.0666 12.614V12.6133Z" fill="#161616"/>
</svg>
