<svg width="24" height="24" viewBox="0 0 24 24" fill="none" xmlns="http://www.w3.org/2000/svg">
<path fill-rule="evenodd" clip-rule="evenodd" d="M12 6C8.68629 6 6 8.68629 6 12C6 15.3137 8.68629 18 12 18C15.3137 18 18 15.3137 18 12C17.9964 8.68778 15.3122 6.00358 12 6ZM12 15.5C11.5858 15.5 11.25 15.1642 11.25 14.75C11.25 14.3358 11.5858 14 12 14C12.4142 14 12.75 14.3358 12.75 14.75C12.75 15.1642 12.4142 15.5 12 15.5ZM12.8 12.46C12.6177 12.5396 12.4999 12.7196 12.5 12.9185C12.5 13.1946 12.2761 13.4185 12 13.4185C11.7238 13.4185 11.5 13.1946 11.5 12.9185C11.4999 12.322 11.8533 11.7821 12.4 11.5435C12.8578 11.3437 13.0979 10.8367 12.9625 10.3559C12.8271 9.87509 12.3577 9.56795 11.8629 9.63642C11.3681 9.7049 10.9997 10.128 11 10.6275C11 10.9036 10.7761 11.1275 10.5 11.1275C10.2238 11.1275 9.99998 10.9036 9.99998 10.6275C9.99996 9.6286 10.737 8.78286 11.7265 8.64626C12.716 8.50966 13.6546 9.12409 13.9252 10.0856C14.1958 11.0472 13.7155 12.0609 12.8 12.4605V12.46Z" fill="#161616"/>
</svg>
