<svg width="24" height="24" viewBox="0 0 24 24" fill="none" xmlns="http://www.w3.org/2000/svg">
<path fill-rule="evenodd" clip-rule="evenodd" d="M18.56 12C18.56 15.623 15.623 18.56 12 18.56C8.37701 18.56 5.44 15.623 5.44 12C5.44 8.37701 8.37701 5.44 12 5.44C15.623 5.44 18.56 8.37701 18.56 12ZM20 12C20 16.4183 16.4183 20 12 20C7.58172 20 4 16.4183 4 12C4 7.58172 7.58172 4 12 4C16.4183 4 20 7.58172 20 12ZM13.0667 12.6134C12.8236 12.7195 12.6665 12.9595 12.6667 13.2247C12.6667 13.5929 12.3682 13.8914 12 13.8914C11.6318 13.8914 11.3333 13.5929 11.3333 13.2247C11.3332 12.4294 11.8044 11.7095 12.5333 11.3914C13.1437 11.125 13.464 10.449 13.2834 9.80792C13.1029 9.16684 12.4769 8.75731 11.8172 8.84861C11.1575 8.93991 10.6663 9.50403 10.6667 10.17C10.6667 10.5382 10.3682 10.8367 10 10.8367C9.63181 10.8367 9.33333 10.5382 9.33333 10.17C9.33331 8.83819 10.316 7.71053 11.6353 7.52839C12.9547 7.34626 14.2061 8.1655 14.5669 9.44755C14.9278 10.7296 14.2873 12.0813 13.0667 12.614V12.6134ZM12 16.6667C11.4477 16.6667 11 16.219 11 15.6667C11 15.1144 11.4477 14.6667 12 14.6667C12.5523 14.6667 13 15.1144 13 15.6667C13 16.219 12.5523 16.6667 12 16.6667Z" fill="#161616"/>
</svg>
