<svg width="24" height="24" viewBox="0 0 24 24" fill="none" xmlns="http://www.w3.org/2000/svg">
<path fill-rule="evenodd" clip-rule="evenodd" d="M20.2 12C20.2 16.5287 16.5287 20.2 12 20.2C7.47126 20.2 3.8 16.5287 3.8 12C3.8 7.47126 7.47126 3.8 12 3.8C16.5287 3.8 20.2 7.47126 20.2 12ZM22 12C22 17.5228 17.5228 22 12 22C6.47715 22 2 17.5228 2 12C2 6.47715 6.47715 2 12 2C17.5228 2 22 6.47715 22 12ZM13.3333 12.7667C13.0295 12.8993 12.8332 13.1994 12.8333 13.5309C12.8333 13.9911 12.4602 14.3642 12 14.3642C11.5398 14.3642 11.1667 13.9911 11.1667 13.5309C11.1665 12.5367 11.7555 11.6369 12.6667 11.2392C13.4297 10.9062 13.8299 10.0612 13.6043 9.2599C13.3786 8.45855 12.5962 7.94664 11.7715 8.06077C10.9469 8.17489 10.3329 8.88004 10.3333 9.71256C10.3333 10.1728 9.96023 10.5459 9.5 10.5459C9.03976 10.5459 8.66666 10.1728 8.66666 9.71256C8.66664 8.04773 9.89497 6.63816 11.5442 6.41049C13.1933 6.18282 14.7576 7.20687 15.2087 8.80944C15.6597 10.412 14.8592 12.1016 13.3333 12.7676V12.7667ZM12 17.8334C11.3096 17.8334 10.75 17.2737 10.75 16.5834C10.75 15.893 11.3096 15.3334 12 15.3334C12.6904 15.3334 13.25 15.893 13.25 16.5834C13.25 17.2737 12.6904 17.8334 12 17.8334Z" fill="#161616"/>
</svg>
