<svg width="24" height="24" viewBox="0 0 24 24" fill="none" xmlns="http://www.w3.org/2000/svg">
<path fill-rule="evenodd" clip-rule="evenodd" d="M6.33333 4H17.6667C18.9553 4 20 5.04467 20 6.33333V15C20 16.2887 18.9553 17.3333 17.6667 17.3333H8.604C8.56879 17.3335 8.53453 17.3447 8.506 17.3653L5.05867 19.8727C4.85585 20.0201 4.58746 20.0413 4.36404 19.9274C4.14062 19.8136 3.99997 19.5841 4 19.3333V6.33333C4 5.04467 5.04467 4 6.33333 4ZM17.6666 16C18.2189 16 18.6666 15.5523 18.6666 15V6.33335C18.6666 5.78106 18.2189 5.33335 17.6666 5.33335H6.3333C5.78102 5.33335 5.3333 5.78106 5.3333 6.33335V17.6967C5.33384 17.7599 5.36994 17.8174 5.42663 17.8454C5.48237 17.8741 5.54957 17.8686 5.59997 17.8314L7.9413 16.1273C8.05524 16.0446 8.19246 16 8.3333 16H17.6666ZM13 14.3333C13 14.8856 12.5523 15.3333 12 15.3333C11.4477 15.3333 11 14.8856 11 14.3333C11 13.7811 11.4477 13.3333 12 13.3333C12.5523 13.3333 13 13.7811 13 14.3333ZM9.3333 8.836C9.3333 7.36324 10.5272 6.16934 12 6.16934C13.2627 6.16938 14.3523 7.05507 14.6103 8.29117C14.8683 9.52727 14.2239 10.7749 13.0666 11.28C12.8236 11.3861 12.6665 11.6261 12.6666 11.8913C12.6666 12.2595 12.3682 12.558 12 12.558C11.6318 12.558 11.3333 12.2595 11.3333 11.8913C11.3332 11.096 11.8043 10.3761 12.5333 10.058C13.1436 9.79163 13.4639 9.11578 13.2834 8.47475C13.103 7.83373 12.4773 7.42411 11.8176 7.51518C11.158 7.60624 10.6666 8.17007 10.6666 8.836C10.6666 9.20419 10.3682 9.50267 9.99997 9.50267C9.63178 9.50267 9.3333 9.20419 9.3333 8.836Z" fill="#161616"/>
</svg>
