<svg width="24" height="24" viewBox="0 0 24 24" fill="none" xmlns="http://www.w3.org/2000/svg">
<path fill-rule="evenodd" clip-rule="evenodd" d="M4.91667 2H19.0833C20.6942 2 22 3.30584 22 4.91667V15.75C22 17.3608 20.6942 18.6667 19.0833 18.6667H7.755C7.71099 18.6669 7.66816 18.6809 7.6325 18.7067L3.32333 21.8408C3.06982 22.0251 2.73433 22.0516 2.45505 21.9093C2.17578 21.767 1.99996 21.4801 2 21.1667V4.91667C2 3.30584 3.30584 2 4.91667 2ZM19.0833 17C19.7737 17 20.3333 16.4404 20.3333 15.75V4.91667C20.3333 4.22631 19.7737 3.66667 19.0833 3.66667H4.91667C4.22631 3.66667 3.66667 4.22631 3.66667 4.91667V19.1208C3.66734 19.1998 3.71247 19.2717 3.78333 19.3067C3.853 19.3426 3.937 19.3358 4 19.2892L6.92667 17.1592C7.06909 17.0557 7.24062 17 7.41667 17H19.0833ZM13.25 14.9167C13.25 15.607 12.6904 16.1667 12 16.1667C11.3096 16.1667 10.75 15.607 10.75 14.9167C10.75 14.2263 11.3096 13.6667 12 13.6667C12.6904 13.6667 13.25 14.2263 13.25 14.9167ZM8.66667 8.045C8.66667 6.20405 10.1591 4.71167 12 4.71167C13.5784 4.71172 14.9404 5.81884 15.2629 7.36396C15.5854 8.90909 14.78 10.4686 13.3333 11.1C13.0295 11.2326 12.8332 11.5327 12.8333 11.8642C12.8333 12.3244 12.4602 12.6975 12 12.6975C11.5398 12.6975 11.1667 12.3244 11.1667 11.8642C11.1665 10.87 11.7555 9.97018 12.6667 9.5725C13.4296 9.23953 13.8299 8.39472 13.6043 7.59344C13.3788 6.79216 12.5967 6.28013 11.7721 6.39397C10.9475 6.5078 10.3333 7.21259 10.3333 8.045C10.3333 8.50524 9.96024 8.87833 9.5 8.87833C9.03976 8.87833 8.66667 8.50524 8.66667 8.045Z" fill="#161616"/>
</svg>
