<svg width="20" height="20" viewBox="0 0 20 20" fill="none" xmlns="http://www.w3.org/2000/svg">
<path fill-rule="evenodd" clip-rule="evenodd" d="M18.2 10C18.2 14.5287 14.5287 18.2 10 18.2C5.47126 18.2 1.8 14.5287 1.8 10C1.8 5.47126 5.47126 1.8 10 1.8C14.5287 1.8 18.2 5.47126 18.2 10ZM20 10C20 15.5228 15.5228 20 10 20C4.47715 20 0 15.5228 0 10C0 4.47715 4.47715 0 10 0C15.5228 0 20 4.47715 20 10ZM11.3333 10.7667C11.0295 10.8993 10.8332 11.1994 10.8333 11.5309C10.8333 11.9911 10.4602 12.3642 10 12.3642C9.53976 12.3642 9.16666 11.9911 9.16666 11.5309C9.16651 10.5367 9.75547 9.6369 10.6667 9.23922C11.4297 8.90622 11.8299 8.06124 11.6043 7.2599C11.3786 6.45855 10.5962 5.94664 9.77153 6.06077C8.94687 6.17489 8.3329 6.88004 8.33333 7.71256C8.33333 8.17279 7.96023 8.54589 7.5 8.54589C7.03976 8.54589 6.66666 8.17279 6.66666 7.71256C6.66664 6.04773 7.89497 4.63816 9.54416 4.41049C11.1933 4.18282 12.7576 5.20687 13.2087 6.80944C13.6597 8.412 12.8592 10.1016 11.3333 10.7676V10.7667ZM10 15.8334C9.30964 15.8334 8.75 15.2737 8.75 14.5834C8.75 13.893 9.30964 13.3334 10 13.3334C10.6904 13.3334 11.25 13.893 11.25 14.5834C11.25 15.2737 10.6904 15.8334 10 15.8334Z" fill="#161616"/>
</svg>
