<svg width="24" height="24" viewBox="0 0 24 24" fill="none" xmlns="http://www.w3.org/2000/svg">
<path fill-rule="evenodd" clip-rule="evenodd" d="M7.75 6H16.25C17.2165 6 18 6.7835 18 7.75V14.25C18 15.2165 17.2165 16 16.25 16H9.453C9.4266 16.0001 9.4009 16.0085 9.3795 16.024L6.794 17.9045C6.64189 18.0151 6.4406 18.031 6.27303 17.9456C6.10547 17.8602 5.99997 17.6881 6 17.5V7.75C6 6.7835 6.7835 6 7.75 6ZM16.25 15C16.6642 15 17 14.6642 17 14.25V7.75001C17 7.3358 16.6642 7.00001 16.25 7.00001H7.74998C7.33576 7.00001 6.99998 7.3358 6.99998 7.75001V16.2725C7.00038 16.3199 7.02746 16.363 7.06998 16.384C7.11177 16.4055 7.16217 16.4015 7.19998 16.3735L8.95598 15.0955C9.04143 15.0334 9.14435 15 9.24998 15H16.25ZM12.75 13.75C12.75 14.1642 12.4142 14.5 12 14.5C11.5858 14.5 11.25 14.1642 11.25 13.75C11.25 13.3358 11.5858 13 12 13C12.4142 13 12.75 13.3358 12.75 13.75ZM9.99998 9.627C9.99998 8.52243 10.8954 7.627 12 7.627C12.947 7.62703 13.7642 8.29131 13.9577 9.21838C14.1512 10.1455 13.6679 11.0811 12.8 11.46C12.6177 11.5396 12.4999 11.7196 12.5 11.9185C12.5 12.1946 12.2761 12.4185 12 12.4185C11.7238 12.4185 11.5 12.1946 11.5 11.9185C11.4999 11.322 11.8533 10.7821 12.4 10.5435C12.8577 10.3437 13.0979 9.83683 12.9626 9.35607C12.8273 8.8753 12.358 8.56808 11.8632 8.63638C11.3685 8.70468 11 9.12755 11 9.627C11 9.90314 10.7761 10.127 10.5 10.127C10.2238 10.127 9.99998 9.90314 9.99998 9.627Z" fill="#161616"/>
</svg>
