<svg width="24" height="24" viewBox="0 0 24 24" fill="none" xmlns="http://www.w3.org/2000/svg">
<path fill-rule="evenodd" clip-rule="evenodd" d="M12 6C8.68629 6 6 8.68629 6 12C6 15.3137 8.68629 18 12 18C15.3137 18 18 15.3137 18 12C17.9961 8.68789 15.3121 6.00386 12 6ZM15.4635 10.1L12.041 14.7445C11.9594 14.8528 11.8377 14.9238 11.7032 14.9414C11.5688 14.9591 11.4328 14.922 11.326 14.8385L8.882 12.8845C8.66633 12.7119 8.63141 12.3972 8.804 12.1815C8.97659 11.9658 9.29133 11.9309 9.507 12.1035L11.545 13.734L14.6585 9.5085C14.7606 9.3553 14.9386 9.27059 15.1219 9.28802C15.3052 9.30545 15.4641 9.42219 15.5355 9.59189C15.6068 9.76159 15.5792 9.95679 15.4635 10.1Z" fill="#161616"/>
</svg>
