<svg width="24" height="24" viewBox="0 0 24 24" fill="none" xmlns="http://www.w3.org/2000/svg">
<path d="M14.9061 9.00671C15.07 8.98186 15.237 9.02315 15.3705 9.1215C15.5045 9.21976 15.5939 9.36739 15.6187 9.53171C15.6436 9.69603 15.602 9.86348 15.503 9.997L12.003 14.747C11.8841 14.905 11.6977 14.9976 11.5 14.997C11.3583 14.9983 11.2204 14.9508 11.1095 14.8625L8.6095 12.8625C8.42953 12.7249 8.3381 12.5007 8.37054 12.2765C8.40298 12.0523 8.5542 11.8632 8.76579 11.7822C8.97738 11.7013 9.2162 11.7412 9.39 11.8865L11.3825 13.4805L14.4965 9.254C14.5948 9.12051 14.7421 9.03156 14.9061 9.00671Z" fill="#161616"/>
<path fill-rule="evenodd" clip-rule="evenodd" d="M17 6H7C6.44772 6 6 6.44772 6 7V17C6 17.5523 6.44772 18 7 18H17C17.5523 18 18 17.5523 18 17V7C18 6.44772 17.5523 6 17 6ZM17 16.875C17 16.944 16.944 17 16.875 17H7.125C7.09181 17.0001 7.05994 16.987 7.03646 16.9635C7.01299 16.9401 6.99987 16.9082 7 16.875V7.1245C7 7.09139 7.01319 7.05965 7.03664 7.03629C7.0601 7.01293 7.09189 6.99987 7.125 7H16.875C16.944 7 17 7.05596 17 7.125V16.875Z" fill="#161616"/>
</svg>
