<svg width="24" height="24" viewBox="0 0 24 24" fill="none" xmlns="http://www.w3.org/2000/svg">
<path fill-rule="evenodd" clip-rule="evenodd" d="M12 4C7.58172 4 4 7.58172 4 12C4 16.4183 7.58172 20 12 20C16.4183 20 20 16.4183 20 12C19.9949 7.58385 16.4161 4.00514 12 4ZM16.618 9.46667L12.0547 15.6593C11.9458 15.8037 11.7835 15.8983 11.6043 15.9219C11.425 15.9455 11.2438 15.896 11.1013 15.7847L7.84266 13.1793C7.55511 12.9492 7.50855 12.5296 7.73866 12.242C7.96878 11.9544 8.38844 11.9079 8.676 12.138L11.3933 14.312L15.5447 8.678C15.6808 8.47373 15.9182 8.36079 16.1625 8.38403C16.4069 8.40726 16.6187 8.56291 16.7139 8.78918C16.8091 9.01545 16.7723 9.27573 16.618 9.46667Z" fill="#161616"/>
</svg>
