<svg width="24" height="24" viewBox="0 0 24 24" fill="none" xmlns="http://www.w3.org/2000/svg">
<path fill-rule="evenodd" clip-rule="evenodd" d="M19.8987 7.08802L17.9205 5.10408C17.854 5.03745 17.7637 5 17.6696 5C17.5755 5 17.4853 5.03745 17.4188 5.10408L9.06358 13.465C8.99711 13.5316 8.90687 13.5691 8.81275 13.5691C8.71864 13.5691 8.62839 13.5316 8.56192 13.465L6.58365 11.481C6.51719 11.4144 6.42694 11.377 6.33283 11.377C6.23871 11.377 6.14846 11.4144 6.082 11.481L4.10373 13.465C3.96542 13.6033 3.96542 13.8276 4.10373 13.9659L8.56192 18.4248C8.62839 18.4915 8.71864 18.5289 8.81275 18.5289C8.90687 18.5289 8.99711 18.4915 9.06358 18.4248L19.8987 7.58401C20.0338 7.44625 20.0338 7.22578 19.8987 7.08802Z" fill="#161616"/>
</svg>
