<svg width="24" height="24" viewBox="0 0 24 24" fill="none" xmlns="http://www.w3.org/2000/svg">
<path fill-rule="evenodd" clip-rule="evenodd" d="M17.924 8.56602L16.4403 7.07806C16.3905 7.02809 16.3228 7 16.2522 7C16.1816 7 16.114 7.02809 16.0641 7.07806L9.79768 13.3487C9.74784 13.3987 9.68015 13.4268 9.60956 13.4268C9.53898 13.4268 9.47129 13.3987 9.42144 13.3487L7.93774 11.8608C7.88789 11.8108 7.82021 11.7827 7.74962 11.7827C7.67903 11.7827 7.61135 11.8108 7.5615 11.8608L6.0778 13.3487C5.97407 13.4525 5.97407 13.6207 6.0778 13.7244L9.42144 17.0686C9.47129 17.1186 9.53898 17.1467 9.60956 17.1467C9.68015 17.1467 9.74784 17.1186 9.79768 17.0686L17.924 8.93801C18.0253 8.83469 18.0253 8.66933 17.924 8.56602Z" fill="#161616"/>
</svg>
