<svg width="24" height="24" viewBox="0 0 24 24" fill="none" xmlns="http://www.w3.org/2000/svg">
<path d="M15.8747 8.00894C16.0933 7.97581 16.316 8.03087 16.494 8.162C16.6727 8.29301 16.7918 8.48985 16.825 8.70894C16.8581 8.92804 16.8026 9.15131 16.6707 9.32933L12.004 15.6627C11.8455 15.8733 11.5969 15.9968 11.3333 15.996C11.1443 15.9978 10.9605 15.9344 10.8127 15.8167L7.47933 13.15C7.23937 12.9665 7.11747 12.6676 7.16072 12.3687C7.20397 12.0697 7.4056 11.8176 7.68772 11.7097C7.96984 11.6017 8.28827 11.6549 8.52 11.8487L11.1767 13.974L15.3287 8.33867C15.4598 8.16068 15.6562 8.04208 15.8747 8.00894Z" fill="#161616"/>
<path fill-rule="evenodd" clip-rule="evenodd" d="M18.6667 4H5.33333C4.59695 4 4 4.59695 4 5.33333V18.6667C4 19.403 4.59695 20 5.33333 20H18.6667C19.403 20 20 19.403 20 18.6667V5.33333C20 4.59695 19.403 4 18.6667 4ZM18.6667 18.5C18.6667 18.592 18.592 18.6667 18.5 18.6667H5.5C5.45574 18.6668 5.41325 18.6493 5.38195 18.618C5.35066 18.5868 5.33316 18.5443 5.33333 18.5V5.49933C5.33333 5.45519 5.35091 5.41287 5.38219 5.38172C5.41346 5.35057 5.45586 5.33316 5.5 5.33333H18.5C18.592 5.33333 18.6667 5.40795 18.6667 5.5V18.5Z" fill="#161616"/>
</svg>
