<svg width="24" height="24" viewBox="0 0 24 24" fill="none" xmlns="http://www.w3.org/2000/svg">
<path d="M16.8434 7.01118C17.1166 6.96977 17.3951 7.03859 17.6175 7.2025C17.8409 7.36626 17.9898 7.61231 18.0312 7.88618C18.0727 8.16004 18.0033 8.43914 17.8383 8.66167L12.005 16.5783C11.8069 16.8416 11.4962 16.9961 11.1667 16.995C10.9304 16.9972 10.7006 16.918 10.5158 16.7708L6.34917 13.4375C6.04921 13.2082 5.89684 12.8345 5.9509 12.4608C6.00496 12.0871 6.257 11.772 6.60965 11.6371C6.9623 11.5022 7.36034 11.5686 7.65 11.8108L10.9708 14.4675L16.1608 7.42333C16.3247 7.20086 16.5702 7.0526 16.8434 7.01118Z" fill="#161616"/>
<path fill-rule="evenodd" clip-rule="evenodd" d="M20.3333 2H3.66667C2.74619 2 2 2.74619 2 3.66667V20.3333C2 21.2538 2.74619 22 3.66667 22H20.3333C21.2538 22 22 21.2538 22 20.3333V3.66667C22 2.74619 21.2538 2 20.3333 2ZM20.3333 20.125C20.3333 20.2401 20.2401 20.3333 20.125 20.3333H3.875C3.81968 20.3336 3.76656 20.3117 3.72744 20.2726C3.68832 20.2334 3.66644 20.1803 3.66667 20.125V3.87417C3.66667 3.81899 3.68864 3.76608 3.72774 3.72715C3.76683 3.68821 3.81982 3.66645 3.875 3.66667H20.125C20.2401 3.66667 20.3333 3.75994 20.3333 3.875V20.125Z" fill="#161616"/>
</svg>
