<svg width="24" height="24" viewBox="0 0 24 24" fill="none" xmlns="http://www.w3.org/2000/svg">
<path fill-rule="evenodd" clip-rule="evenodd" d="M21.8734 6.61003L19.4006 4.1301C19.3175 4.04681 19.2047 4 19.087 4C18.9694 4 18.8566 4.04681 18.7735 4.1301L8.32947 14.5812C8.24639 14.6645 8.13358 14.7113 8.01594 14.7113C7.8983 14.7113 7.78549 14.6645 7.70241 14.5812L5.22957 12.1013C5.14648 12.018 5.03368 11.9712 4.91603 11.9712C4.79839 11.9712 4.68558 12.018 4.6025 12.1013L2.12966 14.5812C1.95678 14.7541 1.95678 15.0345 2.12966 15.2074L7.70241 20.781C7.78549 20.8643 7.8983 20.9111 8.01594 20.9111C8.13358 20.9111 8.24639 20.8643 8.32947 20.781L21.8734 7.23001C22.0422 7.05781 22.0422 6.78222 21.8734 6.61003Z" fill="#161616"/>
</svg>
