<svg width="24" height="24" viewBox="0 0 24 24" fill="none" xmlns="http://www.w3.org/2000/svg">
<path fill-rule="evenodd" clip-rule="evenodd" d="M12 2C6.47715 2 2 6.47715 2 12C2 17.5228 6.47715 22 12 22C17.5228 22 22 17.5228 22 12C21.9936 6.47982 17.5202 2.00643 12 2ZM17.7725 8.83333L12.0683 16.5742C11.9323 16.7547 11.7294 16.8729 11.5054 16.9024C11.2813 16.9318 11.0547 16.87 10.8767 16.7308L6.80333 13.4742C6.44389 13.1865 6.38568 12.6619 6.67333 12.3025C6.96098 11.9431 7.48555 11.8849 7.845 12.1725L11.2417 14.89L16.4308 7.8475C16.601 7.59216 16.8977 7.45099 17.2032 7.48003C17.5086 7.50908 17.7734 7.70364 17.8924 7.98648C18.0114 8.26931 17.9653 8.59465 17.7725 8.83333Z" fill="#161616"/>
</svg>
