<svg width="24" height="24" viewBox="0 0 24 24" fill="none" xmlns="http://www.w3.org/2000/svg">
<path fill-rule="evenodd" clip-rule="evenodd" d="M6.58333 6H17.4167C18.015 6 18.5 6.4884 18.5 7.09088V14.4543C18.5 15.0568 18.015 15.5452 17.4167 15.5452H12.169L8.78737 17.9031C8.62167 18.0186 8.40601 18.0318 8.22756 17.9376C8.0491 17.8433 7.93737 17.6571 7.9375 17.4542V15.5452H6.58333C6.29885 15.5521 6.02361 15.4433 5.81976 15.2433C5.61591 15.0434 5.50065 14.7692 5.5 14.4827V7.09088C5.5 6.4884 5.98502 6 6.58333 6ZM8.75004 10.0908H15.25C15.5492 10.0908 15.7917 9.8466 15.7917 9.54536C15.7917 9.24413 15.5492 8.99993 15.25 8.99993H8.75004C8.45089 8.99993 8.20837 9.24413 8.20837 9.54536C8.20837 9.8466 8.45089 10.0908 8.75004 10.0908ZM8.75004 12.5453H15.25C15.5492 12.5453 15.7917 12.3011 15.7917 11.9998C15.7917 11.6986 15.5492 11.4544 15.25 11.4544H8.75004C8.45089 11.4544 8.20837 11.6986 8.20837 11.9998C8.20837 12.3011 8.45089 12.5453 8.75004 12.5453Z" fill="#161616"/>
</svg>
