<svg width="24" height="24" viewBox="0 0 24 24" fill="none" xmlns="http://www.w3.org/2000/svg">
<path fill-rule="evenodd" clip-rule="evenodd" d="M2.83333 2H21.1667C22.1792 2 23 2.814 23 3.81813V16.0905C23 17.0946 22.1792 17.9086 21.1667 17.9086H12.286L6.56325 21.8385C6.28282 22.0309 5.91786 22.0531 5.61586 21.896C5.31387 21.7389 5.12477 21.4285 5.125 21.0903V17.9086H2.83333C2.3519 17.9201 1.88611 17.7388 1.54113 17.4055C1.19615 17.0723 1.00109 16.6153 1 16.1378V3.81813C1 2.814 1.82081 2 2.83333 2ZM20.9375 16.0905C21.0641 16.0905 21.1667 15.9887 21.1667 15.8632V4.04538C21.1667 3.91987 21.0641 3.81812 20.9375 3.81812H3.06249C2.93592 3.81812 2.83332 3.91987 2.83332 4.04538V15.8632C2.83332 15.9887 2.93592 16.0905 3.06249 16.0905H6.04166C6.54792 16.0905 6.95832 16.4975 6.95832 16.9995V19.3549L11.4784 16.2523C11.6316 16.147 11.8136 16.0906 12 16.0905H20.9375ZM6.49997 8.818H17.5C18.0062 8.818 18.4166 8.411 18.4166 7.90894C18.4166 7.40688 18.0062 6.99988 17.5 6.99988H6.49997C5.99371 6.99988 5.5833 7.40688 5.5833 7.90894C5.5833 8.411 5.99371 8.818 6.49997 8.818ZM17.5 12.9088H6.49997C5.99371 12.9088 5.5833 12.5018 5.5833 11.9997C5.5833 11.4976 5.99371 11.0906 6.49997 11.0906H17.5C18.0062 11.0906 18.4166 11.4976 18.4166 11.9997C18.4166 12.5018 18.0062 12.9088 17.5 12.9088Z" fill="#161616"/>
</svg>
