<svg width="24" height="24" viewBox="0 0 24 24" fill="none" xmlns="http://www.w3.org/2000/svg">
<path fill-rule="evenodd" clip-rule="evenodd" d="M6.58333 6H17.4167C18.015 6 18.5 6.4884 18.5 7.09088V14.4543C18.5 15.0568 18.015 15.5452 17.4167 15.5452H12.169L8.78738 17.9031C8.62167 18.0186 8.40601 18.0318 8.22756 17.9376C8.04911 17.8433 7.93737 17.6571 7.9375 17.4542V15.5452H6.58333C6.29885 15.5521 6.02361 15.4433 5.81976 15.2433C5.61591 15.0434 5.50065 14.7692 5.5 14.4827V7.09088C5.5 6.4884 5.98502 6 6.58333 6ZM17.2812 14.4543C17.356 14.4543 17.4166 14.3932 17.4166 14.3179V7.22724C17.4166 7.15193 17.356 7.09088 17.2812 7.09088H6.71869C6.64391 7.09088 6.58328 7.15193 6.58328 7.22724V14.3179C6.58328 14.3932 6.64391 14.4543 6.71869 14.4543H8.47911C8.77827 14.4543 9.02078 14.6985 9.02078 14.9997V16.413L11.6917 14.5514C11.7823 14.4882 11.8898 14.4543 11.9999 14.4543H17.2812ZM8.74998 10.0908H15.25C15.5491 10.0908 15.7916 9.84661 15.7916 9.54538C15.7916 9.24414 15.5491 8.99994 15.25 8.99994H8.74998C8.45083 8.99994 8.20832 9.24414 8.20832 9.54538C8.20832 9.84661 8.45083 10.0908 8.74998 10.0908ZM15.25 12.5453H8.74998C8.45083 12.5453 8.20832 12.3011 8.20832 11.9998C8.20832 11.6986 8.45083 11.4544 8.74998 11.4544H15.25C15.5491 11.4544 15.7916 11.6986 15.7916 11.9998C15.7916 12.3011 15.5491 12.5453 15.25 12.5453Z" fill="#161616"/>
</svg>
