<svg width="24" height="24" viewBox="0 0 24 24" fill="none" xmlns="http://www.w3.org/2000/svg">
<path fill-rule="evenodd" clip-rule="evenodd" d="M4.5 4H19.5C20.3284 4 21 4.6512 21 5.4545V15.2724C21 16.0757 20.3284 16.7269 19.5 16.7269H12.234L7.55175 19.8708C7.32231 20.0247 7.0237 20.0424 6.77661 19.9168C6.52953 19.7911 6.37482 19.5428 6.375 19.2723V16.7269H4.5C4.1061 16.7361 3.725 16.591 3.44274 16.3244C3.16049 16.0579 3.00089 15.6923 3 15.3102V5.4545C3 4.6512 3.67157 4 4.5 4ZM7.50003 9.45438H16.5C16.9142 9.45438 17.25 9.12878 17.25 8.72713C17.25 8.32548 16.9142 7.99988 16.5 7.99988H7.50003C7.08582 7.99988 6.75003 8.32548 6.75003 8.72713C6.75003 9.12878 7.08582 9.45438 7.50003 9.45438ZM7.50003 12.7271H16.5C16.9142 12.7271 17.25 12.4015 17.25 11.9998C17.25 11.5982 16.9142 11.2726 16.5 11.2726H7.50003C7.08582 11.2726 6.75003 11.5982 6.75003 11.9998C6.75003 12.4015 7.08582 12.7271 7.50003 12.7271Z" fill="#161616"/>
</svg>
