<svg width="24" height="24" viewBox="0 0 24 24" fill="none" xmlns="http://www.w3.org/2000/svg">
<path fill-rule="evenodd" clip-rule="evenodd" d="M4.5 4H19.5C20.3284 4 21 4.6512 21 5.4545V15.2724C21 16.0757 20.3284 16.7269 19.5 16.7269H12.234L7.55175 19.8708C7.32231 20.0247 7.0237 20.0424 6.77661 19.9168C6.52953 19.7911 6.37482 19.5428 6.375 19.2723V16.7269H4.5C4.1061 16.7361 3.725 16.591 3.44274 16.3244C3.16049 16.0579 3.00089 15.6923 3 15.3102V5.4545C3 4.6512 3.67157 4 4.5 4ZM19.3125 15.2724C19.416 15.2724 19.5 15.191 19.5 15.0905V5.63628C19.5 5.53587 19.416 5.45447 19.3125 5.45447H4.68747C4.58391 5.45447 4.49997 5.53587 4.49997 5.63628V15.0905C4.49997 15.191 4.58391 15.2724 4.68747 15.2724H7.12497C7.53918 15.2724 7.87497 15.598 7.87497 15.9996V17.8839L11.5732 15.4018C11.6986 15.3176 11.8475 15.2724 12 15.2724H19.3125ZM7.49998 9.45438H16.5C16.9142 9.45438 17.25 9.12878 17.25 8.72713C17.25 8.32548 16.9142 7.99988 16.5 7.99988H7.49998C7.08576 7.99988 6.74998 8.32548 6.74998 8.72713C6.74998 9.12878 7.08576 9.45438 7.49998 9.45438ZM16.5 12.727H7.49998C7.08576 12.727 6.74998 12.4014 6.74998 11.9998C6.74998 11.5981 7.08576 11.2725 7.49998 11.2725H16.5C16.9142 11.2725 17.25 11.5981 17.25 11.9998C17.25 12.4014 16.9142 12.727 16.5 12.727Z" fill="#161616"/>
</svg>
