<svg width="22" height="20" viewBox="0 0 22 20" fill="none" xmlns="http://www.w3.org/2000/svg">
<path fill-rule="evenodd" clip-rule="evenodd" d="M21.463 0.532871C21.8068 0.874063 22 1.33682 22 1.81934V14.0999C22 14.5824 21.8068 15.0451 21.463 15.3863C21.1192 15.7275 20.6529 15.9192 20.1667 15.9192H11.2567L5.53667 19.849C5.40221 19.9372 5.24666 19.9888 5.08572 19.9984C4.92478 20.0079 4.76413 19.9752 4.62 19.9035C4.47192 19.8274 4.34757 19.7126 4.26034 19.5716C4.17312 19.4305 4.12632 19.2685 4.125 19.103V15.9192H1.83333C1.35494 15.9193 0.895439 15.7339 0.55291 15.4025C0.210381 15.0711 0.0119598 14.6199 0 14.1453V1.81934C0 1.33682 0.193154 0.874063 0.536971 0.532871C0.880788 0.191679 1.3471 0 1.83333 0H20.1667C20.6529 0 21.1192 0.191679 21.463 0.532871ZM20.0995 14.0332C20.1425 13.9906 20.1667 13.9327 20.1667 13.8724V2.04675C20.1667 1.98644 20.1425 1.92859 20.0995 1.88594C20.0566 1.8433 19.9983 1.81934 19.9375 1.81934H2.0625C2.00172 1.81934 1.94343 1.8433 1.90045 1.88594C1.85748 1.92859 1.83333 1.98644 1.83333 2.04675V13.8724C1.83333 13.9327 1.85748 13.9906 1.90045 14.0332C1.94343 14.0759 2.00172 14.0999 2.0625 14.0999H5.04167C5.28478 14.0999 5.51794 14.1957 5.68985 14.3663C5.86176 14.5369 5.95833 14.7683 5.95833 15.0095V17.3656L10.4775 14.2636C10.6308 14.1574 10.8131 14.1003 11 14.0999H19.9375C19.9983 14.0999 20.0566 14.0759 20.0995 14.0332ZM8.47913 8.41445C8.55543 8.41944 8.63199 8.41944 8.70829 8.41445V8.68735C8.70829 8.92861 8.61172 9.15999 8.43981 9.33058C8.2679 9.50118 8.03474 9.59702 7.79163 9.59702C7.54851 9.59702 7.31535 9.69286 7.14345 9.86345C6.97154 10.034 6.87496 10.2654 6.87496 10.5067C6.87496 10.7479 6.97154 10.9793 7.14345 11.1499C7.31535 11.3205 7.54851 11.4164 7.79163 11.4164C8.52097 11.4164 9.22045 11.1288 9.73617 10.617C10.2519 10.1053 10.5416 9.41113 10.5416 8.68735V6.3677C10.5416 5.96289 10.4207 5.56717 10.194 5.23058C9.9674 4.89399 9.64528 4.63166 9.26841 4.47674C8.89154 4.32183 8.47684 4.2813 8.07675 4.36027C7.67667 4.43925 7.30917 4.63418 7.02072 4.92042C6.73227 5.20667 6.53584 5.57136 6.45626 5.96839C6.37668 6.36543 6.41752 6.77696 6.57363 7.15095C6.72973 7.52495 6.99409 7.84461 7.33326 8.06951C7.67244 8.29441 8.0712 8.41445 8.47913 8.41445ZM13.9791 8.41445C14.0554 8.41944 14.132 8.41944 14.2083 8.41445V8.68735C14.2083 8.92861 14.1117 9.15999 13.9398 9.33058C13.7679 9.50118 13.5347 9.59702 13.2916 9.59702C13.0485 9.59702 12.8154 9.69286 12.6434 9.86345C12.4715 10.034 12.375 10.2654 12.375 10.5067C12.375 10.7479 12.4715 10.9793 12.6434 11.1499C12.8154 11.3205 13.0485 11.4164 13.2916 11.4164C14.021 11.4164 14.7204 11.1288 15.2362 10.617C15.7519 10.1053 16.0416 9.41113 16.0416 8.68735V6.3677C16.0416 5.96289 15.9207 5.56717 15.694 5.23058C15.4674 4.89399 15.1453 4.63166 14.7684 4.47674C14.3915 4.32183 13.9768 4.2813 13.5768 4.36027C13.1767 4.43925 12.8092 4.63418 12.5207 4.92042C12.2323 5.20667 12.0358 5.57136 11.9563 5.96839C11.8767 6.36543 11.9175 6.77696 12.0736 7.15095C12.2297 7.52495 12.4941 7.84461 12.8333 8.06951C13.1724 8.29441 13.5712 8.41445 13.9791 8.41445Z" fill="#161616"/>
</svg>
