<svg width="24" height="24" viewBox="0 0 24 24" fill="none" xmlns="http://www.w3.org/2000/svg">
<path fill-rule="evenodd" clip-rule="evenodd" d="M20.5607 4.4263C20.842 4.69925 21 5.06945 21 5.45547V15.2799C21 15.6659 20.842 16.0361 20.5607 16.3091C20.2794 16.582 19.8978 16.7353 19.5 16.7353H12.21L7.53 19.8792C7.41999 19.9498 7.29272 19.991 7.16104 19.9987C7.02936 20.0064 6.89793 19.9802 6.78 19.9228C6.65884 19.8619 6.5571 19.7701 6.48573 19.6573C6.41437 19.5444 6.37608 19.4148 6.375 19.2824V16.7353H4.5C4.10859 16.7355 3.73263 16.5871 3.45238 16.322C3.17213 16.0569 3.00979 15.6959 3 15.3163V5.45547C3 5.06945 3.15804 4.69925 3.43934 4.4263C3.72064 4.15334 4.10218 4 4.5 4H19.5C19.8978 4 20.2794 4.15334 20.5607 4.4263ZM19.4451 15.2266C19.4802 15.1925 19.5 15.1462 19.5 15.0979V5.6374C19.5 5.58915 19.4802 5.54287 19.4451 5.50876C19.4099 5.47464 19.3622 5.45547 19.3125 5.45547H4.6875C4.63777 5.45547 4.59008 5.47464 4.55492 5.50876C4.51975 5.54287 4.5 5.58915 4.5 5.6374V15.0979C4.5 15.1462 4.51975 15.1925 4.55492 15.2266C4.59008 15.2607 4.63777 15.2799 4.6875 15.2799H7.125C7.32391 15.2799 7.51468 15.3566 7.65533 15.493C7.79598 15.6295 7.875 15.8146 7.875 16.0076V17.8924L11.5725 15.4109C11.6979 15.3259 11.8471 15.2802 12 15.2799H19.3125C19.3622 15.2799 19.4099 15.2607 19.4451 15.2266ZM9.93738 10.7316C9.99981 10.7356 10.0624 10.7356 10.1249 10.7316V10.9499C10.1249 11.1429 10.0459 11.328 9.90521 11.4645C9.76456 11.601 9.57379 11.6776 9.37488 11.6776C9.17597 11.6776 8.9852 11.7543 8.84455 11.8908C8.7039 12.0273 8.62488 12.2124 8.62488 12.4054C8.62488 12.5984 8.7039 12.7835 8.84455 12.9199C8.9852 13.0564 9.17597 13.1331 9.37488 13.1331C9.97162 13.1331 10.5439 12.9031 10.9659 12.4936C11.3878 12.0842 11.6249 11.5289 11.6249 10.9499V9.09417C11.6249 8.77032 11.5259 8.45375 11.3405 8.18448C11.1551 7.91521 10.8915 7.70534 10.5832 7.58141C10.2748 7.45748 9.93551 7.42505 9.60816 7.48823C9.28082 7.55141 8.98014 7.70736 8.74414 7.93635C8.50814 8.16535 8.34742 8.4571 8.2823 8.77473C8.21719 9.09235 8.25061 9.42158 8.37833 9.72078C8.50605 10.02 8.72235 10.2757 8.99985 10.4556C9.27736 10.6355 9.60362 10.7316 9.93738 10.7316ZM14.4375 10.7316C14.4999 10.7356 14.5626 10.7356 14.625 10.7316V10.9499C14.625 11.1429 14.546 11.328 14.4053 11.4645C14.2647 11.601 14.0739 11.6776 13.875 11.6776C13.6761 11.6776 13.4853 11.7543 13.3447 11.8908C13.204 12.0273 13.125 12.2124 13.125 12.4054C13.125 12.5984 13.204 12.7835 13.3447 12.9199C13.4853 13.0564 13.6761 13.1331 13.875 13.1331C14.4717 13.1331 15.044 12.9031 15.466 12.4936C15.8879 12.0842 16.125 11.5289 16.125 10.9499V9.09417C16.125 8.77032 16.026 8.45375 15.8406 8.18448C15.6552 7.91521 15.3916 7.70534 15.0833 7.58141C14.7749 7.45748 14.4356 7.42505 14.1083 7.48823C13.7809 7.55141 13.4803 7.70736 13.2443 7.93635C13.0083 8.16535 12.8475 8.4571 12.7824 8.77473C12.7173 9.09235 12.7507 9.42158 12.8785 9.72078C13.0062 10.02 13.2225 10.2757 13.5 10.4556C13.7775 10.6355 14.1037 10.7316 14.4375 10.7316Z" fill="#161616"/>
</svg>
