<svg width="24" height="24" viewBox="0 0 24 24" fill="none" xmlns="http://www.w3.org/2000/svg">
<path fill-rule="evenodd" clip-rule="evenodd" d="M18.1827 6.31972C18.3859 6.52444 18.5 6.80209 18.5 7.0916V14.4599C18.5 14.7494 18.3859 15.0271 18.1827 15.2318C17.9795 15.4365 17.704 15.5515 17.4167 15.5515H12.1517L8.77167 17.9094C8.69221 17.9623 8.6003 17.9933 8.5052 17.999C8.41009 18.0048 8.31517 17.9851 8.23 17.9421C8.1425 17.8964 8.06902 17.8276 8.01747 17.7429C7.96593 17.6583 7.93828 17.5611 7.9375 17.4618V15.5515H6.58333C6.30065 15.5516 6.02912 15.4403 5.82672 15.2415C5.62432 15.0426 5.50707 14.772 5.5 14.4872V7.0916C5.5 6.80209 5.61414 6.52444 5.8173 6.31972C6.02047 6.11501 6.29602 6 6.58333 6H17.4167C17.704 6 17.9795 6.11501 18.1827 6.31972ZM17.377 14.4199C17.4024 14.3944 17.4167 14.3596 17.4167 14.3235V7.22805C17.4167 7.19186 17.4024 7.15716 17.377 7.13157C17.3516 7.10598 17.3172 7.0916 17.2812 7.0916H6.71875C6.68284 7.0916 6.64839 7.10598 6.623 7.13157C6.5976 7.15716 6.58333 7.19186 6.58333 7.22805V14.3235C6.58333 14.3596 6.5976 14.3944 6.623 14.4199C6.64839 14.4455 6.68284 14.4599 6.71875 14.4599H8.47917C8.62283 14.4599 8.7606 14.5174 8.86218 14.6198C8.96377 14.7221 9.02083 14.861 9.02083 15.0057V16.4193L11.6913 14.5582C11.7818 14.4945 11.8896 14.4602 12 14.4599H17.2812C17.3172 14.4599 17.3516 14.4455 17.377 14.4199ZM10.5103 11.0487C10.5554 11.0517 10.6007 11.0517 10.6457 11.0487V11.2124C10.6457 11.3572 10.5887 11.496 10.4871 11.5984C10.3855 11.7007 10.2477 11.7582 10.1041 11.7582C9.96042 11.7582 9.82265 11.8157 9.72106 11.9181C9.61948 12.0205 9.56241 12.1593 9.56241 12.304C9.56241 12.4488 9.61948 12.5876 9.72106 12.69C9.82265 12.7923 9.96042 12.8498 10.1041 12.8498C10.5351 12.8498 10.9484 12.6773 11.2531 12.3703C11.5579 12.0632 11.7291 11.6467 11.7291 11.2124V9.82064C11.7291 9.57776 11.6576 9.34033 11.5237 9.13837C11.3898 8.93642 11.1994 8.77902 10.9767 8.68607C10.754 8.59312 10.509 8.5688 10.2726 8.61619C10.0361 8.66357 9.81899 8.78053 9.64854 8.95228C9.4781 9.12403 9.36202 9.34284 9.315 9.58106C9.26797 9.81928 9.29211 10.0662 9.38435 10.2906C9.4766 10.515 9.63281 10.7068 9.83323 10.8417C10.0337 10.9767 10.2693 11.0487 10.5103 11.0487ZM13.7604 11.0487C13.8055 11.0517 13.8507 11.0517 13.8958 11.0487V11.2124C13.8958 11.3572 13.8388 11.496 13.7372 11.5984C13.6356 11.7007 13.4978 11.7582 13.3542 11.7582C13.2105 11.7582 13.0727 11.8157 12.9712 11.9181C12.8696 12.0205 12.8125 12.1593 12.8125 12.304C12.8125 12.4488 12.8696 12.5876 12.9712 12.69C13.0727 12.7923 13.2105 12.8498 13.3542 12.8498C13.7851 12.8498 14.1985 12.6773 14.5032 12.3703C14.808 12.0632 14.9792 11.6467 14.9792 11.2124V9.82064C14.9792 9.57776 14.9077 9.34033 14.7738 9.13837C14.6399 8.93642 14.4495 8.77902 14.2268 8.68607C14.0041 8.59312 13.7591 8.5688 13.5227 8.61619C13.2862 8.66357 13.0691 8.78053 12.8986 8.95228C12.7282 9.12403 12.6121 9.34284 12.5651 9.58106C12.5181 9.81928 12.5422 10.0662 12.6344 10.2906C12.7267 10.515 12.8829 10.7068 13.0833 10.8417C13.2837 10.9767 13.5194 11.0487 13.7604 11.0487Z" fill="#161616"/>
</svg>
