<svg width="24" height="24" viewBox="0 0 24 24" fill="none" xmlns="http://www.w3.org/2000/svg">
<path fill-rule="evenodd" clip-rule="evenodd" d="M17.9358 9.44702H17.0848C16.9913 9.44703 16.9153 9.37165 16.9146 9.27818V5.02158C16.9147 4.6288 16.6896 4.27075 16.3355 4.10069C15.9814 3.93063 15.5612 3.9787 15.2547 4.22432L14.1061 5.14345C13.8188 5.3802 13.7749 5.80385 14.0076 6.09447C14.2403 6.38509 14.6633 6.43488 14.9572 6.20624L15.2765 5.95092C15.3276 5.91014 15.3975 5.9022 15.4564 5.9305C15.5153 5.9588 15.5528 6.01833 15.5529 6.08369V9.27818C15.5529 9.37218 15.4767 9.44838 15.3827 9.44838H14.5317C14.1556 9.44838 13.8508 9.75321 13.8508 10.1292C13.8508 10.5052 14.1556 10.8101 14.5317 10.8101H17.9358C18.3119 10.8101 18.6167 10.5052 18.6167 10.1292C18.6167 9.75321 18.3119 9.44838 17.9358 9.44838V9.44702ZM9.42538 14.2129H8.23391C8.14044 14.2129 8.06445 14.1375 8.06371 14.0441V6.38328C8.06371 6.00726 7.75888 5.70244 7.38287 5.70244C7.00685 5.70244 6.70203 6.00726 6.70203 6.38328V14.0441C6.70203 14.1381 6.62583 14.2143 6.53182 14.2143H5.34036C5.20278 14.2143 5.07874 14.2971 5.02601 14.4242C4.97328 14.5513 5.00221 14.6976 5.09934 14.795L7.14185 16.8375C7.27479 16.9704 7.49027 16.9704 7.6232 16.8375L9.66572 14.795C9.76276 14.6977 9.79174 14.5515 9.73918 14.4245C9.68662 14.2975 9.56283 14.2146 9.42538 14.2143V14.2129ZM15.8933 13.1917C14.9804 13.1912 14.1474 13.7124 13.7487 14.5337C13.3499 15.3549 13.4553 16.3318 14.0202 17.049C14.5851 17.7662 15.5101 18.0976 16.4019 17.9024C16.4741 17.8864 16.5483 17.9189 16.5856 17.9827C16.6228 18.0466 16.6146 18.1272 16.5653 18.1822C16.3088 18.4723 15.9402 18.6384 15.5529 18.6383H15.2125C14.8365 18.6383 14.5317 18.9432 14.5317 19.3192C14.5317 19.6952 14.8365 20 15.2125 20H15.5529C17.057 20 18.2763 18.7807 18.2763 17.2767V15.5746C18.2763 14.9426 18.0252 14.3365 17.5783 13.8896C17.1314 13.4427 16.5253 13.1917 15.8933 13.1917ZM15.8933 16.5958C15.3293 16.5958 14.8721 16.1386 14.8721 15.5746C14.8721 15.0106 15.3293 14.5533 15.8933 14.5533C16.4574 14.5533 16.9146 15.0106 16.9146 15.5746C16.9146 16.1386 16.4574 16.5958 15.8933 16.5958Z" fill="#161616"/>
</svg>
