<svg width="24" height="24" viewBox="0 0 24 24" fill="none" xmlns="http://www.w3.org/2000/svg">
<path fill-rule="evenodd" clip-rule="evenodd" d="M8.61065 8.90821H7.36009L7.35724 8.90966C7.21265 8.90963 7.08234 8.82091 7.02711 8.68491C6.97188 8.54891 7.00262 8.39244 7.10498 8.28851L9.24879 6.10648C9.38831 5.96451 9.61449 5.96451 9.75401 6.10648L11.8978 8.28851C11.9979 8.39241 12.0275 8.54703 11.9731 8.68158C11.9186 8.81613 11.7907 8.90471 11.6477 8.90675L10.3972 8.90675C10.2985 8.90675 10.2185 8.98816 10.2185 9.08859L10.2185 17.2727C10.2185 17.6744 9.89856 18 9.5039 18C9.10924 18 8.7893 17.6744 8.7893 17.2727L8.7893 9.08859C8.78851 8.98873 8.70876 8.9082 8.61065 8.90821ZM15.3894 15.0918H16.6399L16.6428 15.0903C16.7873 15.0904 16.9177 15.1791 16.9729 15.3151C17.0281 15.4511 16.9974 15.6076 16.895 15.7115L14.7512 17.8935C14.6117 18.0355 14.3855 18.0355 14.246 17.8935L12.1022 15.7115C12.0021 15.6076 11.9725 15.453 12.0269 15.3184C12.0814 15.1839 12.2093 15.0953 12.3523 15.0932H13.6028C13.7015 15.0932 13.7815 15.0118 13.7815 14.9114V6.72734C13.7815 6.32564 14.1014 6 14.4961 6C14.8908 6 15.2107 6.32564 15.2107 6.72734V14.9114C15.2115 15.0113 15.2912 15.0918 15.3894 15.0918Z" fill="#161616"/>
</svg>
