<svg width="24" height="24" viewBox="0 0 24 24" fill="none" xmlns="http://www.w3.org/2000/svg">
<path fill-rule="evenodd" clip-rule="evenodd" d="M16.2293 4C15.1012 4 14.1867 4.91448 14.1867 6.04255V10.1277C14.1867 10.5037 14.4915 10.8085 14.8676 10.8085C15.2436 10.8085 15.5484 10.5037 15.5484 10.1277V8.25668C15.5484 8.16267 15.6246 8.08647 15.7186 8.08647H16.7399C16.8339 8.08647 16.9101 8.16267 16.9101 8.25668V10.129C16.9101 10.505 17.215 10.8099 17.591 10.8099C17.967 10.8099 18.2718 10.505 18.2718 10.129V6.04391C18.2722 5.50196 18.0571 4.98208 17.6741 4.59873C17.291 4.21538 16.7712 4 16.2293 4ZM15.7186 6.72343C15.6252 6.72343 15.5492 6.64805 15.5484 6.55458V6.04394C15.5484 5.66791 15.8532 5.36309 16.2293 5.36309C16.6053 5.36309 16.9101 5.66791 16.9101 6.04394V6.55458C16.9101 6.64858 16.8339 6.72479 16.7399 6.72479L15.7186 6.72343ZM9.42076 14.2128H8.22927C8.13579 14.2128 8.05981 14.1374 8.05906 14.0439V6.383C8.05906 6.00698 7.75423 5.70215 7.37821 5.70215C7.00218 5.70215 6.69736 6.00698 6.69736 6.383V14.0439C6.69736 14.1379 6.62115 14.2141 6.52714 14.2141H5.33565C5.19946 14.2161 5.07751 14.299 5.02565 14.4249C4.97379 14.5509 5.002 14.6956 5.09736 14.7929L7.13991 16.8354C7.27284 16.9683 7.48833 16.9683 7.62127 16.8354L9.66382 14.7929C9.76135 14.6956 9.79064 14.5491 9.73802 14.4218C9.6854 14.2945 9.56124 14.2115 9.42348 14.2114L9.42076 14.2128ZM18.1438 13.7192C17.9642 13.3939 17.6221 13.1918 17.2505 13.1915H14.7995C14.4235 13.1915 14.1186 13.4963 14.1186 13.8724C14.1186 14.2484 14.4235 14.5532 14.7995 14.5532H16.3314C16.3934 14.5531 16.4505 14.5868 16.4805 14.641C16.5106 14.6952 16.5087 14.7615 16.4757 14.814L14.2105 18.4381C14.014 18.7531 14.0039 19.15 14.1842 19.4746C14.3644 19.7992 14.7067 20.0004 15.078 20H17.529C17.905 20 18.2099 19.6952 18.2099 19.3192C18.2099 18.9431 17.905 18.6383 17.529 18.6383H15.9957C15.934 18.6382 15.8771 18.6047 15.8471 18.5507C15.8172 18.4967 15.8188 18.4307 15.8514 18.3782L18.1145 14.7561C18.3122 14.4415 18.3234 14.0444 18.1438 13.7192Z" fill="#161616"/>
</svg>
