<svg width="24" height="24" viewBox="0 0 24 24" fill="none" xmlns="http://www.w3.org/2000/svg">
<path fill-rule="evenodd" clip-rule="evenodd" d="M19.1698 8.80878H18.106C17.9892 8.80878 17.8942 8.71456 17.8932 8.59772V3.27698C17.8934 2.786 17.6119 2.33844 17.1694 2.12586C16.7268 1.91329 16.2015 1.97337 15.8184 2.2804L14.3827 3.42931C14.0235 3.72525 13.9686 4.25482 14.2595 4.61809C14.5504 4.98136 15.0792 5.0436 15.4465 4.7578L15.8456 4.43865C15.9095 4.38768 15.9969 4.37775 16.0705 4.41312C16.1441 4.4485 16.191 4.52291 16.1911 4.60461V8.59772C16.1911 8.71522 16.0959 8.81048 15.9784 8.81048H14.9146C14.4446 8.81048 14.0635 9.19151 14.0635 9.66153C14.0635 10.1315 14.4446 10.5126 14.9146 10.5126H19.1698C19.6398 10.5126 20.0209 10.1315 20.0209 9.66153C20.0209 9.19151 19.6398 8.81048 19.1698 8.81048V8.80878ZM8.53172 14.7661H7.04239C6.92555 14.7661 6.83057 14.6719 6.82963 14.555V4.97907C6.82963 4.50905 6.44861 4.12802 5.97859 4.12802C5.50856 4.12802 5.12754 4.50905 5.12754 4.97907V14.555C5.12754 14.6726 5.03228 14.7678 4.91478 14.7678H3.42545C3.25347 14.7678 3.09843 14.8714 3.03251 15.0302C2.9666 15.1891 3.00276 15.372 3.12417 15.4937L5.67731 18.0469C5.84348 18.213 6.11284 18.213 6.279 18.0469L8.83214 15.4937C8.95345 15.3721 8.98967 15.1894 8.92397 15.0306C8.85827 14.8719 8.70354 14.7682 8.53172 14.7678V14.7661ZM16.6167 13.4895C15.4755 13.489 14.4343 14.1405 13.9358 15.1671C13.4373 16.1936 13.5692 17.4147 14.2753 18.3112C14.9814 19.2077 16.1376 19.622 17.2524 19.3779C17.3426 19.358 17.4354 19.3986 17.4819 19.4784C17.5285 19.5582 17.5183 19.6589 17.4566 19.7277C17.136 20.0903 16.6752 20.2979 16.1911 20.2979H15.7656C15.2956 20.2979 14.9146 20.6789 14.9146 21.149C14.9146 21.619 15.2956 22 15.7656 22H16.1911C18.0712 22 19.5953 20.4759 19.5953 18.5958V16.4682C19.5953 15.6782 19.2815 14.9206 18.7229 14.362C18.1643 13.8034 17.4067 13.4895 16.6167 13.4895ZM16.6167 17.7448C15.9116 17.7448 15.3401 17.1732 15.3401 16.4682C15.3401 15.7632 15.9116 15.1916 16.6167 15.1916C17.3217 15.1916 17.8932 15.7632 17.8932 16.4682C17.8932 17.1732 17.3217 17.7448 16.6167 17.7448Z" fill="#161616"/>
</svg>
