<svg width="24" height="24" viewBox="0 0 24 24" fill="none" xmlns="http://www.w3.org/2000/svg">
<path fill-rule="evenodd" clip-rule="evenodd" d="M15.422 6C14.5759 6 13.89 6.68586 13.89 7.53191V10.5957C13.89 10.8778 14.1187 11.1064 14.4007 11.1064C14.6827 11.1064 14.9113 10.8778 14.9113 10.5957V9.19251C14.9113 9.12201 14.9685 9.06485 15.039 9.06485H15.8049C15.8754 9.06485 15.9326 9.12201 15.9326 9.19251V10.5968C15.9326 10.8788 16.1612 11.1074 16.4432 11.1074C16.7252 11.1074 16.9539 10.8788 16.9539 10.5968V7.53294C16.9541 7.12647 16.7929 6.73656 16.5055 6.44905C16.2182 6.16154 15.8284 6 15.422 6ZM15.039 8.04257C14.9689 8.04257 14.9119 7.98604 14.9113 7.91593V7.53295C14.9113 7.25093 15.1399 7.02231 15.422 7.02231C15.704 7.02231 15.9326 7.25093 15.9326 7.53295V7.91593C15.9326 7.98644 15.8754 8.04359 15.8049 8.04359L15.039 8.04257ZM10.3156 13.6596H9.42195C9.35185 13.6596 9.29485 13.6031 9.29429 13.533V7.78725C9.29429 7.50523 9.06567 7.27661 8.78365 7.27661C8.50164 7.27661 8.27302 7.50523 8.27302 7.78725V13.533C8.27302 13.6035 8.21586 13.6606 8.14536 13.6606H7.25174C7.14959 13.662 7.05813 13.7242 7.01924 13.8187C6.98034 13.9132 7.0015 14.0217 7.07302 14.0947L8.60493 15.6266C8.70463 15.7262 8.86625 15.7262 8.96595 15.6266L10.4979 14.0947C10.571 14.0217 10.593 13.9118 10.5535 13.8164C10.514 13.7209 10.4209 13.6586 10.3176 13.6586L10.3156 13.6596ZM16.8579 13.2894C16.7232 13.0454 16.4666 12.8938 16.1879 12.8936H14.3496C14.0676 12.8936 13.839 13.1222 13.839 13.4043C13.839 13.6863 14.0676 13.9149 14.3496 13.9149H15.4985C15.545 13.9148 15.5879 13.9401 15.6104 13.9807C15.6329 14.0214 15.6315 14.0711 15.6068 14.1105L13.9079 16.8286C13.7605 17.0649 13.7529 17.3625 13.8881 17.6059C14.0233 17.8494 14.28 18.0003 14.5585 18H16.3968C16.6788 18 16.9074 17.7714 16.9074 17.4894C16.9074 17.2074 16.6788 16.9787 16.3968 16.9787H15.2468C15.2005 16.9787 15.1578 16.9535 15.1353 16.913C15.1129 16.8725 15.1141 16.823 15.1385 16.7837L16.8359 14.0671C16.9841 13.8311 16.9925 13.5333 16.8579 13.2894Z" fill="#161616"/>
</svg>
