<svg width="24" height="24" viewBox="0 0 24 24" fill="none" xmlns="http://www.w3.org/2000/svg">
<path fill-rule="evenodd" clip-rule="evenodd" d="M16.7019 10.0853H16.0636C15.9935 10.0853 15.9365 10.0287 15.9359 9.95863V6.76619C15.936 6.4716 15.7672 6.20306 15.5016 6.07552C15.2361 5.94797 14.9209 5.98402 14.691 6.16824L13.8296 6.85759C13.6141 7.03515 13.5812 7.35289 13.7557 7.57085C13.9303 7.78882 14.2475 7.82616 14.4679 7.65468L14.7074 7.46319C14.7457 7.43261 14.7981 7.42665 14.8423 7.44787C14.8865 7.4691 14.9146 7.51375 14.9147 7.56277V9.95863C14.9147 10.0291 14.8575 10.0863 14.787 10.0863H14.1487C13.8667 10.0863 13.6381 10.3149 13.6381 10.5969C13.6381 10.8789 13.8667 11.1075 14.1487 11.1075H16.7019C16.9839 11.1075 17.2125 10.8789 17.2125 10.5969C17.2125 10.3149 16.9839 10.0863 16.7019 10.0863V10.0853ZM10.319 13.6597H9.42544C9.35533 13.6597 9.29834 13.6031 9.29778 13.533V7.78746C9.29778 7.50545 9.06916 7.27683 8.78715 7.27683C8.50514 7.27683 8.27652 7.50545 8.27652 7.78746V13.533C8.27652 13.6035 8.21937 13.6607 8.14887 13.6607H7.25527C7.15208 13.6607 7.05906 13.7229 7.01951 13.8182C6.97996 13.9135 7.00166 14.0232 7.0745 14.0963L8.60639 15.6282C8.70609 15.7278 8.8677 15.7278 8.9674 15.6282L10.4993 14.0963C10.5721 14.0233 10.5938 13.9136 10.5544 13.8184C10.515 13.7231 10.4221 13.6609 10.319 13.6607V13.6597ZM15.17 12.8937C14.4853 12.8934 13.8606 13.2843 13.5615 13.9003C13.2624 14.5162 13.3415 15.2489 13.7652 15.7868C14.1888 16.3247 14.8826 16.5732 15.5514 16.4268C15.6056 16.4148 15.6612 16.4392 15.6892 16.4871C15.7171 16.5349 15.711 16.5954 15.674 16.6366C15.4816 16.8542 15.2051 16.9788 14.9147 16.9788H14.6594C14.3774 16.9788 14.1487 17.2074 14.1487 17.4894C14.1487 17.7714 14.3774 18 14.6594 18H14.9147C16.0427 18 16.9572 17.0856 16.9572 15.9575V14.6809C16.9572 14.2069 16.7689 13.7524 16.4337 13.4172C16.0986 13.082 15.644 12.8937 15.17 12.8937ZM15.17 15.4469C14.747 15.4469 14.4041 15.104 14.4041 14.6809C14.4041 14.2579 14.747 13.915 15.17 13.915C15.593 13.915 15.9359 14.2579 15.9359 14.6809C15.9359 15.104 15.593 15.4469 15.17 15.4469Z" fill="#161616"/>
</svg>
