<svg width="24" height="24" viewBox="0 0 24 24" fill="none" xmlns="http://www.w3.org/2000/svg">
<path fill-rule="evenodd" clip-rule="evenodd" d="M18.0366 2C16.6265 2 15.4834 3.1431 15.4834 4.55319V9.65957C15.4834 10.1296 15.8644 10.5106 16.3345 10.5106C16.8045 10.5106 17.1855 10.1296 17.1855 9.65957V7.32085C17.1855 7.20334 17.2808 7.10809 17.3983 7.10809H18.6749C18.7924 7.10809 18.8877 7.20334 18.8877 7.32085V9.66128C18.8877 10.1313 19.2687 10.5123 19.7387 10.5123C20.2087 10.5123 20.5898 10.1313 20.5898 9.66128V4.55489C20.5902 3.87745 20.3214 3.2276 19.8426 2.74841C19.3637 2.26923 18.714 2 18.0366 2ZM17.3983 5.40426C17.2814 5.40426 17.1865 5.31003 17.1855 5.19319V4.55489C17.1855 4.08486 17.5666 3.70383 18.0366 3.70383C18.5066 3.70383 18.8877 4.08486 18.8877 4.55489V5.19319C18.8877 5.3107 18.7924 5.40596 18.6749 5.40596L17.3983 5.40426ZM9.52595 14.766H8.03659C7.91974 14.766 7.82476 14.6717 7.82382 14.5549V4.97872C7.82382 4.50869 7.44279 4.12766 6.97276 4.12766C6.50273 4.12766 6.12169 4.50869 6.12169 4.97872V14.5549C6.12169 14.6724 6.02644 14.7677 5.90893 14.7677H4.41957C4.24932 14.7701 4.09689 14.8737 4.03206 15.0311C3.96724 15.1886 4.00249 15.3695 4.12169 15.4911L6.67489 18.0443C6.84106 18.2104 7.11042 18.2104 7.27659 18.0443L9.82978 15.4911C9.95169 15.3695 9.9883 15.1864 9.92252 15.0272C9.85675 14.8681 9.70155 14.7643 9.52935 14.7643L9.52595 14.766ZM20.4298 14.1489C20.2053 13.7423 19.7777 13.4897 19.3132 13.4894H16.2494C15.7793 13.4894 15.3983 13.8704 15.3983 14.3404C15.3983 14.8105 15.7793 15.1915 16.2494 15.1915H18.1642C18.2417 15.1914 18.3131 15.2334 18.3507 15.3012C18.3882 15.369 18.3859 15.4518 18.3447 15.5174L15.5132 20.0477C15.2675 20.4414 15.2549 20.9375 15.4802 21.3432C15.7056 21.7489 16.1333 22.0004 16.5974 22H19.6613C20.1313 22 20.5123 21.619 20.5123 21.1489C20.5123 20.6789 20.1313 20.2979 19.6613 20.2979H17.7447C17.6675 20.2978 17.5964 20.2559 17.5589 20.1884C17.5214 20.1208 17.5235 20.0383 17.5642 19.9728L20.3932 15.4451C20.6402 15.0519 20.6543 14.5555 20.4298 14.1489Z" fill="#161616"/>
</svg>
