<svg width="24" height="24" viewBox="0 0 24 24" fill="none" xmlns="http://www.w3.org/2000/svg">
<path fill-rule="evenodd" clip-rule="evenodd" d="M7.25491 7.87761L5.50413 7.87761L5.50013 7.87955C5.29771 7.8795 5.11527 7.76122 5.03795 7.57988C4.96063 7.39855 5.00366 7.18991 5.14697 7.05134L8.1483 4.14197C8.34364 3.95268 8.66028 3.95268 8.85562 4.14197L11.8569 7.05135C11.9971 7.18988 12.0385 7.39604 11.9623 7.57544C11.8861 7.75484 11.7069 7.87294 11.5068 7.87567L9.75602 7.87567C9.61788 7.87567 9.50591 7.98422 9.50591 8.11812L9.50591 19.0302C9.5059 19.5658 9.05799 20 8.50546 20C7.95293 20 7.50502 19.5658 7.50502 19.0302L7.50502 8.11812C7.50392 7.98497 7.39226 7.8776 7.25491 7.87761ZM16.7451 16.1224H18.4959L18.4999 16.1205C18.7023 16.1205 18.8847 16.2388 18.9621 16.4201C19.0394 16.6015 18.9963 16.8101 18.853 16.9487L15.8517 19.858C15.6564 20.0473 15.3397 20.0473 15.1444 19.858L12.1431 16.9487C12.0029 16.8101 11.9615 16.604 12.0377 16.4246C12.1139 16.2452 12.2931 16.1271 12.4932 16.1243H14.244C14.3821 16.1243 14.4941 16.0158 14.4941 15.8819V4.96979C14.4941 4.43419 14.942 4 15.4945 4C16.0471 4 16.495 4.43419 16.495 4.96979V15.8819C16.4961 16.015 16.6077 16.1224 16.7451 16.1224Z" fill="#161616"/>
</svg>
