<svg width="24" height="24" viewBox="0 0 24 24" fill="none" xmlns="http://www.w3.org/2000/svg">
<path fill-rule="evenodd" clip-rule="evenodd" d="M20.75 9.91667H19.1983C19.0441 9.3835 18.8308 8.86921 18.5625 8.38333L19.66 7.28667C19.8946 7.05222 20.0264 6.73416 20.0264 6.4025C20.0264 6.07084 19.8946 5.75278 19.66 5.51833L18.4808 4.34083C17.9927 3.85286 17.2015 3.85286 16.7133 4.34083L15.615 5.43833C15.1298 5.16983 14.616 4.95656 14.0833 4.8025V3.25C14.0833 2.55964 13.5237 2 12.8333 2H11.1667C10.4763 2 9.91667 2.55964 9.91667 3.25V4.8025C9.38382 4.95691 8.86982 5.17017 8.38417 5.43833L7.28583 4.34083C6.79771 3.85286 6.00646 3.85286 5.51833 4.34083L4.33917 5.51917C4.10457 5.75361 3.97277 6.07167 3.97277 6.40333C3.97277 6.73499 4.10457 7.05306 4.33917 7.2875L5.4375 8.385C5.16882 8.87011 4.95554 9.38389 4.80167 9.91667H3.25C2.55964 9.91667 2 10.4763 2 11.1667V12.8333C2 13.5237 2.55964 14.0833 3.25 14.0833H4.80167C4.95548 14.6164 5.16876 15.1305 5.4375 15.6158L4.33833 16.715C3.85036 17.2031 3.85036 17.9944 4.33833 18.4825L5.51667 19.6608C6.0129 20.1296 6.78877 20.1296 7.285 19.6608L8.38333 18.5633C8.86924 18.8318 9.38352 19.0453 9.91667 19.2V20.75C9.91667 21.4404 10.4763 22 11.1667 22H12.8333C13.5237 22 14.0833 21.4404 14.0833 20.75V19.2C14.6162 19.0456 15.1302 18.8324 15.6158 18.5642L16.7142 19.6617C17.2023 20.1496 17.9935 20.1496 18.4817 19.6617L19.66 18.4833C20.148 17.9952 20.148 17.204 19.66 16.7158L18.5625 15.6183C18.8311 15.1326 19.0444 14.6183 19.1983 14.085H20.75C21.0818 14.085 21.4 13.9531 21.6345 13.7183C21.8689 13.4835 22.0004 13.1651 22 12.8333V11.1667C22 10.4763 21.4404 9.91667 20.75 9.91667ZM12 16.1667C9.69881 16.1667 7.83333 14.3012 7.83333 12C7.83333 9.69881 9.69881 7.83333 12 7.83333C14.3012 7.83333 16.1667 9.69881 16.1667 12C16.1639 14.3 14.3 16.1639 12 16.1667Z" fill="#161616"/>
</svg>
