<svg width="24" height="24" viewBox="0 0 24 24" fill="none" xmlns="http://www.w3.org/2000/svg">
<path fill-rule="evenodd" clip-rule="evenodd" d="M19 10.3333H17.7587C17.6353 9.9068 17.4646 9.49537 17.25 9.10667L18.128 8.22933C18.3157 8.04178 18.4211 7.78733 18.4211 7.522C18.4211 7.25667 18.3157 7.00222 18.128 6.81467L17.1847 5.87267C16.7942 5.48228 16.1612 5.48228 15.7707 5.87267L14.892 6.75067C14.5038 6.53587 14.0928 6.36525 13.6667 6.242V5C13.6667 4.44772 13.219 4 12.6667 4H11.3333C10.781 4 10.3333 4.44772 10.3333 5V6.242C9.90705 6.36553 9.49586 6.53614 9.10733 6.75067L8.22867 5.87267C7.83817 5.48228 7.20517 5.48228 6.81467 5.87267L5.87133 6.81533C5.68366 7.00289 5.57821 7.25734 5.57821 7.52267C5.57821 7.78799 5.68366 8.04244 5.87133 8.23L6.75 9.108C6.53506 9.49609 6.36443 9.90711 6.24133 10.3333H5C4.44772 10.3333 4 10.781 4 11.3333V12.6667C4 13.219 4.44772 13.6667 5 13.6667H6.24133C6.36438 14.0931 6.53501 14.5044 6.75 14.8927L5.87067 15.772C5.48028 16.1625 5.48028 16.7955 5.87067 17.186L6.81333 18.1287C7.21032 18.5037 7.83101 18.5037 8.228 18.1287L9.10667 17.2507C9.49539 17.4654 9.90681 17.6363 10.3333 17.76V19C10.3333 19.5523 10.781 20 11.3333 20H12.6667C13.219 20 13.6667 19.5523 13.6667 19V17.76C14.093 17.6365 14.5042 17.4659 14.8927 17.2513L15.7713 18.1293C16.1618 18.5197 16.7948 18.5197 17.1853 18.1293L18.128 17.1867C18.5184 16.7962 18.5184 16.1632 18.128 15.7727L17.25 14.8947C17.4649 14.5061 17.6355 14.0946 17.7587 13.668H19C19.2654 13.668 19.52 13.5625 19.7076 13.3746C19.8952 13.1868 20.0004 12.9321 20 12.6667V11.3333C20 10.781 19.5523 10.3333 19 10.3333ZM12 15.3334C10.159 15.3334 8.66665 13.841 8.66665 12C8.66665 10.1591 10.159 8.6667 12 8.6667C13.8409 8.6667 15.3333 10.1591 15.3333 12C15.3311 13.8401 13.84 15.3312 12 15.3334Z" fill="#161616"/>
</svg>
