<svg width="24" height="24" viewBox="0 0 24 24" fill="none" xmlns="http://www.w3.org/2000/svg">
<path fill-rule="evenodd" clip-rule="evenodd" d="M17.25 10.75H16.319C16.2264 10.4301 16.0985 10.1215 15.9375 9.83L16.596 9.172C16.7368 9.03133 16.8158 8.8405 16.8158 8.6415C16.8158 8.4425 16.7368 8.25167 16.596 8.111L15.8885 7.4045C15.5956 7.11171 15.1209 7.11171 14.828 7.4045L14.169 8.063C13.8779 7.9019 13.5696 7.77393 13.25 7.6815V6.75C13.25 6.33579 12.9142 6 12.5 6H11.5C11.0858 6 10.75 6.33579 10.75 6.75V7.6815C10.4303 7.77415 10.1219 7.9021 9.8305 8.063L9.1715 7.4045C8.87862 7.11171 8.40387 7.11171 8.111 7.4045L7.4035 8.1115C7.26274 8.25217 7.18366 8.443 7.18366 8.642C7.18366 8.841 7.26274 9.03183 7.4035 9.1725L8.0625 9.831C7.90129 10.1221 7.77332 10.4303 7.681 10.75H6.75C6.33579 10.75 6 11.0858 6 11.5V12.5C6 12.9142 6.33579 13.25 6.75 13.25H7.681C7.77329 13.5698 7.90126 13.8783 8.0625 14.1695L7.403 14.829C7.11021 15.1219 7.11021 15.5966 7.403 15.8895L8.11 16.5965C8.40774 16.8778 8.87326 16.8778 9.171 16.5965L9.83 15.938C10.1215 16.0991 10.4301 16.2272 10.75 16.32V17.25C10.75 17.6642 11.0858 18 11.5 18H12.5C12.9142 18 13.25 17.6642 13.25 17.25V16.32C13.5697 16.2274 13.8781 16.0994 14.1695 15.9385L14.8285 16.597C15.1214 16.8898 15.5961 16.8898 15.889 16.597L16.596 15.89C16.8888 15.5971 16.8888 15.1224 16.596 14.8295L15.9375 14.171C16.0987 13.8796 16.2266 13.571 16.319 13.251H17.25C17.4491 13.251 17.64 13.1718 17.7807 13.031C17.9214 12.8901 18.0003 12.6991 18 12.5V11.5C18 11.0858 17.6642 10.75 17.25 10.75ZM12 14.5C10.6193 14.5 9.49999 13.3807 9.49999 12C9.49999 10.6193 10.6193 9.50002 12 9.50002C13.3807 9.50002 14.5 10.6193 14.5 12C14.4983 13.3801 13.38 14.4984 12 14.5Z" fill="#161616"/>
</svg>
