<svg width="24" height="24" viewBox="0 0 24 24" fill="none" xmlns="http://www.w3.org/2000/svg">
<path fill-rule="evenodd" clip-rule="evenodd" d="M13.1787 2C17.9228 2.00368 21.7677 5.84858 21.7714 10.5926C21.7226 13.1694 20.5269 15.59 18.5103 17.1948C18.4626 17.2347 18.4349 17.2936 18.4344 17.3558V21.1591C18.4344 21.6198 18.0609 21.9933 17.6002 21.9933C17.1395 21.9933 16.766 21.6198 16.766 21.1591V16.8436C16.7661 16.5779 16.8928 16.3282 17.1072 16.1712C18.9325 14.892 20.0446 12.8241 20.1054 10.596C20.1026 6.77301 17.0042 3.67457 13.1812 3.67181C7.96475 3.67181 6.69171 7.7504 5.22011 12.4722C5.1695 12.634 5.11834 12.7984 5.06661 12.9652C5.04667 13.0286 5.05816 13.0978 5.09755 13.1513C5.13694 13.2049 5.19951 13.2365 5.266 13.2363H6.33799C6.79873 13.2363 7.17223 13.6098 7.17223 14.0706V16.3597C7.17315 17.2164 7.86718 17.9109 8.72391 17.9122H9.67494C10.1357 17.9122 10.5092 18.2857 10.5092 18.7465V21.1658C10.5092 21.6265 10.1357 22 9.67494 22C9.2142 22 8.8407 21.6265 8.8407 21.1658V19.7008C8.8407 19.6699 8.82837 19.6403 8.80644 19.6186C8.78452 19.5968 8.75481 19.5847 8.72391 19.5849C6.9459 19.583 5.50513 18.1419 5.50375 16.3639V15.1175C5.50375 15.0024 5.41038 14.909 5.29519 14.909H3.83361C3.5656 14.9088 3.314 14.7798 3.15735 14.5624C3.00069 14.3449 2.95806 14.0654 3.04275 13.8111C3.24464 13.203 3.43568 12.5898 3.62672 11.9758L3.62677 11.9756C5.08334 7.30145 6.73433 2.00334 13.1787 2ZM15.7615 12.1193C16.2587 12.2327 16.7716 12.0085 17.026 11.5666C17.2805 11.1248 17.217 10.5686 16.8694 10.1955L16.2971 9.58071C16.2479 9.52686 16.2479 9.44436 16.2971 9.39051L16.8694 8.77317C17.2167 8.39976 17.28 7.84353 17.0254 7.40165C16.7709 6.95976 16.258 6.73547 15.7607 6.84859L14.9423 7.03879C14.8723 7.05672 14.801 7.01453 14.783 6.94452L14.5369 6.13698C14.3896 5.64826 13.9394 5.31378 13.429 5.31378C12.9186 5.31378 12.4684 5.64826 12.3211 6.13698L12.075 6.94452C12.0559 7.01326 11.9861 7.05479 11.9165 7.03879L11.0965 6.84859C10.6007 6.73809 10.0907 6.96234 9.83695 7.40233C9.58323 7.84233 9.64465 8.39612 9.98861 8.76983L10.5617 9.38717C10.6102 9.44132 10.6102 9.52322 10.5617 9.57738L9.98861 10.1955C9.64077 10.5687 9.57721 11.1252 9.83194 11.5672C10.0867 12.0092 10.6 12.2332 11.0973 12.1193L11.9165 11.9299C11.9861 11.912 12.0571 11.9538 12.075 12.0234L12.3211 12.8309C12.4684 13.3196 12.9186 13.6541 13.429 13.6541C13.9394 13.6541 14.3896 13.3196 14.5369 12.8309L14.783 12.0234C14.8028 11.9548 14.8728 11.9138 14.9423 11.9299L15.7615 12.1193ZM13.4257 10.7336C12.7346 10.7336 12.1743 10.1734 12.1743 9.48227C12.1743 8.79117 12.7346 8.23092 13.4257 8.23092C14.1168 8.23092 14.677 8.79117 14.677 9.48227C14.677 10.1721 14.1188 10.7318 13.429 10.7336H13.4257Z" fill="#161616"/>
</svg>
