<svg width="24" height="24" viewBox="0 0 24 24" fill="none" xmlns="http://www.w3.org/2000/svg">
<path fill-rule="evenodd" clip-rule="evenodd" d="M12.143 4C15.9382 4.00294 19.0142 7.07887 19.0171 10.8741C18.9781 12.9355 18.0215 14.872 16.4083 16.1558C16.3701 16.1878 16.3479 16.2349 16.3475 16.2846V19.3273C16.3475 19.6959 16.0487 19.9947 15.6802 19.9947C15.3116 19.9947 15.0128 19.6959 15.0128 19.3273V15.8749C15.0129 15.6623 15.1143 15.4626 15.2857 15.3369C16.746 14.3136 17.6357 12.6593 17.6843 10.8768C17.6821 7.81841 15.2034 5.33966 12.145 5.33745C7.9718 5.33745 6.95337 8.60032 5.77609 12.3777C5.7356 12.5072 5.69467 12.6387 5.65329 12.7722C5.63733 12.8229 5.64652 12.8782 5.67804 12.9211C5.70955 12.9639 5.75961 12.9892 5.8128 12.9891H6.67039C7.03898 12.9891 7.33778 13.2879 7.33778 13.6565V15.4878C7.33852 16.1732 7.89375 16.7287 8.57913 16.7298H9.33995C9.70854 16.7298 10.0073 17.0286 10.0073 17.3972V19.3326C10.0073 19.7012 9.70854 20 9.33995 20C8.97136 20 8.67256 19.7012 8.67256 19.3326V18.1607C8.67256 18.136 8.6627 18.1123 8.64515 18.0948C8.62761 18.0774 8.60385 18.0677 8.57913 18.0679C7.15672 18.0664 6.00411 16.9135 6.003 15.4911V14.494C6.003 14.4019 5.9283 14.3272 5.83615 14.3272H4.66689C4.45248 14.327 4.2512 14.2239 4.12588 14.0499C4.00056 13.8759 3.96645 13.6523 4.0342 13.4489C4.19571 12.9624 4.34854 12.4718 4.50138 11.9806L4.50142 11.9805C5.66667 8.24116 6.98746 4.00267 12.143 4ZM14.2092 12.0955C14.6069 12.1862 15.0172 12.0068 15.2208 11.6534C15.4244 11.2999 15.3735 10.8549 15.0955 10.5565L14.6377 10.0646C14.5983 10.0215 14.5983 9.95554 14.6377 9.91245L15.0955 9.41858C15.3733 9.11985 15.424 8.67488 15.2203 8.32137C15.0167 7.96786 14.6063 7.78842 14.2085 7.87892L13.5538 8.03108C13.4978 8.04543 13.4408 8.01167 13.4264 7.95567L13.2295 7.30963C13.1116 6.91865 12.7515 6.65107 12.3432 6.65107C11.9348 6.65107 11.5747 6.91865 11.4569 7.30963L11.26 7.95567C11.2447 8.01066 11.1888 8.04388 11.1332 8.03108L10.4772 7.87892C10.0806 7.79052 9.67251 7.96992 9.46953 8.32192C9.26656 8.67391 9.31569 9.11695 9.59086 9.41592L10.0494 9.90978C10.0881 9.9531 10.0881 10.0186 10.0494 10.0619L9.59086 10.5565C9.31259 10.855 9.26174 11.3002 9.46553 11.6538C9.66931 12.0074 10.08 12.1866 10.4778 12.0955L11.1332 11.944C11.1889 11.9296 11.2456 11.9631 11.26 12.0187L11.4569 12.6648C11.5747 13.0557 11.9348 13.3233 12.3432 13.3233C12.7515 13.3233 13.1116 13.0557 13.2295 12.6648L13.4264 12.0187C13.4422 11.9639 13.4982 11.9311 13.5538 11.944L14.2092 12.0955ZM12.3405 10.9869C11.7876 10.9869 11.3394 10.5387 11.3394 9.9858C11.3394 9.43292 11.7876 8.98472 12.3405 8.98472C12.8933 8.98472 13.3415 9.43292 13.3415 9.9858C13.3416 10.5376 12.895 10.9854 12.3431 10.9869H12.3405Z" fill="#161616"/>
</svg>
