<svg width="24" height="24" viewBox="0 0 24 24" fill="none" xmlns="http://www.w3.org/2000/svg">
<path fill-rule="evenodd" clip-rule="evenodd" d="M12.1072 6C14.9537 6.00221 17.2606 8.30915 17.2628 11.1556C17.2335 12.7016 16.5162 14.154 15.3062 15.1169C15.2776 15.1408 15.2609 15.1762 15.2607 15.2135V17.4955C15.2607 17.7719 15.0366 17.996 14.7601 17.996C14.4837 17.996 14.2596 17.7719 14.2596 17.4955V14.9061C14.2597 14.7467 14.3357 14.5969 14.4643 14.5027C15.5595 13.7352 16.2267 12.4945 16.2632 11.1576C16.2616 8.86381 14.4025 7.00474 12.1087 7.00309C8.97885 7.00309 8.21502 9.45024 7.33207 12.2833C7.3017 12.3804 7.271 12.479 7.23997 12.5791C7.228 12.6172 7.23489 12.6587 7.25853 12.6908C7.28216 12.7229 7.3197 12.7419 7.3596 12.7418H8.00279C8.27924 12.7418 8.50334 12.9659 8.50334 13.2423V14.6158C8.50389 15.1299 8.92031 15.5465 9.43434 15.5473H10.005C10.2814 15.5473 10.5055 15.7714 10.5055 16.0479V17.4995C10.5055 17.7759 10.2814 18 10.005 18C9.72852 18 9.50442 17.7759 9.50442 17.4995V16.6205C9.50442 16.602 9.49702 16.5842 9.48387 16.5711C9.47071 16.5581 9.45288 16.5508 9.43434 16.5509C8.36754 16.5498 7.50308 15.6851 7.50225 14.6183V13.8705C7.50225 13.8014 7.44623 13.7454 7.37712 13.7454H6.50017C6.33936 13.7453 6.1884 13.6679 6.09441 13.5374C6.00042 13.4069 5.97484 13.2392 6.02565 13.0867C6.14678 12.7218 6.26141 12.3539 6.37603 11.9855L6.37606 11.9854C7.25 9.18087 8.2406 6.002 12.1072 6ZM13.6569 12.0717C13.9552 12.1397 14.2629 12.0052 14.4156 11.7401C14.5683 11.4749 14.5302 11.1412 14.3216 10.9174L13.9783 10.5485C13.9487 10.5162 13.9487 10.4667 13.9783 10.4344L14.3216 10.064C14.53 9.83993 14.568 9.50619 14.4153 9.24106C14.2625 8.97593 13.9548 8.84135 13.6564 8.90922L13.1654 9.02335C13.1234 9.03411 13.0806 9.00879 13.0698 8.96679L12.9221 8.48226C12.8337 8.18903 12.5637 7.98834 12.2574 7.98834C11.9511 7.98834 11.6811 8.18903 11.5927 8.48226L11.445 8.96679C11.4335 9.00803 11.3916 9.03295 11.3499 9.02335L10.8579 8.90922C10.5604 8.84293 10.2544 8.97748 10.1022 9.24147C9.94994 9.50547 9.98679 9.83775 10.1932 10.062L10.537 10.4324C10.5661 10.4649 10.5661 10.514 10.537 10.5465L10.1932 10.9174C9.98446 11.1413 9.94632 11.4752 10.0992 11.7404C10.252 12.0056 10.56 12.14 10.8584 12.0717L11.3499 11.958C11.3917 11.9473 11.4342 11.9724 11.445 12.0141L11.5927 12.4986C11.6811 12.7918 11.9511 12.9925 12.2574 12.9925C12.5637 12.9925 12.8337 12.7918 12.9221 12.4986L13.0698 12.0141C13.0817 11.973 13.1237 11.9484 13.1654 11.958L13.6569 12.0717ZM12.2553 11.2402C11.8407 11.2402 11.5045 10.9041 11.5045 10.4894C11.5045 10.0748 11.8407 9.73862 12.2553 9.73862C12.67 9.73862 13.0062 10.0748 13.0062 10.4894C13.0062 10.9033 12.6712 11.2391 12.2573 11.2402H12.2553Z" fill="#161616"/>
</svg>
