<?xml version="1.0" encoding="UTF-8"?>
<svg width="24px" height="24px" viewBox="0 0 24 24" version="1.1" xmlns="http://www.w3.org/2000/svg" xmlns:xlink="http://www.w3.org/1999/xlink">
    <title>Bold / Large / Essentials / Delete </title>
    <g id="Bold-/-Large-/-Essentials-/-Delete-" stroke="none" stroke-width="1" fill="none" fill-rule="evenodd">
        <path d="M18.8723253,7.66666667 C19.0018076,7.66666667 19.1252812,7.71934405 19.2125523,7.81155919 C19.2998769,7.90363352 19.3430385,8.02685228 19.3314934,8.15111466 L19.3314934,8.15111466 L18.1466921,20.7164448 C18.060369,21.6322386 17.2638661,22.3333333 16.3100195,22.3333333 L16.3100195,22.3333333 L7.69185757,22.3333333 C6.73801102,22.3333333 5.94150809,21.6322386 5.85518499,20.7164448 L5.85518499,20.7164448 L4.6685396,8.15111466 C4.65685568,8.02647826 4.70021773,7.90286855 4.78797291,7.81065299 C4.87572808,7.71843744 4.99974341,7.66616238 5.12955179,7.66666667 L5.12955179,7.66666667 Z M9.33333333,10.3333333 C8.9651435,10.3333333 8.66666667,10.6318102 8.66666667,11 L8.66666667,11 L8.66666667,19 C8.66666667,19.3681898 8.9651435,19.6666667 9.33333333,19.6666667 C9.70152317,19.6666667 10,19.3681898 10,19 L10,19 L10,11 C10,10.6318102 9.70152317,10.3333333 9.33333333,10.3333333 Z M14.6666667,10.3333333 C14.2984768,10.3333333 14,10.6318102 14,11 L14,11 L14,19 C14,19.3681898 14.2984768,19.6666667 14.6666667,19.6666667 C15.0348565,19.6666667 15.3333333,19.3681898 15.3333333,19 L15.3333333,19 L15.3333333,11 C15.3333333,10.6318102 15.0348565,10.3333333 14.6666667,10.3333333 Z M14.2727273,1 C15.5279199,1 16.5454545,1.99492278 16.5454545,3.22222222 L16.5454545,3.22222222 L16.5454545,4.33333333 C16.5454545,4.45606328 16.647208,4.55555556 16.7727273,4.55555556 L16.7727273,4.55555556 L21.0909091,4.55555556 C21.5929861,4.55555556 22,4.95352467 22,5.44444444 C22,5.93536422 21.5929861,6.33333333 21.0909091,6.33333333 L21.0909091,6.33333333 L2.90909091,6.33333333 C2.40701386,6.33333333 2,5.93536422 2,5.44444444 C2,4.95352467 2.40701386,4.55555556 2.90909091,4.55555556 L2.90909091,4.55555556 L7.22727273,4.55555556 C7.2875492,4.55555556 7.34535691,4.53214292 7.38797881,4.49046817 C7.43060072,4.44879342 7.45454545,4.39227033 7.45454545,4.33333333 L7.45454545,4.33333333 L7.45454545,3.22222222 C7.45454545,1.99492278 8.47208011,1 9.72727273,1 L9.72727273,1 Z M13.5555556,2.33333333 L9.11111111,2.33333333 C8.86565122,2.33333333 8.66666667,2.48257175 8.66666667,2.66666667 L8.66666667,2.66666667 L8.66666667,3.5 C8.66666667,3.59204746 8.76615894,3.66666667 8.88888889,3.66666667 L8.88888889,3.66666667 L13.7777778,3.66666667 C13.9005077,3.66666667 14,3.59204746 14,3.5 L14,3.5 L14,2.66666667 C14,2.48257175 13.8010154,2.33333333 13.5555556,2.33333333 L13.5555556,2.33333333 Z" id="Delete" fill="#050505"></path>
    </g>
</svg>