<?xml version="1.0" encoding="UTF-8"?>
<svg width="24px" height="24px" viewBox="0 0 24 24" version="1.1" xmlns="http://www.w3.org/2000/svg" xmlns:xlink="http://www.w3.org/1999/xlink">
    <title>Bold / Large / Essentials / Logout </title>
    <g id="Bold-/-Large-/-Essentials-/-Logout-" stroke="none" stroke-width="1" fill="none" fill-rule="evenodd">
        <path d="M12.4165693,2 C13.3370353,2 14.0832204,2.74618511 14.0832204,3.66665109 L14.0832204,3.66665109 L14.0832204,6.16662771 C14.0832204,6.6268607 13.7101278,6.99995326 13.2498948,6.99995326 C12.7896618,6.99995326 12.4165693,6.6268607 12.4165693,6.16662771 L12.4165693,6.16662771 L12.4165693,4.08331386 C12.4165693,3.85319736 12.230023,3.66665109 11.9999065,3.66665109 L11.9999065,3.66665109 L4.08331386,3.66665109 C3.85319736,3.66665109 3.66665109,3.85319736 3.66665109,4.08331386 L3.66665109,4.08331386 L3.66665109,19.0831736 C3.66665109,19.3132901 3.85319736,19.4998364 4.08331386,19.4998364 L4.08331386,19.4998364 L11.9999065,19.4998364 C12.230023,19.4998364 12.4165693,19.3132901 12.4165693,19.0831736 L12.4165693,19.0831736 L12.4165693,16.9998598 C12.4165693,16.5396268 12.7896618,16.1665342 13.2498948,16.1665342 C13.7101278,16.1665342 14.0832204,16.5396268 14.0832204,16.9998598 L14.0832204,16.9998598 L14.0832204,19.4998364 C14.0832204,20.4203024 13.3370353,21.1664875 12.4165693,21.1664875 L12.4165693,21.1664875 L3.66665109,21.1664875 C2.74618511,21.1664875 2,20.4203024 2,19.4998364 L2,19.4998364 L2,3.66665109 C2,2.74618511 2.74618511,2 3.66665109,2 L3.66665109,2 Z M15.7737676,7.93235286 C16.0447528,7.78753694 16.3734411,7.80358505 16.6290299,7.97411082 L16.6290299,7.97411082 L21.6289832,11.307413 C21.8607769,11.4611392 22,11.7213082 22,11.9999065 C22,12.2785048 21.8607769,12.5386738 21.6289832,12.6932334 L21.6289832,12.6932334 L16.6290299,16.0265355 C16.4920755,16.1178564 16.3311429,16.1665342 16.1665342,16.1665342 C15.7089259,16.1602586 15.3394843,15.790817 15.3332087,15.3332087 L15.3332087,15.3332087 L15.3332087,13.2498948 L7.8332788,13.2498948 C7.38670098,13.2498948 6.97404605,13.0116484 6.75075713,12.6249007 C6.52746822,12.2381529 6.52746822,11.7616601 6.75075713,11.3749123 C6.97404605,10.9881646 7.38670098,10.7499182 7.8332788,10.7499182 L7.8332788,10.7499182 L15.3332087,10.7499182 L15.3332087,8.66660434 C15.3334699,8.35935103 15.5027823,8.07716878 15.7737676,7.93235286 Z" id="Combined-Shape" fill="#050505"></path>
    </g>
</svg>