<?xml version="1.0" encoding="UTF-8"?>
<svg width="24px" height="24px" viewBox="0 0 24 24" version="1.1" xmlns="http://www.w3.org/2000/svg" xmlns:xlink="http://www.w3.org/1999/xlink">
    <title>Bold / Large / Essentials / Phone Ringing </title>
    <g id="Bold-/-Large-/-Essentials-/-Phone-Ringing-" stroke="none" stroke-width="1" fill="none" fill-rule="evenodd">
        <path d="M3.81936215,5.92383071 C4.63300664,5.1104319 5.95192444,5.1104319 6.76556893,5.92383071 L6.76556893,5.92383071 L8.53495988,7.69238822 C9.34616256,8.50726614 9.34616256,9.82455051 8.53495988,10.6394284 L8.53495988,10.6394284 L8.21325244,10.959469 C9.67756444,12.7057619 11.2919907,14.3204671 13.0380307,15.7850807 L13.0380307,15.7850807 L13.3589047,15.4642067 C14.1725492,14.6508079 15.491467,14.6508079 16.3051115,15.4642067 L16.3051115,15.4642067 L18.0720021,17.2319308 C18.8854009,18.0455752 18.8854009,19.364493 18.0720021,20.1781375 L18.0720021,20.1781375 L17.1010457,21.1482605 C16.1148684,22.1127533 14.5922265,22.2657096 13.4339142,21.5166405 C9.08871672,18.6322437 5.36459476,14.907555 2.48085915,10.5619186 C1.72106439,9.40621796 1.87475446,7.87627151 2.84923918,6.89478711 L2.84923918,6.89478711 Z M11.5820128,2 C17.3328525,2.00688862 21.9931114,6.66714753 22,12.4179872 C22,12.8782829 21.6268567,13.2514262 21.166561,13.2514262 C20.7062654,13.2514262 20.333122,12.8782829 20.333122,12.4179872 C20.3276106,7.5871678 16.4128322,3.67238945 11.5820128,3.66687795 C11.1217171,3.66687795 10.7485738,3.29373461 10.7485738,2.83343898 C10.7485738,2.37314334 11.1217171,2 11.5820128,2 Z M11.5820128,5.33375591 C15.4926218,5.33834853 18.6616515,8.50737821 18.6662441,12.4179872 C18.6662441,12.8782829 18.2931008,13.2514262 17.8328051,13.2514262 C17.3725095,13.2514262 16.9993661,12.8782829 16.9993661,12.4179872 C16.9956924,9.4275886 14.5724114,7.00430758 11.5820128,7.00063386 C11.1217171,7.00063386 10.7485738,6.62749052 10.7485738,6.16719489 C10.7485738,5.70689925 11.1217171,5.33375591 11.5820128,5.33375591 Z M11.5820128,8.66751182 C13.6523911,8.66980841 15.3301916,10.3476089 15.3324882,12.4179872 C15.3324882,12.8782828 14.9593448,13.2514262 14.4990492,13.2514262 C14.0387536,13.2514262 13.6656102,12.8782828 13.6656102,12.4179872 C13.6656102,11.2672481 12.7327519,10.3343898 11.5820128,10.3343898 C11.1217171,10.3343898 10.7485738,9.96124643 10.7485738,9.5009508 C10.7485738,9.04065516 11.1217171,8.66751182 11.5820128,8.66751182 Z" id="Combined-Shape" fill="#050505"></path>
    </g>
</svg>