<svg width="120" height="120" viewBox="0 0 120 120" fill="none" xmlns="http://www.w3.org/2000/svg">
<path fill-rule="evenodd" clip-rule="evenodd" d="M60.12 25.569C57.6762 24.9744 55.1268 25.5372 51.267 27.4572C46.1838 29.9838 45.5538 25.3734 47.1342 22.989C49.593 19.2924 56.2608 20.529 60.12 25.569ZM73.572 48.9222C72.8643 47.8031 70.2111 46.5135 67.8308 45.3566C65.872 44.4046 64.0981 43.5425 63.7452 42.939C63.3517 42.2632 63.4474 40.4687 63.5634 38.2936C63.7529 34.741 63.9966 30.1728 62.2512 27.8052C57.3162 21.123 39.3558 34.1328 36.3174 46.5756C35.9736 47.991 48.471 53.2236 53.766 50.3556C54.4524 49.9861 54.7537 48.7663 55.0337 47.633C55.1301 47.2427 55.224 46.8627 55.3302 46.5312C54.4464 43.3638 54.0552 38.6322 54.0276 35.3238C54.0276 35.07 54.462 35.0664 54.4776 35.3238C54.4873 35.4986 54.4975 35.7023 54.509 35.9306L54.5091 35.9311V35.9311C54.6602 38.932 55.0257 46.1889 57.0936 48.1074C59.1462 50.0076 68.7546 53.8074 71.6094 53.433C71.5093 52.5748 71.6381 51.7054 71.9828 50.9131C72.3275 50.1208 72.8758 49.4339 73.572 48.9222ZM92.4438 86.76C86.5638 74.265 82.8678 65.4324 77.9442 53.502C77.923 53.4448 77.8906 53.3925 77.8487 53.3482C77.8069 53.3038 77.7566 53.2683 77.7008 53.2438C77.6449 53.2193 77.5848 53.2063 77.5238 53.2056C77.4628 53.2048 77.4024 53.2164 77.346 53.2395C77.2895 53.2626 77.2384 53.2969 77.1955 53.3402C77.1526 53.3835 77.1189 53.435 77.0963 53.4917C77.0737 53.5483 77.0628 53.6089 77.0642 53.6698C77.0655 53.7308 77.0791 53.7908 77.1042 53.8464C77.9802 56.1504 78.8802 58.4432 79.8042 60.7248C75.0835 60.8425 70.1474 61.1262 65.338 61.4026C63.1116 61.5306 60.9124 61.657 58.7742 61.7646C58.2228 61.7922 58.191 62.6604 58.7742 62.637C60.9861 62.5424 63.2347 62.4682 65.4946 62.3936L65.4948 62.3935C70.2459 62.2367 75.0471 62.0781 79.6632 61.7256C79.2006 62.4239 78.7358 63.1264 78.269 63.8318L78.2665 63.8355L78.2665 63.8355C73.94 70.3737 69.4434 77.169 64.9752 83.331C64.7136 83.691 65.2926 84.2418 65.5896 83.8626C69.7896 78.5442 77.6928 67.4388 80.43 62.2182C83.8356 70.5204 87.6444 79.0332 91.4808 87.159C91.77 87.777 92.7516 87.3822 92.4582 86.7678L92.4438 86.76ZM43.7706 66.339C41.6736 69.3876 32.6706 85.1634 32.1804 86.8296C32.1396 86.8912 32.115 86.9619 32.1086 87.0354C32.1022 87.109 32.1143 87.1829 32.1439 87.2506C32.1734 87.3182 32.2194 87.3774 32.2776 87.4227C32.3359 87.468 32.4046 87.498 32.4774 87.51C36.8852 87.7522 41.9354 87.7773 46.6995 87.801H46.6997H46.7003C48.6985 87.811 50.6463 87.8207 52.4754 87.846C53.1012 87.846 53.2554 86.8764 52.6122 86.8686C50.4926 86.8383 48.3001 86.8284 46.0881 86.8184H46.0868H46.0867C41.7414 86.7988 37.3212 86.7789 33.2322 86.6028C34.6466 84.2011 36.5659 80.7964 38.5461 77.2838L38.5463 77.2834L38.5464 77.2832C40.6672 73.5213 42.8576 69.6357 44.5722 66.726C44.8308 66.2646 44.04 65.9466 43.7706 66.339Z" fill="#417FDA"/>
<path fill-rule="evenodd" clip-rule="evenodd" d="M104.867 13.2162C101.902 13.1839 98.0859 13.1083 94.9061 13.0452C92.1735 12.9911 89.9107 12.9462 89.0616 12.9462C88.788 12.9462 88.7952 13.2546 88.8036 13.4778C89.1808 24.7834 89.3601 36.2447 89.5396 47.7221L89.5398 47.7353C89.5927 51.1159 89.6456 54.4979 89.7036 57.8778C89.7036 57.966 89.7386 58.0505 89.801 58.1128C89.8633 58.1752 89.9478 58.2102 90.036 58.2102C90.1242 58.2102 90.2087 58.1752 90.271 58.1128C90.3334 58.0505 90.3684 57.966 90.3684 57.8778C90.3322 54.8767 90.3074 51.7039 90.2818 48.435L90.2818 48.4317L90.2818 48.4286L90.2818 48.4257L90.2817 48.4229L90.2817 48.4204V48.4203V48.4202V48.4202V48.4201V48.4201V48.42C90.1918 36.9093 90.0926 24.209 89.454 13.6206C89.454 13.7712 100.142 13.9392 104.869 13.8006C105.172 13.8 105.152 13.2198 104.867 13.2162ZM95.6898 27.4146C96.5933 27.4273 97.5038 27.404 98.4195 27.3805C99.7471 27.3464 101.086 27.3121 102.431 27.387C102.78 27.4062 102.806 26.8944 102.779 26.6322C102.505 24.5129 102.393 22.3756 102.446 20.2392C102.455 19.9572 102.181 19.8282 101.828 19.7814C100.609 19.617 96.174 20.0904 95.0946 20.3286C94.8695 20.3764 94.8708 20.6306 94.8719 20.8298L94.872 20.8686C94.8913 21.6547 94.8995 22.3741 94.9076 23.0933V23.0936V23.0939V23.0941V23.0944V23.0946V23.0949V23.0951V23.0953V23.0954C94.9209 24.2753 94.9342 25.4549 94.9968 26.9286C95.0136 27.348 95.5368 27.4122 95.6898 27.4146ZM95.6586 20.931C96.3888 20.8741 97.1676 20.8384 97.9539 20.8024C99.2731 20.742 100.613 20.6807 101.779 20.5164C101.619 22.5568 101.693 24.6087 102 26.6322C99.9006 26.5271 97.7967 26.5497 95.7 26.7C95.6034 24.744 95.5914 22.9452 95.6586 20.931ZM18.0141 39.1042L18.0141 39.1043L18.0141 39.1044L18.0142 39.1045C20.8049 47.4503 23.6628 55.9971 25.611 63.0342H25.6194C25.7286 63.441 25.056 63.621 24.9156 63.2298C22.5089 56.5224 20.3421 49.4117 18.2116 42.4198L18.2116 42.4197L18.2115 42.4196L18.2115 42.4196L18.2115 42.4196L18.2115 42.4195L18.2115 42.4195L18.2115 42.4195L18.2115 42.4195C17.5275 40.1748 16.8473 37.9425 16.164 35.7396C13.5084 45.3984 10.908 54.9084 8.4762 64.638C8.3808 65.0364 7.7904 64.8408 7.8762 64.4502C9.40766 57.4045 12.1632 47.3627 14.4358 39.0806C14.8788 37.4661 15.3035 35.9185 15.6972 34.473C15.7878 34.1328 16.3002 33.9642 16.4172 34.32C16.9421 35.8985 17.4765 37.4967 18.0134 39.1023L18.0141 39.1042ZM11.3183 38.394C10.1819 34.323 9.30056 31.1655 8.667 29.5884C8.529 29.2452 8.1192 29.4 8.0322 29.763C6.66339 35.1789 5.37444 41.8417 4.19118 47.958C3.78213 50.0724 3.38572 52.1215 3.003 54.0312C2.99965 54.1052 3.02301 54.178 3.06881 54.2362C3.11462 54.2944 3.17982 54.3343 3.25254 54.3485C3.32526 54.3626 3.40066 54.3502 3.46499 54.3135C3.52932 54.2767 3.5783 54.2181 3.603 54.1482C4.3149 50.9887 4.94325 47.8112 5.5729 44.6271L5.57291 44.627L5.57292 44.627C6.44773 40.2031 7.32504 35.7665 8.4324 31.3482C8.70355 32.2618 9.08391 33.4368 9.5088 34.7495L9.50881 34.7495L9.50883 34.7495L9.50883 34.7495L9.50884 34.7496L9.50886 34.7496L9.50887 34.7497C10.309 37.2217 11.2672 40.1816 11.9514 42.8022C12.0336 43.1268 12.6048 42.9738 12.5106 42.6414C12.0859 41.144 11.6886 39.7205 11.3183 38.394ZM29.3147 29.0366C29.0787 28.2611 28.8512 27.5134 28.6374 26.8044C28.5276 26.4408 28.098 26.1942 27.9144 26.6028C25.2084 32.4918 23.16 40.062 22.08 46.491C22.0673 46.5767 22.0881 46.6639 22.1381 46.7346C22.1881 46.8053 22.2634 46.8541 22.3484 46.8707C22.4334 46.8873 22.5215 46.8705 22.5944 46.8238C22.6674 46.7771 22.7195 46.7041 22.74 46.62C23.8622 40.2007 25.6986 33.9269 28.215 27.9156C29.59 31.8608 30.8169 36.5238 31.9554 40.8512L31.9554 40.8513L31.9555 40.8516L31.956 40.8536C32.2257 41.8786 32.4904 42.8849 32.751 43.8582C32.841 44.2056 33.3966 44.0022 33.33 43.6782C32.4615 39.376 30.735 33.703 29.3147 29.0366ZM60.7146 94.14C60.351 94.0464 60.1284 94.59 60.4998 94.6956C61.5798 94.9956 64.9692 96.0156 65.8566 96.69C66.7717 97.3869 66.1355 97.43 65.6309 97.4643L65.5482 97.47C62.3361 97.7844 59.1055 97.8666 55.8816 97.716C54.931 97.6691 55.0062 97.0565 55.0933 96.3468C55.1378 95.9851 55.1853 95.5982 55.1016 95.2482C54.9882 94.8102 54.2886 94.92 54.402 95.3616C54.4616 95.6025 54.44 95.9272 54.4167 96.2755C54.3532 97.2284 54.2779 98.3582 55.821 98.436C57.9282 98.5422 63.8418 98.5254 66.051 98.1186C67.3374 97.8876 67.5096 96.75 65.7966 95.8152C65.8012 95.8254 65.792 95.8203 65.755 95.7997C65.5587 95.6898 64.578 95.1411 60.7146 94.14ZM63.843 82.659C63.6954 82.6098 63.5476 82.5595 63.3997 82.5091C62.9847 82.3679 62.5689 82.2263 62.154 82.1082C62.1127 82.09 62.0682 82.08 62.023 82.079C61.9778 82.078 61.9329 82.0858 61.8908 82.1022C61.8487 82.1185 61.8102 82.1429 61.7775 82.1741C61.7449 82.2053 61.7186 82.2427 61.7004 82.284C61.6822 82.3253 61.6722 82.3698 61.6712 82.415C61.6702 82.4602 61.678 82.5051 61.6944 82.5472C61.7107 82.5893 61.7351 82.6278 61.7663 82.6605C61.7975 82.6932 61.8349 82.7194 61.8762 82.7376C62.3084 82.8673 62.7388 82.9867 63.1693 83.1061L63.3603 83.1591C63.4638 83.1879 63.5673 83.2167 63.6708 83.2458C63.9954 83.3334 64.176 82.7682 63.843 82.6566V82.659ZM69.9864 83.0502C69.4361 82.5292 68.8494 82.0479 68.2308 81.6102C67.9842 81.4302 67.6794 81.8094 67.8942 82.02C68.0866 82.2153 68.3989 82.4863 68.7326 82.776L68.7327 82.7761C69.3689 83.3284 70.0832 83.9484 70.1934 84.24C69.0467 84.223 67.9167 83.9631 66.8778 83.4774C66.51 83.3094 66.213 83.9466 66.5778 84.1266C67.902 84.7566 73.026 85.9476 69.9864 83.0478V83.0502ZM66.3528 80.2902C66.0445 80.1432 65.7579 79.9546 65.5008 79.7298C65.2008 79.413 64.3476 79.8942 65.8254 80.715C66.6108 81.12 66.48 80.3496 66.3528 80.2884V80.2902ZM116.681 106.26C67.1454 105.449 18.2628 106.027 6.23879 106.464C5.86739 106.464 5.81279 107.058 6.19979 107.054C8.00624 107.054 11.3146 107.006 15.9346 106.938C33.7046 106.679 70.8796 106.137 116.638 106.969C117.088 106.976 117.138 106.268 116.681 106.26ZM103.619 37.515C103.619 37.746 103.518 38.3322 103.186 38.3514C100.712 38.502 98.2338 38.4678 95.7534 38.4066C95.6708 38.403 95.5927 38.3677 95.5355 38.3079C95.4782 38.2482 95.4463 38.1686 95.4463 38.0859C95.4463 38.0032 95.4782 37.9236 95.5355 37.8639C95.5927 37.8041 95.6708 37.7688 95.7534 37.7652C99.3381 37.8192 101.439 37.7051 102.329 37.6568C102.655 37.6391 102.819 37.6302 102.833 37.6416C102.833 37.6416 102.565 34.233 102.442 32.529H95.7942C95.7841 33.8832 95.8643 35.2366 96.0342 36.5802C96.0516 36.6713 96.0336 36.7656 95.9839 36.8439C95.9342 36.9221 95.8565 36.9785 95.7667 37.0015C95.6768 37.0244 95.5816 37.0123 95.5004 36.9674C95.4192 36.9226 95.3582 36.8485 95.3298 36.7602C95.0706 35.269 95.022 33.7488 95.1852 32.244C95.2045 32.1525 95.2531 32.0698 95.3235 32.0083C95.394 31.9468 95.4825 31.9099 95.5758 31.9032C95.6775 31.9032 96.0628 31.8905 96.6101 31.8725C98.1653 31.8213 101.028 31.7271 102.404 31.7586C102.498 31.7494 102.592 31.7599 102.682 31.7895C102.772 31.8192 102.854 31.8672 102.924 31.9305C102.994 31.9939 103.05 32.0711 103.088 32.1574C103.126 32.2436 103.146 32.3369 103.146 32.4312C103.255 33.4505 103.417 35.254 103.557 36.8223L103.619 37.515ZM103.252 45.1956C103.252 44.8038 103.859 44.859 103.866 45.246C103.866 46.0137 103.881 46.7817 103.896 47.5416V47.542V47.5424V47.5427V47.543V47.5434V47.5437C103.904 47.9442 103.912 48.3425 103.918 48.7374C103.918 48.7823 103.92 48.8392 103.923 48.9039C103.939 49.2715 103.966 49.8913 103.609 49.9974C103.039 50.1612 98.7564 50.0412 98.0724 49.9974C97.9054 49.9867 97.7196 49.998 97.5308 50.0095C96.9459 50.045 96.3325 50.0823 96.1638 49.4736C96.0718 49.1513 96.0499 47.0123 96.0363 45.6686C96.0318 45.2337 96.0282 44.8821 96.0234 44.7024C96.0197 44.5644 96.0102 44.4231 96.0008 44.2846C95.9605 43.6853 95.9237 43.1382 96.375 43.1382C96.5483 43.1382 96.9339 43.1298 97.4364 43.1188C99.2546 43.079 102.604 43.0056 102.975 43.1772C103.031 43.2023 103.078 43.2429 103.111 43.2943C103.145 43.3457 103.162 43.4055 103.162 43.4667C103.162 43.5279 103.145 43.5877 103.111 43.6391C103.078 43.6905 103.031 43.7311 102.975 43.7562C102.571 43.9487 99.3054 43.894 97.6085 43.8656H97.6084L97.6081 43.8656C97.2004 43.8587 96.8832 43.8534 96.7182 43.8534C96.7414 45.6282 96.7636 47.4064 96.7848 49.188C99.6407 49.1359 101.608 49.2097 102.55 49.2451C102.932 49.2594 103.145 49.2674 103.182 49.2582C103.19 48.817 103.197 48.3754 103.204 47.9336L103.204 47.9157L103.205 47.8979C103.219 46.9969 103.234 46.0955 103.252 45.1956ZM73.0134 20.2158C72.258 23.1678 71.3508 26.4174 69.5202 28.9122L69.461 28.9927C69.2032 29.3434 69.0657 29.5306 68.882 29.6072C68.6717 29.6949 68.4011 29.6377 67.8206 29.5151L67.6872 29.487C66.1056 29.1557 65.765 28.2882 65.29 27.0785C65.0983 26.5902 64.8847 26.0462 64.5588 25.4592C64.398 25.1778 63.9642 25.4316 64.0698 25.7058C64.3096 26.3697 64.5852 27.0213 64.8609 27.6731L64.861 27.6733L64.861 27.6734C64.9895 27.977 65.1179 28.2807 65.2428 28.5858C65.0028 28.5858 63.9294 29.9622 63.753 30.189C63.5766 30.4158 63.9528 30.8112 64.2102 30.5412C64.509 30.2297 64.7979 29.9073 65.0866 29.5851L65.0867 29.5851L65.0867 29.5851L65.0867 29.585L65.0868 29.585L65.0869 29.5849C65.248 29.4051 65.409 29.2255 65.5716 29.0478C65.9878 29.4656 66.4931 29.7839 67.0497 29.9788C67.6064 30.1738 68.1998 30.2403 68.7858 30.1734C69.2607 30.121 69.5359 29.7544 69.8007 29.4018L69.8009 29.4016L69.8014 29.401L69.8019 29.4002L69.8025 29.3995C69.8402 29.3493 69.8777 29.2993 69.9156 29.2506C71.9142 26.6028 72.6996 23.463 73.4556 20.3106C73.5372 19.965 73.0992 19.8792 73.0134 20.2158ZM70.4634 14.4384C71.1906 13.2888 73.1418 13.92 73.0674 15.42C73.6626 14.5098 75.3258 15.591 75.1026 16.3302C74.8794 17.0694 74.262 18.8994 73.6482 19.2162C73.0344 19.533 68.6718 18.3126 67.7118 17.922C67.3193 19.0056 66.6947 19.9904 65.8818 20.8074C65.5748 21.111 65.4578 20.8228 65.3283 20.504C65.1814 20.1423 65.0186 19.7413 64.5444 20.1198C63.8718 20.6592 64.0872 22.8564 64.2156 23.1696C64.3435 23.4806 64.2684 23.5406 64.0315 23.73C63.9051 23.8311 63.7326 23.969 63.5202 24.2016C62.9967 24.9104 62.3645 25.5321 61.647 26.0436C61.6123 26.0608 61.5746 26.071 61.536 26.0736C61.4974 26.0762 61.4587 26.0711 61.422 26.0588C61.3854 26.0464 61.3515 26.0269 61.3223 26.0015C61.2932 25.976 61.2694 25.9451 61.2522 25.9104C61.235 25.8757 61.2248 25.838 61.2222 25.7994C61.2196 25.7608 61.2247 25.7221 61.237 25.6854C61.2494 25.6488 61.2689 25.6149 61.2943 25.5858C61.3198 25.5566 61.3507 25.5328 61.3854 25.5156C61.8095 25.2379 62.1828 24.7848 62.5614 24.325C62.8593 23.9634 63.1605 23.5977 63.4926 23.31C63.2736 22.6086 63.219 19.9086 64.3212 19.3686C64.4511 17.674 64.6957 15.9901 65.0532 14.3286C65.1017 14.0477 65.2388 13.7897 65.4445 13.5922C65.6501 13.3948 65.9135 13.2683 66.1961 13.2313C66.4788 13.1942 66.7659 13.2485 67.0155 13.3862C67.2651 13.524 67.4641 13.7379 67.5834 13.9968C68.2692 12.5532 70.4364 12.792 70.4634 14.4384ZM68.9304 21.7248C68.5596 21.5448 68.199 22.7064 68.6136 22.7574C69.0282 22.8084 69.216 21.861 68.9304 21.7248ZM68.0586 26.2728C68.0276 26.2487 67.961 26.2276 67.8783 26.2013C67.585 26.1084 67.089 25.9511 67.257 25.3656C67.266 25.3086 67.2542 25.2503 67.2238 25.2014C67.1933 25.1524 67.1463 25.116 67.0912 25.0989C67.0361 25.0818 66.9767 25.0851 66.9239 25.1081C66.871 25.1312 66.8283 25.1726 66.8034 25.2246C66.7489 25.3922 66.7341 25.5701 66.7604 25.7443C66.7866 25.9186 66.8531 26.0843 66.9545 26.2284C67.056 26.3724 67.1896 26.4909 67.3448 26.5743C67.5 26.6577 67.6725 26.7039 67.8486 26.709C67.9406 26.6997 68.026 26.657 68.0886 26.589C68.1098 26.5674 68.126 26.5415 68.1361 26.5129C68.1463 26.4844 68.15 26.4541 68.1472 26.4239C68.1443 26.3938 68.1349 26.3647 68.1196 26.3386C68.1043 26.3125 68.0835 26.29 68.0586 26.2728ZM69.4662 20.2548C69.7866 20.2518 69.7788 19.7304 69.513 19.6602C69.0366 19.5312 67.6128 19.9602 68.043 20.4402C68.1213 20.5273 68.2574 20.4869 68.4764 20.4219C68.7058 20.3538 69.0261 20.2588 69.4662 20.2548ZM72.5166 20.9046C72.3687 20.6012 72.1196 20.3589 71.8122 20.2194C71.5272 20.0994 71.3982 20.5596 71.5938 20.661C71.8228 20.7727 72.0173 20.9444 72.1566 21.1578C72.2448 21.3378 72.3846 21.3858 72.4872 21.351C72.6648 21.291 72.6 21.0738 72.5166 20.9046ZM71.0304 24.4974C70.8564 23.4648 70.3932 23.2422 70.3812 23.6214C70.3771 23.7503 70.4291 23.9226 70.4853 24.1086C70.5943 24.4699 70.719 24.8831 70.479 25.131C70.2132 25.4088 69.4464 25.131 69.1884 24.8496C68.5884 24.1692 68.4846 25.6512 70.053 25.7328C70.9284 25.7802 71.1528 25.2246 71.0304 24.4974ZM71.2848 23.4066C70.9758 23.2932 71.2182 22.3308 71.562 22.4016C71.8686 22.4016 71.7354 23.58 71.2848 23.4066ZM74.1198 49.4226C76.4736 49.5438 79.1466 49.7196 80.1066 52.281C80.2524 52.6633 80.2481 53.0867 80.0946 53.466C79.3554 55.3506 78.9438 54.5412 79.0038 54.3576C79.0593 54.2064 79.1485 54.027 79.2413 53.8405L79.2413 53.8404C79.4294 53.4623 79.6319 53.0549 79.5978 52.7934C79.3954 52.0447 78.9395 51.3894 78.3078 50.9394C77.3779 50.2731 75.3576 50.0589 74.1694 49.9329L74.0766 49.923C73.7952 49.8918 73.8378 49.4226 74.1198 49.4226ZM75.2808 54.9732C77.1696 56.2164 77.0322 55.1544 76.665 55.02C75.8947 54.7348 75.1928 54.2913 74.6046 53.718C74.3808 53.499 73.4898 53.8002 75.2808 54.9732ZM73.83 53.3856C75.6918 53.0724 75.2028 52.2558 74.8116 52.392V52.3902C74.6036 52.463 74.4501 52.5321 74.3149 52.5931L74.3149 52.5932C73.9038 52.7786 73.661 52.8881 72.5634 52.791C72.1602 52.7598 71.8752 53.7138 73.83 53.3856ZM32.484 84.96C31.0812 85.2372 30.1476 86.94 31.332 88.0902C31.5045 88.2684 31.7103 88.4108 31.9379 88.5094C32.1654 88.608 32.4101 88.6608 32.658 88.6648C32.906 88.6688 33.1523 88.6239 33.3829 88.5328C33.6135 88.4416 33.8238 88.3059 34.002 88.1334C35.2404 86.9316 34.38 84.5826 32.484 84.96ZM77.5374 51.9348C75.5274 51.69 75.5472 54.0072 76.7574 54.6174C78.558 55.5342 79.9338 52.224 77.5374 51.933V51.9348ZM61.4106 93.3348L61.4107 93.333C68.649 92.6639 67.4208 83.6736 61.6884 83.382C61.7664 85.7509 61.5086 91.9947 61.4107 93.333L61.4106 93.333V93.3348ZM62.4234 99.0822C60.9609 99.1403 59.5788 99.0908 58.1914 99.041L58.1911 99.041C57.245 99.007 56.2964 98.973 55.3182 98.973C54.8688 98.973 54.8802 99.6768 55.3182 99.753C57.7119 100.006 60.1222 100.065 62.5254 99.9294C62.6368 99.9174 62.7388 99.8616 62.8091 99.7744C62.8794 99.6871 62.9121 99.5755 62.9001 99.4641C62.8881 99.3527 62.8323 99.2507 62.745 99.1804C62.6578 99.1101 62.5462 99.0774 62.4348 99.0894L62.4234 99.0822ZM48.6432 85.8714H49.887C49.824 85.1732 49.7238 84.4788 49.587 83.7912C50.2645 83.7538 50.9422 83.7203 51.6212 83.6868L51.622 83.6867L51.635 83.6861C51.9544 83.6703 52.2741 83.6544 52.5942 83.6382C53.0592 83.6148 52.9848 82.9074 52.5078 82.923C51.4806 82.9542 50.4536 82.9984 49.4268 83.0556C48.508 78.7101 45.9322 74.8936 42.246 72.4158C42.1715 72.5476 42.0991 72.6794 42.0267 72.8112C41.9014 73.0394 41.7761 73.2676 41.64 73.4958C45.0888 75.6822 47.22 79.3068 48.1704 83.1354C44.0484 83.4048 39.567 83.7762 35.5356 84.438C35.4586 84.4546 35.3906 84.4993 35.3449 84.5634C35.2991 84.6275 35.2789 84.7063 35.2883 84.7845C35.2976 84.8626 35.3357 84.9345 35.3952 84.9861C35.4547 85.0376 35.5313 85.0651 35.61 85.0632C36.3626 84.9839 37.1118 84.9033 37.8591 84.8229C41.352 84.447 44.8007 84.0759 48.3342 83.8668C48.4284 84.3198 48.6432 85.6008 48.6432 85.8714ZM48.729 88.6086H48.7415C48.7324 88.7013 48.6888 89.0244 48.5583 89.9911C48.4991 90.4295 48.422 91.0005 48.3222 91.7424C43.626 91.023 39.4146 90.327 34.722 89.3964C34.242 89.3166 34.182 90.075 34.662 90.1764C39.1148 91.1128 43.5882 91.9066 48.0822 92.5578C45.1728 102.545 33.5592 106.655 24.7056 101.83C18.1716 98.2632 15.1602 91.2522 16.017 83.7948C17.3736 71.9112 28.8312 67.098 39.2526 72.0948L39.8526 71.0466C29.9634 66.171 18.1188 69.9678 15.3342 80.823C13.3752 88.464 15.5922 96.6384 21.9156 101.438C31.4334 108.66 45.996 104.548 49.2906 92.7396L49.5124 92.7737C50.612 92.9428 51.7111 93.1118 52.8102 93.1854C52.9088 93.1851 53.0038 93.1477 53.0761 93.0805C53.1483 93.0134 53.1927 92.9215 53.2003 92.8231C53.2078 92.7247 53.1781 92.6271 53.1169 92.5497C53.0557 92.4723 52.9676 92.4208 52.8702 92.4054C51.8741 92.216 50.8592 92.0898 49.8479 91.964L49.4994 91.9206C49.7455 90.8319 49.8947 89.7236 49.9452 88.6086H48.7415C48.7428 88.5957 48.7434 88.5873 48.7435 88.5822C48.7435 88.5777 48.7432 88.5758 48.7426 88.5757C48.7414 88.5755 48.7392 88.5814 48.7365 88.5888C48.7342 88.5953 48.7316 88.6028 48.729 88.6086ZM42.4842 97.4112C39.8958 99.8784 37.44 101.411 33.7842 101.713C28.7202 102.151 23.8086 99.2256 21.4428 94.7868C21.2712 94.4664 20.7624 94.6854 20.9232 95.0178C22.4416 98.1035 25.1002 100.478 28.3371 101.64C31.574 102.801 35.1357 102.659 38.2698 101.243C40.0736 100.491 41.659 99.2966 42.8802 97.7706C43.0602 97.5306 42.7158 97.1802 42.489 97.3794L42.4842 97.4112ZM29.6154 85.0422C29.329 85.395 29.1229 85.806 29.0114 86.2466C28.8999 86.6872 28.8857 87.1467 28.9698 87.5933C29.0539 88.0399 29.2343 88.4628 29.4984 88.8326C29.7626 89.2025 30.104 89.5103 30.4992 89.7348C30.8232 89.9304 30.585 90.4584 30.237 90.2784C29.7468 90.0235 29.3194 89.6627 28.9859 89.2222C28.6524 88.7817 28.4211 88.2725 28.3088 87.7315C28.1966 87.1905 28.2061 86.6313 28.3367 86.0945C28.4673 85.5576 28.7157 85.0565 29.064 84.6276C30.3504 83.0364 31.41 83.5476 31.0188 83.9202C30.8647 84.067 30.6942 84.1715 30.512 84.2833C30.2317 84.4552 29.9234 84.6443 29.6034 85.0308L29.6154 85.0422ZM92.4402 100.481C85.0686 101.349 79.653 97.098 78.6558 89.5902C78.3843 87.4274 78.5169 85.233 79.047 83.1186C79.1364 82.7466 78.5778 82.5396 78.48 82.9152C75.6804 93.6192 82.5648 102.535 92.5884 101.005C92.9094 100.954 92.7084 100.453 92.4162 100.489L92.4402 100.481ZM92.8782 79.7808C99.8034 79.7808 102.238 87.684 98.0826 92.4192C97.899 92.6268 97.5468 92.3184 97.7148 92.0832C101.368 87.1032 99.1698 80.5032 92.823 80.352C92.4324 80.352 92.5026 79.7652 92.8782 79.7652V79.7808ZM106.018 78.6078C115.243 93.495 100.117 110.341 84.8742 103.808C71.1606 97.9422 70.3278 78.9378 83.2746 71.3514L83.7546 72.4236C70.8504 80.1468 73.0872 99.5886 87.5346 103.441C102.586 107.453 113.977 89.7306 103.495 77.2878C99.366 72.3798 92.8314 70.3704 86.4966 71.2662L86.0112 70.1748C93.0504 68.1606 102.239 72.5214 106.018 78.6174L106.018 78.6078ZM92.3892 85.308C92.8432 85.3931 93.2524 85.6361 93.5444 85.994C93.8364 86.3519 93.9924 86.8016 93.9846 87.2634C93.9246 89.1288 90.9696 90.3294 90.0744 88.233C89.9103 87.883 89.8472 87.4942 89.8922 87.1103C89.9372 86.7264 90.0886 86.3627 90.3293 86.0602C90.5699 85.7577 90.8903 85.5285 91.2542 85.3984C91.6182 85.2682 92.0113 85.2423 92.3892 85.3236V85.308ZM53.7504 54.8538C56.2332 59.2062 59.6664 68.2122 60.5346 73.1664H60.5214C61.0849 76.3891 61.0053 79.7065 60.8557 85.9489C60.8049 88.0685 60.7459 90.5253 60.7014 93.4302C58.707 94.4034 55.9896 94.3494 54.093 93.8448C54.021 92.9512 53.9334 91.5731 53.8304 89.9527C53.4767 84.3898 52.9416 75.9713 52.233 74.5002C50.7608 71.4404 47.979 68.2003 45.1609 64.9177C40.318 59.2768 35.3676 53.5107 36.771 48.3198C40.5252 51.507 51.4158 53.3124 54.1296 50.9124C61.4184 53.94 67.5462 59.124 68.721 60.4578C64.9261 60.5184 61.1387 60.8162 57.381 61.3494C56.4978 59.0253 55.4137 56.7826 54.141 54.6468C54.0084 54.3966 53.6052 54.5958 53.7504 54.8538ZM58.0689 63.1255C58.067 63.1252 58.0651 63.125 58.0632 63.1248L58.0644 63.1128C58.0659 63.117 58.0674 63.1212 58.0689 63.1255ZM69.0677 63.0933C67.0528 63.1714 60.6616 63.4189 58.0689 63.1255C58.0947 63.1974 58.1206 63.2693 58.1464 63.3413C58.2694 63.6836 58.3927 64.0269 58.5144 64.3758C59.4096 64.665 60.36 64.9392 61.0716 65.115C60.9504 65.4624 60.6414 67.3986 60.3132 69.6822C61.1601 72.4589 61.5848 75.3472 61.5732 78.2502C62.9413 78.6161 64.3493 78.8118 65.7654 78.8328C66.5178 77.8314 69.4854 65.9574 69.4854 63.0774C69.382 63.0812 69.2411 63.0866 69.0677 63.0933Z" fill="#4D4D4D"/>
</svg>
