<svg width="120" height="120" viewBox="0 0 120 120" fill="none" xmlns="http://www.w3.org/2000/svg">
<path fill-rule="evenodd" clip-rule="evenodd" d="M30.0484 7.71699C30.8628 7.49815 31.7152 7.46139 32.5453 7.6093C33.7634 7.77235 36.3364 9.67898 34.8999 10.9918C34.6509 11.2084 34.235 10.9298 34.4199 10.6212C34.8513 9.89497 34.2044 8.90586 32.2471 8.38062C31.8924 8.27232 30.0586 8.14898 30.043 8.73619C30.0375 8.83491 29.9946 8.92776 29.9229 8.9957C29.8513 9.06363 29.7564 9.10149 29.6578 9.10149C29.5592 9.10149 29.4643 9.06363 29.3927 8.9957C29.3211 8.92776 29.2781 8.83491 29.2726 8.73619C29.2699 8.64234 29.2876 8.52011 29.3083 8.37749C29.4068 7.69812 29.5724 6.55609 27.9164 5.81517C27.3896 5.62639 26.8153 5.61806 26.2833 5.79148C25.7512 5.96491 25.2915 6.3103 24.9762 6.7736C24.9346 6.83863 24.8734 6.88859 24.8014 6.91613C24.7294 6.94366 24.6506 6.94733 24.5764 6.9266C24.5022 6.90586 24.4365 6.86181 24.3892 6.80092C24.3418 6.74003 24.3151 6.6655 24.3131 6.5883C24.1901 3.72925 20.5838 2.64808 18.2105 3.09571C15.9759 3.51686 13.9568 5.89339 15.2823 8.14958C15.4209 8.38122 15.1743 8.75184 14.897 8.64354C13.8361 8.21396 11.7557 8.33429 11.4167 8.87577C9.87574 11.325 15.6711 11.7353 17.8188 11.8873C17.9048 11.8934 17.9851 11.8991 18.0587 11.9045C21.4861 12.1387 24.8012 11.9217 28.1662 11.7015C29.4612 11.6167 30.7636 11.5315 32.0826 11.4713C32.3605 11.4563 32.3449 11.8576 32.0826 11.8888C31.9815 11.8995 31.8334 11.9162 31.6433 11.9377C28.2424 12.322 11.4173 14.2231 10.3222 9.81796C10.1068 8.96662 10.7387 7.36142 14.36 7.76332C13.5589 5.3525 15.5931 2.89536 18.0125 2.43209C20.6168 1.93813 24.1769 3.03374 24.8862 5.80133C25.3122 5.40763 25.8348 5.13436 26.4006 5.00942C26.9664 4.88448 27.5551 4.91235 28.1067 5.09018C30.0772 5.77804 30.0569 7.13146 30.0493 7.64008C30.0488 7.66843 30.0484 7.69416 30.0484 7.71699ZM114.383 18.0973C114.676 15.6095 112.583 13.6162 110.223 13.1373C108.002 12.689 104.813 13.2763 104.351 15.8261C103.795 15.5058 103.177 15.3096 102.539 15.251C101.9 15.1923 101.257 15.2725 100.652 15.4861C100.176 15.6834 99.7606 16.003 99.4468 16.4125C99.133 16.8221 98.9323 17.3073 98.8648 17.8193C98.0783 17.6227 97.2561 17.6184 96.4676 17.8069C95.6791 17.9953 94.9473 18.371 94.3338 18.9023C93.1163 20.1056 93.0545 22.6416 95.2429 22.6259C95.3223 22.6224 95.3972 22.5883 95.4521 22.5308C95.507 22.4732 95.5377 22.3966 95.5377 22.317C95.5377 22.2373 95.507 22.1607 95.4521 22.1032C95.3972 22.0456 95.3223 22.0115 95.2429 22.008C94.1628 21.9617 93.5789 19.9835 95.5663 18.809C96.1018 18.5238 96.69 18.3519 97.2945 18.3041C97.899 18.2563 98.5068 18.3335 99.0802 18.5311C99.1275 18.5434 99.1768 18.5447 99.2246 18.5349C99.2725 18.5251 99.3174 18.5045 99.3561 18.4747C99.3947 18.4449 99.4261 18.4066 99.4477 18.3628C99.4694 18.319 99.4808 18.2707 99.4811 18.2218C99.4593 17.7103 99.6103 17.2064 99.9095 16.7915C100.209 16.3766 100.639 16.0751 101.13 15.9356C101.691 15.8072 102.273 15.7931 102.84 15.894C103.406 15.9948 103.947 16.2086 104.43 16.5228C104.475 16.5476 104.525 16.5608 104.576 16.5609C104.627 16.5611 104.677 16.5483 104.721 16.5237C104.766 16.499 104.803 16.4635 104.831 16.4203C104.858 16.3771 104.873 16.3277 104.876 16.2767C105.015 13.6655 108.328 13.2949 110.301 13.7582C112.428 14.2684 114.261 16.1534 113.738 18.4866C113.725 18.5407 113.728 18.5974 113.747 18.6498C113.765 18.7022 113.798 18.7483 113.842 18.7824C113.886 18.8165 113.938 18.8374 113.994 18.8424C114.049 18.8475 114.104 18.8365 114.154 18.8109C115.14 18.3169 116.681 17.977 117.236 19.2591C118.515 22.1986 106.136 22.3268 100.263 22.3877C98.8499 22.4023 97.8135 22.413 97.4343 22.4581C97.2339 22.4887 97.2339 22.798 97.4343 22.7824C97.6453 22.7624 98.3187 22.7757 99.3 22.7952H99.3001C104.41 22.8964 117.87 23.163 117.87 19.7536C117.867 18.9625 117.081 17.0155 114.383 18.0973ZM69.0054 33.6978C69.6147 32.7345 71.2497 33.2634 71.1873 34.5203C71.6861 33.7576 73.0797 34.6636 72.8927 35.283C72.7057 35.9024 72.1883 37.4358 71.674 37.7013C71.1597 37.9667 67.5041 36.9441 66.6997 36.6168C66.3708 37.5248 65.8474 38.35 65.1663 39.0346C64.9091 39.289 64.811 39.0475 64.7025 38.7803C64.5794 38.4773 64.443 38.1413 64.0456 38.4584C63.4821 38.9104 63.6625 40.7515 63.7701 41.0139C63.8773 41.2745 63.8144 41.3248 63.6159 41.4835C63.51 41.5682 63.3654 41.6838 63.1874 41.8787C62.7488 42.4726 62.219 42.9935 61.6178 43.4221C61.5888 43.4365 61.5572 43.4451 61.5248 43.4472C61.4925 43.4494 61.46 43.4452 61.4293 43.4349C61.3986 43.4245 61.3702 43.4082 61.3458 43.3868C61.3214 43.3655 61.3014 43.3396 61.287 43.3105C61.2726 43.2815 61.2641 43.2499 61.2619 43.2175C61.2597 43.1852 61.2639 43.1527 61.2743 43.122C61.2847 43.0913 61.301 43.0629 61.3223 43.0385C61.3436 43.0141 61.3696 42.9941 61.3986 42.9797C61.754 42.747 62.0667 42.3673 62.384 41.9821L62.3841 41.9821C62.6336 41.6791 62.8861 41.3726 63.1643 41.1316C62.9808 40.5439 62.9351 38.2814 63.8586 37.829C63.9675 36.409 64.1724 34.9981 64.472 33.6058C64.5127 33.3704 64.6275 33.1542 64.7998 32.9888C64.9722 32.8233 65.1929 32.7174 65.4297 32.6863C65.6665 32.6552 65.9071 32.7007 66.1162 32.8161C66.3254 32.9316 66.4921 33.1108 66.5921 33.3278C67.1668 32.1181 68.9827 32.3182 69.0054 33.6978ZM71.1421 38.5389C70.5091 41.0124 69.7489 43.7354 68.215 45.8258L68.1654 45.8933C67.9494 46.1872 67.8341 46.344 67.6802 46.4082C67.5041 46.4817 67.2773 46.4338 66.7909 46.331L66.6791 46.3075C65.3538 46.0299 65.0684 45.3029 64.6705 44.2893C64.5098 43.8802 64.3308 43.4243 64.0577 42.9325C63.923 42.6967 63.5595 42.9093 63.648 43.1391C63.8489 43.6954 64.0799 44.2414 64.3109 44.7876L64.3109 44.7877L64.311 44.7878L64.311 44.7878L64.311 44.7879L64.311 44.788L64.311 44.788L64.3111 44.7881L64.3111 44.7882C64.4187 45.0425 64.5263 45.2968 64.6309 45.5523C64.4298 45.5523 63.5303 46.7057 63.3825 46.8957C63.2347 47.0857 63.5499 47.4171 63.7656 47.1908C64.0161 46.9297 64.2582 46.6595 64.5002 46.3895C64.6352 46.2389 64.7701 46.0883 64.9064 45.9394C65.2551 46.2896 65.6786 46.5563 66.145 46.7196C66.6114 46.8829 67.1087 46.9387 67.5996 46.8826C67.9976 46.8387 68.2282 46.5316 68.4501 46.2361C68.4822 46.1933 68.5141 46.1508 68.5463 46.1094C70.221 43.8907 70.8791 41.2598 71.5126 38.6183C71.581 38.3287 71.214 38.2568 71.1421 38.5389ZM60.8365 100.482C60.5319 100.404 60.3454 100.859 60.6566 100.948C61.5615 101.199 64.4016 102.054 65.1452 102.619C65.912 103.203 65.3789 103.239 64.956 103.268L64.8868 103.272C62.1953 103.536 59.4883 103.605 56.7868 103.479C55.9903 103.439 56.0533 102.926 56.1263 102.331C56.1635 102.028 56.2034 101.704 56.1332 101.411C56.0382 101.044 55.452 101.136 55.547 101.506C55.597 101.708 55.5788 101.98 55.5594 102.272C55.5062 103.07 55.4431 104.017 56.7361 104.082C58.5017 104.171 63.4569 104.157 65.3081 103.816C66.386 103.622 66.5303 102.669 65.0949 101.886C65.0987 101.894 65.091 101.89 65.0601 101.873C64.8955 101.781 64.0738 101.321 60.8365 100.482ZM63.4579 90.8619C63.3343 90.8207 63.2105 90.7785 63.0865 90.7363C62.7388 90.6179 62.3903 90.4993 62.0427 90.4003C62.008 90.385 61.9707 90.3767 61.9329 90.3759C61.8951 90.375 61.8574 90.3816 61.8221 90.3953C61.7868 90.409 61.7546 90.4294 61.7272 90.4556C61.6998 90.4817 61.6779 90.513 61.6626 90.5476C61.6473 90.5823 61.639 90.6196 61.6381 90.6574C61.6372 90.6953 61.6438 90.7329 61.6575 90.7682C61.6712 90.8035 61.6917 90.8357 61.7178 90.8631C61.744 90.8905 61.7753 90.9124 61.8099 90.9277C62.1719 91.0363 62.5323 91.1363 62.8928 91.2363C63.033 91.2752 63.1733 91.3141 63.3136 91.3536C63.5856 91.427 63.737 90.9534 63.4579 90.8599V90.8619ZM68.6057 91.1897C68.1445 90.7531 67.653 90.3498 67.1346 89.983C66.928 89.8322 66.6726 90.15 66.8525 90.3264C67.0138 90.4901 67.2754 90.7172 67.5551 90.96C68.0883 91.4228 68.6868 91.9423 68.7791 92.1866C67.8183 92.1724 66.8714 91.9546 66.0009 91.5476C65.6927 91.4069 65.4438 91.9408 65.7495 92.0916C66.8591 92.6195 71.1526 93.6175 68.6057 91.1877V91.1897ZM65.561 88.877C65.3027 88.7538 65.0624 88.5958 64.847 88.4074C64.5957 88.1419 63.8807 88.5452 65.119 89.2329C65.7771 89.5723 65.6675 88.9268 65.561 88.8755V88.877ZM67.7208 39.8033C67.4101 39.6525 67.108 40.6258 67.4554 40.6685C67.8028 40.7113 67.9601 39.9174 67.7208 39.8033ZM66.9903 43.6142C66.9643 43.594 66.9085 43.5763 66.8393 43.5543C66.5935 43.4764 66.1778 43.3446 66.3186 42.854C66.3262 42.8063 66.3163 42.7574 66.2908 42.7164C66.2653 42.6754 66.2258 42.6449 66.1797 42.6305C66.1335 42.6162 66.0838 42.6189 66.0395 42.6383C65.9952 42.6576 65.9594 42.6923 65.9385 42.7359C65.8929 42.8763 65.8805 43.0254 65.9025 43.1714C65.9245 43.3174 65.9802 43.4562 66.0652 43.577C66.1502 43.6977 66.2621 43.7969 66.3922 43.8668C66.5222 43.9367 66.6668 43.9754 66.8143 43.9797C66.8914 43.9719 66.963 43.9361 67.0154 43.8792C67.0332 43.8611 67.0468 43.8393 67.0553 43.8154C67.0638 43.7915 67.0669 43.7661 67.0645 43.7408C67.0621 43.7156 67.0542 43.6912 67.0414 43.6693C67.0286 43.6474 67.0112 43.6286 66.9903 43.6142ZM68.1698 38.5715C68.4383 38.569 68.4317 38.1321 68.209 38.0733C67.8098 37.9652 66.6168 38.3247 66.9772 38.7269C67.0428 38.7998 67.1569 38.766 67.3404 38.7115C67.5326 38.6545 67.801 38.5749 68.1698 38.5715ZM70.7258 39.116C70.6018 38.8618 70.3931 38.6588 70.1356 38.5419C69.8968 38.4413 69.7887 38.8269 69.9526 38.9119C70.1445 39.0055 70.3074 39.1494 70.4241 39.3282C70.4981 39.479 70.6152 39.5192 70.7012 39.4901C70.85 39.4398 70.7957 39.2578 70.7258 39.116ZM69.4805 42.1265C69.3347 41.2613 68.9465 41.0748 68.9365 41.3925C68.9331 41.5005 68.9766 41.6448 69.0237 41.8007L69.0237 41.8007C69.1151 42.1035 69.2196 42.4497 69.0184 42.6574C68.7957 42.8902 68.1532 42.6575 67.937 42.4217C67.4342 41.8515 67.3473 43.0933 68.6615 43.1617C69.395 43.2014 69.583 42.7359 69.4805 42.1265ZM69.6936 41.2125C69.4347 41.1175 69.6378 40.3111 69.9259 40.3704C70.1828 40.3704 70.0712 41.3578 69.6936 41.2125ZM72.0691 63.0121C74.0415 63.1137 76.2812 63.261 77.0857 65.4072C77.2078 65.7276 77.2042 66.0824 77.0756 66.4002C76.4562 67.9793 76.1113 67.3011 76.1616 67.1473C76.2081 67.0206 76.2828 66.8704 76.3605 66.7142L76.3605 66.7141L76.3606 66.714C76.5182 66.3971 76.6879 66.0558 76.6593 65.8366C76.4897 65.2092 76.1077 64.6602 75.5784 64.2831C74.7992 63.7248 73.1064 63.5452 72.1107 63.4397L72.0329 63.4314C71.7972 63.4053 71.8328 63.0121 72.0691 63.0121ZM73.042 67.6631C74.6247 68.7048 74.5095 67.8149 74.2018 67.7023C73.5564 67.4634 72.9683 67.0917 72.4754 66.6113C72.2878 66.4278 71.5413 66.6802 73.042 67.6631ZM71.8263 66.3328C73.3864 66.0704 72.9766 65.3861 72.6488 65.5003V65.4987C72.4745 65.5597 72.3459 65.6177 72.2326 65.6688C71.8881 65.8242 71.6847 65.9159 70.765 65.8346C70.4271 65.8084 70.1883 66.6078 71.8263 66.3328ZM60.6857 82.9077C59.9582 78.7565 57.0814 71.2101 55.001 67.5631C54.8794 67.3469 55.2172 67.18 55.3283 67.3896C56.3948 69.1793 57.3032 71.0585 58.0432 73.0059C61.1919 72.5592 64.3655 72.3096 67.5453 72.2588C66.5609 71.1412 61.4263 66.7974 55.3188 64.2605C53.0448 66.2715 43.9192 64.7587 40.7735 62.088C39.5976 66.4376 43.7456 71.2692 47.8036 75.9959C50.1651 78.7465 52.496 81.4615 53.7296 84.0254C54.3233 85.258 54.7717 92.3121 55.068 96.9735C55.1544 98.3313 55.2278 99.486 55.2881 100.235C56.8773 100.658 59.1543 100.703 60.8255 99.8874C60.8628 97.4545 60.9121 95.3967 60.9547 93.6212L60.9547 93.6196L60.9548 93.6186V93.6185C61.0802 88.3878 61.1468 85.6081 60.6747 82.9077H60.6857ZM58.6149 74.4936L58.6197 74.4941L58.6843 74.6743L58.6844 74.6745L58.6845 74.6748L58.6846 74.6751L58.6847 74.6754C58.7877 74.9621 58.891 75.2496 58.9929 75.5418C59.743 75.7842 60.5394 76.0139 61.1357 76.1612C61.0341 76.4523 60.7752 78.0747 60.5002 79.9882C61.2098 82.3149 61.5657 84.7351 61.556 87.1676C62.7024 87.4742 63.8822 87.6382 65.0688 87.6558C65.6992 86.8167 68.1858 76.8671 68.1858 74.4539L68.0098 74.4605L67.8467 74.4668L67.8359 74.4672H67.8358C66.1473 74.5326 60.7921 74.74 58.6197 74.4941L58.6159 74.4835L58.6149 74.4936ZM34.815 35.2444L45.378 36.0475C48.1097 36.2552 49.8289 39.0856 48.754 41.6055L47.4234 44.7247C47.4234 44.7247 52.1632 41.3965 55.955 41.6628C59.7468 41.929 60.1531 42.5947 60.1531 42.5947L61.9136 44.7247C60.0628 44.0591 56.0904 43.4733 51.7569 46.4554C46.34 50.183 50.6735 59.9014 54.4654 60.8333C57.4988 61.5789 56.7224 62.1203 55.955 62.2978V63.4959C55.5879 63.3307 55.2174 63.1723 54.8449 63.0131L54.8446 63.013L54.8444 63.0129L54.8442 63.0128L54.844 63.0127C51.4149 61.5469 47.8216 60.011 45.2566 52.4462C43.0022 54.5616 41.9368 56.3722 40.7695 59.2043C40.0364 60.9831 38.1963 62.0561 36.3016 61.7224L28.231 60.3012C25.8351 59.8793 24.3675 57.4342 25.1219 55.1214L30.7089 37.9925C31.2807 36.2396 32.9765 35.1047 34.815 35.2444ZM107.732 110.638C66.2251 109.959 25.2649 110.443 15.1896 110.809C14.8784 110.809 14.8327 111.307 15.157 111.303C16.6706 111.303 19.4428 111.263 23.314 111.206C38.204 110.989 69.3541 110.535 107.696 111.232C108.073 111.238 108.115 110.644 107.732 110.638ZM36.216 95.4128C35.2235 94.449 36.0058 93.0222 37.1813 92.7899C38.77 92.4737 39.4909 94.442 38.4533 95.449C38.304 95.5936 38.1277 95.7073 37.9345 95.7837C37.7413 95.8601 37.5349 95.8977 37.3271 95.8943C37.1194 95.8909 36.9143 95.8467 36.7237 95.7641C36.533 95.6815 36.3605 95.5621 36.216 95.4128ZM74.2793 67.365C73.2652 66.8537 73.2486 64.912 74.9329 65.1171V65.1156C76.9409 65.3595 75.7881 68.1332 74.2793 67.365ZM61.6525 91.4677C61.7178 93.4527 61.5019 98.6846 61.4198 99.8059C67.485 99.2453 66.4558 91.712 61.6525 91.4677ZM58.7223 104.589H58.7225H58.7226C59.885 104.631 61.0431 104.672 62.2684 104.623L62.2779 104.629C62.3713 104.619 62.4648 104.647 62.5379 104.706C62.611 104.765 62.6578 104.85 62.6678 104.943C62.6779 105.037 62.6505 105.13 62.5916 105.203C62.5327 105.276 62.4472 105.323 62.3539 105.333C60.3401 105.447 58.3205 105.397 56.3147 105.185C55.9477 105.122 55.9382 104.532 56.3147 104.532C57.1345 104.532 57.9294 104.56 58.7223 104.589ZM51.7638 93.5536H50.7216C50.7216 93.3269 50.5416 92.2535 50.4626 91.8739C47.5019 92.0491 44.6122 92.3601 41.6855 92.675H41.6854H41.6854L41.684 92.6752C41.0582 92.7425 40.4308 92.81 39.8006 92.8764C39.7347 92.878 39.6705 92.855 39.6207 92.8118C39.5708 92.7686 39.5389 92.7084 39.5311 92.6429C39.5233 92.5773 39.5402 92.5113 39.5785 92.4576C39.6168 92.4039 39.6738 92.3664 39.7383 92.3525C43.1163 91.798 46.8714 91.4868 50.3254 91.2611C49.529 88.053 47.7432 85.0158 44.8534 83.1837C44.9674 82.9926 45.0724 82.8014 45.1774 82.6102C45.2381 82.4997 45.2987 82.3892 45.3612 82.2788C48.4499 84.355 50.6082 87.553 51.3782 91.1942C52.2385 91.1463 53.0991 91.1092 53.9598 91.0831C54.3595 91.07 54.4219 91.6628 54.0322 91.6824C53.7602 91.6962 53.4885 91.7096 53.2171 91.723C52.6481 91.7512 52.0801 91.7793 51.5124 91.8106C51.627 92.3867 51.711 92.9686 51.7638 93.5536ZM50.8039 95.8472H50.7934C50.7954 95.8429 50.7974 95.8373 50.7992 95.8323C50.8017 95.8253 50.8038 95.8195 50.8048 95.8197C50.806 95.8199 50.8059 95.827 50.8039 95.8472ZM50.6504 97.0057C50.7598 96.1956 50.7963 95.9249 50.8039 95.8472H51.8125C51.7703 96.7815 51.6453 97.7102 51.439 98.6224L51.7312 98.6588L51.7316 98.6589L51.732 98.6589C52.5791 98.7643 53.4291 98.87 54.2635 99.0287C54.3451 99.0416 54.4189 99.0847 54.4702 99.1496C54.5215 99.2145 54.5464 99.2962 54.5401 99.3787C54.5337 99.4611 54.4966 99.5381 54.436 99.5944C54.3754 99.6506 54.2959 99.682 54.2132 99.6823C53.2925 99.6206 52.3717 99.479 51.4506 99.3374L51.4505 99.3374L51.4499 99.3373L51.264 99.3087C48.5034 109.203 36.301 112.649 28.3257 106.598C23.0271 102.576 21.1694 95.726 22.811 89.3234C25.1443 80.2275 35.0692 77.0461 43.3556 81.1315L42.8529 82.0098C34.1205 77.8228 24.5198 81.856 23.3831 91.8136C22.6652 98.0624 25.1885 103.937 30.6635 106.925C38.0822 110.969 47.8136 107.525 50.2515 99.1564C46.4858 98.6107 42.7374 97.9456 39.0063 97.1609C38.6041 97.076 38.6544 96.4405 39.0566 96.5073C42.9886 97.2871 46.5175 97.8703 50.4526 98.4731C50.5351 97.86 50.599 97.3863 50.6483 97.021L50.6504 97.0057ZM38.2708 106.827C41.3341 106.575 43.3918 105.291 45.5607 103.223L45.5648 103.197C45.7548 103.03 46.0434 103.323 45.8926 103.524C44.8693 104.803 43.5408 105.804 42.0294 106.434C39.4033 107.621 36.4188 107.74 33.7065 106.766C30.9942 105.793 28.7665 103.803 27.4941 101.218C27.3594 100.939 27.7857 100.756 27.9295 101.024C29.9119 104.744 34.0275 107.194 38.2708 106.827ZM34.2715 93.868C34.3649 93.4989 34.5376 93.1545 34.7776 92.8588L34.7675 92.8493C35.0357 92.5254 35.294 92.3669 35.5289 92.2229L35.529 92.2228C35.6817 92.1292 35.8244 92.0416 35.9535 91.9187C36.2813 91.6065 35.3935 91.1781 34.3156 92.5114C34.0237 92.8708 33.8156 93.2907 33.7061 93.7405C33.5967 94.1904 33.5887 94.659 33.6828 95.1123C33.7769 95.5656 33.9707 95.9923 34.2502 96.3614C34.5296 96.7305 34.8877 97.0328 35.2985 97.2464C35.5901 97.3972 35.7896 96.9548 35.5182 96.7909C35.1871 96.6028 34.9009 96.3448 34.6796 96.035C34.4583 95.7251 34.3072 95.3707 34.2367 94.9965C34.1662 94.6223 34.1781 94.2372 34.2715 93.868ZM75.87 96.6697C76.7056 102.961 81.2435 106.523 87.4204 105.795L87.4003 105.802C87.6451 105.772 87.8135 106.191 87.5445 106.235C79.1455 107.517 73.3768 100.046 75.7227 91.0765C75.8046 90.7618 76.2727 90.9353 76.1978 91.247C75.7536 93.0187 75.6425 94.8574 75.87 96.6697ZM92.1483 99.0402C95.6304 95.0725 93.5902 88.4501 87.7874 88.4501V88.4371C87.4726 88.4371 87.4138 88.9288 87.7411 88.9288C93.0593 89.0555 94.9009 94.5858 91.8401 98.7587C91.6993 98.9558 91.9945 99.2142 92.1483 99.0402ZM81.0806 108.583C93.8531 114.058 106.527 99.9417 98.7978 87.4672L98.7973 87.4753C95.6314 82.3673 87.9317 78.7132 82.0333 80.401L82.44 81.3155C87.7482 80.5649 93.2237 82.2486 96.6832 86.3612C105.466 96.7874 95.9215 111.637 83.3098 108.275C71.2039 105.048 69.3296 88.7568 80.1424 82.2853L79.7402 81.3869C68.8917 87.7438 69.5896 103.668 81.0806 108.583ZM88.3456 93.6564C88.101 93.3565 87.758 93.1528 87.3776 93.0815V93.0946C87.061 93.0265 86.7316 93.0482 86.4266 93.1573C86.1217 93.2663 85.8532 93.4584 85.6515 93.7118C85.4499 93.9653 85.3231 94.27 85.2853 94.5917C85.2476 94.9134 85.3005 95.2392 85.438 95.5325C86.1881 97.2891 88.6642 96.2831 88.7145 94.72C88.721 94.333 88.5903 93.9562 88.3456 93.6564Z" fill="#4D4D4D"/>
<path fill-rule="evenodd" clip-rule="evenodd" d="M2.02023 65.5308C1.37277 65.4839 0.864516 65.461 0.217056 65.4532C-0.0139652 65.4508 -0.0595654 65.8088 0.0754471 65.8388C2.34066 66.2407 25.519 67.1679 34.7965 66.9976C34.8185 66.999 34.8406 66.9958 34.8614 66.9882C34.8822 66.9807 34.9013 66.969 34.9174 66.9538C34.9334 66.9386 34.9463 66.9203 34.9551 66.8999C34.9638 66.8796 34.9683 66.8576 34.9683 66.8355C34.9683 66.8133 34.9638 66.7914 34.9551 66.771C34.9463 66.7507 34.9334 66.7324 34.9174 66.7172C34.9013 66.702 34.8822 66.6903 34.8614 66.6827C34.8406 66.6752 34.8185 66.672 34.7965 66.6733C32.4851 66.6884 3.74299 65.6228 2.43307 65.5452C2.47927 65.5158 2.98812 53.1217 2.88011 51.9786C6.1504 52.2463 9.43203 52.3493 12.7126 52.2872C12.7324 52.3106 12.7581 52.3282 12.7869 52.3382C12.8158 52.3482 12.8469 52.3503 12.8768 52.3441C12.9067 52.338 12.9345 52.3239 12.9571 52.3033C12.9797 52.2827 12.9965 52.2564 13.0055 52.2271C13.3133 50.945 13.0979 45.4284 12.928 44.1613C13.4874 44.2828 20.2803 44.3442 22.1745 44.3613L22.2829 44.3623C22.345 44.3575 22.4045 44.3357 22.4549 44.2991C22.5054 44.2625 22.5447 44.2127 22.5686 44.1551C22.5926 44.0974 22.6001 44.0343 22.5905 43.9727C22.5808 43.911 22.5543 43.8532 22.5139 43.8058C22.6219 42.9255 22.8842 23.7473 22.8068 19.7162C25.5064 20.0333 31.8736 20.434 34.5499 19.9015C34.4915 21.7181 34.5084 23.5384 34.5253 25.3587C34.5432 27.2855 34.5611 29.2123 34.4898 31.135C34.4931 31.2241 34.5299 31.3088 34.5927 31.3719C34.6556 31.4351 34.74 31.4721 34.8289 31.4755C36.5375 31.5429 38.2509 31.5828 39.964 31.6227C41.3871 31.6558 42.8099 31.689 44.2294 31.7378C44.3222 31.7341 44.4103 31.6955 44.476 31.6296C44.5417 31.5637 44.5803 31.4754 44.584 31.3822C44.6757 30.1103 44.6735 28.842 44.6713 27.5737C44.6694 26.5006 44.6676 25.4274 44.7226 24.3519C46.0724 24.3673 47.4174 24.3789 48.7628 24.3905C50.1058 24.4021 51.4492 24.4136 52.7981 24.429C52.8909 24.4253 52.9789 24.3867 53.0446 24.3209C53.1103 24.2551 53.1489 24.167 53.1528 24.074C52.6813 18.7655 52.8465 13.4154 53.0107 8.09576C53.0392 7.17285 53.0677 6.25084 53.0928 5.33013C58.9709 6.12284 64.9142 6.31455 70.831 5.9023C70.7569 7.91597 70.8636 9.93709 70.9703 11.9587C71.1297 14.9788 71.2892 18 70.846 20.9989C70.831 21.1379 70.8922 21.3389 71.062 21.3696C71.96 21.5028 72.854 21.4851 73.7482 21.4674C74.6186 21.4501 75.4892 21.4329 76.3635 21.5549C76.4086 21.566 76.4556 21.5669 76.501 21.5575C76.5465 21.5481 76.5892 21.5286 76.6262 21.5004C76.6631 21.4723 76.6933 21.4362 76.7145 21.3948C76.7357 21.3534 76.7474 21.3078 76.7488 21.2613C76.849 19.7084 76.9799 18.1632 77.1109 16.618C77.2419 15.0728 77.3728 13.5276 77.473 11.9748H87.1663C87.0483 19.418 86.9197 26.8556 86.7805 34.2876C86.7836 34.3727 86.8188 34.4535 86.8789 34.5137C86.939 34.5738 87.0196 34.6089 87.1045 34.6119C88.0602 34.7202 89.0159 34.8092 89.9718 34.8981C90.927 34.987 91.8822 35.0758 92.8375 35.1841C93.0223 35.1991 93.1453 35.0138 93.1609 34.8592C93.3004 33.1801 93.4402 31.5096 93.5798 29.8411C93.6252 29.2988 93.6706 28.7567 93.7159 28.2145C94.3101 28.2572 94.9043 28.3004 95.4984 28.3435C97.9244 28.5199 100.35 28.6963 102.777 28.833C102.77 29.0873 102.793 31.4306 102.821 34.4351C102.859 38.3691 102.907 43.4367 102.915 46.4332C102.917 46.5269 102.955 46.6164 103.021 46.6827C103.087 46.7489 103.177 46.7867 103.27 46.7881L108.525 46.8345C108.619 46.8331 108.708 46.7952 108.774 46.729C108.841 46.6627 108.878 46.5733 108.88 46.4795C108.899 45.9158 108.916 45.3553 108.933 44.7952C108.953 44.0958 108.974 43.397 109 42.6933C110.969 42.608 112.919 42.8519 114.864 43.0953C115.417 43.1644 115.968 43.2335 116.52 43.2949C116.42 47.6453 116.478 51.9958 116.536 56.3444C116.594 60.6915 116.652 65.0366 116.552 69.3778C115.272 69.3778 90.748 69.6118 86.2638 69.672C86.2226 69.6745 86.1839 69.6927 86.1557 69.7228C86.1274 69.7529 86.1116 69.7927 86.1116 69.8341C86.1116 69.8755 86.1274 69.9153 86.1557 69.9454C86.1839 69.9756 86.2226 69.9937 86.2638 69.9963C88.0889 69.9774 93.8386 69.9842 100.074 69.9915C109.151 70.0022 119.258 70.0141 119.788 69.9499C119.845 69.9469 119.899 69.922 119.938 69.8803C119.978 69.8386 120 69.7833 120 69.7258C120 69.6683 119.978 69.613 119.938 69.5713C119.899 69.5296 119.845 69.5047 119.788 69.5017C118.938 69.4138 118.084 69.3725 117.23 69.3778C117.336 65.0349 117.281 60.6921 117.226 56.3492C117.169 51.9 117.113 47.4508 117.23 43.0013C117.228 42.9075 117.191 42.8178 117.124 42.7515C117.058 42.6851 116.969 42.6472 116.875 42.6458C116.22 42.5752 115.564 42.4922 114.908 42.4091C112.835 42.1465 110.758 41.8833 108.661 42.0122C108.567 42.0136 108.478 42.0515 108.412 42.1179C108.346 42.1843 108.308 42.2739 108.306 42.3678C108.287 42.9222 108.271 43.4735 108.254 44.0232C108.233 44.7299 108.212 45.4338 108.186 46.1378C107.439 46.1304 106.695 46.1266 105.951 46.1229C105.177 46.119 104.404 46.115 103.626 46.1071C103.654 44.4437 103.594 40.9851 103.535 37.5561C103.466 33.5311 103.397 29.5467 103.472 28.5539C103.471 28.468 103.437 28.3857 103.376 28.3249C103.316 28.2641 103.234 28.2296 103.148 28.229C100.994 28.1172 98.8459 27.9626 96.6961 27.8078C95.6164 27.73 94.5362 27.6522 93.4543 27.5798C93.3686 27.5804 93.2866 27.6149 93.2261 27.6757C93.1656 27.7365 93.1314 27.8188 93.1309 27.9047C92.9457 30.114 92.7607 32.3236 92.5758 34.5337C91.7207 34.4403 90.8623 34.3587 90.0021 34.2768C89.1557 34.1963 88.3076 34.1157 87.4592 34.0235C87.5824 26.5758 87.7058 19.128 87.8294 11.68C87.8292 11.598 87.7967 11.5194 87.7389 11.4615C87.6811 11.4035 87.6027 11.3709 87.521 11.3707C85.2305 11.3603 82.9467 11.3638 80.6607 11.3672C79.5169 11.369 78.3725 11.3707 77.2264 11.3707C77.1455 11.3736 77.0687 11.407 77.0115 11.4644C76.9542 11.5218 76.9208 11.5988 76.918 11.68C76.8201 13.3165 76.6834 14.9485 76.5466 16.5808C76.4251 18.0311 76.3036 19.4816 76.2093 20.9358C75.4392 20.86 74.6728 20.8734 73.9083 20.8867C73.1122 20.9005 72.3181 20.9143 71.5241 20.8275C71.9207 17.8658 71.7698 14.8936 71.6188 11.9201C71.5114 9.80507 71.4039 7.68933 71.4935 5.5762C71.4906 5.49515 71.4572 5.4182 71.4 5.36091C71.3427 5.30361 71.2659 5.27025 71.1851 5.26755C65.0616 5.71297 58.9081 5.49977 52.8299 4.63161C52.6607 4.60093 52.5065 4.80188 52.5065 4.9565C52.4734 6.0743 52.4337 7.19398 52.3941 8.31485C52.2127 13.44 52.0305 18.5901 52.4603 23.6998C49.7943 23.6865 47.1126 23.6709 44.4466 23.6396C44.3537 23.6433 44.2656 23.6819 44.1999 23.7478C44.1342 23.8137 44.0956 23.902 44.0919 23.9952C44.0122 25.2336 44.0166 26.472 44.0209 27.7082C44.0248 28.8165 44.0287 29.923 43.9719 31.0261C42.308 30.9729 40.6392 30.9399 38.9683 30.9069C37.7293 30.8824 36.4891 30.8579 35.2489 30.8251C35.2942 28.9942 35.2508 27.1595 35.2074 25.3247C35.1622 23.4124 35.117 21.5 35.1721 19.5917C35.1773 19.5598 35.1757 19.5273 35.1674 19.4961C35.159 19.4649 35.1441 19.4359 35.1236 19.411C35.1032 19.3861 35.0776 19.3659 35.0487 19.3517C35.0198 19.3375 34.9883 19.3297 34.9561 19.3288C34.95 19.3228 34.9428 19.3184 34.9348 19.3157C34.9268 19.313 34.9183 19.3121 34.9099 19.3131C33.6986 19.2127 32.7653 19.2507 31.6898 19.2945C29.806 19.3712 27.4861 19.4656 22.4731 18.8655C22.2577 18.8342 22.0723 19.0658 22.0723 19.2668C22.1182 21.3487 22.0957 27.1968 22.0746 32.6484C22.0533 38.1616 22.0336 43.2693 22.0879 43.6656C19.0196 43.4557 15.9406 43.4557 12.8722 43.6656C12.7312 43.5266 12.4228 43.6656 12.3922 43.8972C12.2729 46.5211 12.3501 49.1503 12.6232 51.7626C11.8683 51.608 3.36076 51.2837 2.66769 51.5153C2.60484 51.5083 2.54163 51.525 2.49037 51.5621C2.43912 51.5993 2.4035 51.6542 2.39046 51.7163C2.08024 52.875 2.00523 65.5151 2.02023 65.5308ZM67.6057 36.2326C70.6861 36.8777 73.8834 37.5473 73.7812 36.0758C73.6571 34.2906 70.7587 30.9458 67.5659 31.1677C64.3732 31.3895 62.1134 33.1081 62.3326 36.2632C62.4531 37.9972 62.8554 39.1081 63.726 38.1707C63.9774 37.9 64.1163 37.5436 64.2536 37.1911L64.2536 37.1911C64.448 36.6919 64.6394 36.2007 65.1431 35.972C65.3804 35.9623 65.5818 35.9982 65.5416 36.1575C65.2674 37.2468 64.6379 39.7341 64.0085 42.1287C63.9821 42.2289 63.9578 42.3263 63.9355 42.4209L63.1499 41.0555C62.9871 40.8521 62.6639 41.0279 62.7463 41.2751C62.748 41.28 62.7498 41.2849 62.7518 41.2897C62.754 41.2951 62.7564 41.3004 62.759 41.3056L63.7393 43.5951C63.5848 45.4245 64.4274 45.6445 64.4274 45.6445L64.8464 45.8994C64.8464 45.8994 64.0084 44.0594 64.4274 42.8025C64.564 42.3929 64.7881 41.4857 65.0352 40.4855L65.0352 40.4853C65.4152 38.9476 65.8494 37.1899 66.1033 36.6822C66.2858 36.3171 66.6832 36.1705 67.0735 36.1214C67.2498 36.1581 67.4272 36.1952 67.605 36.2324L67.6057 36.2326ZM75.2737 66.4304C79.3994 76.4272 82.4963 83.8283 87.4234 94.2982L87.4354 94.3048C87.6813 94.8196 86.8588 95.1504 86.6164 94.6326C83.4018 87.8237 80.2103 80.6906 77.3567 73.7339C75.0631 78.1084 68.4407 87.414 64.9214 91.8704C64.6726 92.1881 64.1874 91.7266 64.4066 91.425C68.1507 86.2616 71.9185 80.5677 75.5438 75.0891L75.5441 75.0887C75.9359 74.4967 76.3259 73.9072 76.7141 73.3212C72.8462 73.6165 68.823 73.7494 64.8419 73.8808C62.9482 73.9434 61.0641 74.0056 59.2106 74.0848C58.7219 74.1045 58.7486 73.377 59.2106 73.3538C61.0018 73.2637 62.8441 73.1578 64.7091 73.0506L64.7098 73.0506L64.7106 73.0505C68.7406 72.8189 72.8766 72.5812 76.8323 72.4826C76.058 70.5707 75.3039 68.6495 74.5699 66.7189C74.5489 66.6724 74.5375 66.6221 74.5363 66.571C74.5352 66.5199 74.5443 66.4691 74.5632 66.4217C74.5822 66.3742 74.6104 66.3311 74.6464 66.2948C74.6823 66.2585 74.7252 66.2298 74.7724 66.2104C74.8197 66.191 74.8704 66.1813 74.9215 66.182C74.9725 66.1826 75.023 66.1935 75.0698 66.214C75.1165 66.2345 75.1587 66.2643 75.1937 66.3014C75.2288 66.3386 75.256 66.3825 75.2737 66.4304ZM36.9269 94.3565C37.3376 92.9604 44.8815 79.7414 46.6386 77.1869C46.8644 76.8581 47.527 77.1245 47.3103 77.5111C45.8736 79.9493 44.0382 83.2052 42.2611 86.3574L42.2611 86.3576C40.6017 89.301 38.9934 92.154 37.8082 94.1665C41.2345 94.3141 44.9383 94.3308 48.5793 94.3472C50.4332 94.3555 52.2708 94.3638 54.0473 94.3892C54.5862 94.3958 54.457 95.2082 53.9327 95.2082C52.4003 95.187 50.7684 95.1789 49.0943 95.1705H49.0929C45.1009 95.1507 40.8692 95.1296 37.1757 94.9267C37.1147 94.9166 37.0572 94.8915 37.0084 94.8535C36.9595 94.8155 36.921 94.766 36.8963 94.7093C36.8715 94.6526 36.8614 94.5906 36.8667 94.529C36.8721 94.4674 36.8927 94.4081 36.9269 94.3565ZM41.2161 58.1628C40.8719 58.9814 40.5939 59.8054 40.3934 60.6265C40.1053 61.8125 50.5772 66.1971 55.0141 63.7939C55.2023 63.6926 55.3559 63.515 55.4857 63.2886C55.2726 63.1959 55.0586 63.1045 54.844 63.0127C51.4149 61.5469 47.8216 60.011 45.2566 52.4462C43.2912 54.2905 42.2295 55.903 41.2161 58.1628ZM56.113 61.3645C55.7718 61.2027 55.2441 61.0247 54.4653 60.8333C50.6735 59.9014 46.34 50.183 51.7569 46.4554C56.0904 43.4733 60.0628 44.0591 61.9136 44.7247L61.5404 44.2732C61.7534 44.4527 61.9486 44.6606 62.1241 44.8982C63.5866 46.8821 63.3824 50.7099 63.2237 53.6868C63.1264 55.5094 63.0462 57.013 63.376 57.5793C63.6717 58.0849 65.1581 58.8074 66.7994 59.6051C68.7939 60.5745 71.0172 61.6551 71.6101 62.5928C71.0268 63.0216 70.5673 63.5972 70.2785 64.261C69.9896 64.9249 69.8817 65.6534 69.9656 66.3725C67.5735 66.6862 59.5223 63.5023 57.8024 61.91C56.0696 60.3025 55.7634 54.2218 55.6367 51.7072V51.7071L55.6366 51.7042C55.627 51.5139 55.6184 51.3441 55.6104 51.1983C55.5973 50.9826 55.2333 50.9856 55.2333 51.1983C55.2564 53.9705 55.5842 57.9352 56.3248 60.5893C56.2493 60.825 56.1812 61.0899 56.113 61.3645Z" fill="#417FDA"/>
</svg>
