<svg width="120" height="120" viewBox="0 0 120 120" fill="none" xmlns="http://www.w3.org/2000/svg">
<g clip-path="url(#clip0_333_35581)">
<path fill-rule="evenodd" clip-rule="evenodd" d="M117.98 75.8832C118.628 75.8364 119.136 75.8136 119.783 75.8058C120.014 75.8034 120.06 76.1604 119.925 76.1904C117.66 76.5912 94.4838 77.5158 85.2072 77.346C85.1851 77.3473 85.163 77.3442 85.1422 77.3366C85.1215 77.3291 85.1024 77.3174 85.0863 77.3023C85.0702 77.2871 85.0574 77.2688 85.0486 77.2486C85.0447 77.2395 85.0417 77.2302 85.0395 77.2207C85.0367 77.2088 85.0353 77.1966 85.0353 77.1843C85.0353 77.1622 85.0399 77.1403 85.0486 77.12C85.0574 77.0997 85.0702 77.0815 85.0863 77.0663C85.1024 77.0512 85.1215 77.0395 85.1422 77.032C85.163 77.0244 85.1851 77.0213 85.2072 77.0226C87.5184 77.0376 116.258 75.975 117.568 75.8976C117.521 75.8682 117.013 63.5082 117.121 62.3682C113.851 62.6352 110.569 62.7379 107.289 62.676C107.269 62.6993 107.244 62.7169 107.215 62.7268C107.186 62.7368 107.155 62.7389 107.125 62.7327C107.095 62.7266 107.067 62.7125 107.045 62.692C107.022 62.6714 107.005 62.6452 106.996 62.616C106.688 61.3374 106.904 55.836 107.074 54.5724C106.514 54.6936 99.7208 54.7548 97.8275 54.7718L97.7196 54.7728C97.6575 54.7681 97.598 54.7463 97.5476 54.7098C97.4972 54.6733 97.4578 54.6236 97.4339 54.5661C97.41 54.5087 97.4024 54.4457 97.4121 54.3842C97.4217 54.3228 97.4482 54.2652 97.4886 54.2178C97.3806 53.34 97.1184 34.2144 97.1958 30.1944C94.4964 30.5106 88.1298 30.9102 85.4538 30.3792C85.5121 32.1908 85.4952 34.0061 85.4783 35.8215C85.4604 37.7429 85.4425 39.6644 85.5138 41.5818C85.5105 41.6707 85.4738 41.7551 85.4109 41.8181C85.3481 41.8811 85.2637 41.918 85.1748 41.9214C83.4663 41.9886 81.753 42.0284 80.0401 42.0682C78.6172 42.1012 77.1945 42.1343 75.7752 42.183C75.6823 42.1793 75.5943 42.1408 75.5286 42.075C75.4628 42.0093 75.4243 41.9213 75.4206 41.8284C75.3289 40.5599 75.3311 39.2952 75.3333 38.0304C75.3351 36.9602 75.337 35.8899 75.282 34.8174C73.9323 34.8327 72.5875 34.8443 71.2422 34.8558C69.8993 34.8674 68.556 34.8789 67.2072 34.8942C67.1144 34.8905 67.0265 34.852 66.9608 34.7865C66.8951 34.7209 66.8564 34.633 66.8526 34.5402C67.324 29.2462 67.1589 23.9108 66.9946 18.6057C66.9662 17.6854 66.9377 16.7659 66.9126 15.8478C61.035 16.6383 55.0923 16.8295 49.176 16.4184C49.2501 18.4265 49.1434 20.4421 49.0367 22.4582C48.8773 25.47 48.7178 28.4829 49.161 31.4736C49.176 31.6122 49.1148 31.8126 48.945 31.8432C48.0472 31.9761 47.1532 31.9584 46.2591 31.9407C45.3887 31.9235 44.5183 31.9064 43.644 32.028C43.5989 32.0391 43.552 32.04 43.5065 32.0306C43.4611 32.0212 43.4183 32.0018 43.3814 31.9737C43.3444 31.9456 43.3143 31.9096 43.293 31.8683C43.2718 31.8271 43.2601 31.7816 43.2588 31.7352C43.1586 30.1866 43.0276 28.6456 42.8967 27.1047C42.7657 25.5637 42.6348 24.0228 42.5346 22.4742H32.8422C32.9602 29.897 33.0888 37.3142 33.228 44.7258C33.2249 44.8107 33.1897 44.8912 33.1296 44.9512C33.0695 45.0112 32.9889 45.0462 32.904 45.0492C31.9484 45.1572 30.9927 45.2459 30.037 45.3346C29.0819 45.4232 28.1267 45.5118 27.1716 45.6198C26.9868 45.6348 26.8638 45.45 26.8482 45.2958C26.7086 43.6202 26.5687 41.9531 26.429 40.2882C26.3837 39.7484 26.3384 39.2089 26.2932 38.6694C25.6991 38.7119 25.1049 38.755 24.5108 38.798C22.0851 38.9739 19.6593 39.1498 17.2332 39.2862C17.2397 39.5398 17.2174 41.8764 17.1888 44.8724C17.1513 48.7957 17.1031 53.8497 17.0946 56.838C17.0931 56.9315 17.0552 57.0207 16.989 57.0868C16.9228 57.1529 16.8335 57.1906 16.74 57.192L11.4852 57.2382C11.3917 57.2368 11.3024 57.1991 11.2362 57.133C11.17 57.0669 11.1321 56.9777 11.1306 56.8842C11.1114 56.3221 11.0947 55.7632 11.078 55.2048C11.0571 54.5072 11.0363 53.8102 11.0106 53.1084C9.04222 53.0233 7.0924 53.2666 5.14697 53.5093C4.59467 53.5782 4.04272 53.6471 3.4908 53.7084C3.59102 58.0468 3.53308 62.3854 3.47517 66.722C3.41728 71.0572 3.35942 75.3904 3.4596 79.7196C4.7388 79.7196 23.2614 79.953 27.7452 80.013C27.7864 80.0155 27.8251 80.0336 27.8533 80.0637C27.8816 80.0937 27.8973 80.1334 27.8973 80.1747C27.8973 80.216 27.8816 80.2557 27.8533 80.2857C27.8251 80.3158 27.7864 80.3339 27.7452 80.3364C25.9086 80.3175 21.1051 80.3244 16.0135 80.3318C8.68122 80.3424 0.751417 80.3539 0.223801 80.2902C0.166528 80.2872 0.11258 80.2624 0.0730908 80.2208C0.0336017 80.1792 0.0115852 80.124 0.0115852 80.0667C0.0115852 80.0093 0.0336017 79.9542 0.0730908 79.9126C0.11258 79.871 0.166528 79.8462 0.223801 79.8432C1.07352 79.7556 1.92739 79.7143 2.7816 79.7196C2.6752 75.3887 2.73043 71.0578 2.78565 66.7268C2.84222 62.2898 2.8988 57.8528 2.7816 53.4156C2.783 53.322 2.8208 53.2326 2.887 53.1664C2.9532 53.1002 3.04259 53.0624 3.1362 53.061C3.79162 52.9906 4.44694 52.9078 5.10265 52.825C7.17575 52.5631 9.25281 52.3007 11.3496 52.4292C11.4432 52.4306 11.5326 52.4684 11.5988 52.5346C11.665 52.6008 11.7028 52.6902 11.7042 52.7838C11.7231 53.3366 11.7396 53.8864 11.756 54.4345C11.7772 55.1393 11.7982 55.8414 11.8242 56.5434C12.5716 56.536 13.3155 56.5323 14.0594 56.5285C14.8331 56.5247 15.6067 56.5208 16.3842 56.5128C16.356 54.854 16.4158 51.405 16.475 47.9854C16.5445 43.9714 16.6132 39.9979 16.5384 39.0078C16.5389 38.9221 16.5731 38.8401 16.6336 38.7794C16.6941 38.7188 16.7761 38.6844 16.8618 38.6838C19.0162 38.5724 21.1637 38.4181 23.3133 38.2637C24.3929 38.1862 25.473 38.1086 26.5548 38.0364C26.6405 38.037 26.7225 38.0714 26.783 38.132C26.8435 38.1927 26.8777 38.2747 26.8782 38.3604C27.0634 40.5636 27.2484 42.7672 27.4332 44.9712C28.2882 44.878 29.1466 44.7966 30.0068 44.715C30.853 44.6348 31.7011 44.5543 32.5494 44.4624C32.4262 37.0352 32.3028 29.6078 32.1792 22.1802C32.1794 22.0985 32.2119 22.0201 32.2697 21.9623C32.3275 21.9045 32.4059 21.872 32.4876 21.8718C34.7778 21.8614 37.0614 21.8649 39.3472 21.8683C40.491 21.8701 41.6352 21.8718 42.7812 21.8718C42.8621 21.8746 42.9389 21.908 42.9961 21.9653C43.0534 22.0225 43.0868 22.0993 43.0896 22.1802C43.1875 23.8123 43.3242 25.4398 43.4609 27.0676C43.5824 28.5139 43.7039 29.9605 43.7982 31.4106C44.5683 31.3351 45.3346 31.3484 46.099 31.3616C46.895 31.3754 47.689 31.3892 48.483 31.3026C48.0865 28.349 48.2374 25.385 48.3883 22.4197C48.4957 20.3104 48.6031 18.2005 48.5136 16.0932C48.5164 16.0124 48.5499 15.9356 48.6071 15.8785C48.6644 15.8214 48.7412 15.7881 48.822 15.7854C54.9449 16.2296 61.0978 16.017 67.1754 15.1512C67.3446 15.1206 67.4988 15.321 67.4988 15.4752C67.532 16.5899 67.5716 17.7065 67.6112 18.8243C67.7926 23.9354 67.9748 29.0714 67.545 34.167C70.2108 34.1538 72.8922 34.1382 75.558 34.107C75.6509 34.1107 75.7389 34.1492 75.8046 34.215C75.8703 34.2807 75.9089 34.3687 75.9126 34.4616C75.9923 35.6966 75.988 36.9316 75.9836 38.1644C75.9797 39.2697 75.9759 40.3732 76.0326 41.4732C77.6963 41.4201 79.365 41.3873 81.0358 41.3543C82.2747 41.3299 83.5147 41.3055 84.7548 41.2728C84.7096 39.4469 84.7529 37.6172 84.7963 35.7875C84.8415 33.8804 84.8867 31.9733 84.8316 30.0702C84.8264 30.0384 84.828 30.0059 84.8363 29.9749C84.8447 29.9438 84.8596 29.9149 84.8801 29.8901C84.9005 29.8652 84.9261 29.8451 84.955 29.8309C84.9839 29.8167 85.0154 29.8089 85.0476 29.808C85.0536 29.8021 85.0609 29.7976 85.0689 29.7949C85.0769 29.7922 85.0854 29.7914 85.0938 29.7924C86.3049 29.6923 87.2382 29.7302 88.3136 29.7739C90.1972 29.8503 92.5168 29.9445 97.5294 29.346C97.7448 29.3148 97.9302 29.5458 97.9302 29.7462C97.8843 31.8224 97.9068 37.6544 97.9279 43.0909C97.9492 48.5891 97.9689 53.6828 97.9146 54.078C100.983 53.8687 104.061 53.8687 107.129 54.078C107.27 53.9394 107.579 54.078 107.609 54.309C107.729 56.9257 107.651 59.5476 107.378 62.1528C108.133 61.9986 116.64 61.6752 117.333 61.9062C117.396 61.8992 117.459 61.9158 117.51 61.9529C117.562 61.9899 117.597 62.0447 117.61 62.1066C117.92 63.2622 117.995 75.8676 117.98 75.8832ZM45.6936 68.2398C45.6844 68.1362 45.673 67.951 45.6585 67.7159V67.7158C45.593 66.6575 45.465 64.5861 45.2004 64.3716C45.0012 64.2167 44.8769 64.2322 43.6654 64.3829H43.6653L43.665 64.3829C43.1211 64.4506 42.3582 64.5454 41.271 64.6644C41.2838 64.6301 41.2891 64.5935 41.2866 64.557C41.2771 64.4183 41.2683 64.279 41.2595 64.1393L41.2595 64.1392C41.2251 63.5958 41.1903 63.0467 41.1168 62.5074C41.0993 62.4427 41.0574 62.3873 40.9999 62.3528C40.9423 62.3184 40.8737 62.3075 40.8084 62.3226C39.7396 62.4571 38.6629 62.5915 37.5862 62.726L37.5753 62.7274L37.5739 62.7275C36.4352 62.8698 35.2964 63.012 34.167 63.1542C34.1152 63.1675 34.0692 63.1973 34.0358 63.2391C34.0025 63.2808 33.9837 63.3324 33.9822 63.3858C34.0149 64.0557 34.1341 64.7186 34.3368 65.358C34.3493 65.3941 34.375 65.4242 34.4087 65.4422C34.4425 65.4603 34.4818 65.4649 34.5188 65.4552C34.5558 65.4455 34.5877 65.4222 34.6083 65.3899C34.6288 65.3577 34.6364 65.3188 34.6296 65.2812C34.5348 64.731 34.478 64.1749 34.4598 63.6168C36.5094 63.3702 38.5896 63.108 40.6398 62.8464C40.6707 63.1612 40.6923 63.4994 40.7116 63.8015L40.7117 63.8016C40.7393 64.233 40.7621 64.591 40.8006 64.7028C40.3074 64.7628 30.2538 66.0054 29.9454 66.0978C29.7446 66.1686 29.8513 66.6281 29.9261 66.95C29.949 67.0484 29.9688 67.134 29.976 67.1916C30.0445 67.6314 30.0821 68.0712 30.12 68.5148L30.12 68.5148C30.1419 68.7708 30.1639 69.0281 30.192 69.2874C30.1975 69.3561 30.2005 69.4522 30.204 69.565C30.2203 70.0854 30.2478 70.9624 30.5772 71.1522C30.688 71.2031 30.8104 71.2238 30.9318 71.2122C31.9794 71.2122 36.4794 70.6878 37.6518 70.5342C37.6212 70.4106 37.5132 69.147 38.4534 69.1164C38.9371 69.1032 39.0751 69.6559 39.1829 70.0873C39.2021 70.1642 39.2203 70.2373 39.2394 70.3026C39.6896 70.2384 40.343 70.1589 41.0609 70.0716H41.0609C42.926 69.8447 45.226 69.5649 45.5262 69.363C45.8008 69.2067 45.7477 68.7346 45.7099 68.3983C45.7035 68.3407 45.6975 68.2871 45.6936 68.2398ZM46.1712 71.0598C46.3716 71.8608 46.9404 74.9586 46.9878 75.6978C47.0028 75.9294 46.911 76.068 46.7892 76.053C42.8614 75.8795 36.7122 76.6144 33.59 76.9875C32.5452 77.1124 31.8394 77.1968 31.6692 77.193C31.4637 77.1467 31.2827 77.0259 31.161 76.854C31.0646 76.507 30.7955 74.4004 30.6455 73.2257C30.6088 72.9381 30.5792 72.7063 30.561 72.57C30.4998 72.1536 30.6384 71.7528 30.9618 71.7222C32.8802 71.5799 34.7985 71.328 36.7079 71.0773C37.0685 71.03 37.4287 70.9827 37.7886 70.9362C37.7998 70.9604 37.8136 71.0007 37.8311 71.0515C37.9582 71.4213 38.2785 72.3531 39.1752 71.784C39.5142 71.568 39.4218 71.0904 39.345 70.7364C40.4779 70.5907 41.6177 70.4171 42.7552 70.2439L42.7553 70.2439L42.7558 70.2438C43.3043 70.1603 43.8523 70.0768 44.3988 69.9966C45.9521 69.7668 46.0732 70.496 46.1415 70.908C46.1512 70.9661 46.1598 71.0179 46.1712 71.0598ZM96.6228 106.49C96.449 106.574 96.3013 106.645 96.2064 106.702C89.8044 110.559 31.8096 110.231 25.7688 106.655C25.6914 106.61 25.5594 106.553 25.4028 106.486C24.4999 106.099 22.7781 105.36 25.9692 104.375C26.9406 104.082 27.983 103.931 29.0315 103.778C29.7458 103.674 30.4629 103.57 31.1622 103.42C42.9816 100.925 94.5732 103.265 96.2838 103.805C99.8482 104.936 97.7184 105.962 96.6228 106.49Z" fill="#417FDA"/>
<path fill-rule="evenodd" clip-rule="evenodd" d="M93.3864 15.6156C93.6792 13.1346 91.5864 11.1468 89.226 10.6692C87.006 10.2222 83.817 10.8078 83.355 13.3506C82.7993 13.0312 82.1811 12.8356 81.5428 12.7771C80.9045 12.7186 80.2611 12.7986 79.6566 13.0116C79.1806 13.2084 78.7649 13.527 78.4511 13.9355C78.1373 14.3439 77.9366 14.8278 77.8692 15.3384C77.0827 15.1423 76.2607 15.138 75.4722 15.326C74.6838 15.5139 73.952 15.8886 73.3386 16.4184C72.1212 17.6184 72.0594 20.1474 74.2476 20.1318C74.327 20.1283 74.4019 20.0943 74.4568 20.0369C74.5117 19.9795 74.5424 19.9031 74.5424 19.8237C74.5424 19.7443 74.5117 19.6679 74.4568 19.6105C74.4019 19.5531 74.327 19.5191 74.2476 19.5156C73.1676 19.4694 72.5838 17.4966 74.571 16.3254C75.1064 16.0409 75.6946 15.8695 76.299 15.8218C76.9034 15.7741 77.5112 15.8512 78.0846 16.0482C78.1318 16.0604 78.1812 16.0617 78.229 16.052C78.2768 16.0423 78.3217 16.0217 78.3604 15.992C78.3991 15.9622 78.4304 15.9241 78.4521 15.8804C78.4737 15.8367 78.4851 15.7886 78.4854 15.7398C78.4637 15.2297 78.6146 14.7271 78.9138 14.3134C79.213 13.8997 79.6429 13.5989 80.1342 13.4598C80.6955 13.3318 81.2767 13.3177 81.8435 13.4183C82.4103 13.5189 82.9512 13.7321 83.4342 14.0454C83.4786 14.0702 83.5287 14.0833 83.5796 14.0835C83.6304 14.0836 83.6805 14.0708 83.7251 14.0463C83.7697 14.0217 83.8073 13.9863 83.8344 13.9432C83.8615 13.9001 83.8772 13.8508 83.88 13.8C84.0186 11.196 87.3318 10.8264 89.304 11.2884C91.431 11.7972 93.264 13.677 92.7408 16.0038C92.7281 16.0578 92.7312 16.1143 92.7497 16.1666C92.7681 16.2189 92.8012 16.2648 92.845 16.2988C92.8888 16.3329 92.9414 16.3537 92.9966 16.3587C93.0519 16.3637 93.1074 16.3528 93.1566 16.3272C94.1424 15.8346 95.6838 15.4956 96.2388 16.7742C97.5181 19.7056 85.1399 19.8335 79.2671 19.8942C77.8543 19.9088 76.818 19.9195 76.4388 19.9644C76.2384 19.995 76.2384 20.3034 76.4388 20.2878C76.6498 20.2679 77.3232 20.2812 78.3045 20.3006C83.4141 20.4015 96.8724 20.6674 96.8724 17.2674C96.8694 16.4784 96.0834 14.5368 93.3864 15.6156ZM74.6946 69.6882C74.7102 69.7038 81.8292 88.9338 82.8462 92.8338C82.9914 93.3906 82.9848 93.9894 82.3176 94.173C82.0945 94.2361 81.8569 94.2251 81.6405 94.1417C81.4241 94.0583 81.2406 93.907 81.1176 93.7104C80.6898 93.0573 77.6796 84.8394 76.0828 80.4802L76.0827 80.4799L76.0818 80.4776C75.6078 79.1835 75.2585 78.2299 75.1386 77.916C74.3003 78.7047 72.4613 80.5041 70.4023 82.5187L70.4016 82.5193L70.4007 82.5202L70.4003 82.5206C66.7814 86.0614 62.484 90.2662 61.7472 90.816C62.2735 91.2064 62.6598 91.7562 62.8486 92.3838C63.0375 93.0113 63.0188 93.683 62.7954 94.299C62.718 94.5006 62.364 94.5006 62.379 94.239C62.4408 92.5914 61.9326 91.0026 60.2526 90.3714C60.2113 90.3578 60.1768 90.3287 60.1564 90.2902C60.1361 90.2518 60.1314 90.2069 60.1433 90.1651C60.1552 90.1232 60.1829 90.0876 60.2205 90.0657C60.2581 90.0437 60.3027 90.0372 60.345 90.0474C60.7582 90.1743 61.1484 90.3668 61.5006 90.6174C62.3484 89.4312 72.3804 79.6302 74.676 77.427C74.7057 77.396 74.7416 77.3717 74.7815 77.3557C74.8213 77.3398 74.8641 77.3326 74.907 77.3346L73.983 74.838C72.1315 74.9705 70.2737 74.9905 68.4198 74.898C67.2948 77.502 63.9666 85.161 63.165 85.6074C63.1122 85.6376 63.0668 85.6719 63.0216 85.706C62.9744 85.7416 62.9274 85.7771 62.8722 85.8078C63.2265 86.3392 63.6251 86.4897 64.052 86.6509L64.0521 86.6509C64.1804 86.6994 64.3112 86.7488 64.4442 86.8098C64.4715 86.8278 64.4931 86.8533 64.5064 86.8832C64.5197 86.913 64.5242 86.9461 64.5193 86.9784C64.5144 87.0108 64.5005 87.0411 64.479 87.0657C64.4575 87.0904 64.4294 87.1084 64.398 87.1176C63.9923 87.127 63.592 87.0241 63.2411 86.8201C62.8903 86.6162 62.6028 86.3192 62.4102 85.962C62.1768 86.0009 61.9371 85.9574 61.7322 85.839C62.0539 85.0748 62.3755 84.3148 62.6973 83.5547L62.7007 83.5465L62.7016 83.5444L62.7087 83.5276C62.9995 82.8405 63.2904 82.1533 63.5814 81.4626C63.5876 81.4466 63.5964 81.4248 63.6074 81.3976C63.7879 80.9514 64.555 79.0543 63.843 77.718C63.8201 77.6721 63.7795 77.6165 63.7357 77.5568C63.6325 77.4158 63.5119 77.2512 63.5658 77.1324C63.6171 77.0034 63.686 76.8744 63.7558 76.7438C63.9194 76.4375 64.0879 76.1221 64.0458 75.7764C63.9702 75.1596 61.7346 74.0658 61.2102 73.8192C60.2068 72.669 59.0447 71.6676 57.759 70.845C57.5616 70.722 57.5124 70.8606 57.6816 70.9992C59.2558 72.3757 60.7286 73.8639 62.0886 75.4524C62.9364 76.4694 63.7068 77.7024 63.6606 79.0278C63.6144 80.7072 59.5464 90.8298 58.7298 92.4498C58.6905 92.5267 58.6517 92.6055 58.6127 92.6848L58.6126 92.6849L58.6126 92.685C58.2997 93.3208 57.9693 93.9923 57.1884 94.0056C56.4024 94.0212 55.3854 93.8826 55.17 93.1278C55.1086 92.762 55.1569 92.3862 55.3086 92.0478C55.7664 90.6958 56.8995 86.5403 57.759 83.3878L57.7592 83.3872C58.2515 81.5819 58.654 80.1056 58.7886 79.6734C56.3275 77.8374 53.9952 75.8347 51.8082 73.6794C50.9629 73.7829 50.1052 73.6878 49.3031 73.4016C48.5011 73.1153 47.7769 72.6459 47.1882 72.0306C46.3098 70.9362 46.6182 68.9946 48.0048 68.5632C47.6596 68.0979 47.7153 66.8991 47.7467 66.2222L47.7467 66.222C47.7518 66.1143 47.7561 66.0198 47.7582 65.9436C47.7402 65.9254 47.7033 65.9113 47.6596 65.8945L47.6595 65.8944L47.6595 65.8944C47.5547 65.8542 47.4102 65.7987 47.3886 65.6358C46.8966 61.5522 49.8708 52.7376 52.4286 50.1024C52.2594 50.2104 49.5012 51.9054 47.2974 50.133C46.7337 49.7 46.3103 49.1104 46.08 48.438C45.9395 47.9603 45.923 47.4546 46.0322 46.9687C46.1414 46.4829 46.3726 46.0329 46.704 45.6612C47.2921 45.1512 48.0369 44.8578 48.8148 44.8296C49.7681 44.799 50.6783 44.425 51.3777 43.7765C52.0771 43.128 52.5187 42.2487 52.6212 41.3004C52.6874 40.4984 52.8485 39.707 53.1012 38.943C53.9058 36.6894 55.4364 36.2184 57.0306 36.7704C57.8475 37.0748 58.743 37.096 59.5734 36.8304C60.0116 36.5788 60.4839 36.3921 60.9756 36.276C62.7708 36.1409 63.2182 36.8335 63.4778 37.2353C63.5146 37.2922 63.5477 37.3433 63.5802 37.3854C64.3986 38.4486 63.7338 39.8508 62.7786 40.5594C62.4151 40.8239 61.9913 40.9934 61.5456 41.0526C61.6487 41.5721 61.6436 42.1072 61.5306 42.6246C61.4031 42.9475 61.3658 43.2991 61.4226 43.6416C61.4536 43.7278 61.5119 43.8057 61.57 43.8831C61.6278 43.9603 61.6855 44.0371 61.7154 44.1216C61.9776 44.8308 61.4994 45.0156 60.9294 45.1542C60.5075 45.2598 60.3528 45.6037 60.1932 45.9585C60.1197 46.1219 60.0451 46.2876 59.943 46.4334C59.7528 46.6448 59.5206 46.8141 59.2611 46.9305C59.0017 47.0469 58.7208 47.1077 58.4364 47.1091C58.1521 47.1105 57.8706 47.0525 57.61 46.9387C57.3494 46.8249 57.1155 46.6579 56.9232 46.4484C56.9048 46.43 56.8945 46.4051 56.8945 46.3791C56.8945 46.3531 56.9048 46.3282 56.9232 46.3098C56.9416 46.2914 56.9665 46.2811 56.9925 46.2811C57.0185 46.2811 57.0434 46.2914 57.0618 46.3098C57.2525 46.4936 57.4819 46.6324 57.7331 46.7162C57.9843 46.8 58.2511 46.8266 58.5139 46.7941C58.7768 46.7616 59.029 46.6709 59.2523 46.5284C59.4755 46.386 59.6642 46.1955 59.8044 45.9708C59.8751 45.8517 59.9305 45.7199 59.9857 45.5888C60.1231 45.2623 60.2586 44.9404 60.6216 44.8308C60.6885 44.8093 60.7605 44.7916 60.8324 44.7739C61.1747 44.6896 61.5158 44.6055 61.2996 44.1216C61.2631 44.043 61.2126 43.9716 61.1618 43.8998L61.1617 43.8997C61.083 43.7884 61.0037 43.6764 60.9756 43.536C60.9886 43.1987 61.0563 42.8658 61.176 42.5502C61.2453 42.0809 61.2608 41.6052 61.2222 41.1324C60.1233 41.2395 59.0159 41.0478 58.017 40.5774C57.7616 41.1368 57.5607 41.7195 57.417 42.3174C57.417 42.3174 56.4774 42.1788 56.154 42.5178C56.0263 42.6526 55.9353 42.8179 55.8897 42.9979C55.8441 43.1779 55.8454 43.3666 55.8936 43.5459C55.9418 43.7252 56.0351 43.8892 56.1647 44.0221C56.2944 44.1551 56.4559 44.2525 56.634 44.3052C56.4748 45.074 55.367 46.7174 54.0627 48.6522C52.3337 51.217 50.2594 54.2942 49.5918 56.5254L49.5533 56.6557C49.0682 58.2954 47.7148 62.87 47.7732 65.4786C47.7732 65.4786 50.9604 67.482 52.9332 67.5588C54.7053 67.6563 56.4738 67.3122 58.08 66.5574C57.9796 64.4575 58.0105 62.3534 58.1724 60.2574V60.2418L57.9822 60.0685C56.3088 58.5439 54.7053 57.0831 53.8884 54.633C53.8422 54.4788 54.0444 54.3708 54.1044 54.5094C56.739 60.4116 65.9388 64.6494 68.7894 64.8186C68.8249 64.4117 68.9025 64.0095 69.021 63.6186C69.0326 63.5853 69.0556 63.557 69.0859 63.5389C69.1161 63.5208 69.1518 63.5138 69.1867 63.5193C69.2216 63.5248 69.2534 63.5424 69.2767 63.569C69.2999 63.5956 69.313 63.6295 69.3138 63.6648C69.2838 64.1828 69.1905 64.6953 69.036 65.1906C69.0016 65.2599 68.945 65.3157 68.8752 65.3492C68.8054 65.3827 68.7264 65.3919 68.6508 65.3754C65.4768 64.9128 59.6976 61.6626 58.5576 60.5826L58.5622 60.7784C58.6102 62.8295 58.701 66.7072 58.3728 66.9006C58.3041 66.939 58.2429 66.981 58.1818 67.023L58.1817 67.0231C58.1196 67.0658 58.0575 67.1085 57.9876 67.1472C61.4005 67.9962 64.6188 69.4925 67.4676 71.5548C67.9011 71.8694 68.2386 72.2981 68.4427 72.7933C68.6467 73.2885 68.7092 73.8306 68.6232 74.3592C70.3358 74.2351 72.0537 74.1991 73.77 74.2512C73.3074 73.0032 72.861 71.724 72.4446 70.4604C72.1056 71.0154 70.9806 71.6622 70.5342 71.0922C69.9486 70.3374 71.5356 69.3816 72.2598 68.9964C72.1996 68.8844 72.1638 68.761 72.1547 68.6342C72.1457 68.5074 72.1636 68.3801 72.2073 68.2607C72.251 68.1413 72.3195 68.0326 72.4083 67.9416C72.4971 67.8506 72.6041 67.7794 72.7224 67.7328C72.8888 67.6772 73.0655 67.6596 73.2397 67.6812C73.4138 67.7028 73.5808 67.7631 73.7286 67.8577C73.8763 67.9523 74.001 68.0788 74.0936 68.2279C74.1861 68.3769 74.244 68.5448 74.2632 68.7192C74.2606 68.7447 74.2511 68.769 74.2356 68.7895C74.2202 68.8099 74.1995 68.8258 74.1757 68.8353C74.1519 68.8448 74.1259 68.8477 74.1006 68.8435C74.0753 68.8393 74.0517 68.8283 74.0322 68.8116C73.9989 68.7785 73.9674 68.7153 73.9297 68.6397C73.8098 68.3993 73.627 68.0327 73.1226 68.103C72.5526 68.2878 72.4296 68.565 72.7686 68.9196C72.7928 68.9427 72.8111 68.9711 72.8221 69.0026C72.8332 69.0341 72.8366 69.0678 72.832 69.1009C72.8275 69.134 72.8152 69.1655 72.7962 69.1929C72.7771 69.2204 72.7518 69.2429 72.7224 69.2586C72.0931 69.5228 71.5298 69.9227 71.073 70.4298C70.9477 71.0582 71.6216 70.6204 72.0833 70.3204C72.1877 70.2526 72.2812 70.1918 72.3522 70.152C72.2442 69.9828 72.4908 69.8592 72.5682 69.9828C73.9849 72.3968 75.832 77.7801 77.5578 82.8099L77.5578 82.81L77.5579 82.8103L77.558 82.8104L77.558 82.8105C79.5117 88.5044 81.31 93.7453 82.1526 93.7134C82.3068 93.7134 82.5846 93.4674 82.4148 92.9586C82.4123 92.9488 82.2179 92.4082 81.8905 91.4982L81.89 91.4967L81.8895 91.4956C80.1586 86.6841 74.7191 71.5641 74.2782 69.906C74.2762 69.8963 74.2712 69.8812 74.2649 69.8622C74.2301 69.7569 74.1552 69.5307 74.325 69.426C74.4726 69.3298 74.6203 69.2357 74.7669 69.1423C75.936 68.3972 77.0405 67.6933 77.5608 66.2826C77.8212 65.5278 78.1008 62.7228 74.8008 63.093C74.7691 63.0984 74.7364 63.0916 74.7095 63.0739C74.6826 63.0563 74.6634 63.029 74.6557 62.9977C74.6481 62.9664 74.6527 62.9334 74.6684 62.9053C74.6842 62.8772 74.7101 62.8562 74.7408 62.8464C75.1476 62.6691 75.5943 62.6034 76.0349 62.6563C76.4755 62.7091 76.8941 62.8785 77.2474 63.147C77.6007 63.4156 77.876 63.7735 78.0449 64.1838C78.2138 64.5942 78.2702 65.0422 78.2082 65.4816C78.0384 67.2996 76.4202 69.072 74.6946 69.6882ZM48.1896 68.9634C46.8378 69.6594 46.6584 71.268 48.3132 72.3234C49.0308 72.78 50.9328 73.3248 51.2256 73.0776C50.1468 72.03 48.3132 69.7338 48.1896 68.9634ZM60.2756 41.7907C60.0458 41.7918 59.8265 41.7929 59.6238 41.9508C59.4852 42.0432 59.331 41.8278 59.439 41.7216C60.318 40.9722 60.948 41.7216 60.5328 41.7816C60.4459 41.7898 60.36 41.7902 60.2756 41.7907ZM59.9078 42.9031C59.9238 42.7773 59.9692 42.6571 60.0402 42.552C60.1014 42.3978 60.3174 42.4902 60.3174 42.6288C60.3437 42.7462 60.3435 42.8679 60.3168 42.9852C60.2901 43.1025 60.2377 43.2123 60.1632 43.3068C60.1488 43.3227 60.1307 43.3348 60.1105 43.3421C60.0903 43.3494 60.0686 43.3516 60.0474 43.3486C60.0261 43.3456 60.0059 43.3374 59.9886 43.3248C59.9712 43.3122 59.9572 43.2955 59.9478 43.2762C59.9054 43.1567 59.8917 43.0289 59.9078 42.9031ZM58.1598 44.7552C58.302 45.2628 58.9458 45.7878 59.4852 45.495C59.5932 45.435 59.5776 45.1866 59.4546 45.2178C59.2359 45.2879 58.9983 45.2689 58.7934 45.165C58.5886 45.0611 58.4329 44.8807 58.3602 44.6628C58.314 44.5548 58.1298 44.6472 58.1598 44.7552ZM58.575 52.5834C60.5022 55.6194 66.795 61.2354 69.255 62.6154C69.5502 62.7804 69.2706 63.2622 68.9766 63.0774C64.2119 60.0164 60.1898 55.9312 57.2034 51.1194C57.126 50.9964 57.3264 50.8884 57.4038 51.0114C57.6504 51.366 57.912 51.7206 58.1742 52.0752C57.9693 51.2295 57.7171 50.396 57.4188 49.5786C56.88 50.4258 55.2462 50.4726 54.861 49.3626C54.7992 49.1934 55.0614 49.0548 55.1382 49.1934C55.8936 50.5494 57.3264 49.4544 57.2496 48.8544C57.1797 48.4681 57.1642 48.0738 57.2034 47.6832C57.234 47.4672 57.558 47.4522 57.558 47.6832C57.5422 48.5504 57.8032 49.3552 58.0647 50.1616L58.0647 50.1616C58.3196 50.9477 58.575 51.7352 58.575 52.5834ZM72.63 63.663C72.8039 63.9965 72.901 64.3647 72.9143 64.7406C72.9276 65.1165 72.8567 65.4906 72.7068 65.8356C72.6468 65.9742 72.861 66.0516 72.9378 65.928C73.4004 65.235 73.5234 64.128 72.8298 63.5244C72.8081 63.5092 72.7823 63.501 72.7558 63.501C72.7293 63.5009 72.7034 63.509 72.6816 63.5241C72.6598 63.5392 72.6432 63.5606 72.634 63.5854C72.6248 63.6103 72.6234 63.6374 72.63 63.663ZM70.3352 64.6876L70.3351 64.6876L70.3346 64.6878C70.2031 64.7223 70.0817 64.7541 69.9792 64.7724C69.9458 64.782 69.91 64.7794 69.8783 64.765C69.8466 64.7507 69.8211 64.7255 69.8063 64.694C69.7915 64.6625 69.7884 64.6268 69.7975 64.5932C69.8067 64.5596 69.8275 64.5304 69.8562 64.5108C70.488 64.0944 71.628 63.8352 72.183 64.4952C72.337 64.7635 72.4155 65.0686 72.41 65.3779C72.4045 65.6873 72.3153 65.9893 72.1518 66.252C72.1311 66.2858 72.1 66.3119 72.0632 66.3265C72.0264 66.3411 71.9858 66.3434 71.9476 66.3329C71.9094 66.3225 71.8756 66.3 71.8513 66.2688C71.827 66.2375 71.8135 66.1992 71.8128 66.1596C71.822 66.0412 71.8473 65.9134 71.8732 65.7825C71.935 65.4705 72.0002 65.1412 71.859 64.8804C71.5864 64.3594 70.8756 64.5459 70.3352 64.6876ZM73.4466 63.2778C73.6399 63.9532 73.7128 64.6573 73.662 65.358C73.662 65.5122 73.893 65.589 73.9548 65.4348C74.0869 65.06 74.1374 64.6613 74.1028 64.2653C74.0683 63.8694 73.9495 63.4855 73.7544 63.1392C73.68 62.9694 73.38 63.0948 73.4466 63.2778ZM69.4704 87.933C70.611 85.4064 72.6768 83.6172 74.9568 82.1544C75.3414 81.9078 75.804 82.4934 75.4182 82.7892C73.2894 84.5766 71.2242 86.5794 70.4382 89.3226C69.7376 91.928 69.8452 94.6847 70.7466 97.2276C73.4586 104.64 83.8758 106.381 89.3772 101.111C92.7672 97.8594 93.63 93.0978 91.8426 88.4904C90.9984 86.301 86.9454 81.324 80.4426 81.7704C79.9338 81.8172 79.7952 80.877 80.2884 80.6304C82.8924 79.3482 86.484 80.538 88.764 82.0482C90.5457 83.1861 92.0245 84.7396 93.0734 86.5751C94.1222 88.4106 94.7098 90.4733 94.7856 92.5861C94.8614 94.6988 94.4231 96.7983 93.5084 98.7042C92.5937 100.61 91.23 102.266 89.5344 103.528C82.1094 109.119 70.4094 105.289 68.6694 96.2082C68.1134 93.4312 68.3921 90.5518 69.4704 87.933ZM75.9888 85.02C73.7568 86.769 71.9208 89.7354 71.9052 92.6478C71.9052 92.8332 72.2136 92.8944 72.2442 92.6946C72.537 91.2612 73.539 87.4548 76.1736 85.2666C76.3278 85.1442 76.1442 84.9 75.9888 85.02ZM76.1874 88.365C75.22 89.2307 74.5874 90.4086 74.4 91.6932C74.3814 91.893 74.0778 91.8936 74.0916 91.6932C74.1042 90.9907 74.2842 90.3012 74.6165 89.6821C74.9489 89.063 75.424 88.5321 76.0026 88.1334C76.0336 88.1146 76.0705 88.1078 76.1062 88.1142C76.1419 88.1205 76.1741 88.1397 76.1967 88.1681C76.2193 88.1964 76.2309 88.232 76.2291 88.2683C76.2274 88.3045 76.2126 88.3389 76.1874 88.365ZM76.3896 91.74C76.6043 91.0841 76.9994 90.5019 77.5296 90.06C77.6226 89.9676 77.499 89.829 77.391 89.8746C77.0657 90.066 76.7848 90.3244 76.567 90.6326C76.3493 90.9409 76.1996 91.292 76.128 91.6626C76.1177 91.6973 76.1217 91.7346 76.1389 91.7664C76.1562 91.7982 76.1854 91.8218 76.2201 91.8321C76.2548 91.8424 76.2921 91.8384 76.3239 91.8212C76.3557 91.8039 76.3793 91.7747 76.3896 91.74ZM85.6662 95.3298C85.4094 96.0192 84.9257 96.6007 84.2946 96.9786C84.1254 97.0872 83.94 96.8244 84.0942 96.717C84.6241 96.2928 85.0598 95.7627 85.3734 95.1606C85.4814 95.0064 85.7124 95.1756 85.6662 95.3298ZM83.82 99.8142C86.3076 98.9412 88.5816 96.7782 88.9362 94.0818C88.9668 93.8814 88.659 93.8658 88.5972 94.0356C87.7494 96.5166 86.2704 98.5812 83.7432 99.552C83.586 99.6 83.6472 99.8742 83.82 99.8142ZM90.9828 92.433C91.3524 96.4086 88.3626 100.307 84.9114 101.894C84.7416 101.987 84.5874 101.725 84.7572 101.633C89.7654 99.0438 90.4434 94.3902 90.6588 92.433C90.6623 92.3924 90.6809 92.3547 90.7109 92.3271C90.7409 92.2996 90.7801 92.2844 90.8208 92.2844C90.8615 92.2844 90.9007 92.2996 90.9307 92.3271C90.9607 92.3547 90.9793 92.3924 90.9828 92.433ZM70.0716 65.1114C69.6894 65.439 68.8236 66.4524 69.4554 66.8988C70.0104 67.3152 71.1354 66.7914 71.412 66.2388C71.4322 66.2045 71.4404 66.1644 71.4354 66.1249C71.4303 66.0854 71.4124 66.0487 71.3842 66.0205C71.3561 65.9923 71.3194 65.9742 71.2799 65.9691C71.2405 65.964 71.2004 65.9721 71.166 65.9922C71.0682 66.047 70.9704 66.1118 70.8714 66.1773C70.5802 66.3701 70.2782 66.57 69.933 66.5472C69.3012 66.516 70.0716 65.4528 70.2564 65.2836C70.38 65.1888 70.1958 65.0046 70.0716 65.1114ZM55.602 96.7938C54.585 96.3162 54.807 95.1378 55.2168 94.2978C55.2984 94.1298 55.5558 94.251 55.5252 94.4214C55.5013 94.5405 55.4683 94.6621 55.4351 94.7846C55.2974 95.2925 55.155 95.8176 55.6326 96.255C56.1108 96.684 63.0912 96.915 61.596 95.775C61.5041 95.7073 61.3287 95.6688 61.0803 95.6141C60.5426 95.4958 59.6626 95.3023 58.545 94.575C58.284 94.4052 58.6842 94.02 58.884 94.236C59.3069 94.6894 60.1782 94.9435 60.9625 95.1723C61.7507 95.4022 62.4511 95.6065 62.5206 95.9616C62.814 97.4874 56.2338 97.0866 55.602 96.7938ZM56.0178 97.3638C55.6026 97.4052 55.5252 97.8108 55.5252 98.2272C55.5402 99.0744 59.3622 98.9358 59.6544 98.643C59.7275 98.5748 59.7789 98.4866 59.8021 98.3893C59.8252 98.2921 59.8192 98.1902 59.7846 98.0963C59.7501 98.0025 59.6886 97.921 59.6079 97.862C59.5272 97.803 59.4309 97.7691 59.331 97.7646C59.1462 97.7646 58.992 98.0574 59.1768 98.1498C60.0552 98.6586 55.047 98.7666 56.1258 97.6098C56.2032 97.518 56.1414 97.3518 56.0178 97.3638ZM31.5474 78.1176C31.8246 75.4062 46.0614 75.867 47.6814 76.0062C47.88 76.0236 47.928 76.2684 47.7276 76.3914C44.7534 76.3146 31.4706 76.1604 32.2098 78.2868L32.2238 78.3336L32.237 78.3773C32.3464 78.7383 32.5065 79.2666 32.1948 79.2114C31.9648 79.1508 31.7679 79.002 31.6467 78.7973C31.5255 78.5926 31.4899 78.3484 31.5474 78.1176ZM53.0442 75.42C53.46 76.9302 55.4478 83.5104 55.8042 84.1422C55.9242 84.342 56.3124 84.2808 56.2842 84.0186C56.1918 83.2944 53.865 76.8222 53.295 75.3582C53.2868 75.3249 53.2657 75.2963 53.2364 75.2786C53.2071 75.2609 53.172 75.2555 53.1387 75.2637C53.1054 75.2719 53.0768 75.293 53.0591 75.3223C53.0414 75.3516 53.036 75.3867 53.0442 75.42ZM32.9034 94.8522C32.256 89.0586 36.4728 85.5186 38.3586 84.5586C38.3954 84.5381 38.4387 84.5331 38.4792 84.5447C38.5196 84.5562 38.5539 84.5833 38.5743 84.6201C38.5948 84.6568 38.5998 84.7002 38.5882 84.7407C38.5767 84.7811 38.5496 84.8153 38.5128 84.8358C36.8022 85.8378 32.7342 90.3834 33.2886 94.806C33.3198 95.0064 32.934 95.0832 32.9034 94.8522ZM38.0196 87.132C36.5922 88.3734 35.2152 90.3372 35.3226 92.3094C35.3382 92.5254 35.6928 92.5872 35.6928 92.3556C35.8128 90.1062 37.557 88.0104 38.2506 87.363C38.4048 87.2244 38.1762 86.9958 38.0196 87.132ZM37.7604 91.9092C37.8318 90.7058 38.3613 89.5755 39.24 88.7502C39.2589 88.7297 39.2817 88.7132 39.3071 88.7017C39.3326 88.6902 39.36 88.684 39.3879 88.6834C39.4158 88.6828 39.4435 88.6878 39.4694 88.6982C39.4953 88.7086 39.5188 88.7241 39.5386 88.7438C39.5583 88.7635 39.5739 88.787 39.5843 88.8129C39.5947 88.8388 39.5998 88.8665 39.5993 88.8943C39.5988 88.9222 39.5926 88.9497 39.5812 88.9752C39.5697 89.0006 39.5533 89.0235 39.5328 89.0424C38.849 89.8956 38.3646 90.8909 38.115 91.9554C38.1043 91.9982 38.0782 92.0356 38.0417 92.0605C38.0052 92.0853 37.9609 92.0959 37.9171 92.0902C37.8734 92.0845 37.8332 92.0629 37.8043 92.0295C37.7754 91.9962 37.7598 91.9534 37.7604 91.9092ZM44.8308 97.1484C46.0068 96.6906 46.5888 95.6814 46.5108 95.1294C46.5093 95.0936 46.4963 95.0593 46.4737 95.0316C46.4511 95.0039 46.4201 94.9842 46.3854 94.9755C46.3506 94.9669 46.314 94.9697 46.2811 94.9836C46.2481 94.9975 46.2205 95.0217 46.2024 95.0526C46.0498 95.4124 45.8749 95.7623 45.6786 96.1002C45.4355 96.4422 45.1058 96.7135 44.7234 96.8862C44.5686 96.948 44.676 97.2084 44.8308 97.1484ZM49.176 94.7742C49.284 97.071 47.4876 99.0504 45.4314 99.8142C45.2304 99.8892 45.1542 99.5676 45.3546 99.489C47.3886 98.6574 48.4518 96.7926 48.8526 94.728C48.8832 94.5426 49.161 94.5894 49.176 94.7742ZM46.3716 102.11C49.0842 101.14 51.8418 98.3814 51.7494 95.2992C51.7477 95.2504 51.7286 95.2038 51.6954 95.1679C51.6623 95.132 51.6174 95.1092 51.5689 95.1036C51.5204 95.098 51.4714 95.11 51.431 95.1374C51.3906 95.1648 51.3614 95.2059 51.3486 95.253C51.0813 96.6105 50.5527 97.9031 49.7922 99.0588C48.9086 100.284 47.6882 101.226 46.2792 101.771C46.08 101.864 46.1556 102.187 46.3716 102.11ZM62.7828 88.6116C62.125 88.6785 61.4611 88.6524 60.8106 88.5342C60.7694 88.5317 60.7307 88.5136 60.7025 88.4835C60.6742 88.4535 60.6585 88.4138 60.6585 88.3725C60.6585 88.3312 60.6742 88.2915 60.7025 88.2615C60.7307 88.2314 60.7694 88.2133 60.8106 88.2108C61.4691 88.1489 62.133 88.18 62.7828 88.3032C62.9214 88.3494 62.937 88.5804 62.7828 88.6116ZM65.5872 87.5328C65.4672 87.5022 65.4486 87.7482 65.541 87.8406C65.6238 87.9294 65.7858 87.966 65.9515 88.0034C66.218 88.0636 66.4941 88.1259 66.4656 88.4112C66.435 88.7964 65.3256 88.7502 65.0484 88.704C64.9092 88.6884 64.8324 88.8888 64.9884 88.9194C65.5428 89.058 66.7602 89.3358 66.9144 88.5036C66.99 88.2258 66.7122 87.8118 65.5872 87.5328ZM24.0582 27.2034C24.8725 26.9852 25.7248 26.9485 26.5548 27.096C27.7728 27.2586 30.3456 29.16 28.9092 30.4692C28.6602 30.6852 28.2444 30.4074 28.4292 30.0996C28.8606 29.3754 28.2138 28.389 26.2566 27.8652C25.902 27.7572 24.0684 27.6342 24.0528 28.2198C24.0473 28.3182 24.0043 28.4108 23.9327 28.4786C23.8611 28.5463 23.7662 28.5841 23.6676 28.5841C23.569 28.5841 23.4741 28.5463 23.4025 28.4786C23.3309 28.4108 23.2879 28.3182 23.2824 28.2198C23.2797 28.1262 23.2974 28.0043 23.3181 27.8621C23.4166 27.1846 23.5822 26.0457 21.9264 25.3068C21.3996 25.1185 20.8253 25.1102 20.2934 25.2832C19.7614 25.4561 19.3017 25.8006 18.9864 26.2626C18.9449 26.3275 18.8836 26.3773 18.8116 26.4047C18.7397 26.4322 18.6608 26.4359 18.5866 26.4152C18.5124 26.3945 18.4468 26.3506 18.3994 26.2898C18.3521 26.2291 18.3254 26.1548 18.3234 26.0778C18.2004 23.2266 14.5944 22.1484 12.2214 22.5948C9.987 23.0148 7.968 25.3848 9.2934 27.6348C9.432 27.8658 9.1854 28.2354 8.9082 28.1274C7.8474 27.699 5.7672 27.819 5.4282 28.359C3.88737 30.8015 9.68224 31.2107 11.8297 31.3623H11.8297C11.9158 31.3684 11.996 31.374 12.0696 31.3794C15.4967 31.6129 18.8115 31.3966 22.1761 31.1769H22.1761L22.1762 31.1769C23.4711 31.0924 24.7733 31.0074 26.0922 30.9474C26.37 30.9324 26.3544 31.3326 26.0922 31.3638C25.9911 31.3744 25.843 31.3911 25.6529 31.4125C22.2522 31.7958 5.4288 33.6917 4.3338 29.2986C4.1184 28.4496 4.7502 26.8488 8.3712 27.2496C7.5702 24.8454 9.6042 22.395 12.0234 21.933C14.6274 21.4404 18.1872 22.533 18.8964 25.293C19.3224 24.9004 19.8449 24.6279 20.4107 24.5033C20.9764 24.3787 21.5651 24.4065 22.1166 24.5838C24.087 25.2698 24.0667 26.6195 24.059 27.1267L24.059 27.127C24.0586 27.1552 24.0582 27.1807 24.0582 27.2034ZM51.3954 74.2032C51.3354 74.064 51.1026 74.157 51.1488 74.3112C51.2531 74.7152 51.3728 75.105 51.4923 75.4945L51.4924 75.4948L51.5028 75.5286C51.4878 75.5436 49.407 79.5198 48.39 81.4764C45.5994 80.2655 42.4792 80.0427 39.5448 80.8446C39.4926 80.7853 39.4024 80.6787 39.2841 80.5391C38.6349 79.7725 37.1413 78.0089 36.4632 77.5932C36.446 77.5821 36.4256 77.5772 36.4052 77.5794C36.3849 77.5816 36.3659 77.5906 36.3515 77.6051C36.337 77.6195 36.328 77.6385 36.3258 77.6589C36.3236 77.6792 36.3285 77.6996 36.3396 77.7168C36.6231 78.3822 37.941 79.8552 38.6074 80.6001L38.6075 80.6002C38.7745 80.7869 38.9006 80.9278 38.9592 80.9988C37.2898 81.4833 35.7397 82.3104 34.4079 83.4275C33.076 84.5446 31.9917 85.927 31.224 87.4866C26.124 98.7006 36.3198 110.233 49.3764 104.899C51.7956 103.913 54.03 101.419 54.4464 98.751C54.5064 98.3346 53.8758 97.842 53.676 98.304C52.674 100.584 49.9464 102.357 49.0836 102.835C47.5775 103.656 45.8984 104.11 44.1834 104.159C42.18 104.252 29.7138 103.574 32.2098 90.4914C33.006 86.3124 36.4098 83.451 40.146 82.401C40.2784 82.5541 40.5055 82.8272 40.7878 83.1668L40.7886 83.1677C41.7854 84.3669 43.4698 86.3932 44.106 86.8854C44.3214 87.0552 44.676 86.8392 44.5218 86.562C44.1669 85.947 42.5334 84.1438 41.5069 83.0107C41.1954 82.6669 40.9399 82.3848 40.7928 82.2162C43.0953 81.6425 45.5215 81.8261 47.7114 82.74C47.6834 82.7941 47.6059 82.9415 47.4895 83.1627C46.7109 84.6431 44.1933 89.4298 43.1352 91.7088C42.9531 91.6647 42.763 91.666 42.5815 91.7125C42.4 91.759 42.2327 91.8493 42.0942 91.9755C41.9558 92.1017 41.8504 92.26 41.7873 92.4364C41.7242 92.6128 41.7054 92.802 41.7324 92.9874C41.7696 94.062 43.5858 94.3836 44.1828 93.3882C44.7739 93.3519 46.0856 93.3104 47.5995 93.2625C50.5847 93.168 54.3562 93.0487 54.939 92.895C54.9875 92.8811 55.0301 92.8518 55.0604 92.8115C55.0908 92.7713 55.1072 92.7222 55.1072 92.6718C55.1072 92.6214 55.0908 92.5723 55.0604 92.5321C55.0301 92.4918 54.9875 92.4625 54.939 92.4486C54.0606 92.217 45.9546 92.7414 44.3058 92.9724C44.5218 92.1096 43.5354 91.7856 43.5204 91.7856C44.678 89.5773 47.2361 84.8279 48.0178 83.3765L48.2358 82.9716C50.8954 84.18 53.0449 86.2858 54.3078 88.92C54.4926 89.3052 55.1706 89.028 55.0008 88.6272C54.971 88.5541 54.9401 88.476 54.9073 88.3932L54.907 88.3926C54.3797 87.0615 53.3679 84.5076 48.9294 81.7086C49.9158 79.89 50.871 78.0714 51.7188 76.1886C52.1808 77.5752 54.7542 85.2648 55.2474 86.1432C55.371 86.3436 55.6326 86.2032 55.602 85.989C55.4478 85.0056 52.2108 76.08 51.3954 74.2032ZM40.0917 91.0099C40.3262 90.574 40.6897 90.2213 41.1324 90C41.1711 89.9795 41.2162 89.9748 41.2583 89.9869C41.3004 89.999 41.3362 90.0269 41.3581 90.0649C41.38 90.1028 41.3864 90.1477 41.3759 90.1902C41.3653 90.2327 41.3387 90.2695 41.3016 90.2928C40.9594 90.5415 40.6758 90.8621 40.4708 91.2322C40.2659 91.6023 40.1446 92.0128 40.1154 92.4348C40.0998 92.5734 39.8532 92.5734 39.8226 92.4348C39.7632 91.9434 39.8572 91.4457 40.0917 91.0099Z" fill="#4D4D4D"/>
</g>
<defs>
<clipPath id="clip0_333_35581">
<rect width="120" height="120" fill="white"/>
</clipPath>
</defs>
</svg>
