<svg width="24" height="24" viewBox="0 0 24 24" fill="none" xmlns="http://www.w3.org/2000/svg">
<path d="M19 8.74286C18.9926 8.44961 18.8704 8.17038 18.6586 7.96296C18.4469 7.75554 18.1619 7.63582 17.8625 7.62857H12C11.9455 7.62803 11.8922 7.61281 11.8459 7.5846C11.7996 7.55638 11.7621 7.51624 11.7375 7.46857L11.3058 6.61714C11.2087 6.43337 11.0624 6.27889 10.8826 6.1702C10.7028 6.06151 10.4963 6.00268 10.285 6H6.16667C5.86224 5.99991 5.56982 6.11638 5.35185 6.32457C5.13388 6.53276 5.00761 6.81616 5 7.11429V16.8857C5.00761 17.1838 5.13388 17.4672 5.35185 17.6754C5.56982 17.8836 5.86224 18.0001 6.16667 18H17.8917C18.1859 17.9857 18.4637 17.8628 18.6693 17.6561C18.8748 17.4494 18.993 17.1742 19 16.8857V8.74286ZM17.8625 16.5714C17.8625 16.6472 17.8318 16.7199 17.7771 16.7735C17.7224 16.827 17.6482 16.8571 17.5708 16.8571L6.4875 16.8857C6.41015 16.8857 6.33596 16.8556 6.28126 16.802C6.22656 16.7484 6.19583 16.6758 6.19583 16.6L6.16667 7.42857C6.16667 7.3528 6.1974 7.28012 6.25209 7.22654C6.30679 7.17296 6.38098 7.14286 6.45833 7.14286H10.11C10.1638 7.14315 10.2165 7.15832 10.2619 7.18663C10.3073 7.21493 10.3436 7.25522 10.3667 7.30286L10.8158 8.17143C10.9089 8.35722 11.0534 8.51362 11.2329 8.62275C11.4124 8.73189 11.6196 8.78935 11.8308 8.78857H17.5708C17.6482 8.78857 17.7224 8.81867 17.7771 8.87226C17.8318 8.92584 17.8625 8.99851 17.8625 9.07429V16.5714Z" fill="#161616"/>
</svg>
