<svg width="24" height="24" viewBox="0 0 24 24" fill="none" xmlns="http://www.w3.org/2000/svg">
<path fill-rule="evenodd" clip-rule="evenodd" d="M9.53674 6.96007H7.25008C7.112 6.96007 7.00007 7.06752 7.00007 7.20008V13.6805C7.00007 13.8131 7.112 13.9205 7.25008 13.9205H10.4063C10.4669 13.9207 10.5181 13.9637 10.5263 14.0213C10.5694 14.2652 10.6699 14.4964 10.8203 14.6972C10.8453 14.734 10.8471 14.781 10.825 14.8194C10.8029 14.8578 10.7605 14.8813 10.7148 14.8806H7.00007C6.44775 14.8806 6 14.4508 6 13.9205V6.96007C6 6.42984 6.44775 6 7.00007 6H9.69125C10.0698 6.0001 10.4159 6.20542 10.5853 6.53044L10.9903 7.30761C11.0327 7.38882 11.1192 7.44009 11.2139 7.4401H15.7507C16.303 7.4401 16.7507 7.86993 16.7507 8.40016V11.6308C16.7591 11.6932 16.722 11.753 16.6609 11.7758C16.5998 11.7985 16.5304 11.7783 16.4927 11.7268C16.4028 11.5476 16.3112 11.366 16.2603 11.2649C16.2359 11.2166 16.2208 11.1867 16.2197 11.1844C16.1254 11.0064 15.9966 10.8474 15.8402 10.7158C15.7843 10.6709 15.7516 10.6048 15.7507 10.5349V8.64018C15.7507 8.50762 15.6387 8.40016 15.5006 8.40016H11.0593C10.6813 8.40052 10.3354 8.19621 10.1653 7.87213L9.76026 7.09255C9.71787 7.01135 9.63136 6.96007 9.53674 6.96007ZM17.9553 13.5654C18.0503 13.7946 17.991 14.0563 17.8053 14.2269L16.6992 15.1754C16.6589 15.2098 16.6461 15.2652 16.6677 15.3127L17.2823 16.6626C17.3934 16.903 17.3294 17.1848 17.1243 17.3591C16.9186 17.5413 16.6133 17.5736 16.3712 17.4388L14.8151 16.5973C14.7771 16.5767 14.7306 16.5767 14.6926 16.5973L13.136 17.4388C12.8939 17.5735 12.5887 17.5412 12.383 17.3591C12.1777 17.1848 12.1139 16.9028 12.2254 16.6626L12.8375 15.3113C12.8589 15.2638 12.8462 15.2084 12.806 15.174L11.6994 14.2274C11.514 14.0566 11.4547 13.7951 11.5494 13.5659C11.6469 13.3398 11.8792 13.1947 12.1339 13.2006H13.384C13.4338 13.2003 13.4787 13.1719 13.4985 13.1281L14.1706 11.6318L14.1771 11.6189C14.2881 11.4123 14.51 11.2825 14.7521 11.2825C14.9943 11.2825 15.2161 11.4123 15.3272 11.6189L15.3337 11.6318L16.0057 13.1281C16.0257 13.172 16.0708 13.2004 16.1207 13.2006H17.3708C17.6255 13.1944 17.8578 13.3394 17.9553 13.5654Z" fill="#161616"/>
</svg>
