<svg width="24" height="24" viewBox="0 0 24 24" fill="none" xmlns="http://www.w3.org/2000/svg">
<path d="M20 8.2C19.9915 7.85788 19.8519 7.53211 19.6099 7.29012C19.3679 7.04813 19.0421 6.90845 18.7 6.9H12C11.9377 6.89936 11.8768 6.88162 11.8238 6.8487C11.7709 6.81578 11.7281 6.76895 11.7 6.71333L11.2067 5.72C11.0956 5.5056 10.9284 5.32538 10.723 5.19857C10.5175 5.07176 10.2814 5.00313 10.04 5H5.33333C4.98541 4.99989 4.65123 5.13578 4.40212 5.37867C4.153 5.62155 4.0087 5.95219 4 6.3V17.7C4.0087 18.0478 4.153 18.3785 4.40212 18.6213C4.65123 18.8642 4.98541 19.0001 5.33333 19H18.7333C19.0696 18.9833 19.3871 18.8399 19.622 18.5988C19.857 18.3577 19.992 18.0366 20 17.7V8.2ZM18.7 17.3333C18.7 17.4217 18.6649 17.5065 18.6024 17.569C18.5399 17.6315 18.4551 17.6667 18.3667 17.6667L5.7 17.7C5.61159 17.7 5.52681 17.6649 5.4643 17.6024C5.40179 17.5399 5.36667 17.4551 5.36667 17.3667L5.33333 6.66667C5.33333 6.57826 5.36845 6.49348 5.43096 6.43096C5.49348 6.36845 5.57826 6.33333 5.66667 6.33333H9.84C9.90151 6.33368 9.96167 6.35138 10.0136 6.3844C10.0655 6.41742 10.107 6.46443 10.1333 6.52L10.6467 7.53333C10.753 7.75009 10.9182 7.93256 11.1233 8.05988C11.3284 8.1872 11.5652 8.25424 11.8067 8.25333H18.3667C18.4551 8.25333 18.5399 8.28845 18.6024 8.35096C18.6649 8.41348 18.7 8.49826 18.7 8.58667V17.3333Z" fill="#161616"/>
</svg>
