<svg width="24" height="24" viewBox="0 0 24 24" fill="none" xmlns="http://www.w3.org/2000/svg">
<path fill-rule="evenodd" clip-rule="evenodd" d="M8.71565 5.28009H5.66678C5.48267 5.28009 5.33342 5.42337 5.33342 5.60011V14.2407C5.33342 14.4174 5.48267 14.5607 5.66678 14.5607H9.87507C9.95585 14.561 10.0241 14.6183 10.0351 14.6951C10.0925 15.0203 10.2266 15.3285 10.4271 15.5963C10.4604 15.6453 10.4628 15.708 10.4334 15.7592C10.4039 15.8104 10.3474 15.8418 10.2864 15.8408H5.33342C4.59699 15.8408 4 15.2677 4 14.5607V5.28009C4 4.57311 4.59699 4 5.33342 4H8.92167C9.42644 4.00014 9.88786 4.27389 10.1137 4.70725L10.6538 5.74348C10.7103 5.85175 10.8256 5.92013 10.9518 5.92013H17.0009C17.7373 5.92013 18.3343 6.49324 18.3343 7.20022V11.5077C18.3455 11.5909 18.296 11.6707 18.2145 11.7011C18.133 11.7314 18.0405 11.7044 17.9903 11.6357C17.8703 11.3966 17.7481 11.1543 17.6802 11.0196C17.6478 10.9553 17.6278 10.9156 17.6263 10.9125C17.5005 10.6752 17.3288 10.4632 17.1202 10.2878C17.0457 10.2279 17.0021 10.1398 17.0009 10.0465V7.52024C17.0009 7.3435 16.8516 7.20022 16.6675 7.20022H10.7458C10.2418 7.20069 9.78052 6.92828 9.55371 6.49617L9.01367 5.45674C8.95716 5.34846 8.84181 5.28009 8.71565 5.28009ZM19.9404 14.0871C20.0671 14.3928 19.988 14.7416 19.7404 14.9691L18.2657 16.2338C18.2118 16.2796 18.1948 16.3536 18.2237 16.4169L19.043 18.2167C19.1912 18.5372 19.1059 18.913 18.8324 19.1454C18.5582 19.3884 18.151 19.4314 17.8283 19.2516L15.7535 18.1296C15.7028 18.1021 15.6408 18.1021 15.5901 18.1296L13.5147 19.2516C13.1919 19.4312 12.7849 19.3882 12.5106 19.1454C12.2369 18.913 12.1519 18.537 12.3006 18.2167L13.1166 16.4149C13.1452 16.3516 13.1283 16.2778 13.0746 16.2319L11.5992 14.9697C11.352 14.7421 11.2729 14.3934 11.3992 14.0877C11.5292 13.7864 11.8389 13.5928 12.1786 13.6007H13.8454C13.9117 13.6004 13.9716 13.5624 13.998 13.504L14.8941 11.509L14.9028 11.4917C15.0508 11.2163 15.3466 11.0432 15.6695 11.0432C15.9923 11.0432 16.2882 11.2163 16.4362 11.4917L16.4449 11.509L17.3409 13.504C17.3676 13.5625 17.4277 13.6004 17.4943 13.6007H19.1611C19.5006 13.5925 19.8104 13.7858 19.9404 14.0871Z" fill="#161616"/>
</svg>
