<svg width="24" height="24" viewBox="0 0 24 24" fill="none" xmlns="http://www.w3.org/2000/svg">
<path d="M22 7.11429C21.9894 6.67442 21.8148 6.25557 21.5124 5.94444C21.2099 5.63331 20.8027 5.45372 20.375 5.44286H12C11.9221 5.44204 11.8459 5.41922 11.7798 5.3769C11.7137 5.33457 11.6601 5.27437 11.625 5.20286L11.0083 3.92571C10.8695 3.65006 10.6605 3.41834 10.4037 3.2553C10.1469 3.09226 9.85179 3.00402 9.55 3H3.66667C3.23176 2.99986 2.81404 3.17458 2.50265 3.48686C2.19126 3.79914 2.01087 4.22424 2 4.67143L2 19.3286C2.01087 19.7758 2.19126 20.2009 2.50265 20.5131C2.81404 20.8254 3.23176 21.0001 3.66667 21H20.4167C20.837 20.9785 21.2338 20.7942 21.5275 20.4842C21.8212 20.1741 21.99 19.7613 22 19.3286V7.11429ZM20.375 18.8571C20.375 18.9708 20.3311 19.0798 20.253 19.1602C20.1748 19.2406 20.0688 19.2857 19.9583 19.2857L4.125 19.3286C4.01449 19.3286 3.90851 19.2834 3.83037 19.203C3.75223 19.1227 3.70833 19.0137 3.70833 18.9L3.66667 5.14286C3.66667 5.02919 3.71057 4.92018 3.78871 4.83981C3.86685 4.75944 3.97283 4.71429 4.08333 4.71429H9.3C9.37689 4.71473 9.45209 4.73748 9.51696 4.77994C9.58182 4.8224 9.63372 4.88283 9.66667 4.95429L10.3083 6.25714C10.4412 6.53583 10.6477 6.77043 10.9041 6.93413C11.1605 7.09783 11.4565 7.18402 11.7583 7.18286H19.9583C20.0688 7.18286 20.1748 7.22801 20.253 7.30838C20.3311 7.38876 20.375 7.49776 20.375 7.61143V18.8571Z" fill="#161616"/>
</svg>
