<svg width="24" height="24" viewBox="0 0 24 24" fill="none" xmlns="http://www.w3.org/2000/svg">
<path fill-rule="evenodd" clip-rule="evenodd" d="M7.89457 3.60011H4.08347C3.85334 3.60011 3.66678 3.77921 3.66678 4.00014V14.8009C3.66678 15.0218 3.85334 15.2009 4.08347 15.2009H9.34383C9.44481 15.2012 9.53013 15.2729 9.54385 15.3689C9.61561 15.7753 9.78323 16.1607 10.0339 16.4954C10.0755 16.5566 10.0785 16.6349 10.0417 16.699C10.0049 16.763 9.93421 16.8022 9.85803 16.801H3.66678C2.74624 16.801 2 16.0846 2 15.2009V3.60011C2 2.71639 2.74624 2 3.66678 2H8.15208C8.78305 2.00017 9.35983 2.34237 9.64219 2.88406L10.3172 4.17935C10.3879 4.31469 10.5321 4.40016 10.6898 4.40016H18.2511C19.1716 4.40016 19.9179 5.11656 19.9179 6.00027V11.3846C19.9318 11.4887 19.87 11.5884 19.7681 11.6263C19.6663 11.6642 19.5506 11.6305 19.4879 11.5446C19.3378 11.2456 19.185 10.9426 19.1002 10.7743C19.0597 10.6941 19.0347 10.6445 19.0328 10.6406C18.8757 10.344 18.661 10.079 18.4003 9.85973C18.3071 9.78487 18.2527 9.67472 18.2511 9.55811V6.4003C18.2511 6.17937 18.0645 6.00027 17.8344 6.00027H10.4322C9.8022 6.00086 9.22566 5.66035 8.94214 5.12021L8.26709 3.82092C8.19644 3.68558 8.05226 3.60011 7.89457 3.60011ZM21.9255 14.6088C22.0838 14.9909 21.9849 15.427 21.6755 15.7113L19.8321 17.2922C19.7648 17.3495 19.7436 17.4419 19.7796 17.521L20.8038 19.7708C20.9889 20.1715 20.8824 20.6411 20.5405 20.9316C20.1977 21.2354 19.6888 21.2892 19.2854 21.0645L16.6919 19.662C16.6285 19.6276 16.551 19.6276 16.4877 19.662L13.8933 21.0645C13.4899 21.289 12.9811 21.2351 12.6383 20.9316C12.2961 20.6412 12.1898 20.1712 12.3757 19.7708L13.3958 17.5186C13.4315 17.4395 13.4104 17.3472 13.3433 17.2898L11.499 15.7121C11.19 15.4275 11.0912 14.9917 11.249 14.6096C11.4115 14.2329 11.7986 13.9909 12.2232 14.0008H14.3067C14.3896 14.0004 14.4645 13.953 14.4975 13.88L15.6176 11.3862L15.6285 11.3646C15.8135 11.0203 16.1833 10.804 16.5869 10.804C16.9904 10.804 17.3602 11.0203 17.5453 11.3646L17.5561 11.3862L18.6762 13.88C18.7095 13.9531 18.7847 14.0005 18.8678 14.0008H20.9513C21.3758 13.9906 21.763 14.2322 21.9255 14.6088Z" fill="#161616"/>
</svg>
