<svg width="120" height="120" viewBox="0 0 120 120" fill="none" xmlns="http://www.w3.org/2000/svg">
<path fill-rule="evenodd" clip-rule="evenodd" d="M36.9578 24.7827C37.0871 29.6847 37.2163 34.5891 36.7536 39.4548C36.72 39.8034 36.18 39.8034 36.231 39.4404C36.2567 38.4797 36.179 34.3947 36.0924 29.8414C36.0031 25.1442 35.9043 19.9487 35.8998 17.1702C35.8993 16.8549 35.8935 16.5305 35.8876 16.2007C35.8591 14.598 35.8283 12.8663 36.3876 11.4198C36.9672 9.9228 38.2704 9.2616 39.8034 9.0498C42.2358 8.73735 44.6873 8.59701 47.1396 8.6298C47.523 8.6328 47.628 9.2412 47.2266 9.3096C46.0412 9.51072 44.832 9.58052 43.6229 9.65032C42.2565 9.72919 40.8904 9.80805 39.5592 10.0764C37.3134 10.5276 36.9612 12.4098 36.8934 14.3964C36.775 17.8476 36.8664 21.3145 36.9578 24.7827ZM94.5203 69.288C84.3887 91.434 50.1887 95.19 39.2285 69.654C39.0713 69.288 39.5999 68.9544 39.7691 69.3072C42.6977 75.3822 46.8617 80.6682 52.9427 83.7186C68.2427 91.3932 89.4227 83.6784 95.1827 65.5782C98.1983 56.0988 96.0887 45.3642 90.0593 37.4874C82.9499 28.1994 70.5983 24.0372 59.1983 26.4744C47.4473 28.9878 38.5301 38.5086 37.2593 51.6894C37.1837 52.473 35.9357 52.4916 36.0221 51.6894C39.3761 20.3694 78.3443 16.1508 92.6561 39.3C95.3822 43.77 96.9768 48.8375 97.3016 54.0632C97.6265 59.2888 96.6718 64.5148 94.5203 69.288ZM35.8128 98.2836C35.8542 95.793 35.9544 93.3186 36.0744 90.8436C36.0719 90.7674 36.0998 90.6933 36.152 90.6376C36.2041 90.582 36.2762 90.5494 36.3525 90.5469C36.4287 90.5444 36.5028 90.5723 36.5584 90.6245C36.6141 90.6766 36.6467 90.7488 36.6492 90.825C36.7902 93.4572 36.9204 96.0702 36.9804 98.7018C36.9979 99.4568 36.9826 100.243 36.967 101.04C36.9294 102.966 36.8906 104.956 37.3116 106.718C37.9188 109.262 39.8034 109.954 42.2082 109.994C42.5502 109.999 43.4968 110.009 44.7916 110.022L44.7933 110.022L44.7947 110.022C49.5698 110.071 59.0732 110.169 60.453 110.29C60.8712 110.327 61.0458 111.005 60.5574 111.091C58.4684 111.459 57.303 111.445 46.6206 111.309C45.5703 111.296 44.428 111.281 43.1838 111.266C42.9829 111.263 42.7802 111.263 42.5763 111.263C41.4005 111.263 40.1871 111.263 39.0888 110.83C35.4077 109.38 35.5971 104.343 35.7565 100.103C35.7802 99.4743 35.8032 98.863 35.8128 98.2836ZM93.8213 100.571L93.8213 100.571C93.8031 100.913 93.7849 101.255 93.7679 101.596C93.7533 101.905 93.7493 102.233 93.7451 102.571C93.7295 103.851 93.7122 105.27 93.1079 106.318C92.3691 107.596 90.8659 107.614 89.5267 107.63C89.3151 107.633 89.1077 107.635 88.9079 107.642C87.5175 107.616 86.1268 107.674 84.7433 107.816C84.3233 107.883 84.3413 108.571 84.7433 108.653C86.5137 108.917 88.3082 108.981 90.0929 108.845C91.4873 108.806 92.9021 108.621 93.8399 107.485C94.7999 106.321 94.8678 104.732 94.8678 103.303C94.8823 101.27 94.76 99.2383 94.5018 97.2216C94.4586 96.8892 93.969 96.873 93.96 97.2216C93.9398 98.3411 93.8803 99.4596 93.8213 100.571Z" fill="#417FDA"/>
<path fill-rule="evenodd" clip-rule="evenodd" d="M85.7729 9.9528C87.0971 9.9528 87.0971 7.8708 85.7729 7.8792C85.5065 7.89202 85.2553 8.00685 85.0714 8.19988C84.8874 8.39291 84.7848 8.64934 84.7848 8.916C84.7848 9.18266 84.8874 9.43908 85.0714 9.63212C85.2553 9.82515 85.5065 9.93998 85.7729 9.9528ZM81.0443 9.87686C80.919 9.9281 80.7848 9.95392 80.6495 9.9528C80.4454 9.95328 80.2458 9.89315 80.0759 9.78004C79.906 9.66693 79.7735 9.50593 79.6952 9.31744C79.6169 9.12896 79.5963 8.92147 79.6361 8.72127C79.6758 8.52108 79.7741 8.33719 79.9185 8.19291C80.0628 8.04863 80.2468 7.95045 80.447 7.91082C80.6472 7.87119 80.8547 7.89189 81.0431 7.9703C81.2316 8.04871 81.3925 8.1813 81.5055 8.35126C81.6185 8.52122 81.6785 8.7209 81.6779 8.925C81.679 9.06032 81.6531 9.19448 81.6018 9.31969C81.5504 9.4449 81.4747 9.55864 81.379 9.6543C81.2833 9.74995 81.1695 9.82561 81.0443 9.87686ZM59.5121 8.5938C61.0358 9.24334 62.8689 9.31646 64.5313 9.38277L64.8443 9.3954C66.9033 9.47031 68.965 9.39451 71.0129 9.1686C71.8151 9.0846 71.8139 7.821 71.0129 7.8966C69.1251 8.08141 67.229 8.16872 65.3321 8.1582C64.647 8.15181 63.9479 8.09601 63.2468 8.04006C62.0395 7.94371 60.8264 7.8469 59.6687 8.001C59.4071 8.0532 59.1815 8.4528 59.5121 8.5938ZM66.6111 73.944C66.6294 72.8663 66.9337 71.8128 67.4927 70.8912C68.8007 68.6958 70.3625 70.2318 71.1737 71.9736C72.0913 73.9524 71.67 75.0941 71.2571 76.2129C71.0296 76.8292 70.8047 77.4385 70.8077 78.177C70.7877 80.3383 71.0091 82.495 71.4677 84.6072C71.507 84.7599 71.4851 84.9219 71.4067 85.0587C71.3282 85.1954 71.1994 85.2961 71.0477 85.3392C70.5718 85.4163 70.1067 85.5292 69.6444 85.6414C68.6671 85.8786 67.7022 86.1128 66.6737 85.9992C66.3773 85.9668 66.0497 85.7556 66.0815 85.407C66.2013 84.0907 66.4515 82.7929 66.7016 81.4958L66.7016 81.4957C66.9774 80.0649 67.2531 78.6349 67.3535 77.1816C67.3567 77.1279 67.3685 77.075 67.3883 77.025C66.861 76.0849 66.5927 75.0217 66.6111 73.944ZM62.5614 106.684C61.2354 103.328 64.8072 100.281 68.3472 101.421C71.0118 102.278 72.2478 105.706 70.0722 107.747C68.0136 109.679 63.7236 109.624 62.5614 106.684ZM59.1392 51.596C59.1601 51.2285 59.181 50.8626 59.181 50.5026C59.181 50.2416 59.6166 50.172 59.6544 50.4678C59.7433 50.9749 59.7681 51.4763 59.7924 51.9683C59.8723 53.5868 59.9472 55.1045 62.286 56.3928C64.6953 57.7242 67.2197 57.2669 69.7495 56.8087L69.7495 56.8087C70.1417 56.7377 70.534 56.6666 70.926 56.6022C71.0222 56.577 71.1244 56.5904 71.2108 56.6397C71.2972 56.689 71.3609 56.7701 71.3882 56.8657C71.4155 56.9614 71.4043 57.0639 71.3569 57.1514C71.3095 57.2388 71.2298 57.3042 71.1348 57.3336C64.9254 59.637 60.0984 57.033 59.2854 54.2496C59.0365 53.3973 59.0881 52.492 59.1392 51.596ZM86.958 64.3044C86.9309 64.3044 86.8268 64.2766 86.6573 64.2314C85.6542 63.9637 82.3597 63.0844 79.1508 63.729C78.8055 63.7986 78.3859 63.2769 78.0768 62.8924C77.981 62.7733 77.8957 62.6673 77.8266 62.5962C77.4098 62.2735 77.0247 61.9119 76.6764 61.5162C76.6016 61.3925 76.4824 61.302 76.3432 61.2631C76.204 61.2242 76.0551 61.2398 75.927 61.3068C75.6946 61.4265 75.4723 61.5661 75.242 61.7107L75.242 61.7107L75.1679 61.7572L75.108 61.7946C75.0906 61.5162 74.8296 54.72 74.9166 53.0472C77.1816 52.9272 77.8788 49.4226 77.0076 47.5578C77.1538 47.3067 77.3084 47.0534 77.4644 46.7978L77.4646 46.7975L77.4646 46.7975C78.2937 45.439 79.1628 44.0149 79.029 42.5046C78.8574 40.5702 77.637 38.6286 75.7704 38.061C75.5293 37.9875 75.0609 37.9261 74.5752 37.8624C74.0095 37.7882 73.4203 37.711 73.1388 37.608C72.2967 36.2515 71.2094 35.0636 69.9324 34.1052C68.694 33.288 57.5796 27.5532 56.445 36.1614C55.836 40.7814 59.0934 41.8434 61.4112 42.1014C63.5898 42.3462 66.972 41.7252 69.4446 41.1414C69.7155 41.0758 69.9983 41.0775 70.2684 41.1465C70.5384 41.2154 70.7875 41.3494 70.9938 41.5368C71.2001 41.7242 71.3573 41.9593 71.4518 42.2215C71.5462 42.4837 71.575 42.7651 71.5356 43.041C71.3294 44.3116 71.4249 45.6128 71.8146 46.8396C71.892 47.0845 72.0292 47.3062 72.2138 47.4848C72.3984 47.6633 72.6246 47.7931 72.8719 47.8623C73.1192 47.9315 73.3799 47.938 73.6304 47.8811C73.8808 47.8243 74.1132 47.706 74.3064 47.5368C74.4627 47.4001 74.6392 47.2884 74.8296 47.2056C75.558 46.884 75.9966 46.962 76.4148 47.3976C76.9032 48.5304 76.6242 51.5796 75.2148 52.0674C75.1299 52.0533 75.0392 52.0449 74.9476 52.0364C74.8135 52.024 74.6775 52.0114 74.5548 51.9804C74.2283 51.8649 73.9134 51.719 73.614 51.5448C73.568 51.52 73.5159 51.5088 73.4637 51.5125C73.4116 51.5162 73.3616 51.5347 73.3195 51.5658C73.2775 51.5968 73.2452 51.6393 73.2263 51.688C73.2075 51.7368 73.203 51.7899 73.2132 51.8412C73.2646 52.0448 73.362 52.2338 73.4978 52.3939C73.6336 52.554 73.8043 52.6808 73.9968 52.7646C73.8228 54.5244 73.8402 62.0526 74.0148 62.5752C73.8679 62.6919 73.552 62.9359 73.1447 63.2505C71.9083 64.2054 69.8302 65.8104 69.0828 66.4788C68.5114 65.7525 66.2267 64.026 65.3519 63.3648C65.2402 63.2804 65.1515 63.2134 65.0922 63.168C65.2562 62.3281 65.089 61.4462 64.9233 60.5718C64.807 59.9582 64.6914 59.3483 64.6914 58.7592C64.6914 58.428 64.1514 58.3392 64.0992 58.6722C64.0129 59.466 64.0188 60.2671 64.1166 61.0596C64.1374 61.3494 64.1305 61.6469 64.1236 61.9469V61.9469C64.1201 62.0979 64.1166 62.2496 64.1166 62.4012C63.9766 62.294 63.8368 62.1827 63.697 62.0714C63.5408 61.947 63.3847 61.8227 63.228 61.704C63.1134 61.6128 62.9705 61.5647 62.8241 61.5678C62.6777 61.571 62.537 61.6253 62.4264 61.7214C62.4131 61.7227 62.4007 61.7289 62.3916 61.7388C61.7635 62.2078 61.2009 62.7586 60.7188 63.3768C60.1016 64.012 59.7425 64.0561 58.9873 64.1487C58.9122 64.1579 58.8332 64.1676 58.7496 64.1784C55.3046 64.641 51.9391 65.5733 48.747 66.9492C46.2036 68.0292 43.4508 69.3042 41.4108 71.2362C41.1708 71.4648 41.4108 71.9562 41.7594 71.8284C43.2165 71.2828 44.5853 70.5327 45.9542 69.7826C47.1445 69.1304 48.3349 68.4781 49.5834 67.9602C52.737 66.6516 56.0844 65.961 59.4462 65.2764C60.0761 65.2133 60.6749 64.9714 61.1718 64.5792C61.3296 64.4412 62.8446 62.9064 62.8098 62.8716C63.6984 63.621 67.647 66.696 68.8392 67.176C68.8968 67.1964 68.9592 67.1991 69.0182 67.1835C69.0773 67.168 69.1303 67.1351 69.1704 67.089C71.5998 65.7197 73.9343 64.1885 76.158 62.5056C76.5224 63.0635 76.9492 63.578 77.43 64.0392C78.3534 64.9927 79.6761 64.8952 80.9613 64.8004C81.4658 64.7632 81.9645 64.7264 82.431 64.7538C85.8297 64.9529 88.0812 65.9083 90.0898 66.7605C90.9144 67.1104 91.698 67.4429 92.5032 67.6986C92.8866 67.8186 93.1164 67.3302 92.8692 67.0536C91.4633 65.489 89.2112 64.8969 87.1545 64.3561L86.958 64.3044ZM67.563 35.4444C65.1684 34.7358 61.263 34.4568 59.8782 37.0824C59.8448 37.1352 59.7936 37.1742 59.7338 37.1924C59.674 37.2105 59.6097 37.2066 59.5526 37.1813C59.4955 37.1559 59.4494 37.1109 59.4227 37.0545C59.396 36.998 59.3905 36.9338 59.4072 36.8736C59.6451 36.199 60.052 35.5965 60.5889 35.1239C61.1259 34.6512 61.7751 34.324 62.4744 34.1736C64.1322 33.7458 66.4128 33.7902 67.824 34.8336C68.0856 35.0634 67.9278 35.5548 67.563 35.4468V35.4444ZM65.9656 72.8626C64.9786 74.7488 64.0135 76.5932 63.45 78.7326C63.4219 78.8361 63.3637 78.929 63.2826 78.9992C63.2016 79.0695 63.1014 79.1141 62.9949 79.1272C62.8885 79.1403 62.7805 79.1215 62.6848 79.073C62.5891 79.0245 62.51 78.9486 62.4576 78.855C60.4481 74.8695 59.5682 70.4099 59.9136 65.9598C59.9136 65.8882 59.9421 65.8195 59.9927 65.7689C60.0433 65.7182 60.112 65.6898 60.1836 65.6898C60.2552 65.6898 60.3239 65.7182 60.3745 65.7689C60.4252 65.8195 60.4536 65.8882 60.4536 65.9598C60.4605 69.7642 61.2556 73.5259 62.7888 77.0076C63.5752 74.5043 64.8418 72.1781 66.5178 70.1592C66.81 69.8088 67.2858 70.2468 67.11 70.6122C66.7403 71.3821 66.3513 72.1256 65.9656 72.8626ZM78.1752 66.7962C77.4137 68.15 76.9913 69.6176 76.5703 71.0801C76.0822 72.776 75.5961 74.465 74.5854 75.9618C73.5508 73.0622 72.0241 70.3626 70.0722 67.9818C69.8994 67.7712 69.5358 68.049 69.6888 68.2776C71.5065 71.063 72.9093 74.098 73.8534 77.2872C73.8806 77.3814 73.9319 77.467 74.0022 77.5354C74.0725 77.6038 74.1594 77.6526 74.2544 77.6772C74.3493 77.7018 74.449 77.7012 74.5437 77.6756C74.6384 77.6499 74.7247 77.6 74.7942 77.5308C77.2584 74.7294 78.1608 70.6626 78.8898 67.0908C78.9106 67.0004 78.8986 66.9056 78.8561 66.8232C78.8135 66.7408 78.743 66.6761 78.6573 66.6408C78.5716 66.6054 78.476 66.6017 78.3878 66.6301C78.2995 66.6586 78.2242 66.7174 78.1752 66.7962ZM69.7235 51.6876C69.5669 53.3418 67.4801 54.5658 65.9249 54.0924C65.8677 54.0725 65.8189 54.0339 65.7863 53.9829C65.7538 53.9319 65.7393 53.8713 65.7454 53.8111C65.7514 53.7509 65.7775 53.6944 65.8196 53.6508C65.8616 53.6073 65.9171 53.5792 65.9771 53.571C67.8316 53.3272 68.2285 52.786 69.1182 51.5727L69.1487 51.531C69.3227 51.3222 69.7547 51.3564 69.7235 51.6876ZM65.1059 47.976C65.1251 47.802 64.8455 47.6808 64.7399 47.8194C64.4586 48.2305 64.2302 48.6754 64.0601 49.1436C63.7875 49.5802 63.626 50.0768 63.5897 50.5902C63.6995 51.3732 65.1221 51.3882 65.6981 51.2694C65.756 51.2506 65.8073 51.2156 65.8459 51.1687C65.8846 51.1217 65.909 51.0646 65.9163 51.0042C65.9236 50.9438 65.9135 50.8826 65.8872 50.8277C65.8609 50.7729 65.8194 50.7267 65.7677 50.6946C65.3185 50.5134 64.8407 50.4137 64.3565 50.4C64.6875 49.6194 64.9385 48.8072 65.1059 47.976ZM65.7851 45.972C65.9945 44.2818 66.7493 42.9132 68.1029 43.2186C69.6599 43.5714 70.2635 45.153 70.0721 46.6866C70.0895 46.6866 71.6927 47.1396 71.9015 47.5056C71.923 47.5412 71.9361 47.5813 71.9396 47.6227C71.9432 47.6642 71.9372 47.7059 71.922 47.7446C71.9069 47.7834 71.883 47.8181 71.8523 47.8462C71.8216 47.8742 71.7848 47.8948 71.7449 47.9064C71.1211 47.8602 70.5089 47.7131 69.9323 47.4708C69.5639 48.7602 68.6267 49.785 67.2839 49.44C66.1865 49.158 65.7503 47.9412 65.7503 46.6518C65.2453 46.6999 64.7364 46.6882 64.2341 46.617C64.0601 48.2898 63.0143 49.8774 61.3763 49.4574C58.6049 48.7464 59.6339 42.5742 62.2301 43.1316C63.5723 43.3062 64.1819 44.5782 64.2515 45.8676C64.7643 45.8721 65.2764 45.907 65.7851 45.972ZM60.4529 47.4534C60.5795 48.3066 60.8711 48.882 61.7945 48.882C63.2585 48.882 63.8549 47.2266 63.7637 45.9372C63.6803 44.7522 62.8403 43.6548 61.7771 43.6194C60.5405 43.6632 60.2657 46.1904 60.4529 47.4534ZM66.3605 47.4708C66.4955 48.3252 66.7787 48.888 67.6847 48.882C69.1139 48.8736 69.7013 47.2446 69.5999 45.9894C69.5698 45.4498 69.3623 44.9352 69.0097 44.5256C68.6571 44.116 68.1791 43.8344 67.6499 43.7244C66.4373 43.7676 66.1697 46.2708 66.3605 47.4708ZM62.46 45.9546C62.0839 45.8279 61.6808 45.8038 61.2924 45.885C60.8262 45.9642 60.8604 46.6716 61.2924 46.791C61.725 46.9523 62.2013 46.9523 62.634 46.791C63 46.5888 62.8014 46.1136 62.46 45.9546ZM67.4063 46.1466C67.7011 45.9585 68.0543 45.884 68.3999 45.9372C68.5006 45.8919 68.6146 45.8863 68.7192 45.9215C68.8238 45.9567 68.9113 46.0301 68.9641 46.1269C69.0169 46.2238 69.0313 46.3371 69.0042 46.4441C68.9771 46.5511 68.9107 46.6439 68.8181 46.704C68.4205 46.9258 67.9553 46.9942 67.5107 46.896C67.4341 46.8734 67.3656 46.8293 67.3135 46.7688C67.2614 46.7083 67.2278 46.6341 67.2167 46.555C67.2057 46.4759 67.2177 46.3953 67.2514 46.3228C67.285 46.2504 67.3388 46.1892 67.4063 46.1466Z" fill="#4D4D4D"/>
<path d="M115.26 23.0922C114.392 21.678 112.8 20.6286 111.095 20.9484C109.09 21.3246 107.398 23.2992 106.163 24.8172C104.63 26.6998 103.47 28.8587 102.748 31.1772V12.8106C102.745 10.209 101.711 7.71473 99.8707 5.87538C98.0308 4.03604 95.5362 3.00191 92.9346 3H40.08C37.4792 3.00318 34.9858 4.03787 33.147 5.87708C31.3081 7.71628 30.2739 10.2098 30.2712 12.8106V29.2956C27.6998 28.2293 25.0633 27.3275 22.3776 26.5956C15.0522 24.3654 10.5498 22.9446 7.16456 24.6444C5.59796 25.431 4.04456 27.0144 3.87116 28.8444C3.59396 31.737 7.26716 34.3716 9.30836 35.832C14.9418 39.864 23.9268 43.5066 30.2538 45.4512V48.3786C25.2876 49.7586 19.911 52.1892 17.0454 56.6586C14.79 60.174 14.919 65.0586 19.3104 66.6786C17.376 67.3386 15.756 69.0132 14.5704 70.5642C13.1586 72.4116 11.9904 74.6592 11.8704 77.0118C11.7126 80.1144 13.4802 83.2104 16.9584 84.6792C15.0072 86.6484 12.3906 88.128 10.9818 90.4992C8.92196 93.9654 11.469 97.6098 14.2578 99.7176C17.2578 101.984 21.9078 105.259 25.9158 103.847C29.6274 102.541 30.111 98.3622 27.7278 95.5674C26.2465 93.9669 24.4404 92.7015 22.4304 91.8558C20.5314 90.984 18.369 90.285 16.314 90.9672C16.1841 91.0078 16.0751 91.0972 16.01 91.2167C15.9449 91.3361 15.9287 91.4762 15.9649 91.6073C16.0011 91.7384 16.0869 91.8504 16.204 91.9195C16.3212 91.9885 16.4607 92.0094 16.593 91.9776C18.7782 91.4304 21.033 92.2962 22.9182 93.3546C24.7278 94.3698 26.721 95.6346 27.693 97.5546C27.9503 98.0496 28.0919 98.5966 28.1072 99.1543C28.1224 99.712 28.0109 100.266 27.7811 100.774C27.5512 101.283 27.209 101.732 26.7802 102.089C26.3514 102.446 25.8472 102.701 25.3056 102.835C23.0256 103.502 20.4594 102.281 18.492 101.215C15.195 99.426 9.25196 95.5494 11.853 91.0206C12.6534 89.6256 14.1192 88.5648 15.2682 87.4656C16.1351 86.6898 16.9555 85.8636 17.7252 84.9912C20.3748 85.92 27.3912 86.9346 30.2718 87.2562V107.192C30.2751 109.792 31.3095 112.285 33.1482 114.124C34.9869 115.962 37.4797 116.997 40.08 117H92.9322C95.5334 116.997 98.0273 115.963 99.8667 114.124C101.706 112.284 102.741 109.791 102.743 107.189V36.3C103.023 32.7966 104.199 29.424 106.159 26.5068C107.276 24.9054 108.946 22.7586 110.846 22.0632C113.807 20.9832 115.342 24.5028 115.342 26.838C115.342 29.5578 114.88 31.2366 113.269 41.5278C111.709 51.4926 110.599 61.8294 113.843 71.3958C113.859 71.4515 113.897 71.4986 113.947 71.5267C113.998 71.5548 114.058 71.5617 114.113 71.5458C114.169 71.5299 114.216 71.4925 114.244 71.4419C114.272 71.3912 114.279 71.3315 114.263 71.2758C111.308 60.0834 112.835 48.7992 114.664 37.5744C116.16 28.4034 116.777 25.5714 115.26 23.0922ZM13.2462 37.1196C10.563 35.586 7.77776 33.8064 5.87516 31.3344C5.33176 30.7528 4.98446 30.0154 4.88216 29.226C4.85216 28.1106 5.65016 27.066 6.44996 26.3682C8.44076 24.6282 11.19 24.7482 13.6296 25.2528C20.091 26.589 29.2716 29.9058 30.2712 29.9058V44.28C24.3517 42.5221 18.6427 40.1209 13.2462 37.1196ZM16.9932 62.9622C16.3704 61.1658 17.0016 59.1222 17.934 57.543C20.5416 53.1204 25.6536 51.165 30.2538 49.443V53.3814C27.8841 52.8696 25.4343 52.8516 23.0574 53.3286C22.7436 53.3994 22.8132 53.922 23.127 53.8866C26.1224 53.5966 29.1458 53.8865 32.0316 54.7404C34.4538 55.4004 36.9618 56.1012 39.0888 57.459C41.0568 58.7148 42.9612 60.7872 43.0446 63.2442C43.1178 65.4042 41.1618 66.3786 39.3156 66.7842C33.8424 67.9794 27.6966 67.4274 22.2906 66.2262C20.22 65.76 17.7834 65.2428 16.9932 62.9622ZM13.2636 78.8022C12.1836 73.992 16.6152 69.1842 20.6352 67.2822C20.6974 67.2573 20.7515 67.2158 20.7918 67.1622C23.6202 67.8879 26.5171 68.3143 29.4348 68.4342C29.6964 68.4498 29.9748 68.469 30.2538 68.469V73.4004C25.3242 70.9356 22.3494 70.6488 18.1428 71.745C17.742 71.8494 17.916 72.4566 18.3174 72.3726C20.562 71.9022 22.7268 71.6526 24.9738 72.3024C27.4045 72.9762 29.7068 74.0479 31.7874 75.474C33.6474 76.7862 35.529 78.4914 36.597 80.5278C37.257 81.7842 37.8636 83.4888 37.503 84.9192C36.972 87.0252 34.2444 86.3658 32.6586 86.2434C29.9586 86.0346 27.2736 85.656 24.6078 85.215C20.34 84.5088 14.4162 83.94 13.2636 78.8028V78.8022ZM101.752 107.189C101.747 109.521 100.818 111.756 99.1687 113.405C97.5195 115.054 95.2842 115.983 92.952 115.988H40.08C37.7468 115.986 35.5098 115.058 33.8599 113.409C32.2101 111.759 31.2821 109.522 31.2798 107.189V87.36C33.6024 87.5922 36.519 88.2876 38.0058 86.6106C39.12 85.3542 38.8806 83.3706 38.442 81.888C37.4424 78.5196 34.305 75.705 31.2798 73.9596V68.52C33.9654 68.6175 36.6536 68.4189 39.2958 67.9278C41.0724 67.5744 43.0632 66.7794 43.8264 64.9998C44.7372 62.8758 43.5438 60.3156 42.1362 58.7094C40.1118 56.4 37.26 55.3032 34.4016 54.441C33.3726 54.1302 32.3274 53.8488 31.2816 53.6046V12.8106C31.2839 10.4777 32.2116 8.24109 33.8611 6.5914C35.5106 4.9417 37.7471 4.0137 40.08 4.011H92.9322C95.2644 4.01623 97.4997 4.94499 99.1489 6.59408C100.798 8.24318 101.727 10.4784 101.732 12.8106C101.735 109.75 101.692 107.189 101.752 107.189V107.189Z" fill="#4D4D4D"/>
</svg>
