<svg width="120" height="120" viewBox="0 0 120 120" fill="none" xmlns="http://www.w3.org/2000/svg">
<path fill-rule="evenodd" clip-rule="evenodd" d="M67.2728 15.576C66.9028 15.2052 66.4274 14.9575 65.9114 14.8668C65.8341 14.6145 65.6925 14.3867 65.5005 14.2056C65.3086 14.0246 65.0728 13.8966 64.8164 13.8342C64.4662 13.7602 64.1114 13.7099 63.7544 13.6836C63.1989 13.6027 62.8861 13.3846 62.4756 13.0982C62.35 13.0107 62.2154 12.9167 62.0618 12.8184C61.3472 12.3606 60.0122 11.7138 59.0882 11.8548C58.8296 11.8909 58.5901 12.0112 58.4069 12.1973C58.2236 12.3833 58.1069 12.6247 58.0748 12.8838C57.217 12.7416 56.2441 12.3306 55.307 11.9348C53.9028 11.3416 52.579 10.7824 51.8438 11.2128C51.6643 11.3238 51.5243 11.4885 51.4436 11.6835C51.363 11.8786 51.3457 12.094 51.3944 12.2994L49.403 11.4492L49.3115 11.4101C48.5654 11.0905 47.647 10.697 46.925 11.2692C46.271 11.7858 46.3364 12.8106 46.403 13.5492C46.4046 13.5688 46.8388 13.631 47.5446 13.7322C49.0003 13.9409 51.6112 14.3153 53.963 14.8224C54.0773 14.8449 54.1803 14.9062 54.2546 14.9958C54.3289 15.0854 54.37 15.198 54.371 15.3144L54.3747 15.3223C54.3846 15.3437 54.3934 15.3626 54.4007 15.3821C54.4566 15.5318 54.4233 15.7148 54.1343 17.3046C54.0495 17.7713 53.9426 18.3593 53.8094 19.1034C56.1137 19.3697 58.4373 19.4275 60.752 19.2762C61.0317 19.2695 61.3071 19.206 61.5614 19.0896C61.547 21.1846 61.9551 23.261 62.7614 25.1946C62.7706 25.2159 62.8591 25.1851 63.1168 25.0952C63.5854 24.9319 64.6136 24.5736 66.7418 23.979C66.179 21.459 65.6158 18.9406 65.0522 16.4238C65.8202 16.1286 66.5552 15.8484 67.2728 15.576ZM80.3247 16.6111C81.8777 19.456 83.6511 22.7046 85.0853 25.6506C85.0993 25.6759 85.1075 25.7041 85.1092 25.733C85.111 25.7619 85.1062 25.7909 85.0952 25.8177C85.0843 25.8445 85.0675 25.8685 85.046 25.888C85.0246 25.9075 84.9991 25.9219 84.9713 25.9302C84.6057 26.0743 82.6398 26.8602 80.3885 27.7603L80.3857 27.7614L80.3825 27.7627L80.3732 27.7664C77.518 28.9079 74.2092 30.2308 73.1249 30.66C73.8803 32.82 74.5619 34.839 74.8331 35.739C74.8477 35.7955 74.8406 35.8555 74.8131 35.907C74.7857 35.9586 74.7399 35.9979 74.6849 36.0174C69.6545 37.9564 64.4767 39.4889 59.2013 40.6002C59.1681 40.6079 59.1336 40.6079 59.1004 40.6002C59.0672 40.5925 59.0362 40.5774 59.0098 40.5559C58.9833 40.5344 58.9622 40.5072 58.9478 40.4763C58.9335 40.4454 58.9264 40.4117 58.9271 40.3776C58.9006 39.8926 58.7323 37.1007 58.5689 34.3896L58.5683 34.3803C58.4067 31.6985 58.2499 29.0985 58.2401 28.8918C58.2294 28.665 58.2291 28.4379 58.2289 28.2109C58.2287 27.9941 58.2285 27.7773 58.2191 27.561C58.2161 27.4896 58.2209 27.393 58.2383 27.3846C61.2005 26.1072 64.2548 25.0549 67.3751 24.2364C67.1165 23.1702 66.1313 18.9534 65.7113 17.1162C65.6995 17.0686 65.7064 17.0183 65.7307 16.9756C65.7549 16.933 65.7946 16.9012 65.8415 16.887C66.7157 16.557 76.2011 12.9486 77.8283 12.2886C77.8687 12.2776 77.9115 12.2802 77.9503 12.2961C77.989 12.3119 78.0214 12.3401 78.0425 12.3762C78.6721 13.5837 79.4643 15.035 80.3242 16.61L80.3245 16.6107L80.3247 16.6111ZM59.0487 35.784L59.0496 35.7972C59.175 37.6479 59.287 39.2996 59.3399 40.0974C64.4536 39.0035 69.4764 37.521 74.3645 35.6628C73.3865 32.4438 70.7903 25.347 70.2107 23.9718C66.245 24.9281 62.3384 26.1145 58.5107 27.525L58.4957 27.5286C58.4983 27.5392 58.4998 27.5501 58.4999 27.561C58.5125 27.8749 58.8057 32.1993 59.0487 35.7838L59.0487 35.784ZM70.5065 23.607C70.9577 24.6126 72.0107 27.492 72.9785 30.2472H72.9797L75.2151 29.3663C78.3559 28.1286 83.6071 26.0595 84.6575 25.6434C83.3706 23.014 81.8137 20.1567 80.3392 17.4507C79.4302 15.7826 78.5525 14.1719 77.7887 12.7074C76.8863 13.0734 67.5785 16.6266 66.1073 17.181C66.6623 19.623 67.1489 21.7848 67.6289 24.1656C68.4881 23.9364 69.3731 23.7138 70.2731 23.5056C70.3177 23.4939 70.365 23.4975 70.4073 23.5159C70.4497 23.5343 70.4846 23.5664 70.5065 23.607ZM57.8436 21.8376C57.3318 21.7911 56.8493 21.5785 56.4696 21.2322C56.3359 21.0904 56.2239 20.9297 56.1372 20.7552C56.1191 20.7226 56.1134 20.6846 56.1209 20.648C56.1285 20.6115 56.1489 20.5789 56.1784 20.5561C56.2079 20.5333 56.2446 20.5219 56.2819 20.5239C56.3191 20.5258 56.3544 20.541 56.3814 20.5668C56.5082 20.67 56.6437 20.762 56.7864 20.8416C57.2206 21.0994 57.7028 21.266 58.2036 21.3312C58.4244 21.4452 58.404 21.9024 57.8436 21.8376ZM54.6346 29.8962C54.1721 30.106 53.6717 30.2195 53.164 30.2298C53.0198 30.2223 52.8791 30.1831 52.7518 30.1149C52.6246 30.0467 52.514 29.9512 52.4279 29.8353C52.3419 29.7194 52.2825 29.5859 52.2541 29.4444C52.2256 29.3028 52.2288 29.1568 52.2634 29.0166C52.7037 27.0675 53.2836 25.1525 53.9986 23.2866C54.0838 23.1234 54.3058 23.2476 54.2782 23.4066C54.2762 23.4176 54.193 23.7097 54.0896 24.0728L54.0885 24.0767L54.0882 24.0779C53.9428 24.5887 53.758 25.2375 53.7028 25.4424C53.62 25.7466 52.858 28.7352 52.8172 29.022C52.747 29.514 52.9282 29.712 53.4298 29.6688C53.7195 29.6441 54.0315 29.5224 54.3216 29.4092C54.5745 29.3105 54.8108 29.2183 55.0012 29.2026C55.0482 29.2031 55.094 29.2175 55.133 29.2439C55.1719 29.2702 55.2023 29.3075 55.2202 29.3509C55.2382 29.3944 55.243 29.4422 55.234 29.4883C55.225 29.5345 55.2027 29.577 55.1698 29.6106C55.0128 29.7414 54.8307 29.8386 54.6346 29.8962ZM38.371 80.34C38.4029 79.8297 38.4442 79.5324 38.4884 79.2148C38.5358 78.8745 38.5864 78.5109 38.632 77.8368C38.637 77.8123 38.6384 77.7873 38.6362 77.7624C38.6267 77.7369 38.6144 77.7126 38.5996 77.6898C38.5744 77.6298 38.332 77.6298 38.2834 77.7036C38.2766 77.7134 38.2687 77.7235 38.2606 77.7337C38.2481 77.7496 38.2354 77.7656 38.227 77.781C38.0399 78.6386 37.9069 79.5071 37.8286 80.3814L38.371 80.34ZM37.9844 100.627C37.9806 100.546 37.9701 100.361 37.9572 100.134L37.9571 100.133C37.9295 99.6471 37.891 98.9694 37.8836 98.7066C37.7358 98.7066 37.588 98.703 37.4402 98.6995L37.3076 98.6964C37.3076 98.8242 37.3676 101.176 37.3904 101.239C37.41 101.294 37.4348 101.346 37.4597 101.398L37.472 101.423C37.5146 101.513 37.8698 101.514 37.9112 101.423C37.9207 101.403 37.9293 101.385 37.937 101.369C37.9558 101.329 37.9698 101.3 37.98 101.269C38.011 101.175 38.0059 101.069 37.9851 100.641V100.641V100.641V100.641L37.9844 100.627ZM53.7792 32.0328C53.416 32.2149 53.1088 32.4919 52.8901 32.8343C52.6713 33.1767 52.5492 33.5719 52.5366 33.978C52.5373 34.0119 52.5501 34.0444 52.5727 34.0697C52.5952 34.095 52.6261 34.1114 52.6597 34.1159C52.6932 34.1205 52.7273 34.1129 52.7558 34.0946C52.7843 34.0762 52.8053 34.0483 52.815 34.0158C52.8864 33.5592 53.6616 32.2368 54.795 32.4138C55.1988 32.4909 55.5564 32.7228 55.7916 33.06C56.3364 33.8118 56.5782 33.1674 56.2668 32.7174C56.003 32.3241 55.6068 32.0387 55.1502 31.913C54.6936 31.7873 54.2071 31.8299 53.7792 32.0328ZM56.8198 25.0944C56.9053 24.9851 56.9601 24.855 56.9786 24.7174C56.997 24.5799 56.9785 24.4399 56.9248 24.312C56.8711 24.184 56.7843 24.0726 56.6732 23.9894C56.5621 23.9062 56.4309 23.8542 56.293 23.8386C56.1458 23.853 56.0054 23.9072 55.8867 23.9953C55.7679 24.0834 55.6754 24.2021 55.6189 24.3387C55.5625 24.4754 55.5442 24.6248 55.5661 24.771C55.5881 24.9172 55.6493 25.0547 55.7434 25.1688C55.8101 25.2508 55.8956 25.3156 55.9926 25.3577C56.0896 25.3999 56.1954 25.418 56.3009 25.4107C56.4064 25.4034 56.5086 25.3709 56.5989 25.3158C56.6892 25.2608 56.7649 25.1848 56.8198 25.0944ZM80.3331 63.4245C80.3706 63.4486 80.3981 63.4853 80.4108 63.528C81.5226 69.3858 82.5234 83.9106 82.4508 86.6064C82.4411 86.6784 82.4056 86.7444 82.3509 86.7921C82.2963 86.8399 82.2261 86.8662 82.1535 86.8662C82.0809 86.8662 82.0108 86.8399 81.9561 86.7921C81.9014 86.7444 81.8659 86.6784 81.8562 86.6064C81.8124 86.1798 81.7782 85.7568 81.7602 85.3284C81.4408 77.7638 80.9212 72.6529 80.5137 68.6455V68.6455V68.6454V68.6453L80.5137 68.6451C80.3218 66.7583 80.1549 65.1162 80.0454 63.5778C80.0462 63.5333 80.063 63.4905 80.0926 63.4573C80.1222 63.424 80.1627 63.4024 80.2068 63.3964C80.2509 63.3904 80.2957 63.4003 80.3331 63.4245ZM105.971 57.4374C106.767 57.6536 107.512 58.0251 108.164 58.5305C108.816 59.0359 109.362 59.6652 109.769 60.3822C110.059 60.8263 110.199 61.0782 110.286 61.2341C110.405 61.4482 110.423 61.4812 110.589 61.5822C110.623 61.6015 110.662 61.6116 110.701 61.6115C110.741 61.6113 110.779 61.601 110.814 61.5814C110.848 61.5618 110.876 61.5336 110.896 61.4997C110.916 61.4657 110.927 61.4272 110.928 61.3878C110.933 61.3256 110.929 61.263 110.917 61.2018C110.536 60.4722 110.084 59.7827 109.565 59.1438C108.886 58.2651 107.949 57.621 106.885 57.3018C106.837 57.2893 106.828 57.2877 106.79 57.2808C106.727 57.2694 106.584 57.2435 106.056 57.1308C106.017 57.1248 105.977 57.1332 105.944 57.1545C105.911 57.1757 105.887 57.2084 105.877 57.2462C105.866 57.284 105.87 57.3244 105.887 57.3596C105.905 57.3949 105.934 57.4226 105.971 57.4374ZM113.28 54.4566C111.31 54.7682 109.409 55.4191 107.661 56.3802C107.629 56.3955 107.592 56.3981 107.558 56.3874C107.524 56.3767 107.495 56.3535 107.477 56.3224C107.459 56.2914 107.454 56.2547 107.462 56.2198C107.47 56.1849 107.491 56.1544 107.52 56.1342C109.495 54.8096 111.774 54.0072 114.143 53.802C114.271 53.7663 114.405 53.7597 114.536 53.7827C114.667 53.8058 114.791 53.8579 114.9 53.9352C114.925 53.9611 114.939 53.9958 114.939 54.0318C114.939 54.0678 114.925 54.1025 114.9 54.1284C114.747 54.306 114.581 54.32 114.178 54.3543C113.96 54.3728 113.672 54.3972 113.28 54.4566ZM109.871 57.669C109.733 57.7434 109.829 57.99 109.98 57.9276C111.865 57.1554 113.841 56.6257 115.86 56.3514C116.13 56.3494 116.396 56.2805 116.633 56.151C116.73 56.0868 116.761 55.911 116.633 55.851C116.353 55.7274 116.276 55.7148 115.212 55.8834C113.337 56.1443 111.526 56.7497 109.871 57.669ZM115.88 58.8235C116.492 58.7568 116.791 58.7242 116.931 58.8948C116.967 58.9319 116.989 58.9795 116.996 59.0307C117.003 59.0818 116.993 59.1336 116.967 59.1786C116.842 59.3633 116.607 59.3726 116.396 59.381L116.395 59.3811L116.363 59.3824L116.336 59.3836C116.32 59.3843 116.305 59.3852 116.289 59.3862C114.639 59.5176 113.013 59.8669 111.455 60.4248C111.411 60.4355 111.366 60.4304 111.326 60.4105C111.286 60.3906 111.255 60.3572 111.238 60.3163C111.221 60.2753 111.218 60.2295 111.232 60.1872C111.245 60.1448 111.273 60.1087 111.311 60.0852C112.712 59.402 114.225 58.9784 115.776 58.8348L115.88 58.8235ZM12.2578 57.7902C10.7758 58.422 9.75221 59.838 8.95781 61.2312C8.86383 61.3503 8.81666 61.4997 8.82521 61.6512C8.82592 61.6906 8.83682 61.7291 8.85685 61.763C8.87688 61.7969 8.90535 61.8251 8.93948 61.8447C8.97362 61.8643 9.01226 61.8748 9.05165 61.8751C9.09103 61.8753 9.12981 61.8654 9.16421 61.8462C9.32379 61.7518 9.36246 61.6844 9.50837 61.4301L9.5084 61.4301C9.5907 61.2867 9.70712 61.0837 9.8986 60.783C10.3107 60.0389 10.8661 59.3837 11.5326 58.8553C12.1992 58.3269 12.9639 57.9358 13.7824 57.7044C13.8214 57.6912 13.854 57.6637 13.8733 57.6273C13.8927 57.5909 13.8974 57.5485 13.8865 57.5088C13.8756 57.469 13.8499 57.435 13.8148 57.4136C13.7796 57.3922 13.7375 57.385 13.6972 57.3936C13.2017 57.46 12.7174 57.5935 12.2578 57.7902ZM12.8608 56.9623C12.8232 56.9623 12.7872 56.9474 12.7606 56.9208C9.52642 53.8316 8.09132 53.3397 7.41293 53.1071C7.10589 53.0019 6.95386 52.9497 6.8602 52.734C6.84317 52.7026 6.83879 52.6658 6.84793 52.6312C6.85707 52.5967 6.87906 52.5669 6.9094 52.548C7.15018 52.3953 7.4343 52.5143 7.67833 52.6166L7.67889 52.6168L7.68073 52.6176C7.70526 52.6279 7.72937 52.638 7.753 52.6476C10.0252 53.5692 11.4298 55.014 12.961 56.7204C12.9876 56.747 13.0025 56.783 13.0025 56.8206C13.0025 56.8582 12.9876 56.8942 12.961 56.9208C12.9344 56.9474 12.8984 56.9623 12.8608 56.9623ZM4.39823 54.9858C6.44463 55.7678 8.37073 56.8341 10.1198 58.1532C10.2488 58.2498 10.4078 58.0386 10.2908 57.9306C8.95902 56.6726 7.41526 55.66 5.73083 54.9396C4.68023 54.4728 4.55003 54.42 4.20023 54.48C4.06343 54.5022 4.04663 54.6804 4.12463 54.7674C4.2027 54.8553 4.29523 54.9291 4.39823 54.9858ZM8.37611 60.468C6.892 59.486 5.29461 58.687 3.61871 58.0884C3.58932 58.0785 3.55743 58.0688 3.52422 58.0588C3.34999 58.0059 3.13969 57.9421 3.06611 57.7788C3.03662 57.7249 3.0289 57.6618 3.04452 57.6025C3.06015 57.5431 3.09793 57.492 3.15011 57.4596C3.34031 57.3384 3.57191 57.4098 4.46531 57.7632C5.59187 58.2114 6.66852 58.776 7.67771 59.448C7.99751 59.673 8.30171 59.9232 8.60171 60.1758C8.76311 60.3132 8.54951 60.5838 8.37611 60.468ZM41.0443 64.83C41.3665 64.8391 41.9721 64.7385 42.8697 64.5895H42.8697C44.227 64.3641 46.252 64.0278 48.9751 63.792C49.1487 63.7938 49.3205 63.7567 49.4779 63.6834C49.5095 63.6637 49.5347 63.6354 49.5506 63.6018C49.5665 63.5682 49.5725 63.5307 49.5676 63.4938C49.5628 63.4569 49.5475 63.4222 49.5235 63.3938C49.4995 63.3654 49.4679 63.3445 49.4323 63.3336C49.0891 63.2052 42.1267 64.044 40.9723 64.5516C40.8241 64.6134 40.9081 64.8258 41.0443 64.83ZM41.3108 67.4952C42.4652 66.9882 47.948 66.3816 49.3358 66.2568C49.4816 66.2291 49.6319 66.2365 49.7744 66.2784C49.8099 66.2893 49.8416 66.3102 49.8656 66.3386C49.8896 66.367 49.9049 66.4018 49.9097 66.4386C49.9145 66.4755 49.9086 66.513 49.8927 66.5466C49.8768 66.5802 49.8515 66.6085 49.82 66.6282C49.6785 66.7094 49.4052 66.7341 48.8041 66.7885L48.804 66.7885C47.8853 66.8717 46.2009 67.0242 43.0514 67.5534C42.5048 67.6807 41.9472 67.7548 41.3864 67.7748C41.2508 67.7706 41.1662 67.5588 41.3108 67.4952ZM41.4856 70.4226C41.4514 70.433 41.4221 70.4552 41.4028 70.4853C41.3835 70.5154 41.3755 70.5513 41.3802 70.5867C41.385 70.6221 41.4022 70.6547 41.4288 70.6786C41.4553 70.7025 41.4895 70.7162 41.5252 70.7172C41.8671 70.7264 41.9919 70.7061 42.6315 70.6019C43.0784 70.529 43.7768 70.4153 44.9764 70.242C47.2018 69.9206 48.5157 69.806 49.2984 69.7378C49.9212 69.6835 50.2077 69.6586 50.3494 69.582C50.381 69.5623 50.4062 69.534 50.4221 69.5004C50.4381 69.4668 50.444 69.4293 50.4392 69.3924C50.4344 69.3556 50.419 69.3208 50.395 69.2924C50.371 69.264 50.3394 69.2431 50.3038 69.2322C49.8994 69.0846 42.5848 69.9708 41.4856 70.4226ZM56.5966 45.6789C56.6266 46.187 56.6763 47.0303 56.7814 48.4488C57.0964 52.7106 57.3953 55.4022 57.5815 57.0784C57.8116 59.1503 57.8693 59.6705 57.5722 59.6868C56.1622 59.7642 54.3766 59.7558 52.3966 59.7042C53.6993 64.9088 54.5332 68.1593 55.0726 70.2617L55.073 70.2635L55.0732 70.264L55.0732 70.2641C55.8979 73.4785 56.0336 74.0076 56.104 74.736C56.152 74.7503 56.1941 74.7799 56.2239 74.8202C56.2537 74.8605 56.2695 74.9094 56.269 74.9596C56.2686 75.0097 56.2518 75.0583 56.2213 75.0981C56.1907 75.1379 56.1481 75.1666 56.0998 75.18C49.7255 76.1855 43.3008 76.8397 36.8548 77.1396C36.7939 77.1384 36.736 77.1136 36.693 77.0705C36.65 77.0275 36.6254 76.9694 36.6244 76.9086C36.316 73.9836 35.74 66.4818 36.0004 64.4586C36.0006 64.4245 36.0131 64.3917 36.0356 64.366C36.0581 64.3404 36.0891 64.3238 36.1229 64.3192C36.1566 64.3146 36.1909 64.3224 36.2195 64.341C36.248 64.3597 36.2688 64.388 36.2782 64.4208C36.351 64.9013 36.3836 65.7733 36.4305 67.0251V67.0252C36.5103 69.1573 36.6314 72.3911 37.0624 76.6686C43.3492 76.3735 49.6152 75.7341 55.8322 74.7534C55.6324 74.2794 52.345 61.392 51.9124 59.6934C50.3306 59.6481 48.6423 59.5791 46.9401 59.5095L46.9396 59.5095L46.9392 59.5095L46.9389 59.5095L46.9386 59.5095L46.9384 59.5095C44.9703 59.4291 42.9836 59.3479 41.1214 59.3016C41.0681 59.3008 41.0173 59.2793 40.9797 59.2417C40.942 59.2041 40.9205 59.1532 40.9198 59.1L40.9306 59.0238C40.605 59.0693 40.1341 59.1394 39.6442 59.2124C38.6923 59.3541 37.6683 59.5066 37.498 59.5098C37.4636 59.5131 37.3631 59.5159 37.3719 59.5114C37.326 59.5224 37.2774 59.5157 37.2361 59.4923C37.193 59.4679 37.1614 59.4273 37.1482 59.3796C37.1349 59.3319 37.1412 59.2808 37.1657 59.2377C37.1778 59.2164 37.1939 59.1976 37.2133 59.1826C37.2326 59.1675 37.2547 59.1563 37.2784 59.1498C37.2914 59.1476 37.3287 59.1347 37.3661 59.1218L37.3662 59.1218L37.3663 59.1217L37.3664 59.1217L37.399 59.1105C37.4099 59.1068 37.4201 59.1034 37.429 59.1006C37.6982 59.0171 37.9759 58.9636 38.257 58.941C38.4634 58.908 40.3276 58.6446 40.9738 58.5546C41.4247 53.9152 42.1864 49.3112 43.2538 44.7738C43.2258 44.7457 43.2068 44.7099 43.1992 44.671C43.1915 44.6321 43.1956 44.5918 43.2108 44.5551C43.226 44.5185 43.2517 44.4872 43.2846 44.4652C43.3176 44.4431 43.3563 44.4313 43.396 44.4312C47.5774 44.267 51.7649 44.3536 55.936 44.6904C55.9718 44.6933 56.0063 44.6956 56.0392 44.6978L56.0393 44.6979C56.3516 44.7188 56.5305 44.7309 56.5642 45.165C56.573 45.28 56.5826 45.4427 56.5964 45.6765L56.5965 45.678L56.5966 45.6787L56.5966 45.6789ZM43.6552 44.8296C42.5612 49.4629 41.7876 54.166 41.3398 58.9056C44.0604 58.9953 46.3096 59.0786 48.2 59.1486H48.2001H48.2001H48.2002C52.9994 59.3262 55.4858 59.4183 57.5008 59.3124C56.98 56.1594 56.3878 48.9252 56.1514 45.1158C51.9955 44.7699 47.8225 44.6743 43.6552 44.8296ZM53.7539 52.1136C53.6963 52.0726 53.6681 51.9503 53.6391 51.8246C53.6231 51.7552 53.6069 51.6847 53.5853 51.6264C53.5691 51.5667 53.5411 51.5109 53.5029 51.4622C53.4648 51.4135 53.4173 51.3729 53.3632 51.3429C53.3091 51.3129 53.2496 51.294 53.1881 51.2873C53.1266 51.2807 53.0644 51.2864 53.0051 51.3042C52.7453 51.3926 52.6325 51.6239 52.5349 51.8239C52.4555 51.9865 52.3863 52.1285 52.2563 52.1562C52.207 52.1633 52.1568 52.1604 52.1086 52.1476C52.0604 52.1348 52.0154 52.1124 51.9761 52.0818C51.7262 51.9094 51.7139 51.55 51.7044 51.2701L51.7031 51.2334C51.7022 51.1973 51.6896 51.1624 51.6672 51.1339C51.6448 51.1055 51.6139 51.0851 51.579 51.0756C51.5441 51.0662 51.5071 51.0683 51.4734 51.0816C51.4398 51.0949 51.4113 51.1186 51.3923 51.1494C50.9123 51.8256 50.4569 52.5222 50.0123 53.2326C49.7429 52.1927 49.4115 51.1699 49.0199 50.1696C49.302 49.6692 49.4496 49.1042 49.4483 48.5298C49.2917 47.7984 48.3887 47.9376 48.4127 48.7968C48.437 49.2614 48.5232 49.7206 48.6689 50.1624C48.3094 51.0678 47.8675 51.9382 47.3489 52.7628C47.1089 52.9962 47.0141 52.8984 46.9349 52.6782C46.8949 52.5649 46.8549 52.4028 46.8093 52.2184C46.65 51.5733 46.4232 50.6547 45.8927 50.595C45.5927 50.562 45.3917 50.8398 45.2405 51.0576C44.8122 51.6695 44.5107 52.3608 44.3537 53.091C44.3465 53.1232 44.3519 53.1569 44.3689 53.1851C44.3858 53.2134 44.413 53.2341 44.4447 53.2429C44.4765 53.2517 44.5104 53.2479 44.5395 53.2324C44.5686 53.2168 44.5906 53.1907 44.6009 53.1594C44.8068 52.4144 45.1452 51.7126 45.5999 51.0876C45.8297 50.7978 45.9395 50.8704 46.1339 51.198C46.3071 51.4901 46.3882 51.8594 46.4635 52.2022C46.5545 52.617 46.6371 52.9931 46.8641 53.1468C46.9798 53.2084 47.1133 53.2278 47.2418 53.2019C47.3702 53.176 47.4857 53.1062 47.5685 53.0046C48.0668 52.2585 48.4874 51.4634 48.8237 50.6316C49.2411 51.6071 49.5505 52.6254 49.7465 53.6682C49.5766 53.9217 49.4675 54.211 49.4279 54.5136C49.3679 55.104 49.9079 55.3944 49.9853 55.0944C50.0983 54.6545 50.1324 54.198 50.0861 53.7462C50.5109 53.0394 50.9441 52.3662 51.4061 51.7026C51.4119 51.8151 51.4404 51.9252 51.4901 52.0264C51.5397 52.1275 51.6093 52.2175 51.6948 52.2909C51.7802 52.3642 51.8797 52.4195 51.9872 52.4533C52.0946 52.4871 52.2078 52.4987 52.3199 52.4874C52.6114 52.4316 52.7361 52.1761 52.8536 51.9353L52.8797 51.882C52.9883 51.6612 53.1689 51.5124 53.2517 51.7266C53.2788 51.7986 53.297 51.8717 53.3148 51.9434L53.3148 51.9434L53.3148 51.9435L53.3149 51.9435L53.3149 51.9435L53.3149 51.9436L53.3149 51.9436L53.3149 51.9436L53.3149 51.9437L53.3149 51.9437L53.3149 51.9437L53.315 51.9438L53.315 51.9438L53.315 51.9439L53.315 51.9439C53.3596 52.1229 53.402 52.2931 53.5745 52.416C53.6146 52.4398 53.6625 52.4467 53.7077 52.4351C53.7529 52.4236 53.7916 52.3946 53.8154 52.3545C53.8392 52.3144 53.8461 52.2665 53.8345 52.2213C53.823 52.1761 53.794 52.1374 53.7539 52.1136ZM48.9053 48.3984C49.0049 48.3552 49.0673 48.4362 49.1027 48.5226C49.214 48.7961 49.081 49.1313 48.9413 49.4837C48.9198 49.538 48.8981 49.5927 48.8771 49.6476C48.7901 49.3332 48.6065 48.5268 48.9053 48.3984ZM76.548 18.1512C76.6728 18.1065 76.7823 18.0272 76.8636 17.9226C76.8778 17.8972 76.8852 17.8686 76.8851 17.8395C76.8849 17.8104 76.8772 17.7818 76.8627 17.7566C76.8482 17.7314 76.8274 17.7103 76.8023 17.6956C76.7772 17.6808 76.7487 17.6728 76.7196 17.6724C76.6156 17.668 76.5675 17.6927 76.313 17.8231L76.3129 17.8232L76.3128 17.8232L76.3126 17.8233L76.3125 17.8234L76.3119 17.8237C76.1496 17.9069 75.9034 18.0331 75.5058 18.222C73.8736 18.9644 72.1998 19.6117 70.4928 20.1606C70.4573 20.1721 70.4276 20.1968 70.4099 20.2297C70.3922 20.2625 70.3879 20.301 70.3979 20.337C70.4079 20.3729 70.4314 20.4036 70.4635 20.4226C70.4956 20.4417 70.5339 20.4475 70.5702 20.439C72.641 19.8989 74.6458 19.1317 76.548 18.1512ZM77.9831 20.5812C77.9375 20.7234 77.7725 20.7864 77.6447 20.8338C76.7939 21.1584 72.4853 22.7616 71.5349 22.9752C71.3741 23.0106 71.2643 22.782 71.4197 22.701C72.0882 22.3483 72.9374 22.0339 77.1561 20.4716L77.4905 20.3478C77.8847 20.2032 78.0431 20.3904 77.9831 20.5812ZM77.9355 23.706C78.5607 23.4466 78.6186 23.4225 78.6675 23.3862C78.6724 23.3825 78.6773 23.3787 78.6827 23.3745C78.6994 23.3614 78.7209 23.3445 78.7649 23.316C78.8038 23.2911 78.8326 23.2533 78.8463 23.2092C78.86 23.1652 78.8576 23.1177 78.8397 23.0752C78.8217 23.0327 78.7893 22.9979 78.7482 22.9769C78.7071 22.956 78.6598 22.9503 78.6149 22.9608C78.5065 22.9821 78.4003 23.0132 78.2975 23.0538C77.1196 23.5572 76.1263 23.9698 75.3018 24.3123C73.9928 24.856 73.1094 25.223 72.5885 25.4958C72.5595 25.5142 72.5379 25.5422 72.5277 25.575C72.5174 25.6078 72.519 25.6431 72.5323 25.6748C72.5457 25.7064 72.5698 25.7323 72.6004 25.7479C72.631 25.7635 72.6661 25.7677 72.6995 25.7598C74.3064 25.2253 75.8852 24.6099 77.4299 23.916L77.9355 23.706ZM78.6097 57.8148C78.6154 57.9048 78.6222 58.0104 78.631 58.1358C78.6484 58.3866 78.8284 61.209 78.6286 61.353C78.6082 61.635 72.5002 67.1502 71.9086 67.155L71.6651 67.157L71.6472 67.1572C70.2152 67.169 64.4566 67.2168 62.1034 67.2384C62.0556 67.2378 62.0098 67.2187 61.9757 67.1852C61.9416 67.1516 61.9218 67.1062 61.9204 67.0584C62.3152 59.1336 63.502 51.8052 63.7804 50.8782C63.7873 50.8552 63.8 50.8344 63.8174 50.8179C63.8347 50.8014 63.8561 50.7897 63.8794 50.784C63.9714 50.6849 64.326 50.68 64.5455 50.6769C64.5864 50.6763 64.6227 50.6758 64.6516 50.6748C66.6316 50.5938 74.5588 50.3976 76.6516 50.5638C76.6847 50.566 76.7157 50.5808 76.7383 50.605C76.761 50.6292 76.7736 50.6611 76.7736 50.6943C76.7736 50.7275 76.761 50.7594 76.7383 50.7836C76.7157 50.8078 76.6847 50.8226 76.6516 50.8248C76.0388 50.8597 75.2223 50.8616 74.0721 50.8643H74.0719C72.8079 50.8673 71.1407 50.8712 68.8978 50.9208C68.2785 50.9342 67.2711 50.9672 66.334 50.998L66.3337 50.998C65.1773 51.0359 64.128 51.0703 64.0474 51.06C63.1666 56.2935 62.5816 61.5725 62.2954 66.8718C71.6272 66.8202 71.8012 66.8244 72.019 66.8304C72.0847 66.7522 72.3554 66.5304 72.7775 66.1847L72.7776 66.1846C73.4883 65.6025 74.6283 64.6687 75.9424 63.4758C76.3649 63.0926 76.824 62.6609 77.2323 62.277L77.2323 62.277L77.2325 62.2768L77.233 62.2764L77.2331 62.2763C77.8548 61.6917 78.3584 61.2183 78.4348 61.1958C78.3908 60.9573 78.3907 60.7999 78.3906 60.5008C78.3905 60.0662 78.3902 59.3325 78.2548 57.6162C78.2337 57.4634 78.2423 57.308 78.28 57.1584C78.2865 57.1371 78.2991 57.118 78.3161 57.1036C78.3332 57.0892 78.354 57.08 78.3761 57.0771C78.3983 57.0742 78.4208 57.0777 78.441 57.0872C78.4612 57.0967 78.4782 57.1119 78.49 57.1308C78.5775 57.3126 78.5827 57.3948 78.6097 57.8148ZM72.2938 61.011C72.2671 61.011 72.2379 61.0096 72.2074 61.0082C72.0735 61.002 71.9147 60.9945 71.8312 61.0962C71.8272 61.101 71.8234 61.1051 71.82 61.1089L71.8154 61.1139L71.8094 61.121C71.7706 61.1697 71.7709 61.2497 71.7756 62.2887V62.2892C71.7773 62.671 71.7796 63.1822 71.7808 63.8688C71.7808 64.0197 71.7803 64.1707 71.7799 64.3216C71.7778 65.0107 71.7758 65.6997 71.8162 66.3888C71.8162 66.4163 71.8271 66.4427 71.8466 66.4622C71.866 66.4817 71.8924 66.4926 71.92 66.4926C71.9475 66.4926 71.9739 66.4817 71.9934 66.4622C72.0128 66.4427 72.0238 66.4163 72.0238 66.3888C72.0742 65.5962 72.0838 61.455 72.0838 61.3938C72.0838 61.3189 72.3525 61.3201 74.8795 61.3309H74.8796H74.8796H74.8797H74.8798H74.8798H74.8799H74.88H74.8801H74.8802H74.8802L74.8824 61.3309L74.8873 61.3309L74.898 61.331C75.5268 61.3337 76.2944 61.3369 77.2312 61.3398C77.4537 61.3544 77.6772 61.3451 77.8978 61.3122C77.9263 61.3035 77.9514 61.2859 77.9692 61.2619C77.9869 61.2379 77.9965 61.2089 77.9965 61.179C77.9965 61.1491 77.9869 61.1201 77.9692 61.0961C77.9514 61.0721 77.9263 61.0545 77.8978 61.0458C77.6915 60.9985 72.8788 61.0096 72.3418 61.0109H72.3409L72.2938 61.011ZM66.4502 54.9375C66.4198 55.0217 66.3705 55.0978 66.306 55.1598C66.2404 55.2217 66.1615 55.2677 66.0753 55.2942C65.9891 55.3207 65.898 55.3271 65.8089 55.3127C65.7199 55.2984 65.6354 55.2638 65.5619 55.2116C65.4883 55.1594 65.4278 55.0909 65.385 55.0116C65.1618 54.5616 65.7072 53.9352 66.201 54.2406C66.2778 54.2865 66.343 54.3495 66.3916 54.4247C66.4401 54.4999 66.4707 54.5853 66.4808 54.6742C66.491 54.7632 66.4805 54.8532 66.4502 54.9375ZM65.6528 63.168C65.5865 63.1164 65.5091 63.0809 65.4266 63.0645C65.3442 63.0481 65.2591 63.0511 65.1781 63.0733C65.097 63.0956 65.0223 63.1365 64.9598 63.1927C64.8973 63.2489 64.8489 63.3189 64.8182 63.3972C64.4864 63.8394 65.0744 64.4292 65.6036 64.122C65.6852 64.074 65.7536 64.0065 65.8026 63.9255C65.8517 63.8446 65.88 63.7528 65.8848 63.6582C65.8897 63.5637 65.8711 63.4694 65.8306 63.3839C65.7901 63.2983 65.729 63.2242 65.6528 63.168ZM66.0738 58.8591C66.0907 58.9419 66.0892 59.0274 66.0694 59.1096C66.05 59.1853 66.0158 59.2565 65.9686 59.3188C65.9215 59.3812 65.8624 59.4336 65.7949 59.4729C65.7273 59.5122 65.6526 59.5377 65.5751 59.5478C65.4975 59.558 65.4188 59.5526 65.3434 59.532C64.6132 59.3586 64.9822 58.3434 65.5408 58.3986C65.6252 58.4033 65.7075 58.4265 65.782 58.4665C65.8564 58.5065 65.9212 58.5625 65.9716 58.6303C66.022 58.6981 66.0569 58.7762 66.0738 58.8591ZM89.7147 42.5417L89.7148 42.5418L89.7151 42.5424C91.0927 44.9818 92.5455 47.5545 93.6311 49.6314C93.6553 49.6738 93.6619 49.7239 93.6496 49.7712C93.6373 49.8184 93.6069 49.8589 93.5651 49.884C89.051 52.5989 84.3854 55.0535 79.5911 57.2358C79.5669 57.2491 79.54 57.2569 79.5124 57.2585C79.4849 57.2602 79.4573 57.2556 79.4317 57.2452C79.4061 57.2348 79.3831 57.2188 79.3645 57.1984C79.3459 57.178 79.3321 57.1536 79.3241 57.1272C79.3019 57.063 75.3803 45.3828 74.6675 42.7008C74.6221 42.5305 74.8358 42.4079 75.4747 42.0416L75.4782 42.0396C75.5473 42 75.6214 41.9575 75.7007 41.9118C78.4583 40.3176 83.2373 38.139 86.2073 36.8118C86.2203 36.781 86.2416 36.7543 86.2689 36.7349C86.2962 36.7156 86.3284 36.7042 86.3618 36.702C86.3952 36.6999 86.4285 36.7072 86.458 36.7229C86.4876 36.7387 86.5121 36.7624 86.5289 36.7914C87.3236 38.3074 88.4892 40.3716 89.7145 42.5412L89.7147 42.5417ZM78.9983 46.1707C79.0285 46.1834 79.062 46.1859 79.0937 46.1778C79.6198 45.9928 80.1266 45.7569 80.6069 45.4734C83.4638 44.0209 85.0364 43.3615 85.8891 43.0039C86.4412 42.7724 86.6916 42.6674 86.7935 42.5556C86.819 42.5284 86.8362 42.4944 86.8429 42.4576C86.8496 42.4209 86.8455 42.383 86.8312 42.3486C86.8169 42.3141 86.7929 42.2845 86.7621 42.2633C86.7314 42.2421 86.6952 42.2303 86.6579 42.2292C86.2145 42.2046 79.7915 45.186 78.9479 45.9276C78.9252 45.9512 78.9109 45.9816 78.907 46.014C78.9032 46.0465 78.91 46.0794 78.9265 46.1077C78.9429 46.1359 78.9682 46.1581 78.9983 46.1707ZM87.4547 45.0396C86.2871 45.5268 81.1001 47.8056 80.1575 48.633H80.1599C80.1378 48.6566 80.1239 48.6866 80.1202 48.7187C80.1165 48.7508 80.1233 48.7832 80.1394 48.8112C80.1555 48.8391 80.1802 48.8612 80.2098 48.874C80.2395 48.8869 80.2724 48.8899 80.3039 48.8826C80.6586 48.7822 81.1636 48.5239 81.9434 48.125C83.0878 47.5396 84.8243 46.6514 87.5471 45.5148C87.7162 45.4654 87.872 45.3787 88.0031 45.261C88.0286 45.2337 88.0457 45.1997 88.0523 45.1629C88.059 45.1262 88.0549 45.0883 88.0406 45.0538C88.0263 45.0193 88.0024 44.9897 87.9717 44.9685C87.941 44.9472 87.9048 44.9352 87.8675 44.934C87.7235 44.9361 87.582 44.9723 87.4547 45.0396ZM88.783 48.2374C89.2299 48.0537 89.2945 48.0272 89.3975 47.9196H89.3945C89.4202 47.8925 89.4376 47.8586 89.4446 47.8219C89.4516 47.7851 89.4478 47.7472 89.4337 47.7125C89.4197 47.6779 89.3959 47.6481 89.3653 47.6266C89.3348 47.6051 89.2986 47.5929 89.2613 47.5914C89.1168 47.5947 88.9749 47.6304 88.8461 47.6958C87.5063 48.2466 82.1801 50.5554 81.1775 51.3984C81.0593 51.4974 81.1865 51.6882 81.3233 51.6492C81.6456 51.558 82.2035 51.2814 83.0494 50.862C84.0962 50.343 85.584 49.6053 87.6125 48.7296C88.1674 48.4904 88.5331 48.3401 88.7812 48.2382L88.7817 48.2379L88.7819 48.2379L88.7822 48.2378L88.7823 48.2377L88.7826 48.2376L88.7827 48.2375L88.783 48.2374ZM35.6634 69.0426C35.1863 68.9279 34.7013 68.849 34.1305 68.7561C32.6116 68.509 30.4853 68.1631 26.286 66.7806C26.5962 65.6292 26.9076 64.4778 27.228 63.3294L26.6034 63.2544C26.3682 64.0998 25.7094 66.5316 25.6098 66.9012C25.5895 66.9807 25.6007 67.065 25.6412 67.1364C25.6817 67.2077 25.7483 67.2606 25.827 67.284C26.587 67.5368 27.35 67.7768 28.116 68.004C27.761 69.0676 27.5081 70.1625 27.3606 71.274C25.237 68.8108 23.4764 67.274 22.1395 66.107C20.6207 64.7813 19.6485 63.9327 19.3116 62.745C19.1693 62.245 19.1908 61.7511 19.2126 61.2522C19.2359 60.7201 19.2594 60.1823 19.0848 59.625C18.7849 58.6659 18.0951 57.9725 17.4674 57.3415C17.1632 57.0357 16.8736 56.7446 16.65 56.445C15.9368 55.5649 15.5135 54.4858 15.438 53.3556C15.438 53.2878 15.411 53.2228 15.3631 53.1749C15.3152 53.1269 15.2501 53.1 15.1824 53.1C15.1146 53.1 15.0496 53.1269 15.0016 53.1749C14.9537 53.2228 14.9268 53.2878 14.9268 53.3556C15.0273 54.7639 15.6024 56.0964 16.5582 57.1356C17.2127 57.7447 17.803 58.4195 18.3198 59.1492C18.7783 59.9329 18.7442 60.5877 18.7088 61.2674C18.6493 62.4091 18.5862 63.6213 20.8476 65.6334C21.0058 65.7741 21.1642 65.9146 21.3226 66.0552L21.3229 66.0554L21.3231 66.0556L21.3233 66.0558L21.3236 66.056C24.2407 68.6441 27.187 71.2581 29.9742 75.5532C30.0144 75.6132 30.9114 77.0184 31.1742 77.4732C31.2582 77.6178 31.4622 77.4912 31.395 77.3442C30.4807 75.3487 29.2827 73.496 27.8382 71.8434C27.9056 71.6829 27.9082 71.648 27.9171 71.5285C27.9349 71.2907 27.9779 70.7178 28.6074 68.1516C30.8894 68.8301 33.2284 69.2997 35.5956 69.5544C35.6594 69.5556 35.7214 69.5332 35.7698 69.4916C35.8181 69.45 35.8495 69.392 35.8579 69.3288C35.8663 69.2655 35.8511 69.2014 35.8152 69.1486C35.7793 69.0958 35.7253 69.0581 35.6634 69.0426ZM44.7294 37.9092C47.2398 37.6044 50.4102 38.1858 52.2198 39.9558C52.3536 40.0872 52.1772 40.32 52.02 40.2168C50.8163 39.4017 49.4567 38.8452 48.027 38.5822C46.5973 38.3193 45.1286 38.3557 43.7136 38.6892C38.5374 39.8406 35.1714 43.8372 32.7396 48.4524L32.103 48.3402C33.3826 45.7059 35.1468 43.336 37.3032 41.3544C39.3823 39.4951 41.9672 38.2959 44.7294 37.9092ZM116.327 62.1516C113.033 62.6331 111.803 63.4719 110.609 64.2864C110.043 64.6726 109.485 65.0534 108.718 65.388C108.104 65.6202 107.504 65.8899 106.922 66.1956C105.595 66.9783 105.01 68.1799 103.422 71.4424C103.25 71.7963 103.066 72.1745 102.868 72.579C102.98 72.7714 103.092 72.9612 103.204 73.1484C103.448 72.6503 103.672 72.1925 103.877 71.7712L103.879 71.7664L103.882 71.7617C105.813 67.8007 106.172 67.0645 108.021 66.2808C109.693 65.5759 109.749 65.5385 110.539 65.0104C110.787 64.845 111.107 64.6313 111.571 64.3338C113.083 63.3661 114.16 63.1459 115.638 62.8435C115.901 62.7896 116.177 62.7332 116.471 62.6694C116.537 62.6485 116.593 62.6026 116.626 62.5414C116.66 62.4802 116.668 62.4084 116.649 62.3412C116.631 62.274 116.587 62.2167 116.527 62.1813C116.467 62.1459 116.395 62.1353 116.327 62.1516ZM87.24 87.0588C89.0607 86.9643 90.8394 86.477 92.454 85.6302C92.4779 85.7103 92.5021 85.7906 92.5264 85.8709C92.5549 85.9656 92.5835 86.0604 92.6118 86.1552C90.966 87.0454 89.1091 87.471 87.24 87.3864C87.1965 87.3864 87.1549 87.3691 87.1241 87.3384C87.0934 87.3077 87.0762 87.266 87.0762 87.2226C87.0762 87.1792 87.0934 87.1375 87.1241 87.1068C87.1549 87.0761 87.1965 87.0588 87.24 87.0588ZM65.9858 39.42C62.3636 42.4764 56.9468 42.693 54.0458 40.7208C54.3883 40.256 54.6107 39.7137 54.6932 39.1422C54.7873 38.6315 54.7711 38.1066 54.6458 37.6026C55.889 37.5638 57.1187 37.3322 58.2908 36.9162C58.2856 36.809 58.2801 36.7023 58.2747 36.596L58.2614 36.3336C55.2068 37.3896 51.9176 37.4604 49.7162 35.1108C48.4562 33.7698 48.4436 32.5524 48.4376 30.8226L47.9156 30.7512C47.9003 31.3425 47.9173 31.9342 47.9666 32.5236C48.2978 35.5446 51.0968 37.4754 54.1622 37.596C54.2587 38.3289 54.1748 39.0742 53.918 39.7674C53.8355 39.9797 53.7755 40.1064 53.7323 40.1979C53.6606 40.3496 53.635 40.4039 53.6282 40.59C53.6783 40.7651 53.7661 40.9271 53.8856 41.0646C55.5152 42.8046 61.2614 43.5126 65.6504 40.383C65.9777 40.1521 66.2899 39.9005 66.5852 39.63C66.6732 39.5254 66.7514 39.413 66.8186 39.294C66.8702 39.207 66.0668 39.3504 65.9858 39.42ZM82.1448 38.1696L81.5838 38.4306C79.0512 36.0762 77.2452 35.6214 75.2934 35.6928C75.2754 35.633 75.2572 35.5721 75.2388 35.5099L75.2382 35.5079L75.2381 35.5077C75.2034 35.3908 75.1674 35.2698 75.1284 35.145C77.9196 34.9734 80.0058 36.1452 82.1448 38.1696ZM104.793 53.1804C104.793 53.1126 104.766 53.0476 104.718 52.9997C104.671 52.9517 104.606 52.9248 104.538 52.9248C104.47 52.9248 104.405 52.9517 104.357 52.9997C104.309 53.0476 104.282 53.1126 104.282 53.1804C104.438 54.4787 103.476 55.4588 102.548 56.4034L102.548 56.4035C102.151 56.8083 101.76 57.2065 101.466 57.6204C100.728 58.6613 100.766 59.4669 100.803 60.2725C100.841 61.0833 100.879 61.8941 100.126 62.9448C99.7586 63.4577 98.9896 64.1444 97.9766 65.0489C96.5428 66.3292 94.6201 68.0461 92.6554 70.3248C92.4533 69.0501 92.1704 67.7895 91.8082 66.5508C92.4736 66.273 92.9638 66.0648 93.6268 65.7798C93.6846 65.7458 93.7296 65.6937 93.7549 65.6316C93.7801 65.5694 93.7842 65.5007 93.7666 65.436C92.4406 60.879 91.1866 56.9256 89.7466 52.6074C89.569 52.7066 89.391 52.8054 89.2126 52.9038C89.4706 53.7036 93.0148 65.0538 93.1036 65.3478C89.6578 66.8598 85.9036 68.274 82.3456 69.4542C81.9748 69.5778 82.1338 70.1682 82.5082 70.0434C87.454 68.3952 91.4362 66.7098 91.3762 66.7338C91.3712 67.1098 91.4345 67.3464 91.5431 67.7526L91.5432 67.7527C91.6599 68.1893 91.8291 68.8218 92.0224 70.0338C92.0443 70.3234 92.0962 70.6099 92.1772 70.8888C90.7346 72.5433 89.5368 74.3962 88.6204 76.3908C88.5538 76.5372 88.7572 76.665 88.8412 76.5198C92.0765 70.9191 95.928 67.5301 98.3222 65.4233C99.1425 64.7015 99.7918 64.1301 100.187 63.672C101.406 62.2597 101.354 61.1914 101.308 60.244C101.298 60.031 101.288 59.8241 101.292 59.6208C101.325 58.3405 102.09 57.5731 102.95 56.7108L102.95 56.7106C103.083 56.5773 103.218 56.4417 103.353 56.3016C104.188 55.4364 104.94 54.3804 104.793 53.1804ZM25.7888 85.488C26.7492 86.1495 27.7716 86.7162 28.8416 87.18C28.811 87.3522 28.7798 87.5268 28.748 87.7038C22.2017 85.2478 18.7729 78.1673 16.2334 72.9233C15.6504 71.7195 15.1144 70.6125 14.5982 69.6804C13.5802 67.8434 12.6429 67.4786 11.6434 67.0896C11.0935 66.8756 10.5247 66.6542 9.91339 66.1764C9.54217 65.8858 9.27968 65.636 9.03836 65.4063C8.52376 64.9165 8.10543 64.5183 6.93439 64.0122C5.72823 63.5009 4.47566 63.1069 3.19399 62.8356C3.12793 62.8143 3.07265 62.7683 3.03967 62.7072C3.00669 62.6461 2.99856 62.5747 3.01698 62.5077C3.03539 62.4408 3.07893 62.3836 3.13851 62.348C3.1981 62.3124 3.26913 62.3011 3.33679 62.3166C4.93671 62.6145 6.48726 63.1341 7.94359 63.8604C8.51349 64.1488 8.97546 64.5822 9.43697 65.0151C9.8865 65.4368 10.3356 65.858 10.8836 66.1446C11.2042 66.3122 11.5304 66.443 11.8575 66.5742C12.7038 66.9136 13.5554 67.2552 14.3288 68.241C15.0225 69.1241 15.7693 70.6831 16.6639 72.5505C18.6423 76.6801 21.3431 82.3177 25.7888 85.488Z" fill="#4D4D4D"/>
<path fill-rule="evenodd" clip-rule="evenodd" d="M53.9749 15.3487C53.9708 15.3696 53.9612 15.389 53.9472 15.405C53.9618 15.4144 53.9757 15.4165 53.9869 15.4231C54.1047 15.4922 53.936 16.0495 51.3816 30.4842C51.3713 30.523 51.3484 30.5572 51.3164 30.5814C51.2844 30.6057 51.2453 30.6185 51.2052 30.618C45.9574 30.0086 40.7489 29.0991 35.6052 27.894C35.5588 27.881 35.5194 27.8502 35.4956 27.8082C35.4718 27.7663 35.4654 27.7167 35.478 27.6702C35.4972 27.6102 39.4314 16.2 40.6062 13.404C40.677 13.2342 40.7605 13.2442 41.4879 13.3313C41.6166 13.3467 41.7656 13.3645 41.9382 13.3842C45.2148 13.7574 50.7654 14.5368 53.8782 15.2076C53.8991 15.2113 53.9187 15.2206 53.9349 15.2344C53.9511 15.2482 53.9634 15.266 53.9704 15.2861C53.9774 15.3062 53.9789 15.3278 53.9749 15.3487ZM44.5218 25.5078C46.5006 23.4698 48.3653 21.3239 50.1072 19.08H50.1084C50.1736 19.0115 50.2234 18.9299 50.2547 18.8406C50.2859 18.7513 50.2978 18.6564 50.2896 18.5622C50.2888 18.4872 50.2709 18.4134 50.2372 18.3464C50.2036 18.2794 50.1551 18.2209 50.0954 18.1755C50.0358 18.1301 49.9665 18.0988 49.893 18.0842C49.8194 18.0696 49.7435 18.072 49.671 18.0912C49.5358 18.1213 49.4113 18.1877 49.311 18.2832C49.197 18.4058 49.0198 18.6333 48.7619 18.9643C48.0302 19.9037 46.649 21.6769 44.2188 24.2544C44.2146 24.2482 44.1973 24.2217 44.1691 24.1787C43.9238 23.8048 42.8594 22.1818 42.5478 21.7944C42.4469 21.646 42.3227 21.5149 42.18 21.4062C42.1219 21.3492 42.0468 21.3129 41.966 21.3028C41.8853 21.2926 41.8035 21.3093 41.7332 21.3502C41.6628 21.3911 41.6079 21.4539 41.5767 21.5291C41.5456 21.6042 41.54 21.6876 41.5608 21.7662C41.736 22.3488 41.9598 22.7136 43.6722 25.3992C43.7148 25.4696 43.7728 25.5295 43.8419 25.5744C43.9109 25.6192 43.9891 25.648 44.0708 25.6584C44.1525 25.6688 44.2354 25.6607 44.3135 25.6347C44.3916 25.6086 44.4628 25.5652 44.5218 25.5078ZM26.0152 47.6604C27.0545 47.8434 37.6098 49.7018 37.8601 49.7718C37.9046 49.7855 37.9423 49.8156 37.9654 49.8561C37.9884 49.8966 37.9952 49.9443 37.9843 49.9896C37.6826 52.1398 37.3829 55.2948 37.1209 58.0537L37.1209 58.0537C36.867 60.7269 36.6484 63.0282 36.4975 63.6834C36.487 63.7212 36.4645 63.7546 36.4333 63.7784C36.4021 63.8023 36.364 63.8153 36.3247 63.8154C28.6267 63.2586 24.3169 62.5986 19.6831 61.8786C19.6327 61.8656 19.5889 61.8345 19.5599 61.7912C19.5309 61.748 19.5188 61.6956 19.5259 61.644C21.2569 57.2034 23.2795 52.506 25.6369 47.652C25.6524 47.6269 25.6739 47.6061 25.6995 47.5914C25.7251 47.5768 25.754 47.5688 25.7835 47.5682C25.813 47.5676 25.8421 47.5745 25.8683 47.588C25.8945 47.6016 25.9168 47.6216 25.9333 47.646L26.0152 47.6604ZM29.8279 62.8824C31.9427 63.1032 34.0601 63.291 36.1801 63.4458C36.3599 62.4069 36.5796 60.0905 36.8218 57.5357L36.8218 57.5356L36.8218 57.5355L36.8219 57.535L36.8219 57.5349C37.0688 54.9313 37.3392 52.0803 37.6147 50.0814C37.1191 49.9704 25.8709 47.9814 25.8601 47.9814C23.0368 53.7872 21.2791 58.1163 20.4271 60.2146L20.4271 60.2146L20.4271 60.2146L20.4271 60.2147C20.0677 61.0999 19.8695 61.588 19.8205 61.6224C20.4079 61.7142 27.6787 62.6568 29.8279 62.8824ZM26.0234 51.8334C26.1506 51.8466 28.0598 52.1718 28.1798 52.1934C28.2401 52.1966 28.2991 52.2122 28.3531 52.2392C28.4071 52.2663 28.4549 52.3042 28.4936 52.3506C28.5141 52.3863 28.5197 52.4287 28.5092 52.4685C28.4988 52.5083 28.4732 52.5425 28.4378 52.5636C28.3171 52.6185 28.1798 52.6241 28.055 52.5792C27.5746 52.4902 27.1913 52.422 26.884 52.3674C25.9902 52.2085 25.7386 52.1637 25.6082 52.0512C25.593 52.0355 25.582 52.0161 25.5764 51.9949C25.5709 51.9738 25.5709 51.9515 25.5764 51.9303C25.582 51.9092 25.5929 51.8898 25.6081 51.874C25.6234 51.8583 25.6424 51.8468 25.6634 51.8406C25.7813 51.8108 25.9044 51.8083 26.0234 51.8334ZM27.2604 54.9528C27.1404 54.9312 25.2312 54.606 25.104 54.5928C24.985 54.5676 24.8619 54.5699 24.744 54.5994C24.7231 54.6058 24.7042 54.6173 24.689 54.6331C24.6739 54.6488 24.663 54.6682 24.6575 54.6893C24.652 54.7104 24.6519 54.7326 24.6574 54.7537C24.6629 54.7748 24.6737 54.7942 24.6888 54.81C24.8194 54.9224 25.0708 54.9672 25.9624 55.1259C26.2702 55.1807 26.6544 55.2491 27.1362 55.3386C27.2609 55.3837 27.3984 55.3779 27.519 55.3224C27.5544 55.3015 27.5801 55.2675 27.5906 55.2277C27.601 55.1879 27.5953 55.1456 27.5748 55.11C27.5362 55.0633 27.4883 55.0252 27.4342 54.9982C27.38 54.9711 27.3208 54.9557 27.2604 54.9528ZM24.1133 57.4632C24.2399 57.4764 26.1491 57.801 26.2691 57.8232C26.3296 57.8262 26.3888 57.8417 26.4429 57.8689C26.4971 57.8961 26.5449 57.9343 26.5835 57.981C26.604 58.0166 26.6097 58.0589 26.5993 58.0987C26.5888 58.1385 26.5631 58.1725 26.5277 58.1934C26.4073 58.2486 26.2701 58.2544 26.1455 58.2096C25.6981 58.1276 25.3354 58.0633 25.0401 58.0109C24.0804 57.8407 23.832 57.7966 23.6981 57.681C23.6828 57.6653 23.6719 57.6459 23.6663 57.6247C23.6607 57.6036 23.6607 57.5813 23.6663 57.5601C23.6718 57.539 23.6827 57.5196 23.698 57.5038C23.7132 57.4881 23.7323 57.4766 23.7533 57.4704C23.8712 57.4407 23.9943 57.4382 24.1133 57.4632ZM88.8131 99.2178C88.4731 97.5877 87.9652 94.9136 87.5159 92.548C87.0489 90.0889 86.6452 87.9631 86.5589 87.6894C86.4959 87.5789 86.3961 87.494 86.2769 87.4494C81.7638 87.5448 77.2589 87.8795 72.7811 88.452L72.7564 88.4551L72.7559 88.4552C72.4173 88.4977 69.4699 88.8683 69.0137 89.0238C68.9894 89.0328 68.9686 89.0495 68.9546 89.0713C68.9405 89.0931 68.9339 89.1189 68.9357 89.1448C68.9375 89.1707 68.9477 89.1953 68.9647 89.2149C68.9817 89.2345 69.0046 89.2481 69.0299 89.2536C68.4899 92.172 67.7819 100.534 67.9223 108.818C67.923 108.872 67.9446 108.923 67.9826 108.961C68.0207 108.999 68.072 109.021 68.1257 109.021C69.9659 108.866 72.2342 108.708 74.6459 108.54C80.2628 108.149 86.6575 107.704 90.2339 107.118C90.4103 107.089 90.4205 106.598 90.4079 106.513C90.3793 106.313 90.2964 105.953 90.1424 105.284L90.1421 105.283L90.142 105.283L90.1419 105.282L90.1415 105.281L90.1414 105.28C89.898 104.224 89.4775 102.398 88.8131 99.2178ZM89.9561 106.778C89.6817 106.805 89.3495 106.854 89.0167 106.903C88.7806 106.937 88.5441 106.972 88.3277 106.999C84.8669 107.437 68.2661 108.602 68.3279 108.598C68.2661 102.135 68.5879 95.6741 69.2915 89.2494C69.4053 89.2421 69.7225 89.1998 70.214 89.1342L70.2152 89.134L70.2156 89.1339C71.3112 88.9876 73.2712 88.7259 75.7715 88.4796C80.0379 88.0588 83.3435 87.9376 85.0545 87.8748L85.0552 87.8748L85.0563 87.8748C85.7182 87.8505 86.1412 87.835 86.2883 87.8142C86.4083 89.8542 89.5817 104.887 90.0605 106.682C90.0858 106.773 90.0648 106.774 90.0014 106.777C89.9882 106.778 89.9731 106.779 89.9561 106.78V106.778ZM79.5786 99.1881C81.9912 94.0059 82.5045 92.9033 83.1316 93.1692C83.2076 93.2003 83.2728 93.2533 83.3188 93.3214C83.3648 93.3896 83.3897 93.4698 83.3902 93.552C83.3938 93.9981 83.2871 94.4382 83.0794 94.833C82.9078 95.25 79.3864 102.73 78.7474 104.056C78.6962 104.142 78.6261 104.216 78.5423 104.271C78.4586 104.326 78.3634 104.361 78.264 104.374C78.1646 104.387 78.0636 104.377 77.9686 104.345C77.8737 104.313 77.7873 104.259 77.716 104.189C74.5396 101.09 74.4656 100.983 74.1181 100.483C74.0321 100.36 73.9294 100.212 73.759 99.9888C73.7173 99.9173 73.7005 99.8341 73.7111 99.752C73.7218 99.67 73.7593 99.5938 73.8178 99.5353C73.8764 99.4769 73.9526 99.4394 74.0347 99.4289C74.1167 99.4183 74.2 99.4352 74.2714 99.477C74.5195 99.6516 74.6933 99.7664 74.8368 99.8612C75.4145 100.243 75.5018 100.3 77.9716 102.629C78.5839 101.325 79.1132 100.188 79.5735 99.1991L79.5744 99.1972L79.5747 99.1966L79.5779 99.1897L79.5786 99.1881ZM46.376 81.0924C46.3869 81.0721 46.3925 81.0494 46.3922 81.0264C46.3919 81.0033 46.3858 80.9807 46.3744 80.9607C46.363 80.9407 46.3467 80.9239 46.3271 80.9119C46.3074 80.8999 46.285 80.893 46.262 80.892C44.8252 80.8253 43.3874 80.7936 41.9506 80.7618L41.9498 80.7618L41.9448 80.7617C41.4437 80.7506 40.9428 80.7396 40.442 80.727C36.1737 80.6188 33.8736 80.5154 32.6276 80.4594C31.3821 80.4034 31.1897 80.3947 31.1375 80.476C31.128 80.4909 31.1232 80.5087 31.1174 80.5298L31.1138 80.5428C30.8282 81.5442 30.5846 82.5588 30.3446 83.5722C30.0314 84.8922 27.4544 97.02 27.4484 97.0524C27.4417 97.0794 27.4411 97.1075 27.4467 97.1347C27.4522 97.1619 27.4639 97.1876 27.4807 97.2097C27.4975 97.2318 27.5191 97.2499 27.5438 97.2625C27.5686 97.2752 27.5958 97.2821 27.6236 97.2828C28.6102 97.3494 29.5836 97.4181 30.5488 97.4862L30.5513 97.4864L30.5532 97.4865L30.5534 97.4865C35.541 97.8384 40.3105 98.1749 45.557 98.1342C45.6042 98.1326 45.6491 98.1131 45.6825 98.0797C45.7159 98.0463 45.7354 98.0014 45.737 97.9542C46.0604 90.0477 46.2756 85.8622 46.3899 83.6408C46.5059 81.3836 46.5177 81.1544 46.4326 81.1097C46.423 81.1047 46.4122 81.102 46.4001 81.099C46.3925 81.0972 46.3845 81.0952 46.376 81.0924ZM32.4182 93.6822C32.3877 93.8234 32.3066 93.9486 32.1903 94.0342C32.074 94.1199 31.9304 94.1601 31.7865 94.1473C31.6426 94.1346 31.5084 94.0697 31.4089 93.965C31.3095 93.8602 31.2517 93.7228 31.2464 93.5784C31.241 93.4776 31.2628 93.3773 31.3097 93.2879C31.3566 93.1986 31.4268 93.1235 31.5128 93.0708C31.6088 92.9977 31.7252 92.9566 31.8458 92.9531C31.9663 92.9497 32.0849 92.9841 32.1849 93.0516C32.2849 93.1191 32.3611 93.2163 32.403 93.3294C32.4448 93.4425 32.4502 93.5659 32.4182 93.6822ZM33.2648 89.2656C33.2338 89.4063 33.1526 89.5308 33.0365 89.616C32.9203 89.7011 32.7771 89.7411 32.6336 89.7284C32.4901 89.7157 32.3562 89.6512 32.2568 89.5469C32.1574 89.4426 32.0994 89.3057 32.0936 89.1618C32.0883 89.0611 32.1102 88.9609 32.1569 88.8716C32.2037 88.7822 32.2736 88.7072 32.3594 88.6542C32.4554 88.5811 32.5718 88.54 32.6924 88.5365C32.8129 88.5331 32.9315 88.5675 33.0315 88.635C33.1315 88.7025 33.2077 88.7997 33.2496 88.9128C33.2914 89.0259 33.2968 89.1493 33.2648 89.2656ZM33.9848 84.696C33.9538 84.8367 33.8725 84.9613 33.7563 85.0464C33.6401 85.1316 33.4968 85.1715 33.3533 85.1587C33.2098 85.1459 33.0759 85.0813 32.9766 84.9769C32.8772 84.8725 32.8193 84.7356 32.8136 84.5916C32.8081 84.491 32.8299 84.3907 32.8766 84.3015C32.9234 84.2122 32.9935 84.1373 33.0794 84.0846C33.1754 84.0118 33.2918 83.9708 33.4122 83.9675C33.5326 83.9642 33.6511 83.9987 33.7509 84.0661C33.8507 84.1336 33.9269 84.2306 33.9688 84.3436C34.0106 84.4566 34.016 84.5798 33.9842 84.696H33.9848ZM41.9048 94.7838C41.2982 94.9878 34.7846 94.7016 34.2518 94.4976C34.1192 94.4472 34.0826 94.224 34.2518 94.191C34.5394 94.171 34.8281 94.174 35.1152 94.2C37.9101 94.3963 39.626 94.4007 40.6521 94.4034C41.3417 94.4051 41.7197 94.4061 41.9042 94.464C41.9383 94.4746 41.9682 94.4959 41.9893 94.5247C42.0105 94.5536 42.0219 94.5884 42.0218 94.6241C42.0217 94.6599 42.0102 94.6946 41.9889 94.7234C41.9677 94.7521 41.9378 94.7733 41.9036 94.7838H41.9048ZM42.8342 90.2304C42.2276 90.435 35.714 90.1482 35.1818 89.9448C35.0492 89.8938 35.0126 89.6712 35.1818 89.6376C35.4694 89.6176 35.7581 89.6206 36.0452 89.6466C38.859 89.8443 40.5715 89.8482 41.592 89.8505C42.2747 89.852 42.6477 89.8529 42.8336 89.9106C42.8678 89.9212 42.8976 89.9425 42.9187 89.9713C42.9399 90.0002 42.9513 90.035 42.9512 90.0707C42.9511 90.1065 42.9396 90.1413 42.9184 90.17C42.8971 90.1987 42.8672 90.2199 42.833 90.2304H42.8342ZM42.935 85.677C42.3296 85.881 35.8148 85.5954 35.2826 85.3914C35.15 85.3404 35.1134 85.1178 35.2826 85.0842C35.5702 85.0642 35.8589 85.0672 36.146 85.0932C38.978 85.2929 40.6892 85.296 41.7052 85.2978H41.7054C42.3807 85.299 42.7487 85.2997 42.9344 85.3572C42.9685 85.3678 42.9984 85.3891 43.0195 85.4179C43.0407 85.4468 43.052 85.4816 43.052 85.5173C43.0519 85.5531 43.0404 85.5879 43.0192 85.6166C42.9979 85.6453 42.968 85.6665 42.9338 85.677H42.935ZM105.193 77.1419L105.193 77.142L105.193 77.1422C106.293 78.9273 107.421 80.7584 108.737 83.043C108.761 83.0842 108.767 83.133 108.755 83.1789C108.743 83.2247 108.713 83.2639 108.672 83.2878C103.859 86.4751 99.6501 88.7501 96.5875 90.4053C96.0007 90.7225 95.456 91.0169 94.9572 91.2906C94.9026 91.3188 94.5762 91.293 94.5426 91.1784C94.2136 90.0608 93.8681 88.9376 93.5188 87.802L93.5187 87.8018C92.4948 84.473 91.4385 81.0386 90.669 77.3316C90.6612 77.3012 90.6618 77.2693 90.6707 77.2392C90.6795 77.2091 90.6963 77.182 90.7192 77.1606C90.7422 77.1393 90.7705 77.1245 90.8011 77.1178C90.8318 77.1112 90.8636 77.1129 90.8934 77.1228C91.3067 76.8918 92.7182 76.0817 94.3803 75.1278C97.389 73.401 101.219 71.2029 101.435 71.1156C101.473 71.1055 101.513 71.1081 101.55 71.123C101.586 71.1378 101.616 71.1641 101.636 71.1978C102.915 73.4429 104.038 75.267 105.193 77.1418L105.193 77.1419ZM94.8192 91.0536C94.8192 91.0536 101.465 87.3144 103.205 86.283V86.2842C104.943 85.257 106.655 84.1876 108.341 83.076C107.538 81.6846 106.499 79.9851 105.4 78.1868L105.399 78.1865L105.399 78.1859L105.399 78.185C104.053 75.9834 102.617 73.6339 101.412 71.5206C101.058 71.6987 95.9362 74.6328 93.0263 76.2998L93.0249 76.3006C91.8865 76.9528 91.087 77.4108 91.0446 77.4336C91.7534 80.8228 92.6222 83.6982 93.5649 86.8185L93.5649 86.8186L93.565 86.8187L93.5652 86.8194L93.5654 86.8202C93.9719 88.1655 94.3921 89.5564 94.8192 91.0536ZM102.944 79.8264C102.841 79.8076 102.768 79.7124 102.688 79.6073C102.648 79.555 102.607 79.5004 102.558 79.4514C102.519 79.4044 102.471 79.3656 102.417 79.3372C102.362 79.3089 102.303 79.2916 102.242 79.2863C102.181 79.281 102.119 79.2878 102.061 79.3064C102.002 79.3249 101.948 79.3548 101.901 79.3944C101.695 79.5781 101.69 79.8371 101.685 80.0633C101.682 80.2552 101.678 80.4236 101.553 80.5026C101.468 80.5491 101.368 80.5613 101.274 80.5368C100.981 80.4718 100.825 80.1659 100.698 79.916L100.674 79.8708C100.658 79.8431 100.633 79.821 100.604 79.807C100.574 79.793 100.542 79.7878 100.51 79.792C100.477 79.7962 100.447 79.8096 100.422 79.8306C100.398 79.8516 100.38 79.8793 100.37 79.9104C100.194 80.8745 100.097 81.6099 100.028 82.1271L100.028 82.1273C100.017 82.2095 100.007 82.2861 99.9972 82.3573C99.995 82.3742 99.9927 82.3907 99.9905 82.407C99.3089 81.5778 98.578 80.7903 97.8017 80.049C97.7958 79.6676 97.7665 79.2869 97.7141 78.909C97.5557 78.0132 96.7865 77.8842 96.5909 78.4674C96.5661 78.6249 96.5762 78.7859 96.6203 78.9391C96.6645 79.0924 96.7417 79.234 96.8465 79.3542C97.0348 79.6453 97.2456 79.9211 97.4771 80.1792C97.5152 81.1116 97.4933 82.0456 97.4117 82.9752C97.2538 83.6251 96.9832 83.2756 96.6012 82.7821C96.2779 82.3644 95.8748 81.8437 95.3927 81.7386C94.7693 81.6018 94.6967 82.5222 94.6625 83.16C94.6352 83.6678 94.6805 84.1769 94.7969 84.672C94.8365 84.8364 95.0675 84.7626 95.0441 84.6042C94.9311 83.9046 94.9327 83.1913 95.0489 82.4922C95.1143 82.1286 95.1563 81.9384 95.4791 82.1106C95.8121 82.2882 96.0826 82.6366 96.3323 82.9581C96.6562 83.3751 96.945 83.747 97.2899 83.643C97.4007 83.5947 97.4978 83.5198 97.5726 83.4248C97.6473 83.3299 97.6974 83.2178 97.7183 83.0988C97.8162 82.253 97.8499 81.4009 97.8191 80.55C98.6069 81.2561 99.3149 82.0464 99.9305 82.9068C99.8804 83.2172 99.9055 83.5351 100.004 83.8338C100.043 83.9602 100.12 84.0721 100.223 84.1555C100.326 84.239 100.451 84.2903 100.583 84.303C100.703 84.3132 100.763 84.1884 100.743 84.0924C100.661 83.6488 100.501 83.2233 100.269 82.836C100.344 82.0722 100.479 81.1878 100.613 80.436C100.664 80.5333 100.734 80.6195 100.819 80.6897C100.903 80.7599 101.001 80.8128 101.106 80.8451C101.211 80.8775 101.321 80.8889 101.431 80.8785C101.54 80.8681 101.647 80.8362 101.744 80.7846C102 80.6154 102.01 80.3437 102.019 80.0733C102.021 80.0225 102.023 79.9718 102.026 79.9218C102.04 79.7142 102.146 79.5372 102.297 79.6854C102.347 79.7347 102.392 79.7916 102.436 79.8488C102.547 79.9898 102.659 80.1325 102.849 80.1684C102.895 80.1799 102.943 80.1735 102.983 80.1504C103.024 80.1274 103.054 80.0895 103.067 80.0448C103.079 79.9996 103.072 79.9514 103.049 79.9107C103.026 79.8699 102.989 79.8397 102.944 79.8264ZM96.8945 78.6708C96.8813 78.4344 97.0841 78.3198 97.2725 78.6306C97.4025 78.9513 97.4638 79.2957 97.4525 79.6416C97.2054 79.3572 97.0159 79.0275 96.8945 78.6708Z" fill="#417FDA"/>
</svg>
