<svg width="120" height="120" viewBox="0 0 120 120" fill="none" xmlns="http://www.w3.org/2000/svg">
<path fill-rule="evenodd" clip-rule="evenodd" d="M101.337 47.7307C101.425 38.8689 101.465 34.7825 99.4748 32.3748C97.7717 30.3146 94.5818 29.4834 88.6624 27.941C85.9118 27.2242 82.5719 26.354 78.5179 25.1355C80.1467 48.3378 78.5179 48.9911 77.4315 24.8082C70.5909 22.9564 60.4916 20.2333 53.2164 18.3815C54.5195 45.7234 51.587 33.0873 52.6746 18.2728C52.0989 18.1069 51.5422 17.946 51.0041 17.7905C42.4636 15.3222 38.584 14.2009 36.9867 15.6302C35.6572 16.82 35.9092 19.7771 36.371 25.1958C36.5129 26.861 36.6746 28.7586 36.8163 30.9089H37.2509C42.8973 31.5622 43.5426 39.8292 39.3142 42.2371C39.0995 42.3596 39.2045 43.4182 39.3467 44.8506C39.7085 48.497 40.3108 54.566 36.4907 53.784V63.8068C38.4457 63.2634 42.3544 59.4499 42.3544 59.4499C42.5717 57.7068 43.1261 56.082 43.6575 55.419C45.2104 53.4869 46.5948 52.2866 48.3271 51.9334C50.9486 51.3989 53.8025 52.3437 56.717 53.3086C57.6811 53.6278 58.6519 53.9491 59.623 54.2199C59.694 54.2199 59.8114 54.1379 59.9638 54.0316C60.2778 53.8124 60.7404 53.4896 61.2518 53.566C61.6802 53.6303 62.0921 53.6871 62.4881 53.7417L62.4883 53.7418C65.3072 54.1306 67.3259 54.409 68.8532 56.507C69.9172 57.9692 69.9448 59.3399 70.0175 62.9548C70.0262 63.3866 70.0355 63.8504 70.0474 64.3502C98.659 72.9966 99.2488 73.2378 101.472 74.147C101.563 74.1844 101.657 74.2229 101.756 74.2632C101.192 62.4011 101.276 53.9063 101.337 47.7307ZM44.3118 26.7693C44.4813 26.8479 44.6669 26.8852 44.8535 26.878C45.6137 27.096 46.5906 27.3139 47.2425 26.66C47.3377 26.5648 47.3912 26.4694 47.4395 26.3832C47.5015 26.2727 47.555 26.1773 47.677 26.1166C48.0027 25.8992 48.3283 26.1166 48.3283 26.5525C48.2985 26.9194 48.1452 27.2651 47.8937 27.5331C47.5957 27.7815 47.2457 27.9593 46.8697 28.0534C46.4938 28.1475 46.1015 28.1554 45.7221 28.0765C44.0188 27.864 42.3855 27.2682 40.9442 26.3334C40.6203 26.113 40.0756 25.6801 40.184 25.1355C40.2308 24.9812 40.3147 24.8408 40.4284 24.7267C40.5421 24.6127 40.682 24.5285 40.8358 24.4816C40.8653 24.7832 40.9843 25.069 41.1774 25.302C41.3706 25.5351 41.629 25.7046 41.9192 25.7888C42.6626 26.2354 43.4693 26.5661 44.3118 26.7693ZM44.9631 45.7234C45.595 45.9251 46.2677 45.9625 46.918 45.8321C46.9496 45.8162 46.9881 45.7958 47.0315 45.7727C47.2861 45.6373 47.7098 45.4121 47.8949 45.5054C48.2212 45.6141 48.1122 46.0488 47.8949 46.3767C47.8213 46.4897 47.7257 46.5865 47.6137 46.6614C47.5018 46.7364 47.3759 46.7878 47.2437 46.8126C46.1879 47.2661 44.5309 46.8682 43.5516 46.3767C43.4974 46.3226 43.3894 46.2683 43.2814 46.2141C43.1726 46.1593 43.0637 46.1046 43.0099 46.05C41.9229 45.2875 44.2029 45.6141 44.9631 45.7234ZM52.6734 39.4084C53.7569 39.1904 53.6395 43.1108 53.433 45.0725C53.3993 45.3934 53.4423 46.0281 53.4917 46.7577C53.6097 48.4992 53.7643 50.7814 52.9991 50.6274C52.2389 47.4659 52.4562 43.2177 52.6734 39.4084ZM60.4916 50.1926C60.7732 50.4221 61.1105 50.5723 61.469 50.628C61.7038 50.7065 61.9349 50.7851 62.1631 50.8627C63.9916 51.4842 65.6396 52.0444 67.5483 52.0444C67.8422 52.0693 68.1381 52.0321 68.4168 51.9352C68.5799 51.8808 68.7153 51.7992 68.8508 51.7175C68.9864 51.6357 69.1222 51.5539 69.286 51.4992C69.9372 51.2819 69.9372 51.8265 69.6116 52.2618C69.1903 53.1035 67.9901 53.1337 67.1137 53.1337C64.8935 52.8053 62.7353 52.1431 60.7119 51.1696C60.0606 50.8429 58.8658 50.1896 59.6284 49.3177C59.8279 49.0936 60.0948 48.9408 60.3886 48.8824C60.9303 48.6644 61.2572 48.9911 61.2572 49.0998C61.1517 49.2387 61.0246 49.378 60.904 49.5102L60.904 49.5102L60.9039 49.5103C60.6462 49.7928 60.4177 50.0432 60.4916 50.1896V50.1926ZM77.5405 47.6869C78.7927 47.4514 78.9167 52.933 79.0103 57.0725V57.0727C79.0466 58.6755 79.0783 60.077 79.1692 60.8676C79.0609 74.6986 77.4315 53.0214 77.5405 47.6839V47.6869ZM92.5278 61.9568C91.0576 62.1007 89.5739 61.9151 88.1839 61.4134C88.0475 61.3585 87.9023 61.302 87.7512 61.2432C86.7018 60.8349 85.3663 60.3153 84.7091 59.4529C84.5728 59.2197 84.5306 58.9431 84.5912 58.6797C84.6517 58.4164 84.8104 58.1862 85.0347 58.0364C85.361 57.8185 86.2078 57.6983 85.6866 58.6903C85.4597 59.1208 86.1206 59.4529 86.6641 59.6703C88.0983 60.5477 89.7649 60.9657 91.442 60.8688C92.5254 60.8688 93.5053 60.8688 94.1566 59.4529C94.2649 59.1257 95.24 59.017 94.9168 60.2149L94.9168 60.2161C94.915 60.5435 94.9091 61.607 92.526 61.9538L92.5278 61.9568ZM86.5551 37.2293C86.7378 37.6862 87.2274 37.9139 87.6369 38.1044L87.637 38.1044C87.7145 38.1405 87.7891 38.1752 87.8583 38.2099C89.596 38.8638 92.3123 39.735 93.6137 38.2099C94.2649 37.4473 94.9228 38.103 94.8078 38.4278C94.6892 38.7894 94.4751 39.112 94.1883 39.3613C93.9015 39.6106 93.5527 39.7773 93.1791 39.8437C92.0521 40.2253 90.8313 40.2253 89.7043 39.8437C88.3123 39.5412 86.9867 38.9876 85.7919 38.2099C84.9956 37.6194 85.7998 35.7205 86.1176 36.3581C86.2533 36.5067 86.3306 36.6999 86.3348 36.9015C86.5533 37.0089 86.5533 37.1176 86.5533 37.2263L86.5551 37.2293ZM61.0345 30.258C61.2518 30.5846 66.2469 32.3278 67.6554 31.8918C67.8758 31.8367 68.0686 31.7274 68.2616 31.618C68.4492 31.5117 68.6369 31.4053 68.8502 31.3484C69.614 31.1431 69.0675 32.329 68.8502 32.5469C68.0848 33.4105 66.8974 33.1741 65.809 32.9574C65.6622 32.9282 65.5173 32.8993 65.3754 32.8736L65.144 32.8156C62.5038 32.1541 61.3679 31.8695 60.4885 31.2397C59.7283 30.6963 59.9468 29.9325 60.4885 29.2786C60.5975 29.17 61.2487 29.2786 61.0303 29.6059C61.114 29.6832 61.0761 29.9418 61.0508 30.1152V30.1152L61.0508 30.1153C61.0418 30.1762 61.0345 30.2267 61.0345 30.255V30.258ZM53.7593 37.3356C56.3887 38.0829 58.962 38.8058 61.4985 39.5185C73.884 42.9984 85.3925 46.2318 98.2814 50.8429C99.2583 51.0609 100.019 52.3681 97.7397 51.8235C89.713 49.2635 78.5619 45.9556 68.3781 42.9346L68.3779 42.9345C57.756 39.7835 48.1864 36.9447 44.3118 35.5924C42.4628 34.9476 42.3622 34.4791 43.9862 34.8299C45.4025 35.136 48.563 35.8593 53.7593 37.3356ZM60.6007 80.7986C60.6211 80.7715 60.6346 80.7399 60.64 80.7064C60.6454 80.673 60.6427 80.6387 60.632 80.6065C60.6212 80.5744 60.6029 80.5453 60.5784 80.5219C60.554 80.4984 60.5243 80.4813 60.4918 80.472L60.4612 80.46C57.9741 79.4834 55.4862 78.5066 53.1076 77.3129C52.8903 77.2043 52.782 77.2043 52.6737 77.4222C50.6373 79.3759 47.9517 78.9403 46.9111 78.7715C46.6752 78.7333 46.5238 78.7087 46.4837 78.7288C46.2664 78.7288 37.6881 84.2837 36.4921 85.1561C36.2748 85.3741 36.0575 85.9187 36.4921 86.0274C42.8988 88.7505 59.0791 96.0503 60.9251 96.9203C61.0161 96.9739 61.1199 97.0014 61.2253 96.9999C61.3308 96.9985 61.4338 96.9681 61.5233 96.9122C61.6127 96.8562 61.6852 96.7767 61.7329 96.6824C61.7806 96.588 61.8016 96.4824 61.7937 96.3769C61.7407 93.7601 60.9263 81.9971 60.6007 80.7986ZM48.984 83.9576C49.0308 83.9765 49.0785 83.9961 49.127 84.0161C49.6386 84.227 50.2351 84.4729 50.8306 84.1756C50.9743 84.1178 51.118 84.0447 51.2637 83.9705L51.2638 83.9705C51.6676 83.7651 52.0874 83.5514 52.5677 83.6322C52.662 83.6471 52.7499 83.6895 52.8203 83.7542C52.8907 83.8188 52.9406 83.9028 52.9638 83.9957C52.9869 84.0886 52.9823 84.1863 52.9506 84.2766C52.9188 84.3668 52.8612 84.4457 52.785 84.5034C52.1512 85.0023 51.4058 85.3388 50.6134 85.484C49.8802 85.5655 49.1471 85.2795 48.4142 84.9936L48.414 84.9936C48.1698 84.8983 47.9256 84.803 47.6815 84.7214C47.0241 84.4329 46.3358 84.2224 45.6516 84.0131C44.5272 83.6692 43.4143 83.3288 42.469 82.6516C42.3601 82.5429 42.469 82.1082 42.7946 82.2163C45.69 82.886 46.9486 83.3085 47.8319 83.605C48.2548 83.747 48.5917 83.8601 48.981 83.9576H48.984ZM80.581 88.5331L80.2554 68.5985C80.6899 68.7078 101.864 75.2432 101.865 75.3525C101.879 76.3517 101.894 77.3664 101.909 78.379C102.016 85.4272 102.121 92.3757 101.648 93.326C101.322 93.9793 100.453 94.1973 99.4759 94.1973C96.5441 94.1973 80.581 88.5331 80.581 88.5331ZM85.5762 79.6007C85.6839 79.3827 85.3595 79.0561 85.1422 79.2741C84.382 79.9274 84.0564 80.7986 84.8154 81.5624C85.4338 82.0058 86.2652 82.1742 87.0245 82.3281C87.1979 82.3632 87.3675 82.3976 87.53 82.4343C88.6056 82.6723 89.6929 82.8537 90.7875 82.9777C90.9508 82.9968 91.1282 83.0208 91.3154 83.0461C92.9993 83.2738 95.4788 83.6092 95.6743 81.4525C95.6743 80.8456 94.7113 81.5497 94.2086 81.9172C94.0796 82.0115 93.981 82.0836 93.9366 82.1058C93.4677 82.1605 92.9941 82.1605 92.5252 82.1058C92.1538 82.0527 91.8081 82.0266 91.4632 82.0005C91.102 81.9732 90.7417 81.9459 90.3535 81.8878C88.9402 81.6777 87.527 81.4652 86.1179 81.1259C85.2488 80.9157 85.0345 80.3633 85.5762 79.6007Z" fill="#417FDA"/>
<path fill-rule="evenodd" clip-rule="evenodd" d="M51.4637 11.851C47.2531 10.818 41.9988 9.75301 38.1476 11.6337C38.119 11.6481 38.0878 11.6565 38.0558 11.6587C38.0239 11.6608 37.9919 11.6565 37.9616 11.646C37.9314 11.6355 37.9035 11.619 37.8797 11.5976C37.8559 11.5761 37.8366 11.5501 37.8229 11.5211C40.6397 9.75481 44.0877 9.78431 47.3497 10.3261C49.8298 10.7391 66.1109 14.7551 69.6513 15.6484C79.7097 18.1841 89.729 20.9376 99.7472 24.0108C99.9339 24.0682 100.121 24.125 100.307 24.1817L100.309 24.1821C102.383 24.8129 104.449 25.441 106.243 26.7265C110.958 30.1037 113.993 38.8231 115.228 44.5379C117.054 52.9804 117.284 64.8026 116.744 73.3197C116.174 82.3335 113.605 91.785 106.568 97.8652C106.481 97.9516 106.365 98.0001 106.243 98C106.121 97.9999 106.004 97.9513 105.918 97.8649C105.832 97.7784 105.784 97.6612 105.784 97.539C105.784 97.4168 105.832 97.2996 105.918 97.2132C106.749 96.5705 107.511 95.8426 108.192 95.0412C114.295 88.0321 115.778 78.4211 116.095 69.4097C116.259 64.737 116.151 59.9637 115.878 55.2903C115.634 50.7087 114.945 46.1619 113.821 41.7146C112.797 37.7498 110.626 32.5352 108.192 29.5499C105.787 26.6019 102.986 25.7397 97.936 24.1848C97.2161 23.9632 96.4504 23.7275 95.6337 23.4696C82.4193 19.3005 70.1833 16.3608 59.0575 13.6879L59.0574 13.6879C56.4654 13.0652 53.9336 12.4569 51.4637 11.851ZM39.0136 40.4514C42.5948 36.9926 40.728 30.9141 36.4141 31.4144C35.9737 31.4655 35.5324 31.5525 35.0797 31.6418C34.3116 31.7932 33.5106 31.9511 32.6253 31.9511C31.6294 31.9185 30.6441 31.7376 29.7023 31.4144C29.3719 31.3129 29.0604 31.1348 28.7509 30.9578C28.3549 30.7314 27.962 30.5068 27.5367 30.4466C27.3496 30.4189 27.1586 30.4568 26.9966 30.5539C26.8932 30.76 26.9927 30.8628 27.1867 31.0632L27.2132 31.0906C28.3271 32.2376 29.8326 32.9288 31.4335 33.0281C33.2931 33.1669 34.5892 32.9273 35.6035 32.7398C36.7468 32.5284 37.532 32.3833 38.3625 32.9208C40.728 34.4522 40.311 38.3004 38.6872 40.1293C38.6659 40.1506 38.6491 40.1759 38.6376 40.2037C38.6261 40.2314 38.6203 40.2612 38.6204 40.2912C38.6205 40.3212 38.6266 40.3509 38.6382 40.3786C38.6499 40.4063 38.6669 40.4314 38.6884 40.4526C38.7098 40.4737 38.7352 40.4904 38.7632 40.5018C38.7911 40.5132 38.821 40.519 38.8512 40.5189C38.8814 40.5188 38.9113 40.5128 38.9392 40.5012C38.967 40.4896 38.9923 40.4727 39.0136 40.4514ZM38.581 42.9262C38.796 43.9889 38.9047 45.0702 38.9057 46.1542C38.9776 47.4849 38.905 48.8195 38.6891 50.1347C38.6665 50.6028 38.4621 51.0438 38.1188 51.365C37.7755 51.6861 37.3201 51.8623 36.8486 51.8564C36.3051 51.8739 35.7612 51.8377 35.2248 51.7484C34.9442 52.9555 34.2612 54.0018 33.5922 55.0265C33.4858 55.1895 33.3798 55.3519 33.2758 55.5143C31.7582 57.8812 28.9529 61.3084 25.6975 59.8175C25.1006 59.5342 24.5704 59.1291 24.1414 58.6286C23.7125 58.1281 23.3944 57.5435 23.2078 56.9127C22.7422 55.4159 22.9912 53.9 23.3158 52.3943C23.3158 52.3514 23.333 52.3103 23.3635 52.28C23.394 52.2497 23.4353 52.2327 23.4785 52.2327C23.5216 52.2327 23.563 52.2497 23.5935 52.28C23.624 52.3103 23.6411 52.3514 23.6411 52.3943C23.4245 54.008 23.4575 55.924 24.399 57.4506C25.1845 58.725 26.672 59.601 28.1878 59.0643H28.2958C27.2345 58.7224 26.3442 57.9914 25.8061 57.0201C25.5533 56.5415 25.4123 56.0125 25.3935 55.4724C25.3747 54.9322 25.4786 54.3948 25.6975 53.9C26.7705 51.529 29.595 50.4574 31.9767 50.2421C32.7721 50.2259 33.5677 50.262 34.3583 50.35C35.1767 50.5541 36.009 50.6978 36.8486 50.78C37.4979 50.78 37.7145 50.0262 37.7145 49.4895C37.8232 47.8752 37.8232 46.3694 37.8232 44.7551C37.8636 44.3931 37.8585 44.0008 37.8534 43.6009V43.6008V43.6008C37.8448 42.9317 37.836 42.2412 38.0392 41.6351C38.1315 41.3608 38.3019 41.5529 38.4173 41.6829C38.4376 41.7059 38.4562 41.7269 38.4724 41.743C38.5623 42.1307 38.5989 42.5287 38.581 42.9262ZM28.6706 57.63C29.0225 57.7948 29.3783 57.9613 29.7036 58.2038C32.3383 56.0762 33.5954 53.3264 34.1416 52.1314C34.3136 51.7552 34.4151 51.5331 34.467 51.5331C34.1556 51.4109 33.8267 51.3384 33.4924 51.3185C31.7511 51.1759 30.0177 51.6735 28.6211 52.7169C27.4263 53.5726 26.2394 54.9764 27.1053 56.4822C27.5108 57.087 28.0853 57.356 28.6706 57.63ZM28.9482 54.7611C28.8324 54.3324 28.7328 53.2548 29.2728 53.1474C29.549 53.0547 29.6681 53.4383 29.7658 53.7528L29.7658 53.7529C29.7819 53.8046 29.7973 53.8545 29.8128 53.9C29.8355 54.1287 29.9095 54.3494 30.0294 54.5459C30.2123 54.729 30.431 54.7736 30.6452 54.8173C30.8084 54.8506 30.9691 54.8833 31.1094 54.9764C31.1829 55.0348 31.2379 55.1128 31.2679 55.2014C31.298 55.2899 31.3019 55.3851 31.279 55.4758C31.2562 55.5664 31.2077 55.6486 31.1392 55.7127C31.0708 55.7767 30.9853 55.8198 30.8928 55.8369C30.6941 55.8977 30.4851 55.918 30.2783 55.8964C30.0715 55.8748 29.8713 55.8119 29.6896 55.7114C29.508 55.6109 29.3486 55.4749 29.2212 55.3116C29.0938 55.1483 29.001 54.961 28.9482 54.7611ZM34.086 46.8396C34.2944 46.9355 34.5374 46.9348 34.7615 46.8377C34.9856 46.7407 35.1725 46.5552 35.2811 46.3221C35.3896 46.089 35.411 45.8274 35.3404 45.5948C35.2698 45.3622 35.113 45.1777 34.9046 45.0819C34.6962 44.986 34.4533 44.9867 34.2291 45.0837C34.005 45.1808 33.8181 45.3663 33.7096 45.5994C33.601 45.8325 33.5797 46.0941 33.6503 46.3267C33.7209 46.5593 33.8776 46.7438 34.086 46.8396ZM35.8735 43.4641C35.6634 43.2768 35.3971 43.1634 35.1157 43.1414C34.7958 43.1414 34.5288 43.3377 34.3106 43.4981C34.0346 43.701 33.8368 43.8465 33.7087 43.4641C33.5437 42.9709 35.6863 41.7066 36.4147 42.7115C36.5563 42.9065 36.7399 43.2494 36.6313 43.4641C36.4135 43.7873 36.1219 43.643 35.8735 43.4641ZM55.7959 66.7029C54.2803 65.4124 51.9313 67.044 51.1411 68.4245C50.8481 68.9364 51.3922 69.3409 51.8179 68.9428C52.0711 68.7579 52.3147 68.5542 52.5572 68.3514C53.4433 67.6104 54.3142 66.882 55.5793 67.1334C55.7959 67.1334 56.0101 66.9181 55.7959 66.7029ZM53.0877 69.6082C53.8743 68.4346 55.8735 67.3863 57.3093 68.1019C57.6339 68.2092 57.7419 68.3172 57.4173 68.4257C57.0027 68.5962 56.5649 68.705 56.1183 68.7483C55.9024 68.8552 55.6863 68.9356 55.4702 69.016C55.2533 69.0967 55.0363 69.1775 54.8193 69.285C54.3569 69.6693 53.8479 69.9947 53.3043 70.2535C52.8711 70.3608 52.9791 69.8229 53.0877 69.6082ZM58.8251 71.0066C60.2322 71.7598 61.6394 72.513 63.1552 73.2662C63.5321 73.4266 63.8821 73.6136 64.232 73.8005C64.5857 73.9895 64.9392 74.1783 65.3202 74.3396C66.0187 74.7749 66.7418 75.1699 67.4859 75.5227C67.5894 75.5842 67.7114 75.6071 67.8303 75.5874C67.9492 75.5678 68.0573 75.5068 68.1351 75.4154C68.2432 75.3074 68.2432 75.3074 68.2432 75.2001C68.3518 74.9848 68.2432 74.7696 68.0271 74.5549C67.3422 74.097 66.6174 73.7008 65.8615 73.3711C65.3382 73.0736 64.8147 72.8277 64.3267 72.5984L64.3266 72.5984L64.3263 72.5983L64.3263 72.5982C64.1081 72.4958 63.8971 72.3966 63.6964 72.2977C62.22 71.5961 60.7015 70.9853 59.1497 70.4687C59.0791 70.44 59.0004 70.4374 58.928 70.4613C58.8556 70.4852 58.7942 70.5341 58.7549 70.5992C58.7157 70.6642 58.7012 70.7411 58.714 70.8158C58.7269 70.8906 58.7663 70.9583 58.8251 71.0066ZM59.3613 74.1685C58.3586 73.7121 57.3464 73.2513 56.444 72.7283C56.1187 72.6203 56.3365 72.1898 56.6582 72.2977C58.1963 72.6626 59.6865 73.2042 61.0987 73.9114C61.8482 74.2693 62.4499 74.5421 62.9436 74.7659C64.1558 75.3156 64.7164 75.5697 65.2128 76.063C65.2786 76.116 65.3242 76.1897 65.3421 76.272C65.36 76.3542 65.3491 76.4401 65.3113 76.5154C65.2734 76.5907 65.2109 76.6509 65.1339 76.6861C65.057 76.7212 64.9703 76.7293 64.8882 76.7088C64.1415 76.4437 63.4174 76.1198 62.7225 75.7404C62.17 75.505 61.6771 75.2642 61.197 75.0296L61.1961 75.0291L61.1884 75.0254C61.0134 74.9399 60.84 74.8552 60.6661 74.7719C60.2397 74.5684 59.8014 74.3689 59.3613 74.1685ZM54.3866 74.8799C55.0367 75.3011 55.7254 75.6605 56.4434 75.9533C56.9998 76.2498 57.5788 76.5025 58.175 76.7088C58.4465 76.8171 58.746 76.9521 59.0456 77.0872L59.0459 77.0873L59.0461 77.0874L59.0464 77.0876C59.3424 77.221 59.6384 77.3545 59.9072 77.462C60.0747 77.5174 60.2495 77.5872 60.4278 77.6584C60.9403 77.863 61.4819 78.0792 61.964 77.9987C62.0112 77.9922 62.0561 77.9743 62.0948 77.9467C62.1335 77.919 62.1649 77.8824 62.1862 77.84C62.2074 77.7976 62.218 77.7507 62.2169 77.7033C62.2158 77.656 62.2032 77.6096 62.18 77.5682C61.6696 77.081 61.0321 76.7455 60.3398 76.5997C60.3056 76.5861 59.3942 76.1893 58.5149 75.8065C57.6977 75.4506 56.9081 75.1069 56.876 75.0939C56.1895 74.7525 55.4621 74.4994 54.7112 74.3408C54.6403 74.3111 54.5611 74.3078 54.488 74.3316C54.4149 74.3554 54.3529 74.4046 54.3134 74.4702C54.2739 74.5358 54.2595 74.6134 54.273 74.6886C54.2864 74.7639 54.3268 74.8318 54.3866 74.8799ZM52.6555 57.0189C51.1541 57.1457 49.6425 56.9629 48.2155 56.4822C47.9989 56.3736 48.1705 56.2633 48.3259 56.2657C48.8471 56.2082 49.3382 56.2321 49.8311 56.2561H49.8312H49.8312H49.8312H49.8313H49.8313H49.8313H49.8314H49.8314H49.8314H49.8315H49.8315H49.8316H49.8316H49.8316H49.8317H49.8317H49.8317H49.8318C50.2595 56.277 50.6886 56.2978 51.1399 56.2657C51.2959 56.2547 51.4558 56.2351 51.617 56.2152C52.2447 56.138 52.8924 56.0582 53.4133 56.481C53.6442 56.7192 53.7984 57.0205 53.8562 57.3463C53.9141 57.6721 53.8728 58.0076 53.7379 58.31C53.2969 59.1878 51.3337 60.037 50.9239 60.1389C50.5712 60.2332 50.2054 60.2696 49.8409 60.2469C49.4635 60.2469 49.5187 59.6541 50.2741 59.2784C50.2951 59.2677 51.8419 58.4632 51.8977 58.4179C51.9637 58.3642 53.5177 57.0189 52.6555 57.0189ZM58.9337 69.3929C56.6688 69.2128 55.1053 70.9347 53.6886 72.495C53.4125 72.799 53.142 73.097 52.873 73.3735C52.0329 74.2762 50.9958 74.9755 49.8414 75.4178C49.4421 75.6216 49.0029 75.7367 48.5544 75.7552C48.1059 75.7738 47.6587 75.6952 47.2437 75.5251C47.2226 75.5146 47.1953 75.5 47.1633 75.483C46.8759 75.3294 46.2113 74.9743 46.2626 75.577C44.1443 76.6743 36.8253 81.4676 36.4172 81.8732C36.3488 81.9434 36.3053 82.0339 36.2931 82.1309C36.2809 82.2279 36.3007 82.3262 36.3495 82.4111C36.3984 82.496 36.4736 82.5628 36.564 82.6015C36.6543 82.6402 36.7548 82.6487 36.8505 82.6257C40.2165 80.7212 43.4426 78.5822 46.5044 76.2246C46.7261 76.4736 47.0237 76.6436 47.3517 76.7088C47.8808 76.8702 48.4464 76.8702 48.9755 76.7088C50.3024 76.4703 51.5381 75.8748 52.5483 74.9872C53.3058 74.4226 53.9573 73.6867 54.6095 72.9502C55.8213 71.5815 57.0352 70.2104 58.9355 69.9308C59.3669 69.9308 59.2583 69.3929 58.9337 69.3929ZM14.3875 76.6823C13.7523 74.5741 13.1231 72.4857 12.1652 70.4687C12.062 70.2511 12.3819 70.0382 12.7071 70.2564C14.1093 72.7646 15.016 75.3384 15.8953 77.8346C16.9274 80.7643 17.9219 83.5872 19.6355 86.072C21.7592 89.1509 24.6569 91.4206 27.6471 89.192C27.8637 88.9768 28.1883 89.4067 28.0803 89.622C27.2132 91.3412 24.7301 91.3233 23.0997 90.6954C21.3745 90.0317 20.0754 88.5385 18.9856 87.1454C17.8699 85.6201 16.96 83.956 16.2793 82.1958C15.4973 80.3657 14.9402 78.5165 14.3875 76.6823ZM27.1053 91.448C28.8387 92.8017 32.1939 91.9847 33.9249 88.5432C34.1386 88.1185 34.3517 87.5894 34.5653 87.0589L34.5741 87.0369C34.8366 86.5413 34.9493 85.9809 34.8987 85.4232C34.8987 85.2079 34.6827 85.1005 34.4661 85.2079C34.1478 85.5886 33.9415 86.1187 33.737 86.644C33.5945 87.0099 33.453 87.3735 33.2751 87.6827C32.9195 88.5 32.4455 89.2613 31.8681 89.9422C31.3221 90.5762 30.5878 91.0217 29.7709 91.2146C28.954 91.4075 28.0965 91.3378 27.3219 91.0156C27.1053 90.9101 26.8887 91.2327 27.1053 91.448ZM29.921 84.9932C28.8231 86.4422 27.2542 87.4686 25.481 87.898C25.1558 88.0053 25.0478 87.5748 25.3742 87.3601C27.0212 86.8496 28.4376 85.7842 29.3792 84.3474C29.9138 83.6958 30.3513 82.9712 30.6782 82.1958C30.7184 82.0764 30.7734 81.9423 30.8321 81.7988L30.8322 81.7987L30.8322 81.7987C30.9323 81.5544 31.0434 81.2832 31.1114 81.012C31.2098 80.6709 31.3556 80.3452 31.5446 80.0442C31.6526 79.9362 31.9772 79.9362 31.9772 80.1515C32.1544 80.8555 31.8128 81.627 31.5144 82.3007C31.4481 82.4505 31.3839 82.5954 31.328 82.7337C30.9723 83.5509 30.4982 84.3122 29.921 84.9932ZM26.8879 68.2092C27.7817 71.3446 27.7442 74.67 26.7799 77.7847C26.5978 78.3575 26.3633 78.9011 26.1349 79.4306C25.9353 79.8934 25.7403 80.3454 25.5889 80.7968C25.4809 81.012 25.9135 81.2273 26.0221 81.12C27.3191 79.8309 27.8164 77.3065 28.1991 75.3633C28.2317 75.1975 28.2635 75.036 28.2949 74.8799C28.4959 72.585 28.2007 70.274 27.4291 68.1019C27.3211 67.8866 26.8879 67.9939 26.8879 68.2092ZM48.1077 52.6095C48.4971 52.5016 48.9088 52.5016 49.2982 52.6095C49.6235 52.6095 49.6235 53.0395 49.2976 53.1516C47.8239 53.4059 46.5055 54.2149 45.6168 55.4106C45.2631 55.9026 45.1524 56.4406 45.0277 57.0472C44.7707 58.297 44.4539 59.8377 41.8279 61.8659C41.1366 62.3811 40.9234 62.594 40.7412 62.7759C40.3906 63.1261 40.1546 63.3618 36.8474 65.416C36.2126 65.8222 35.5219 66.135 34.7969 66.3445C35.2442 67.2724 35.5346 68.2673 35.6562 69.2892C35.819 69.8149 35.819 70.3771 35.6562 70.9029C35.5494 71.1182 35.2248 71.2261 35.1161 71.0108C34.8659 70.5838 34.7178 70.1054 34.6835 69.6124C34.6396 69.4183 34.5994 69.2309 34.5603 69.0485C34.311 67.8866 34.1056 66.9295 33.2757 65.7362C32.9036 65.1885 32.4054 64.7368 31.8226 64.4186C31.2398 64.1003 30.5891 63.9246 29.9243 63.906C29.4166 63.9279 28.908 63.8916 28.4086 63.7981C28.1919 63.6907 28.1919 63.3681 28.4086 63.3681C28.9304 63.1913 29.4821 63.1181 30.0324 63.1528C30.5826 63.1181 31.1343 63.1913 31.6561 63.3681C32.8379 63.8228 33.8313 64.6594 34.4765 65.7433C34.8393 65.4891 35.3136 65.2077 35.8787 64.8724L35.879 64.8723L35.8791 64.8722C37.2475 64.0604 39.1485 62.9326 41.2897 61.1086C41.7342 60.6668 42.0784 60.3418 42.3491 60.0862C42.8325 59.6297 43.0814 59.3946 43.2488 59.1113C43.4266 58.8104 43.5124 58.4551 43.6893 57.7224C43.7447 57.4928 43.8091 57.2263 43.888 56.9127C44.1018 56.0656 44.4677 55.2638 44.9681 54.5459C45.724 53.522 46.849 52.8282 48.1077 52.6095ZM54.2781 64.6592C54.2267 64.5935 54.1612 64.5401 54.0863 64.5028C54.0115 64.4656 53.9292 64.4454 53.8455 64.4439C52.9267 64.1749 51.9493 64.1749 51.0305 64.4439C49.9038 64.7067 48.8381 65.1814 47.891 65.8423C46.308 66.8913 44.0073 69.7549 43.6563 70.7359C42.8798 71.0671 41.2219 71.7271 39.4628 72.4274C37.2061 73.3257 34.7828 74.2904 33.8403 74.7123C33.5472 74.2663 33.1618 73.8874 32.7099 73.6009C32.2579 73.3144 31.7498 73.1269 31.2192 73.0509C30.6253 70.8163 29.7903 68.652 28.7289 66.5955C26.8275 62.9921 24.256 59.7796 21.1506 57.128C19.9066 56.042 18.471 55.1943 16.9165 54.6276C19.0098 52.1492 19.7466 51.0823 20.3815 50.1629L20.3815 50.1629C20.7396 49.6443 21.0654 49.1726 21.5839 48.521C21.6543 48.4324 21.738 48.3383 21.8265 48.239C22.1594 47.8652 22.5584 47.4172 22.5584 46.9073C22.5584 46.6921 22.3417 46.4768 22.1251 46.5841C21.48 46.7445 21.0751 47.502 20.7313 48.1449C20.6137 48.365 20.5032 48.5716 20.3927 48.7363C20.2101 49.0085 20.0275 49.2892 19.8424 49.5737L19.8422 49.574C19.3692 50.301 18.8803 51.0524 18.3357 51.7484C18.0831 52.0832 17.847 52.4667 17.608 52.8548C17.2485 53.4386 16.8827 54.0327 16.4455 54.4862C16.0012 54.3659 15.5478 54.2813 15.0899 54.2334C15.0597 54.1771 15.0098 54.1338 14.9496 54.1118C14.8894 54.0898 14.8231 54.0907 14.7635 54.1141C14.6199 54.2148 14.4761 54.3153 14.3322 54.4158L14.3293 54.4178L14.3285 54.4184L14.327 54.4195L14.3241 54.4215C12.6261 55.6076 10.9213 56.7985 9.56684 58.4179C7.90628 60.4117 6.52256 62.618 5.45276 64.9776C2.96907 70.4079 2.73984 75.0045 3.17969 80.8999C3.24828 81.9246 3.40421 82.9492 3.56436 84.0017C3.65643 84.6067 3.7499 85.2209 3.82897 85.8496C4.04932 87.4823 4.37482 89.0993 4.80348 90.6906C4.82764 90.7665 4.87852 90.8311 4.94675 90.8726C5.01499 90.9142 5.09602 90.9298 5.17496 90.9168C5.2539 90.9037 5.32546 90.8628 5.37649 90.8016C5.42752 90.7403 5.4546 90.6628 5.45276 90.5833C5.37944 89.2086 5.19888 87.8417 4.9127 86.4948C4.31683 82.6442 3.85537 77.669 4.15481 73.7999C4.6314 68.7661 6.505 63.9627 9.56684 59.9249C10.8446 58.1109 12.0201 57.1235 13.2007 56.1318C13.7527 55.6682 14.3057 55.2036 14.8709 54.6532C16.8494 55.1233 18.6751 56.086 20.1761 57.4506C21.6899 58.7395 23.1016 60.1423 24.3988 61.6465C28.8914 67.0816 30.0593 72.5404 30.8511 76.2412C31.0173 77.0179 31.1669 77.7172 31.3272 78.3225C31.349 78.3859 31.3933 78.4392 31.4517 78.4725C31.5101 78.5059 31.5788 78.517 31.6448 78.5038C31.7109 78.4906 31.7699 78.454 31.8108 78.4008C31.8517 78.3476 31.8718 78.2814 31.8673 78.2146C31.9622 76.7231 31.7792 75.2271 31.3272 73.8017C32.843 74.5543 33.7089 76.1686 34.0335 77.8896C34.2336 78.9176 34.2702 79.9704 34.1421 81.0097C34.0333 81.5476 33.9249 82.0854 33.8169 82.6234C33.763 82.8913 33.682 83.1331 33.6009 83.3751C33.5196 83.6177 33.4383 83.8604 33.3842 84.1297C33.3783 84.1944 33.3935 84.2593 33.4276 84.3147C33.4617 84.3701 33.5129 84.4131 33.5736 84.4373C33.6343 84.4615 33.7012 84.4655 33.7643 84.4489C33.8275 84.4323 33.8836 84.3958 33.9243 84.345C34.3226 83.9293 34.5865 83.4047 34.6822 82.8386C34.8894 82.2454 35.0344 81.6325 35.1149 81.0097C35.4717 79.0551 35.1545 77.038 34.2147 75.2848C37.5106 74.2197 40.7484 72.9846 43.9149 71.5845C44.3269 71.5957 44.7905 70.8982 45.0335 70.5325L45.076 70.4687C46.9927 67.9933 49.3689 65.4118 52.5463 65.4118H53.8455C53.9535 65.4118 54.1701 65.3044 54.1701 65.1971C54.3867 64.8739 54.3867 64.7665 54.2781 64.6592ZM24.3986 45.8309C24.5798 46.5526 24.8718 47.2421 25.2644 47.8752C25.3724 48.0905 25.1558 48.3058 25.0466 48.2002C24.3772 47.7725 23.8794 47.1255 23.6396 46.3712C23.483 45.9937 23.4252 45.5828 23.4716 45.1771C23.518 44.7713 23.667 44.3838 23.9048 44.0508C24.1426 43.7177 24.4614 43.45 24.8314 43.2725C25.2015 43.095 25.6108 43.0136 26.021 43.0359C26.6066 43.001 27.1937 43.074 27.7526 43.2512C27.9551 43.2791 28.1449 43.3652 28.2989 43.4989C28.4528 43.6326 28.5641 43.8081 28.619 44.0038C28.6415 44.0783 28.6432 44.1575 28.6241 44.2329C28.6049 44.3084 28.5656 44.3773 28.5102 44.4323C28.4548 44.4873 28.3855 44.5264 28.3096 44.5455C28.2337 44.5645 28.154 44.5628 28.079 44.5405C27.7397 44.482 27.4112 44.3731 27.1046 44.2172C26.5634 44.002 24.104 43.9972 24.3986 45.8309ZM35.7661 35.0724C36.965 35.5918 37.5903 36.6807 37.1733 37.8698C37.0605 38.1912 36.632 38.1924 36.524 37.7613C36.8486 35.2865 33.28 35.949 31.9767 36.2549C30.0342 36.7117 27.8482 36.8185 26.0228 35.7182C23.2468 34.0449 24.1037 32.6274 24.399 32.9208C24.8116 33.0591 25.0936 33.3691 25.3829 33.6873C25.5489 33.8698 25.7173 34.0549 25.9141 34.2119C27.7246 35.2912 29.1551 35.6127 31.652 35.1803C31.846 35.1463 32.0451 35.1076 32.2477 35.0682C33.4004 34.8441 34.6683 34.5977 35.7661 35.0724ZM31.1103 39.5914C30.9904 39.1962 30.7485 38.8484 30.4187 38.5974C30.089 38.3463 29.6881 38.2046 29.2729 38.1924C28.251 38.0783 27.2163 38.1884 26.2419 38.515C24.004 39.0189 22.583 38.1523 21.5231 37.5059L21.5231 37.5059L21.523 37.5059C21.1881 37.3016 20.8893 37.1194 20.6121 37.0093C20.2874 36.9013 19.532 36.794 19.8542 37.4392C20.7201 39.1609 23.427 39.9141 25.1588 39.8061C25.6822 39.7735 26.2552 39.6132 26.8387 39.4499C28.1861 39.073 29.5902 38.6801 30.5721 39.8061C30.8931 40.1293 31.2183 39.9147 31.1103 39.5914ZM25.0829 41.0584C25.4069 41.1723 25.6936 41.3717 25.9123 41.6351C25.9357 41.6801 25.9441 41.7312 25.9363 41.7812C25.9285 41.8313 25.9049 41.8775 25.8688 41.9133C25.8328 41.9491 25.7863 41.9725 25.736 41.9803C25.6857 41.9881 25.6342 41.9798 25.5889 41.9565C25.2159 41.832 24.8208 41.7868 24.4291 41.8237C24.0374 41.8607 23.6579 41.9791 23.3152 42.1712C21.0764 43.3854 17.2161 42.3507 17.0361 40.5575C17.0304 40.4674 17.0503 40.3775 17.0935 40.298C17.1366 40.2185 17.2013 40.1526 17.2802 40.1078C17.3592 40.0631 17.4491 40.0412 17.54 40.0447C17.6308 40.0481 17.7188 40.0769 17.794 40.1275C18.0826 40.3187 18.2784 40.5097 18.4614 40.6883C19.0006 41.2145 19.4298 41.6333 21.8001 41.6333C22.2549 41.5763 22.65 41.4307 23.0325 41.2899C23.3781 41.1625 23.7134 41.039 24.0731 40.9881C24.4099 40.9201 24.759 40.9444 25.0829 41.0584ZM80.0439 82.3031C80.0439 81.12 80.0439 79.9362 79.9359 78.7531C79.9359 76.2783 79.8278 73.9114 79.6112 71.4372C79.5735 70.2432 79.4285 69.0549 79.178 67.8866C79.07 67.564 78.7447 67.6713 78.7447 67.8866C78.6917 68.4848 78.6809 69.086 78.7123 69.6857C74.5873 72.6264 69.2189 75.547 65.4893 77.576L65.4891 77.5762C63.3125 78.7603 61.6942 79.6407 61.2071 80.0442C61.081 80.2428 61.3151 80.3668 61.6397 80.3668C63.1453 79.9389 67.5267 77.5687 69.6024 76.4458C70.0085 76.2262 70.3264 76.0542 70.5171 75.9539C72.9467 74.6802 75.2545 73.1723 77.5633 71.6637L77.5664 71.6617L77.5666 71.6615L77.5668 71.6614C77.9592 71.405 78.3517 71.1486 78.7447 70.8933C78.7967 78.438 78.8177 79.6535 78.83 80.3643C78.8396 80.9176 78.8439 81.1651 78.8533 83.8542C78.3173 84.0836 77.8244 84.4393 77.2428 84.859C76.7767 85.1953 76.2536 85.5727 75.6057 85.9593C74.3786 86.8132 68.2291 90.9328 65.6446 92.522C64.2335 93.2192 62.8921 94.0478 61.6385 94.9968C61.4219 95.2121 61.6385 95.5335 61.8551 95.4268C65.3209 94.3674 71.889 89.7947 75.4639 87.3058L75.4641 87.3057L75.4641 87.3056C76.6001 86.5148 77.4338 85.9344 77.7696 85.744C77.8734 85.6753 77.9798 85.6066 78.0876 85.537L78.088 85.5368L78.0882 85.5367L78.089 85.5361L78.0893 85.5359C78.3687 85.3555 78.6576 85.1689 78.9355 84.961C78.9652 85.1183 79.0098 85.2724 79.0688 85.4214C79.1019 85.4936 79.1552 85.5549 79.2224 85.5978C79.2896 85.6408 79.3678 85.6636 79.4477 85.6636C79.5276 85.6636 79.6058 85.6408 79.673 85.5978C79.7402 85.5549 79.7935 85.4936 79.8266 85.4214C80.1549 84.6899 80.1108 83.8344 80.0698 83.0419L80.0698 83.0414C80.0567 82.7867 80.0439 82.5386 80.0439 82.3031ZM104.186 34.4283C104.256 32.8122 104.186 30.9856 103.105 29.6946C101.968 28.3583 100.139 27.9061 98.4682 27.493L98.234 27.435C96.678 27.0328 91.5984 25.6974 85.0874 23.9857L85.083 23.9845L85.0826 23.9845L85.0825 23.9844C68.9397 19.7406 44.004 13.1853 42.1526 12.802C41.1349 12.5262 40.0378 12.3298 38.9966 12.1433C38.8198 12.1116 38.6447 12.0803 38.4718 12.0489C37.5653 11.906 36.6376 11.9798 35.7655 12.2641C35.3242 12.4891 34.9511 12.8269 34.6847 13.2426C34.4183 13.6584 34.2682 14.1372 34.2497 14.6298C33.9134 18.6423 34.3583 23.7644 34.746 28.2273C34.799 28.8371 34.8509 29.4347 34.8996 30.0154C34.896 30.0457 34.8989 30.0765 34.9081 30.1057C34.9173 30.1348 34.9327 30.1617 34.9531 30.1846C34.9735 30.2074 34.9986 30.2257 35.0267 30.2382C35.0547 30.2508 35.0851 30.2572 35.1159 30.2572C35.1467 30.2572 35.1771 30.2508 35.2051 30.2382C35.2332 30.2257 35.2583 30.2074 35.2787 30.1846C35.2991 30.1617 35.3145 30.1348 35.3237 30.1057C35.3329 30.0765 35.3358 30.0457 35.3322 30.0154C35.3 28.4824 35.1918 26.7908 35.0791 25.0304C34.8597 21.6039 34.6237 17.9165 34.8996 14.6298C34.9289 14.1152 35.1407 13.6275 35.4973 13.2533C35.854 12.8791 36.3325 12.6425 36.848 12.5856C37.8753 12.5624 38.8994 12.7079 39.879 13.0161C45.5569 14.1913 53.5465 16.4236 59.4102 18.0619L59.4107 18.062C60.7056 18.4238 61.8969 18.7567 62.9367 19.0427C74.9518 22.2764 83.0639 24.4433 88.5715 25.9144L88.5722 25.9146L88.5743 25.9151L88.5746 25.9152C99.5122 28.8367 100.176 29.0139 100.739 29.3555C100.776 29.3776 100.812 29.4003 100.85 29.4245C100.877 29.4418 100.906 29.4597 100.936 29.4787C103.254 30.8218 103.034 33.4197 102.796 36.2361L102.777 36.472C102.777 36.5561 102.768 36.8817 102.755 37.3807C102.696 39.6403 102.545 45.4561 102.669 48.5216C102.738 51.9874 103.212 70.952 103.541 84.0906L103.541 84.0965C103.722 91.3463 103.859 96.8208 103.859 96.9355C103.116 96.671 102.357 96.4555 101.585 96.2903C101.151 96.1822 100.743 96.0473 100.335 95.9124C99.9312 95.7787 99.5269 95.6449 99.0957 95.5371C94.4411 94.1143 90.5249 92.6916 86.9995 91.4107C83.1367 90.0073 79.7429 88.7744 76.3609 87.8986C76.3035 87.8701 76.2371 87.8654 76.1763 87.8856C76.1154 87.9058 76.0652 87.9492 76.0365 88.0062C76.0079 88.0632 76.0032 88.1292 76.0235 88.1897C76.0438 88.2501 76.0875 88.3001 76.1448 88.3285C79.0642 89.5808 82.0993 90.724 85.1231 91.8332C85.2537 92.6545 85.4051 93.4641 85.5532 94.2559L85.5534 94.2567L85.5535 94.2571L85.5535 94.2575C86.5181 99.4138 87.341 103.813 81.3426 105.758C80.3076 106.093 79.2436 106.535 78.1581 106.985C75.3515 108.149 72.4008 109.373 69.4342 108.985C67.9695 108.765 66.5225 108.442 65.1041 108.017C58.7939 106.55 52.6051 104.608 46.5914 102.207C45.6365 101.945 44.7249 101.546 43.885 101.024C41.936 99.8403 42.9051 99.2893 43.4518 99.0871C45.9814 98.1531 48.6526 97.622 51.3192 97.0919L51.3193 97.0919L51.3199 97.0918L51.3203 97.0917L51.3208 97.0916C52.2732 96.9022 53.2251 96.713 54.1696 96.5056C54.6598 96.3869 55.1327 96.2066 55.5768 95.9688C55.652 95.9218 55.7099 95.8518 55.7416 95.7693C55.7734 95.6869 55.7774 95.5964 55.7529 95.5115C55.7285 95.4266 55.677 95.3518 55.6062 95.2985C55.5354 95.2451 55.4491 95.2161 55.3602 95.2157C51.7812 95.7553 48.2383 96.5097 44.7509 97.4746C44.4999 97.5497 44.2135 97.6189 43.9123 97.6917C42.9172 97.9321 41.7599 98.2117 41.1781 98.8736C39.6153 100.568 43.9551 102.208 47.1441 103.413C47.7363 103.637 48.2888 103.846 48.7564 104.037C54.7505 106.303 60.9012 108.137 67.1606 109.524C68.6748 109.938 70.2507 110.084 71.8159 109.954C73.8888 109.748 75.7482 109.012 77.7228 108.23L77.9871 108.125C79.7057 107.446 81.4513 106.727 83.1831 105.974C84.6411 105.385 85.8863 104.372 86.7559 103.069C88.5885 99.6173 87.3271 95.6534 86.0358 92.1672L86.3565 92.2846L86.967 92.5084L86.9677 92.5086L86.9686 92.5089C90.7435 93.8933 97.6408 96.4228 100.939 97.1514C101.992 97.5381 103.08 97.8262 104.187 98.0119C104.263 98.0094 104.338 97.9889 104.404 97.952C104.471 97.9151 104.528 97.863 104.57 97.7999C104.613 97.7368 104.639 97.6646 104.648 97.5893C104.656 97.5139 104.647 97.4376 104.62 97.3667C105.015 95.3088 105.232 93.2212 105.269 91.1266C105.057 82.2876 104.802 74.6885 104.576 67.963L104.575 67.9615C104.111 54.1588 103.771 44.0361 104.186 34.4283ZM79.8281 102.957C79.0702 102.85 67.4865 99.6226 64.5629 98.6542C64.2383 98.5486 64.4549 98.1175 64.6715 98.2236C66.4486 98.6023 70.1982 99.5354 73.302 100.308L73.3038 100.308L73.3039 100.308C75.4932 100.853 77.3608 101.318 77.9877 101.452C78.745 101.561 81.6685 102.204 82.3178 102.635C82.3931 102.682 82.4509 102.752 82.4826 102.834C82.5144 102.917 82.5184 103.007 82.4939 103.092C82.4695 103.177 82.418 103.252 82.3472 103.305C82.2764 103.358 82.1901 103.388 82.1012 103.388C81.3217 103.402 80.5478 103.255 79.8281 102.957ZM69.218 69.9308C69.4811 70.1476 69.7723 70.3281 70.0838 70.4675C70.5704 70.6287 71.1519 70.9475 71.6878 71.2413C72.3693 71.6148 72.9772 71.9481 73.223 71.866C73.2703 71.8596 73.3153 71.8419 73.354 71.8143C73.3928 71.7868 73.4243 71.7502 73.4456 71.7079C73.467 71.6655 73.4776 71.6186 73.4765 71.5712C73.4755 71.5238 73.4628 71.4774 73.4396 71.436C73.2919 70.8474 71.7813 70.3166 70.9309 70.0178C70.6863 69.9319 70.4963 69.8651 70.409 69.8217C70.0592 69.7066 69.6965 69.6345 69.329 69.607C69.1598 69.5999 69.0014 69.7156 69.218 69.9308ZM72.682 67.7787C75.2065 68.5551 76.2494 68.9367 76.3628 69.5003C76.4694 69.6062 76.3668 69.7115 76.2632 69.818L76.2572 69.8241C75.979 69.9625 75.4926 69.7668 74.5956 69.406C74.0089 69.1699 73.2465 68.8632 72.2518 68.533C71.8695 68.3697 71.5147 68.2343 71.1597 68.0988C70.8108 67.9656 70.4617 67.8324 70.0861 67.6725C69.5866 67.5166 69.1094 67.2973 68.6663 67.0201C68.6798 67.6375 68.6796 68.262 68.6791 69.638C68.6791 69.9179 68.6789 70.2289 68.6789 70.5773C68.6789 70.6668 68.6882 70.77 68.698 70.8801C68.7357 71.3025 68.7827 71.8277 68.3543 72.0836C68.2942 72.1356 68.2173 72.1642 68.1377 72.1642C68.0581 72.1642 67.9811 72.1356 67.9211 72.0836C67.6568 71.821 67.6792 71.2731 67.6967 70.8461C67.7007 70.7486 67.7044 70.6573 67.7044 70.5773C67.7044 69.2237 67.6597 68.0045 67.611 66.6754C67.5526 65.0827 67.4884 63.3319 67.4884 61.0024C67.5648 59.6253 67.4186 58.245 67.0552 56.9139C66.8803 56.5738 66.6358 56.2738 66.3375 56.033C66.0392 55.7921 65.6936 55.6159 65.3228 55.5155C64.4122 55.1184 63.4711 54.7946 62.5084 54.5471C62.0752 54.4391 61.3173 54.5471 61.3173 55.1923C61.3173 55.2993 61.3442 55.3797 61.3712 55.4603C61.3983 55.5409 61.4253 55.6216 61.4253 55.729C61.4253 56.5127 58.801 55.5349 57.5703 55.0764C57.2801 54.9682 57.0673 54.889 56.9848 54.8685C55.2524 54.2203 53.4119 53.6835 51.5715 53.1468C51.5148 53.9846 51.3696 54.8141 51.1383 55.6217C51.0291 55.8369 50.597 55.9443 50.489 55.6217C50.3806 54.5844 50.3806 53.5388 50.489 52.5016C50.5012 52.43 50.528 52.3616 50.5678 52.3006C50.6075 52.2397 50.6594 52.1874 50.7202 52.1471C50.781 52.1068 50.8494 52.0793 50.9213 52.0662C50.9932 52.0531 51.0671 52.0547 51.1383 52.071C53.1754 52.6978 55.4417 53.4309 57.2536 54.0171C59.1517 54.6311 60.5511 55.0838 60.6656 55.0838C60.694 54.8287 60.7888 54.5854 60.9406 54.3778C61.0924 54.1702 61.2961 54.0055 61.5315 53.9C62.0715 53.7746 62.6369 53.8122 63.1553 54.008C63.701 54.2248 64.2207 54.394 64.7046 54.5516C66.053 54.9907 67.1231 55.3391 67.702 56.3748C68.0126 56.9148 68.0451 57.5099 68.0783 58.1207C68.0914 58.3619 68.1047 58.6054 68.1353 58.849C68.3759 61.1211 68.6459 66.3576 68.6459 66.4172C69.0193 66.4825 69.3928 66.6238 69.7663 66.765C70.0166 66.8597 70.2668 66.9543 70.517 67.0261C70.9237 67.1419 71.3008 67.2836 71.6791 67.4257C72.0058 67.5484 72.3334 67.6715 72.682 67.7787Z" fill="#4D4D4D"/>
</svg>
