<svg width="120" height="120" viewBox="0 0 120 120" fill="none" xmlns="http://www.w3.org/2000/svg">
<g clip-path="url(#clip0_348_36140)">
<path fill-rule="evenodd" clip-rule="evenodd" d="M108.993 22.969C111.947 23.7058 115.198 24.5166 116.321 27.0294C117.68 30.0706 115.44 33.4086 113.685 35.7497C109.333 41.5715 104.965 45.5544 99.6586 50.3927L99.2531 50.7625C98.9914 50.9952 98.6058 50.6182 98.865 50.3773C99.197 50.0755 99.2651 50.0258 99.3339 49.9756C99.4024 49.9256 99.4716 49.8751 99.8024 49.575C104.542 45.2315 110.936 39.1798 114.412 33.8C115.376 32.4576 115.983 30.8954 116.175 29.2583C116.226 28.4789 116.059 27.7007 115.694 27.0088C115.329 26.3169 114.779 25.7379 114.105 25.3351C112.73 24.5856 111.251 24.0422 109.715 23.7223C100.089 21.1164 85.4338 18.382 81.1986 17.7365C76.9793 17.0841 74.7277 17.993 71.4799 20.8416C69.5257 22.5507 67.8335 24.1463 65.6204 26.2329C64.3658 27.4159 62.9438 28.7567 61.2118 30.3655L61.074 29.7639C61.9089 28.9906 64.1217 26.9332 66.1704 25.0284L66.1726 25.0264L66.1789 25.0205C67.8001 23.5132 69.3171 22.1028 69.9653 21.5016C72.6531 18.993 75.1012 17 78.7947 17C80.7228 17.0957 82.6385 17.3615 84.5191 17.7942C92.418 19.2389 100.328 20.7149 108.103 22.7449C108.395 22.82 108.692 22.8941 108.993 22.969ZM76.1858 21.5737C77.9246 20.842 79.8498 21.09 81.8133 21.343L81.9829 21.3648C85.0515 21.768 86.9262 22.1359 89.0736 22.5572C90.1735 22.773 91.345 23.0028 92.7851 23.2587C99.3198 24.4235 103.357 25.6389 109.044 27.3509C110.095 27.6673 111.202 28.0006 112.392 28.3537C112.461 28.3686 112.534 28.3565 112.594 28.32C112.655 28.2835 112.699 28.2253 112.718 28.1574C112.736 28.0895 112.728 28.0171 112.695 27.9551C112.661 27.8931 112.605 27.8463 112.537 27.8242C111.15 27.412 109.927 27.0459 108.828 26.7171L108.828 26.717C100.253 24.1508 99.2671 23.8556 86.9311 21.5819C84.6143 21.1233 82.2745 20.7883 79.9216 20.5782C78.6775 20.4224 77.4141 20.5486 76.2262 20.947C76.2308 21.1567 76.2172 21.3663 76.1858 21.5737ZM91.9281 52.2887C91.7505 52.455 91.4755 52.1846 91.6531 52.0158C95.2676 48.6026 109.775 34.1808 112.788 30.1591C113.516 29.1962 114.373 27.8242 113.839 26.6123C113.75 26.4122 114.025 26.2434 114.138 26.436C114.875 27.7119 114.033 29.2445 113.257 30.3197C110.014 34.7759 97.5369 47.0081 93.1666 51.2927L93.1329 51.3258C92.9111 51.5372 92.7215 51.6712 92.5325 51.8048C92.3413 51.94 92.1507 52.0748 91.9281 52.2887ZM55.205 70.1978C53.3858 69.8446 51.5748 69.4595 49.7638 69.0743C49.6864 72.8615 49.6581 81.4431 49.6487 84.3063C49.6472 84.7435 49.6462 85.0474 49.6455 85.1805C49.6538 85.1805 49.6598 85.1824 49.6658 85.1842C49.6718 85.1861 49.6778 85.188 49.686 85.188C50.9585 85.386 52.219 85.6538 53.4616 85.9903C53.6974 86.0706 53.6652 86.464 53.3984 86.4401C52.1328 86.2787 50.8774 86.0456 49.6386 85.7419C49.631 86.9809 49.5741 91.9523 49.5501 93.2069C49.5837 94.4475 49.5324 95.6888 49.3965 96.9225C49.3472 97.1797 48.9919 97.0824 48.9679 96.866C48.9234 96.1419 48.9234 95.4158 48.9679 94.6918C48.9837 93.9772 49.0811 86.5875 49.0893 85.6409C47.6822 85.3574 38.5052 83.5921 35.3199 83.0062C35.3661 83.9453 35.5702 88.1414 35.6189 89.305C35.6317 89.6221 35.6487 89.9413 35.6658 90.2616L35.6659 90.2617L35.6659 90.2618C35.7142 91.1654 35.7629 92.0776 35.7163 92.9723C35.7163 93.0393 35.6894 93.1037 35.6417 93.1511C35.5939 93.1985 35.5291 93.2251 35.4615 93.2251C35.394 93.2251 35.3292 93.1985 35.2814 93.1511C35.2336 93.1037 35.2068 93.0393 35.2068 92.9723C35.1047 92.0471 35.086 91.105 35.0674 90.1639V90.1638C35.0594 89.7592 35.0514 89.3547 35.0367 88.9519C34.9959 87.8285 34.8476 84.8101 34.7814 83.4619L34.7536 82.8939C33.3526 82.6345 25.3316 81.2175 22.5257 80.7218C21.9462 80.6195 21.5892 80.5564 21.5588 80.5509C22.0752 84.9394 22.3876 87.2464 22.5714 88.604C22.7758 90.1129 22.8213 90.449 22.8116 91.1669C22.8087 91.2177 22.7881 91.2658 22.7532 91.3031C22.7183 91.3403 22.6714 91.3643 22.6206 91.3709C22.5699 91.3776 22.5183 91.3664 22.4749 91.3393C22.4316 91.3123 22.3991 91.271 22.3831 91.2227C22.1081 89.8802 21.9218 88.5213 21.8255 87.1546C21.765 86.6663 21.6554 85.7857 21.5346 84.8147L21.532 84.7944L21.5318 84.7921C21.3137 83.04 21.0601 81.0024 20.9924 80.4468C20.6526 80.3917 20.3122 80.3375 19.9715 80.2833L19.9706 80.2832L19.9697 80.283L19.9688 80.2829L19.9679 80.2827L19.967 80.2826C18.1273 79.9899 16.2815 79.6963 14.4816 79.243C14.3034 79.2016 14.3362 78.913 14.5221 78.9293C15.764 79.0269 16.9157 79.2204 19.0981 79.587L19.0993 79.5872L19.1031 79.5878L19.1084 79.5887L19.1128 79.5894C19.6493 79.6796 20.248 79.7801 20.9254 79.8923C20.7241 78.2637 20.3616 75.3385 19.994 72.3722L19.9932 72.3655L19.9931 72.365L19.9907 72.3454L19.9865 72.3119L19.9848 72.2982L19.9834 72.2868C19.4832 68.25 18.9763 64.1595 18.8559 63.1782C16.3249 62.7453 13.8021 62.3037 11.28 61.8144C11.0695 61.7743 11.1181 61.4211 11.328 61.4449C13.8185 61.7743 16.3009 62.1751 18.7832 62.6004C18.4184 59.6295 18.0708 56.6548 17.7718 53.6701C17.7478 53.4693 18.0948 53.421 18.127 53.6218C18.4617 55.9187 19.0561 60.5966 19.2572 62.1796L19.2573 62.1799C19.2943 62.4713 19.318 62.6578 19.3243 62.7052C19.8495 62.793 29.4545 64.4943 33.7238 65.2966C33.5791 62.8181 33.4122 58.9395 33.471 56.4465C33.471 56.4049 33.4876 56.365 33.5173 56.3356C33.5469 56.3062 33.5871 56.2897 33.629 56.2897C33.6709 56.2897 33.7111 56.3062 33.7408 56.3356C33.7704 56.365 33.7871 56.4049 33.7871 56.4465C33.9267 58.227 34.0028 59.891 34.0924 61.8496V61.8497L34.0924 61.8498C34.1414 62.9226 34.1945 64.0837 34.2643 65.4008C35.5658 65.6416 48.3971 68.2011 49.2138 68.3698C49.3029 65.1668 49.4464 61.9656 49.6993 58.772C49.7151 58.5392 50.071 58.5392 50.0627 58.772C49.9742 61.6927 49.7802 68.1678 49.772 68.489C51.6392 68.8742 53.4989 69.2694 55.3428 69.7085C55.6658 69.7888 55.5286 70.2605 55.205 70.1978ZM20.9854 76.2391C21.2233 78.1698 21.4017 79.6171 21.4494 79.9951C25.5405 80.6714 30.7959 81.6224 34.6663 82.33C34.5556 80.2214 34.3092 75.9777 34.0956 72.2985C33.9191 69.2569 33.7649 66.6012 33.7283 65.8568C32.0007 65.5281 22.4273 63.8111 19.3793 63.2892C19.7548 66.2531 20.4961 72.2684 20.9854 76.2391ZM35.0936 79.9257C35.1695 81.2001 35.2246 82.1246 35.2428 82.4416V82.4423C37.0039 82.7666 45.2081 84.2947 49.0444 85.0751C49.0494 83.9587 49.0526 82.8417 49.0559 81.7243C49.0683 77.4674 49.0806 73.2056 49.1898 68.9532C47.985 68.6966 38.0481 66.6748 34.2807 65.9609C34.4504 69.1318 34.8658 76.103 35.0936 79.9257ZM114.324 58.5574C112.657 59.0169 111.735 59.2204 106.523 60.3716C105.63 60.5688 104.611 60.7939 103.441 61.0529C103.608 59.6356 103.74 58.5297 103.845 57.653L103.845 57.6511C104.193 54.7413 104.239 54.3585 104.25 53.5019C104.248 53.4766 104.241 53.4519 104.228 53.4298C104.215 53.4077 104.198 53.3886 104.177 53.3739C104.156 53.3593 104.132 53.3495 104.107 53.3453C104.082 53.3411 104.056 53.3425 104.031 53.3495C103.956 53.7451 103.859 54.1363 103.741 54.5213C103.66 55.0646 102.957 60.8132 102.916 61.1708L102.728 61.2118C102.388 61.2864 102.052 61.3601 101.711 61.428C102.275 61.6992 102.804 62.0361 103.287 62.4317C103.299 62.3362 103.31 62.2397 103.321 62.1428L103.321 62.1412C103.342 61.962 103.363 61.7817 103.385 61.6049C104.922 61.263 106.174 60.9906 107.245 60.7578L107.246 60.7576L107.246 60.7576L107.246 60.7575L107.246 60.7575C110.342 60.0842 111.919 59.7413 114.461 59.0053C114.516 58.9829 114.559 58.9412 114.585 58.8885C114.61 58.8357 114.614 58.7756 114.597 58.7198C114.58 58.664 114.542 58.6165 114.492 58.5865C114.442 58.5565 114.382 58.5461 114.324 58.5574ZM107.987 75.8201C109.142 75.5282 110.297 75.236 111.47 75.0281C111.524 75.024 111.577 75.0395 111.621 75.0717C111.664 75.104 111.694 75.1507 111.705 75.2033C111.716 75.2559 111.708 75.3107 111.681 75.3575C111.655 75.4043 111.612 75.44 111.561 75.4578C110.46 75.8092 109.805 75.9668 107.724 76.467L107.724 76.467L107.722 76.4674C106.378 76.7904 104.441 77.2562 101.406 78.0091C101.276 79.1407 101.139 80.2824 101.001 81.4116C100.93 82.0161 100.863 82.6217 100.796 83.2276C100.615 84.8574 100.434 86.4888 100.169 88.1031C100.12 88.3691 99.6758 88.3051 99.6917 88.0404C99.8165 86.3962 99.9685 85.1962 100.258 82.9116L100.258 82.9113L100.258 82.9084C100.411 81.7016 100.602 80.1922 100.848 78.1552L88.0159 81.3087L87.8865 82.2282L87.8864 82.2288C87.0186 88.3963 86.812 89.8644 86.4236 91.6267C86.4073 91.68 86.3725 91.7259 86.3252 91.756C86.278 91.7861 86.2215 91.7985 86.1658 91.7909C86.1102 91.7833 86.0591 91.7563 86.0218 91.7147C85.9845 91.6731 85.9633 91.6197 85.9621 91.564C86.0213 91.013 86.2284 89.6702 86.4895 87.9778L86.4897 87.9769C86.7889 86.0373 87.1589 83.6385 87.4583 81.4461C86.5703 81.6651 83.4582 82.428 80.3433 83.1916L80.2477 83.2151L80.2466 83.2153C77.6931 83.8413 75.1533 84.4639 73.8508 84.784C73.7626 85.6563 73.1895 91.1833 73.0353 92.6696L73.033 92.6921L73.0313 92.7081L73.0019 92.9924C72.979 93.5377 72.8942 94.0787 72.749 94.6052C72.7361 94.6447 72.7095 94.6785 72.674 94.7005C72.6385 94.7225 72.5963 94.7314 72.5548 94.7257C72.5133 94.7199 72.4752 94.6998 72.4471 94.669C72.4191 94.6381 72.4029 94.5984 72.4014 94.5569C72.3769 93.8558 72.4259 93.154 72.5474 92.4629C72.6118 91.8205 73.268 85.506 73.3312 84.9044H73.323C72.4585 85.1153 71.5948 85.3331 70.7308 85.551C68.5058 86.1122 66.2788 86.6738 64.0309 87.1189C63.9796 87.1292 63.9262 87.1198 63.8817 87.0924C63.8371 87.065 63.8048 87.0218 63.7913 86.9716C63.7779 86.9213 63.7842 86.8679 63.8091 86.8222C63.834 86.7764 63.8756 86.7419 63.9253 86.7255C66.4167 85.9936 68.9549 85.3902 71.4893 84.7878L71.492 84.7872C72.1237 84.637 72.7551 84.4869 73.3856 84.3349C73.7737 80.443 74.8084 69.3459 74.9538 67.6854C74.5661 67.7679 73.2846 68.0584 71.7311 68.4105L71.7301 68.4108L71.7294 68.4109C69.3629 68.9473 66.3661 69.6266 64.9361 69.9318C64.8943 69.9402 64.8508 69.9325 64.8145 69.9103C64.7782 69.8881 64.7518 69.8531 64.7405 69.8123C64.7293 69.7715 64.7341 69.7279 64.754 69.6905C64.7738 69.6531 64.8073 69.6245 64.8476 69.6106C66.3457 69.0542 73.2086 67.5386 75.0025 67.1553C75.2516 64.291 75.512 61.4349 75.8837 58.5944C75.9001 58.4062 76.1827 58.4018 76.1751 58.5944C76.0675 61.3109 75.7299 64.9335 75.5935 66.397C75.5607 66.7487 75.5396 66.9757 75.536 67.0355C78.0196 66.4903 85.311 64.9344 88.4457 64.2655L89.6044 64.0182C89.749 62.6205 89.8623 61.5192 89.9535 60.633C90.2627 57.6279 90.3173 57.0965 90.4779 55.8738C90.5829 56.099 90.696 56.3317 90.8174 56.5638C90.6983 58.6697 90.4857 60.7414 90.2786 62.7599L90.2786 62.7601C90.2395 63.1412 90.2006 63.5205 90.1625 63.8977C90.2466 63.8818 90.3289 63.8639 90.4112 63.846C90.4946 63.8279 90.5782 63.8097 90.6638 63.7936C90.131 64.4702 89.7031 65.2221 89.3945 66.0243C89.4228 65.7784 89.4491 65.5326 89.4755 65.2866L89.4758 65.2833L89.4759 65.2831C89.5018 65.0407 89.5278 64.7983 89.5557 64.5558C87.3161 65.0313 77.9456 67.0374 75.4956 67.5668C75.1074 71.9066 74.0404 82.9874 73.9191 84.1906C74.0727 84.1504 83.1606 81.9197 87.5506 80.8451C88.0222 77.5095 88.4562 74.1689 88.8528 70.8232C88.931 71.2756 89.0612 71.7176 89.2409 72.1406C89.014 73.9541 88.2624 79.667 88.117 80.7021L90.842 80.0339C94.0721 79.242 99.0187 78.0292 100.94 77.5568C100.948 77.5067 100.953 77.4569 100.959 77.4073C100.966 77.3524 100.972 77.2978 100.981 77.2431C101.17 77.1703 101.364 77.09 101.549 77.0022C101.534 77.1465 101.517 77.2833 101.501 77.4194C101.606 77.3947 102.421 77.1938 103.42 76.9477C104.581 76.6615 105.991 76.3141 106.821 76.1114C107.21 76.0165 107.599 75.9183 107.987 75.8201ZM119.928 47.0331C119.935 46.9673 119.916 46.9012 119.875 46.8488C119.835 46.7964 119.775 46.7617 119.709 46.7521C119.027 46.6862 106.547 45.2196 106.482 45.2114C105.414 46.2709 104.388 47.2577 103.345 48.2369C103.561 48.3791 103.722 48.5918 103.797 48.8385C103.903 49.1919 103.99 49.5508 104.056 49.9137C106.83 49.4483 117.204 47.6749 119.596 47.2094C119.616 47.2034 119.638 47.2008 119.659 47.2019C119.261 49.3626 118.88 51.5258 118.5 53.6888L118.5 53.6892C117.975 56.6755 117.449 59.6613 116.878 62.6393C116.352 65.3722 115.206 70.9555 114.14 76.1491L114.14 76.1506L114.139 76.1519C112.989 81.7532 111.932 86.9006 111.849 87.5291C111.785 87.5505 61.579 101.33 60.596 101.581C60.5739 101.56 14.1811 91.9391 12.7797 91.8318C12.7797 91.7851 12.3172 89.2403 11.7564 86.1551L11.7564 86.155L11.7564 86.1547C11.0077 82.0356 10.084 76.9534 9.85236 75.5676C9.34653 72.5358 8.37752 65.8474 7.53735 60.0483L7.53735 60.0482C6.88769 55.5641 6.31507 51.6117 6.09318 50.2926C6.06094 50.1082 5.74551 50.1483 5.76132 50.3409C6.48825 59.4507 11.9421 91.6524 12.3593 92.0646C12.3684 92.0889 12.3836 92.1105 12.4033 92.1274C12.4231 92.1443 12.4469 92.1559 12.4725 92.1612C14.7443 92.6423 57.3292 101.597 59.8179 101.934C59.9144 101.947 60.0134 101.946 60.1109 101.945C60.1928 101.944 60.2738 101.943 60.3514 101.95C60.4484 102.047 60.6009 102.005 61.3323 101.806L61.3323 101.806L61.3328 101.806C61.5542 101.745 61.8286 101.671 62.1706 101.581C63.4563 101.244 112.032 87.9808 112.089 87.9645C112.118 87.9599 112.146 87.9489 112.17 87.9323C112.194 87.9157 112.215 87.8939 112.229 87.8685C112.244 87.8431 112.253 87.8148 112.255 87.7856C112.257 87.7564 112.253 87.7271 112.242 87.6998C112.891 85.5744 118.239 58.3128 118.768 55.3305C119.244 52.6262 119.716 49.9143 119.996 47.1862C120.003 47.1567 120 47.1258 119.988 47.0981C119.976 47.0705 119.954 47.0477 119.928 47.0331ZM71.9978 41.8314C72.0454 41.447 72.0747 41.2101 72.0789 41.1678C72.1454 41.1661 72.1607 41.1615 72.1764 41.1591C72.301 41.1406 72.4476 41.2694 98.275 44.2441C97.264 45.2549 96.2048 46.3061 95.0974 47.3976C94.9974 47.2657 94.8679 47.1586 94.7192 47.0848C94.5705 47.011 94.4065 46.9725 94.2402 46.9723H94.1675C91.2971 47.1567 89.5834 49.9652 89.6397 52.4681C89.6397 52.4963 89.6417 52.5244 89.6438 52.5525C89.6458 52.5806 89.6479 52.6086 89.6479 52.6369C88.84 52.7855 63.1989 57.464 63.1281 57.4753C63.1604 59.7782 63.0719 62.081 62.9828 64.3757C62.8367 68.0549 61.1667 97.2669 60.6136 100.916C60.5814 101.125 60.2577 101.061 60.2577 100.868C60.2538 99.4807 60.4156 97.1829 60.7002 93.1412C61.0088 88.7596 61.4617 82.3282 62.0042 72.7848L62.0329 72.2863C62.315 67.3821 62.5981 62.4619 62.6996 57.5412C61.893 57.6616 6.78395 49.4878 6.71758 49.4771L6.11075 49.5254C5.88445 49.5417 5.89267 49.1992 6.11075 49.1804C6.44599 49.1521 10.8024 48.6303 13.5609 48.2999C14.7814 48.1537 15.6891 48.045 15.7973 48.033C15.8406 48.1556 15.9155 48.2647 16.0146 48.3495C16.1137 48.4342 16.2335 48.4917 16.362 48.5161C16.4906 48.5405 16.6233 48.5309 16.7469 48.4884C16.8706 48.4459 16.9808 48.372 17.0666 48.2739C17.1028 48.3278 17.1432 48.4062 17.1901 48.497C17.376 48.8572 17.6628 49.4131 18.1905 49.4131C18.2935 49.4115 18.395 49.3883 18.4883 49.3451C18.5817 49.3019 18.6648 49.2395 18.7322 49.1622C18.7618 49.1238 18.7888 49.0836 18.8131 49.0418C18.9453 49.07 19.083 49.0589 19.2088 49.0098C19.2194 49.0243 19.2266 49.036 19.2346 49.049C19.239 49.0562 19.2436 49.0638 19.2493 49.0725C19.3065 49.1599 19.3826 49.2336 19.472 49.2883C19.5615 49.343 19.662 49.3774 19.7664 49.3889C19.8708 49.4004 19.9765 49.3888 20.0758 49.3549C20.1752 49.321 20.2657 49.2657 20.3409 49.1929C20.4417 49.2511 20.5551 49.2845 20.6716 49.2903C20.788 49.296 20.9042 49.274 21.0103 49.226C21.1164 49.178 21.2094 49.1055 21.2814 49.0145C21.3535 48.9235 21.4025 48.8167 21.4244 48.703C21.4589 48.2518 21.4125 47.7981 21.2872 47.3631C24.4743 46.9861 38.8967 45.2371 45.3973 44.4429C46.1167 43.7529 55.2773 35.118 59.1667 31.5235L59.3038 32.1414L58.8639 32.553C54.6286 36.5157 50.3984 40.4734 46.0844 44.3539C47.7597 44.1476 49.459 43.9413 51.1161 43.7402C51.3943 43.7064 51.6712 43.6728 51.9467 43.6394C53.2929 42.15 54.76 40.7544 56.2205 39.3651C56.7008 38.9083 57.1804 38.4521 57.6547 37.9936C59.935 35.7834 61.9724 33.8064 63.7682 32.0638C69.6893 26.3182 72.9834 23.1218 73.6958 22.5235C73.6916 22.5445 73.6846 22.5788 73.6759 22.6221C73.6317 22.8408 73.5411 23.2894 73.51 23.4224C73.1756 23.7158 69.9873 26.8062 66.1896 30.4874C60.577 35.9277 53.633 42.6585 52.6015 43.5591C55.1584 43.2498 70.7679 41.334 71.5934 41.1916C71.3311 42.6953 70.5511 49.7839 70.4209 51.1094C70.2251 52.3649 70.1334 53.6342 70.1465 54.9046C70.1623 55.0972 70.4537 55.1612 70.5018 54.9529C70.7249 53.7415 70.8629 52.5161 70.9145 51.2856C71.2466 47.9002 71.7924 43.4908 71.9978 41.8314Z" fill="#417FDA"/>
<path fill-rule="evenodd" clip-rule="evenodd" d="M60.2904 32.4438C60.1608 31.8742 58.1716 23.0241 57.7032 20.7933C57.6602 20.6052 57.9617 20.5223 58.0022 20.7049C58.5521 22.9199 60.6216 31.7782 60.743 32.3158C60.9005 32.8388 61.0034 33.3765 61.0502 33.9204C61.0489 33.9586 61.0352 33.9953 61.0112 34.0252C60.9872 34.0551 60.9542 34.0765 60.9171 34.0863C60.8799 34.0962 60.8405 34.0939 60.8047 34.0798C60.7689 34.0658 60.7387 34.0407 60.7183 34.0083C60.5228 33.5025 60.3794 32.9783 60.2904 32.4438ZM44.1237 31.6756L44.1236 31.6755C43.1638 30.5966 42.2018 29.5154 41.355 28.3618C41.2729 28.2502 41.4517 28.1291 41.5409 28.2176C42.5692 29.2381 43.5173 30.3507 44.4615 31.4587C44.8238 31.8839 45.1856 32.3083 45.551 32.7267C46.7141 34.0618 47.5118 34.9736 48.0624 35.6031L48.0626 35.6034C49.1812 36.8821 49.2797 36.9947 49.3511 37.1225C49.3579 37.1349 49.3646 37.1474 49.3719 37.1611L49.3842 37.1843L49.3993 37.2119C49.4885 37.3644 49.2912 37.4848 49.1648 37.3882C49.1472 37.3749 49.1319 37.3637 49.1178 37.3533C49.105 37.3439 49.0932 37.3353 49.0815 37.3264C48.944 37.2217 48.8284 37.0882 47.3522 35.3817C46.8221 34.7688 46.1164 33.953 45.1711 32.8628C44.8261 32.4651 44.475 32.0705 44.1237 31.6756ZM72.7092 32.7587C73.4678 29.7143 74.0518 27.2496 74.763 23.9644C75.0176 23.0172 75.212 22.0551 75.3452 21.0838C75.3616 20.8918 75.0784 20.8755 75.0221 21.0443C74.7217 21.9927 74.4866 22.9604 74.3186 23.9406C74.0999 24.9116 72.8306 30.7368 72.4589 32.6947C72.4504 32.7276 72.4554 32.7626 72.4728 32.7919C72.4902 32.8212 72.5186 32.8424 72.5518 32.8509C72.585 32.8594 72.6203 32.8544 72.6498 32.8371C72.6793 32.8198 72.7007 32.7916 72.7092 32.7587ZM89.672 27.5056C86.9897 30.8263 84.0196 33.9077 80.7959 36.7145C80.7667 36.7402 80.7287 36.7537 80.6898 36.7523C80.6508 36.7509 80.6139 36.7347 80.5866 36.7071C80.5594 36.6794 80.5439 36.6424 80.5435 36.6037C80.543 36.565 80.5575 36.5276 80.5841 36.4993C81.1533 35.9348 81.7123 35.3961 82.2795 34.8495C84.0375 33.1555 85.8746 31.3853 88.3383 28.5325C88.6631 28.0956 89.0286 27.6901 89.4299 27.3211C89.4565 27.2955 89.4914 27.2803 89.5284 27.2782C89.5654 27.276 89.6019 27.2872 89.6312 27.3096C89.6606 27.3319 89.6809 27.364 89.6884 27.4C89.6959 27.436 89.6901 27.4735 89.672 27.5056ZM17.2603 47.2495C17.1674 47.2134 17.0673 47.1992 16.9679 47.2081C16.8685 47.2171 16.7726 47.2489 16.6878 47.3011C16.603 47.3533 16.5316 47.4244 16.4793 47.5088C16.4271 47.5932 16.3954 47.6885 16.3867 47.7871C16.3867 47.9076 16.589 47.9477 16.6136 47.8198C16.6344 47.7285 16.6873 47.6475 16.7629 47.5915C16.8384 47.5355 16.9317 47.5081 17.0258 47.5143C17.1357 47.5328 17.2402 47.5747 17.3323 47.6371C17.4244 47.6994 17.5018 47.7808 17.5593 47.8756C17.7143 48.1904 17.9052 48.4866 18.1282 48.7582C18.144 48.7735 18.1644 48.7833 18.1863 48.7861C18.2082 48.7889 18.2304 48.7846 18.2496 48.7738C18.2688 48.7629 18.284 48.7462 18.2927 48.7261C18.3015 48.7059 18.3034 48.6835 18.2982 48.6622C18.2167 48.3186 18.0593 47.9972 17.8374 47.7213C17.707 47.5015 17.5026 47.3345 17.2603 47.2495ZM16.9562 46.8487C17.166 46.3594 17.788 46.4165 18.1527 46.6962C18.6574 47.1017 18.9841 47.6853 19.0643 48.3247C19.0639 48.3491 19.0555 48.3726 19.0404 48.3919C19.0254 48.4111 19.0044 48.4249 18.9807 48.4313C18.957 48.4377 18.9319 48.4362 18.9091 48.4272C18.8863 48.4182 18.8671 48.402 18.8544 48.3812C18.7429 48.219 18.6588 48.0414 18.5741 47.8627L18.574 47.8626C18.4867 47.6784 18.3988 47.4929 18.2798 47.3217C18.0396 46.961 17.5213 46.5118 17.142 46.9848C17.0453 47.0996 16.9075 46.9528 16.9562 46.8487ZM18.2062 46.2308C18.1842 46.2437 18.1677 46.2642 18.1597 46.2882C18.1516 46.3123 18.1526 46.3385 18.1625 46.3619C18.1723 46.3853 18.1903 46.4044 18.2132 46.4157C18.2361 46.427 18.2623 46.4297 18.2871 46.4234C18.8775 46.2709 19.2352 47.1692 19.4028 47.5945C19.4917 47.9815 19.6163 48.3595 19.7751 48.7237C19.7846 48.7379 19.798 48.749 19.8138 48.7559C19.8295 48.7628 19.8468 48.7651 19.8638 48.7625C19.8808 48.7599 19.8967 48.7526 19.9096 48.7414C19.9226 48.7302 19.932 48.7156 19.9369 48.6992C20.1227 48.1296 19.684 47.2872 19.3952 46.7979C19.1442 46.3914 18.7251 45.9115 18.2062 46.2308ZM19.4105 46.2912C19.4175 46.2695 19.4321 46.251 19.4516 46.2389C20.3777 45.5621 20.9074 48.0763 20.8183 48.5863C20.8126 48.6063 20.8012 48.6241 20.7854 48.6376C20.7696 48.6512 20.7501 48.6598 20.7294 48.6624C20.7087 48.665 20.6877 48.6615 20.669 48.6523C20.6503 48.6431 20.6347 48.6287 20.6242 48.6108C20.5733 48.5 20.5262 48.2846 20.4707 48.0302L20.4707 48.0302C20.3144 47.315 20.0908 46.2912 19.5243 46.4152C19.5019 46.4202 19.4784 46.4171 19.458 46.4066C19.4377 46.396 19.4217 46.3786 19.413 46.3575C19.4043 46.3364 19.4034 46.3129 19.4105 46.2912ZM15.3038 30.8811C15.214 30.8429 15.1344 30.9533 15.1584 31.0254C15.2414 31.3758 15.6256 31.6653 15.917 31.8848L15.9801 31.9325C17.3879 33.0027 18.8531 32.9312 19.788 32.3089C20.1627 32.0062 20.4714 31.6309 20.6953 31.206C20.9191 30.7811 21.0535 30.3154 21.0901 29.8373C21.347 28.6924 21.3661 27.5076 21.1464 26.3551C21.1358 26.3184 21.1122 26.2866 21.0801 26.2656C21.0479 26.2446 21.0092 26.2357 20.971 26.2406C20.9328 26.2454 20.8976 26.2637 20.8718 26.2921C20.846 26.3204 20.8313 26.357 20.8304 26.3952C20.8712 27.3966 20.8389 28.3996 20.7336 29.3963C20.6072 30.2626 20.4176 31.314 19.6989 31.8999C18.8689 32.5811 17.4119 32.6526 16.0958 31.5467C15.9983 31.4704 15.909 31.3791 15.8192 31.2873C15.664 31.1285 15.5072 30.9682 15.3038 30.8811ZM18.0641 33.2806C18.2019 33.2404 18.243 33.4098 18.1532 33.4807C16.8644 34.4978 14.582 33.7261 12.9955 33.1896C12.8951 33.1557 12.7975 33.1227 12.7031 33.0911C10.9401 32.5134 8.98375 32.233 7.61712 33.7492C6.42052 35.081 6.09751 36.983 6.02482 38.6999C5.85625 41.2195 6.19137 43.7473 7.01092 46.1379C7.17857 46.592 7.39675 47.0134 7.61479 47.4345C7.75519 47.7057 7.89553 47.9767 8.0223 48.2564C8.04267 48.283 8.05155 48.3165 8.04698 48.3497C8.04242 48.3828 8.02479 48.4127 7.99796 48.4329C7.97114 48.4532 7.93732 48.462 7.90395 48.4574C7.87058 48.4529 7.84039 48.4354 7.82002 48.4088C7.23194 47.7496 6.80571 46.9642 6.57476 46.1141C5.69585 43.4355 5.39034 40.6042 5.67779 37.8016C5.84719 36.1888 6.2922 34.4637 7.49701 33.2919C8.83899 31.9921 10.65 32.0805 12.3314 32.5862C12.7315 32.7031 13.1311 32.841 13.5306 32.9789L13.5306 32.9789L13.5307 32.9789L13.5307 32.9789L13.5307 32.9789L13.5307 32.9789L13.5307 32.9789L13.5308 32.9789L13.5308 32.9789L13.5308 32.979L13.5308 32.979L13.5308 32.979L13.5309 32.979L13.5309 32.979L13.5309 32.979L13.5309 32.979L13.5309 32.979L13.5317 32.9792C13.6248 33.0114 13.718 33.0436 13.8112 33.0755C14.296 32.1166 14.5688 31.066 14.6115 29.9941C14.4267 29.9602 14.2577 29.8682 14.1297 29.7317C14.0016 29.5952 13.9212 29.4214 13.9004 29.2361C13.8795 29.0507 13.9194 28.8636 14.014 28.7025C14.1085 28.5413 14.2529 28.4146 14.4256 28.3411C14.2467 28.1636 14.0312 25.7064 15.3959 24.4575C16.305 23.6196 17.6692 23.4804 18.8451 23.3604L18.8643 23.3584C19.5915 23.2732 20.3249 23.2522 21.0559 23.2957C21.2844 23.2927 21.5108 23.3385 21.72 23.4298C21.9291 23.5212 22.1161 23.656 22.2683 23.8251C23.3934 25.3175 20.1222 26.8099 17.0457 26.2886C16.856 26.8313 16.5711 27.3365 16.2044 27.781C16.0167 28.0338 15.7582 28.2262 15.461 28.3342C15.4778 28.3487 15.4897 28.368 15.495 28.3894C15.5004 28.4108 15.4989 28.4333 15.4909 28.4539C15.4829 28.4745 15.4687 28.4921 15.4502 28.5043C15.4318 28.5166 15.4099 28.5229 15.3877 28.5224C15.2227 28.5021 15.0553 28.5151 14.8956 28.5606C14.7358 28.6061 14.5869 28.6832 14.4579 28.7872C14.3867 28.8559 14.3374 28.9437 14.316 29.0399C14.2945 29.1361 14.3019 29.2364 14.3372 29.3285C14.3724 29.4205 14.4341 29.5004 14.5145 29.5581C14.5949 29.6159 14.6906 29.649 14.7897 29.6535C14.8359 29.6563 14.8794 29.6758 14.9122 29.7082C14.9449 29.7407 14.9645 29.7839 14.9673 29.8298C15.0252 31.007 14.7359 32.1755 14.1349 33.1921C15.3921 33.6854 16.7856 33.7168 18.0641 33.2806ZM11.5685 39.8435C11.5607 39.8159 11.5431 39.792 11.5189 39.7762C11.4946 39.7605 11.4655 39.7541 11.4369 39.7581C11.4082 39.762 11.382 39.7762 11.3631 39.7979C11.3442 39.8196 11.3338 39.8474 11.334 39.8761C11.4212 41.182 11.6683 42.4724 12.0698 43.719C12.3732 44.6217 13.0653 46.3111 13.8327 46.8888C13.913 46.9516 13.9863 46.8324 13.9592 46.7634C13.8226 46.4551 13.6646 46.2029 13.4917 45.9268C12.9348 45.0376 12.2226 43.9004 11.5685 39.8435ZM20.6084 32.0829C20.6293 32.0606 20.6579 32.047 20.6885 32.0448C21.3839 32.0147 22.5482 32.2104 22.9585 32.8471C22.9692 32.8656 22.9742 32.8867 22.9729 32.908C22.9716 32.9293 22.9641 32.9497 22.9513 32.9668C22.9384 32.9838 22.9208 32.9968 22.9007 33.0041C22.8805 33.0114 22.8586 33.0126 22.8377 33.0077C22.6442 32.9607 22.503 32.8803 22.3413 32.7884C22.0331 32.613 21.6505 32.3953 20.6885 32.285C20.6579 32.2828 20.6293 32.2692 20.6084 32.247C20.5875 32.2247 20.5759 32.1954 20.5759 32.1649C20.5759 32.1345 20.5875 32.1052 20.6084 32.0829ZM29.5315 37.5011C29.0138 34.6462 27.7616 32.3572 26.3545 29.8222C26.331 29.7859 26.2945 29.7598 26.2523 29.7493C26.2101 29.7388 26.1655 29.7447 26.1276 29.7658C26.1222 29.5376 26.1901 29.2865 26.2589 29.0316C26.3934 28.5338 26.5317 28.0219 26.1358 27.6398C25.675 27.2063 25.1977 27.7759 25.1244 28.2176C25.1086 28.3217 25.2622 28.37 25.2944 28.2652C25.3267 28.1291 25.5289 27.7678 25.6661 27.7521C25.7646 27.7531 25.8596 27.7881 25.9349 27.8511C26.0102 27.914 26.0611 28.001 26.0789 28.0971C26.1746 28.4667 26.077 28.7658 25.9813 29.0591C25.8874 29.3468 25.7954 29.6289 25.8892 29.9665C25.3221 30.4039 24.6337 30.6587 23.9164 30.6967C23.8505 30.4352 23.6559 30.223 23.4622 30.0119C23.3232 29.8604 23.1847 29.7094 23.0947 29.5412C22.979 29.372 22.9354 29.1644 22.9733 28.9634C23.087 28.6751 23.387 28.6826 23.6326 28.6888H23.6326H23.6327H23.6327C23.667 28.6897 23.7003 28.6906 23.7318 28.6906C24.3059 28.6906 24.3301 28.7129 24.4457 28.8196C24.4875 28.8582 24.5414 28.9079 24.6377 28.9716C24.6522 28.9796 24.6686 28.9838 24.6853 28.9838C24.7019 28.9838 24.7183 28.9796 24.7328 28.9715C24.7474 28.9635 24.7596 28.9519 24.7684 28.9379C24.7772 28.9238 24.7822 28.9078 24.783 28.8913C24.7995 28.5776 24.4841 28.434 24.2009 28.3857C23.7445 28.2723 23.2617 28.3355 22.8507 28.5626C22.739 28.6875 22.6665 28.8422 22.6422 29.0074C22.6178 29.1727 22.6426 29.3414 22.7135 29.4929C22.8552 29.8514 23.1021 30.1161 23.3102 30.339C23.4344 30.4721 23.5448 30.5904 23.6105 30.7049C23.5897 30.7038 23.5689 30.707 23.5494 30.7142C23.5298 30.7214 23.512 30.7325 23.4969 30.7467C23.4818 30.761 23.4698 30.7782 23.4617 30.7972C23.4535 30.8162 23.4493 30.8366 23.4493 30.8573C23.6152 33.2543 24.2901 35.5895 25.4297 37.7094C25.4866 37.8135 25.6238 37.7257 25.5833 37.6209C24.6453 35.525 24.0389 33.298 23.7856 31.0185C24.6594 31.0107 25.5044 30.7076 26.1813 30.1591L26.3315 30.4374C27.647 32.8739 29.0325 35.4403 29.3747 38.215C29.5448 39.6189 29.2698 41.0956 27.9038 41.8013C26.5131 42.5315 25.082 42.0661 23.7318 41.5209C23.6466 40.8622 23.5826 40.2035 23.5182 39.5404C23.5033 39.3876 23.4885 39.2346 23.4733 39.0813C23.4575 38.9452 23.247 38.969 23.2388 39.0976C23.2117 41.0011 23.4762 42.8975 24.0232 44.7221C24.1408 45.2749 24.3398 45.8076 24.6136 46.3029C24.6946 46.4234 24.8482 46.3029 24.8317 46.1906C24.7985 45.8558 24.7052 45.5842 24.5764 45.2092C24.369 44.6053 24.0695 43.7333 23.7805 41.8979C25.5757 42.8446 28.2925 42.8126 29.3109 40.8146C29.7491 39.7641 29.8266 38.5997 29.5315 37.5011ZM17.964 27.1204C18.0923 27.0144 18.2371 26.9296 18.3926 26.8695C18.4142 26.864 18.437 26.8648 18.4581 26.872C18.4792 26.8791 18.4977 26.8922 18.5114 26.9097C18.5251 26.9271 18.5334 26.9482 18.5352 26.9702C18.537 26.9923 18.5323 27.0144 18.5216 27.0338C18.4163 27.1796 18.2701 27.2913 18.1012 27.355C17.9397 27.451 17.7616 27.5163 17.5759 27.5476C17.4704 27.5639 17.3977 27.4272 17.5032 27.3713C17.5853 27.3201 17.6731 27.2747 17.7617 27.2289C17.8293 27.1939 17.8975 27.1587 17.964 27.1204ZM20.511 27.5915C20.5672 27.5915 20.6323 27.535 20.6241 27.4792C20.6124 27.3899 20.5559 27.3219 20.498 27.2523C20.4746 27.2242 20.451 27.1957 20.43 27.1656C20.3573 27.0608 20.2847 26.9567 20.2037 26.8607C20.1228 26.7647 20.0015 26.8688 20.0173 26.9648C20.0483 27.1017 20.1091 27.2302 20.1955 27.3412C20.2764 27.4548 20.3731 27.5834 20.511 27.5915ZM18.507 29.8461C18.3129 29.7821 18.4096 29.4615 18.5955 29.5412C18.6255 29.5541 18.6561 29.5694 18.6869 29.5847C18.816 29.6489 18.9487 29.7149 19.0538 29.6227C19.2271 29.4804 19.1928 29.2035 19.1476 28.839C19.1109 28.5431 19.067 28.1895 19.1214 27.8035C19.1372 27.6912 19.3072 27.6461 19.3395 27.7715C19.4016 28.0813 19.4314 28.3967 19.4286 28.7125C19.4639 29.0256 19.4584 29.3418 19.4122 29.6535C19.287 30.1286 18.8792 29.9809 18.5374 29.8571L18.507 29.8461ZM17.9315 28.811C18.0076 28.811 18.0806 28.781 18.1344 28.7276C18.1883 28.6742 18.2185 28.6017 18.2185 28.5262C18.2185 28.4507 18.1883 28.3782 18.1344 28.3248C18.0806 28.2714 18.0076 28.2414 17.9315 28.2414C17.8554 28.2414 17.7824 28.2714 17.7286 28.3248C17.6748 28.3782 17.6445 28.4507 17.6445 28.5262C17.6445 28.6017 17.6748 28.6742 17.7286 28.7276C17.7824 28.781 17.8554 28.811 17.9315 28.811ZM20.2731 28.8235C20.2294 28.8691 20.1698 28.8963 20.1065 28.8994C20.0432 28.8963 19.9835 28.8691 19.9399 28.8235C19.8962 28.7779 19.8718 28.7174 19.8718 28.6545C19.8718 28.5916 19.8962 28.5311 19.9399 28.4855C19.9835 28.4399 20.0432 28.4127 20.1065 28.4095C20.1698 28.4127 20.2294 28.4399 20.2731 28.4855C20.3168 28.5311 20.3412 28.5916 20.3412 28.6545C20.3412 28.7174 20.3168 28.7779 20.2731 28.8235ZM17.4704 30.8811C17.566 30.7628 17.6883 30.6685 17.8274 30.6057C17.9665 30.5429 18.1186 30.5135 18.2713 30.5198C18.5557 30.5808 18.5128 30.8137 18.4723 31.034C18.4541 31.1329 18.4363 31.2293 18.4489 31.3064C18.4539 31.3222 18.4623 31.3367 18.4737 31.3488C18.4851 31.361 18.4991 31.3704 18.5146 31.3764C18.5301 31.3824 18.5468 31.3849 18.5635 31.3836C18.5801 31.3824 18.5963 31.3774 18.6107 31.3692C19.0475 31.1609 18.837 30.4144 18.4653 30.2463C18.2428 30.1775 18.0029 30.1903 17.7891 30.2824C17.5754 30.3745 17.4021 30.5398 17.301 30.7481C17.2523 30.8573 17.3895 30.9689 17.4704 30.8811ZM22.046 26.8719C22.0483 26.8508 22.0576 26.831 22.0723 26.8155C22.1295 26.7665 22.1965 26.73 22.269 26.7086C22.3414 26.6871 22.4176 26.6812 22.4925 26.6912C22.5675 26.7011 22.6394 26.7267 22.7036 26.7664C22.7678 26.806 22.8228 26.8586 22.865 26.9209C22.9925 27.0821 23.101 27.2572 23.1886 27.4428C23.3113 27.6099 23.3866 27.8066 23.4067 28.0124C23.4064 28.0254 23.4027 28.0381 23.3959 28.0492C23.3892 28.0604 23.3796 28.0695 23.3682 28.0759C23.3568 28.0822 23.3439 28.0855 23.3308 28.0854C23.3177 28.0852 23.3049 28.0817 23.2935 28.0752C23.1415 27.9756 23.0363 27.7684 22.9298 27.5587C22.7532 27.2106 22.5732 26.8559 22.1696 26.9761C22.149 26.9818 22.127 26.9806 22.1071 26.9728C22.0872 26.9649 22.0705 26.9508 22.0594 26.9326C22.0484 26.9143 22.0437 26.893 22.046 26.8719ZM23.8906 28.0074C23.8613 27.8982 23.87 27.7824 23.9153 27.6787C23.9536 27.5887 24.018 27.5401 24.0877 27.4876L24.0877 27.4875C24.1055 27.4742 24.1235 27.4606 24.1416 27.446C24.2465 27.3575 24.1333 27.2051 24.0202 27.2371C23.9408 27.2682 23.8692 27.3159 23.81 27.3769C23.7508 27.4379 23.7055 27.5108 23.6772 27.5907C23.6488 27.6705 23.6381 27.7555 23.6457 27.8399C23.6533 27.9242 23.679 28.0059 23.7212 28.0796C23.7316 28.1007 23.7498 28.117 23.772 28.1251C23.7942 28.1333 23.8187 28.1327 23.8405 28.1234C23.8622 28.1142 23.8796 28.097 23.8889 28.0754C23.8982 28.0538 23.8988 28.0294 23.8906 28.0074ZM24.7142 27.6028C24.6457 27.7618 24.6074 27.9319 24.6011 28.1047C24.5985 28.131 24.5861 28.1554 24.5662 28.1729C24.5463 28.1905 24.5204 28.2 24.4938 28.1994C24.4671 28.1988 24.4417 28.1883 24.4226 28.1699C24.4034 28.1515 24.392 28.1267 24.3906 28.1003C24.3488 27.8606 24.3917 27.614 24.5119 27.4021C24.8147 26.9761 25.1567 27.227 25.0214 27.3619C24.9794 27.4072 24.9296 27.4349 24.8807 27.4621C24.8172 27.4975 24.7553 27.5319 24.7142 27.6028ZM8.86803 81.8482C8.8516 81.6079 8.46348 81.5973 8.47992 81.8482C8.50923 82.2058 8.63698 82.5487 8.75698 82.8707C8.93969 83.3612 9.10441 83.8033 8.87625 84.1755C8.58401 84.6499 7.9047 84.6265 7.35327 84.6075H7.35305H7.35282H7.35259C7.23277 84.6033 7.119 84.5994 7.01657 84.6008C6.08414 84.6149 5.15809 84.8358 4.23861 85.0551L4.23853 85.0551C3.19389 85.3042 2.15772 85.5514 1.13032 85.491L1.08382 85.4884C0.819042 85.4743 0.517347 85.4583 0.402751 85.1704C0.373629 85.0703 0.369459 84.9647 0.390601 84.8626C0.411743 84.7606 0.457563 84.6651 0.524117 84.5845C0.827154 84.1572 1.42621 83.9195 1.966 83.7052L1.96612 83.7052L1.96624 83.7052L1.96635 83.7051C2.14593 83.6338 2.31894 83.5652 2.4723 83.493C2.86963 83.3052 3.25661 83.0293 3.64697 82.751C4.56073 82.0995 5.49304 81.4348 6.62023 81.8563C6.79786 81.9191 6.87308 81.6719 6.7416 81.5759C5.71166 80.8105 4.53185 81.6736 3.61686 82.3429L3.61678 82.3429C3.44742 82.4668 3.28713 82.5841 3.13854 82.6831C2.71762 82.9616 2.24019 83.1767 1.787 83.3808C0.860024 83.7983 0.0344738 84.1702 0.00135834 84.9458C-0.0678666 86.4593 2.5235 85.8423 4.41804 85.3913C4.82435 85.2945 5.19862 85.2054 5.50771 85.1466C6.12217 85.0258 6.70329 85.0077 7.22037 84.9916C8.19855 84.9612 8.94752 84.938 9.25931 84.2395C9.48918 83.734 9.30194 83.2392 9.11486 82.7447C9.002 82.4465 8.8892 82.1484 8.86803 81.8482ZM8.69015 80.2517C7.41244 79.9838 6.10438 79.8868 4.80075 79.9631C4.74184 79.9627 4.68531 79.9401 4.64267 79.8997C4.60004 79.8594 4.57451 79.8044 4.57129 79.7461C4.93414 74.0196 5.61172 68.317 6.60101 62.6638C6.79823 64.0037 8.52833 75.1485 9.25589 79.3609L9.22756 79.4334L9.22738 79.4339C9.13964 79.6584 9.05232 79.8819 8.96449 80.0993C8.94543 80.1535 8.90699 80.199 8.85645 80.2271C8.80591 80.2552 8.74675 80.2639 8.69015 80.2517ZM105.139 66.4985C104.627 65.1012 103.726 63.8764 102.541 62.966C101.356 62.0557 99.9359 61.497 98.4444 61.3546C101.38 57.9364 104.355 53.7798 102.948 49.0857C102.938 49.0497 102.918 49.017 102.891 48.9908C102.864 48.9646 102.83 48.9458 102.794 48.9362C102.757 48.9265 102.719 48.9264 102.682 48.9357C102.646 48.9451 102.612 48.9637 102.585 48.9897C102.5 49.0606 101.019 50.3258 100.999 50.3453C100.86 50.4909 100.877 50.5944 100.905 50.7647C100.908 50.7813 100.91 50.7987 100.913 50.8167C100.915 50.828 100.917 50.8396 100.918 50.8515C101.043 51.9808 101 53.122 100.792 54.239C100.35 56.7382 99.1682 58.3793 97.2914 60.3289C97.107 60.1416 96.9199 59.9544 96.732 59.7663C95.2058 58.2392 93.6275 56.66 93.0303 54.552C92.7098 53.4809 92.6548 52.3488 92.8702 51.252C93.0856 50.1553 93.5649 49.1265 94.2674 48.2532C94.5019 48.2131 94.4937 47.8361 94.2434 47.8524C91.9305 47.9966 90.4911 50.3077 90.5398 52.4499C90.603 55.0658 92.2863 57.5694 93.9836 59.4708C94.6276 60.1922 95.3427 60.8479 96.1182 61.428C94.2297 61.7732 92.5365 62.7995 91.3647 64.3092C89.6675 66.4527 88.8748 70.0629 90.3622 72.421C90.3881 72.4638 90.4241 72.4998 90.4671 72.5257C92.3995 76.5863 97.469 78.0084 101.302 76.1284C104.759 74.4422 106.376 70.0698 105.139 66.4985ZM99.201 73.5752C97.775 75.1786 94.9912 74.0143 95.1094 69.3032C95.1353 68.1484 95.5171 65.7414 96.7788 64.9008C97.1731 64.6296 97.6541 64.5117 98.1304 64.5695C98.6066 64.6273 99.0448 64.8569 99.3616 65.2144C100.85 66.8272 100.644 71.9756 99.201 73.5752ZM96.8093 66.2896C97.3561 65.3819 98.09 65.0708 98.7688 65.8775C99.1864 66.5069 99.4197 67.239 99.4427 67.9922C99.6292 69.5356 99.4202 71.1007 98.8352 72.5427C98.2252 73.7534 97.0071 73.8092 96.3289 71.7058C96.0159 70.8211 95.8968 69.8803 95.9797 68.9463C96.0625 68.0122 96.3454 67.1065 96.8093 66.2896Z" fill="#4D4D4D"/>
</g>
<defs>
<clipPath id="clip0_348_36140">
<rect width="120" height="120" fill="white"/>
</clipPath>
</defs>
</svg>
