<svg width="120" height="120" viewBox="0 0 120 120" fill="none" xmlns="http://www.w3.org/2000/svg">
<path fill-rule="evenodd" clip-rule="evenodd" d="M41.2694 67.6423C44.708 67.6134 47.8481 67.587 48.5492 67.5528C50.7236 71.82 60.1346 81.4668 61.6772 82.7706C60.2 86.0094 55.5092 101.839 55.1918 103.538C54.0524 104.932 53.5478 106.852 53.8316 108.128C52.3924 108.148 50.452 108.176 48.2149 108.207C37.5428 108.358 20.1193 108.604 18.1526 108.604C14.114 108.604 10.9088 107.031 10.7126 102.761C10.61 100.519 10.6256 98.3921 10.6364 96.916C10.6418 96.1729 10.646 95.5946 10.6334 95.2494C10.813 95.2541 11.0702 95.2611 11.3881 95.2697C14.0096 95.3406 20.7536 95.5231 22.0604 95.4894C27.0002 95.385 28.3142 92.0334 28.3562 88.632C28.3982 85.2306 26.3402 82.3842 22.0334 82.2258C19.5241 82.1354 15.4539 82.2473 12.6125 82.3255C11.645 82.3521 10.82 82.3748 10.2476 82.3842C10.2177 81.5027 10.1777 80.537 10.1388 79.6007C10.0713 77.9752 10.0076 76.4384 10.0076 75.5856C10.0076 71.592 12.1358 68.034 16.685 67.794C18.9344 67.677 21.6638 67.7562 22.7696 67.794C22.6858 68.3174 22.7332 68.8534 22.9076 69.354C22.773 69.3673 22.6381 69.3797 22.503 69.3921C22.1731 69.4226 21.8424 69.453 21.5138 69.4956C21.3008 69.525 21.1298 70.0296 21.7724 70.0296H23.2298C23.778 70.8846 24.6319 71.4982 25.6172 71.745C27.362 72.1794 29.5652 72.1374 30.1412 71.4948C30.5028 71.0105 30.7118 70.4293 30.7412 69.8256L32.2058 69.8712C32.9318 69.894 32.7554 69.12 32.3354 69.174C32.0986 69.2117 31.8656 69.2092 31.6276 69.2067C31.3619 69.2039 31.0899 69.201 30.7994 69.2538C30.8262 68.7608 30.9003 68.2716 31.0208 67.7928C31.7036 67.7226 36.7449 67.6803 41.2694 67.6423ZM11.7892 79.6876C11.7642 80.1315 11.7164 80.9805 12.0734 81.0162C12.4698 81.0554 12.4714 80.1095 12.4722 79.6665C12.4723 79.5947 12.4724 79.536 12.4742 79.497C12.5114 78.6204 11.798 78.6624 11.798 79.497C11.7973 79.5434 11.7936 79.6092 11.7892 79.6876ZM11.8384 75.5516C11.7994 76.0632 11.7193 77.1138 12.1274 77.139V77.1264C12.5607 77.1693 12.5577 76.1456 12.556 75.5614C12.5557 75.4588 12.5554 75.3697 12.5576 75.3024C12.572 74.8518 11.852 74.898 11.852 75.3486C11.8502 75.3967 11.8448 75.4667 11.8384 75.5516ZM12.8678 73.0864C12.8999 72.9974 12.9293 72.9156 12.962 72.861H12.9494C12.9884 72.7948 13.0444 72.7149 13.106 72.6269C13.347 72.2827 13.673 71.817 13.4006 71.5842C12.7658 71.0664 11.8064 73.458 12.4448 73.5708C12.6783 73.6132 12.7823 73.3242 12.8678 73.0864ZM14.7608 70.833C15.2137 70.6094 15.6914 70.4398 16.184 70.3278L16.1714 70.329C16.4342 70.2288 16.5848 69.4692 15.5582 69.753C13.7966 70.233 14.2058 71.1084 14.7608 70.833ZM18.2708 70.0272C18.8275 70.0482 19.385 70.0344 19.94 69.9858H19.9358C20.249 69.9774 20.8124 69.147 19.0598 69.3012C17.5988 69.4272 17.9246 69.99 18.2708 70.0272ZM13.0735 97.2811C13.0622 96.8299 13.0507 96.366 12.74 96.366H12.737C12.3621 96.3735 12.3754 96.9642 12.383 97.3036C12.3839 97.3462 12.3848 97.3848 12.3848 97.4178C12.3848 97.4712 12.3786 97.5432 12.3715 97.6256C12.3392 98.0005 12.2887 98.5877 12.7232 98.5818C13.1586 98.5759 13.1178 98.0302 13.0895 97.6507C13.0833 97.5685 13.0778 97.494 13.0778 97.4346C13.076 97.3841 13.0748 97.3327 13.0735 97.2811ZM13.0526 100.247C13.007 99.7008 12.1808 99.951 12.4478 101.474C12.6062 102.438 13.2698 102.067 13.1864 101.612C13.1169 101.16 13.0722 100.704 13.0526 100.247ZM12.9312 104.55C13.0461 104.82 13.2202 105.061 13.4408 105.254L13.4402 105.256C13.8968 105.6 14.1974 105.209 13.8878 104.755C13.5986 104.395 13.3893 103.978 13.274 103.532C13.1528 103.227 12.8444 103.302 12.7772 103.694C12.7637 103.988 12.8163 104.28 12.9312 104.55ZM14.8946 106.318C15.0698 106.519 16.4096 107.22 16.6808 106.711H16.6892C16.884 106.344 16.3489 106.202 15.8815 106.078C15.7586 106.046 15.6404 106.014 15.5414 105.98C14.711 105.688 14.807 106.214 14.8946 106.318ZM18.6781 107.194C19.1362 107.255 20.2279 107.401 20.3744 107.261H20.3828C20.4363 107.202 20.4669 107.126 20.4691 107.047C20.4713 106.967 20.445 106.889 20.3948 106.828C20.2238 106.519 18.8048 106.606 18.5252 106.627C18.4585 106.635 18.3972 106.668 18.3527 106.718C18.3083 106.768 18.2837 106.833 18.2837 106.901C18.2837 106.968 18.3083 107.033 18.3527 107.083C18.3972 107.133 18.4585 107.166 18.5252 107.174C18.5601 107.178 18.6127 107.185 18.6781 107.194ZM22.073 107.274C22.6569 107.355 23.2447 107.406 23.834 107.425L23.8424 107.425C24.2012 107.441 24.3476 106.815 23.9426 106.765C23.4906 106.716 23.0363 106.692 22.5818 106.694C21.533 106.681 21.8768 107.245 22.073 107.274ZM26.0054 107.069C26.6202 107.168 27.2436 107.201 27.8654 107.17L27.875 107.176C28.1546 107.151 28.163 106.617 27.8792 106.571C27.4184 106.513 26.9531 106.499 26.4896 106.529C25.5854 106.535 25.805 107.041 26.0054 107.069ZM30.4343 107.279C30.7635 107.27 31.0934 107.261 31.421 107.233L31.4294 107.234C31.8722 107.197 31.7504 106.513 31.3418 106.55C31.0176 106.579 30.7052 106.63 30.3802 106.683C30.2955 106.697 30.21 106.711 30.1232 106.725C29.4014 106.838 29.7062 107.293 29.99 107.293C30.1378 107.287 30.286 107.283 30.4343 107.279ZM33.4832 107.24C34.0748 107.283 34.6685 107.29 35.261 107.261H35.2682C35.6726 107.233 35.5562 106.594 35.1848 106.594C34.5955 106.601 34.0072 106.645 33.4232 106.723C33.1118 106.76 33.2114 107.24 33.4832 107.24ZM34.355 69.8604H35.9402H35.945C35.9905 69.8609 36.0357 69.8521 36.0777 69.8347C36.1198 69.8172 36.1579 69.7913 36.1896 69.7587C36.2214 69.7261 36.2462 69.6874 36.2626 69.6449C36.279 69.6024 36.2866 69.557 36.2849 69.5115C36.2833 69.466 36.2724 69.4213 36.2529 69.3801C36.2335 69.3389 36.2059 69.3021 36.1718 69.2719C36.1377 69.2417 36.0979 69.2188 36.0547 69.2044C36.0114 69.19 35.9658 69.1846 35.9204 69.1884C35.3685 69.1991 34.8185 69.2551 34.2758 69.3558C33.9668 69.4224 34.088 69.8604 34.355 69.8604ZM37.4048 107.204C38.0602 107.333 38.7304 107.368 39.3956 107.309H39.404C39.4847 107.293 39.5573 107.249 39.6093 107.185C39.6613 107.121 39.6894 107.041 39.6889 106.958C39.6885 106.876 39.6593 106.796 39.6066 106.733C39.5538 106.67 39.4807 106.627 39.3998 106.612C39.0826 106.595 38.7654 106.6 38.4482 106.606C38.2896 106.609 38.131 106.612 37.9724 106.612C36.9848 106.649 37.2464 107.129 37.4048 107.204ZM38.2226 69.8022C38.9101 69.9334 39.6097 69.9908 40.3094 69.9732H40.3154C40.7078 69.9648 40.6784 69.339 40.2698 69.297C39.6123 69.2263 38.951 69.197 38.2898 69.2094C37.9724 69.2136 37.9262 69.7476 38.2226 69.8022ZM42.1266 107.155C42.6564 107.177 43.1864 107.2 43.7192 107.2L43.7276 107.203C44.12 107.198 44.1116 106.505 43.715 106.505C43.0728 106.501 42.4307 106.535 41.788 106.568L41.7866 106.568C41.4572 106.581 41.4614 107.14 41.7866 107.14C41.8999 107.145 42.0133 107.15 42.1266 107.155ZM42.0416 69.8088C42.6086 69.8394 43.181 69.8688 43.7486 69.8688L43.7552 69.8712C44.1284 69.8712 44.216 69.1992 43.8152 69.1992H43.8151C43.2433 69.1992 42.6547 69.1992 42.0872 69.2454C41.7788 69.2622 41.7116 69.8088 42.0416 69.8088ZM46.8204 69.1759C46.6947 69.1824 46.5784 69.1884 46.4822 69.1884L46.4906 69.1968C45.7766 69.1968 45.557 69.681 45.9272 69.7728C46.2974 69.8646 48.0974 69.9342 48.0974 69.5142C48.0837 69.1106 47.3647 69.1478 46.8204 69.1759ZM46.0394 107.1C46.3358 107.134 48.026 107.217 48.2894 107.033L48.2972 107.036C48.3127 107.024 48.3272 107.01 48.3404 106.996C48.3703 106.962 48.3935 106.924 48.4084 106.882C48.4233 106.839 48.4297 106.795 48.4272 106.75C48.4248 106.705 48.4135 106.662 48.3941 106.622C48.3746 106.581 48.3474 106.545 48.314 106.516C47.9636 106.276 46.3736 106.457 46.073 106.516C45.7724 106.574 45.743 107.066 46.0394 107.1ZM51.8477 107.1C51.9336 107.097 52.0022 107.093 52.0454 107.093L52.0742 107.096C52.7588 107.067 52.6712 106.475 52.1372 106.383C51.8366 106.323 50.1674 106.323 50.1674 106.743C50.171 107.176 51.3273 107.124 51.8477 107.1ZM97.9332 75.0648C87.3366 75.0648 80.5842 83.3868 81.21 92.6184C81.861 102.188 89.949 108.035 97.9332 108.314C107.027 108.632 114.209 101.637 114.626 92.5392C115.04 82.8234 108.592 75.0648 97.9332 75.0648ZM110.593 97.9062C106.42 107.012 93.528 107.266 87.3894 100.744C81.1752 94.1436 84.0252 82.3806 92.5686 79.0422C104.419 74.4138 115.724 86.688 110.591 97.9062H110.593ZM93.8597 88.4616C93.3961 89.0487 93.0526 89.7213 92.849 90.4411C92.6453 91.161 92.5854 91.9138 92.6727 92.6568C92.76 93.3998 92.9928 94.1183 93.3578 94.7713C93.7228 95.4243 94.2128 95.999 94.7999 96.4626C95.0649 96.6724 95.3482 96.858 95.6465 97.017C96.0659 95.7627 96.4791 94.5018 96.8926 93.2399C97.6623 90.8911 98.4331 88.5391 99.2465 86.2206C98.2316 86.0981 97.2023 86.24 96.2584 86.6327C95.3146 87.0253 94.4882 87.6554 93.8597 88.4616ZM87.9171 100.239C82.5669 94.6506 84.4365 84.4218 91.0095 80.5734C101.214 74.5974 113.6 84.1296 110.679 95.4894C107.949 106.031 94.3527 106.959 87.9171 100.239ZM100.027 86.358C102.14 86.9046 103.242 88.2276 104.227 90.0642C104.377 90.348 104.773 90.1308 104.71 89.8536C104.218 87.7944 102.24 86.1936 100.249 85.6536C100.424 85.0734 100.595 84.4932 100.75 83.9088C100.767 83.8357 100.757 83.7587 100.72 83.693C100.684 83.6273 100.624 83.5777 100.552 83.5541C100.481 83.5305 100.403 83.5345 100.335 83.5654C100.266 83.5964 100.212 83.6519 100.182 83.721C99.9441 84.3096 99.7233 84.9024 99.5061 85.4988C98.4643 85.3453 97.401 85.4403 96.403 85.7762C95.4049 86.1121 94.5005 86.6792 93.7635 87.4314C93.0462 88.1541 92.5095 89.0359 92.1971 90.005C91.8847 90.9742 91.8054 92.0034 91.9656 93.009C92.1259 94.0145 92.5211 94.9681 93.1193 95.7922C93.7175 96.6162 94.5017 97.2875 95.4081 97.7514C95.1477 98.4033 94.9437 99.0764 94.7985 99.7632C94.7962 99.8343 94.8168 99.9042 94.8574 99.9625C94.898 100.021 94.9564 100.065 95.0238 100.087C95.0912 100.11 95.1641 100.11 95.2316 100.088C95.2992 100.065 95.3577 100.022 95.3985 99.9636C95.6902 99.342 95.9288 98.6969 96.1119 98.0352C97.1934 98.3959 98.3513 98.4623 99.4669 98.2276C100.582 97.9929 101.615 97.4655 102.46 96.6996C102.817 96.3744 102.268 95.8608 101.917 96.1866C101.173 96.853 100.265 97.3085 99.2864 97.5059C98.3076 97.7033 97.2938 97.6354 96.3501 97.3092L100.027 86.358ZM27.5941 88.6866C27.6593 87.2674 27.1753 85.8777 26.2427 84.8059C25.3101 83.7342 24.0005 83.0629 22.5859 82.9314C20.6623 82.8522 9.14587 82.9314 8.86807 83.1276C8.59027 83.3238 8.73847 94.2708 9.10807 94.4754C9.47767 94.68 20.0173 94.7928 22.3129 94.7928C24.6085 94.7928 27.5941 93.2106 27.5941 88.6866ZM17.8699 89.2962C17.8391 88.8747 17.8945 88.4513 18.0326 88.0518C18.1708 87.6524 18.3889 87.2852 18.6736 86.9728C18.9583 86.6604 19.3036 86.4092 19.6885 86.2346C20.0734 86.06 20.4899 85.9656 20.9125 85.9572C21.3096 85.9351 21.707 85.9943 22.0804 86.1311C22.4539 86.268 22.7954 86.4797 23.0841 86.7532C23.3729 87.0267 23.6027 87.3563 23.7596 87.7218C23.9165 88.0872 23.9971 88.4809 23.9965 88.8786C23.9965 90.5484 22.8487 92.1786 21.1501 92.1786C20.3483 92.172 19.5758 91.8772 18.9735 91.3479C18.3712 90.8187 17.9795 90.0904 17.8699 89.2962Z" fill="#417FDA"/>
<path fill-rule="evenodd" clip-rule="evenodd" d="M64.3113 12.6641C66.0467 13.9308 65.1791 17.9756 64.7183 20.1239L64.6755 20.3237C64.2299 22.4108 65.9807 18.9972 65.8759 16.0688C65.8244 14.2586 65.6329 13.2961 65.318 12.9109C65.0031 12.5257 64.6404 12.204 64.2575 11.9701C63.0334 11.1581 61.7556 10.7519 60.5983 10.807C59.6586 10.7683 58.7951 10.9757 58.0629 11.4161C57.3307 11.8564 56.7459 12.5201 56.3457 13.3647C55.4787 14.8377 56.2137 14.5844 56.2547 14.5231C56.288 14.4738 56.3216 14.425 56.3551 14.3761L56.3551 14.3761C56.4812 14.1925 56.6067 14.0096 56.7165 13.8105C57.3273 12.615 58.3367 11.8404 59.5981 11.5991C61.0805 11.335 62.6142 11.4252 64.3113 12.6641ZM86.6374 29.2456L86.6375 29.2453L86.6376 29.2452C87.077 28.3008 87.5254 27.337 87.9666 26.49C88.4572 25.5412 88.5516 25.5818 89.6641 26.0604C89.8483 26.1397 90.0603 26.2309 90.3066 26.3316C91.3026 26.7423 91.1968 26.976 90.8394 27.7655L90.8393 27.7657L90.8389 27.7666C90.786 27.8833 90.7277 28.0122 90.6666 28.1556C89.9379 29.9376 89.1366 31.6886 88.3358 33.4386C88.1594 33.824 87.9831 34.2092 87.8076 34.5948C87.2309 35.8666 86.7921 35.6741 85.8437 35.2583C85.4946 35.1051 85.0764 34.9218 84.5568 34.77C84.2226 34.6746 84.1368 35.19 84.3937 35.3172C84.9529 35.6256 86.5638 36.3522 87.1986 36.1812C87.9552 35.9753 88.3076 35.1744 88.6017 34.5059C88.6239 34.4555 88.6458 34.4058 88.6674 34.3572C89.2434 33.0552 90.7956 29.4492 91.2882 28.26C91.3215 28.1797 91.3544 28.1016 91.3864 28.0256C91.8287 26.9751 92.1049 26.3192 90.8712 25.8C90.4154 25.6063 89.9439 25.4244 89.4833 25.2467L89.4354 25.2282C88.032 24.6754 87.6991 25.3621 87.2451 26.2986C87.1916 26.4091 87.1363 26.523 87.0774 26.6388C86.2426 28.2888 85.5015 29.9844 84.8574 31.7178C84.8034 31.953 85.221 32.1534 85.3458 31.9158C85.7557 31.1404 86.1919 30.203 86.6374 29.2456ZM82.6796 37.4202C82.7283 37.157 82.725 36.856 82.7216 36.5399C82.7143 35.8537 82.7062 35.0961 83.2262 34.4988C83.409 34.2905 83.8136 34.0974 84.246 33.8911C84.8697 33.5935 85.5514 33.2683 85.709 32.8296C85.7295 32.7839 85.7365 32.7332 85.7292 32.6837C85.7219 32.6341 85.7005 32.5876 85.6677 32.5498C85.6348 32.512 85.5918 32.4843 85.5438 32.4701C85.4957 32.4559 85.4446 32.4557 85.3964 32.4696C85.2537 32.4996 85.0949 32.6022 84.8942 32.732C84.6488 32.8907 84.3407 33.0899 83.9228 33.246C82.8212 33.666 82.1078 34.1514 81.9428 35.5368C81.6938 37.6752 82.5872 37.9338 82.6796 37.4202ZM87.7417 38.3886C87.0097 38.9399 86.2272 39.4206 85.4046 39.8244V39.822C85.3709 39.8467 85.3323 39.864 85.2915 39.873C85.2506 39.8819 85.2083 39.8822 85.1674 39.8738C85.1264 39.8654 85.0876 39.8485 85.0536 39.8243C85.0195 39.8 84.9908 39.7689 84.9695 39.733C84.9482 39.697 84.9346 39.657 84.9296 39.6154C84.9246 39.5739 84.9284 39.5318 84.9407 39.4918C84.953 39.4518 84.9735 39.4149 85.0009 39.3833C85.0283 39.3517 85.062 39.3262 85.0998 39.3084C85.7794 38.7399 86.5117 38.2376 87.2868 37.8084C87.4282 37.7161 87.56 37.6349 87.6827 37.5593C88.2807 37.1909 88.6616 36.9562 88.8727 36.2184C89.013 35.7387 89.1495 35.259 89.2859 34.7794L89.2865 34.7774L89.2869 34.7759L89.2873 34.7745L89.2878 34.7731L89.2882 34.7717L89.2886 34.7703L89.289 34.7689L89.2894 34.7675L89.2898 34.766L89.2902 34.7646L89.2906 34.7632L89.291 34.7618C89.6279 33.5781 89.9647 32.3943 90.3583 31.2102C90.4531 30.9264 90.8839 30.9522 90.8131 31.2522C90.7281 31.6092 90.644 31.9666 90.5598 32.3241L90.5593 32.3262L90.5586 32.329C90.2133 33.7956 89.8674 35.2643 89.4655 36.7194C89.266 37.4521 88.6635 37.821 88.0561 38.1929C87.9507 38.2574 87.8452 38.322 87.7417 38.3886ZM24.067 69.1968C24.3895 67.008 25.5759 65.6133 26.3875 64.6591C26.7535 64.2289 27.0432 63.8882 27.1432 63.6048C27.1603 63.5496 27.1602 63.4905 27.1429 63.4354C27.1255 63.3802 27.0918 63.3317 27.0461 63.2963C27.0005 63.2609 26.9451 63.2402 26.8874 63.2371C26.8296 63.2341 26.7724 63.2486 26.7232 63.279C26.2768 63.5292 24.7036 65.5746 24.4432 65.9748C23.7286 66.9121 23.4014 68.0881 23.5294 69.2598C23.6038 69.5598 24.0256 69.4512 24.067 69.1968ZM27.8179 69.6391C27.7864 69.9908 27.7577 70.3115 27.69 70.5864C27.6276 70.8288 27.21 70.866 27.1614 70.596C26.9736 69.4608 27.3738 66.7152 28.3674 66.1974C28.4153 66.1693 28.4703 66.1559 28.5257 66.1588C28.5811 66.1617 28.6345 66.1807 28.6792 66.2136C28.7238 66.2465 28.7579 66.2917 28.7772 66.3438C28.7964 66.3958 28.8 66.4523 28.7874 66.5064C28.7105 66.7574 28.5886 66.9794 28.4605 67.2127C28.2968 67.5108 28.123 67.8273 28.02 68.2464C27.8985 68.7382 27.8562 69.2115 27.8179 69.6391ZM30.8572 65.754C30.0888 66.2367 29.5394 67.0003 29.326 67.8822C29.1504 68.7963 29.0899 69.7287 29.146 70.6578C29.1535 70.729 29.1862 70.7952 29.2383 70.8443C29.2903 70.8935 29.3582 70.9224 29.4297 70.9259C29.5012 70.9294 29.5716 70.9072 29.6282 70.8633C29.6847 70.8194 29.7238 70.7567 29.7382 70.6866C29.8433 70.2821 29.8522 69.8845 29.8614 69.4786C29.8722 68.9972 29.8833 68.504 30.0556 67.974C30.3276 67.2987 30.7051 66.6709 31.174 66.114C31.1972 66.0679 31.206 66.0159 31.1994 65.9647C31.1928 65.9135 31.1711 65.8654 31.1369 65.8267C31.1028 65.788 31.0579 65.7604 31.0079 65.7474C30.9579 65.7345 30.9052 65.7368 30.8566 65.754H30.8572ZM31.9692 65.0232C31.8006 64.752 32.1138 64.3974 32.3892 64.6062C32.695 64.8276 32.9738 65.0939 33.2538 65.3613C33.5011 65.5975 33.7494 65.8346 34.0182 66.0426C34.4332 66.3514 34.8866 66.4008 35.2763 66.4432H35.2764C35.5605 66.4741 35.8109 66.5014 35.988 66.6228C36.0214 66.6474 36.0474 66.6808 36.063 66.7194C36.0746 66.7473 36.0806 66.7772 36.0806 66.8075C36.0806 66.8377 36.0746 66.8677 36.0629 66.8956C36.0512 66.9235 36.0341 66.9488 36.0126 66.97C35.9911 66.9913 35.9656 67.0081 35.9376 67.0194C35.1351 67.1824 34.3008 67.0548 33.5838 66.6594C32.9702 66.1938 32.4265 65.6428 31.9692 65.0232ZM25.2484 70.1484C25.2778 70.4532 25.7494 70.5948 25.8286 70.2402C25.915 69.8399 25.9646 69.4702 26.0122 69.1157L26.0122 69.1156C26.0638 68.731 26.1131 68.364 26.2042 67.995C26.2862 67.6633 26.5169 67.2392 26.7296 66.8484C26.9716 66.4037 27.1901 66.0021 27.139 65.829C26.851 64.8438 24.9856 67.1856 25.2484 70.1484ZM31.9258 63.6966C30.3445 63.693 28.7763 63.4103 27.2932 62.8614C26.5198 62.52 26.488 62.3442 26.7178 61.5132C28.8796 53.625 33.955 43.0122 39.0839 36.7854C42.4517 32.679 46.5335 28.4592 52.1927 27.6708C52.7825 27.608 52.7944 27.6251 53.0092 27.9352C53.0407 27.9805 53.0765 28.0322 53.1191 28.0908C54.3965 29.844 58.2191 31.722 59.2877 29.0094C59.4839 28.464 59.5985 28.4226 60.3185 28.5894C65.6939 29.8374 66.4781 32.3958 67.7513 37.3158C68.4455 40.2755 69.385 43.1723 70.5599 45.9762C74.3999 43.7892 77.9399 40.8216 81.0755 37.977C81.4967 37.6056 81.6179 37.539 81.9683 37.977C82.6317 38.7827 83.4561 39.4409 84.3887 39.9096C84.8687 40.1544 85.0277 40.2966 84.7439 40.9896C83.5253 43.9482 80.3531 48.0258 77.9285 50.0538C77.6903 50.25 77.3903 49.9788 77.6027 49.7496C80.7959 46.2846 82.7615 43.647 84.1763 40.6296C83.1338 40.1131 82.223 39.3652 81.5135 38.4432C78.4253 41.214 72.3581 46.3764 68.3381 47.8668C68.2744 47.8978 68.201 47.9023 68.1341 47.8792C68.0671 47.8562 68.0121 47.8074 67.9811 47.7438C67.95 47.6801 67.9456 47.6068 67.9686 47.5398C67.9917 47.4729 68.0404 47.4178 68.1041 47.3868C68.6364 47.0662 69.1774 46.7639 69.7196 46.4609L70.0199 46.293C68.7612 43.5122 67.7836 40.6126 67.1015 37.6374C67.0347 37.3798 66.9707 37.1286 66.9083 36.8837L66.9079 36.8821L66.9075 36.8806C65.8851 32.8666 65.2922 30.5391 59.9399 29.1822C58.6565 32.58 54.1745 30.72 52.4807 28.3476C46.4459 29.5452 42.4019 33.7686 38.7461 38.4096C32.5931 46.2306 28.8952 56.2554 27.226 62.0646C28.0024 62.5488 30.8734 63.0954 32.2799 62.991C37.1243 52.1898 39.7481 48.3762 48.6443 42.4452C48.6865 42.4154 48.7387 42.4031 48.7898 42.4108C48.8409 42.4185 48.8871 42.4456 48.9188 42.4865C48.9505 42.5273 48.9652 42.5788 48.9598 42.6302C48.9545 42.6817 48.9296 42.7291 48.8903 42.7626C48.0117 43.4888 47.1121 44.198 46.2129 44.9068L46.2128 44.907L46.2126 44.9071L46.2124 44.9072L46.2123 44.9073L46.2121 44.9075L46.212 44.9076L46.2118 44.9077L46.2116 44.9078L46.2115 44.908L46.2113 44.9081L46.2112 44.9082L46.211 44.9083C45.7832 45.2456 45.3556 45.5827 44.9303 45.9216C44.5253 51.969 45.0263 58.9008 46.8587 61.9854C53.3654 60.6874 56.6699 58.7206 60.2792 56.5726C61.9271 55.5918 63.6385 54.5732 65.7473 53.5632C63.8232 49.1048 63.8021 45.6882 63.7803 42.1581C63.7677 40.107 63.7548 38.0177 63.3683 35.6634C63.3209 35.3754 63.8009 35.3004 63.8609 35.5716C64.2938 37.419 64.3263 39.3149 64.3617 41.3794C64.4184 44.6882 64.4826 48.4302 66.2147 53.1L66.2176 53.1088C66.4145 53.6904 66.475 53.8693 65.9939 54.1308C64.607 54.8896 63.3347 55.6571 62.0856 56.4108L62.0855 56.4108L62.0855 56.4108C57.9552 58.9026 54.0775 61.242 47.1467 62.607C46.4453 62.7439 46.398 62.6353 46.2038 62.189L46.2037 62.1889L46.2035 62.1885L46.2033 62.1879L46.2032 62.1877C46.1669 62.1044 46.1256 62.0094 46.0739 61.902C44.0873 57.795 43.9498 50.9382 44.2457 46.4598C39.5212 50.2914 36.7715 54.8694 33.0154 62.8614C32.9538 62.9891 32.9079 63.0978 32.8688 63.1904L32.8688 63.1904L32.8687 63.1905C32.6906 63.6123 32.655 63.6966 31.9258 63.6966ZM116.546 109.128C99.1594 109.128 81.1996 109.161 63.3531 109.195C42.843 109.233 22.4825 109.271 3.31305 109.258C2.89305 109.258 2.89305 109.978 3.31305 109.978C28.2757 110.07 53.7719 110.039 79.0901 110.008H79.0934H79.0935H79.0936H79.0938H79.0939H79.094H79.0941H79.0942H79.0943H79.0944H79.0946H79.0947C91.6874 109.993 104.236 109.978 116.653 109.978C117.18 109.955 117.077 109.128 116.546 109.128ZM56.357 103.92C56.5862 103.669 56.9246 104.037 56.774 104.296C56.1712 105.193 55.6878 106.165 55.3358 107.188C55.2386 107.663 55.3358 107.717 55.7558 107.717C56.2266 107.716 56.6974 107.714 57.1682 107.713C59.6867 107.706 62.2059 107.699 64.7162 107.601C64.7877 107.598 64.8727 107.595 64.9675 107.592C66.0223 107.554 68.308 107.473 67.0826 106.708C66.4299 106.31 65.0222 105.769 63.7757 105.29C62.7594 104.9 61.8502 104.551 61.5446 104.354C61.5048 104.323 61.4761 104.28 61.4627 104.232C61.4493 104.183 61.4519 104.131 61.4702 104.085C61.4885 104.038 61.5215 103.998 61.5642 103.971C61.6069 103.945 61.6571 103.933 61.7072 103.937C62.609 104.008 66.728 105.781 67.4792 106.161C68.5892 106.72 68.4182 107.86 67.1408 108.06C66.0098 108.239 56.1608 108.636 55.205 108.269C53.765 107.713 55.7852 104.542 56.357 103.92ZM87.3047 74.1355L87.3049 74.1354C89.0482 73.5936 90.5759 73.1188 92.595 73.0014C93.693 72.9348 93.651 73.3392 92.7078 73.794C89.6595 75.3155 86.8215 77.2263 84.2652 79.4784C82.9878 80.6136 82.6668 80.8722 82.1322 78.5856C82.0091 78.0607 81.9558 77.5218 81.9738 76.983C81.9738 76.6194 81.0516 76.3194 81.5538 78.8652C82.056 81.411 82.8522 81.4818 84.8538 79.7538C87.3614 77.6049 90.1124 75.7575 93.0504 74.2494C94.6866 73.4142 94.2108 72.3714 92.5668 72.3894C90.6636 72.3894 87.6792 73.341 85.9848 74.088C85.7256 74.205 85.8216 74.5848 86.1096 74.5014C86.5236 74.3782 86.9194 74.2552 87.3047 74.1355ZM65.8062 66.699C65.1086 65.6728 64.3148 64.7155 63.4356 63.84C63.24 63.642 63.018 63.9132 63.171 64.1154C65.6748 67.2246 72.1476 76.9236 72.1476 80.997C72.1476 83.9244 64.9902 99.2034 62.265 103.377C60.2715 103.406 58.2779 103.326 56.2932 103.137C56.5308 101.714 61.3554 85.425 62.4612 82.5786C62.3149 82.4158 61.9557 82.0514 61.4394 81.5275L61.4393 81.5274C58.1832 78.2237 48.6784 68.5798 46.9026 63.1764C56.1763 61.2247 60.5805 58.287 63.5814 56.2853C64.7319 55.5178 65.6762 54.8879 66.6096 54.504C66.7988 54.4264 67.0152 54.3362 67.2554 54.2361L67.2573 54.2353L67.2576 54.2352C70.711 52.7964 79.0909 49.305 82.8486 51.2904C84.5837 52.1937 84.8014 55.7741 85.1438 61.4079C85.3426 64.677 85.5833 68.6376 86.187 73.1676C84.6231 74.391 82.9558 75.4761 81.204 76.4106C80.4174 74.8284 76.3854 65.8722 76.344 62.2542C72.9519 64.0067 69.4287 65.4927 65.8062 66.699ZM58.6589 28.6969C58.618 28.28 58.6127 28.2255 58.7049 27.4223C58.7421 27.427 58.796 27.4388 58.8633 27.4535C59.2401 27.5359 60.0366 27.7099 60.6768 27.256C60.7138 26.9732 61.3289 25.7291 61.5002 25.5C61.5325 25.4568 61.561 25.4163 61.5879 25.3782C61.7036 25.2141 61.7878 25.0949 62.0002 25C62.1564 24.9239 62.4213 24.6543 62.4998 24.5C62.5696 24.3626 62.5398 24.2082 62.5104 24.0561C62.5068 24.0374 62.5032 24.0186 62.4998 24C62.4902 23.8057 62.257 21.9055 60.8319 21.6629C60.6829 21.6242 60.5444 21.553 60.4266 21.4546C59.8128 20.9537 59.1456 20.6969 58.3676 21.0494C58.0066 21.2129 57.6569 21.4003 57.321 21.6103C56.8393 21.9117 56.5687 21.889 56.2755 21.3982C55.5803 20.2352 55.7732 19.2676 55.947 18.3951C56.0021 18.1186 56.0553 17.8517 56.0778 17.5911C56.1119 17.1958 55.6954 17.1651 55.5601 17.4528C55.3942 17.8871 55.2615 18.3331 55.1629 18.7871C55.1007 18.7855 55.0378 18.785 54.9745 18.7845H54.9744C54.8686 18.7836 54.7615 18.7828 54.6546 18.7766C54.4259 18.7814 54.2014 18.7165 54.0112 18.5907C53.821 18.465 53.6742 18.2842 53.5905 18.0728C53.5111 17.8749 53.4934 17.6577 53.5395 17.4494C53.5857 17.241 53.6936 17.051 53.8493 16.904C53.9956 16.7163 54.2027 16.5847 54.4353 16.5317C54.6678 16.4787 54.9114 16.5075 55.1246 16.6133C55.3684 16.7506 55.7386 16.463 55.4139 16.1034C55.334 16.0143 55.2289 15.9511 55.1123 15.9223C54.8584 15.8599 54.5937 15.8532 54.3366 15.9025C54.0795 15.9518 53.8361 16.056 53.6231 16.2079C53.4101 16.3598 53.2327 16.5557 53.103 16.7822C52.9733 17.0087 52.8945 17.2604 52.872 17.5198C52.8423 17.9532 52.9653 18.3829 53.2198 18.7349C53.4744 19.087 53.8446 19.3394 54.2668 19.4488C54.1368 20.1955 54.2641 20.6098 54.3829 20.9966C54.4725 21.2882 54.5573 21.5642 54.5235 21.9553C54.5131 22.0971 54.4862 22.2373 54.4433 22.3729C53.9654 23.8244 53.2147 27.236 53.2075 27.4057C53.1569 27.8561 53.3858 27.7344 53.5002 27.5C53.8413 26.8009 54.0077 26.0109 54.1755 25.2139C54.3452 24.4086 54.5163 23.5961 54.8707 22.8628C55.0337 23.1518 55.1989 23.4746 55.3712 23.8111C56.0759 25.1878 56.8983 26.7941 58.1634 27.2569C58.1566 28.2526 58.3876 29.03 58.435 29.185C58.4757 29.4903 58.7793 30.1912 58.7049 29.2169C58.6874 28.9877 58.6715 28.8252 58.6589 28.6969ZM58.6306 23.7732C58.4555 23.5568 58.332 23.3036 58.2693 23.0326C58.1319 22.3854 58.2883 21.8962 58.8065 21.7326C59.0274 21.6596 59.2626 21.6409 59.492 21.6779C59.7214 21.7149 59.9383 21.8067 60.124 21.9453C60.2869 22.0657 60.4661 22.1626 60.6563 22.2331C60.7618 22.2583 60.86 22.3075 60.943 22.3768C61.0261 22.4462 61.0918 22.5338 61.1351 22.6328C61.1783 22.7317 61.1979 22.8394 61.1922 22.9473C61.1865 23.0552 61.1558 23.1604 61.1025 23.2547C60.8886 23.5996 60.6265 23.9125 60.324 24.184C60.184 24.3107 60.0065 24.3888 59.8182 24.4066C59.63 24.4244 59.4412 24.3809 59.2803 24.2827C59.0278 24.1639 58.8056 23.9897 58.6306 23.7732ZM61.3699 21.3469C60.7668 21.5046 60.7586 21.1443 60.9053 20.9386C60.9054 20.938 60.9078 20.9373 60.9124 20.9358C60.9991 20.9082 61.855 20.6356 61.9618 17.1656C61.9684 16.9398 62.127 16.5755 62.2357 17.1487C62.2167 20.2059 61.8513 20.9786 61.3699 21.3469ZM60.1688 15.951C60.4002 16.0171 60.6086 16.1453 60.7713 16.3216C61.0278 16.5931 61.4804 16.246 61.2069 15.844C61.0372 15.6572 60.828 15.5101 60.5941 15.4135C60.3603 15.3168 60.1077 15.2729 59.8545 15.2848C59.6012 15.2968 59.3536 15.3644 59.1294 15.4827C58.9052 15.601 58.71 15.7672 58.5577 15.9692C58.4374 16.1151 58.4271 16.3914 58.7595 16.2153C58.9879 16.1136 59.2216 16.024 59.4595 15.9469C59.692 15.8835 59.9374 15.8849 60.1688 15.951ZM63.9535 18.6107L63.9335 18.5192C63.9072 18.3999 63.8807 18.2796 63.8629 18.1592C63.7846 17.6246 63.6121 17.1651 63.0221 16.9948C62.9406 16.9709 62.7551 16.5668 63.1466 16.5759C63.4511 16.6336 63.7262 16.7932 63.9265 17.0282C64.1267 17.2631 64.24 17.5594 64.2476 17.8677C64.2658 18.09 64.261 18.3136 64.2331 18.535C64.1937 18.8724 64.0356 18.8112 63.9535 18.6107ZM62.8266 18.143C62.7606 18.1573 62.6987 18.1863 62.6455 18.2278C62.4965 18.5521 62.41 18.9011 62.3905 19.2568C62.4099 19.3102 62.4436 19.3571 62.4881 19.3926C62.5325 19.428 62.586 19.4506 62.6425 19.4579C62.6991 19.4651 62.7566 19.4567 62.8088 19.4337C62.861 19.4106 62.9059 19.3737 62.9385 19.327C63.1349 19.0792 63.2284 18.766 63.1994 18.4523C63.1984 18.3908 63.1821 18.3306 63.1519 18.277C63.1217 18.2234 63.0786 18.1782 63.0264 18.1453C62.9609 18.1295 62.8925 18.1287 62.8266 18.143ZM60.0881 17.0096C60.2275 17.5167 59.9606 18.1419 59.626 18.1764C59.5359 18.1734 59.4479 18.149 59.3692 18.1053C59.2906 18.0617 59.2236 18 59.1738 17.9254C59.0363 17.6624 59.4315 16.9789 59.6834 16.8763C59.9241 16.7784 60.0422 16.844 60.0881 17.0096ZM59.5324 23.5491C59.6944 23.5922 59.864 23.5995 60.0294 23.5706C60.3797 23.4517 60.5818 23.2242 60.2578 23.1958C59.4925 23.1303 59.3665 23.0164 59.1206 22.383C59.0074 21.9237 58.7197 22.1655 58.6799 22.447C58.6803 22.6139 58.7173 22.7787 58.7884 22.9297C58.8595 23.0807 58.9629 23.2144 59.0914 23.3214C59.2199 23.4283 59.3704 23.5061 59.5324 23.5491Z" fill="#4D4D4D"/>
</svg>
