<svg width="120" height="120" viewBox="0 0 120 120" fill="none" xmlns="http://www.w3.org/2000/svg">
<path d="M21.6588 32.756C20.514 33.2007 20.3387 34.8899 21.471 35.6909C21.6797 35.8367 22.2066 36.1016 22.3558 35.7648C22.4704 35.5313 22.2367 35.3821 22.0356 35.2537C21.9654 35.2089 21.8992 35.1667 21.8532 35.1242C21.0241 34.3483 21.443 33.2286 22.4202 33.3684C22.5835 33.3875 22.7411 33.44 22.8833 33.5227C23.0254 33.6053 23.149 33.7164 23.2463 33.8489C23.3437 33.9814 23.4127 34.1325 23.449 34.2929C23.4854 34.4532 23.4884 34.6193 23.4577 34.7809C23.4378 34.9001 23.3834 35.0149 23.3293 35.1289C23.2686 35.2568 23.2084 35.3838 23.1979 35.515C23.1955 35.7526 23.2803 35.9829 23.4362 36.1622C23.635 36.4183 23.8697 36.6657 24.0977 36.906L24.1664 36.9785C24.201 37.0159 24.2427 37.046 24.2891 37.0672C24.3354 37.0883 24.3855 37.1 24.4364 37.1016C24.4873 37.1032 24.5381 37.0947 24.5857 37.0765C24.6332 37.0584 24.6768 37.0309 24.7136 36.9958C24.7861 36.9241 24.8284 36.8273 24.8316 36.7254C24.8348 36.6235 24.7987 36.5243 24.7308 36.4482C24.4901 36.1715 23.9683 35.5936 23.9547 35.5853C24.5172 34.0907 23.8737 33.0683 22.8671 32.7291C22.4726 32.6034 22.0474 32.6129 21.6588 32.756Z" fill="#417FDA"/>
<path d="M29.406 24.9776C27.3471 24.533 25.5009 26.7857 26.3655 29.0019C26.5266 29.4076 27.0307 30.2844 27.5623 29.9432C27.947 29.7171 27.7533 29.2827 27.5866 28.909C27.5285 28.7787 27.4736 28.6557 27.4477 28.5515C26.9936 26.6576 28.6508 25.4503 29.9177 26.5733C30.1335 26.7548 30.3095 26.9789 30.4349 27.2314C30.5603 27.484 30.6324 27.7597 30.6466 28.0413C30.6608 28.3229 30.6168 28.6045 30.5175 28.8684C30.4181 29.1323 30.2655 29.3729 30.0691 29.5752C29.928 29.7271 29.7417 29.84 29.5566 29.9521C29.3489 30.0779 29.1428 30.2029 29.0038 30.3808C28.7759 30.7187 28.6799 31.1284 28.7337 31.5324C28.7766 32.0867 28.8789 32.6626 28.9783 33.222L29.0082 33.3906C29.0225 33.4768 29.0537 33.5593 29.1001 33.6334C29.1465 33.7074 29.2071 33.7715 29.2785 33.8218C29.3499 33.8722 29.4306 33.9079 29.5159 33.9269C29.6011 33.9458 29.6893 33.9476 29.7753 33.9321C29.9468 33.898 30.0986 33.7993 30.1994 33.6565C30.3003 33.5136 30.3423 33.3375 30.317 33.1645C30.2337 32.5411 30.0325 31.2209 30.0208 31.1961C32.2375 29.5876 32.2819 27.5162 31.1611 26.0802C30.7151 25.5276 30.0974 25.1396 29.406 24.9776Z" fill="#417FDA"/>
<path d="M38.8333 29.5087C37.5749 28.4798 35.515 29.3789 35.3304 31.2053C35.2985 31.5407 35.3368 32.3203 35.8219 32.2726C36.1657 32.2524 36.1852 31.8859 36.202 31.5706C36.2078 31.4606 36.2133 31.3568 36.2322 31.2761C36.5856 29.8154 38.1483 29.5681 38.6242 30.7848C38.7087 30.9853 38.751 31.2011 38.7484 31.4187C38.7458 31.6363 38.6984 31.851 38.6092 32.0495C38.52 32.248 38.3909 32.426 38.2299 32.5724C38.069 32.7188 37.8795 32.8305 37.6735 32.9005C37.5232 32.9553 37.3556 32.9674 37.189 32.9794C37.0021 32.9929 36.8166 33.0063 36.6585 33.0797C36.3833 33.2318 36.1733 33.4796 36.0684 33.776C35.9031 34.1719 35.7711 34.6035 35.6428 35.0227L35.6041 35.1492C35.5836 35.2134 35.576 35.2811 35.5819 35.3483C35.5878 35.4154 35.6069 35.4808 35.6383 35.5405C35.6696 35.6002 35.7125 35.653 35.7644 35.696C35.8164 35.739 35.8764 35.7712 35.9409 35.7908C36.0707 35.8276 36.2097 35.8131 36.3291 35.7504C36.4486 35.6877 36.5394 35.5815 36.5828 35.4537C36.7446 34.9961 37.0702 34.0184 37.0709 33.9972C39.159 33.6709 39.9173 32.2633 39.6518 30.8829C39.5395 30.3465 39.2515 29.8629 38.8333 29.5087Z" fill="#417FDA"/>
<path d="M106.616 29.659C106.635 29.6878 106.645 29.7213 106.646 29.7558C106.702 30.7864 106.795 31.815 106.889 32.8446C107.017 34.2442 107.144 35.6463 107.177 37.0566C107.176 37.1044 107.156 37.1498 107.122 37.1834C107.088 37.2169 107.042 37.236 106.994 37.2366C103.748 37.1834 87.7144 36.6314 72.4655 36.1064L72.4644 36.1064L72.4501 36.1059C57.3913 35.5874 43.1024 35.0954 42.6553 35.1366C42.6077 35.1345 42.5627 35.1144 42.5293 35.0805C42.4959 35.0465 42.4766 35.0012 42.4753 34.9536C42.7179 32.6074 43.212 30.2942 43.9489 28.0536C43.9583 28.0242 43.9746 27.9975 43.9964 27.9757C44.0182 27.9539 44.0449 27.9376 44.0743 27.9282C45.0157 27.7554 49.6003 27.6378 50.5291 27.6198C56.8022 27.4956 64.3352 27.7956 79.2876 28.3911C85.1423 28.6243 92.1344 28.9027 100.634 29.2188C102.544 29.2447 104.451 29.3783 106.346 29.619C106.372 29.5969 106.404 29.5828 106.439 29.5783C106.473 29.5737 106.507 29.5789 106.539 29.5931C106.57 29.6074 106.597 29.6303 106.616 29.659Z" fill="#417FDA"/>
<path d="M82.3429 27.8084C66.6871 27.3311 47.3032 26.7401 46.4079 26.6286C46.3553 26.6259 46.3057 26.6031 46.2694 26.565C46.2331 26.5269 46.2127 26.4763 46.2126 26.4236C46.2124 26.371 46.2324 26.3203 46.2686 26.2819C46.3047 26.2436 46.3541 26.2206 46.4067 26.2176C48.1017 26.1155 49.8293 26.1648 51.5385 26.2135C52.0298 26.2275 52.5196 26.2415 53.0067 26.2518C55.1319 26.2998 97.7313 27.6036 99.6621 27.6798C101.508 27.6565 103.353 27.771 105.182 28.0224C105.433 28.074 105.342 28.4088 105.125 28.434C104.026 28.5163 102.923 28.5123 101.825 28.422C100.175 28.3521 91.9688 28.1019 82.3547 27.8088L82.3453 27.8085L82.3429 27.8084Z" fill="#417FDA"/>
<path d="M35.7868 37.572C35.7169 37.5982 35.6425 37.6103 35.568 37.6076C35.4185 37.5999 35.2778 37.5347 35.1754 37.4255C35.073 37.3164 35.0168 37.1718 35.0187 37.0222C35.0208 36.9476 35.0376 36.8742 35.0682 36.8061C35.0989 36.7381 35.1427 36.6768 35.1971 36.6257C35.2515 36.5747 35.3155 36.5349 35.3854 36.5088C35.4552 36.4826 35.5296 36.4705 35.6042 36.4732C35.7536 36.4808 35.8942 36.546 35.9966 36.6552C36.0989 36.7643 36.155 36.9088 36.1531 37.0584C36.1511 37.133 36.1343 37.2064 36.1038 37.2745C36.0732 37.3426 36.0294 37.4039 35.975 37.455C35.9206 37.5061 35.8566 37.5458 35.7868 37.572Z" fill="#417FDA"/>
<path d="M30.6485 36.0783C30.5833 36.1497 30.5047 36.2075 30.417 36.2484C30.24 36.3277 30.0392 36.3354 29.8567 36.2699C29.6741 36.2044 29.5241 36.0707 29.4379 35.897C29.3963 35.8097 29.3724 35.7151 29.3676 35.6185C29.3628 35.5219 29.3771 35.4254 29.4098 35.3344C29.4425 35.2434 29.4929 35.1598 29.558 35.0883C29.6232 35.0169 29.7019 34.9591 29.7895 34.9182C29.9664 34.8389 30.1671 34.8311 30.3496 34.8966C30.532 34.9621 30.682 35.0957 30.7681 35.2694C30.8098 35.3567 30.8338 35.4514 30.8387 35.5479C30.8436 35.6445 30.8293 35.7411 30.7966 35.8321C30.764 35.9231 30.7136 36.0068 30.6485 36.0783Z" fill="#417FDA"/>
<path d="M25.8277 37.76C25.8189 37.8157 25.7992 37.8691 25.7697 37.9172C25.709 38.0126 25.6137 38.0808 25.5039 38.1075C25.394 38.1343 25.278 38.1174 25.1803 38.0605C25.132 38.0314 25.09 37.993 25.0567 37.9475C25.0233 37.9021 24.9993 37.8505 24.986 37.7957C24.9727 37.7409 24.9704 37.684 24.9791 37.6283C24.9879 37.5726 25.0076 37.5193 25.0372 37.4712C25.0978 37.3758 25.193 37.3076 25.3028 37.2809C25.4127 37.2542 25.5286 37.271 25.6263 37.328C25.6746 37.3571 25.7166 37.3954 25.75 37.4409C25.7834 37.4863 25.8075 37.5379 25.8208 37.5927C25.8341 37.6475 25.8365 37.7043 25.8277 37.76Z" fill="#417FDA"/>
<path fill-rule="evenodd" clip-rule="evenodd" d="M53.262 25.6205C52.9814 25.2909 52.5925 25.0722 52.1652 25.0037C50.3016 24.8615 49.383 28.8437 51.2172 29.6075C51.7656 29.8361 52.8738 29.7785 52.8738 29.0591C52.8697 29.0226 52.8565 28.9877 52.8353 28.9576C52.814 28.9276 52.7855 28.9035 52.7524 28.8875C52.7193 28.8714 52.6827 28.8641 52.646 28.8661C52.6093 28.8681 52.5737 28.8794 52.5426 28.8989C52.3828 29.0206 52.1919 29.0948 51.9919 29.1131C51.7919 29.1314 51.5907 29.0929 51.4116 29.0021C50.4132 28.3667 51.0852 25.6613 52.0626 25.5521C52.415 25.5569 52.7576 25.6684 53.0454 25.8719C53.2164 25.9517 53.3874 25.7351 53.262 25.6205ZM60.9618 25.0631C61.3895 25.1229 61.78 25.3385 62.0586 25.6685C62.1864 25.7885 62.0118 26.0111 61.8414 25.9199C61.5482 25.7296 61.2086 25.623 60.8592 25.6115C59.88 25.7009 59.211 28.3967 60.2076 29.0159C60.3872 29.1049 60.588 29.1424 60.7877 29.1241C60.9873 29.1059 61.178 29.0327 61.3386 28.9127C61.37 28.8945 61.4055 28.8842 61.4418 28.8829C61.4781 28.8815 61.5142 28.8891 61.547 28.9049C61.5797 28.9207 61.608 28.9442 61.6296 28.9735C61.6511 29.0028 61.6651 29.0369 61.6704 29.0729C61.6704 29.7695 60.5616 29.8385 60.0138 29.6099C58.17 28.8401 59.112 24.9221 60.9618 25.0631ZM35.1094 49.3361C35.1049 48.984 35.0512 48.6342 34.9498 48.2969C34.9162 48.2051 34.765 48.1823 34.744 48.2969C34.7103 48.4868 34.7216 48.7769 34.738 49.1984V49.1984V49.1985V49.1985V49.1985V49.1986V49.1986V49.1986V49.1987V49.1987V49.1987V49.1988V49.1988V49.1989V49.1989V49.1989V49.199V49.199L34.738 49.1991V49.1991V49.1992V49.1992V49.1993C34.7509 49.529 34.7668 49.939 34.7668 50.4443C34.7668 50.5966 34.7671 50.7422 34.7675 50.8813L34.7675 50.8835C34.7711 52.4191 34.7728 53.1642 34.2982 53.4491C34.0589 53.5691 33.7889 53.6136 33.5237 53.5769C33.2586 53.5401 33.0109 53.4238 32.8132 53.2433C32.7335 53.1724 32.6661 53.0859 32.5989 52.9996C32.5144 52.8911 32.4301 52.7829 32.3218 52.7063C32.3013 52.6946 32.2784 52.6876 32.2549 52.686C32.2313 52.6843 32.2077 52.688 32.1857 52.6968C32.1638 52.7055 32.1441 52.7192 32.1282 52.7366C32.1123 52.7541 32.1005 52.7749 32.0938 52.7975C31.9906 53.3801 32.7676 53.8487 33.2338 53.9741C33.5369 54.0745 33.8638 54.0779 34.1689 53.9838C34.474 53.8897 34.7421 53.7028 34.936 53.4491C35.2238 52.7801 35.3188 52.044 35.2102 51.3239C35.2133 51.3243 35.2164 51.3243 35.2195 51.324C35.2226 51.3237 35.2256 51.3231 35.2286 51.3221C35.2345 51.3201 35.2399 51.3168 35.2444 51.3125C35.345 51.2624 35.3882 51.1801 35.4574 51.0485C35.5199 50.9297 35.6034 50.7707 35.7694 50.5589C35.8467 50.4619 35.8151 50.4223 35.6985 50.276C35.5807 50.1281 35.376 49.8712 35.1094 49.3361ZM35.1778 50.8085L35.1663 50.5035C35.1587 50.3036 35.1512 50.1037 35.1436 49.9085C35.243 50.1002 35.3575 50.2836 35.4862 50.4569C35.3695 50.5612 35.266 50.6793 35.1778 50.8085ZM32.631 53.9171C32.631 53.8487 32.5386 53.8367 32.505 53.8829C32.2845 54.1945 32.1943 54.5798 32.2536 54.9569C32.2878 55.2425 32.346 55.6973 32.6652 55.8023C32.7001 55.8115 32.7371 55.8071 32.7688 55.7901C32.8006 55.7731 32.8247 55.7446 32.8362 55.7105C32.8802 55.5429 32.8137 55.3707 32.7478 55.2L32.7477 55.1999C32.7103 55.1029 32.673 55.0063 32.6562 54.9113C32.6043 54.5824 32.5959 54.2482 32.631 53.9171ZM54.073 61.4567C57.3454 63.6749 61.0402 66.6035 62.3212 70.2875C63.0244 72.1946 62.9472 74.302 62.1064 76.1525C60.5008 79.6505 55.8514 84.3827 49.5513 86.6627C48.0144 87.2594 46.3797 87.5646 44.731 87.5627C44.6526 87.5668 44.5757 87.5406 44.5162 87.4896C44.4567 87.4385 44.4191 87.3665 44.4111 87.2885C44.3541 86.9237 44.8546 86.8337 45.0712 86.9885C45.1054 87.0227 45.1395 87.0443 45.3111 87.0113C48.8243 86.356 52.1531 84.945 55.0672 82.8761C57.5698 81.0683 60.9898 77.6483 61.8298 74.6735C62.9632 70.6757 59.9416 67.0349 57.2032 64.6895C54.1181 62.0677 50.6705 59.9054 46.9672 58.2695C42.9171 56.4647 38.9787 55.1933 34.6413 55.9847C34.5879 55.9968 34.5318 55.9879 34.4847 55.9598C34.4377 55.9317 34.4032 55.8865 34.3885 55.8337C34.3737 55.7809 34.3799 55.7245 34.4056 55.6761C34.4314 55.6277 34.4747 55.591 34.5267 55.5737C37.1745 54.7259 40.0042 55.1585 42.649 55.9505C46.706 57.2167 50.5551 59.0719 54.073 61.4567ZM53.3535 73.1777C52.4787 73.4177 50.4417 74.7761 49.7049 75.2897C48.0207 74.2529 43.5201 72.3977 42.7407 72.5837C42.6914 72.6013 42.6478 72.6321 42.6148 72.6727C42.5817 72.7134 42.5605 72.7624 42.5535 72.8143C42.5464 72.8662 42.5538 72.9191 42.5747 72.9671C42.5957 73.0151 42.6295 73.0564 42.6723 73.0865C42.8953 73.2176 43.1386 73.3103 43.3923 73.3607C45.3947 73.9611 47.3461 74.7201 49.2279 75.6305C47.4162 76.9796 45.6886 78.4381 44.0547 79.9979C43.8783 80.1617 43.6793 80.3421 43.4682 80.5336L43.4678 80.5339L43.4677 80.534L43.4676 80.5341C42.8078 81.1324 42.0292 81.8384 41.4489 82.4801C41.2413 82.7099 41.7027 83.4401 41.8731 83.6993C42.5573 84.8579 43.164 86.0606 43.6893 87.2993C43.7123 87.3562 43.7562 87.4022 43.812 87.4277C43.8678 87.4533 43.9312 87.4565 43.9893 87.4367C44.0401 87.4023 44.0792 87.3533 44.1016 87.2962C44.124 87.2392 44.1286 87.1766 44.1147 87.1169C43.6284 85.5307 42.8998 84.0291 41.9547 82.6655C42.8625 81.9733 43.7833 81.1399 44.7835 80.2346C46.8395 78.3738 49.2308 76.2095 52.5333 74.3447C52.9169 74.1483 53.2804 73.915 53.6187 73.6481C53.6643 73.6056 53.6942 73.549 53.7037 73.4874C53.7133 73.4258 53.7018 73.3629 53.6712 73.3086C53.6406 73.2543 53.5926 73.2119 53.535 73.1881C53.4774 73.1644 53.4135 73.1607 53.3535 73.1777ZM42.4093 73.3493C42.4609 73.0727 42.8773 73.1285 42.9001 73.3835C43.0399 74.9285 41.8273 79.6019 41.2207 81.0143C41.1205 81.2909 40.9105 81.8369 40.6153 81.8369C40.5403 81.8396 40.4671 81.8141 40.41 81.7654C40.3529 81.7168 40.3161 81.6485 40.3069 81.5741C40.3347 81.2677 40.42 80.9693 40.5583 80.6945C40.8565 79.9211 41.3449 78.2849 41.5639 77.4845C41.9421 76.1276 42.2246 74.7458 42.4093 73.3493ZM48.2471 91.2389C48.0126 91.4784 47.7883 91.7616 47.552 92.06C47.0512 92.6924 46.4965 93.393 45.6767 93.8891C45.177 94.2364 44.5813 94.4187 43.9728 94.4105C43.3644 94.4024 42.7738 94.2041 42.2837 93.8435C39.7403 91.8473 38.8379 87.3167 40.1363 85.3235C40.5481 84.688 40.9094 84.4988 41.238 84.3268C41.3748 84.2552 41.5059 84.1865 41.6327 84.0899C41.7233 84.0209 41.7353 83.8409 41.5985 83.8157C41.3 83.8093 41.0041 83.8708 40.7329 83.9955C40.4617 84.1203 40.2224 84.305 40.0331 84.5357C38.6729 85.9121 38.7809 88.5935 39.3935 90.4643C39.9869 92.2757 41.5133 94.6355 43.3235 94.9427C44.4521 95.1341 45.8291 94.7627 47.1161 93.4343C47.6942 92.8559 48.1763 92.1889 48.544 91.4585C48.5682 91.419 48.5767 91.3718 48.5678 91.3263C48.559 91.2808 48.5334 91.2403 48.4961 91.2127C48.4588 91.1852 48.4126 91.1726 48.3665 91.1774C48.3204 91.1823 48.2778 91.2042 48.2471 91.2389ZM46.248 91.3973C45.8037 91.7317 45.2721 91.9301 44.7174 91.9685C44.684 91.9685 44.6518 91.9567 44.6264 91.9351C44.6009 91.9136 44.5839 91.8838 44.5784 91.8509C44.5728 91.8181 44.5791 91.7843 44.5961 91.7556C44.6131 91.727 44.6397 91.7052 44.6712 91.6943C45.4246 91.5095 46.1076 91.1084 46.6362 90.5405C46.7525 90.3722 46.9047 90.2318 47.082 90.1295C47.1001 90.124 47.1193 90.1227 47.138 90.1257C47.1567 90.1288 47.1745 90.1361 47.1899 90.1472C47.2053 90.1582 47.218 90.1726 47.227 90.1893C47.2359 90.206 47.2409 90.2246 47.2416 90.2435C47.2416 90.7041 46.6138 91.1421 46.2658 91.3848L46.248 91.3973ZM44.6597 90.6221C45.1016 90.555 45.521 90.3831 45.8829 90.1206C46.2447 89.8582 46.5384 89.5129 46.7393 89.1137C46.7963 88.9541 46.5815 88.8533 46.4765 88.9541C45.9878 89.5854 45.3359 90.0712 44.5913 90.3593C44.5565 90.3683 44.5267 90.3909 44.5084 90.422C44.4902 90.453 44.4851 90.49 44.4941 90.5249C44.5032 90.5597 44.5257 90.5895 44.5568 90.6078C44.5879 90.626 44.6249 90.6311 44.6597 90.6221ZM68.8789 25.7003C69.3037 25.3175 70.1635 25.2065 70.4437 25.7915C70.4614 25.828 70.4659 25.8695 70.4564 25.9089C70.4468 25.9483 70.4239 25.9832 70.3915 26.0075C70.359 26.0319 70.3191 26.0442 70.2786 26.0423C70.2381 26.0404 70.1995 26.0245 70.1695 25.9973C69.7861 25.6829 69.3037 26.0669 69.1297 26.3861C68.7175 27.1445 68.4151 28.4819 69.1531 29.0591C69.4908 29.3232 69.8056 29.261 70.0896 29.2049C70.2011 29.1828 70.3079 29.1617 70.4095 29.1617C70.4416 29.1595 70.4739 29.1648 70.5036 29.1771C70.5334 29.1895 70.5599 29.2087 70.5809 29.2331C70.602 29.2575 70.6171 29.2864 70.6251 29.3177C70.633 29.3489 70.6335 29.3816 70.6267 29.4131C70.4281 30.1121 69.2683 29.9255 68.7985 29.6075C68.511 29.3952 68.2868 29.1086 68.15 28.7784C68.0132 28.4483 67.969 28.0871 68.0221 27.7337C68.1082 26.9881 68.4055 26.2827 68.8789 25.7003ZM79.5828 26.2715C79.0236 25.2599 77.1336 25.6679 76.9668 28.0991C76.9192 28.4968 76.9567 28.9001 77.0768 29.2822C77.1969 29.6643 77.3968 30.0165 77.6634 30.3155C77.8115 30.4431 77.9848 30.538 78.172 30.5943C78.3592 30.6505 78.5561 30.6668 78.75 30.642C78.9439 30.6172 79.1304 30.5519 79.2974 30.4504C79.4645 30.3489 79.6083 30.2134 79.7196 30.0527C79.7373 30.0225 79.7467 29.9882 79.7469 29.9532C79.7472 29.9181 79.7381 29.8837 79.7208 29.8533C79.7035 29.8228 79.6784 29.7975 79.6482 29.7799C79.6179 29.7622 79.5836 29.7529 79.5486 29.7527C79.3852 29.7547 79.215 29.8051 79.0454 29.8553C78.7048 29.9561 78.3659 30.0565 78.0864 29.7641C77.5002 29.1515 77.445 27.4481 78.0978 26.6795C78.2319 26.4988 78.4321 26.3784 78.6547 26.3447C78.8772 26.3109 79.1041 26.3666 79.2858 26.4995C79.3188 26.5295 79.3613 26.547 79.4058 26.5489C79.4504 26.5508 79.4942 26.5369 79.5296 26.5097C79.565 26.4826 79.5897 26.4438 79.5995 26.4003C79.6092 26.3567 79.6033 26.3111 79.5828 26.2715ZM87.8237 26.4184C87.9475 26.4845 88.0461 26.5895 88.1043 26.7173C88.1505 26.8685 87.8493 26.9933 87.7503 26.8181C87.5145 26.4041 86.3367 27.3953 86.8251 28.8401C86.9484 29.2973 87.2272 29.6973 87.6135 29.9711C87.786 30.0818 87.9901 30.1329 88.1944 30.1164C88.3988 30.0999 88.592 30.0169 88.7445 29.8799C88.9131 29.7167 89.2587 29.8937 89.1897 30.0737C88.9743 30.6455 88.0017 30.7247 87.4077 30.4511C87.1065 30.287 86.8428 30.0619 86.6334 29.7902C86.4241 29.5184 86.2738 29.2059 86.1921 28.8728C86.1104 28.5396 86.0991 28.1931 86.1589 27.8553C86.2187 27.5175 86.3484 27.1959 86.5395 26.9111C86.638 26.7607 86.7673 26.6329 86.919 26.5364C87.0707 26.4399 87.2412 26.3768 87.4191 26.3513C87.5577 26.3286 87.6998 26.3522 87.8237 26.4184ZM97.7808 26.3969C97.4452 26.278 97.0793 26.2754 96.742 26.3895C96.4047 26.5035 96.1155 26.7276 95.9208 27.0257C95.7262 27.3612 95.6042 27.7338 95.5629 28.1195C95.5215 28.5051 95.5617 28.8952 95.6808 29.2643C95.8296 29.8241 96.1716 30.5285 97.0398 30.4643C97.6998 30.4151 98.3598 29.8925 98.2626 29.3561C98.2182 29.1041 97.8024 29.2181 97.7484 29.4359C97.694 29.6072 97.5829 29.7548 97.4334 29.8545C97.2839 29.9542 97.1049 30 96.9258 29.9843C96.4104 29.9061 96.2799 29.2342 96.2099 28.8743L96.2058 28.8533C96.0894 28.3508 96.1292 27.8248 96.3198 27.3455C96.4332 27.0996 96.6246 26.898 96.8642 26.7719C97.1038 26.6459 97.3784 26.6024 97.6452 26.6483C97.815 26.6939 97.9296 26.4647 97.7808 26.3969ZM41.3586 40.7339C41.4586 39.0969 41.7578 37.4781 42.2496 35.9135C42.3072 35.7533 42.6 35.7647 42.5922 35.9363C42.5406 36.9442 42.4418 37.621 42.3243 38.4257C42.1494 39.6228 41.9332 41.1031 41.7696 44.3783C41.7666 44.4496 41.7688 44.5282 41.7712 44.6102C41.7795 44.8968 41.789 45.2252 41.5758 45.4295C41.5303 45.4645 41.4751 45.4844 41.4178 45.4864C41.3604 45.4885 41.3039 45.4725 41.256 45.4409C41.0288 45.2136 41.0621 44.8488 41.0907 44.5367C41.098 44.4565 41.105 44.3799 41.1072 44.3099C41.1342 43.4417 41.2212 42.0497 41.3586 40.7339ZM63.4938 91.6194H63.4938C63.8765 91.6331 64.2591 91.6468 64.6415 91.6613C66.1564 91.7189 67.6675 91.8022 69.1779 91.8855L69.1782 91.8855C71.2894 92.002 73.3994 92.1183 75.5171 92.1641C82.5311 92.3159 106.568 92.5409 108.68 92.4155C108.753 92.4155 108.823 92.3866 108.874 92.3352C108.926 92.2838 108.954 92.214 108.954 92.1413C108.954 92.0686 108.926 91.9989 108.874 91.9474C108.823 91.896 108.753 91.8671 108.68 91.8671C106.316 91.789 103.947 91.7986 101.58 91.8082H101.579H101.579H101.579H101.579H101.579H101.579H101.579H101.578H101.578H101.578H101.578H101.578H101.578H101.577H101.577H101.577H101.576H101.576H101.575H101.575H101.575H101.574H101.574H101.573H101.573H101.572H101.572H101.571H101.571H101.57C100.303 91.8133 99.0361 91.8185 97.7705 91.8101C94.4705 91.7885 73.0265 91.4285 71.0615 91.3073C67.1916 91.0692 64.9536 90.9825 62.5377 90.889C60.2974 90.8023 57.9041 90.7096 53.9147 90.4847C53.7419 90.4751 53.6957 90.7829 53.8799 90.8159C57.0518 91.3886 60.2754 91.5041 63.4938 91.6194ZM106.569 38.0153C106.577 37.7753 106.955 37.7867 106.98 38.0153C107 38.2247 108.649 82.2119 108.928 89.6333L108.928 89.6465L108.968 90.6905C108.965 91.0103 108.453 90.9989 108.419 90.6905C108.413 90.6299 106.487 40.3931 106.569 38.0153ZM17.7515 46.131H17.7515C16.1002 46.2912 14.293 46.4665 12.6047 46.2863C12.1884 46.1725 11.7538 46.1413 11.3255 46.1945C11.2889 46.2053 11.2558 46.2254 11.2295 46.2529C11.2031 46.2804 11.1843 46.3143 11.175 46.3513C11.1658 46.3883 11.1663 46.427 11.1766 46.4637C11.1869 46.5004 11.2066 46.5338 11.2337 46.5605C11.5707 46.7985 11.975 46.9225 12.3875 46.9145C14.341 47.1544 16.2119 46.9412 18.0138 46.7359C18.4113 46.6906 18.8054 46.6457 19.1963 46.6061C19.5349 46.5717 19.8736 46.5452 20.2122 46.5188L20.2124 46.5187C20.7647 46.4756 21.317 46.4324 21.8693 46.3547C22.0295 46.3433 22.0295 46.0781 21.8693 46.0463C20.8112 45.8341 19.3548 45.9754 17.7516 46.131H17.7516H17.7516H17.7515H17.7515H17.7515H17.7515ZM32.429 55.9186C33.0898 55.7955 33.6498 55.6913 34.0588 55.6649C34.1353 55.6639 34.2097 55.69 34.2687 55.7386C34.3277 55.7873 34.3676 55.8552 34.3813 55.9305C34.395 56.0057 34.3815 56.0834 34.3434 56.1497C34.3052 56.216 34.2448 56.2666 34.1728 56.2925C32.2681 56.8551 30.298 57.1664 28.3126 57.2183C24.2295 57.2183 22.5238 55.5392 19.9098 52.966C18.7974 51.871 17.5205 50.6141 15.826 49.2557C15.109 48.7033 14.4226 48.1122 13.7698 47.4851C13.7266 47.4412 13.7007 47.3831 13.697 47.3216C13.6933 47.2601 13.7119 47.1994 13.7495 47.1506C13.7872 47.1018 13.8412 47.0682 13.9016 47.0562C13.962 47.0441 14.0247 47.0543 14.0782 47.0849C16.2732 48.3785 18.3039 50.3331 20.1184 52.0796C21.6122 53.5174 22.9595 54.8141 24.1312 55.4849C26.7428 56.9773 30.1734 56.3385 32.429 55.9186ZM37.26 42.4931C36.8868 40.7177 35.0244 39.5939 33.33 39.5345C32.2242 39.5636 31.153 39.926 30.2568 40.5743C31.0126 40.6883 31.7521 40.8915 32.46 41.1797C32.6357 41.2277 32.7986 41.314 32.9369 41.4325C33.0752 41.551 33.1855 41.6987 33.2598 41.8649C33.2771 41.8997 33.2864 41.938 33.2868 41.9768C33.2873 42.0157 33.2789 42.0542 33.2624 42.0894C33.2459 42.1246 33.2217 42.1556 33.1915 42.1801C33.1613 42.2046 33.126 42.222 33.0882 42.2309C32.8683 42.3296 32.6322 42.3876 32.3916 42.4019C32.3688 42.4019 32.3574 42.4475 32.3916 42.4475C32.892 42.5553 33.3761 42.7282 33.8316 42.9617C33.9014 42.9974 33.9629 43.0473 34.0121 43.1083C34.0613 43.1693 34.0971 43.24 34.1172 43.3157C34.2558 43.9013 33.3114 44.0957 32.712 44.1725C32.655 44.1839 32.6436 44.2643 32.7006 44.2757C33.009 44.3555 33.3054 44.4377 33.6144 44.5265C34.059 44.6555 34.6026 44.8577 34.6542 45.3149C34.6727 45.4193 34.6524 45.5269 34.5971 45.6173C34.5419 45.7078 34.4555 45.775 34.3542 45.8063C34.0065 45.9935 33.6267 46.1135 33.2346 46.1603C33.2118 46.1616 33.1901 46.1706 33.173 46.1858C33.156 46.201 33.1445 46.2215 33.1406 46.244C33.1366 46.2665 33.1404 46.2896 33.1512 46.3097C33.1621 46.3298 33.1794 46.3457 33.2004 46.3547C33.2923 46.3975 33.3879 46.4319 33.486 46.4573C33.5679 46.4794 33.6397 46.529 33.6895 46.5976C33.7393 46.6663 33.7641 46.75 33.7596 46.8347C33.7321 47.336 33.15 47.4303 32.9621 47.4608L32.949 47.4629C31.9466 47.6386 31.123 47.535 30.2224 47.4216L30.2223 47.4216C29.8347 47.3728 29.4328 47.3222 28.9962 47.2913C29.1819 47.4029 29.3618 47.516 29.544 47.6306L29.5441 47.6306L29.5441 47.6306L29.5442 47.6307L29.5442 47.6307L29.5443 47.6307L29.5443 47.6308L29.5444 47.6308L29.5444 47.6308L29.5444 47.6308L29.5445 47.6309L29.5445 47.6309C29.6424 47.6925 29.741 47.7545 29.8416 47.8169C30.0114 47.9219 30.207 48.0455 30.1728 48.2969C30.16 48.3814 30.1261 48.4613 30.0742 48.5292C30.0223 48.597 29.954 48.6507 29.8758 48.6851C28.2036 49.4513 25.878 48.2813 24.4038 47.2001C24.5219 48.2183 24.7596 49.219 25.1118 50.1815C25.4013 51.1618 25.804 52.1049 26.3118 52.9919C26.4667 53.298 26.6893 53.5648 26.9628 53.7719C27.3253 53.9591 27.7326 54.0422 28.1394 54.0119L28.1279 54.2975C28.1201 54.4879 28.1124 54.6783 28.1052 54.8687C28.0376 55.1823 28.0454 55.5074 28.128 55.8173C28.1424 55.8408 28.1625 55.8601 28.1865 55.8736C28.2105 55.887 28.2376 55.8941 28.2651 55.8941C28.2926 55.8941 28.3197 55.887 28.3437 55.8736C28.3677 55.8601 28.3878 55.8408 28.4022 55.8173C28.5456 55.5028 28.5932 55.1531 28.539 54.8117C28.5431 54.5326 28.5241 54.2536 28.482 53.9777C28.8707 53.9292 29.256 53.8569 29.6358 53.7611C29.862 53.7054 30.0537 53.6648 30.2173 53.6302C31.1529 53.4321 31.1693 53.4286 31.464 51.9011C31.5643 51.3617 31.6244 50.8156 31.644 50.2673C31.9413 50.4494 32.2942 50.5184 32.6382 50.4617C32.901 50.4185 32.856 50.0483 32.6382 49.9703C32.3944 49.8818 32.1559 49.7999 31.9146 49.717L31.9145 49.7169L31.9141 49.7168C31.8283 49.6873 31.7422 49.6577 31.6554 49.6277C31.5588 49.4956 31.5034 49.3379 31.496 49.1744C31.4886 49.0108 31.5297 48.8488 31.614 48.7085C31.6978 48.5735 31.8176 48.4647 31.9601 48.3943C32.1025 48.3239 32.2618 48.2948 32.4199 48.3103C32.578 48.3258 32.7286 48.3852 32.8547 48.4819C32.9808 48.5786 33.0772 48.7086 33.1332 48.8573C33.1643 48.9084 33.2114 48.9479 33.2673 48.9694C33.3231 48.9909 33.3845 48.9934 33.4419 48.9764C33.4993 48.9595 33.5494 48.924 33.5845 48.8755C33.6197 48.827 33.6377 48.7683 33.636 48.7085C33.7085 48.6083 33.7591 48.5407 33.8092 48.4739C33.8619 48.4035 33.914 48.3341 33.99 48.2285C35.6958 48.0935 36.3834 47.1773 36.9378 45.5885C37.3221 44.6046 37.4334 43.5351 37.26 42.4931ZM28.6667 47.9999C28.8624 47.9969 29.0579 48.016 29.2493 48.0569C29.3392 48.0852 29.4154 48.1457 29.4635 48.2267C29.5367 48.5783 28.9235 48.7181 28.5635 48.7181C27.1041 48.7181 25.4964 47.5122 24.6711 46.893C24.5324 46.789 24.4158 46.7015 24.3257 46.6391C23.6529 46.1731 23.2003 45.9758 22.9193 45.8533C22.6753 45.7469 22.5607 45.697 22.5437 45.5765C22.5389 45.621 22.5212 45.6631 22.4927 45.6977C22.4642 45.7322 22.4263 45.7577 22.3835 45.7709C22.3447 45.7837 22.3032 45.7862 22.2632 45.7783C22.2231 45.7703 22.1858 45.752 22.1549 45.7253C21.9187 45.4258 21.79 45.0556 21.7895 44.6741C21.5877 43.587 21.7027 42.4649 22.1207 41.4413C22.1435 41.3983 22.1803 41.3644 22.2251 41.3453C22.2699 41.3262 22.3199 41.3231 22.3667 41.3365C22.4135 41.3498 22.4543 41.3788 22.4822 41.4187C22.5102 41.4585 22.5236 41.5068 22.5203 41.5553C22.3029 42.6634 22.2874 43.8017 22.4747 44.9153C22.5199 45.0985 22.543 45.2864 22.5437 45.4751C22.5657 45.4294 22.6022 45.3922 22.6476 45.3694C22.693 45.3466 22.7446 45.3395 22.7945 45.3491C23.7793 45.5114 24.6554 46.0936 25.5245 46.6712C26.5288 47.3386 27.5239 47.9999 28.6667 47.9999ZM33.1104 46.4915C32.6396 46.3979 32.1599 46.3567 31.68 46.3685C31.2159 46.3073 30.7878 46.235 30.3859 46.167C29.2637 45.9775 28.3444 45.8222 27.4074 46.0373C27.3568 46.0527 27.3131 46.0853 27.2839 46.1293C27.2546 46.1734 27.2416 46.2263 27.2471 46.2789C27.2525 46.3316 27.2761 46.3806 27.3138 46.4178C27.3515 46.4549 27.4009 46.4778 27.4536 46.4825C28.492 46.4883 29.532 46.6868 30.4538 46.8627C31.6364 47.0884 32.6245 47.277 33.165 46.9739C33.2071 46.9463 33.2408 46.9076 33.2622 46.8621C33.2836 46.8165 33.2919 46.7659 33.2863 46.7159C33.2806 46.6659 33.2612 46.6184 33.2301 46.5788C33.1991 46.5392 33.1576 46.5089 33.1104 46.4915ZM32.9372 44.8874H32.9372C33.448 44.9287 33.7283 44.9514 33.9899 45.0749C34.0357 45.1063 34.0717 45.1499 34.0938 45.2009C34.1159 45.2518 34.1232 45.3079 34.1149 45.3628C34.1066 45.4176 34.0829 45.4691 34.0467 45.5111C34.0105 45.5532 33.9631 45.5842 33.9101 45.6005C33.418 45.691 32.9125 45.6793 32.4251 45.5663C31.4916 45.4734 30.5646 45.3247 29.6489 45.1211C29.1833 45.0611 28.7314 44.9219 28.3127 44.7095C28.2708 44.6826 28.2385 44.6431 28.2204 44.5967C28.2023 44.5503 28.1994 44.4994 28.2121 44.4512C28.2247 44.403 28.2523 44.3601 28.2909 44.3286C28.3294 44.2971 28.377 44.2786 28.4267 44.2757C28.9015 44.2793 29.3738 44.3445 29.8319 44.4695C31.4162 44.7643 32.3362 44.8388 32.9372 44.8874ZM28.7352 42.9161C28.6766 42.9213 28.622 42.9482 28.5823 42.9915C28.5425 43.0349 28.5205 43.0916 28.5205 43.1504C28.5205 43.2092 28.5425 43.2659 28.5823 43.3093C28.622 43.3527 28.6766 43.3796 28.7352 43.3847C29.1542 43.4204 29.6896 43.5215 30.2558 43.6285C31.6578 43.8932 33.2485 44.1936 33.7272 43.6247C33.7536 43.5937 33.7716 43.5566 33.7797 43.5167C33.7878 43.4768 33.7856 43.4355 33.7734 43.3967C33.7051 43.1581 33.4136 43.1928 33.0314 43.2383C32.8456 43.2604 32.6385 43.2851 32.4252 43.2821C31.9206 43.2748 31.4209 43.1847 30.9123 43.0931C30.2151 42.9674 29.5012 42.8387 28.7352 42.9161ZM26.084 41.6594C25.0648 41.8385 24.0346 42.0196 22.9434 41.8877C22.659 41.8535 22.788 41.4851 23.0004 41.4683C24.1299 41.3636 25.075 41.197 25.9123 41.0494C26.5907 40.9298 27.1983 40.8227 27.7758 40.7711C29.047 40.7012 30.321 40.8431 31.5456 41.1911C31.8901 41.2487 32.2222 41.3646 32.5278 41.5337C32.5775 41.5656 32.6155 41.6128 32.6362 41.6681C32.6568 41.7235 32.659 41.784 32.6423 41.8407C32.6256 41.8974 32.5909 41.9471 32.5436 41.9824C32.4962 42.0177 32.4387 42.0367 32.3796 42.0365C32.1136 42.0365 31.7662 41.9449 31.3331 41.8307C30.4569 41.5997 29.2297 41.2761 27.6156 41.4311C27.1037 41.4802 26.5952 41.5696 26.084 41.6594L26.084 41.6594ZM39.9761 81.4601C39.0299 80.7527 37.6361 80.6267 36.2633 80.5691C33.1343 80.4371 26.2433 80.7713 22.4585 81.7655L22.4465 81.7751C22.3326 80.8762 22.1472 79.9878 21.8921 79.1183C21.1133 76.0854 20.0024 73.1476 18.5795 70.3583C16.7102 66.7336 14.1818 63.4461 11.7133 60.2363C9.23133 57.0091 6.80978 53.8604 5.17909 50.5265C4.25209 48.6311 3.34609 46.4465 3.76249 44.3009C4.13509 42.3809 5.57989 41.1623 7.36249 40.5539C10.9025 39.3449 16.5137 39.8063 20.2025 40.8053C20.4767 40.8794 20.7509 40.9508 21.0251 41.0222C21.2993 41.0936 21.5735 41.165 21.8477 41.2391C22.1447 41.3195 22.2479 40.8965 21.9737 40.7825C17.692 39.1889 13.0655 38.7542 8.56189 39.5225C3.64189 40.5203 2.03929 43.8935 3.52189 48.2963C4.9505 52.5328 8.10751 56.6329 11.2637 60.7319C13.3316 63.4175 15.3991 66.1026 16.9799 68.8253C19.1147 72.5852 20.7325 76.616 21.7895 80.8085C21.8518 80.9974 21.9067 81.1529 21.9584 81.2996C22.0416 81.5354 22.1166 81.7482 22.2017 82.0397C20.2061 84.6437 17.1257 92.2997 16.9217 94.2797C16.9224 94.3372 16.9417 94.3929 16.9767 94.4385C17.0117 94.4841 17.0605 94.5171 17.1159 94.5326C17.1713 94.548 17.2302 94.5451 17.2837 94.5243C17.3373 94.5035 17.3827 94.4659 17.4131 94.4171C17.6801 93.7914 17.8978 93.1459 18.0641 92.4863C19.1789 88.6386 20.6288 85.8825 21.7028 83.8408L21.7029 83.8407C22.0486 83.1836 22.3554 82.6004 22.5995 82.0787C22.6337 82.0787 25.1675 81.8675 25.8551 81.7823C27.7055 81.5537 29.6135 81.3221 31.5215 81.2339C37.0448 80.9791 37.991 81.3223 39.1631 81.7473L39.1633 81.7474C39.3494 81.8149 39.5411 81.8844 39.7577 81.9539C40.0601 82.0475 40.1999 81.6257 39.9761 81.4601ZM24.4972 86.4698L24.4973 86.4698L24.4974 86.4698L24.4975 86.4698L24.4976 86.4698C25.5563 86.3533 26.6018 86.2383 27.6497 86.1437C28.0607 86.1065 28.0493 86.7485 27.6497 86.7863C26.7958 86.8652 26.0804 86.9325 25.4758 86.9895L25.4692 86.9901L25.4663 86.9904L25.4662 86.9904L25.4661 86.9904L25.466 86.9904L25.4658 86.9904C22.7475 87.2465 22.2713 87.2914 21.4811 87.2207C21.442 87.2254 21.4025 87.2147 21.3712 87.1908C21.3398 87.1669 21.3189 87.1318 21.313 87.0928C21.3071 87.0538 21.3166 87.0141 21.3394 86.982C21.3623 86.9498 21.3967 86.9279 21.4355 86.9207C22.423 86.6701 23.4334 86.5207 24.4511 86.4749L24.4972 86.4698ZM38.8197 86.8085C38.3979 86.5465 37.9111 86.4081 37.4145 86.4089C36.7724 86.3419 36.125 86.3457 35.4837 86.4203C35.44 86.4229 35.399 86.4421 35.369 86.4739C35.339 86.5058 35.3223 86.5479 35.3223 86.5916C35.3223 86.6354 35.339 86.6775 35.369 86.7093C35.399 86.7412 35.44 86.7603 35.4837 86.7629C36.1046 86.8037 36.7226 86.8801 37.3347 86.9915C37.7839 87.1376 38.2579 87.192 38.7285 87.1517C38.7621 87.1408 38.7925 87.1217 38.8168 87.0961C38.8411 87.0705 38.8586 87.0391 38.8677 87.005C38.8768 86.9708 38.8771 86.9349 38.8688 86.9006C38.8604 86.8663 38.8435 86.8346 38.8197 86.8085ZM102.986 71.1644L102.986 71.1644C103.216 71.1899 103.446 71.2152 103.675 71.2355C103.961 71.2613 103.949 71.6699 103.636 71.7203C103.377 71.7335 103.194 71.7457 103.04 71.756C102.98 71.76 102.925 71.7637 102.871 71.7671C102.842 71.7689 102.813 71.7706 102.784 71.7722C102.115 71.8098 101.443 71.7896 95.2751 71.6042L95.2748 71.6041C93.1122 71.5391 90.274 71.4538 86.5236 71.3435C86.405 73.9453 85.8776 84.715 85.7821 86.6671L85.7694 86.9255C85.7821 87.7123 85.7015 88.4977 85.5294 89.2655C85.4652 89.4839 85.0932 89.5169 85.0494 89.2655C84.9401 88.6426 84.9431 88.5866 85.0981 85.7355C85.2246 83.4075 85.4524 79.2159 85.803 71.3303C80.5779 71.1401 77.0806 71.0484 74.6074 70.9835C71.0417 70.8899 69.6047 70.8522 68.1876 70.6559C68.1378 70.6521 68.0913 70.6292 68.0579 70.5921C68.0245 70.5549 68.0067 70.5063 68.0081 70.4564C68.0096 70.4064 68.0303 70.359 68.0658 70.3238C68.1013 70.2887 68.149 70.2686 68.199 70.2677C69.4046 70.1604 69.7341 70.17 76.605 70.3698C78.8778 70.4359 81.8663 70.5228 85.839 70.6331C85.974 67.6559 86.739 50.6789 86.739 48.6881C79.1022 48.0635 70.3686 47.8883 62.7486 47.8883C62.589 49.7621 61.9158 56.8217 61.755 58.4897C61.6666 60.1485 61.4528 61.7982 61.1154 63.4247C61.0716 63.5969 60.7494 63.5387 60.7494 63.3791C60.7782 61.5073 60.9118 59.6386 61.1496 57.7817C61.3698 55.5239 62.0748 48.0677 62.0748 47.8655C58.9788 47.8457 49.4514 47.6255 47.7834 47.5457C46.0995 47.5176 44.4198 47.3686 42.7572 47.0999C42.5742 47.0615 42.6312 46.8107 42.8028 46.7999C43.3623 46.7646 48.9411 46.9027 54.0227 47.0285L54.0234 47.0285L54.0237 47.0285L54.0245 47.0285C57.6563 47.1184 61.0339 47.202 62.1432 47.2115C62.3189 45.3663 62.4451 43.9547 62.5453 42.8334L62.5454 42.8326C62.7764 40.2476 62.8696 39.2048 63.114 37.9469C63.1458 37.7861 63.4458 37.8323 63.4458 37.9811C63.451 39.8169 63.2841 41.7623 62.9694 45.4294V45.4294L62.9692 45.431C62.9218 45.9836 62.871 46.5753 62.817 47.2115L63.1373 47.2143C70.91 47.2818 79.1174 47.353 86.7732 47.9999C86.7931 47.3411 86.8078 46.6804 86.8225 46.0187L86.8225 46.0175V46.0173C86.8733 43.7303 86.9243 41.4328 87.1932 39.1691C87.196 39.1179 87.2183 39.0698 87.2555 39.0346C87.2927 38.9993 87.342 38.9797 87.3933 38.9797C87.4446 38.9797 87.4939 38.9993 87.5311 39.0346C87.5683 39.0698 87.5906 39.1179 87.5934 39.1691C87.7068 41.9264 87.5876 44.7125 87.4691 47.4828L87.4446 48.0569C87.9444 48.094 88.4537 48.1442 88.9583 48.1939L89.3046 48.2279C89.6939 48.2669 90.8579 48.3141 92.0919 48.3642L92.0922 48.3642L92.0923 48.3642C93.576 48.4244 95.1608 48.4888 95.622 48.5477C96.456 48.6289 97.2815 48.7818 98.0892 49.0049C98.1325 49.0178 98.1696 49.0459 98.1937 49.0841C98.2178 49.1223 98.2273 49.1679 98.2203 49.2125C98.2133 49.2571 98.1905 49.2977 98.1559 49.3267C98.1213 49.3557 98.0773 49.3712 98.0322 49.3703C97.0805 49.3473 96.1308 49.2712 95.1876 49.1423C94.6634 49.0769 93.644 49.0348 92.4108 48.9838L92.4108 48.9838L92.4107 48.9838C90.8958 48.9213 89.0582 48.8454 87.4194 48.6965C87.4074 48.9792 87.177 54.9646 86.9597 60.6079L86.9574 60.669C86.7628 65.725 86.5794 70.4887 86.574 70.6073C87.516 70.6271 101.353 71.0309 101.916 71.0645C102.276 71.086 102.632 71.1253 102.986 71.1644L102.986 71.1644ZM109.627 36.0485C109.526 34.6889 109.258 31.3607 108.85 30.0623C108.835 30.0195 108.806 29.9833 108.767 29.9599C108.728 29.9365 108.683 29.9274 108.638 29.9342C108.593 29.9409 108.552 29.9632 108.522 29.997C108.492 30.0308 108.475 30.0741 108.473 30.1193C108.493 30.7581 108.551 31.3952 108.645 32.0273C109.034 35.1152 109.132 38.7847 109.25 43.2525V43.2526C109.503 52.7842 109.852 65.949 113.34 84.8513C112.109 84.7961 110.877 84.8686 109.661 85.0679C109.254 85.1339 109.365 85.7279 109.776 85.7279C111.099 85.5273 112.441 85.4812 113.774 85.5905C113.829 85.5911 113.883 85.5792 113.933 85.5557C113.982 85.5321 114.026 85.4975 114.06 85.4546C114.094 85.4116 114.118 85.3614 114.13 85.3078C114.142 85.2542 114.141 85.1986 114.128 85.1453C110.588 66.6366 110.078 49.5889 109.818 40.8857V40.8857L109.817 40.8849C109.753 38.7222 109.703 37.0748 109.627 36.0485ZM112.058 46.3082C112.462 55.0856 112.971 66.1178 116.984 80.6489C117.004 80.7378 116.989 80.831 116.943 80.9091C116.896 80.9873 116.821 81.0445 116.733 81.0689C114.472 81.4308 114.101 81.5199 114.01 81.5418C113.981 81.5487 113.98 81.5489 113.957 81.5489C113.564 81.5489 113.475 80.9765 113.854 80.9093L116.23 80.4893C112.883 68.2013 111.865 58.6799 111.421 47.4971C111.135 40.339 110.993 39.2524 110.573 36.0469C110.427 34.9312 110.247 33.5586 110.016 31.5839C109.989 31.3535 110.332 31.2215 110.404 31.4807C111.567 35.6757 111.79 40.498 112.058 46.3082Z" fill="#4D4D4D"/>
</svg>
