<svg width="120" height="120" viewBox="0 0 120 120" fill="none" xmlns="http://www.w3.org/2000/svg">
<g clip-path="url(#clip0_348_36291)">
<path fill-rule="evenodd" clip-rule="evenodd" d="M32.8012 26.7789C34.1464 28.7847 36.9873 29.888 39.2294 28.7847C39.5289 28.2118 39.762 27.6062 39.9241 26.9797C39.9425 26.9295 39.9476 26.8753 39.9388 26.8225C39.9301 26.7696 39.9078 26.72 39.8742 26.6785C39.8243 26.5781 39.7245 26.4281 39.5748 26.4281C38.6092 26.3919 37.653 26.2232 36.7327 25.9266C35.834 25.5739 34.9952 25.083 34.2462 24.4713C34.0965 24.3708 33.4466 25.021 33.2988 25.2231C33.023 25.5889 32.8048 25.9953 32.6521 26.4281C32.645 26.4945 32.655 26.5617 32.6811 26.6231C32.7072 26.6845 32.7486 26.7382 32.8012 26.7789ZM85.5229 33.8995C85.0322 35.3809 81.2257 40.5568 80.3901 39.716C79.5294 38.8032 78.777 37.7929 78.148 36.7054C78.0924 36.5409 78.7105 36.0162 79.3955 35.435C79.9619 34.9543 80.574 34.4348 80.8884 34.0482C81.4548 33.2465 81.9077 32.3696 82.2343 31.4425C82.2425 31.3792 82.2635 31.3183 82.2958 31.2634C82.3282 31.2085 82.3714 31.1608 82.4227 31.1233C82.474 31.0858 82.5324 31.0592 82.5942 31.0451C82.6561 31.031 82.7202 31.0298 82.7825 31.0415C82.8324 31.0415 85.2741 32.7962 85.473 33.3478C85.5167 33.5282 85.5335 33.7141 85.5229 33.8995ZM84.3786 39.8666C84.2415 39.8468 84.1892 40.3237 84.1185 40.9675C84.0096 41.9604 83.8571 43.3504 83.2828 43.9283C83.253 43.9574 83.2313 43.9939 83.2198 44.0342C83.2084 44.0744 83.2077 44.1169 83.2177 44.1575C83.2278 44.1981 83.2482 44.2354 83.277 44.2655C83.3059 44.2957 83.3421 44.3177 83.382 44.3293C83.978 44.5971 84.624 44.7338 85.2767 44.7304C85.316 44.7355 85.356 44.7287 85.3914 44.7108C85.4269 44.6929 85.4562 44.6647 85.4757 44.6299C86.4123 43.3932 87.414 41.3658 86.3232 40.2676C86.298 40.2676 85.8149 40.1654 85.3365 40.0642L85.3363 40.0641C84.8671 39.9649 84.4024 39.8666 84.3786 39.8666ZM42.9171 51.6005C42.1532 51.4276 41.4438 51.0668 40.8524 50.5504C40.2609 50.034 39.8059 49.3781 39.5281 48.6415C39.5108 48.5939 39.4826 48.551 39.4458 48.5163C39.409 48.4817 39.3647 48.4562 39.3164 48.4419C39.268 48.4276 39.217 48.425 39.1675 48.4341C39.1179 48.4433 39.0712 48.464 39.0311 48.4946C38.4041 49.0239 37.9092 49.6936 37.586 50.4502C37.5607 50.487 37.5471 50.5307 37.5471 50.5754C37.5471 50.6201 37.5607 50.6638 37.586 50.7006C38.354 52.1712 39.9784 54.5138 41.9218 54.0607C41.9218 54.0607 43.4666 52.1051 43.5159 52.1051C43.7641 51.7003 43.2658 51.3495 42.9171 51.6005ZM89.5594 87.1526C90.4761 87.028 91.4091 87.1671 92.2505 87.5536C92.4109 87.6405 92.5714 87.7028 92.7274 87.7634C93.2009 87.9473 93.6332 88.1152 93.8983 88.9073C94.1472 90.0106 94.5394 94.9513 92.951 97.5322C92.582 98.1318 91.9824 98.0042 91.4445 97.8898L91.4442 97.8897C91.3459 97.8688 91.2497 97.8483 91.1573 97.8328C90.2866 97.6854 89.4453 97.3976 88.6657 96.9806C87.9111 96.5786 88.0621 96.2183 88.3146 95.6154C88.3463 95.5396 88.3797 95.4599 88.4131 95.3758C88.9834 93.6554 89.5158 91.8263 89.2108 89.9102C89.136 89.4413 89.0509 89.0577 88.9806 88.7409C88.7579 87.7375 88.6839 87.4037 89.5594 87.1526ZM81.789 65.7908C75.7094 67.7464 67.6865 65.3898 67.6865 65.3898C67.6865 65.3898 65.3401 71.3105 59.8101 70.0534C54.3273 68.8052 55.4743 65.3898 55.4743 65.3898C47.2524 67.2449 41.6712 64.3367 41.6712 64.3367C38.3825 67.9472 34.2463 82.1382 34.2463 82.1382C37.1392 84.0232 40.1712 85.6828 43.3158 87.1024L42.568 110.219C58.9132 115.383 76.7528 111.773 76.7528 111.773V99.1369C75.5584 100.556 74.5223 102.103 73.6631 103.75L70.0252 98.3342C70.6214 96.8571 71.5331 95.53 72.6957 94.4469C73.8583 93.3638 75.2433 92.5511 76.7528 92.0666V89.0077L82.6826 86.6009C85.1742 80.6339 81.789 65.7908 81.789 65.7908ZM44.661 82.088L44.2101 79.4301C44.2101 79.4301 46.552 80.182 48.2465 77.4746L49.5419 79.7307C49.5369 79.7307 49.5098 79.7658 49.462 79.8276L49.4619 79.8277L49.4619 79.8277C49.0556 80.3528 47.1578 82.8055 44.661 82.088ZM52.6341 68.0476C49.2452 69.1998 45.5796 69.235 42.1695 68.148C42.1014 68.1241 42.045 68.075 42.0114 68.0108C41.9779 67.9466 41.9698 67.872 41.9888 67.802C42.0078 67.732 42.0525 67.6719 42.1138 67.6338C42.1751 67.5956 42.2485 67.5823 42.3192 67.5964C45.6672 68.2679 49.1295 68.0782 52.3852 67.0448C53.0326 66.7937 53.2871 67.8099 52.6341 68.0476ZM25.4761 66.5433C26.2619 67.2113 26.9498 67.9878 27.5193 68.8497C27.6036 68.9372 27.6505 69.0544 27.6501 69.1762C27.6496 69.2981 27.6017 69.4149 27.5168 69.5018C25.6227 71.6079 22.5349 73.4129 19.6928 72.41C19.6837 72.4008 19.6679 72.3866 19.6479 72.3686L19.6478 72.3685L19.6478 72.3685C19.5584 72.2881 19.3849 72.132 19.3442 72.009C19.232 71.5581 19.0989 71.1074 18.9658 70.6567C18.7435 69.904 18.5212 69.1514 18.3968 68.3985C18.297 68.0476 18.8452 67.6962 19.0448 68.0978C20.8897 68.7839 22.3181 67.9821 23.8164 67.141L23.8165 67.1409C24.1795 66.9372 24.5466 66.7311 24.9248 66.5433C25.0189 66.5027 25.1214 66.4855 25.2235 66.4931C25.3108 66.4847 25.3986 66.5022 25.4761 66.5433ZM98.8281 57.3166C98.4174 57.4092 98.0015 57.4763 97.5826 57.5174C96.2371 57.6929 94.8693 57.5381 93.5961 57.0662C93.5078 57.0363 93.4125 57.0347 93.3233 57.0616C93.2341 57.0884 93.1553 57.1424 93.0978 57.2162C92.637 57.8026 92.2204 58.4229 91.8517 59.0719C91.5542 59.6242 93.6466 60.3195 94.5927 60.4758C95.8936 60.7608 97.2499 60.6381 98.4794 60.1244C98.5792 60.1244 98.679 60.0246 98.7321 59.874C98.8081 59.5416 98.8842 59.2222 98.9604 58.9026C99.0337 58.5951 99.1071 58.2873 99.1805 57.9674C99.3264 57.5193 99.1773 57.2651 98.8281 57.3166ZM41.7564 55.8487C41.4419 55.9628 41.0133 56.1183 40.8242 56.2133C40.337 56.4178 40.8418 57.0212 41.1806 57.4262C41.2577 57.5184 41.3262 57.6003 41.3725 57.6648C41.6898 58.2824 41.778 58.9935 41.6213 59.6706C41.4429 60.2104 42.1855 59.9005 42.5206 59.7607C42.5591 59.7447 42.5922 59.7308 42.6179 59.7208C42.8674 59.6236 43.6645 59.2219 43.6645 59.0217C43.642 58.1423 43.4561 57.2749 43.1162 56.4643C42.6678 55.6616 42.2194 55.6616 42.1196 55.7118C42.083 55.7303 41.9389 55.7825 41.7564 55.8487Z" fill="#417FDA"/>
<path fill-rule="evenodd" clip-rule="evenodd" d="M10.5712 13.0243L10.5712 13.0242C10.6591 11.4416 10.7469 9.85893 10.7254 8.27582C10.7254 8.20267 10.6965 8.13251 10.6451 8.08079C10.5937 8.02906 10.524 8 10.4513 8C10.3786 8 10.3088 8.02906 10.2574 8.08079C10.206 8.13251 10.1772 8.20267 10.1772 8.27582C10.0281 10.1312 9.92852 11.9865 9.87842 13.8419C9.92831 14.2429 10.5264 14.2429 10.5264 13.8419C10.5409 13.5706 10.556 13.2993 10.571 13.028L10.571 13.0279L10.571 13.0277L10.5711 13.0276L10.5711 13.0274L10.5711 13.0272L10.5711 13.0271L10.5711 13.0269L10.5711 13.0268L10.5711 13.0266L10.5711 13.0265L10.5711 13.0263L10.5711 13.0262L10.5711 13.026L10.5711 13.0259L10.5712 13.0257L10.5712 13.0255L10.5712 13.0254L10.5712 13.0252L10.5712 13.0251L10.5712 13.0249L10.5712 13.0248L10.5712 13.0246L10.5712 13.0245L10.5712 13.0243ZM4.74565 10.2816C4.67084 10.1307 4.58329 9.9923 4.49572 9.85386C4.40882 9.71648 4.32189 9.57905 4.24734 9.42933C4.1723 9.27863 4.10996 9.12778 4.04759 8.97685L4.04759 8.97684C3.98554 8.82669 3.92346 8.67646 3.84881 8.52623C3.82069 8.48553 3.78116 8.45418 3.73527 8.43616C3.68938 8.41813 3.6392 8.41426 3.59112 8.42503C3.54303 8.4358 3.49922 8.46072 3.46526 8.49662C3.43129 8.53252 3.40871 8.57778 3.40039 8.62664C3.46769 9.36268 3.78432 10.0531 4.29723 10.5822C4.49681 10.8834 4.94523 10.532 4.74565 10.2816ZM1.55697 20.4108C1.12251 20.3907 0.687252 20.4245 0.26097 20.5112C-0.0882921 20.5557 -0.0882921 21.1074 0.26097 21.0622C0.713646 21.0609 1.16487 21.0106 1.60686 20.9123C1.9056 20.862 1.80581 20.461 1.55697 20.4108ZM62.6002 53.2523C62.7 52.8036 63.0487 52.4528 63.3979 52.5532C63.7466 52.653 63.8962 53.1049 63.8464 53.5561C63.7466 54.0048 63.3979 54.3556 63.0487 54.2552C62.8646 54.1725 62.7172 54.0246 62.6346 53.8397C62.5519 53.6548 62.5397 53.4457 62.6002 53.2523ZM56.9201 51.5503C56.5709 51.4499 56.2254 51.8007 56.1225 52.2494C56.0619 52.4428 56.0741 52.6519 56.1568 52.8368C56.2395 53.0218 56.3869 53.1696 56.5709 53.2523C56.9195 53.3527 57.2732 53.0025 57.3686 52.5532C57.4365 52.3601 57.4278 52.1481 57.3442 51.9613C57.2607 51.7744 57.1088 51.6273 56.9201 51.5503ZM62.9387 50.6815C63.2146 50.583 63.5136 50.5711 63.7963 50.6472C64.0429 50.7035 64.2623 50.8444 64.4168 51.0457C64.5714 51.247 64.6514 51.4962 64.6433 51.7505C64.6301 51.7893 64.6086 51.8247 64.5803 51.8541C64.552 51.8835 64.5175 51.9062 64.4794 51.9207C64.4413 51.9351 64.4005 51.9408 64.3599 51.9374C64.3193 51.934 64.28 51.9216 64.2447 51.9011C63.9909 51.7312 63.7025 51.6206 63.4007 51.5771C63.0989 51.5337 62.7913 51.5586 62.5003 51.6501C62.2515 51.7505 62.105 51.4022 62.2515 51.1989C62.4233 50.9604 62.6629 50.78 62.9387 50.6815ZM56.3715 50.046C56.3408 50.0948 56.3275 50.1526 56.3338 50.2101C56.3401 50.2675 56.3657 50.321 56.4063 50.3619C56.4469 50.4027 56.5001 50.4284 56.5571 50.4348C56.6142 50.4411 56.6717 50.4277 56.7202 50.3968C56.9479 50.2793 57.2077 50.2401 57.4597 50.2854C57.7117 50.3306 57.942 50.4577 58.1153 50.6472C58.1505 50.6677 58.1898 50.6801 58.2304 50.6836C58.2709 50.687 58.3117 50.6813 58.3498 50.667C58.3879 50.6526 58.4224 50.63 58.4507 50.6006C58.4791 50.5713 58.5007 50.536 58.5138 50.4972C58.7583 49.596 57.2077 48.7152 56.3715 50.046ZM60.3056 56.6029C61.2017 56.4077 61.9631 56.2418 62.3512 56.2635C62.5502 56.3118 62.7498 56.4643 62.7504 56.6626L62.7505 56.7831C62.7519 58.2304 62.7538 60.2001 61.006 60.4758C59.3146 60.7428 57.5677 57.7678 57.5677 57.7176C57.418 57.7176 57.256 57.705 57.094 57.6925C56.932 57.6799 56.77 57.6674 56.6203 57.6674C56.5841 57.6735 56.547 57.6716 56.5116 57.6618C56.4762 57.652 56.4434 57.6346 56.4153 57.6107C56.3873 57.5868 56.3648 57.5571 56.3494 57.5236C56.3339 57.4901 56.3259 57.4536 56.3259 57.4167C56.3259 57.3797 56.3339 57.3432 56.3494 57.3097C56.3648 57.2762 56.3873 57.2465 56.4153 57.2226C56.4434 57.1988 56.4762 57.1813 56.5116 57.1715C56.547 57.1617 56.5841 57.1598 56.6203 57.1659C57.722 57.1659 59.1299 56.8592 60.3056 56.6029ZM58.3647 57.7176C58.863 58.5705 59.5104 59.6274 60.6068 59.6731C61.9022 59.7278 61.9521 58.2184 61.9016 57.1164C61.4893 57.165 60.7223 57.3089 60.0035 57.4437C59.2467 57.5857 58.5435 57.7176 58.3647 57.7176ZM19.3465 39.2647C19.2967 38.9641 18.7983 39.0645 18.8482 39.4153C20.7916 48.7921 26.6716 56.8151 34.2461 62.4314C36.1446 63.8833 38.181 65.143 40.3256 66.1919C40.4751 65.9473 40.6416 65.7137 40.824 65.4928C37.0274 63.4454 33.496 60.9352 30.3095 58.0188C24.8989 52.9908 21.085 46.4664 19.3465 39.2647ZM23.4311 67.6962C25.9811 71.6772 29.3654 75.0489 33.3469 77.575C33.7978 77.8254 33.3993 78.4775 32.9509 78.2773C26.2284 74.3916 21.8465 67.7801 18.5989 60.6264C16.2686 55.2468 14.5147 49.6325 13.3669 43.8787C13.3487 43.8127 13.3569 43.7421 13.3898 43.6821C13.4226 43.6221 13.4776 43.5775 13.5428 43.5578C13.608 43.5381 13.6783 43.5449 13.7386 43.5767C13.7988 43.6086 13.8443 43.6629 13.8653 43.7281C15.9501 52.3994 18.5737 60.2051 23.4311 67.6962ZM105.705 43.9283C105.812 43.5292 105.256 43.4269 105.107 43.7777C103.324 48.6815 100.957 53.6921 97.3325 57.6178C97.6816 57.5676 98.0799 57.5174 98.4783 57.4673L98.4788 57.4672C101.78 53.4974 104.239 48.8899 105.705 43.9283ZM83.2804 66.6437C87.4139 65.3351 91.2437 63.2034 94.5421 60.3754C94.8408 60.4256 95.1901 60.4758 95.5387 60.5235C92.0565 63.6477 87.942 65.9743 83.4794 67.3428C83.3901 67.3608 83.2973 67.3444 83.2196 67.2967C83.1418 67.249 83.0847 67.1736 83.0597 67.0856C83.0346 66.9975 83.0434 66.9031 83.0843 66.8213C83.1252 66.7394 83.1952 66.676 83.2804 66.6437ZM109.143 49.5446C107.034 61.5277 103.929 70.3153 93.8943 77.127C91.8209 78.5337 89.5845 79.6859 87.3609 80.8315L87.3607 80.8315C86.4259 81.3132 85.4933 81.7936 84.576 82.2914C84.2223 82.482 84.4775 83.1468 84.8747 82.9904C90.5012 80.8795 95.6028 77.5597 99.8242 73.2622C106.105 66.6565 108.165 58.5266 109.691 49.6945C109.691 49.3939 109.196 49.2439 109.143 49.5446ZM56.4674 66.2421C56.3819 65.3151 56.4675 64.3801 56.7201 63.4845C56.7417 63.4185 56.7847 63.3619 56.8423 63.3236C56.8998 63.2853 56.9685 63.2676 57.0372 63.2734C57.106 63.2792 57.1708 63.3082 57.2212 63.3556C57.2716 63.403 57.3046 63.4661 57.315 63.5347C57.315 64.036 57.238 64.5374 57.161 65.0388C57.0994 65.4399 57.0378 65.841 57.0156 66.2421C56.9658 66.5935 56.4674 66.5935 56.4674 66.2421ZM19.4464 38.7633C20.5428 37.0086 20.9344 34.1041 19.7452 32.2948C18.6929 30.6938 16.6056 30.3392 14.8119 30.1886C14.5132 30.1384 14.414 30.6862 14.762 30.7402C16.2601 30.9735 18.1934 31.2963 19.0972 32.6958C20.234 34.4569 19.5462 36.7575 18.8982 38.5129C18.7984 38.8637 19.2967 39.0645 19.4464 38.7633ZM10.2792 40.7188C10.9427 41.6447 11.8133 42.4006 12.8207 42.9254C13.1175 43.076 13.0184 43.5775 12.6679 43.4268C11.3725 43.0258 10.4365 42.0134 9.57881 41.0201C8.79123 40.1119 8.03144 39.0639 8.08386 37.7604C8.13249 36.5567 8.94218 35.4661 9.78091 34.6011C10.7906 33.5285 11.9692 32.6307 13.2691 31.9439C13.3543 31.9037 13.4516 31.8979 13.5409 31.9276C13.6303 31.9574 13.7049 32.0204 13.7495 32.1038C13.7942 32.1871 13.8054 32.2845 13.7809 32.3759C13.7563 32.4674 13.698 32.5459 13.6177 32.5954C13.392 32.7558 13.1522 32.9198 12.9049 33.0889L12.9049 33.0889C11.2967 34.1889 9.37189 35.5054 8.93397 37.4598C8.6464 38.7373 9.49784 39.7706 10.2325 40.6621L10.2792 40.7188ZM8.23403 33.2976C9.08161 30.6919 11.3117 29.1666 13.8652 28.7345C14.2125 28.6754 14.114 28.1294 13.7654 28.1326C10.9233 28.158 8.43361 30.4898 7.63909 33.147C7.63275 33.221 7.65279 33.2949 7.69562 33.3553C7.73846 33.4158 7.80128 33.459 7.87286 33.4771C7.94443 33.4952 8.02008 33.4871 8.08626 33.4542C8.15244 33.4213 8.20482 33.3658 8.23403 33.2976ZM107.399 34.5039C107.845 34.3908 107.997 35.053 107.598 35.203C106.004 35.8048 104.387 36.5465 103.614 38.2142C102.893 39.7592 103.511 41.7808 105.256 42.2257C105.335 42.2462 105.402 42.2971 105.444 42.3673C105.485 42.4376 105.497 42.5216 105.478 42.601C105.458 42.6803 105.408 42.7487 105.339 42.7911C105.269 42.8335 105.186 42.8466 105.107 42.8275C103.213 42.4767 102.266 40.4208 102.715 38.6152C103.263 36.4105 105.344 35.0123 107.399 34.5039ZM109.691 37.3092C109.241 37.2176 109.093 37.8608 109.492 37.9612C110.541 38.2162 111.537 38.6576 112.432 39.2647C112.862 39.6336 113.187 40.112 113.371 40.6501C113.555 41.1882 113.592 41.7661 113.478 42.3236C113.219 43.8075 112.273 44.9999 111.34 46.1767C110.854 46.7901 110.371 47.3993 109.99 48.0434C109.784 48.3904 110.289 48.6446 110.488 48.344C110.773 47.9711 111.087 47.5927 111.407 47.206L111.407 47.2058C112.765 45.5651 114.246 43.7758 114.225 41.6245C114.202 39.0645 111.875 37.754 109.691 37.3092ZM108.201 33.3282C108.253 33.2765 108.322 33.2474 108.395 33.2474C109.811 33.1014 111.23 33.4938 112.373 34.3476C113.516 35.2014 114.3 36.4546 114.571 37.8608C114.587 37.95 114.57 38.0422 114.523 38.1193C114.475 38.1965 114.401 38.2531 114.314 38.2781C114.228 38.3032 114.135 38.2949 114.054 38.2549C113.973 38.2148 113.91 38.146 113.876 38.0616C113.593 36.8233 112.892 35.722 111.892 34.9449C110.893 34.1678 109.657 33.7629 108.395 33.7991C108.322 33.7991 108.253 33.77 108.201 33.7183C108.15 33.6666 108.121 33.5964 108.121 33.5232C108.121 33.4501 108.15 33.3799 108.201 33.3282ZM107.449 29.2861C107.443 29.6369 107.954 29.6376 107.997 29.2861C108.03 29.0209 108.074 28.5382 108.126 27.9699L108.126 27.9689L108.126 27.9673L108.126 27.9671C108.25 26.6048 108.419 24.7521 108.595 24.2215H109.143C109.093 25.0242 109.093 28.8851 109.143 30.289C108.645 30.2295 108.141 30.2465 107.648 30.3392C107.299 30.3894 107.399 30.9411 107.747 30.9411C110.586 30.9411 111.797 31.7965 113.478 33.9999C113.673 34.2541 114.222 34.1016 114.076 33.7489C113.684 32.9302 113.113 32.2117 112.405 31.6472C111.697 31.0827 110.872 30.687 109.99 30.4898C109.99 29.4367 109.89 24.8234 109.741 23.8707C109.741 23.7703 108.445 23.4194 108.099 23.7201C107.797 23.9209 107.474 27.8314 107.449 29.2861ZM4.1941 19.7448C5.80479 19.496 7.42303 19.2459 9.08175 19.1067C9.43038 19.0565 9.48028 19.6081 9.18091 19.7054C8.06043 19.8935 6.93994 19.9835 5.81931 20.0735C5.14602 20.1276 4.47267 20.1816 3.79924 20.257C3.5005 20.3072 3.49987 19.8522 3.79924 19.8058L4.1941 19.7448ZM20.3932 17.753C17.9515 17.9538 15.4593 18.3008 13.0183 18.7063C12.7189 18.7559 12.7688 19.2579 13.0682 19.2579C15.5098 19.0571 18.0014 18.8067 20.4431 18.4057C20.7917 18.3065 20.7418 17.7028 20.3932 17.753ZM16.9548 11.9365C15.3375 13.8928 13.6069 15.7514 11.7721 17.5026C11.5195 17.7498 11.1241 17.3532 11.4266 17.1511C13.1173 15.296 14.8618 13.3906 16.6055 11.5851C16.8051 11.3347 17.1557 11.6868 16.9548 11.9365ZM8.68223 17.4524C8.70189 17.4853 8.72779 17.514 8.75848 17.5369C8.78916 17.5597 8.82401 17.5762 8.86105 17.5855C8.89808 17.5948 8.93658 17.5967 8.97433 17.591C9.01208 17.5854 9.04835 17.5723 9.08107 17.5525C9.11379 17.5327 9.14232 17.5066 9.16503 17.4757C9.18773 17.4449 9.20417 17.4098 9.21341 17.3725C9.22265 17.3353 9.2245 17.2965 9.21886 17.2585C9.21322 17.2206 9.2002 17.1841 9.18054 17.1511C8.19465 15.4403 7.13739 13.7917 6.0416 12.1367C5.84203 11.8863 5.4435 12.0865 5.59318 12.3878C6.58981 14.0923 7.61865 15.8089 8.68223 17.4524ZM4.70197 16.0058L4.70228 16.0059L4.70285 16.006C5.0509 16.1037 5.39772 16.201 5.74255 16.2989C6.09181 16.3999 5.94213 16.9007 5.59286 16.8505C3.74873 16.3968 1.93466 15.8273 0.1613 15.1454C-0.0894359 15.0494 0.012248 14.5937 0.310984 14.6941C1.75962 15.18 3.24161 15.5959 4.70176 16.0057L4.70185 16.0057L4.70194 16.0058L4.70197 16.0058ZM23.2334 12.2371C21.4991 13.5157 19.6468 14.6239 17.7021 15.5464C17.3572 15.7053 17.104 15.1956 17.4033 15.045C18.5196 14.3949 19.594 13.7324 20.67 13.069L20.6701 13.0689C21.4192 12.607 22.1692 12.1446 22.9347 11.6855C23.2795 11.4783 23.5328 11.9867 23.2334 12.2371ZM18.4508 10.0839L18.4508 10.0838L18.4509 10.0837L18.451 10.0836L18.451 10.0836C18.6859 9.81742 18.9206 9.55146 19.1474 9.27871C19.3526 9.03275 19.0034 8.6813 18.7987 8.92789C18.5737 9.19847 18.3407 9.46237 18.1077 9.72622L18.1076 9.7264L18.1075 9.7265C17.9887 9.86104 17.8699 9.99557 17.7522 10.131C17.7261 10.1532 17.7048 10.1807 17.6898 10.2116C17.6747 10.2425 17.6662 10.2763 17.6648 10.3107C17.6633 10.3451 17.669 10.3794 17.6814 10.4115C17.6938 10.4436 17.7127 10.4728 17.7369 10.4971C17.7611 10.5215 17.79 10.5406 17.8219 10.5531C17.8538 10.5657 17.8879 10.5715 17.9221 10.5701C17.9563 10.5687 17.9898 10.5602 18.0206 10.5451C18.0513 10.53 18.0787 10.5087 18.1008 10.4824C18.2168 10.349 18.3337 10.2166 18.4505 10.0841L18.4506 10.0841L18.4506 10.0841L18.4506 10.0841L18.4506 10.084L18.4507 10.084L18.4507 10.084L18.4507 10.084L18.4507 10.0839L18.4507 10.0839L18.4508 10.0839L18.4508 10.0839ZM106.998 23.6196C106.168 23.9212 105.291 24.074 104.409 24.0709C103.379 24.1367 102.347 24.1367 101.317 24.0709C100.969 24.0213 100.969 23.5199 101.317 23.5199C102.249 23.5211 103.181 23.4708 104.108 23.3692C105.016 23.2196 105.93 23.119 106.848 23.068C107.098 23.068 107.299 23.4735 106.998 23.6196ZM118.162 25.2244C116.976 24.7768 115.789 24.428 114.603 24.0794L114.574 24.0709C113.38 23.6574 112.166 23.3061 110.936 23.0184C110.638 22.9631 110.438 23.3692 110.737 23.5199C111.673 23.9292 112.638 24.2478 113.587 24.5613C113.801 24.6318 114.013 24.7021 114.225 24.7731C114.407 24.8342 114.589 24.8958 114.771 24.9575C115.832 25.3173 116.897 25.6787 117.963 25.9267C118.052 25.9438 118.145 25.9267 118.222 25.8787C118.299 25.8307 118.356 25.7553 118.381 25.6672C118.406 25.5792 118.398 25.485 118.357 25.4031C118.317 25.3211 118.247 25.2574 118.162 25.2244ZM99.2265 24.7731C98.7176 24.873 98.2002 24.9234 97.6817 24.9238C97.3823 24.9238 97.3324 24.4223 97.6318 24.3219C98.1301 24.2717 98.6783 24.2215 99.2265 24.1713C99.625 24.1713 99.5752 24.7229 99.2265 24.7731ZM97.9803 17.8032C99.9079 18.4698 101.795 19.2927 103.674 20.112L103.675 20.1128C104.135 20.3133 104.595 20.5136 105.054 20.7114C105.403 20.8614 105.755 20.3536 105.403 20.1598C103.081 18.9588 100.643 18.0005 98.1274 17.2998C97.7826 17.1956 97.6822 17.7002 97.9803 17.8032ZM107.964 21.006C107.885 20.9656 107.825 20.8959 107.797 20.8118C107.278 19.3987 106.869 17.9688 106.459 16.5378L106.459 16.5376L106.459 16.5373C106.231 15.7385 106.002 14.9393 105.754 14.1425C105.646 13.7942 106.203 13.641 106.302 13.9925C107.176 16.1429 107.893 18.355 108.445 20.611C108.469 20.6966 108.458 20.7881 108.416 20.866C108.373 20.9439 108.302 21.0021 108.218 21.0283C108.134 21.0544 108.042 21.0464 107.964 21.006ZM110.688 21.5637C112.427 20.2197 114.277 19.029 116.219 18.0047C116.567 17.8026 116.269 17.3011 115.92 17.453C113.877 18.3594 112.006 19.6147 110.389 21.1633C110.14 21.3635 110.433 21.7581 110.688 21.5637ZM104.907 10.1812C105.022 10.9109 105.189 11.6315 105.405 12.3376C105.505 12.6884 105.007 12.8892 104.857 12.588C104.568 11.8166 104.399 11.0046 104.359 10.1812C104.309 9.83036 104.859 9.82972 104.907 10.1812ZM119.557 15.1454C119.205 15.3307 118.871 15.549 118.56 15.7974C118.207 16.0421 117.912 16.2487 117.564 16.4997C117.508 16.541 117.47 16.6025 117.457 16.6712C117.445 16.74 117.46 16.8109 117.499 16.869C117.537 16.9271 117.596 16.9681 117.664 16.9833C117.732 16.9986 117.803 16.987 117.862 16.9509C118.211 16.7501 118.56 16.4997 118.909 16.2487C119.271 16.0621 119.606 15.8269 119.905 15.5496C120.156 15.3462 119.856 14.9954 119.557 15.1454ZM113.578 12.1888C112.417 14.158 111.384 16.2016 110.488 18.3065C110.389 18.6554 109.84 18.5055 109.99 18.1559C110.746 15.9408 111.784 13.834 113.08 11.8882C113.279 11.587 113.783 11.8412 113.578 12.1888ZM58.9641 51.7184L58.964 51.7185C58.4331 52.7201 57.5396 54.4059 57.6668 54.8094C57.6981 54.8831 57.7458 54.9486 57.8063 55.0008C57.8667 55.053 57.9383 55.0906 58.0154 55.1106C58.5313 55.0895 59.0386 54.9702 59.5104 54.7592C59.9588 54.6587 59.7586 53.9012 59.3114 54.0073C59.2249 54.0276 59.1294 54.0584 59.0287 54.0909C58.8964 54.1335 58.7552 54.179 58.6135 54.2075C59.0525 53.2783 59.4353 52.3232 59.7598 51.3476C59.8097 51.0489 59.4112 50.8461 59.2615 51.1487C59.1949 51.2828 59.0899 51.481 58.9646 51.7173L58.9642 51.7182L58.9641 51.7183L58.9641 51.7184ZM57.2744 62.4839L57.2744 62.4839L57.2745 62.4839L57.2745 62.4839L57.2745 62.484L57.2746 62.484L57.2746 62.484L57.2746 62.484L57.2747 62.484L57.2747 62.484L57.2747 62.484L57.2748 62.484L57.2748 62.4841C58.045 62.6462 58.8152 62.8084 59.5604 63.0834C59.9097 63.1832 59.8604 63.7787 59.508 63.7349C58.5633 63.6106 57.6302 63.4096 56.7177 63.1337C55.8807 62.9665 55.0626 62.7143 54.276 62.3812C52.9788 61.6821 52.98 60.275 53.1796 58.9715C53.4784 57.0179 53.9451 55.1151 54.4257 53.2046C54.8477 51.341 55.414 49.5136 56.1196 47.739C56.2194 47.4384 56.6678 47.6386 56.6179 47.9398C56.5566 48.196 56.4104 48.683 56.2171 49.3269L56.2169 49.3276L56.2168 49.3278L56.2164 49.3291L56.216 49.3304L56.2158 49.3312L56.2157 49.3314L56.2157 49.3314C55.1593 52.8496 52.7012 61.0362 54.9758 61.8797C55.7251 62.1576 56.4997 62.3208 57.2744 62.4839ZM69.6766 54.7089C70.014 53.2468 70.0982 51.7371 69.9254 50.2462C69.8478 49.6679 69.6475 49.1132 69.338 48.6197C69.0285 48.1263 68.6171 47.7056 68.1317 47.3863C68.1478 47.973 68.1144 48.56 68.032 49.141C67.9802 49.4416 67.5336 49.4924 67.5336 49.141C67.4859 48.2501 67.3861 47.3629 67.2349 46.4838C66.4138 43.2756 63.2648 38.2815 60.0589 37.6581C57.8617 37.231 56.0585 39.0563 55.3751 40.968C55.0305 41.9031 54.9321 42.9121 55.0895 43.8969C55.2469 44.8816 55.6546 45.8087 56.2732 46.588C58.0726 48.6891 61.1566 48.8944 63.6981 48.2925C64.2521 49.6239 65.1049 50.8081 66.1896 51.7524C66.1303 52.8136 65.9971 53.8693 65.7911 54.9117C65.7726 54.9863 65.748 55.077 65.7201 55.1796C65.5231 55.9056 65.1639 57.2294 65.6414 57.6693C66.2408 58.2197 67.1364 56.716 67.7345 55.5637C70.2759 53.8586 70.2261 57.8199 68.133 58.1695C68.0332 58.1695 66.0608 64.08 65.7412 65.2398C65.5764 65.8379 66.5882 65.8417 66.9368 65.8417C67.2854 65.8417 67.2861 65.3905 66.9867 65.29C66.7955 65.2008 66.5948 65.1337 66.3886 65.0898C66.7267 63.5926 67.2716 62.2109 67.8204 60.8193L67.8204 60.8192C68.0804 60.16 68.3413 59.4985 68.5814 58.8215C69.9766 58.2699 71.2726 56.5152 70.0764 55.061C69.9677 54.9181 69.8318 54.7983 69.6766 54.7089ZM62.4047 42.1711L62.4047 42.1711C61.5798 40.5612 60.5247 38.5021 58.8633 39.5157C58.6145 39.667 58.2198 39.3187 58.4149 39.0645C60.4574 36.3953 63.8061 41.47 63.9955 43.2762C64.0486 43.7777 63.3469 43.8279 63.1486 43.4771C62.9163 43.1696 62.6727 42.6941 62.4047 42.1712L62.4047 42.1711ZM65.3739 38.2108C65.2932 38.2198 65.2117 38.2025 65.1415 38.1614C64.7928 37.9612 63.5992 36.1054 63.8461 35.604C64.6432 33.7489 67.1373 32.7962 68.7794 34.2001C69.0309 34.982 69.198 35.7889 69.2777 36.6069C69.2777 36.9081 68.9783 37.0085 68.7295 36.9081C68.1677 36.7214 67.5702 36.6698 66.985 36.7575C66.6187 36.886 66.1666 37.4425 65.8755 37.8007L65.8755 37.8008L65.8753 37.801C65.7289 37.9812 65.6233 38.1112 65.5899 38.1112C65.5304 38.1668 65.4547 38.2017 65.3739 38.2108ZM108.993 38.5129C108.926 38.9806 108.915 40.4394 108.908 41.414C108.904 41.8959 108.901 42.2594 108.893 42.3261C108.869 42.5276 108.635 43.3817 108.545 42.9782C108.504 42.7955 108.523 40.7343 108.536 39.3064V39.3059V39.3057V39.3056V39.3051V39.3039L108.536 39.3023C108.541 38.7796 108.545 38.3423 108.545 38.1137C108.545 37.7629 108.046 37.7629 107.996 38.1137C107.947 39.4179 107.947 40.7195 107.947 42.0255C107.947 42.1463 107.936 42.2827 107.926 42.4247C107.879 43.0482 107.823 43.7802 108.595 43.7802C109.52 43.7802 109.551 43.0897 109.583 42.3883C109.586 42.3341 109.588 42.2798 109.591 42.2257C109.723 41.0093 109.723 39.782 109.591 38.5656C109.491 38.2625 109.043 38.2625 108.993 38.5129ZM14.224 27.1845C11.7587 27.243 10.8749 27.264 8.4833 28.7345C8.4174 28.7656 8.3427 28.7723 8.27236 28.7534C8.20203 28.7345 8.14059 28.6912 8.09889 28.6311C8.05719 28.5711 8.03792 28.4982 8.04447 28.4252C8.05101 28.3522 8.08296 28.2839 8.13467 28.2324C9.04595 27.464 10.1195 26.9152 11.2736 26.6277C11.0747 25.7252 10.4342 21.9151 10.5265 21.0616C10.5801 20.5608 12.6189 20.5106 12.6688 21.162C12.8184 21.8141 13.0679 24.9231 13.1172 25.7754C13.1671 26.1262 12.5677 26.2266 12.5197 25.8758C12.4136 25.1246 12.0214 22.0626 11.9715 21.3635C11.7212 21.3718 11.4707 21.355 11.2237 21.3133C11.3734 23.0184 11.8717 25.5752 12.0713 26.5285C12.8793 26.3683 13.7121 26.3853 14.513 26.5781C14.5789 26.6044 14.6339 26.6526 14.6688 26.7147C14.7037 26.7769 14.7164 26.8492 14.7047 26.9196C14.693 26.99 14.6577 27.0542 14.6047 27.1016C14.5516 27.149 14.484 27.1766 14.4132 27.1799L14.224 27.1845ZM14.5629 40.0674C15.3252 39.8477 15.1946 39.2538 15.0571 38.6286L15.0571 38.6286C15.0415 38.5576 15.0258 38.4863 15.0113 38.415C14.8651 37.6924 14.7429 36.9526 14.6211 36.2142L14.6211 36.2142C14.5235 35.6232 14.4261 35.0332 14.3166 34.4537C14.2667 34.0527 13.6187 34.1995 13.7185 34.6037C13.7438 34.8069 13.8138 35.1998 13.8985 35.6758C14.1485 37.0793 14.5271 39.205 14.2667 39.3175C14.0678 39.4179 13.2031 35.7584 13.0711 34.9551C13.0137 34.6049 12.5198 34.7549 12.5728 35.1051C12.7623 36.3603 12.965 37.6142 13.2676 38.8662C13.4627 39.667 13.6674 40.3248 14.5629 40.0674ZM82.8781 54.0575C83.1307 54.1052 83.1806 54.3079 83.1307 54.5088C82.7682 55.2427 82.2986 55.9179 81.7375 56.512C81.4381 56.7662 79.8939 56.3645 79.2958 55.8129C78.6977 55.2612 78.1994 53.6565 78.3484 53.3057C78.4999 52.9599 78.7015 52.6387 78.9465 52.3524C79.1758 52.0206 79.4615 51.7321 79.7903 51.5001C80.0891 51.3495 80.2444 51.5993 80.2886 51.9011C80.4611 53.1042 81.7836 53.8471 82.8781 54.0575ZM79.8939 55.3585C80.3812 55.7268 80.9764 55.9218 81.5859 55.9127L82.3362 54.7064C81.7705 54.5783 81.2458 54.3091 80.8104 53.9237C80.375 53.5382 80.0429 53.0488 79.8446 52.5004L79.5453 52.8011C79.375 53.0447 79.192 53.2791 78.9971 53.5033C79.0406 54.2167 79.3631 54.8836 79.8939 55.3585ZM47.305 40.0674C47.2794 40.0163 47.2402 39.9734 47.1918 39.9434C47.1434 39.9134 47.0877 39.8975 47.0308 39.8975C46.974 39.8975 46.9183 39.9134 46.8699 39.9434C46.8215 39.9734 46.7823 40.0163 46.7567 40.0674C46.422 40.7066 46.0019 41.2968 45.5081 41.8215C44.9436 42.333 44.2827 42.7253 43.5647 42.975C43.5155 42.9911 43.4714 43.0201 43.4371 43.059C43.4027 43.0979 43.3792 43.1454 43.3691 43.1965C43.359 43.2475 43.3626 43.3004 43.3796 43.3496C43.3965 43.3988 43.4262 43.4426 43.4656 43.4764C43.5647 43.7268 44.2127 44.7799 44.413 45.0812C44.4624 45.1506 44.5324 45.2026 44.6129 45.2295C44.6935 45.2565 44.7805 45.257 44.8614 45.2311C46.4561 44.8803 48.2997 43.5266 48.4986 41.7713C48.5472 41.7062 48.5735 41.627 48.5735 41.5457C48.5735 41.4643 48.5472 41.3851 48.4986 41.32C48.2237 41.0749 47.9863 40.8106 47.7527 40.5505L47.7527 40.5504L47.7527 40.5504L47.7526 40.5504C47.6048 40.3858 47.4584 40.2228 47.305 40.0674ZM46.7068 43.4771C46.1966 44.009 45.5631 44.4051 44.8633 44.6299C44.6372 44.2512 44.5996 44.199 44.5064 44.0697L44.5063 44.0697C44.4331 43.9681 44.3256 43.819 44.0656 43.4268C44.7175 43.2147 45.3215 42.8753 45.843 42.4282C46.3646 41.9812 46.7936 41.4351 47.1054 40.8211C47.3055 41.1171 47.5218 41.4016 47.7534 41.6734C47.533 42.3419 47.1756 42.9564 46.7043 43.4771H46.7068ZM19.5005 75.9142C19.5121 75.9659 19.5107 76.0197 19.4963 76.0707C19.2314 77.5354 19.4409 79.0469 20.0938 80.3828C20.1153 80.4323 20.1241 80.4864 20.1194 80.5401C20.1147 80.5939 20.0966 80.6456 20.0669 80.6905C20.0371 80.7354 19.9967 80.7721 19.9492 80.7972C19.9017 80.8223 19.8487 80.835 19.795 80.8341C19.2384 80.9667 18.6715 81.0507 18.1005 81.0851C18.0161 81.0918 17.9318 81.071 17.8601 81.0258C17.7883 80.9806 17.7329 80.9134 17.702 80.8341C16.4066 79.6329 16.3068 77.324 16.9548 75.8196C16.9714 75.7376 17.0146 75.6635 17.0778 75.609C17.141 75.5546 17.2204 75.5229 17.3035 75.519C17.6521 75.519 18.8982 75.6195 19.147 75.6697C19.1992 75.662 19.2524 75.6677 19.3018 75.686C19.3512 75.7043 19.3952 75.7348 19.43 75.7747C19.4647 75.8145 19.4889 75.8625 19.5005 75.9142ZM17.3035 78.4285C17.4848 79.1048 17.7706 79.7482 18.1504 80.3352C18.3231 80.3352 18.4955 80.3223 18.6679 80.3094C18.8443 80.2962 19.0206 80.283 19.1969 80.2837C18.8738 79.6826 18.6722 79.0231 18.6038 78.3431C18.5354 77.6632 18.6015 76.9764 18.7984 76.3224C18.1193 76.3224 17.6021 76.2859 17.449 76.2751H17.4489C17.4224 76.2733 17.4068 76.2722 17.4033 76.2722C17.1987 76.9725 17.1645 77.7121 17.3035 78.4285ZM70.7728 14.2429C70.3742 14.3948 70.3243 16.0478 70.5732 16.7501C70.6642 17.2085 70.8399 17.1107 71.2021 16.909C71.5057 16.74 71.9405 16.4979 72.5664 16.4495C73.1906 16.4475 73.8 16.6402 74.3109 17.0011C74.3373 17.0361 74.3735 17.0625 74.4147 17.0771C74.456 17.0916 74.5006 17.0937 74.543 17.083C74.5854 17.0723 74.6237 17.0494 74.6533 17.017C74.6829 16.9846 74.7024 16.9442 74.7094 16.9007C74.8729 16.2054 75.0726 15.5191 75.3075 14.8448C75.4565 14.6439 74.165 12.9502 70.7728 14.2429ZM74.41 16.4495C73.9066 16.1032 73.315 15.9096 72.7055 15.8918C72.096 15.874 71.4942 16.0327 70.9717 16.3491C70.8806 15.7978 70.9147 15.2328 71.0715 14.6967C71.2994 14.6585 71.5423 14.581 71.7991 14.499C72.6619 14.2238 73.681 13.8986 74.8092 14.8473C74.6353 15.3702 74.5019 15.9059 74.41 16.4495ZM53.6944 23.2566C55.0251 23.9206 56.295 24.5542 55.9723 25.1742C54.9199 26.9946 53.4928 28.5676 51.7868 29.7875C51.6377 29.9382 50.7403 29.4367 50.6904 29.2861C46.7538 27.581 42.8632 20.3047 44.2622 19.3577C45.5744 18.3456 46.9755 17.456 48.4483 16.6999C48.5223 16.6684 48.6035 16.6581 48.683 16.67C48.7625 16.6819 48.8372 16.7156 48.8989 16.7674C48.9606 16.8192 49.0069 16.8871 49.0328 16.9636C49.0587 17.0402 49.0632 17.1224 49.0457 17.2013C49.2945 18.948 50.0988 20.5666 51.3384 21.8147C51.8052 22.314 52.7647 22.7927 53.6944 23.2566ZM45.0592 19.9094C45.9567 24.1713 48.2986 26.5285 51.8866 28.5343C53.0333 27.5137 54.084 26.3889 55.0255 25.1742C53.2318 24.273 51.8803 23.5739 50.8401 22.3664L50.7758 22.2917C49.5932 20.9179 48.3948 19.5258 48.1988 17.753C47.508 18.087 46.9854 18.4991 46.4526 18.9193C46.0254 19.2562 45.5916 19.5983 45.0592 19.9094ZM49.7938 79.631C49.6073 78.7174 49.1564 77.8798 48.4978 77.2236C48.4878 77.1631 48.4594 77.1072 48.4167 77.0636C48.3739 77.02 48.3188 76.9907 48.2589 76.9798C48.1989 76.9688 48.1371 76.9768 48.0819 77.0026C48.0266 77.0284 47.9806 77.0707 47.9502 77.1238C47.569 77.7579 47.0597 78.3044 46.4552 78.7279C45.7721 79.1096 44.9818 79.2503 44.21 79.1276C44.0603 79.0272 43.7616 79.2274 43.8115 79.4282C43.8688 79.7546 43.9406 80.0811 44.0131 80.4103C44.1299 80.9407 44.2482 81.4783 44.3098 82.034C44.3187 82.0879 44.3402 82.1389 44.3725 82.1829C44.4048 82.2269 44.4469 82.2625 44.4955 82.2869C44.5441 82.3114 44.5978 82.3239 44.6521 82.3234C44.7064 82.323 44.7599 82.3096 44.8081 82.2844C46.6018 82.9835 48.7447 81.5853 49.6914 80.0784C49.7413 80.0282 49.7413 79.978 49.7413 79.8776C49.7866 79.8039 49.8051 79.7168 49.7938 79.631ZM47.4519 81.1849C47.0919 81.4533 46.6771 81.6376 46.2374 81.7244C45.7978 81.8111 45.3444 81.7981 44.9104 81.6863C44.8303 81.0247 44.6968 80.3706 44.5112 79.7308C45.907 79.8814 47.7007 79.1791 48.3007 77.8756C48.6956 78.4293 48.9674 79.062 49.0978 79.7308C48.5775 80.247 48.0279 80.7326 47.4519 81.1849ZM77.1512 91.6153C77.5049 91.4965 80.1133 94.3526 80.7891 96.2783C80.8546 96.3355 80.9043 96.4088 80.9333 96.491C80.9622 96.5733 80.9695 96.6617 80.9543 96.7476C80.9392 96.8336 80.9022 96.9141 80.8469 96.9813C80.7915 97.0485 80.7199 97.1002 80.6388 97.1312C78.0558 98.1532 76.3319 100.794 75.1874 102.547C74.4429 103.687 73.9436 104.452 73.6125 104.151C72.1417 102.82 71.2509 101.234 70.3537 99.6371C70.1471 99.2694 69.9402 98.9011 69.7258 98.5351C69.6759 98.4849 69.7258 98.2841 69.7258 98.2841C70.256 96.6049 71.2249 95.0999 72.5312 93.9268C73.8376 92.7536 75.4332 91.9553 77.1512 91.6153ZM70.2759 98.3845C71.3701 100.018 72.5508 101.592 73.8127 103.098C74.5839 100.596 77.0483 97.4947 79.843 96.4302C79.6406 96.1238 79.4755 95.7929 79.3105 95.4621C79.1506 95.1416 78.9907 94.8213 78.7971 94.5236C78.352 93.8322 77.8521 93.1783 77.3022 92.568C75.7695 92.9382 74.3405 93.6541 73.1232 94.6618C71.9059 95.6695 70.9323 96.9424 70.2759 98.3845Z" fill="#4D4D4D"/>
</g>
<defs>
<clipPath id="clip0_348_36291">
<rect width="120" height="120" fill="white"/>
</clipPath>
</defs>
</svg>
