<?xml version="1.0" encoding="UTF-8"?>
<svg width="24px" height="24px" viewBox="0 0 24 24" version="1.1" xmlns="http://www.w3.org/2000/svg" xmlns:xlink="http://www.w3.org/1999/xlink">
    <title>Bold / Large / Text Formatting / Artboard Expand</title>
    <g id="Bold-/-Large-/-Text-Formatting-/-Artboard-Expand" stroke="none" stroke-width="1" fill="none" fill-rule="evenodd">
        <path d="M7,3.40642668 C7.46023729,3.40642668 7.83333333,3.77952273 7.83333333,4.23976002 L7.83333333,4.23976002 L7.83333333,6.53142668 C7.83333333,6.64648601 7.92660734,6.73976002 8.04166667,6.73976002 L8.04166667,6.73976002 L16.1666667,6.73976002 C17.0871412,6.73976002 17.8333333,7.4859521 17.8333333,8.40642668 L17.8333333,8.40642668 L17.8333333,20.9064267 C17.8333333,21.366664 17.4602373,21.73976 17,21.73976 C16.5397627,21.73976 16.1666667,21.366664 16.1666667,20.9064267 L16.1666667,20.9064267 L16.1666667,18.61476 C16.1666667,18.4997007 16.0733927,18.4064267 15.9583333,18.4064267 L15.9583333,18.4064267 L7.83333333,18.4064267 C6.91285875,18.4064267 6.16666667,17.6602346 6.16666667,16.73976 L6.16666667,16.73976 L6.16666667,4.23976002 C6.16666667,3.77952273 6.53976271,3.40642668 7,3.40642668 Z M21.1666667,16.73976 C21.626904,16.73976 22,17.1128561 22,17.5730934 C22,18.0333306 21.626904,18.4064267 21.1666667,18.4064267 L21.1666667,18.4064267 L19.9166667,18.4064267 C19.4564294,18.4064267 19.0833333,18.0333306 19.0833333,17.5730934 C19.0833333,17.1128561 19.4564294,16.73976 19.9166667,16.73976 L19.9166667,16.73976 Z M15.75,8.40642668 L8.25,8.40642668 C8.01988135,8.40642668 7.83333333,8.5929747 7.83333333,8.82309335 L7.83333333,8.82309335 L7.83333333,16.3230934 C7.83333333,16.553212 8.01988135,16.73976 8.25,16.73976 L8.25,16.73976 L15.75,16.73976 C15.9801186,16.73976 16.1666667,16.553212 16.1666667,16.3230934 L16.1666667,16.3230934 L16.1666667,8.82309335 C16.1666667,8.5929747 15.9801186,8.40642668 15.75,8.40642668 L15.75,8.40642668 Z M10.5775,12.81726 C10.9044824,12.5014498 11.4242373,12.5059664 11.7456821,12.8274112 C12.067127,13.148856 12.0716435,13.6686109 11.7558333,13.9955934 L11.7558333,13.9955934 L10.5058333,15.2455934 C10.2966046,15.4622238 9.98676842,15.5491038 9.69541056,15.472841 C9.4040527,15.3965781 9.17651524,15.1690406 9.10025237,14.8776828 C9.0239895,14.5863249 9.11086951,14.2764887 9.3275,14.06726 L9.3275,14.06726 Z M13.9108333,9.48392668 C14.2362499,9.1586084 14.7637501,9.1586084 15.0891667,9.48392668 C15.4144849,9.80934323 15.4144849,10.3368435 15.0891667,10.66226 L15.0891667,10.66226 L13.8391667,11.91226 C13.6299379,12.1288905 13.3201018,12.2157705 13.0287439,12.1395076 C12.737386,12.0632448 12.5098486,11.8357073 12.4335857,11.5443495 C12.3573228,11.2529916 12.4442028,10.9431554 12.6608333,10.7339267 L12.6608333,10.7339267 Z M4.08333333,6.73976002 C4.54357062,6.73976002 4.91666667,7.11285606 4.91666667,7.57309335 C4.91666667,8.03333064 4.54357062,8.40642668 4.08333333,8.40642668 L4.08333333,8.40642668 L2.83333333,8.40642668 C2.37309604,8.40642668 2,8.03333064 2,7.57309335 C2,7.11285606 2.37309604,6.73976002 2.83333333,6.73976002 L2.83333333,6.73976002 Z M20.1608333,3.23392668 C20.4878157,2.91811651 21.0075706,2.92263304 21.3290155,3.24407787 C21.6504603,3.5655227 21.6549768,4.08527761 21.3391667,4.41226002 L21.3391667,4.41226002 L19.6725,6.07892668 C19.3455176,6.39473686 18.8257627,6.39022033 18.5043179,6.0687755 C18.182873,5.74733066 18.1783565,5.22757576 18.4941667,4.90059335 L18.4941667,4.90059335 Z" id="Combined-Shape" fill="#050505"></path>
    </g>
</svg>