<svg width="24" height="24" viewBox="0 0 24 24" fill="none" xmlns="http://www.w3.org/2000/svg">
<path fill-rule="evenodd" clip-rule="evenodd" d="M17.7634 14.2009V6.74528C17.7661 6.55035 17.6913 6.36232 17.5554 6.22254C17.4195 6.08277 17.2337 6.00272 17.0388 6H4.72471C4.52978 6.00272 4.34392 6.08277 4.20802 6.22254C4.07212 6.36232 3.99732 6.55035 4.00007 6.74528V14.2009C3.99732 14.3958 4.07212 14.5838 4.20802 14.7236C4.34392 14.8634 4.52978 14.9434 4.72471 14.9462H17.0388C17.2337 14.9434 17.4195 14.8634 17.5554 14.7236C17.6913 14.5838 17.7661 14.3958 17.7634 14.2009ZM10.8817 12.5376C9.74151 12.5376 8.8172 11.6133 8.8172 10.4731C8.8172 9.3329 9.74151 8.40859 10.8817 8.40859C12.0219 8.40859 12.9462 9.3329 12.9462 10.4731C12.9462 11.0206 12.7287 11.5457 12.3415 11.9329C11.9543 12.3201 11.4292 12.5376 10.8817 12.5376ZM19.4838 7.89238C19.1987 7.89238 18.9676 8.12346 18.9676 8.40851V15.9783C18.9676 16.0733 18.8906 16.1504 18.7956 16.1504H6.40862C6.12357 16.1504 5.89249 16.3814 5.89249 16.6665C5.89249 16.9515 6.12357 17.1826 6.40862 17.1826H18.7956C19.4604 17.1819 19.9991 16.6431 19.9999 15.9783V8.40851C19.9999 8.12346 19.7688 7.89238 19.4838 7.89238Z" fill="#161616"/>
</svg>
