<svg width="24" height="24" viewBox="0 0 24 24" fill="none" xmlns="http://www.w3.org/2000/svg">
<path fill-rule="evenodd" clip-rule="evenodd" d="M16.3226 14.1507V8.55897C16.3247 8.41277 16.2686 8.27174 16.1667 8.16691C16.0647 8.06208 15.9253 8.00204 15.7791 8H6.54354C6.39734 8.00204 6.25794 8.06208 6.15601 8.16691C6.05409 8.27174 5.99799 8.41277 6.00006 8.55897V14.1507C5.99799 14.2969 6.05409 14.4379 6.15601 14.5428C6.25794 14.6476 6.39734 14.7076 6.54354 14.7097H15.7791C15.9253 14.7076 16.0647 14.6476 16.1667 14.5428C16.2686 14.4379 16.3247 14.2969 16.3226 14.1507ZM11.1613 12.9032C10.3062 12.9032 9.61292 12.21 9.61292 11.3548C9.61292 10.4997 10.3062 9.80646 11.1613 9.80646C12.0165 9.80646 12.7097 10.4997 12.7097 11.3548C12.7097 11.7655 12.5466 12.1593 12.2562 12.4497C11.9658 12.7401 11.572 12.9032 11.1613 12.9032ZM17.6129 9.4193C17.3991 9.4193 17.2258 9.59261 17.2258 9.80639V15.4838C17.2258 15.5551 17.168 15.6128 17.0968 15.6128H7.80647C7.59268 15.6128 7.41937 15.7861 7.41937 15.9999C7.41937 16.2137 7.59268 16.387 7.80647 16.387H17.0968C17.5954 16.3865 17.9994 15.9824 18 15.4838V9.80639C18 9.59261 17.8267 9.4193 17.6129 9.4193Z" fill="#161616"/>
</svg>
