<svg width="24" height="24" viewBox="0 0 24 24" fill="none" xmlns="http://www.w3.org/2000/svg">
<path fill-rule="evenodd" clip-rule="evenodd" d="M19.2041 15.2511V5.9316C19.2076 5.68794 19.1141 5.45289 18.9442 5.27818C18.7743 5.10346 18.542 5.0034 18.2983 5H2.90577C2.66211 5.0034 2.42978 5.10346 2.2599 5.27818C2.09003 5.45289 1.99652 5.68794 1.99997 5.9316V15.2511C1.99652 15.4948 2.09003 15.7298 2.2599 15.9045C2.42978 16.0792 2.66211 16.1793 2.90577 16.1827H18.2983C18.542 16.1793 18.7743 16.0792 18.9442 15.9045C19.1141 15.7298 19.2076 15.4948 19.2041 15.2511ZM10.602 13.1719C9.1768 13.1719 8.02141 12.0165 8.02141 10.5913C8.02141 9.16607 9.1768 8.01068 10.602 8.01068C12.0273 8.01068 13.1827 9.16607 13.1827 10.5913C13.1827 11.2757 12.9108 11.9321 12.4268 12.4161C11.9428 12.9 11.2865 13.1719 10.602 13.1719ZM21.3546 7.36553C20.9983 7.36553 20.7095 7.65437 20.7095 8.01068V17.473C20.7095 17.5917 20.6132 17.688 20.4944 17.688H5.0107C4.65439 17.688 4.36554 17.9769 4.36554 18.3332C4.36554 18.6895 4.65439 18.9783 5.0107 18.9783H20.4944C21.3254 18.9774 21.9988 18.304 21.9998 17.473V8.01068C21.9998 7.65437 21.7109 7.36553 21.3546 7.36553Z" fill="#161616"/>
</svg>
