<svg width="24" height="24" viewBox="0 0 24 24" fill="none" xmlns="http://www.w3.org/2000/svg">
<path d="M3.00085 16.7368C3.00085 18.7014 6.86021 20.1406 11.1768 20.1052C11.2612 20.1052 11.3373 20.0546 11.37 19.9769C11.4027 19.8991 11.3857 19.8093 11.3267 19.749C9.72167 18.0808 9.4522 17.8492 9.12294 17.1646C9.09082 17.0988 9.02728 17.054 8.95452 17.0459C6.94616 16.9224 5.00792 16.2613 3.34274 15.1318C3.27989 15.0802 3.19287 15.0695 3.11946 15.1045C3.04605 15.1395 2.9995 15.2138 3 15.2951L3.00085 16.7368Z" fill="#161616"/>
<path d="M3.00085 12.9473C3.00085 14.4396 5.30652 15.7019 8.49641 16.1473C8.56226 16.1566 8.62861 16.1342 8.67538 16.0869C8.72215 16.0397 8.74384 15.9731 8.73389 15.9073C8.61275 15.1062 8.72685 14.287 9.06231 13.5494C9.09025 13.488 9.08706 13.4169 9.05372 13.3583C9.02039 13.2996 8.96095 13.2605 8.89389 13.253C6.90657 13.1241 4.99006 12.4652 3.34358 11.3448C3.28073 11.2932 3.19371 11.2826 3.1203 11.3176C3.0469 11.3526 3.00034 11.4269 3.00085 11.5082V12.9473Z" fill="#161616"/>
<path d="M11.0017 9.57893C8.05431 9.57893 4.97474 8.87746 3.34442 7.54862C3.2814 7.49722 3.19441 7.48672 3.12097 7.52164C3.04752 7.55656 3.00076 7.63066 3.00085 7.71199V9.15788C3.00085 10.8244 5.87579 12.2029 9.64757 12.4741C9.71267 12.4788 9.77634 12.4534 9.8202 12.405C11.242 10.8704 13.5733 10.6089 15.2998 11.7903C15.3711 11.8399 15.4659 11.8399 15.5372 11.7903C15.9805 11.4923 16.4768 11.2819 16.9991 11.1705C17.5781 11.0548 18.1053 10.7581 18.5048 10.3233C18.8081 10.0093 18.9844 9.59417 19 9.15788V7.71367C19.0001 7.63235 18.9533 7.55825 18.8798 7.52333C18.8064 7.4884 18.7194 7.49891 18.6564 7.5503C17.0252 8.8783 13.9516 9.57893 11.0017 9.57893Z" fill="#161616"/>
<path d="M11.0017 8.73683C15.4199 8.73683 19.0017 7.22874 19.0017 5.36841C19.0017 3.50809 15.4199 2 11.0017 2C6.5834 2 3.00169 3.50809 3.00169 5.36841C3.00169 7.22874 6.5834 8.73683 11.0017 8.73683Z" fill="#161616"/>
<path d="M18.3987 12.3545C17.4566 12.1981 16.4972 12.5079 15.8244 13.1857L15.5667 13.4383C15.5274 13.4778 15.4739 13.5001 15.4181 13.5001C15.3623 13.5001 15.3088 13.4778 15.2695 13.4383L15.0168 13.1857C13.8592 12.0246 11.9796 12.0218 10.8185 13.1793C9.65744 14.3369 9.65461 16.2166 10.8122 17.3776L15.1187 21.8703C15.1981 21.9531 15.3079 22 15.4227 22C15.5375 22 15.6473 21.9531 15.7267 21.8703L20.0265 17.3844C20.8148 16.5966 21.0955 15.4335 20.7531 14.3729C20.4107 13.3122 19.5031 12.5327 18.4029 12.3545H18.3987Z" fill="#161616"/>
</svg>
