<svg width="24" height="24" viewBox="0 0 24 24" fill="none" xmlns="http://www.w3.org/2000/svg">
<path d="M9.38073 17.0985C9.47351 17.0951 9.54686 17.0187 9.54643 16.9259V15.3029C9.54647 15.2555 9.52717 15.2103 9.49299 15.1775C9.45882 15.1448 9.41275 15.1275 9.36547 15.1295C9.08815 15.142 8.81083 15.1483 8.53351 15.1483C7.07572 15.1848 5.62229 14.9738 4.23506 14.5243C4.18128 14.5038 4.12083 14.5113 4.07373 14.5444C4.02663 14.5775 3.99902 14.6318 4.00003 14.6893V16.182C4.00003 16.6999 6.02932 17.1158 8.53351 17.1158C8.82331 17.1158 9.10572 17.1101 9.38073 17.0985Z" fill="#161616"/>
<path d="M8.53351 8.90856C10.0513 8.98613 11.5676 8.72885 12.9748 8.15495C13.0316 8.12501 13.0672 8.06598 13.067 8.00173V6.3697C13.067 6.31241 13.0388 6.25881 12.9915 6.22649C12.9442 6.19417 12.8839 6.18731 12.8306 6.20816C11.4434 6.6577 9.98992 6.86868 8.53213 6.83213C7.07433 6.86868 5.6209 6.6577 4.23367 6.20816C4.18063 6.18847 4.12132 6.19591 4.07478 6.22808C4.02824 6.26026 4.00034 6.31312 4.00003 6.3697V8.00242C4.00011 8.06642 4.0356 8.12513 4.09224 8.15495C5.49947 8.72885 7.01573 8.98613 8.53351 8.90856Z" fill="#161616"/>
<path d="M8.53351 6.13536C10.0513 6.21293 11.5676 5.95565 12.9748 5.38175C13.0316 5.35181 13.0672 5.29278 13.067 5.22853V4.93665C13.067 4.42014 11.0377 4 8.53351 4C6.02932 4 4.00003 4.42014 4.00003 4.93665V5.22922C4.00011 5.29322 4.0356 5.35193 4.09224 5.38175C5.49947 5.95565 7.01573 6.21293 8.53351 6.13536Z" fill="#161616"/>
<path d="M8.53351 14.455C8.82955 14.455 9.11173 14.4473 9.38142 14.4349C9.47388 14.4304 9.54653 14.3541 9.54642 14.2615V13.1994C9.5398 12.9903 9.57394 12.7819 9.64695 12.5858C9.6686 12.5311 9.66075 12.4691 9.62615 12.4215C9.59098 12.3748 9.53478 12.3488 9.4764 12.3522C9.16234 12.3688 8.84689 12.3778 8.53351 12.3778C7.07572 12.4144 5.62229 12.2034 4.23506 11.7539C4.18174 11.7336 4.12184 11.7408 4.07489 11.7732C4.02794 11.8056 3.99994 11.859 4.00003 11.9161V13.5516C4.00011 13.6156 4.0356 13.6743 4.09224 13.7041C5.49968 14.2771 7.01594 14.5334 8.53351 14.455Z" fill="#161616"/>
<path d="M8.53351 11.6818C10.0427 11.6621 11.5396 11.4078 12.9706 10.9281C13.0276 10.8983 13.0634 10.8393 13.0635 10.7749V9.1429C13.0636 9.08561 13.0353 9.03201 12.988 8.99969C12.9407 8.96737 12.8805 8.96051 12.8271 8.98136C11.4399 9.43089 9.98645 9.64188 8.52866 9.60533C7.07087 9.64188 5.61744 9.43089 4.2302 8.98136C4.17758 8.96308 4.11937 8.97121 4.07377 9.00322C4.02817 9.03522 4.00073 9.08719 4.00003 9.1429V10.7784C4.00011 10.8424 4.0356 10.9011 4.09224 10.9309C5.49968 11.5039 7.01594 11.7602 8.53351 11.6818Z" fill="#161616"/>
<path d="M11.1681 14.4681C11.1147 14.4473 11.0545 14.4541 11.0072 14.4865C10.9599 14.5188 10.9316 14.5724 10.9316 14.6297V16.2645C10.9315 16.3287 10.967 16.3878 11.0238 16.4177C12.4315 16.9918 13.9483 17.2491 15.4665 17.1713C16.9843 17.2489 18.5006 16.9916 19.9078 16.4177C19.9645 16.3876 20 16.3287 20 16.2645V14.6297C20 14.5724 19.9718 14.5188 19.9245 14.4865C19.8772 14.4541 19.8169 14.4473 19.7636 14.4681C18.3764 14.9177 16.9229 15.1287 15.4651 15.0921C14.0078 15.1285 12.5548 14.9175 11.1681 14.4681Z" fill="#161616"/>
<path d="M15.4665 17.8646C14.0087 17.9012 12.5553 17.6902 11.1681 17.2406C11.1147 17.2198 11.0545 17.2266 11.0072 17.259C10.9599 17.2913 10.9316 17.3449 10.9316 17.4022V18.8949C10.9316 19.4127 12.9609 19.8315 15.4651 19.8315C17.9693 19.8315 19.9986 19.4155 19.9986 18.8949V17.4029C19.9986 17.3456 19.9704 17.292 19.9231 17.2597C19.8758 17.2273 19.8156 17.2205 19.7622 17.2413C18.3758 17.6903 16.9233 17.9011 15.4665 17.8646Z" fill="#161616"/>
<path d="M10.933 13.1994V13.4913C10.9329 13.5555 10.9684 13.6146 11.0252 13.6445C12.4325 14.2184 13.9487 14.4757 15.4665 14.3981C16.9843 14.4757 18.5006 14.2184 19.9078 13.6445C19.9646 13.6146 20.0002 13.5555 20 13.4913V13.1994C20 12.6829 17.9707 12.2627 15.4665 12.2627C12.9623 12.2627 10.933 12.6829 10.933 13.1994Z" fill="#161616"/>
</svg>
