<svg width="24" height="24" viewBox="0 0 24 24" fill="none" xmlns="http://www.w3.org/2000/svg">
<path d="M5.00068 15.7894C5.00068 17.3611 8.08816 18.5125 11.5415 18.4842C11.6089 18.4841 11.6698 18.4437 11.696 18.3815C11.7222 18.3193 11.7085 18.2475 11.6614 18.1992C10.3773 16.8646 10.1618 16.6794 9.89835 16.1317C9.87266 16.079 9.82182 16.0432 9.76361 16.0367C8.15693 15.938 6.60633 15.4091 5.27419 14.5054C5.22391 14.4641 5.1543 14.4556 5.09557 14.4836C5.03684 14.5116 4.9996 14.571 5 14.6361L5.00068 15.7894Z" fill="#161616"/>
<path d="M5.00068 12.7579C5.00068 13.9516 6.84522 14.9615 9.39713 15.3179C9.44981 15.3253 9.50289 15.3074 9.54031 15.2695C9.57772 15.2317 9.59507 15.1785 9.58711 15.1259C9.4902 14.4849 9.58148 13.8296 9.84984 13.2396C9.8722 13.1904 9.86964 13.1335 9.84298 13.0866C9.81631 13.0397 9.76876 13.0084 9.71511 13.0024C8.12525 12.8993 6.59205 12.3721 5.27487 11.4759C5.22459 11.4346 5.15497 11.4261 5.09624 11.4541C5.03752 11.4821 5.00027 11.5415 5.00068 11.6066V12.7579Z" fill="#161616"/>
<path d="M11.4013 10.0631C9.04345 10.0631 6.57979 9.50197 5.27554 8.4389C5.22512 8.39778 5.15553 8.38938 5.09677 8.41731C5.03802 8.44525 5.00061 8.50453 5.00068 8.56959V9.7263C5.00068 11.0595 7.30063 12.1623 10.3181 12.3793C10.3701 12.3831 10.4211 12.3627 10.4562 12.324C11.5936 11.0964 13.4586 10.8871 14.8398 11.8322C14.8969 11.8719 14.9727 11.8719 15.0298 11.8322C15.3844 11.5939 15.7814 11.4256 16.1993 11.3364C16.6625 11.2438 17.0843 11.0065 17.4038 10.6587C17.6465 10.4074 17.7875 10.0753 17.8 9.7263V8.57094C17.8 8.50588 17.7626 8.4466 17.7039 8.41866C17.6451 8.39072 17.5755 8.39913 17.5251 8.44024C16.2202 9.50264 13.7612 10.0631 11.4013 10.0631Z" fill="#161616"/>
<path d="M11.4013 9.38946C14.936 9.38946 17.8013 8.18299 17.8013 6.69473C17.8013 5.20647 14.936 4 11.4013 4C7.86672 4 5.00135 5.20647 5.00135 6.69473C5.00135 8.18299 7.86672 9.38946 11.4013 9.38946Z" fill="#161616"/>
<path d="M17.319 12.2836C16.5653 12.1585 15.7977 12.4063 15.2595 12.9485L15.0534 13.1506C15.0219 13.1823 14.9791 13.2001 14.9345 13.2001C14.8898 13.2001 14.847 13.1823 14.8156 13.1506L14.6135 12.9485C13.6874 12.0197 12.1837 12.0174 11.2548 12.9435C10.326 13.8695 10.3237 15.3733 11.2498 16.3021L14.695 19.8962C14.7585 19.9625 14.8463 20 14.9382 20C15.03 20 15.1178 19.9625 15.1814 19.8962L18.6212 16.3075C19.2519 15.6772 19.4764 14.7468 19.2025 13.8983C18.9286 13.0498 18.2025 12.4262 17.3223 12.2836H17.319Z" fill="#161616"/>
</svg>
