<svg width="24" height="24" viewBox="0 0 24 24" fill="none" xmlns="http://www.w3.org/2000/svg">
<path d="M8.72591 18.3731C8.84189 18.3689 8.93358 18.2734 8.93303 18.1574V16.1286C8.93309 16.0694 8.90896 16.0128 8.86624 15.9719C8.82353 15.931 8.76594 15.9093 8.70684 15.9119C8.36019 15.9275 8.01354 15.9353 7.66689 15.9353C5.84465 15.981 4.02786 15.7173 2.29382 15.1554C2.2266 15.1297 2.15104 15.1392 2.09217 15.1805C2.03329 15.2218 1.99877 15.2897 2.00003 15.3616V17.2275C2.00003 17.8748 4.53664 18.3948 7.66689 18.3948C8.02914 18.3948 8.38215 18.3876 8.72591 18.3731Z" fill="#161616"/>
<path d="M7.66689 8.1357C9.56412 8.23267 11.4594 7.91106 13.2185 7.19368C13.2896 7.15627 13.334 7.08247 13.3338 7.00216V4.96212C13.3338 4.89051 13.2985 4.82351 13.2393 4.78311C13.1802 4.74271 13.1049 4.73413 13.0382 4.7602C11.3042 5.32212 9.4874 5.58585 7.66516 5.54016C5.84292 5.58585 4.02613 5.32212 2.29209 4.7602C2.22579 4.73559 2.15165 4.74488 2.09347 4.7851C2.0353 4.82532 2.00042 4.8914 2.00003 4.96212V7.00302C2.00014 7.08303 2.0445 7.15641 2.11529 7.19368C3.87434 7.91106 5.76967 8.23267 7.66689 8.1357Z" fill="#161616"/>
<path d="M7.66689 4.6692C9.56412 4.76617 11.4594 4.44456 13.2185 3.72718C13.2896 3.68977 13.334 3.61598 13.3338 3.53566V3.17081C13.3338 2.52517 10.7971 2 7.66689 2C4.53664 2 2.00003 2.52517 2.00003 3.17081V3.53653C2.00014 3.61653 2.0445 3.68991 2.11529 3.72718C3.87434 4.44456 5.76967 4.76617 7.66689 4.6692Z" fill="#161616"/>
<path d="M7.66689 15.0687C8.03694 15.0687 8.38966 15.0592 8.72678 15.0436C8.84235 15.038 8.93316 14.9426 8.93303 14.8269V13.4992C8.92475 13.2379 8.96743 12.9774 9.05869 12.7323C9.08574 12.6639 9.07594 12.5864 9.03269 12.5269C8.98873 12.4685 8.91847 12.436 8.8455 12.4402C8.45292 12.461 8.05861 12.4723 7.66689 12.4723C5.84465 12.518 4.02786 12.2543 2.29382 11.6923C2.22718 11.6669 2.1523 11.676 2.09361 11.7165C2.03492 11.757 1.99993 11.8238 2.00003 11.8951V13.9395C2.00014 14.0195 2.0445 14.0929 2.11529 14.1301C3.87461 14.8463 5.76992 15.1668 7.66689 15.0687Z" fill="#161616"/>
<path d="M7.66689 11.6022C9.55334 11.5776 11.4245 11.2598 13.2133 10.6602C13.2846 10.6229 13.3293 10.5491 13.3294 10.4687V8.42862C13.3295 8.35701 13.2941 8.29001 13.235 8.24961C13.1759 8.20921 13.1006 8.20063 13.0339 8.2267C11.2999 8.78862 9.48307 9.05235 7.66083 9.00666C5.83858 9.05235 4.02179 8.78862 2.28775 8.2267C2.22197 8.20385 2.14921 8.21402 2.09221 8.25402C2.03521 8.29403 2.00091 8.35899 2.00003 8.42862V10.473C2.00014 10.553 2.0445 10.6264 2.11529 10.6636C3.87461 11.3798 5.76992 11.7003 7.66689 11.6022Z" fill="#161616"/>
<path d="M10.9601 15.0852C10.8934 15.0591 10.8181 15.0677 10.759 15.1081C10.6998 15.1485 10.6645 15.2155 10.6645 15.2871V17.3306C10.6643 17.4109 10.7087 17.4847 10.7798 17.5221C12.5394 18.2397 14.4353 18.5614 16.3331 18.4641C18.2304 18.5611 20.1257 18.2395 21.8847 17.5221C21.9557 17.4846 22 17.4109 22 17.3306V15.2871C22 15.2155 21.9647 15.1485 21.9056 15.1081C21.8464 15.0677 21.7712 15.0591 21.7045 15.0852C19.9704 15.6471 18.1536 15.9108 16.3314 15.8651C14.5097 15.9106 12.6936 15.6469 10.9601 15.0852Z" fill="#161616"/>
<path d="M16.3331 19.3308C14.5109 19.3764 12.6941 19.1127 10.9601 18.5508C10.8934 18.5247 10.8181 18.5333 10.759 18.5737C10.6998 18.6141 10.6645 18.6811 10.6645 18.7527V20.6186C10.6645 21.2659 13.2012 21.7894 16.3314 21.7894C19.4617 21.7894 21.9983 21.2694 21.9983 20.6186V18.7536C21.9983 18.682 21.963 18.615 21.9038 18.5746C21.8447 18.5342 21.7694 18.5256 21.7027 18.5517C19.9698 19.1129 18.1542 19.3763 16.3331 19.3308Z" fill="#161616"/>
<path d="M10.6663 13.4992V13.8641C10.6661 13.9444 10.7105 14.0182 10.7815 14.0556C12.5406 14.773 14.4359 15.0946 16.3331 14.9976C18.2304 15.0946 20.1257 14.773 21.8847 14.0556C21.9558 14.0182 22.0002 13.9444 22 13.8641V13.4992C22 12.8536 19.4634 12.3284 16.3331 12.3284C13.2029 12.3284 10.6663 12.8536 10.6663 13.4992Z" fill="#161616"/>
</svg>
