<svg width="24" height="24" viewBox="0 0 24 24" fill="none" xmlns="http://www.w3.org/2000/svg">
<path d="M10.0355 15.8239C10.1051 15.8214 10.1601 15.764 10.1598 15.6944V14.4771C10.1599 14.4417 10.1454 14.4077 10.1197 14.3831C10.0941 14.3586 10.0596 14.3456 10.0241 14.3472C9.81612 14.3565 9.60813 14.3612 9.40014 14.3612C8.30679 14.3886 7.21672 14.2304 6.17629 13.8932C6.13596 13.8778 6.09063 13.8835 6.0553 13.9083C6.01997 13.9331 5.99926 13.9738 6.00002 14.017V15.1365C6.00002 15.5249 7.52199 15.8369 9.40014 15.8369C9.61749 15.8369 9.82929 15.8326 10.0355 15.8239Z" fill="#161616"/>
<path d="M9.40014 9.68142C10.5385 9.7396 11.6757 9.54663 12.7311 9.11621C12.7737 9.09376 12.8004 9.04948 12.8003 9.00129V7.77727C12.8003 7.73431 12.7791 7.6941 12.7436 7.66986C12.7081 7.64562 12.663 7.64048 12.6229 7.65612C11.5825 7.99327 10.4924 8.15151 9.3991 8.1241C8.30575 8.15151 7.21568 7.99327 6.17525 7.65612C6.13547 7.64135 6.09099 7.64693 6.05608 7.67106C6.02118 7.69519 6.00025 7.73484 6.00002 7.77727V9.00181C6.00008 9.04982 6.0267 9.09385 6.06918 9.11621C7.1246 9.54663 8.2618 9.7396 9.40014 9.68142Z" fill="#161616"/>
<path d="M9.40014 7.60152C10.5385 7.6597 11.6757 7.46674 12.7311 7.03631C12.7737 7.01386 12.8004 6.96959 12.8003 6.9214V6.70249C12.8003 6.3151 11.2783 6 9.40014 6C7.52199 6 6.00002 6.3151 6.00002 6.70249V6.92192C6.00008 6.96992 6.0267 7.01395 6.06918 7.03631C7.1246 7.46674 8.2618 7.6597 9.40014 7.60152Z" fill="#161616"/>
<path d="M9.40014 13.8412C9.62216 13.8412 9.83379 13.8355 10.0361 13.8261C10.1054 13.8228 10.1599 13.7656 10.1598 13.6961V12.8995C10.1548 12.7427 10.1805 12.5864 10.2352 12.4394C10.2514 12.3983 10.2456 12.3518 10.2196 12.3161C10.1932 12.2811 10.1511 12.2616 10.1073 12.2641C9.87175 12.2766 9.63516 12.2834 9.40014 12.2834C8.30679 12.3108 7.21672 12.1526 6.17629 11.8154C6.13631 11.8002 6.09138 11.8056 6.05617 11.8299C6.02095 11.8542 5.99996 11.8943 6.00002 11.9371V13.1637C6.00008 13.2117 6.0267 13.2557 6.06918 13.2781C7.12476 13.7078 8.26195 13.9001 9.40014 13.8412Z" fill="#161616"/>
<path d="M9.40014 11.7613C10.532 11.7465 11.6547 11.5559 12.728 11.1961C12.7707 11.1737 12.7976 11.1295 12.7977 11.0812V9.85717C12.7977 9.81421 12.7765 9.774 12.741 9.74976C12.7055 9.72552 12.6604 9.72038 12.6203 9.73602C11.5799 10.0732 10.4898 10.2314 9.3965 10.204C8.30315 10.2314 7.21308 10.0732 6.17265 9.73602C6.13318 9.72231 6.08953 9.72841 6.05533 9.75241C6.02113 9.77642 6.00055 9.81539 6.00002 9.85717V11.0838C6.00008 11.1318 6.0267 11.1758 6.06918 11.1982C7.12476 11.6279 8.26195 11.8202 9.40014 11.7613Z" fill="#161616"/>
<path d="M11.376 13.8511C11.336 13.8355 11.2909 13.8406 11.2554 13.8648C11.2199 13.8891 11.1987 13.9293 11.1987 13.9723V15.1984C11.1986 15.2465 11.2252 15.2908 11.2679 15.3133C12.3236 15.7438 13.4612 15.9368 14.5999 15.8785C15.7382 15.9367 16.8754 15.7437 17.9308 15.3133C17.9734 15.2907 18 15.2465 18 15.1984V13.9723C18 13.9293 17.9788 13.8891 17.9433 13.8648C17.9079 13.8406 17.8627 13.8355 17.8227 13.8511C16.7823 14.1883 15.6922 14.3465 14.5988 14.3191C13.5058 14.3464 12.4161 14.1881 11.376 13.8511Z" fill="#161616"/>
<path d="M14.5999 16.3985C13.5065 16.4259 12.4165 16.2676 11.376 15.9305C11.336 15.9148 11.2909 15.92 11.2554 15.9442C11.2199 15.9685 11.1987 16.0087 11.1987 16.0516V17.1711C11.1987 17.5596 12.7207 17.8736 14.5988 17.8736C16.477 17.8736 17.999 17.5616 17.999 17.1711V16.0522C17.999 16.0092 17.9778 15.969 17.9423 15.9447C17.9068 15.9205 17.8617 15.9154 17.8216 15.931C16.7819 16.2677 15.6925 16.4258 14.5999 16.3985Z" fill="#161616"/>
<path d="M11.1998 12.8995V13.1185C11.1996 13.1666 11.2263 13.2109 11.2689 13.2334C12.3244 13.6638 13.4615 13.8568 14.5999 13.7986C15.7382 13.8568 16.8754 13.6638 17.9308 13.2334C17.9735 13.2109 18.0001 13.1666 18 13.1185V12.8995C18 12.5122 16.478 12.1971 14.5999 12.1971C12.7217 12.1971 11.1998 12.5122 11.1998 12.8995Z" fill="#161616"/>
</svg>
