<svg width="24" height="24" viewBox="0 0 24 24" fill="none" xmlns="http://www.w3.org/2000/svg">
<path d="M7.00051 14.8421C7.00051 16.0209 9.31612 16.8844 11.9061 16.8631C11.9567 16.8631 12.0024 16.8328 12.022 16.7861C12.0416 16.7395 12.0314 16.6856 11.996 16.6494C11.033 15.6485 10.8713 15.5095 10.6738 15.0988C10.6545 15.0593 10.6164 15.0324 10.5727 15.0275C9.36769 14.9535 8.20475 14.5568 7.20564 13.8791C7.16793 13.8481 7.11572 13.8417 7.07168 13.8627C7.02763 13.8837 6.9997 13.9283 7 13.9771L7.00051 14.8421Z" fill="#161616"/>
<path d="M7.00051 12.5684C7.00051 13.4637 8.38391 14.2211 10.2978 14.4884C10.3374 14.494 10.3772 14.4805 10.4052 14.4522C10.4333 14.4238 10.4463 14.3839 10.4403 14.3444C10.3677 13.8637 10.4361 13.3722 10.6374 12.9297C10.6541 12.8928 10.6522 12.8502 10.6322 12.815C10.6122 12.7798 10.5766 12.7563 10.5363 12.7518C9.34394 12.6744 8.19404 12.2791 7.20615 11.6069C7.16844 11.5759 7.11623 11.5696 7.07218 11.5906C7.02814 11.6116 7.0002 11.6561 7.00051 11.7049V12.5684Z" fill="#161616"/>
<path d="M11.801 10.5474C10.0326 10.5474 8.18484 10.1265 7.20665 9.32917C7.16884 9.29833 7.11665 9.29203 7.07258 9.31299C7.02851 9.33394 7.00046 9.3784 7.00051 9.42719V10.2947C7.00051 11.2946 8.72547 12.1218 10.9885 12.2844C11.0276 12.2873 11.0658 12.272 11.0921 12.243C11.9452 11.3223 13.344 11.1653 14.3799 11.8742C14.4227 11.904 14.4795 11.904 14.5223 11.8742C14.7883 11.6954 15.0861 11.5692 15.3995 11.5023C15.7469 11.4329 16.0632 11.2549 16.3029 10.994C16.4848 10.8056 16.5907 10.5565 16.6 10.2947V9.4282C16.6 9.37941 16.572 9.33495 16.5279 9.314C16.4838 9.29304 16.4316 9.29934 16.3938 9.33018C15.4151 10.127 13.5709 10.5474 11.801 10.5474Z" fill="#161616"/>
<path d="M11.801 10.0421C14.452 10.0421 16.601 9.13724 16.601 8.02105C16.601 6.90485 14.452 6 11.801 6C9.15004 6 7.00101 6.90485 7.00101 8.02105C7.00101 9.13724 9.15004 10.0421 11.801 10.0421Z" fill="#161616"/>
<path d="M16.2392 12.2127C15.674 12.1189 15.0983 12.3048 14.6946 12.7114L14.54 12.863C14.5164 12.8867 14.4843 12.9 14.4508 12.9C14.4174 12.9 14.3853 12.8867 14.3617 12.863L14.2101 12.7114C13.5155 12.0148 12.3878 12.0131 11.6911 12.7076C10.9945 13.4022 10.9928 14.5299 11.6873 15.2266L14.2712 17.9222C14.3189 17.9719 14.3848 18 14.4536 18C14.5225 18 14.5884 17.9719 14.636 17.9222L17.2159 15.2306C17.6889 14.7579 17.8573 14.0601 17.6519 13.4237C17.4464 12.7873 16.9019 12.3196 16.2417 12.2127H16.2392Z" fill="#161616"/>
</svg>
