<svg width="24" height="24" viewBox="0 0 24 24" fill="none" xmlns="http://www.w3.org/2000/svg">
<path fill-rule="evenodd" clip-rule="evenodd" d="M16.5 8H7.5C6.67157 8 6 8.67157 6 9.5V15C6 15.8284 6.67157 16.5 7.5 16.5H16.5C17.3284 16.5 18 15.8284 18 15V9.5C18 8.67157 17.3284 8 16.5 8ZM7.49998 8.99998H16.5C16.7761 8.99998 17 9.22383 17 9.49998V9.99998C17 10.138 16.888 10.25 16.75 10.25H7.24998C7.1119 10.25 6.99998 10.138 6.99998 9.99998V9.49998C6.99998 9.22383 7.22383 8.99998 7.49998 8.99998ZM16.5 15.5H7.49998C7.22383 15.5 6.99998 15.2761 6.99998 15V12C6.99998 11.8619 7.1119 11.75 7.24998 11.75H16.75C16.888 11.75 17 11.8619 17 12V15C17 15.2761 16.7761 15.5 16.5 15.5ZM10 13.5H8.50002C8.22388 13.5 8.00002 13.7238 8.00002 14C8.00002 14.2761 8.22388 14.5 8.50002 14.5H10C10.2762 14.5 10.5 14.2761 10.5 14C10.5 13.7238 10.2762 13.5 10 13.5Z" fill="#161616"/>
</svg>
