<svg width="24" height="24" viewBox="0 0 24 24" fill="none" xmlns="http://www.w3.org/2000/svg">
<path fill-rule="evenodd" clip-rule="evenodd" d="M19.5 5H4.5C3.11929 5 2 6.11929 2 7.5V16.6667C2 18.0474 3.11929 19.1667 4.5 19.1667H19.5C20.8807 19.1667 22 18.0474 22 16.6667V7.5C22 6.11929 20.8807 5 19.5 5ZM4.5 6.66667H19.5C19.9602 6.66667 20.3333 7.03976 20.3333 7.5V8.33333C20.3333 8.56345 20.1468 8.75 19.9167 8.75H4.08333C3.85321 8.75 3.66667 8.56345 3.66667 8.33333V7.5C3.66667 7.03976 4.03976 6.66667 4.5 6.66667ZM19.5 17.5H4.5C4.03976 17.5 3.66667 17.1269 3.66667 16.6667V11.6667C3.66667 11.4365 3.85321 11.25 4.08333 11.25H19.9167C20.1468 11.25 20.3333 11.4365 20.3333 11.6667V16.6667C20.3333 17.1269 19.9602 17.5 19.5 17.5ZM8.66667 14.1667H6.16667C5.70643 14.1667 5.33333 14.5398 5.33333 15C5.33333 15.4602 5.70643 15.8333 6.16667 15.8333H8.66667C9.1269 15.8333 9.5 15.4602 9.5 15C9.5 14.5398 9.1269 14.1667 8.66667 14.1667Z" fill="#161616"/>
</svg>
