<svg width="24" height="24" viewBox="0 0 24 24" fill="none" xmlns="http://www.w3.org/2000/svg">
<path fill-rule="evenodd" clip-rule="evenodd" d="M18 6H6C4.89543 6 4 6.89543 4 8V15.3333C4 16.4379 4.89543 17.3333 6 17.3333H18C19.1046 17.3333 20 16.4379 20 15.3333V8C20 6.89543 19.1046 6 18 6ZM5.99997 7.3333H18C18.3682 7.3333 18.6666 7.63178 18.6666 7.99997V8.66663C18.6666 8.85073 18.5174 8.99997 18.3333 8.99997H5.66663C5.48254 8.99997 5.3333 8.85073 5.3333 8.66663V7.99997C5.3333 7.63178 5.63178 7.3333 5.99997 7.3333ZM18 16H5.99997C5.63178 16 5.3333 15.7015 5.3333 15.3333V11.3333C5.3333 11.1492 5.48254 11 5.66663 11H18.3333C18.5174 11 18.6666 11.1492 18.6666 11.3333V15.3333C18.6666 15.7015 18.3682 16 18 16ZM9.33337 13.3333H7.33337C6.96518 13.3333 6.6667 13.6318 6.6667 14C6.6667 14.3682 6.96518 14.6666 7.33337 14.6666H9.33337C9.70156 14.6666 10 14.3682 10 14C10 13.6318 9.70156 13.3333 9.33337 13.3333Z" fill="#161616"/>
</svg>
