<svg width="24" height="24" viewBox="0 0 24 24" fill="none" xmlns="http://www.w3.org/2000/svg">
<path d="M16.4999 14.7333C16.5039 14.0934 16.2967 13.4672 15.9051 12.9358C15.5136 12.4044 14.9558 11.9925 14.3041 11.7533L10.5711 10.42C10.2884 10.3128 10.0549 10.1203 9.90987 9.87472C9.76482 9.62916 9.71705 9.34559 9.77461 9.07172C9.83217 8.79785 9.99155 8.55039 10.2259 8.37098C10.4603 8.19158 10.7554 8.09118 11.0615 8.08667H14.7213C15.0125 8.08667 15.2917 7.98131 15.4976 7.79377C15.7035 7.60624 15.8192 7.35188 15.8192 7.08667C15.8192 6.82145 15.7035 6.5671 15.4976 6.37956C15.2917 6.19202 15.0125 6.08667 14.7213 6.08667H13.2574C13.2088 6.08667 13.1623 6.06911 13.128 6.03785C13.0936 6.0066 13.0744 5.9642 13.0744 5.92V5C13.0744 4.73478 12.9587 4.48043 12.7528 4.29289C12.5469 4.10536 12.2676 4 11.9764 4C11.6852 4 11.406 4.10536 11.2001 4.29289C10.9942 4.48043 10.8785 4.73478 10.8785 5V5.91333C10.8786 5.95532 10.8614 5.99581 10.8302 6.02671C10.799 6.05761 10.7561 6.07664 10.7101 6.08C9.92289 6.1435 9.18199 6.44641 8.60669 6.93998C8.0314 7.43354 7.65516 8.08905 7.53854 8.801C7.42193 9.51295 7.57171 10.2399 7.96378 10.8649C8.35585 11.49 8.96742 11.9766 9.70003 12.2467L13.433 13.58C13.7157 13.6872 13.9492 13.8797 14.0942 14.1253C14.2393 14.3708 14.287 14.6544 14.2295 14.9283C14.1719 15.2022 14.0126 15.4496 13.7782 15.629C13.5438 15.8084 13.2487 15.9088 12.9426 15.9133H9.28282C8.99163 15.9133 8.71236 16.0187 8.50646 16.2062C8.30055 16.3938 8.18488 16.6481 8.18488 16.9133C8.18488 17.1786 8.30055 17.4329 8.50646 17.6204C8.71236 17.808 8.99163 17.9133 9.28282 17.9133H10.7467C10.7953 17.9133 10.8418 17.9309 10.8761 17.9621C10.9104 17.9934 10.9297 18.0358 10.9297 18.08V19C10.9297 19.2652 11.0454 19.5196 11.2513 19.7071C11.4572 19.8946 11.7365 20 12.0277 20C12.3189 20 12.5981 19.8946 12.804 19.7071C13.0099 19.5196 13.1256 19.2652 13.1256 19V18.0867C13.1255 18.0447 13.1427 18.0042 13.1739 17.9733C13.2051 17.9424 13.248 17.9234 13.294 17.92C14.1684 17.8485 14.9819 17.4821 15.575 16.8925C16.1681 16.303 16.498 15.5329 16.4999 14.7333Z" fill="#161616"/>
</svg>
