<svg width="24" height="24" viewBox="0 0 24 24" fill="none" xmlns="http://www.w3.org/2000/svg">
<path d="M15.5 14.05C15.503 13.5701 15.3419 13.1004 15.0373 12.7018C14.7328 12.3033 14.2989 11.9943 13.792 11.815L10.8886 10.815C10.6688 10.7346 10.4872 10.5902 10.3743 10.406C10.2615 10.2219 10.2244 10.0092 10.2691 9.80379C10.3139 9.59838 10.4379 9.41279 10.6202 9.27824C10.8025 9.14368 11.032 9.06838 11.27 9.065H14.1166C14.343 9.065 14.5602 8.98598 14.7204 8.84533C14.8805 8.70468 14.9705 8.51391 14.9705 8.315C14.9705 8.11609 14.8805 7.92532 14.7204 7.78467C14.5602 7.64402 14.343 7.565 14.1166 7.565H12.9779C12.9402 7.565 12.904 7.55183 12.8773 7.52839C12.8506 7.50495 12.8356 7.47315 12.8356 7.44V6.75C12.8356 6.55109 12.7457 6.36032 12.5855 6.21967C12.4254 6.07902 12.2082 6 11.9817 6C11.7552 6 11.538 6.07902 11.3778 6.21967C11.2177 6.36032 11.1277 6.55109 11.1277 6.75V7.435C11.1278 7.46649 11.1144 7.49686 11.0901 7.52003C11.0659 7.54321 11.0325 7.55748 10.9968 7.56C10.3845 7.60763 9.80822 7.83481 9.36076 8.20498C8.91331 8.57515 8.62068 9.06679 8.52998 9.60075C8.43928 10.1347 8.55577 10.68 8.86072 11.1487C9.16566 11.6175 9.64132 11.9825 10.2111 12.185L13.1146 13.185C13.3344 13.2654 13.516 13.4098 13.6288 13.594C13.7417 13.7781 13.7788 13.9908 13.734 14.1962C13.6893 14.4016 13.5653 14.5872 13.383 14.7218C13.2007 14.8563 12.9712 14.9316 12.7331 14.935H9.88664C9.66015 14.935 9.44295 15.014 9.2828 15.1547C9.12265 15.2953 9.03268 15.4861 9.03268 15.685C9.03268 15.8839 9.12265 16.0747 9.2828 16.2153C9.44295 16.356 9.66015 16.435 9.88664 16.435H11.0252C11.063 16.435 11.0992 16.4482 11.1259 16.4716C11.1526 16.4951 11.1676 16.5268 11.1676 16.56V17.25C11.1676 17.4489 11.2575 17.6397 11.4177 17.7803C11.5778 17.921 11.795 18 12.0215 18C12.248 18 12.4652 17.921 12.6254 17.7803C12.7855 17.6397 12.8755 17.4489 12.8755 17.25V16.565C12.8754 16.5335 12.8888 16.5031 12.9131 16.48C12.9373 16.4568 12.9707 16.4425 13.0064 16.44C13.6865 16.3864 14.3192 16.1116 14.7806 15.6694C15.2419 15.2273 15.4984 14.6497 15.5 14.05Z" fill="#161616"/>
</svg>
