<svg width="24" height="24" viewBox="0 0 24 24" fill="none" xmlns="http://www.w3.org/2000/svg">
<path fill-rule="evenodd" clip-rule="evenodd" d="M11.0126 11.3182C10.9748 11.3246 10.9365 11.3277 10.8981 11.3276C10.5592 11.3275 10.2699 11.0923 10.2139 10.7713L9.17309 4.77605C9.13943 4.58289 9.19602 4.38529 9.32782 4.23579C9.45961 4.0863 9.65326 4.00006 9.85727 4H16.4493C16.8325 4 17.1432 4.29824 17.1432 4.66614C17.1432 5.03404 16.8325 5.33228 16.4493 5.33228H10.8815C10.8304 5.33221 10.782 5.3537 10.7489 5.39105C10.7159 5.4284 10.7017 5.47781 10.7101 5.52613L11.583 10.5515C11.6133 10.7258 11.5702 10.9045 11.4632 11.0483C11.3563 11.1921 11.1942 11.2892 11.0126 11.3182ZM19.4074 6.23425C19.2756 6.08475 19.082 5.9985 18.878 5.99844H12.6329C12.4329 5.99849 12.2427 6.08135 12.111 6.2258C11.9792 6.37024 11.9188 6.56222 11.9452 6.75251L12.6391 11.7486C12.6668 11.9886 12.8276 12.1955 13.0595 12.2893C13.2914 12.383 13.5579 12.3489 13.7561 12.2002C13.9544 12.0514 14.0532 11.8113 14.0144 11.5727L13.4517 7.51924C13.4448 7.47114 13.46 7.42255 13.4933 7.38601C13.5265 7.35048 13.574 7.33035 13.6238 7.33072H17.8565C17.9076 7.33061 17.956 7.35205 17.9891 7.38934C18.0213 7.42636 18.0354 7.47487 18.0279 7.52257L17.2647 11.8998C17.2338 12.0747 17.2769 12.2542 17.3843 12.3985C17.4918 12.5428 17.6548 12.64 17.8371 12.6685C17.875 12.6746 17.9132 12.6777 17.9516 12.6778C18.2905 12.6774 18.5795 12.4419 18.6351 12.1209L19.5635 6.77449C19.5968 6.58113 19.5397 6.38352 19.4074 6.23425ZM17.1432 13.326H12.959C12.8925 13.326 12.8318 13.2895 12.8028 13.2321L12.1638 11.9611C12.112 11.8584 12.0091 11.7883 11.8911 11.7752C11.7726 11.7609 11.6549 11.8071 11.5809 11.8971L10.2736 13.4632L10.2687 13.4699C10.1628 13.5824 10.015 13.6503 9.85725 13.6591H9.16335C8.97174 13.6591 8.81641 13.8082 8.81641 13.9922V17.989C8.81641 18.0938 8.86782 18.1926 8.95519 18.2555C10.5511 19.4046 11.7884 19.9874 12.6328 19.9874H16.4812C17.1035 20.0765 17.6903 19.6846 17.8197 19.0935C18.1638 17.5205 18.4014 15.9277 18.531 14.3252C18.531 13.8283 18.0543 13.326 17.1432 13.326ZM5.17347 12.9929H7.31276C7.43026 12.9803 7.54784 13.0161 7.63614 13.0916C7.72445 13.1671 7.77515 13.2751 7.77559 13.3886V18.9256C7.77515 19.0391 7.72445 19.1471 7.63614 19.2226C7.54784 19.2981 7.43026 19.334 7.31276 19.3213H5.17347C5.07767 19.3213 5 19.2467 5 19.1547V13.1595C5 13.0675 5.07767 12.9929 5.17347 12.9929ZM16.7962 9.99531C16.7962 10.5472 16.3302 10.9945 15.7554 10.9945C15.1806 10.9945 14.7146 10.5472 14.7146 9.99531C14.7146 9.44346 15.1806 8.99609 15.7554 8.99609C16.3302 8.99609 16.7962 9.44346 16.7962 9.99531Z" fill="#161616"/>
</svg>
