<svg width="24" height="24" viewBox="0 0 24 24" fill="none" xmlns="http://www.w3.org/2000/svg">
<path fill-rule="evenodd" clip-rule="evenodd" d="M11.5095 11.4887C11.4811 11.4935 11.4524 11.4958 11.4236 11.4957C11.1694 11.4956 10.9524 11.3192 10.9105 11.0785L10.1298 6.58204C10.1046 6.43717 10.147 6.28897 10.2459 6.17685C10.3447 6.06472 10.4899 6.00004 10.643 6H15.587C15.8744 6 16.1074 6.22368 16.1074 6.49961C16.1074 6.77553 15.8744 6.99921 15.587 6.99921H11.4111C11.3728 6.99916 11.3365 7.01528 11.3117 7.04329C11.2869 7.0713 11.2763 7.10836 11.2826 7.1446L11.9372 10.9136C11.96 11.0443 11.9277 11.1784 11.8474 11.2862C11.7672 11.3941 11.6456 11.4669 11.5095 11.4887ZM17.8056 7.67567C17.7067 7.56355 17.5615 7.49886 17.4085 7.49881H12.7247C12.5747 7.49885 12.4321 7.561 12.3333 7.66933C12.2345 7.77766 12.1892 7.92164 12.209 8.06436L12.7294 11.8114C12.7501 11.9915 12.8708 12.1466 13.0447 12.2169C13.2186 12.2872 13.4185 12.2617 13.5671 12.1501C13.7158 12.0386 13.7899 11.8585 13.7609 11.6795L13.3388 8.63941C13.3337 8.60334 13.3451 8.5669 13.37 8.53949C13.3949 8.51284 13.4306 8.49774 13.4679 8.49802H16.6424C16.6807 8.49794 16.7171 8.51402 16.7418 8.54199C16.766 8.56975 16.7766 8.60613 16.771 8.64191L16.1985 11.9248C16.1754 12.056 16.2077 12.1906 16.2883 12.2988C16.3689 12.4071 16.4911 12.48 16.6279 12.5014C16.6563 12.5059 16.685 12.5082 16.7137 12.5084C16.9679 12.508 17.1847 12.3314 17.2264 12.0907L17.9227 8.08085C17.9476 7.93583 17.9048 7.78762 17.8056 7.67567ZM16.1074 12.9945H12.9692C12.9194 12.9946 12.8739 12.9672 12.8521 12.9241L12.3728 11.9709C12.334 11.8938 12.2568 11.8412 12.1683 11.8315C12.0794 11.8207 11.9912 11.8554 11.9357 11.9229L10.9552 13.0975L10.9516 13.1025C10.8721 13.1868 10.7612 13.2378 10.6429 13.2444H10.1225C9.97881 13.2444 9.8623 13.3562 9.8623 13.4942V16.4918C9.8623 16.5704 9.90087 16.6445 9.96639 16.6916C11.1634 17.5535 12.0913 17.9906 12.7246 17.9906H15.6109C16.0776 18.0574 16.5177 17.7635 16.6148 17.3201C16.8729 16.1404 17.051 14.9458 17.1482 13.744C17.1482 13.3713 16.7907 12.9945 16.1074 12.9945ZM7.13011 12.7447H8.73457C8.8227 12.7352 8.91088 12.7621 8.97711 12.8188C9.04333 12.8754 9.08136 12.9564 9.08169 13.0415V17.1942C9.08136 17.2794 9.04333 17.3603 8.97711 17.417C8.91088 17.4736 8.8227 17.5005 8.73457 17.491H7.13011C7.05825 17.491 7 17.4351 7 17.3661V12.8696C7 12.8007 7.05825 12.7447 7.13011 12.7447ZM15.8472 10.4965C15.8472 10.9104 15.4977 11.2459 15.0666 11.2459C14.6355 11.2459 14.2859 10.9104 14.2859 10.4965C14.2859 10.0826 14.6355 9.74707 15.0666 9.74707C15.4977 9.74707 15.8472 10.0826 15.8472 10.4965Z" fill="#161616"/>
</svg>
