<svg width="24" height="24" viewBox="0 0 24 24" fill="none" xmlns="http://www.w3.org/2000/svg">
<path fill-rule="evenodd" clip-rule="evenodd" d="M7.66663 8.66667C8.9553 8.66667 9.99997 7.622 9.99997 6.33333C9.99997 5.04467 8.9553 4 7.66663 4C6.37797 4 5.3333 5.04467 5.3333 6.33333C5.3333 7.622 6.37797 8.66667 7.66663 8.66667ZM15.6667 6.3333C15.6667 7.43787 14.7713 8.3333 13.6667 8.3333C12.5621 8.3333 11.6667 7.43787 11.6667 6.3333C11.6667 5.22873 12.5621 4.3333 13.6667 4.3333C14.7713 4.3333 15.6667 5.22873 15.6667 6.3333ZM15.6666 20C13.2734 20 11.3333 18.0599 11.3333 15.6666C11.3362 13.2746 13.2746 11.3362 15.6666 11.3333C18.0599 11.3333 20 13.2734 20 15.6666C20 18.0599 18.0599 20 15.6666 20ZM16.1666 13V12.8333C16.1666 12.5572 15.9428 12.3333 15.6666 12.3333C15.3905 12.3333 15.1666 12.5572 15.1666 12.8333V13.0386C15.1669 13.1179 15.111 13.1864 15.0333 13.202C14.4295 13.3225 13.9771 13.8261 13.9216 14.4393C13.8661 15.0525 14.2209 15.6291 14.7933 15.856L16.1693 16.406C16.3444 16.4766 16.4449 16.6613 16.4092 16.8467C16.3734 17.0321 16.2114 17.1662 16.0226 17.1666H14.6666C14.3905 17.1666 14.1666 17.3905 14.1666 17.6666C14.1666 17.9428 14.3905 18.1666 14.6666 18.1666H15C15.092 18.1666 15.1666 18.2413 15.1666 18.3333V18.5C15.1666 18.7761 15.3905 19 15.6666 19C15.9428 19 16.1666 18.7761 16.1666 18.5V18.2946C16.1666 18.2154 16.2223 18.1471 16.3 18.1313C16.9038 18.0108 17.3562 17.5072 17.4116 16.894C17.4671 16.2808 17.1123 15.7042 16.54 15.4773L15.1646 14.9273C14.9896 14.8567 14.889 14.6719 14.9248 14.4866C14.9605 14.3012 15.1225 14.1671 15.3113 14.1666H16.6666C16.9428 14.1666 17.1666 13.9428 17.1666 13.6666C17.1666 13.3905 16.9428 13.1666 16.6666 13.1666H16.3333C16.2412 13.1666 16.1666 13.092 16.1666 13ZM12.0705 11.6041C12.0189 11.592 11.9762 11.5561 11.9553 11.5074C11.7814 11.1006 11.5507 10.7206 11.27 10.3787C11.2208 10.3188 11.2194 10.2328 11.2667 10.1714C11.8196 9.45813 12.6613 9.02799 13.5632 8.99771C14.4652 8.96743 15.3338 9.34016 15.9333 10.0147C15.9781 10.0649 15.9883 10.1372 15.9591 10.1978C15.93 10.2585 15.8672 10.2956 15.8 10.292H15.6667C14.4011 10.2919 13.1773 10.7448 12.2167 11.5687C12.1763 11.6031 12.1221 11.6162 12.0705 11.6041ZM4 15.6667C4 15.8507 4.14924 16 4.33333 16H5.54C5.62659 16 5.69873 16.0664 5.706 16.1527L6 19.6947C6.01459 19.8677 6.15964 20.0006 6.33333 20H9C9.17369 20.0006 9.31874 19.8677 9.33333 19.6947L9.62867 16.1527C9.63589 16.0669 9.70726 16.0007 9.79333 16H10.174C10.22 16.0001 10.264 15.981 10.2953 15.9473C10.3269 15.9141 10.3431 15.8691 10.34 15.8233C10.34 15.79 10.3383 15.7567 10.3367 15.7233C10.335 15.69 10.3333 15.6567 10.3333 15.6233C10.3323 14.5751 10.6423 13.55 11.224 12.678C11.2492 12.6404 11.2579 12.5941 11.248 12.55C10.8466 10.7222 9.13321 9.48991 7.27268 9.69099C5.41215 9.89206 4.00159 11.462 4 13.3333V15.6667Z" fill="#161616"/>
</svg>
