<svg width="24" height="24" viewBox="0 0 24 24" fill="none" xmlns="http://www.w3.org/2000/svg">
<path fill-rule="evenodd" clip-rule="evenodd" d="M8.74998 9.5C9.71647 9.5 10.5 8.7165 10.5 7.75C10.5 6.7835 9.71647 6 8.74998 6C7.78348 6 6.99998 6.7835 6.99998 7.75C6.99998 8.7165 7.78348 9.5 8.74998 9.5ZM14.75 7.74998C14.75 8.5784 14.0785 9.24998 13.25 9.24998C12.4216 9.24998 11.75 8.5784 11.75 7.74998C11.75 6.92155 12.4216 6.24998 13.25 6.24998C14.0785 6.24998 14.75 6.92155 14.75 7.74998ZM14.75 18C12.9551 18 11.5 16.5449 11.5 14.75C11.5022 12.956 12.956 11.5022 14.75 11.5C16.5449 11.5 18 12.9551 18 14.75C18 16.5449 16.5449 18 14.75 18ZM15.125 12.75V12.625C15.125 12.4179 14.9571 12.25 14.75 12.25C14.5429 12.25 14.375 12.4179 14.375 12.625V12.779C14.3752 12.8385 14.3333 12.8898 14.275 12.9015C13.8221 12.9919 13.4828 13.3696 13.4412 13.8295C13.3996 14.2894 13.6657 14.7218 14.095 14.892L15.127 15.3045C15.2583 15.3575 15.3337 15.496 15.3069 15.635C15.2801 15.774 15.1586 15.8746 15.017 15.875H14C13.7929 15.875 13.625 16.0429 13.625 16.25C13.625 16.4571 13.7929 16.625 14 16.625H14.25C14.319 16.625 14.375 16.6809 14.375 16.75V16.875C14.375 17.0821 14.5429 17.25 14.75 17.25C14.9571 17.25 15.125 17.0821 15.125 16.875V16.721C15.125 16.6616 15.1668 16.6104 15.225 16.5985C15.6778 16.5081 16.0171 16.1304 16.0587 15.6705C16.1003 15.2106 15.8343 14.7782 15.405 14.608L14.3735 14.1955C14.2422 14.1425 14.1668 14.004 14.1936 13.8649C14.2204 13.7259 14.3419 13.6253 14.4835 13.625H15.5C15.7071 13.625 15.875 13.4571 15.875 13.25C15.875 13.0429 15.7071 12.875 15.5 12.875H15.25C15.1809 12.875 15.125 12.819 15.125 12.75ZM12.0529 11.7031C12.0142 11.694 11.9821 11.6671 11.9665 11.6305C11.8361 11.3255 11.663 11.0405 11.4525 10.784C11.4156 10.7391 11.4146 10.6746 11.45 10.6285C11.8647 10.0936 12.4959 9.77099 13.1724 9.74828C13.8489 9.72557 14.5004 10.0051 14.95 10.511C14.9836 10.5487 14.9912 10.6029 14.9693 10.6484C14.9475 10.6939 14.9004 10.7217 14.85 10.719H14.75C13.8008 10.7189 12.883 11.0586 12.1625 11.6765C12.1322 11.7023 12.0915 11.7122 12.0529 11.7031ZM6 14.75C6 14.8881 6.11193 15 6.25 15H7.155C7.21994 15 7.27404 15.0498 7.2795 15.1145L7.5 17.771C7.51094 17.9008 7.61973 18.0005 7.75 18H9.75C9.88027 18.0005 9.98906 17.9008 10 17.771L10.2215 15.1145C10.2269 15.0502 10.2804 15.0005 10.345 15H10.6305C10.665 15.0001 10.698 14.9857 10.7215 14.9605C10.7452 14.9355 10.7573 14.9018 10.755 14.8675C10.755 14.8425 10.7538 14.8175 10.7525 14.7925C10.7513 14.7675 10.75 14.7425 10.75 14.7175C10.7493 13.9313 10.9817 13.1625 11.418 12.5085C11.4369 12.4803 11.4434 12.4456 11.436 12.4125C11.135 11.0416 9.84991 10.1174 8.45451 10.2682C7.05912 10.419 6.00119 11.5965 6 13V14.75Z" fill="#161616"/>
</svg>
