<svg width="24" height="24" viewBox="0 0 24 24" fill="none" xmlns="http://www.w3.org/2000/svg">
<path fill-rule="evenodd" clip-rule="evenodd" d="M18.5251 17.7403C16.7811 17.7403 15.3672 16.3114 15.3672 14.5488C15.3672 12.7861 16.7811 11.3572 18.5251 11.3572H20.4198C20.5361 11.3572 20.6304 11.262 20.6304 11.1445V9.01678C20.6304 7.84168 19.6878 6.88908 18.5251 6.88908H4.20938C3.04668 6.88908 2.10413 7.84168 2.10413 9.01678V20.0808C2.10413 21.2559 3.04668 22.2085 4.20938 22.2085H18.5251C19.6878 22.2085 20.6304 21.2559 20.6304 20.0808V17.9531C20.6304 17.8356 20.5361 17.7403 20.4198 17.7403H18.5251ZM21.0514 12.6339H18.5251C17.4787 12.6339 16.6304 13.4912 16.6304 14.5488C16.6304 15.6064 17.4787 16.4637 18.5251 16.4637H21.0514C21.6647 16.3568 22.1106 15.816 22.1041 15.1871V13.9105C22.1106 13.2815 21.6647 12.7407 21.0514 12.6339ZM18.6826 2.99629C18.6161 2.72585 18.4448 2.49378 18.2072 2.35228C17.9697 2.21079 17.6858 2.17175 17.4195 2.24394L6.57991 5.19292C6.47857 5.22117 6.41338 5.32064 6.42717 5.42596C6.44097 5.53128 6.52953 5.61018 6.63465 5.6108L19.0641 5.62953C19.1292 5.63001 19.1908 5.59993 19.2309 5.54809C19.2709 5.49625 19.2849 5.42855 19.2687 5.36484L18.6826 2.99629Z" fill="#161616"/>
</svg>
