<svg width="24" height="24" viewBox="0 0 24 24" fill="none" xmlns="http://www.w3.org/2000/svg">
<path fill-rule="evenodd" clip-rule="evenodd" d="M15.8526 15.319C14.8062 15.319 13.9579 14.4617 13.9579 13.4041C13.9579 12.3465 14.8062 11.4892 15.8526 11.4892H16.9894C17.0592 11.4892 17.1157 11.432 17.1157 11.3615V10.0849C17.1157 9.37985 16.5502 8.80829 15.8526 8.80829H7.26315C6.56553 8.80829 6 9.37985 6 10.0849V16.7233C6 17.4284 6.56553 17.9999 7.26315 17.9999H15.8526C16.5502 17.9999 17.1157 17.4284 17.1157 16.7233V15.4467C17.1157 15.3762 17.0592 15.319 16.9894 15.319H15.8526ZM17.3684 12.2552H15.8526C15.2247 12.2552 14.7157 12.7697 14.7157 13.4042C14.7157 14.0388 15.2247 14.5532 15.8526 14.5532H17.3684C17.7363 14.489 18.0039 14.1645 17.9999 13.7872V13.0212C18.0039 12.6439 17.7363 12.3194 17.3684 12.2552ZM15.947 6.47268C15.9071 6.31041 15.8043 6.17117 15.6618 6.08627C15.5193 6.00138 15.3489 5.97795 15.1892 6.02127L8.68543 7.79066C8.62462 7.8076 8.58551 7.86728 8.59378 7.93048C8.60206 7.99367 8.6552 8.04101 8.71827 8.04138L16.1759 8.05262C16.215 8.05291 16.252 8.03486 16.276 8.00376C16.3 7.97266 16.3084 7.93203 16.2987 7.89381L15.947 6.47268Z" fill="#161616"/>
</svg>
