<svg width="24" height="24" viewBox="0 0 24 24" fill="none" xmlns="http://www.w3.org/2000/svg">
<path fill-rule="evenodd" clip-rule="evenodd" d="M17.1368 16.4254C15.7416 16.4254 14.6105 15.2823 14.6105 13.8722C14.6105 12.4621 15.7416 11.319 17.1368 11.319H18.6526C18.7456 11.319 18.821 11.2427 18.821 11.1487V9.44659C18.821 8.50651 18.067 7.74443 17.1368 7.74443H5.6842C4.75404 7.74443 4 8.50651 4 9.44659V18.2978C4 19.2379 4.75404 19.9999 5.6842 19.9999H17.1368C18.067 19.9999 18.821 19.2379 18.821 18.2978V16.5956C18.821 16.5016 18.7456 16.4254 18.6526 16.4254H17.1368ZM19.1578 12.3403H17.1368C16.2996 12.3403 15.621 13.0262 15.621 13.8723C15.621 14.7183 16.2996 15.4042 17.1368 15.4042H19.1578C19.6484 15.3187 20.0052 14.8861 19.9999 14.3829V13.3616C20.0052 12.8585 19.6484 12.4258 19.1578 12.3403ZM17.2627 4.63024C17.2095 4.41388 17.0725 4.22823 16.8824 4.11503C16.6924 4.00184 16.4653 3.9706 16.2522 4.02836L7.58059 6.38754C7.49952 6.41014 7.44737 6.48971 7.4584 6.57397C7.46944 6.65823 7.54029 6.72135 7.62438 6.72184L17.5679 6.73682C17.62 6.73721 17.6693 6.71314 17.7014 6.67167C17.7334 6.63021 17.7446 6.57604 17.7316 6.52508L17.2627 4.63024Z" fill="#161616"/>
</svg>
