<svg width="24" height="24" viewBox="0 0 24 24" fill="none" xmlns="http://www.w3.org/2000/svg">
<path fill-rule="evenodd" clip-rule="evenodd" d="M17.7677 9.69502C17.9197 10.0538 17.9987 10.4396 18 10.8295C18.0007 11.5496 17.7367 12.2445 17.2589 12.7812C16.781 13.3178 16.1228 13.6583 15.4104 13.7375C15.2778 13.7548 15.1438 13.7185 15.0378 13.6366C14.9319 13.5546 14.8627 13.4338 14.8455 13.3006C14.8282 13.1674 14.8644 13.0327 14.9459 12.9263C15.0275 12.8199 15.1478 12.7503 15.2804 12.733C15.7503 12.6847 16.1858 12.4636 16.5032 12.1123C16.8207 11.7609 16.9977 11.304 17.0001 10.8295C17.001 10.5742 16.95 10.3213 16.8503 10.0865C16.7506 9.85157 16.6042 9.63958 16.4202 9.46343C16.2393 9.28407 16.0232 9.14454 15.7856 9.05375C15.5481 8.96295 15.2943 8.92287 15.0404 8.93607C14.9428 8.93969 14.8463 8.9145 14.7628 8.86363C14.6793 8.81275 14.6124 8.73841 14.5705 8.64979C14.3031 8.07326 13.8515 7.60305 13.2876 7.31389C12.7237 7.02472 12.0797 6.93318 11.4581 7.05381C10.8365 7.17444 10.2728 7.50032 9.85665 7.97968C9.44049 8.45904 9.19574 9.06437 9.16128 9.69948C9.15671 9.77104 9.13695 9.84078 9.10332 9.90402C9.06969 9.96726 9.02297 10.0225 8.9663 10.0661C8.90958 10.1103 8.84405 10.1417 8.77418 10.1582C8.70431 10.1746 8.63172 10.1758 8.56136 10.1615C8.37303 10.121 8.17806 10.1234 7.99077 10.1685C7.80347 10.2136 7.62861 10.3003 7.47902 10.4222C7.32942 10.544 7.20889 10.698 7.12628 10.8728C7.04366 11.0476 7.00105 11.2387 7.00159 11.4322C6.99232 11.5965 7.01733 11.7608 7.07502 11.9148C7.1327 12.0687 7.22178 12.2089 7.33654 12.3262C7.63873 12.5867 8.0232 12.7309 8.42138 12.733C8.55397 12.733 8.68113 12.7859 8.77488 12.8801C8.86864 12.9743 8.92131 13.1021 8.92131 13.2353C8.92131 13.3685 8.86864 13.4962 8.77488 13.5904C8.68113 13.6846 8.55397 13.7375 8.42138 13.7375C7.75855 13.7287 7.12053 13.4829 6.62164 13.0444C6.41412 12.8325 6.25205 12.5801 6.14542 12.3028C6.0388 12.0256 5.9899 11.7292 6.00173 11.4322C6.00008 11.0882 6.0751 10.7481 6.2213 10.437C6.36749 10.1259 6.58115 9.85156 6.84661 9.63419C7.21602 9.33944 7.66579 9.16431 8.13642 9.13195C8.16237 9.12954 8.18692 9.11905 8.20664 9.10194C8.22636 9.08483 8.24026 9.06196 8.24641 9.03652C8.41029 8.28045 8.79674 7.59137 9.35553 7.05883C9.91433 6.52628 10.6196 6.17489 11.3798 6.05032C12.14 5.92574 12.9199 6.03374 13.6182 6.36028C14.3165 6.68682 14.9008 7.2168 15.2954 7.88136C15.3054 7.89816 15.3193 7.91236 15.3358 7.92282C15.3523 7.93329 15.371 7.93973 15.3904 7.94163C16.0393 8.00186 16.648 8.28371 17.1151 8.7402C17.3939 9.01155 17.6158 9.3362 17.7677 9.69502ZM12.8757 14.2398H13.7506C13.8489 14.2402 13.9449 14.2697 14.0265 14.3246C14.1082 14.3795 14.172 14.4573 14.2099 14.5485C14.2477 14.6396 14.258 14.7399 14.2395 14.8368C14.2209 14.9338 14.1744 15.0231 14.1056 15.0936L12.3558 16.8514C12.3093 16.8985 12.2541 16.9359 12.1931 16.9614C12.1322 16.9869 12.0669 17 12.0009 17C11.9349 17 11.8695 16.9869 11.8086 16.9614C11.7477 16.9359 11.6924 16.8985 11.6459 16.8514L9.89618 15.0936C9.82738 15.0231 9.7808 14.9338 9.76225 14.8368C9.7437 14.7399 9.75401 14.6396 9.79188 14.5485C9.82976 14.4573 9.89352 14.3795 9.9752 14.3246C10.0569 14.2697 10.1529 14.2402 10.2511 14.2398H11.126C11.1591 14.2398 11.1909 14.2265 11.2144 14.203C11.2378 14.1794 11.251 14.1475 11.251 14.1142V10.4981C11.251 10.2983 11.33 10.1066 11.4706 9.96535C11.6113 9.82407 11.802 9.74469 12.0009 9.74469C12.1998 9.74469 12.3905 9.82407 12.5311 9.96535C12.6718 10.1066 12.7508 10.2983 12.7508 10.4981V14.1142C12.7508 14.1475 12.7639 14.1794 12.7874 14.203C12.8108 14.2265 12.8426 14.2398 12.8757 14.2398Z" fill="#161616"/>
</svg>
