<svg width="24" height="24" viewBox="0 0 24 24" fill="none" xmlns="http://www.w3.org/2000/svg">
<path fill-rule="evenodd" clip-rule="evenodd" d="M19.6903 9.03866C19.893 9.52797 19.9982 10.054 20 10.5857C20.0009 11.5676 19.649 12.5153 19.0118 13.247C18.3746 13.9788 17.497 14.4432 16.5472 14.5512C16.3704 14.5748 16.1917 14.5253 16.0504 14.4135C15.9092 14.3018 15.8169 14.137 15.7939 13.9553C15.771 13.7737 15.8191 13.5901 15.9279 13.445C16.0367 13.2998 16.1971 13.205 16.3739 13.1814C17.0004 13.1155 17.5811 12.814 18.0043 12.3349C18.4276 11.8558 18.6636 11.2328 18.6669 10.5857C18.668 10.2375 18.6 9.89274 18.467 9.57244C18.3341 9.25214 18.139 8.96306 17.8936 8.72286C17.6524 8.47827 17.3642 8.28801 17.0475 8.1642C16.7307 8.04038 16.3923 7.98574 16.0539 8.00374C15.9238 8.00867 15.7951 7.97432 15.6837 7.90495C15.5724 7.83557 15.4832 7.7342 15.4273 7.61336C15.0708 6.82717 14.4687 6.18598 13.7168 5.79166C12.9649 5.39734 12.1063 5.27251 11.2775 5.43701C10.4486 5.60151 9.69706 6.0459 9.14219 6.69956C8.58733 7.35323 8.26099 8.17868 8.21503 9.04475C8.20895 9.14232 8.1826 9.23742 8.13776 9.32366C8.09292 9.4099 8.03062 9.48527 7.95507 9.54471C7.87944 9.60495 7.79207 9.64775 7.69891 9.67021C7.60574 9.69266 7.50896 9.69424 7.41515 9.67484C7.16404 9.61961 6.90408 9.62287 6.65436 9.68436C6.40463 9.74586 6.17148 9.86404 5.97202 10.0302C5.77256 10.1964 5.61186 10.4064 5.5017 10.6447C5.39155 10.8831 5.33474 11.1437 5.33545 11.4076C5.3231 11.6315 5.35645 11.8557 5.43336 12.0656C5.51027 12.2756 5.62904 12.4667 5.78205 12.6267C6.18497 12.9819 6.6976 13.1785 7.22851 13.1814C7.4053 13.1814 7.57484 13.2536 7.69985 13.382C7.82485 13.5104 7.89508 13.6846 7.89508 13.8663C7.89508 14.0479 7.82485 14.2221 7.69985 14.3506C7.57484 14.479 7.4053 14.5512 7.22851 14.5512C6.34474 14.5391 5.49404 14.204 4.82886 13.606C4.55216 13.3171 4.33606 12.9729 4.1939 12.5948C4.05173 12.2167 3.98653 11.8126 4.00231 11.4076C4.00011 10.9384 4.10014 10.4747 4.29507 10.0504C4.48999 9.62618 4.77487 9.25213 5.12881 8.95572C5.62136 8.55379 6.22105 8.31496 6.84856 8.27084C6.88316 8.26756 6.91589 8.25326 6.94219 8.22992C6.96848 8.20659 6.98702 8.1754 6.99521 8.14071C7.21372 7.1097 7.72898 6.17005 8.47404 5.44385C9.2191 4.71766 10.1595 4.23849 11.1731 4.06862C12.1867 3.89874 13.2265 4.04601 14.1576 4.49129C15.0886 4.93657 15.8678 5.65927 16.3939 6.56549C16.4073 6.5884 16.4257 6.60776 16.4477 6.62203C16.4697 6.6363 16.4946 6.64509 16.5205 6.64768C17.3857 6.72981 18.1973 7.11416 18.8202 7.73663C19.1918 8.10666 19.4877 8.54936 19.6903 9.03866ZM13.1677 15.2361H14.3342C14.4652 15.2366 14.5932 15.2768 14.7021 15.3517C14.811 15.4266 14.896 15.5327 14.9465 15.657C14.997 15.7812 15.0107 15.918 14.986 16.0502C14.9613 16.1824 14.8992 16.3042 14.8074 16.4003L12.4744 18.7974C12.4125 18.8616 12.3387 18.9126 12.2575 18.9473C12.1763 18.9821 12.0892 19 12.0012 19C11.9132 19 11.8261 18.9821 11.7448 18.9473C11.6636 18.9126 11.5899 18.8616 11.5279 18.7974L9.19491 16.4003C9.10319 16.3042 9.04108 16.1824 9.01635 16.0502C8.99161 15.918 9.00535 15.7812 9.05585 15.657C9.10635 15.5327 9.19137 15.4266 9.30027 15.3517C9.40918 15.2768 9.53715 15.2366 9.66818 15.2361H10.8347C10.8789 15.2361 10.9213 15.218 10.9525 15.1859C10.9838 15.1538 11.0013 15.1102 11.0013 15.0648V10.1337C11.0013 9.86125 11.1067 9.59995 11.2942 9.40729C11.4817 9.21463 11.736 9.1064 12.0012 9.1064C12.2664 9.1064 12.5207 9.21463 12.7082 9.40729C12.8957 9.59995 13.001 9.86125 13.001 10.1337V15.0648C13.001 15.1102 13.0186 15.1538 13.0498 15.1859C13.0811 15.218 13.1235 15.2361 13.1677 15.2361Z" fill="#161616"/>
</svg>
