<svg width="24" height="24" viewBox="0 0 24 24" fill="none" xmlns="http://www.w3.org/2000/svg">
<path fill-rule="evenodd" clip-rule="evenodd" d="M10.3917 2C9.72267 2.00047 9.18046 2.55602 9.18 3.24147L9.18083 10.2625C9.18106 10.3192 9.15918 10.3736 9.12006 10.4137C9.08094 10.4538 9.02782 10.4762 8.9725 10.476H6.55583C6.1459 10.4423 5.76155 10.6833 5.6044 11.0727C5.44725 11.4621 5.5532 11.9109 5.86667 12.1837L10.9483 17.392C11.4278 17.8609 12.1822 17.8609 12.6617 17.392L17.7433 12.1879C18.0556 11.9147 18.1608 11.4666 18.0039 11.0777C17.8469 10.6889 17.4636 10.4477 17.0542 10.4803H14.6375C14.5224 10.4803 14.4292 10.3847 14.4292 10.2668V3.24147C14.4287 2.55635 13.887 2.00094 13.2183 2H10.3917ZM5.3625 22C3.5062 21.9981 2.00184 20.4567 2 18.5548V16.9521C2.01578 16.3863 2.46798 15.9361 3.02042 15.9361C3.57285 15.9361 4.02505 16.3863 4.04083 16.9521V18.5522C4.04175 19.2997 4.63294 19.9055 5.3625 19.9064H18.6375C19.3671 19.9055 19.9583 19.2997 19.9592 18.5522V16.9521C19.9749 16.3863 20.4272 15.9361 20.9796 15.9361C21.532 15.9361 21.9842 16.3863 22 16.9521V18.5548C21.9982 20.4567 20.4938 21.9981 18.6375 22H5.3625Z" fill="#161616"/>
</svg>
