<svg width="24" height="24" viewBox="0 0 24 24" fill="none" xmlns="http://www.w3.org/2000/svg">
<path fill-rule="evenodd" clip-rule="evenodd" d="M11.035 5.99998C10.6336 6.00026 10.3083 6.33359 10.308 6.74486L10.3085 10.9575C10.3086 10.9915 10.2955 11.0242 10.272 11.0482C10.2486 11.0723 10.2167 11.0857 10.1835 11.0856H8.7335C8.48754 11.0653 8.25692 11.21 8.16264 11.4436C8.06835 11.6772 8.13192 11.9465 8.32 12.1102L11.369 15.2352C11.6567 15.5165 12.1093 15.5165 12.397 15.2352L15.446 12.1127C15.6334 11.9488 15.6965 11.6799 15.6023 11.4466C15.5082 11.2133 15.2782 11.0686 15.0325 11.0881H13.5825C13.5135 11.0881 13.4575 11.0308 13.4575 10.9601V6.74486C13.4572 6.33379 13.1322 6.00054 12.731 5.99998H11.035ZM8.0175 18C6.90372 17.9989 6.0011 17.0741 6 15.9329V14.9713C6.00947 14.6318 6.28079 14.3617 6.61225 14.3617C6.94371 14.3617 7.21503 14.6318 7.2245 14.9713V15.9313C7.22505 16.3798 7.57977 16.7433 8.0175 16.7439H15.9825C16.4202 16.7433 16.775 16.3798 16.7755 15.9313V14.9713C16.785 14.6318 17.0563 14.3617 17.3878 14.3617C17.7192 14.3617 17.9905 14.6318 18 14.9713V15.9329C17.9989 17.0741 17.0963 17.9989 15.9825 18H8.0175Z" fill="#161616"/>
</svg>
