<svg width="24" height="24" viewBox="0 0 24 24" fill="none" xmlns="http://www.w3.org/2000/svg">
<path fill-rule="evenodd" clip-rule="evenodd" d="M10.7133 4C10.1781 4.00038 9.74436 4.44482 9.74399 4.99318L9.74466 10.61C9.74484 10.6554 9.72734 10.6989 9.69604 10.731C9.66475 10.763 9.62225 10.781 9.57799 10.7808H7.64466C7.31672 10.7538 7.00923 10.9467 6.88351 11.2582C6.7578 11.5697 6.84256 11.9287 7.09333 12.1469L11.1587 16.3136C11.5422 16.6887 12.1458 16.6887 12.5293 16.3136L16.5947 12.1503C16.8445 11.9318 16.9286 11.5732 16.8031 11.2622C16.6776 10.9511 16.3709 10.7582 16.0433 10.7842H14.11C14.0179 10.7842 13.9433 10.7078 13.9433 10.6134V4.99318C13.943 4.44508 13.5096 4.00075 12.9747 4H10.7133ZM6.69 20C5.20496 19.9985 4.00147 18.7654 4 17.2438V15.9617C4.01263 15.5091 4.37439 15.1489 4.81633 15.1489C5.25828 15.1489 5.62004 15.5091 5.63267 15.9617V17.2418C5.6334 17.8398 6.10636 18.3244 6.69 18.3251H17.31C17.8936 18.3244 18.3666 17.8398 18.3673 17.2418V15.9617C18.38 15.5091 18.7417 15.1489 19.1837 15.1489C19.6256 15.1489 19.9874 15.5091 20 15.9617V17.2438C19.9985 18.7654 18.795 19.9985 17.31 20H6.69Z" fill="#161616"/>
</svg>
