<svg width="120" height="120" viewBox="0 0 120 120" fill="none" xmlns="http://www.w3.org/2000/svg">
<path fill-rule="evenodd" clip-rule="evenodd" d="M49.3446 50.0196L47.3046 48.4032C47.1625 48.1776 47.0848 47.9174 47.0798 47.6508C47.0749 47.3843 47.1428 47.1214 47.2764 46.8906C47.4354 46.6393 47.6806 46.4547 47.966 46.3713C48.2514 46.2879 48.5575 46.3115 48.8268 46.4376L61.2126 55.023C61.2339 55.0376 61.2514 55.057 61.2637 55.0797C61.2759 55.1024 61.2827 55.1277 61.2833 55.1535C61.2838 55.1793 61.2783 55.2048 61.267 55.228C61.2558 55.2513 61.2392 55.2715 61.2186 55.287C60.8653 55.5011 60.5767 55.8069 60.3832 56.1719C60.1898 56.5369 60.0988 56.9475 60.12 57.36C60.1181 57.3887 60.1088 57.4164 60.0928 57.4403C60.0768 57.4643 60.0548 57.4835 60.029 57.4962C60.0031 57.5089 59.9744 57.5145 59.9457 57.5125C59.917 57.5105 59.8894 57.5009 59.8656 57.4848L55.2408 54.3516C55.2226 54.3395 55.2022 54.3311 55.1808 54.327C55.1594 54.3228 55.1373 54.3229 55.116 54.3273C55.0946 54.3317 55.0743 54.3404 55.0563 54.3527C55.0383 54.365 55.0229 54.3807 55.011 54.399L53.331 57.03C53.3192 57.0483 53.3039 57.064 53.286 57.0763C53.2681 57.0886 53.2479 57.0972 53.2266 57.1016C53.2053 57.106 53.1834 57.1061 53.1621 57.102C53.1407 57.0978 53.1204 57.0895 53.1024 57.0774L51.5634 56.0454C51.5274 56.0214 51.5025 55.984 51.4941 55.9416C51.4856 55.8992 51.4944 55.8552 51.5184 55.8192L53.0592 53.5032C53.0712 53.4851 53.0795 53.4647 53.0836 53.4433C53.0877 53.4218 53.0874 53.3998 53.0828 53.3785C53.0782 53.3572 53.0694 53.337 53.0569 53.3192C53.0444 53.3013 53.0284 53.2862 53.01 53.2746L51.2016 52.149C51.166 52.1268 51.1233 52.1191 51.0822 52.1275C51.0411 52.1359 51.0048 52.1597 50.9808 52.194L49.4004 54.4896C49.3766 54.5242 49.3404 54.5484 49.2993 54.5571C49.2582 54.5658 49.2154 54.5584 49.1796 54.5364L47.3838 53.4294C47.365 53.4177 47.3488 53.4022 47.3361 53.3841C47.3234 53.3659 47.3145 53.3454 47.31 53.3237C47.3054 53.302 47.3053 53.2796 47.3097 53.2579C47.314 53.2361 47.3227 53.2155 47.3352 53.1972L49.3752 50.2422C49.3997 50.2083 49.4102 50.1662 49.4045 50.1248C49.3988 50.0833 49.3773 50.0456 49.3446 50.0196ZM54.255 87.8634C55.1052 85.92 48.0965 83.76 45.36 84.18C42.3545 84.6402 27.6222 89.0934 22.7928 90.7986C20.3299 91.6664 18.6155 92.1845 16.9763 92.6799C14.9965 93.2783 13.1266 93.8434 10.1808 94.9512C9.36955 95.2572 8.49415 95.6154 8.07415 96.372C6.68395 98.8668 18.3756 100.872 19.9242 101.06C22.314 101.353 24.7074 100.589 26.9196 99.6366C27.9158 99.2075 30.103 98.332 32.8283 97.241L32.8287 97.2408C40.9443 93.9922 53.8314 88.8336 54.255 87.8634ZM109.487 107.163C110.152 106.625 109.606 105.958 108.805 105.319C114.922 106.143 119.237 109.316 115.759 111.89C113.852 113.299 110.563 113.603 107.006 113.156C105.604 112.98 104.677 112.599 103.812 112.243C102.433 111.677 101.211 111.175 98.475 111.667C85.944 113.923 63.3606 107.707 81.549 105.332C82.4274 105.217 83.454 105.128 84.5904 105.059C82.9722 105.944 81.8268 107.206 82.3908 107.943C83.0478 108.798 86.9352 108.798 88.2312 108.123C89.1258 107.656 88.863 105.928 88.6146 104.903C94.4088 104.78 101.452 104.971 106.381 105.123C107.302 106.083 108.925 107.618 109.487 107.163ZM75.9437 66.8316C74.3855 70.5642 74.5331 75.1818 77.2415 76.3116C79.4027 77.2128 82.4357 74.9442 83.8007 72.0546C84.2675 71.0574 85.7837 72.081 85.4075 73.1292C83.6645 77.9958 79.2437 80.1006 75.4565 78.4692C72.2465 77.0892 71.4053 71.7732 72.7181 67.3092C72.0204 67.2992 71.3508 67.0328 70.8369 66.5607C70.323 66.0887 70.0008 65.444 69.9317 64.7496L65.6903 62.034C65.6339 61.998 65.5859 61.9502 65.5497 61.8938C65.5136 61.8375 65.4901 61.7739 65.4809 61.7076C65.3243 60.8341 65.5183 59.934 66.0209 59.2026C66.0938 59.1137 66.1972 59.0552 66.3109 59.0384C66.4246 59.0216 66.5405 59.0479 66.6359 59.112L71.1635 62.121C71.7747 61.7046 72.5242 61.5432 73.2526 61.671C73.981 61.7989 74.6307 62.206 75.0635 62.8056C77.3735 59.9514 80.6435 58.6194 83.3435 59.7456C85.3745 60.591 86.3441 62.1072 86.6783 64.6272C86.7845 65.4474 85.0259 66.0594 84.9107 65.5134C84.5573 63.8442 84.1649 62.9298 82.7507 62.3826C80.4593 61.4958 77.5019 63.099 75.9437 66.8316Z" fill="#417FDA"/>
<path fill-rule="evenodd" clip-rule="evenodd" d="M24.8117 10.1844C16.8977 15.5886 15.1889 25.7076 14.8253 34.6044C14.8211 34.7337 14.7668 34.8564 14.6739 34.9464C14.581 35.0365 14.4567 35.087 14.3273 35.0872C14.1979 35.0875 14.0735 35.0374 13.9802 34.9477C13.887 34.858 13.8322 34.7355 13.8275 34.6062C13.4465 29.3382 15.1409 21.9294 17.1413 17.841C19.08 13.8449 22.2267 10.56 26.1359 8.4516C27.9975 7.48455 30.0317 6.89451 32.1218 6.71532C34.2119 6.53614 36.3168 6.77133 38.3158 7.40742C40.3148 8.0435 42.1686 9.06796 43.7708 10.422C45.373 11.7761 46.6921 13.4332 47.6525 15.2982C49.5443 18.9084 50.0705 23.0784 50.0477 27.1074C50.0477 27.2124 50.006 27.3132 49.9318 27.3874C49.8575 27.4617 49.7568 27.5034 49.6517 27.5034C49.5467 27.5034 49.446 27.4617 49.3717 27.3874C49.2975 27.3132 49.2557 27.2124 49.2557 27.1074C49.1999 22.98 48.6935 18.6912 46.6037 15.051C45.5564 13.2311 44.1422 11.6488 42.4507 10.4047C40.7592 9.16064 38.8275 8.28186 36.7782 7.82422C34.729 7.36658 32.6069 7.34007 30.5469 7.74638C28.4868 8.15269 26.5338 8.98294 24.8117 10.1844ZM89.7048 39.6984C89.9057 39.879 90.1612 39.9873 90.4307 40.0062C90.5557 40.0468 90.688 40.0596 90.8184 40.0436C90.9488 40.0277 91.0741 39.9833 91.1855 39.9138C91.2216 39.8923 91.2478 39.8574 91.2584 39.8168C91.2689 39.7761 91.263 39.7329 91.242 39.6966C91.1627 39.5902 91.0605 39.503 90.9429 39.4416C90.8253 39.3802 90.6954 39.3462 90.5628 39.342C90.2914 39.2646 90.0017 39.2833 89.7426 39.3948C89.7177 39.4103 89.6965 39.4311 89.6807 39.4558C89.6649 39.4806 89.6549 39.5085 89.6512 39.5376C89.6476 39.5667 89.6505 39.5962 89.6598 39.624C89.6691 39.6519 89.6844 39.6773 89.7048 39.6984ZM90.0095 41.4121C90.0517 41.4543 90.1039 41.4841 90.1605 41.4994C90.2162 41.5283 90.3751 41.5848 90.5406 41.532C90.6336 41.5054 90.7155 41.4493 90.7738 41.372C90.832 41.2948 90.8636 41.2007 90.8636 41.1039C90.8636 41.0071 90.832 40.913 90.7738 40.8358C90.7155 40.7585 90.6336 40.7024 90.5406 40.6758C90.4174 40.6412 90.2855 40.6556 90.1727 40.716C90.0598 40.7764 89.9747 40.8781 89.9352 40.9998C89.9784 40.9038 89.9748 40.9134 89.9256 41.0286C89.9142 41.0767 89.9092 41.1262 89.9106 41.1756C89.9112 41.2644 89.9467 41.3493 90.0095 41.4121ZM87.3644 41.7296C87.2761 41.8178 87.1565 41.8674 87.0317 41.8674C86.907 41.8674 86.7873 41.8178 86.6991 41.7296C86.6109 41.6414 86.5613 41.5218 86.5613 41.397C86.5613 41.2722 86.6109 41.1526 86.6991 41.0644C86.7873 40.9762 86.907 40.9266 87.0317 40.9266C87.1565 40.9266 87.2761 40.9762 87.3644 41.0644C87.4526 41.1526 87.5021 41.2722 87.5021 41.397C87.5021 41.5218 87.4526 41.6414 87.3644 41.7296ZM88.4861 42.06C88.272 42.3573 88.1488 42.7104 88.1315 43.0764C88.0398 43.5121 88.0012 43.9574 88.0163 44.4024C88.0565 44.8494 88.5125 45.4362 88.9595 45.006C88.9831 44.9819 89.0008 44.9529 89.0115 44.9209C89.0222 44.889 89.0255 44.8551 89.0212 44.8217C89.0168 44.7883 89.005 44.7563 88.9865 44.7282C88.968 44.7001 88.9434 44.6765 88.9145 44.6592C88.5186 44.434 88.6155 43.8677 88.7158 43.2807C88.7858 42.8714 88.8576 42.4521 88.7651 42.1314C88.7565 42.1039 88.741 42.079 88.7201 42.0591C88.6992 42.0392 88.6735 42.025 88.6456 42.0179C88.6176 42.0107 88.5883 42.0108 88.5604 42.0182C88.5324 42.0256 88.5069 42.04 88.4861 42.06ZM89.95 47.0552C89.4712 47.1182 88.9843 47.0454 88.545 46.845C88.5114 46.824 88.4854 46.7928 88.471 46.7559C88.4565 46.7191 88.4542 46.6785 88.4645 46.6403C88.4748 46.6021 88.497 46.5681 88.5281 46.5435C88.5591 46.5189 88.5972 46.5049 88.6368 46.5036C89.4196 46.6241 90.2191 46.4436 90.8742 45.9984C91.4357 45.5552 91.5904 44.9988 91.7592 44.392L91.7593 44.3917C91.8002 44.2446 91.842 44.0944 91.8906 43.9422C91.9029 43.9021 91.9278 43.867 91.9615 43.8421C91.9953 43.8172 92.0361 43.8038 92.0781 43.8038C92.12 43.8038 92.1609 43.8172 92.1946 43.8421C92.2283 43.867 92.2532 43.9021 92.2656 43.9422C92.5962 44.8494 91.9602 45.9414 91.2528 46.4886C90.8802 46.7959 90.4288 46.9922 89.95 47.0552ZM97.038 52.347C96.9968 52.3474 96.9571 52.3626 96.9261 52.3898C96.8952 52.417 96.875 52.4544 96.8693 52.4952C96.8636 52.536 96.8726 52.5775 96.8949 52.6122C96.9171 52.6469 96.9511 52.6724 96.9906 52.6842C102.297 53.8212 105.47 59.0646 103.711 63.1746C103.43 62.2428 102.373 61.6506 101.516 61.3416C100.239 60.8879 98.8509 60.8572 97.5558 61.254C98.511 59.4942 98.2614 57.1434 96.2286 56.1456C96.0486 56.0568 95.835 56.2884 96.0006 56.4456C96.9342 57.33 97.6806 58.4658 97.3806 59.8182C97.2193 60.3847 96.9454 60.9129 96.5753 61.3712C96.2052 61.8294 95.7465 62.2083 95.2266 62.4852C94.0988 63.1465 92.8386 63.4812 91.5826 63.8147C90.9904 63.972 90.399 64.1291 89.823 64.32C89.7511 64.3427 89.6895 64.39 89.6491 64.4537C89.6087 64.5173 89.5921 64.5932 89.6022 64.6679C89.6123 64.7426 89.6485 64.8114 89.7044 64.862C89.7603 64.9126 89.8322 64.9419 89.9076 64.9446C91.1705 64.8428 92.4107 64.5496 93.5856 64.0752C94.9622 63.6926 96.2011 62.9251 97.1568 61.863C100.217 61.4052 101.441 61.47 103.441 63.7158C102.67 65.0218 101.461 66.0119 100.028 66.51C97.8111 67.3287 95.6811 66.9635 93.472 66.5847C93.217 66.541 92.9609 66.4971 92.7036 66.4548C92.733 66.3432 92.5122 66.3156 92.457 66.3828C92.3383 66.5272 92.251 66.7239 92.1383 66.9779C91.896 67.524 91.5361 68.3349 90.4944 69.4602C89.4571 70.5382 88.1012 71.2548 86.6262 71.5044C86.5846 71.5173 86.5489 71.5446 86.5255 71.5813C86.5021 71.618 86.4925 71.6618 86.4983 71.7049C86.5041 71.7481 86.525 71.7878 86.5574 71.817C86.5897 71.8462 86.6312 71.863 86.6748 71.8644C88.2082 71.7932 89.6538 71.128 90.7056 70.0098C91.5285 69.1441 92.194 68.1414 92.6724 67.047C97.134 69.132 104.058 67.6236 104.942 62.127C105.716 57.3168 101.783 52.7352 97.038 52.347ZM88.3182 68.0352C87.3906 69.3384 85.5288 69.8586 84.0066 69.6552C83.9715 69.65 83.9394 69.6324 83.9162 69.6057C83.8929 69.5789 83.8799 69.5447 83.8796 69.5092C83.8794 69.4738 83.8917 69.4394 83.9146 69.4122C83.9374 69.3851 83.9692 69.367 84.0042 69.3612C85.6344 69.3066 86.736 68.6412 88.0242 67.7412C88.1982 67.62 88.4382 67.8636 88.3182 68.0352ZM84.612 70.9944C86.1342 71.1984 87.996 70.6776 88.9236 69.3744C89.0466 69.2028 88.8036 68.9592 88.6296 69.0798C87.3414 69.9834 86.2398 70.6452 84.6096 70.6998C84.5742 70.7052 84.5419 70.7231 84.5186 70.7504C84.4954 70.7776 84.4827 70.8123 84.483 70.8481C84.4833 70.884 84.4965 70.9185 84.5202 70.9453C84.5439 70.9722 84.5765 70.9896 84.612 70.9944ZM88.4003 65.8092C87.5213 67.6686 85.1765 68.3502 83.2799 67.98C83.2519 67.971 83.228 67.9524 83.2123 67.9275C83.1966 67.9026 83.1903 67.8729 83.1944 67.8438C83.1985 67.8146 83.2127 67.7879 83.2346 67.7682C83.2566 67.7486 83.2847 67.7373 83.3141 67.7364C85.3055 67.8702 86.7821 66.9426 88.1855 65.643C88.2093 65.6204 88.2404 65.6071 88.2732 65.6054C88.306 65.6038 88.3383 65.6139 88.3642 65.634C88.3902 65.6541 88.4081 65.6828 88.4147 65.7149C88.4213 65.747 88.4162 65.7805 88.4003 65.8092ZM86.8998 62.8356C88.2158 63.5602 88.4898 64.1191 88.77 64.6908C88.8662 64.8869 88.963 65.0845 89.103 65.2908C89.1276 65.3302 89.1641 65.3606 89.2073 65.3776C89.2505 65.3946 89.298 65.3973 89.3428 65.3853C89.3877 65.3732 89.4274 65.3471 89.4563 65.3108C89.4852 65.2744 89.5016 65.2298 89.5032 65.1834C89.4762 63.8766 88.0884 63.0444 87.0642 62.5578C86.88 62.4696 86.715 62.7336 86.8998 62.8356ZM65.5399 57.1803C64.5579 58.9311 64.3424 59.3154 64.7496 61.4112C64.7673 61.4833 64.7587 61.5594 64.7253 61.6257C64.6919 61.692 64.6359 61.7442 64.5674 61.7729C64.4989 61.8015 64.4224 61.8048 64.3518 61.7821C64.2811 61.7593 64.2209 61.712 64.182 61.6488C63.1559 60.2436 63.6503 57.6468 65.2404 56.8638C65.2831 56.8403 65.3323 56.8313 65.3806 56.8382C65.4289 56.845 65.4737 56.8674 65.5081 56.902C65.5426 56.9365 65.5649 56.9813 65.5717 57.0296C65.5785 57.0779 65.5694 57.1271 65.5458 57.1698L65.5399 57.1803ZM63.369 60.9228C62.8524 59.2962 63.4806 57.8538 64.2918 56.4738C64.3156 56.4305 64.3246 56.3807 64.3177 56.3319C64.3107 56.283 64.2881 56.2377 64.2532 56.2028C64.2183 56.1679 64.173 56.1453 64.1241 56.1383C64.0753 56.1314 64.0255 56.1404 63.9822 56.1642C62.3298 57.228 62.2374 59.4642 62.9748 61.0842C63.0786 61.3098 63.4422 61.1532 63.369 60.9228ZM61.8263 59.0743L61.8263 59.0743C61.8622 59.4001 61.8979 59.7236 61.8528 60.0492C61.8473 60.0689 61.8374 60.0871 61.8237 60.1024C61.8101 60.1176 61.7932 60.1296 61.7743 60.1373C61.7553 60.145 61.7348 60.1483 61.7144 60.1468C61.694 60.1454 61.6742 60.1393 61.6566 60.129C60.3306 59.1462 61.1268 56.3808 62.3436 55.6434C62.3897 55.6185 62.4426 55.6092 62.4944 55.6168C62.5463 55.6244 62.5943 55.6485 62.6314 55.6856C62.6684 55.7226 62.6925 55.7707 62.7001 55.8225C62.7077 55.8744 62.6984 55.9273 62.6736 55.9734C62.275 56.61 61.9818 57.3067 61.8054 58.0368C61.7507 58.3885 61.7886 58.7326 61.8263 59.0743ZM86.6208 57.0846C85.9764 58.5223 85.8311 60.1341 86.208 61.6638C86.2626 61.8468 86.5812 61.881 86.6136 61.6638C86.6893 61.1498 86.7075 60.6327 86.7258 60.1147V60.1145C86.7326 59.922 86.7394 59.7294 86.7492 59.5368C86.7694 59.133 86.8137 58.7319 86.858 58.3311C86.9004 57.9469 86.9428 57.5629 86.964 57.177C86.9718 57 86.6958 56.9166 86.6208 57.0846ZM21.1494 32.7408C21.2329 32.0885 21.3109 31.4264 21.3896 30.7586C22.0499 25.1532 22.7571 19.1491 27.1866 15.2472C32.7846 10.3194 39.1386 11.5302 42.5394 16.0038C44.9127 19.1245 45.0236 21.0862 45.2166 24.5008L45.2166 24.5012C45.2497 25.086 45.2851 25.7133 45.3348 26.3964C45.3552 26.6772 45.84 26.6676 45.885 26.3964C46.434 23.0916 45.027 18.2424 44.0784 16.7598C42.5448 14.3664 39.9726 12.162 37.2036 11.4642C31.5294 10.0332 25.215 13.1178 22.2678 20.8494C20.8855 24.6545 20.2909 28.7007 20.52 32.7426C20.5279 32.8208 20.5645 32.8932 20.6228 32.9458C20.6812 32.9984 20.757 33.0274 20.8355 33.0272C20.914 33.0269 20.9897 32.9975 21.0477 32.9446C21.1057 32.8916 21.142 32.819 21.1494 32.7408ZM28.9595 28.9385L28.9594 28.9385C26.2592 29.634 23.9444 30.2303 22.8089 30.4098C22.7524 30.4255 22.6919 30.418 22.6408 30.3891C22.5897 30.3602 22.5522 30.3122 22.5365 30.2556C22.5209 30.199 22.5283 30.1386 22.5572 30.0875C22.5861 30.0364 22.6342 29.9989 22.6907 29.9832C26.3291 28.7832 43.1699 24.7632 44.0807 24.8232C44.2973 24.8382 44.4269 25.1532 44.2007 25.2642C43.9763 25.3745 42.5598 25.6932 40.5399 26.1477L40.5397 26.1477L40.5395 26.1477C38.7571 26.5488 36.5048 27.0555 34.1873 27.618C32.4221 28.0465 30.6182 28.5112 28.9597 28.9384L28.9595 28.9385ZM45.0138 61.602C43.0118 58.5055 41.7871 55.0275 40.5686 51.5672C40.494 51.3552 40.4194 51.1433 40.3446 50.9316C41.2765 50.2594 41.9456 49.284 42.2372 48.1726C42.5289 47.0612 42.4248 45.8829 41.943 44.8398C41.4423 43.7448 40.5732 42.8602 39.4871 42.3405C38.4009 41.8207 37.1668 41.6987 36 41.9958C31.728 43.0758 29.6676 50.0178 34.9254 51.9924C34.29 54.0838 33.8418 56.2227 33.3937 58.3617C32.9151 60.6459 32.4366 62.9302 31.7298 65.157C31.7115 65.227 31.7118 65.3005 31.7308 65.3703C31.7497 65.44 31.7866 65.5036 31.8377 65.5547C31.8889 65.6058 31.9525 65.6426 32.0223 65.6615C32.0921 65.6804 32.1657 65.6806 32.2356 65.6622C33.5527 65.2956 34.8646 64.9014 36.177 64.507L36.1771 64.507L36.1772 64.507C39.0162 63.654 41.8578 62.8001 44.7612 62.2224C44.8233 62.2047 44.8805 62.1731 44.9286 62.13C44.9766 62.087 45.0142 62.0335 45.0386 61.9737C45.0629 61.9139 45.0733 61.8494 45.069 61.785C45.0647 61.7206 45.0459 61.658 45.0138 61.602ZM34.1876 58.6209C33.7501 60.6462 33.3127 62.6714 32.7374 64.6614C33.6566 64.3919 34.5747 64.1137 35.4933 63.8352L35.4938 63.8351L35.4942 63.835L35.4946 63.8349L35.4947 63.8348L35.4948 63.8348L35.4949 63.8348C38.2967 62.9857 41.1039 62.1349 43.9632 61.5264L41.1492 60.597C40.6836 60.795 35.52 62.3958 34.32 62.4198C34.2736 62.4184 34.2288 62.402 34.1924 62.3732C34.1559 62.3444 34.1297 62.3046 34.1176 62.2598C34.1055 62.2149 34.1082 62.1673 34.1252 62.1241C34.1421 62.0809 34.1726 62.0442 34.212 62.0196C35.2932 61.4688 40.4652 60.063 40.5678 60.0432L37.7808 51.1632C37.7227 51.0202 37.719 50.8608 37.7704 50.7152C37.8218 50.5696 37.9248 50.4479 38.0598 50.373C38.6406 49.8924 40.0206 47.031 38.9406 45.1584C37.4826 42.6264 34.605 43.839 34.0386 44.1096C33.2743 44.9659 32.7848 46.0319 32.6334 47.1696C32.3676 49.2024 33.6654 50.7702 35.5662 51.3132C35.6732 51.3449 35.7637 51.417 35.8187 51.5141C35.8736 51.6113 35.8887 51.7259 35.8608 51.834C35.1721 54.0628 34.6798 56.3419 34.1876 58.6209ZM58.56 59.2404C58.5546 59.0484 58.845 59.0514 58.86 59.2404C58.88 59.5205 58.9013 59.8042 58.9229 60.0905C59.2445 64.3619 59.6087 69.1991 56.169 71.0778C53.2456 72.5651 50.2175 73.837 47.109 74.8836C38.7048 77.9862 30.2664 80.9436 21.4848 82.7862C19.3452 83.2362 16.7742 83.673 14.7342 82.872C12.0036 82.1136 9.22377 80.904 7.12977 78.9672C5.93153 77.7801 5.0844 76.2851 4.68177 74.6472C2.72892 68.3127 2.97684 50.2067 3.05179 44.7338C3.06045 44.1012 3.0668 43.6373 3.06717 43.38C3.07077 40.8078 3.59997 38.04 5.58537 36.2274C7.42734 34.6138 9.70032 33.573 12.1254 33.2328C12.155 33.2298 12.1848 33.2373 12.2094 33.254C12.234 33.2708 12.252 33.2957 12.2601 33.3243C12.2682 33.353 12.2659 33.3836 12.2537 33.4107C12.2414 33.4379 12.22 33.4599 12.1932 33.4728C12.0777 33.5133 11.9613 33.554 11.844 33.5949L11.8429 33.5953C9.29978 34.4834 6.36194 35.5094 4.90017 37.899C6.70857 36.8118 9.95277 37.5282 11.1336 39.7644C12.0508 38.1467 13.4153 37.7646 16.4761 36.9076L16.4763 36.9075C16.6872 36.8484 16.9061 36.7871 17.1336 36.723C21.7692 35.4156 49.8588 28.8918 51.6936 28.5558C51.8614 28.5251 52.0296 28.4925 52.1981 28.4597L52.1983 28.4597L52.1984 28.4597C53.4395 28.2188 54.6968 27.9747 55.935 28.485C55.1112 27.1854 54.156 25.7904 51.1674 25.2324C50.742 25.1514 50.9208 24.4914 51.3474 24.5802C52.7741 24.8294 54.1006 25.4788 55.1724 26.4528C56.0513 27.2543 56.724 28.2561 57.1332 29.373C57.7338 30.2632 58.1076 31.2867 58.2222 32.3544C58.5858 34.365 59.1648 46.257 59.1162 50.157C59.1162 50.2655 59.0731 50.3696 58.9963 50.4463C58.9196 50.5231 58.8155 50.5662 58.707 50.5662C58.5984 50.5662 58.4944 50.5231 58.4176 50.4463C58.3409 50.3696 58.2978 50.2655 58.2978 50.157C58.2732 48.0522 57.5394 32.6526 57.1734 31.2852L57.1597 31.2321C57.0153 30.6651 56.4741 28.5412 53.4534 29.0388C50.0676 29.5968 18.1194 36.7716 13.2534 38.886C11.0415 39.8472 11.1626 43.9768 11.4002 52.076C11.4614 54.1643 11.5304 56.5164 11.5692 59.1462C11.5789 59.8173 11.573 60.7319 11.566 61.8109C11.5243 68.2475 11.4448 80.5327 14.4252 81.8574C16.4341 82.46 17.3782 82.3343 19.119 82.1025C19.2624 82.0834 19.4113 82.0636 19.5666 82.0434C28.7809 80.8449 37.8595 77.4522 50.1127 72.873L51.0666 72.5166C52.3512 72.0378 53.6112 71.4774 54.8466 70.887L54.8723 70.8748C55.9996 70.3394 57.0536 69.8389 57.6414 68.667C58.7136 66.5348 58.6317 62.6589 58.5731 59.8872V59.8872L58.573 59.8842C58.5683 59.662 58.5638 59.4469 58.56 59.2404ZM110.511 107.305C109.865 105.074 106.3 103.256 104.378 103.377C105.353 99.4248 104.899 87.1374 100.927 75.1992C101.698 74.9541 102.45 74.6558 103.179 74.3064C103.247 74.2658 103.299 74.2043 103.329 74.1312C103.359 74.0581 103.364 73.9772 103.345 73.9008C103.269 73.5798 103.193 73.2593 103.117 72.9391L103.117 72.9389C102.718 71.261 102.32 69.5888 102.079 67.8768C102.051 67.6638 101.683 67.7106 101.702 67.9278C101.922 69.8737 102.292 71.7995 102.811 73.6878C99.1045 75.1661 95.103 75.7531 91.1286 75.4014C89.5537 75.188 87.9915 74.8901 86.4486 74.5092C86.094 74.4396 85.8264 74.9436 86.1882 75.1284C86.262 75.1656 86.3364 75.2016 86.4114 75.2376C86.019 78.012 85.9344 86.7738 85.947 89.589C85.9608 93.2862 86.2518 102.129 86.7354 104.323C85.4925 104.208 84.2487 104.534 83.223 105.245C82.356 105.89 81.024 107.252 81.3714 108.382C81.4914 108.784 82.9368 109.214 85.0608 109.27C87.0012 109.321 89.4684 108.698 90.5568 107.778L90.5658 107.773L90.5736 107.763C91.2528 107.218 90.9192 105.193 90.5166 104.758C91.1482 99.8038 91.5445 94.8922 91.9634 89.7014L91.964 89.6935C92.0387 88.7678 92.1142 87.8331 92.1918 86.8878C92.3436 85.0212 92.5518 83.31 93.837 81.9192C96.9978 83.97 97.7016 86.679 98.6214 90.2592C99.1641 92.441 99.5973 94.6485 99.9192 96.8736C100.182 98.593 100.341 99.8898 100.466 100.908C100.662 102.513 100.774 103.425 101.076 104.208C101.029 104.535 101.035 104.868 101.094 105.193C101.103 105.461 101.166 105.724 101.279 105.968C101.393 106.211 101.554 106.428 101.754 106.607C101.779 106.622 104.485 107.987 105.824 108.217C107.497 108.5 110.981 108.929 110.511 107.305ZM86.4 105.461C86.2093 105.698 86.0008 105.759 85.709 105.844C85.4295 105.926 85.0736 106.029 84.5838 106.332C84.2583 106.535 83.9614 106.781 83.7012 107.062C83.6273 107.143 83.5628 107.229 83.4991 107.315C83.3642 107.496 83.2327 107.673 83.022 107.777C82.5732 107.999 82.4076 106.877 84.0936 105.682C84.6744 105.268 85.7514 104.656 86.4 105.195C86.4345 105.231 86.4539 105.278 86.4539 105.328C86.4539 105.378 86.4345 105.425 86.4 105.461ZM99.06 88.8258C98.4846 86.8284 97.872 84.7932 96.45 83.2182C95.1723 81.7464 93.3855 80.812 91.4478 80.6022C91.3176 80.5872 91.2954 80.7906 91.416 80.823C92.0911 81.0069 92.7401 81.2758 93.3474 81.6234C91.8616 82.6556 91.6777 85.0962 91.3768 89.0904C91.3199 89.8464 91.2587 90.6581 91.1838 91.5264L91.1366 92.0674L91.1365 92.0678C90.7777 96.1794 90.3953 100.562 90.2028 104.678C88.464 104.819 88.1141 104.695 87.6885 104.545C87.5987 104.514 87.5056 104.481 87.3954 104.449C87.4048 104.201 87.36 103.75 87.2881 103.025V103.025C87.036 100.485 86.4504 94.5851 86.6988 82.275C86.7132 81.5658 86.7416 80.8531 86.7701 80.1392V80.1389C86.8331 78.5632 86.8963 76.9811 86.8092 75.4146C90.561 76.9746 96.8442 76.4346 100.609 75.2988C104.104 89.2813 103.948 96.1154 103.853 100.286V100.286C103.827 101.428 103.806 102.37 103.865 103.204C103.619 103.51 103.292 103.74 102.922 103.869C102.658 103.92 102.388 103.917 102.126 103.859C101.864 103.802 101.617 103.691 101.399 103.535C101.411 102.41 101.313 101.287 101.107 100.181C100.768 96.3423 100.083 92.5417 99.06 88.8258ZM109.174 106.766C108.939 106.656 108.849 106.568 108.666 106.388C108.422 106.148 108.011 105.743 106.865 104.906C106.69 104.777 106.786 104.459 107.02 104.534C107.899 104.816 109.306 105.674 109.579 106.454C109.665 106.7 109.371 106.856 109.173 106.764L109.174 106.766ZM95.2395 45.3321C95.2846 46.0552 95.3298 46.7799 95.4665 47.4978C95.5975 48.1726 95.8082 48.8309 96.0184 49.4876C96.2388 50.1762 96.4587 50.8631 96.5855 51.5658C96.6461 51.9126 96.1817 52.1562 95.9915 51.8166C95.3611 50.4984 94.9749 49.0768 94.8515 47.6208C94.6424 46.3659 94.5925 45.0896 94.7027 43.8222C94.5324 43.8691 94.3528 43.8702 94.1819 43.8254C94.011 43.7807 93.855 43.6916 93.7295 43.5672C93.7018 43.5377 93.6832 43.5007 93.6759 43.4609C93.6687 43.421 93.673 43.3799 93.6886 43.3425C93.7041 43.305 93.7301 43.2729 93.7634 43.2498C93.7968 43.2268 93.836 43.2139 93.8765 43.2126C93.9931 43.1976 94.1066 43.1942 94.2179 43.1908C94.4971 43.1824 94.7619 43.1745 95.0249 42.984C95.1833 42.8516 95.3005 42.6766 95.3625 42.4797C95.4244 42.2828 95.4287 42.0722 95.3747 41.873C95.3207 41.6737 95.2108 41.4941 95.0579 41.3554C94.905 41.2167 94.7155 41.1247 94.5119 41.0904C94.0998 41.0598 93.6919 41.1911 93.3749 41.4564C93.2927 41.5116 93.2249 41.4096 93.2549 41.3394C93.308 41.2166 93.3842 41.1052 93.4793 41.0112C93.1495 40.5856 92.9269 40.0868 92.8304 39.557C92.7339 39.0272 92.7664 38.482 92.9249 37.9674C92.2676 38.1025 91.5876 38.0795 90.9408 37.9004C90.2941 37.7213 89.6991 37.3912 89.2049 36.9372C88.2826 37.4701 87.2828 37.8557 86.2415 38.0802C86.2208 38.283 86.1994 38.4864 86.1779 38.6904C86.1298 39.1477 86.0814 39.6074 86.0399 40.068C86.3334 39.7362 86.729 39.5118 87.1643 39.4302C87.1962 39.4304 87.2275 39.4379 87.256 39.4521C87.2845 39.4663 87.3094 39.4869 87.3287 39.5122C87.348 39.5375 87.3612 39.5669 87.3673 39.5982C87.3735 39.6294 87.3724 39.6617 87.3641 39.6924C87.2124 39.9442 87.0123 40.1636 86.7755 40.3378C86.5387 40.512 86.2697 40.6377 85.9841 40.7076C85.7937 42.4094 86.0077 44.1321 86.6087 45.7356C87.1019 46.9026 87.9731 48.1686 89.3087 48.4152C90.37 48.6102 91.2549 48.0892 92.1293 47.5743C92.4577 47.381 92.7846 47.1885 93.1187 47.0352C93.1754 47.0051 93.2408 46.9961 93.3035 47.0097C93.3661 47.0233 93.422 47.0587 93.461 47.1095C93.5001 47.1604 93.5199 47.2234 93.5168 47.2875C93.5138 47.3515 93.4882 47.4124 93.4445 47.4594C92.8311 48.1517 92.0606 48.6867 91.1975 49.0194C91.5761 50.0604 91.4201 51.9444 90.6089 52.7184C90.6892 53.1742 90.8438 53.6136 91.0667 54.0192C91.8581 55.1122 93.2416 54.1711 94.411 53.3756C94.7214 53.1645 95.0166 52.9637 95.2817 52.8138C95.3134 52.7964 95.3498 52.7897 95.3855 52.7947C95.4213 52.7998 95.4545 52.8163 95.48 52.8418C95.5056 52.8673 95.5222 52.9004 95.5273 52.9361C95.5325 52.9719 95.5259 53.0083 95.5085 53.04C95.126 53.6678 94.596 54.1927 93.9646 54.5691C93.3331 54.9455 92.6193 55.1621 91.8851 55.2C90.6677 55.1334 90.1817 53.865 90.2789 52.8084C87.4221 54.42 84.4448 55.8079 81.3737 56.9598C81.4981 57.5299 81.6815 58.0855 81.9209 58.6176C81.9289 58.6492 81.9275 58.6824 81.9168 58.7132C81.9061 58.744 81.8867 58.771 81.8608 58.7909C81.835 58.8107 81.8039 58.8225 81.7714 58.8249C81.7389 58.8273 81.7064 58.8201 81.6779 58.8042C81.4163 58.6171 81.2012 58.3725 81.0491 58.0891C80.897 57.8057 80.812 57.4912 80.8007 57.1698C77.4941 58.3542 71.6027 60.066 68.1485 59.4588C67.8203 59.4 67.9241 58.8756 68.2241 58.9026C72.3758 59.2737 77.2019 57.6923 79.4252 56.9638C79.6644 56.8855 79.8735 56.8169 80.0483 56.7618C83.7318 55.5993 85.8992 54.485 87.7462 53.5355C88.6151 53.0889 89.413 52.6786 90.2645 52.317C90.3173 52.1163 90.3954 51.9203 90.4739 51.7234C90.5666 51.4907 90.6598 51.2567 90.7121 51.0126C90.7981 50.3954 90.8261 49.7714 90.7955 49.149C88.9853 49.6524 87.5717 48.8304 86.5853 47.289C84.8567 44.5908 85.2377 41.136 85.8377 38.136C81.3275 38.6094 80.5841 32.8428 83.1713 31.629C83.1791 29.769 85.2533 28.2612 86.9999 28.329C87.8579 28.3899 88.6723 28.7301 89.3187 29.2975C89.9651 29.8649 90.4079 30.6284 90.5795 31.4712C93.1505 30.0666 95.3705 31.329 95.7215 33.2328C97.1165 32.988 98.2805 34.2348 98.2805 35.6928C98.2774 37.4152 96.942 38.9499 95.7907 40.2731C95.6301 40.4577 95.4731 40.6381 95.3237 40.8144C95.5762 40.973 95.7804 41.1977 95.9143 41.4641C96.0483 41.7304 96.1068 42.0284 96.0835 42.3256C96.0603 42.6229 95.9562 42.9081 95.7825 43.1504C95.6088 43.3927 95.3722 43.5829 95.0981 43.7004C95.1714 44.241 95.2054 44.7861 95.2395 45.3321ZM82.9707 35.8164C83.2193 36.1128 83.5545 36.3239 83.9291 36.42C83.9674 36.4289 84.0076 36.4254 84.0437 36.4098C84.0797 36.3942 84.1099 36.3674 84.1296 36.3335C84.1494 36.2995 84.1577 36.26 84.1534 36.221C84.149 36.1819 84.1323 36.1452 84.1055 36.1164C83.6673 35.7629 83.3694 35.2646 83.2655 34.7112C83.2389 34.3343 83.3875 34.0517 83.5383 33.7649C83.6427 33.5664 83.7481 33.3659 83.7971 33.1308C83.8235 33.0024 83.7329 32.8194 83.5745 32.8398C82.7231 32.9514 82.4489 34.032 82.5431 34.7676C82.5726 35.1533 82.7221 35.5201 82.9707 35.8164ZM87.3642 30.0062C87.5533 30.0474 87.7391 30.0878 87.9281 30.0864V30.0834C87.9665 30.083 88.0041 30.0727 88.0373 30.0534C88.0705 30.0342 88.0982 30.0067 88.1176 29.9736C88.1371 29.9405 88.1476 29.903 88.1483 29.8646C88.1489 29.8262 88.1396 29.7883 88.1213 29.7546C87.5879 28.6692 85.0067 29.1198 84.9605 30.8652C84.9563 31.0182 85.1489 31.041 85.2281 30.9354C86.1204 29.7351 86.7595 29.8744 87.3642 30.0062Z" fill="#4D4D4D"/>
</svg>
