<svg width="120" height="120" viewBox="0 0 120 120" fill="none" xmlns="http://www.w3.org/2000/svg">
<path fill-rule="evenodd" clip-rule="evenodd" d="M73.1316 45.39C72.1834 43.085 70.3615 41.2489 68.064 40.2828C66.0544 39.4614 63.8046 39.4518 61.788 40.2559C59.7715 41.0599 58.1456 42.615 57.2526 44.5938C56.6752 45.9044 56.4544 47.3442 56.6124 48.7676C56.7705 50.1909 57.3018 51.5472 58.1526 52.6992L55.725 55.5246C55.6612 55.4472 55.5979 55.3695 55.5346 55.2918L55.5342 55.2913L55.5341 55.2912C55.4131 55.1425 55.292 54.9939 55.1676 54.8478C51.2472 50.25 44.3592 47.6856 39.729 47.9232C39.6898 47.9253 39.646 47.9263 39.5994 47.9274C39.361 47.933 39.0488 47.9404 38.8932 48.096C38.8025 48.1962 38.7982 48.327 38.7939 48.4545C38.7926 48.4957 38.7912 48.5366 38.787 48.576C38.6911 49.8286 38.2464 51.0292 37.5033 52.042C36.7602 53.0549 35.7482 53.8393 34.5822 54.3066C33.5451 54.681 32.4239 54.7576 31.3455 54.5278C30.2671 54.2981 29.2746 53.771 28.4802 53.0064C26.9016 51.3864 26.4114 49.0464 26.1318 46.8912C26.1168 46.7712 25.986 46.7052 25.8798 46.692C18.6036 45.804 9.22079 50.1774 5.19899 57.9918C4.38727 59.5798 3.78119 61.2648 3.39539 63.006C3.3683 63.1259 3.32493 63.2782 3.27661 63.4478C3.11087 64.0298 2.88705 64.8157 3.06359 65.1948C3.15179 65.3848 3.39199 65.5075 3.58395 65.6056L3.58405 65.6056C3.62057 65.6243 3.65534 65.6421 3.68699 65.6592C5.05698 66.3652 6.47558 66.9725 7.93199 67.4766C9.50033 68.1209 11.1387 68.5794 12.8136 68.8428C13.1454 68.8824 13.1454 68.3514 12.8136 68.3124C10.0818 67.989 7.24919 66.7734 4.77359 65.6064C4.36281 65.4727 3.97743 65.2709 3.63359 65.0094C3.44999 64.7936 3.67253 63.9717 3.81738 63.4368C3.85051 63.3144 3.87958 63.2071 3.89879 63.1254C4.27978 61.4325 4.86781 59.793 5.64959 58.2438C9.65339 50.4816 18.8436 46.524 25.641 47.1804C26.1318 50.4438 27.2718 53.9766 30.8148 54.9276C32.3856 55.3211 34.0455 55.137 35.4919 54.4088C36.9383 53.6807 38.0749 52.4571 38.6946 50.961C39.0134 50.304 39.2067 49.5932 39.2646 48.8652C39.2675 48.7583 39.263 48.6846 39.2598 48.6321C39.256 48.5706 39.254 48.5381 39.2678 48.515C39.2832 48.4892 39.3185 48.4751 39.3933 48.4454L39.4374 48.4278C39.739 48.3698 40.0479 48.3607 40.3524 48.4008C41.5609 48.3952 42.765 48.5468 43.9344 48.852C53.2302 51.2934 57.0624 56.6832 60.3036 65.4072C58.3866 68.2632 49.896 71.1576 46.4682 71.7876C46.227 71.5324 46.0134 71.2525 45.831 70.9524C45.5827 70.4119 45.4284 70.1197 45.3094 69.8942L45.3094 69.8942C45.0783 69.4563 44.9803 69.2706 44.5842 68.007C44.1591 66.7192 43.8483 65.3965 43.6554 64.0542C43.6266 63.8292 43.2354 63.8814 43.2576 64.107C43.3734 65.2769 43.5863 66.4351 43.8942 67.5696C43.5726 67.5696 35.5961 75.4366 28.0944 82.8352L28.0937 82.8358L28.0931 82.8365C22.3822 88.4688 16.9469 93.8295 15.3738 95.241C14.6328 95.9064 14.1816 96.5934 14.7372 97.5624C15.4818 98.8614 19.1112 103.813 20.043 105.044C20.1741 105.218 20.3055 105.41 20.441 105.608C20.9612 106.367 21.542 107.215 22.4046 107.459C22.946 107.571 23.5091 107.5 24.0059 107.257C24.5027 107.015 24.9051 106.615 25.1502 106.119C25.668 105.144 24.7031 104.041 23.987 103.223C23.8369 103.051 23.6977 102.892 23.5854 102.749C23.339 102.436 22.8688 101.874 22.3076 101.203L22.3075 101.203C20.8978 99.5167 18.9141 97.1443 18.4644 96.3156C18.4425 96.2766 18.4354 96.231 18.4444 96.1871C18.4534 96.1433 18.4778 96.1041 18.5132 96.0768C18.5486 96.0495 18.5927 96.0358 18.6373 96.0382C18.682 96.0406 18.7243 96.059 18.7566 96.09C19.2639 96.5376 19.734 97.0256 20.1624 97.5492C20.4394 97.3222 20.7165 97.0975 20.9928 96.8734L20.9929 96.8732C22.1856 95.9058 23.3648 94.9494 24.474 93.8616L24.7182 94.1479C25.4846 95.0464 26.2471 95.9404 27.0342 96.8196C27.2463 97.1291 27.5428 97.3712 27.8885 97.517C28.2342 97.6628 28.6145 97.7063 28.9842 97.6422C29.2609 97.5767 29.5187 97.448 29.7373 97.2661C29.9559 97.0843 30.1294 96.8542 30.2442 96.594C30.6198 95.7204 30.1932 95.0406 29.6742 94.3524C29.5761 94.2224 29.2706 93.8554 28.8845 93.3917C28.1252 92.4795 27.054 91.1929 26.6364 90.5982C26.505 90.4116 26.7828 90.2262 26.9412 90.3582C27.312 90.6712 27.6663 91.0032 28.0026 91.353C28.1616 91.194 32.4864 86.7636 33.5076 85.6758C32.9433 85.2597 32.1382 85.0578 31.4222 84.8783C30.1517 84.5598 29.1621 84.3117 30.2976 83.0622C31.8516 81.3528 34.9668 82.4784 36.0678 82.9692C36.434 82.5795 36.9506 82.0233 37.5601 81.3671C40.3283 78.3864 45.0137 73.3415 46.2426 72.45L46.2558 72.4368C46.3118 72.4102 46.3549 72.3626 46.3758 72.3042C46.4376 72.2917 46.4936 72.259 46.5348 72.2112C47.4724 72.1911 48.4003 72.0164 49.281 71.694C52.2918 70.8198 59.1444 68.3268 60.6756 65.592C60.7072 65.5846 60.7368 65.5702 60.7622 65.5499C60.7875 65.5295 60.8079 65.5037 60.8219 65.4744C60.8359 65.4451 60.8432 65.4129 60.8431 65.3804C60.843 65.3479 60.8356 65.3159 60.8214 65.2866C60.7332 65.0618 60.6452 64.8361 60.557 64.6099L60.5569 64.6097L60.5568 64.6096L60.5564 64.6085L60.5563 64.6082L60.5562 64.6078C60.0563 63.3259 59.5506 62.029 58.9644 60.7866C60.2908 59.4074 61.644 58.0588 63.024 56.7408C62.1819 56.3877 61.4193 55.8688 60.7818 55.215C60.6732 55.0986 60.8226 54.9084 60.9546 54.99C62.7054 56.07 64.7736 56.9856 66.8838 56.73C72.015 56.1042 74.8596 49.9914 73.1316 45.39ZM68.7672 50.8686C68.3743 51.332 67.894 51.7135 67.3538 51.9912C66.8135 52.269 66.2238 52.4376 65.6183 52.4875C65.0128 52.5374 64.4035 52.4675 63.825 52.2819C63.2466 52.0962 62.7104 51.7985 62.247 51.4056C61.7836 51.0128 61.4021 50.5325 61.1244 49.9922C60.8466 49.4519 60.678 48.8622 60.6281 48.2567C60.5274 47.034 60.9166 45.8213 61.71 44.8854C63.5364 42.7998 67.044 43.0404 68.7408 45.0978C69.3995 45.9139 69.761 46.9298 69.7658 47.9786C69.7706 49.0274 69.4184 50.0466 68.7672 50.8686ZM92.9226 58.6416C93.1128 56.3286 94.7406 54.5754 96.9426 54.9144C99.8076 55.3548 102.341 58.0692 101.985 60.552C101.869 61.1481 101.631 61.7138 101.287 62.2138C100.942 62.7137 100.498 63.137 99.9816 63.4572C99.7645 63.6042 99.5966 63.8131 99.4997 64.0567C99.4028 64.3003 99.3813 64.5674 99.438 64.8234C100.056 67.6074 100.884 71.3238 101.467 73.8438C100.45 73.8915 99.4268 73.8881 98.4115 73.8848H98.4099H98.4098H98.4097H98.4096C98.0073 73.8835 97.6062 73.8821 97.2072 73.884C96.6195 73.9456 96.0262 73.9277 95.4432 73.8306C94.3836 73.5198 94.386 72.5046 94.488 71.6154C94.8509 68.4515 95.181 66.4042 95.4009 65.0406C95.763 62.7944 95.8261 62.4032 95.244 61.932C94.6899 61.613 94.166 61.2443 93.6786 60.8304C93.4053 60.5396 93.1966 60.1942 93.0663 59.817C92.936 59.4397 92.8871 59.0391 92.9226 58.6416ZM100.66 74.3243C100.917 74.3194 100.948 74.3188 101.188 74.3082C101.241 74.5219 101.287 74.7299 101.328 74.9195C101.349 75.0127 101.368 75.1014 101.387 75.1842C101.433 75.3762 101.434 75.576 101.392 75.7686C101.349 75.9612 101.263 76.1416 101.14 76.2961C101.018 76.4507 100.861 76.5754 100.684 76.6609C100.506 76.7465 100.311 76.7905 100.114 76.7898C98.2231 76.7836 95.2007 76.8392 93.2346 76.8753L92.8578 76.8822C92.668 76.8857 92.4797 76.8477 92.3061 76.7708C92.1325 76.694 91.9777 76.5802 91.8527 76.4373C91.7276 76.2945 91.6352 76.1261 91.582 75.9438C91.5287 75.7616 91.5159 75.5699 91.5444 75.3822L91.7002 74.3489L91.7003 74.3479L91.7004 74.3477L91.7007 74.3456C92.0793 71.8326 92.6621 67.965 93.123 65.0484C93.1618 64.8018 93.1285 64.5493 93.0273 64.3211C92.9261 64.0929 92.7612 63.8988 92.5524 63.762C89.0634 61.476 90.0792 57.1842 93.6924 55.5504C93.1176 56.098 92.688 56.78 92.4426 57.535C92.1972 58.2901 92.1436 59.0943 92.2866 59.8752C92.4438 60.4528 92.7503 60.9788 93.1752 61.4004C93.3795 61.6101 93.6502 61.7837 93.9207 61.9572C94.4911 62.323 95.0608 62.6884 95.0058 63.39C94.9535 64.0617 94.8273 64.8405 94.6583 65.8832L94.6582 65.8841L94.6582 65.8844L94.658 65.8853L94.658 65.8855C94.4354 67.2585 94.1388 69.0888 93.8388 71.7342C93.7224 72.756 93.7044 73.821 94.8072 74.2944C95.4768 74.4773 96.1771 74.5181 96.8634 74.4144C99.4554 74.3473 100.291 74.3313 100.66 74.3243ZM11.646 85.2636C12.1752 78.42 13.3386 70.077 16.2096 63.84C16.2888 63.6696 16.5708 63.7896 16.5144 63.9606C15.449 67.0755 14.5544 70.2462 13.8348 73.4586C12.9907 77.6539 12.4147 81.8987 12.1104 86.1672C12.0081 87.6298 11.9195 88.2646 11.8512 88.7539C11.7143 89.7348 11.6589 90.1312 11.739 95.4396C11.7395 95.4679 11.7417 95.5512 11.7448 95.6704L11.7448 95.6707C11.761 96.2816 11.802 97.8338 11.7654 97.761C11.8584 97.9734 11.5518 98.1594 11.4474 97.9464C11.188 97.417 11.2254 96.5304 11.2565 95.7943L11.2565 95.7943C11.2658 95.5735 11.2746 95.3664 11.2746 95.1864C11.2746 95.1264 11.4312 88.047 11.646 85.2636ZM47.9274 74.0298C48.5358 76.9734 48.9216 79.9212 49.2804 82.9044C49.3056 83.1168 49.6404 83.13 49.6248 82.9044C49.5377 79.8696 49.0742 76.8574 48.2448 73.9368C48.1908 73.725 47.8836 73.818 47.9274 74.0298ZM50.2883 98.3712C50.1603 97.3455 50.0894 96.3135 50.0759 95.28C50.0779 95.2436 50.0925 95.2091 50.1173 95.1824C50.1421 95.1556 50.1754 95.1384 50.2116 95.1337C50.2477 95.129 50.2843 95.1371 50.3151 95.1566C50.3459 95.1761 50.3689 95.2057 50.3801 95.2404C50.666 96.2579 50.7476 97.322 50.6201 98.3712C50.6176 98.4135 50.599 98.4532 50.5682 98.4822C50.5373 98.5113 50.4966 98.5274 50.4542 98.5274C50.4119 98.5274 50.3711 98.5113 50.3403 98.4822C50.3095 98.4532 50.2909 98.4135 50.2883 98.3712Z" fill="#417FDA"/>
<path fill-rule="evenodd" clip-rule="evenodd" d="M39.565 21.7895C39.0882 23.3812 38.7569 24.4877 40.0607 25.3326C40.7738 25.7946 41.5712 26.0613 42.3251 26.3135C44.1764 26.9327 45.7648 27.464 45.1943 30.5838C44.5253 34.2438 40.1003 36.978 38.6147 37.8C38.322 39.1928 38.1585 40.6096 38.1263 42.0324C38.1329 42.7983 38.2028 43.5592 38.2726 44.3193C38.3637 45.3106 38.4547 46.3006 38.4048 47.2986C38.3946 47.511 38.049 47.577 38.007 47.352C37.6698 45.5457 37.509 43.7109 37.5269 41.8734C37.6214 40.1197 37.9016 38.381 38.3627 36.6864L38.5751 35.3598C38.5794 35.3217 38.5947 35.2857 38.6192 35.2562C38.6436 35.2266 38.6762 35.2049 38.7128 35.1936C38.7495 35.1823 38.7886 35.182 38.8254 35.1927C38.8623 35.2033 38.8952 35.2245 38.9201 35.2536C39.1445 35.5332 39.5459 35.6814 40.2731 35.0682C41.6058 33.9468 41.5175 31.6188 40.4058 31.4082C40.2311 31.376 40.0518 31.3794 39.8785 31.4182C39.7051 31.457 39.5414 31.5303 39.3971 31.6338C39.3314 31.68 39.254 31.7069 39.1738 31.7113C39.0936 31.7157 39.0137 31.6976 38.9433 31.6589C38.8728 31.6202 38.8147 31.5626 38.7754 31.4925C38.7361 31.4224 38.7172 31.3427 38.721 31.2624C38.7635 30.0288 38.7738 27.906 37.8587 27.3624C37.5815 27.1977 37.3293 27.0442 37.0938 26.901C36.0779 26.283 35.3745 25.8551 34.3301 25.5312C33.9245 25.4055 33.3864 25.2946 32.7804 25.1698C29.5609 24.5067 24.4257 23.449 27.0606 17.6652C30.1913 10.7928 39.2639 11.193 40.1267 16.1928C40.5341 18.5535 39.9914 20.3657 39.565 21.7895ZM32.4599 15.0648C34.1669 14.394 35.8523 14.895 37.2599 15.954C37.4735 16.1136 37.6727 15.78 37.5131 15.6072C36.3587 14.1876 34.0247 13.9098 32.3927 14.5194C30.6155 15.1854 29.3219 17.0658 28.6913 18.7794C28.6815 18.8104 28.6834 18.844 28.6968 18.8736C28.7101 18.9033 28.734 18.927 28.7637 18.9402C28.7935 18.9533 28.827 18.955 28.858 18.945C28.8889 18.9349 28.915 18.9138 28.9314 18.8856C29.7437 17.3208 30.7529 15.7356 32.4599 15.0648ZM116.947 40.3752C116.946 39.8637 116.844 39.3575 116.646 38.8857C116.449 38.414 116.16 37.986 115.796 37.6265C115.432 37.2671 115.001 36.9832 114.526 36.7914C114.052 36.5995 113.545 36.5035 113.033 36.5088H105.127C105.095 36.818 105.014 37.1201 104.887 37.404C104.862 37.4434 104.824 37.4737 104.781 37.4908C104.737 37.5078 104.689 37.5106 104.643 37.4989C104.598 37.4871 104.557 37.4614 104.527 37.4253C104.497 37.3892 104.479 37.3446 104.476 37.2978C104.469 37.124 104.496 36.795 104.531 36.3513C104.679 34.5174 104.984 30.7246 103.733 27.8394C103.163 26.585 102.24 25.524 101.076 24.7866C99.9117 24.0491 98.5579 23.6671 97.1802 23.6874C95.7281 23.7172 94.3115 24.1418 93.0825 24.9156C91.8535 25.6895 90.8584 26.7834 90.204 28.08C88.9603 30.6055 89.3027 33.601 89.6142 36.3255L89.6466 36.6096C89.6466 36.6196 89.652 36.6281 89.6566 36.6352L89.6595 36.6399C89.6618 36.6437 89.6633 36.6472 89.6627 36.6503C89.6582 36.6744 89.5241 36.6742 88.6252 36.6729C88.0107 36.6721 87.0388 36.6707 85.5066 36.6762C83.6326 36.7014 81.7678 36.943 79.9494 37.3962C78.9145 37.6621 77.9977 38.2655 77.3441 39.1108C76.6905 39.956 76.3373 40.9951 76.3404 42.0636C76.2114 48.9636 77.7366 85.5576 78.0804 93.2946C78.0893 93.4931 78.0949 93.6931 78.1005 93.8937C78.1282 94.8861 78.1563 95.8919 78.5976 96.7968C78.9209 97.4507 79.4018 98.0137 79.9971 98.4352C80.5924 98.8567 81.2833 99.1234 82.0074 99.2112C82.9394 99.2687 83.8739 99.2731 84.8064 99.2244C86.6423 99.2033 88.6983 99.206 90.9086 99.2089C97.0361 99.217 104.349 99.2266 111.443 98.7336C112.239 98.7149 113.018 98.5008 113.711 98.1102C115.759 96.8994 116.932 93.5538 116.975 91.1058C116.976 91.0505 116.977 91.0064 116.978 90.9691L116.98 90.879L116.981 90.8252C116.987 90.5812 116.987 90.337 116.982 86.7191V86.7168V86.7143V86.7115V86.7085V86.7052V86.7015V86.6976V86.6932V86.6885V86.6833V86.6776V86.6713C116.976 81.4555 116.963 69.3113 116.947 40.3752ZM101.16 36.3696C101.162 36.4255 101.142 36.4798 101.105 36.5217C101.068 36.5635 101.016 36.5896 100.961 36.5946H93.5466C93.5558 36.92 93.5247 37.2453 93.4542 37.563H93.0294C92.9582 37.2187 92.9358 36.866 92.9628 36.5154C92.9455 36.3422 92.9273 36.1674 92.909 35.9913C92.7306 34.2773 92.5401 32.4461 93.069 30.798C93.3417 29.8902 93.8936 29.0914 94.6461 28.5151C95.3987 27.9388 96.3137 27.6142 97.2612 27.5874C101.158 27.6584 101.155 32.1514 101.153 35.2809C101.153 35.6684 101.153 36.0349 101.16 36.3696ZM92.7108 26.4732C93.4818 25.8158 94.3821 25.3274 95.3536 25.0395C96.325 24.7516 97.346 24.6705 98.3508 24.8016C98.5494 24.8286 98.4834 25.1202 98.3106 25.1334C96.3606 25.293 94.3842 25.5846 92.925 27.0438C91.6714 28.2974 91.4367 29.8905 91.1978 31.512C91.128 31.986 91.0578 32.4624 90.9618 32.9334C90.9222 33.1062 90.6834 33.0534 90.6702 32.8938C90.4956 30.6522 90.9864 28.0254 92.7108 26.4732ZM113.657 97.56C112.803 98.1466 111.85 98.2064 110.859 98.2688L110.738 98.2764C106.478 98.5284 89.7132 98.6214 85.5876 98.6364C85.2393 98.6364 84.879 98.6507 84.5135 98.6651C82.9165 98.7283 81.22 98.7954 79.9896 97.6944C78.7956 96.6336 78.7296 95.2272 78.663 93.7416C78.1062 81.126 76.8852 41.622 77.1906 40.7616C77.431 40.0831 77.859 39.4866 78.4249 39.0416C78.9907 38.5966 79.6712 38.3213 80.3874 38.2476H111.19C113.153 38.2476 114.373 39.8076 114.572 41.8092C114.719 51.2027 114.841 58.9264 114.942 65.2801L114.944 65.3831L114.948 65.6761L114.949 65.7003L114.949 65.7023L114.949 65.7042L114.949 65.7062L114.949 65.7081L114.949 65.7101L114.949 65.712L114.949 65.714L114.949 65.7159L114.949 65.7179L114.949 65.7198L114.949 65.7218L114.949 65.7237C115.401 94.2861 115.408 94.7412 115.275 95.151L115.269 95.1709C115.258 95.2018 115.248 95.2349 115.236 95.2818C115.008 96.2099 114.446 97.0213 113.657 97.56ZM112.439 45.2584V45.2587V45.2589V45.2592V45.2594V45.2596V45.2598V45.26V45.2602V45.2604V45.2606V45.2608V45.261V45.2612V45.2613C112.435 45.5173 112.431 45.7695 112.436 46.0134C112.56 51.9786 112.86 76.8102 112.821 86.433L112.821 86.4623C112.816 87.5523 112.812 88.5744 112.051 89.4444C111.253 90.3576 110.221 90.4692 109.067 90.5454C102.867 90.9545 96.7706 90.9377 91.3357 90.9228C89.2694 90.9171 87.2987 90.9117 85.4544 90.93C85.274 90.9317 85.0929 90.9372 84.9119 90.9426C83.8958 90.9732 82.8847 91.0036 82.0188 90.3726C80.7779 89.4693 80.7436 88.0378 80.7102 86.6468V86.6464C80.7054 86.4457 80.7006 86.2458 80.6922 86.0484C80.0322 70.5948 79.4022 55.6752 79.4322 44.3682C79.3728 44.3439 79.3227 44.3012 79.2893 44.2464C79.2559 44.1915 79.241 44.1274 79.2468 44.0634C79.2445 43.5799 79.3534 43.1023 79.565 42.6676C79.7766 42.2328 80.0853 41.8525 80.4672 41.556C81.2906 40.9242 82.2853 40.8829 83.2877 40.8412L83.2878 40.8412L83.2879 40.8412L83.442 40.8347C83.5028 40.8321 83.5636 40.8294 83.6244 40.8264C90.081 40.5096 97.3764 40.509 103.761 40.641C104.342 40.6528 104.93 40.6523 105.52 40.6517C106.885 40.6505 108.264 40.6492 109.598 40.8C110.081 40.8523 110.546 41.016 110.955 41.2784C111.364 41.5408 111.707 41.8946 111.956 42.312C112.469 43.1777 112.453 44.2482 112.439 45.2584ZM109.93 89.937C111.561 89.7355 112.224 88.4378 112.225 86.9383C112.224 85.3976 111.822 48.2941 111.76 45.1926L111.759 45.1109C111.731 43.6902 111.702 42.2278 110.155 41.6244C109.54 41.3843 108.803 41.3923 108.113 41.3997C107.894 41.4021 107.68 41.4044 107.476 41.3988C101.261 41.2284 92.85 41.1816 86.1714 41.4252C85.8713 41.4362 85.5347 41.4358 85.1776 41.4354H85.1774C82.9769 41.4328 79.9955 41.4292 79.95 44.0784C79.9504 44.1381 79.9345 44.1968 79.9041 44.2482C79.8736 44.2996 79.8298 44.3417 79.7772 44.37C79.7892 45.1698 81.0984 85.9656 81.2232 87.8808C81.2227 88.5338 81.4658 89.1636 81.905 89.6468C82.3442 90.1301 82.9479 90.4321 83.598 90.4938C84.4976 90.5705 85.4312 90.5331 86.3581 90.496C86.8524 90.4762 87.3448 90.4565 87.8292 90.4542C88.5147 90.4509 89.3116 90.4488 90.1897 90.4464C96.2337 90.4298 106.12 90.4027 109.93 89.937ZM95.9659 92.2061C96.3172 92.1245 96.6819 92.119 97.0355 92.19C97.6881 92.2463 98.2926 92.5558 98.7198 93.0523C99.147 93.5487 99.3629 94.1927 99.3213 94.8463C99.2796 95.4999 98.9838 96.1113 98.497 96.5495C98.0103 96.9877 97.3713 97.218 96.717 97.191C96.3572 97.2166 95.9961 97.1648 95.658 97.0393C95.3199 96.9138 95.0125 96.7174 94.7566 96.4633C94.5006 96.2092 94.302 95.9032 94.174 95.566C94.046 95.2288 93.9917 94.8681 94.0146 94.5082C94.0376 94.1483 94.1372 93.7974 94.307 93.4792C94.4767 93.1609 94.7125 92.8827 94.9987 92.6631C95.2848 92.4435 95.6146 92.2877 95.9659 92.2061ZM26.8883 39.009C28.6685 39.945 30.5039 39.858 32.4197 39.447C32.6183 39.4044 32.7653 39.6996 32.5655 39.7938C29.0957 41.3976 24.6593 39.2766 23.2931 35.814C22.577 34.0025 23.43 32.1538 24.1951 30.4954L24.2879 30.294C25.1662 28.3413 26.3241 26.5268 27.7253 24.9078C27.8429 24.774 28.0835 24.9612 27.9773 25.107C26.9221 26.5217 25.9859 28.0215 25.1783 29.5908C25.1172 29.7119 25.0531 29.8372 24.9872 29.9659C24.252 31.4036 23.2896 33.2854 23.5583 34.8438C23.8625 36.609 25.3385 38.1948 26.8883 39.009ZM29.4216 29.22C29.5266 29.0862 29.385 28.8258 29.2098 28.9548L29.1795 28.9771L29.1794 28.9771C28.8368 29.2288 28.4959 29.4792 28.1748 29.7636C27.8437 29.9979 27.5489 30.2797 27.3 30.6C27.0276 31.1076 27.7482 31.785 28.1094 32.0328C28.2672 32.1408 28.4802 31.9536 28.4274 31.7808C28.3387 31.5269 28.2087 31.2893 28.0428 31.0776C27.9896 30.9993 27.9321 30.924 27.8706 30.852C28.4355 30.3556 28.9545 29.8094 29.4216 29.22ZM27.6423 27.244C27.52 27.1737 27.4 27.1048 27.3126 27.0174C27.2832 26.9863 27.2636 26.9472 27.2562 26.9051C27.2487 26.8629 27.2537 26.8195 27.2706 26.7802C27.2875 26.7408 27.3155 26.7073 27.3512 26.6837C27.3869 26.66 27.4288 26.6474 27.4716 26.6472C28.2414 26.6472 29.2284 27.8214 28.4136 28.4244C28.269 28.5306 28.0542 28.3434 28.1088 28.1844C28.3008 27.6222 27.9634 27.4284 27.6423 27.244ZM31.9158 29.166C31.8209 29.1314 31.7201 29.116 31.6192 29.1207C31.5182 29.1253 31.4193 29.15 31.328 29.1932C31.2367 29.2364 31.1548 29.2973 31.0872 29.3723C31.0196 29.4474 30.9676 29.5351 30.9342 29.6304C30.8916 29.8158 31.1466 30.0024 31.2942 29.8296C31.6511 29.406 32.1208 29.8048 32.5134 30.1383C32.6613 30.2639 32.7983 30.3802 32.9142 30.4398C32.955 30.4631 33.0023 30.4723 33.0488 30.4661C33.0954 30.4598 33.1386 30.4384 33.1718 30.4052C33.205 30.372 33.2264 30.3288 33.2326 30.2823C33.2389 30.2357 33.2297 30.1884 33.2064 30.1476C33.0698 29.9045 32.8848 29.6919 32.6628 29.5231C32.4408 29.3542 32.1866 29.2327 31.9158 29.166ZM32.5128 35.5068C32.1636 36.6108 30.471 36.7764 29.541 36.462C29.4986 36.4517 29.462 36.4249 29.4393 36.3876C29.4167 36.3503 29.4097 36.3055 29.4201 36.2631C29.4304 36.2207 29.4572 36.1841 29.4945 36.1615C29.5318 36.1388 29.5766 36.1319 29.619 36.1422C30.1208 36.2529 30.6444 36.2067 31.119 36.0096C31.4989 35.7865 31.8665 35.5429 32.22 35.28C32.2545 35.2609 32.2938 35.2524 32.3331 35.2554C32.3724 35.2584 32.4099 35.2729 32.441 35.297C32.4722 35.3212 32.4956 35.3539 32.5083 35.3912C32.5211 35.4285 32.5226 35.4687 32.5128 35.5068ZM29.04 41.1846C28.3312 43.4155 27.7423 45.6827 27.276 47.9766C27.2064 48.3366 27.7656 48.4938 27.8328 48.1356C28.2427 45.9569 28.7601 43.7874 29.2753 41.6271L29.2753 41.6269L29.3586 41.2776C29.3682 41.2362 29.3617 41.1927 29.3402 41.156C29.3188 41.1193 29.2841 41.0923 29.2433 41.0804C29.2025 41.0685 29.1587 41.0726 29.1209 41.092C29.0831 41.1114 29.0541 41.1445 29.04 41.1846ZM32.3538 27.1236C32.2218 27.1794 32.2602 27.3636 32.3538 27.4284C32.5442 27.563 32.7571 27.6502 32.9694 27.7371C33.1992 27.8313 33.4283 27.9251 33.627 28.0782C33.9456 28.3816 34.1829 28.7602 34.317 29.1792C34.3376 29.2155 34.3675 29.2457 34.4036 29.2667C34.4397 29.2877 34.4807 29.2988 34.5225 29.2988C34.5642 29.2988 34.6052 29.2877 34.6413 29.2667C34.6774 29.2457 34.7073 29.2155 34.728 29.1792C35.5056 27.969 33.3978 26.6802 32.3538 27.1236ZM28.2507 25.2638C28.2604 25.2249 28.2799 25.1891 28.3074 25.1598C29.1276 24.4278 30.5292 25.8216 30.7752 26.5794C30.7879 26.6377 30.7817 26.6986 30.7575 26.7531C30.7332 26.8077 30.6922 26.853 30.6404 26.8826C30.5885 26.9122 30.5286 26.9245 30.4693 26.9177C30.41 26.9108 30.3545 26.8852 30.3108 26.8446C29.8424 26.2105 29.174 25.7527 28.4136 25.545C28.375 25.534 28.3399 25.5132 28.3116 25.4847C28.2834 25.4562 28.263 25.4209 28.2523 25.3822C28.2416 25.3436 28.2411 25.3028 28.2507 25.2638ZM29.13 91.434C35.5956 99.4932 51.6234 96.5208 60.1974 88.6878C65.6148 83.739 64.827 79.2408 62.5188 72.4512C61.952 70.5585 61.1966 68.7275 60.264 66.9858C60.186 66.852 60.0012 66.9714 60.0648 67.1058C61.5419 70.2555 62.6589 73.5619 63.3948 76.962C64.3638 81.3582 63.7902 84.402 60.6222 87.654C55.4298 92.9814 47.4366 95.9706 40.0476 95.7192C36.1344 95.586 32.0166 94.2714 29.3424 91.2354C29.2122 91.0872 29.0238 91.3014 29.13 91.434ZM7.52102 95.148C4.45005 86.5282 3.74906 77.2421 5.49122 68.259C5.52782 68.073 5.79602 68.1534 5.75642 68.34C4.37633 77.2883 5.07539 86.4342 7.79942 95.0688C7.86542 95.2542 7.58402 95.322 7.52102 95.148ZM31.5048 83.3688C32.8934 83.244 34.2919 83.448 35.5871 83.9642C36.8823 84.4804 38.0377 85.2943 38.9598 86.34C39.0734 86.4695 39.1643 86.62 39.2533 86.7675C39.4464 87.0875 39.6311 87.3934 40.0212 87.441C40.6791 87.4752 41.3387 87.4263 41.9844 87.2952C45.8688 86.7342 51.6534 84.5352 51.7476 79.827C51.7896 77.7072 50.5476 74.247 49.7844 72.279C49.7022 72.0672 49.3752 72.1452 49.4394 72.3714C49.6266 73.0321 49.8377 73.6836 50.0485 74.3342L50.0485 74.3344L50.0485 74.3344C50.5132 75.7686 50.9763 77.1982 51.1794 78.7122C51.8058 83.4228 46.4994 86.2188 41.7744 86.8572C41.6889 86.8688 41.5726 86.8908 41.4391 86.916C40.952 87.0081 40.2353 87.1435 39.9438 86.9772C39.9126 86.9618 39.8098 86.7836 39.7136 86.6169C39.6448 86.4978 39.5795 86.3846 39.546 86.3406C39.2608 85.9827 38.9408 85.6539 38.5908 85.359C37.6376 84.5003 36.5141 83.8521 35.2936 83.4566C34.073 83.0612 32.7829 82.9274 31.5072 83.064C31.3056 83.0898 31.305 83.3928 31.5048 83.3688ZM33.3773 87.9916C34.4097 87.7112 35.4044 87.441 34.3434 86.2338C34.2132 86.0856 34.407 85.878 34.545 86.0232C35.5374 87.0822 35.2794 87.8682 34.065 88.239C33.5875 88.3987 33.1 88.5271 32.6058 88.6236C32.5581 88.6359 32.5074 88.6288 32.4649 88.6038C32.4224 88.5787 32.3917 88.5379 32.3793 88.4901C32.367 88.4424 32.3741 88.3917 32.3992 88.3492C32.4242 88.3067 32.4651 88.276 32.5128 88.2636C32.7706 88.1563 33.0756 88.0735 33.3773 87.9916Z" fill="#4D4D4D"/>
</svg>
