<svg width="24" height="24" viewBox="0 0 24 24" fill="none" xmlns="http://www.w3.org/2000/svg">
<path fill-rule="evenodd" clip-rule="evenodd" d="M5.74992 13.1526C5.74992 13.6128 5.37682 13.9859 4.91658 13.9859C4.45634 13.9859 4.08324 13.6128 4.08324 13.1526V6.22252C4.08416 4.99544 5.07868 4.00092 6.30576 4H17.6942C18.9213 4.00092 19.9158 4.99544 19.9167 6.22252V13.1526C19.9167 13.6128 19.5436 13.9859 19.0834 13.9859C18.6231 13.9859 18.25 13.6128 18.25 13.1526V6.22252C18.25 5.91554 18.0012 5.66668 17.6942 5.66668H6.30576C5.99878 5.66668 5.74992 5.91554 5.74992 6.22252V13.1526ZM21.5834 15.2501C21.7116 15.2501 21.8327 15.3091 21.9117 15.4101C21.9907 15.5112 22.0187 15.6431 21.9876 15.7676C21.4536 17.9135 19.5255 19.419 17.3142 19.4168H6.68576C4.47442 19.419 2.54636 17.9135 2.01239 15.7676C1.98135 15.6432 2.00935 15.5114 2.08829 15.4103C2.16723 15.3092 2.28831 15.2501 2.41656 15.2501H9.08328C9.3134 15.2501 9.49995 15.4366 9.49995 15.6668C9.49995 16.2584 10.5266 16.9168 12 16.9168C13.4733 16.9168 14.5 16.2584 14.5 15.6668C14.5 15.4366 14.6865 15.2501 14.9167 15.2501H21.5834Z" fill="#161616"/>
</svg>
