<svg width="24" height="24" viewBox="0 0 24 24" fill="none" xmlns="http://www.w3.org/2000/svg">
<path fill-rule="evenodd" clip-rule="evenodd" d="M8.24996 12.4915C8.24996 12.7677 8.0261 12.9916 7.74996 12.9916C7.47381 12.9916 7.24995 12.7677 7.24995 12.4915V8.33351C7.2505 7.59726 7.84721 7.00055 8.58346 7H15.4165C16.1528 7.00055 16.7495 7.59726 16.75 8.33351V12.4915C16.75 12.7677 16.5262 12.9916 16.25 12.9916C15.9739 12.9916 15.75 12.7677 15.75 12.4915V8.33351C15.75 8.14932 15.6007 8.00001 15.4165 8.00001H8.58346C8.39927 8.00001 8.24996 8.14932 8.24996 8.33351V12.4915ZM17.75 13.7501C17.827 13.7501 17.8996 13.7855 17.947 13.8461C17.9944 13.9068 18.0112 13.9859 17.9925 14.0606C17.6722 15.3481 16.5153 16.2514 15.1885 16.2501H8.81146C7.48465 16.2514 6.32781 15.3481 6.00743 14.0606C5.98881 13.9859 6.00561 13.9068 6.05297 13.8462C6.10034 13.7855 6.17299 13.7501 6.24994 13.7501H10.25C10.388 13.7501 10.5 13.862 10.5 14.0001C10.5 14.3551 11.116 14.7501 12 14.7501C12.884 14.7501 13.5 14.3551 13.5 14.0001C13.5 13.862 13.6119 13.7501 13.75 13.7501H17.75Z" fill="#161616"/>
</svg>
