<svg width="24" height="24" viewBox="0 0 24 24" fill="none" xmlns="http://www.w3.org/2000/svg">
<path fill-rule="evenodd" clip-rule="evenodd" d="M6.99995 13.3221C6.99995 13.6903 6.70147 13.9887 6.33327 13.9887C5.96508 13.9887 5.6666 13.6903 5.6666 13.3221V7.77801C5.66734 6.79635 6.46295 6.00074 7.44462 6H16.5554C17.537 6.00074 18.3326 6.79635 18.3334 7.77801V13.3221C18.3334 13.6903 18.0349 13.9887 17.6667 13.9887C17.2985 13.9887 17 13.6903 17 13.3221V7.77801C17 7.53243 16.8009 7.33334 16.5554 7.33334H7.44462C7.19903 7.33334 6.99995 7.53243 6.99995 7.77801V13.3221ZM19.6667 15.0001C19.7693 15.0001 19.8662 15.0473 19.9294 15.1281C19.9926 15.209 20.0149 15.3145 19.99 15.4141C19.5629 17.1308 18.0204 18.3352 16.2513 18.3335H7.74861C5.97954 18.3352 4.43709 17.1308 4.00991 15.4141C3.98508 15.3146 4.00748 15.2091 4.07063 15.1283C4.13378 15.0474 4.23065 15.0001 4.33325 15.0001H9.66663C9.85072 15.0001 9.99996 15.1493 9.99996 15.3334C9.99996 15.8068 10.8213 16.3334 12 16.3334C13.1787 16.3334 14 15.8068 14 15.3334C14 15.1493 14.1492 15.0001 14.3333 15.0001H19.6667Z" fill="#161616"/>
</svg>
