<svg width="24" height="24" viewBox="0 0 24 24" fill="none" xmlns="http://www.w3.org/2000/svg">
<path fill-rule="evenodd" clip-rule="evenodd" d="M13 16.9445V16.1245C13 16.0555 12.944 15.9995 12.875 15.9995H8.25C8.11193 15.9995 8 15.8876 8 15.7495V7.75C8 7.61193 8.11193 7.5 8.25 7.5H12.75C12.8881 7.5 13 7.61193 13 7.75V11.8C12.9999 11.8379 13.017 11.8738 13.0465 11.8975L13.7965 12.4975C13.834 12.5278 13.8856 12.5338 13.929 12.513C13.9725 12.4921 14.0001 12.4482 14 12.4V7.25V7.2245C13.9861 6.54412 13.4305 5.99986 12.75 6H8.25C7.56948 5.99986 7.01388 6.54412 7 7.2245V7.25V16.75V16.776C7.01415 17.4562 7.56967 18.0001 8.25 18H12.75C12.8809 18.0001 13.011 17.9795 13.1355 17.939C13.1696 17.928 13.1973 17.9029 13.2115 17.8701C13.2258 17.8373 13.2252 17.7999 13.21 17.7675C13.0824 17.5112 13.0108 17.2306 13 16.9445ZM10.6025 10.3745C11.0512 10.3745 11.415 10.0107 11.415 9.56201C11.415 9.11328 11.0512 8.74951 10.6025 8.74951C10.1537 8.74951 9.78998 9.11328 9.78998 9.56201C9.78998 10.0107 10.1537 10.3745 10.6025 10.3745ZM10.6024 10.781C11.199 10.7917 11.729 11.1643 11.9409 11.722C11.9654 11.7849 11.9572 11.8559 11.919 11.9115C11.8807 11.9671 11.8175 12.0003 11.7499 12H9.45545C9.38793 12.0003 9.32464 11.9671 9.28641 11.9115C9.24818 11.8559 9.23995 11.7849 9.26445 11.722C9.47637 11.1645 10.0061 10.7919 10.6024 10.781ZM15.3813 14.0902C15.4341 13.9398 15.386 13.7725 15.2615 13.673L14.7965 13.3055C14.7663 13.2812 14.7492 13.2442 14.75 13.2055V11.576C14.7489 11.5274 14.7762 11.4825 14.8198 11.4611C14.8635 11.4396 14.9157 11.4454 14.9535 11.476C15.671 12.054 16.3975 12.775 16.3975 13.515V16.4295C16.3977 16.4547 16.4053 16.4792 16.4195 16.5L17.1385 17.5545C17.1647 17.5928 17.1675 17.6425 17.1458 17.6835C17.124 17.7245 17.0814 17.7501 17.035 17.75H14.08C14.0333 17.7484 13.9914 17.721 13.971 17.679C13.8824 17.5135 13.8302 17.3309 13.818 17.1435V15.871C13.8181 15.8404 13.8068 15.8109 13.7865 15.788L11.9535 13.717C11.8244 13.5882 11.7519 13.4134 11.7519 13.231C11.7519 13.0487 11.8244 12.8738 11.9535 12.745C12.1615 12.5369 12.4789 12.4842 12.743 12.614L14.793 14.2585C14.8592 14.3121 14.9418 14.3412 15.027 14.341C15.1864 14.3412 15.3285 14.2406 15.3813 14.0902Z" fill="#161616"/>
</svg>
