<svg width="24" height="24" viewBox="0 0 24 24" fill="none" xmlns="http://www.w3.org/2000/svg">
<path fill-rule="evenodd" clip-rule="evenodd" d="M14 20.2408V18.8742C14 18.7591 13.9067 18.6658 13.7917 18.6658H6.08333C5.85321 18.6658 5.66667 18.4793 5.66667 18.2492V4.91667C5.66667 4.68655 5.85321 4.5 6.08333 4.5H13.5833C13.8135 4.5 14 4.68655 14 4.91667V11.6667C13.9998 11.7298 14.0283 11.7896 14.0775 11.8292L15.3275 12.8292C15.39 12.8796 15.4759 12.8896 15.5484 12.8549C15.6208 12.8202 15.6668 12.747 15.6667 12.6667V4.08333V4.04083C15.6435 2.90687 14.7175 1.99976 13.5833 2H6.08333C4.94914 1.99976 4.02314 2.90687 4 4.04083V4.08333V19.9167V19.96C4.02358 21.0936 4.94945 22.0002 6.08333 22H13.5833C13.8015 22.0001 14.0183 21.9658 14.2258 21.8983C14.2826 21.88 14.3288 21.8382 14.3526 21.7835C14.3763 21.7288 14.3754 21.6665 14.35 21.6125C14.1373 21.1853 14.018 20.7177 14 20.2408ZM10.0042 9.29083C10.7521 9.29083 11.3583 8.68455 11.3583 7.93667C11.3583 7.18878 10.7521 6.5825 10.0042 6.5825C9.25628 6.5825 8.65 7.18878 8.65 7.93667C8.65 8.68455 9.25628 9.29083 10.0042 9.29083ZM10.0042 9.96833C10.9984 9.9862 11.8817 10.6072 12.235 11.5367C12.2758 11.6415 12.2621 11.7598 12.1984 11.8525C12.1347 11.9453 12.0292 12.0005 11.9167 12H8.0925C7.97998 12.0005 7.8745 11.9453 7.81077 11.8525C7.74705 11.7598 7.73335 11.6415 7.77417 11.5367C8.12737 10.6075 9.01027 9.98653 10.0042 9.96833ZM17.9688 15.4837C18.0568 15.233 17.9767 14.9541 17.7692 14.7883L16.9942 14.1758C16.9439 14.1353 16.9153 14.0737 16.9167 14.0092V11.2933C16.9149 11.2123 16.9603 11.1375 17.0331 11.1018C17.1058 11.066 17.1927 11.0757 17.2558 11.1267C18.4517 12.09 19.6625 13.2917 19.6625 14.525V19.3825C19.6628 19.4244 19.6755 19.4654 19.6992 19.5L20.8975 21.2575C20.9411 21.3214 20.9458 21.4041 20.9096 21.4725C20.8734 21.5408 20.8023 21.5835 20.725 21.5833H15.8C15.7222 21.5806 15.6523 21.5351 15.6183 21.465C15.4707 21.1891 15.3837 20.8848 15.3633 20.5725V18.4517C15.3634 18.4007 15.3447 18.3514 15.3108 18.3133L12.2558 14.8617C12.0407 14.647 11.9198 14.3556 11.9198 14.0517C11.9198 13.7477 12.0407 13.4563 12.2558 13.2417C12.6025 12.8948 13.1315 12.807 13.5717 13.0233L16.9883 15.7642C17.0987 15.8535 17.2364 15.902 17.3783 15.9017C17.644 15.902 17.8808 15.7343 17.9688 15.4837Z" fill="#161616"/>
</svg>
