<svg width="24" height="24" viewBox="0 0 24 24" fill="none" xmlns="http://www.w3.org/2000/svg">
<path fill-rule="evenodd" clip-rule="evenodd" d="M13 18.5927V17.4993C13 17.4073 12.9254 17.3327 12.8333 17.3327H6.66667C6.48257 17.3327 6.33333 17.1834 6.33333 16.9993V6.33333C6.33333 6.14924 6.48257 6 6.66667 6H12.6667C12.8508 6 13 6.14924 13 6.33333V11.7333C12.9998 11.7838 13.0226 11.8317 13.062 11.8633L14.062 12.6633C14.112 12.7037 14.1807 12.7117 14.2387 12.6839C14.2966 12.6562 14.3334 12.5976 14.3333 12.5333V5.66667V5.63267C14.3148 4.7255 13.574 3.99981 12.6667 4H6.66667C5.75931 3.99981 5.01851 4.7255 5 5.63267V5.66667V18.3333V18.368C5.01887 19.2749 5.75956 20.0002 6.66667 20H12.6667C12.8412 20.0001 13.0147 19.9726 13.1807 19.9187C13.2261 19.904 13.263 19.8706 13.282 19.8268C13.3011 19.783 13.3003 19.7332 13.28 19.69C13.1098 19.3482 13.0144 18.9742 13 18.5927ZM9.80335 9.83268C10.4017 9.83268 10.8867 9.34766 10.8867 8.74935C10.8867 8.15104 10.4017 7.66602 9.80335 7.66602C9.20504 7.66602 8.72002 8.15104 8.72002 8.74935C8.72002 9.34766 9.20504 9.83268 9.80335 9.83268ZM9.80331 10.3747C10.5987 10.3889 11.3053 10.8857 11.588 11.6293C11.6206 11.7132 11.6097 11.8078 11.5587 11.882C11.5077 11.9562 11.4233 12.0004 11.3333 12H8.27398C8.18396 12.0004 8.09957 11.9562 8.0486 11.882C7.99762 11.8078 7.98665 11.7132 8.01931 11.6293C8.30187 10.886 9.00819 10.3892 9.80331 10.3747ZM16.1751 14.787C16.2455 14.5864 16.1814 14.3633 16.0154 14.2307L15.3954 13.7407C15.3551 13.7083 15.3322 13.659 15.3334 13.6074V11.4347C15.3319 11.3698 15.3683 11.31 15.4265 11.2814C15.4847 11.2528 15.5542 11.2606 15.6047 11.3014C16.5614 12.072 17.53 13.0334 17.53 14.02V17.906C17.5302 17.9396 17.5405 17.9723 17.5594 18L18.518 19.406C18.5529 19.4571 18.5566 19.5233 18.5277 19.578C18.4988 19.6327 18.4419 19.6668 18.38 19.6667H14.44C14.3778 19.6645 14.3218 19.6281 14.2947 19.572C14.1766 19.3513 14.107 19.1078 14.0907 18.858V17.1614C14.0908 17.1206 14.0758 17.0812 14.0487 17.0507L11.6047 14.2894C11.4326 14.1176 11.3358 13.8845 11.3358 13.6414C11.3358 13.3982 11.4326 13.1651 11.6047 12.9934C11.8821 12.7159 12.3053 12.6456 12.6574 12.8187L15.3907 15.0114C15.479 15.0828 15.5891 15.1216 15.7027 15.1214C15.9152 15.1216 16.1047 14.9875 16.1751 14.787Z" fill="#161616"/>
</svg>
